<svg xmlns="http://www.w3.org/2000/svg" xmlns:xlink="http://www.w3.org/1999/xlink" viewBox="0 0 1571.46 2434.61"><defs><style>.cls-1{fill:none;}.cls-2{isolation:isolate;}.cls-3{fill:url(#linear-gradient);}.cls-4{opacity:0.4;fill:url(#linear-gradient-2);}.cls-5{fill:#58943f;}.cls-6{fill:#2b672d;}.cls-7{fill:#ededed;}.cls-8{fill:#fff;}.cls-9{fill:#936037;}.cls-10{fill:#845630;}.cls-11{fill:#683c11;}.cls-12{clip-path:url(#clip-path);}.cls-13{clip-path:url(#clip-path-2);}.cls-14{fill:#8b3f26;}.cls-15{fill:#944c35;}.cls-16,.cls-51{mix-blend-mode:multiply;}.cls-17{fill:#d5d4d4;}.cls-18{fill:#576e28;}.cls-19{fill:#77932b;}.cls-20{fill:#c7d664;}.cls-21{fill:#8ca927;}.cls-22{fill:#6b3420;}.cls-23,.cls-31,.cls-33{fill:#a06049;}.cls-24{fill:#7e3b24;}.cls-25{fill:#5d2e1e;}.cls-26{fill:#763924;}.cls-27{fill:#572c1d;}.cls-28{clip-path:url(#clip-path-3);}.cls-29{clip-path:url(#clip-path-4);}.cls-30{fill:url(#linear-gradient-3);}.cls-31{opacity:0.66;}.cls-32{fill:#432918;}.cls-33{opacity:0.33;}.cls-34{clip-path:url(#clip-path-5);}.cls-35{clip-path:url(#clip-path-6);}.cls-36{clip-path:url(#clip-path-7);}.cls-37{fill:url(#linear-gradient-4);}.cls-38{fill:#8b6e4a;}.cls-39{fill:#6f4416;}.cls-40{fill:#dda25e;}.cls-41{clip-path:url(#clip-path-8);}.cls-42,.cls-53{fill:#98c7e1;}.cls-43,.cls-44,.cls-45,.cls-46,.cls-47,.cls-48,.cls-49,.cls-50{opacity:0.43;}.cls-43{fill:url(#linear-gradient-5);}.cls-44{fill:url(#linear-gradient-6);}.cls-45{fill:url(#linear-gradient-7);}.cls-46{fill:url(#linear-gradient-8);}.cls-47{fill:url(#linear-gradient-9);}.cls-48{fill:url(#linear-gradient-10);}.cls-49{fill:url(#linear-gradient-11);}.cls-50{fill:url(#linear-gradient-12);}.cls-51{opacity:0.75;}.cls-52{fill:url(#linear-gradient-13);}.cls-53{opacity:0.29;}</style><linearGradient id="linear-gradient" x1="760.88" y1="2412.71" x2="760.88" gradientUnits="userSpaceOnUse"><stop offset="0" stop-color="#e4f1f8"/><stop offset="1" stop-color="#98c7e1"/></linearGradient><linearGradient id="linear-gradient-2" x1="2113" y1="1948.87" x2="2113" y2="1993.2" gradientUnits="userSpaceOnUse"><stop offset="0" stop-color="#fdfeff"/><stop offset="1" stop-color="#e6f5fe"/></linearGradient><clipPath id="clip-path" transform="translate(-1191.19 -292.25)"><rect class="cls-1" x="1885.46" y="1879.61" width="665.87" height="493.08"/></clipPath><clipPath id="clip-path-2" transform="translate(-1191.19 -292.25)"><path class="cls-1" d="M2492.38,2295.14H2289.45c0-24.13-.09-48.25-.13-72.38,0-21.09-5-42.62-1.9-63.61,1.22-8.14,4.53-15.9,12.77-19,8.44-3.2,15.91,2.1,24.36,2.08q21.64,0,43.28,0,43.28,0,86.57.1h38Z"/></clipPath><clipPath id="clip-path-3" transform="translate(-1191.19 -292.25)"><rect class="cls-1" x="2492.38" y="2142.3" width="202.93" height="155.91"/></clipPath><clipPath id="clip-path-4" transform="translate(-1191.19 -292.25)"><path class="cls-1" d="M2694.31,2310.67H2393.1q-37.67,0-75.34.07c-14.53,0-32.49,3.88-34.11-15.55-.68-8.12.4-16.22.72-24.32.44-11.24,2-22.53,2-33.77q0-37.69.07-75.39v0h407.87Z"/></clipPath><linearGradient id="linear-gradient-3" x1="2616.03" y1="2183.13" x2="2616.03" y2="2310.67" gradientTransform="translate(-1317.05 -292.25)" gradientUnits="userSpaceOnUse"><stop offset="0" stop-color="#5d2e1e"/><stop offset="0.2" stop-color="#532b1b"/><stop offset="0.67" stop-color="#412515"/><stop offset="1" stop-color="#3a2313"/></linearGradient><clipPath id="clip-path-5" transform="translate(-1191.19 -292.25)"><path class="cls-1" d="M2108.51,2295.14H1905.58c0-24.13-.09-48.25-.13-72.38,0-21.09-5-42.62-1.9-63.61,1.22-8.14,4.53-15.9,12.77-19,8.44-3.2,15.91,2.1,24.36,2.08q21.64,0,43.28,0,43.28,0,86.57.1h38Z"/></clipPath><clipPath id="clip-path-6" transform="translate(-1191.19 -292.25)"><rect class="cls-1" x="2108.51" y="2142.3" width="202.93" height="155.91"/></clipPath><clipPath id="clip-path-7" transform="translate(-1191.19 -292.25)"><path class="cls-1" d="M2310.44,2310.67H2009.23q-37.67,0-75.34.07c-14.53,0-32.49,3.88-34.11-15.55-.68-8.12.4-16.22.72-24.32.44-11.24,2-22.53,2-33.77q0-37.69.07-75.39v0h407.87Z"/></clipPath><linearGradient id="linear-gradient-4" x1="2232.15" y1="2183.13" x2="2232.15" y2="2310.67" xlink:href="#linear-gradient-3"/><clipPath id="clip-path-8" transform="translate(-1191.19 -292.25)"><rect class="cls-1" x="1349.01" y="2084.64" width="1202.93" height="643.32"/></clipPath><linearGradient id="linear-gradient-5" x1="2075.53" y1="2265.81" x2="2133.1" y2="2265.81" gradientUnits="userSpaceOnUse"><stop offset="0" stop-color="#3e64ad"/><stop offset="0.24" stop-color="#3d62a9"/><stop offset="0.45" stop-color="#395b9e"/><stop offset="0.67" stop-color="#32518b"/><stop offset="0.87" stop-color="#294271"/><stop offset="1" stop-color="#22365d"/></linearGradient><linearGradient id="linear-gradient-6" x1="2157.99" y1="2265.99" x2="2215.56" y2="2265.99" xlink:href="#linear-gradient-5"/><linearGradient id="linear-gradient-7" x1="2241.05" y1="2265.81" x2="2298.62" y2="2265.81" xlink:href="#linear-gradient-5"/><linearGradient id="linear-gradient-8" x1="1992.41" y1="2265.81" x2="2049.98" y2="2265.81" xlink:href="#linear-gradient-5"/><linearGradient id="linear-gradient-9" x1="1909.29" y1="2265.81" x2="1966.86" y2="2265.81" xlink:href="#linear-gradient-5"/><linearGradient id="linear-gradient-10" x1="2489.91" y1="2265.81" x2="2547.48" y2="2265.81" xlink:href="#linear-gradient-5"/><linearGradient id="linear-gradient-11" x1="2407.62" y1="2265.81" x2="2465.19" y2="2265.81" xlink:href="#linear-gradient-5"/><linearGradient id="linear-gradient-12" x1="2324.14" y1="2265.98" x2="2381.71" y2="2265.98" xlink:href="#linear-gradient-5"/><linearGradient id="linear-gradient-13" x1="1929.97" y1="2250.99" x2="1929.97" y2="2725.5" xlink:href="#linear-gradient-5"/></defs><title>Ресурс 2</title><g class="cls-2"><g id="Слой_2" data-name="Слой 2"><g id="Layer_1" data-name="Layer 1"><rect class="cls-3" x="161" width="1199.76" height="2412.71"/><path class="cls-4" d="M2152.81,1977.06a15.29,15.29,0,0,0-2.1,0l.08-.24a21.9,21.9,0,0,0,.75-3.52c1.92-12-9.32-23.57-26.29-24.39-15.7-.66-27.87,8.65-29.69,20.18a18.62,18.62,0,0,0-6.09-.69,16,16,0,0,0-15.31,13.36c-.29,0-.59,0-.88,0-6.83.42-10.88,5.34-10.34,11.44h98.5c.07-.14.14-.28.2-.42C2165.51,1985,2161.57,1977.84,2152.81,1977.06Z" transform="translate(-1191.19 -292.25)"/><path class="cls-5" d="M2364.89,2091.88c6,4.72,11.42,10.07,17.54,14.66,6.67,5,13.57,9.7,20.08,14.92.55.44,1.08.88,1.62,1.33-.2-.95-.4-1.85-.66-2.73-2-6.75-3.84-13.56-6.11-20.22s-5.33-12.78-7.25-19.39c-2.36-8.11-3.9-16.46-5.79-24.71-4.66,7.56-6.38,15.46-5.1,23.59,1.25,8,3.5,15.78,5.3,23.66-6.27-10.88-8.06-23.57-13.18-35h-1.26l-2,24.86c-6-.69-5.31-6.76-8-10.92l-1.57,5.81A38.07,38.07,0,0,1,2364.89,2091.88Z" transform="translate(-1191.19 -292.25)"/><path class="cls-5" d="M2465.27,2070.56c8.07-2.63,16.33-4.65,24.5-6.95-3.84-1.1-7.92-2.2-11.62-1.45-10.21,2-20.26,4.92-30.4,7.34a65.88,65.88,0,0,1-7.35.93l-.29-1.48c7.77-2.57,15.51-5.27,23.33-7.66s16-4.59,24.67-7c-9.47-1.75-17.59,1.87-26,3.22-8.62,1.38-17.42,1.86-24.75,7.54,6.08-6.91,15.11-7.21,22.88-10.17,8.14-3.1,16.56-5.46,24.86-8.14l-.24-1.15a215.92,215.92,0,0,0-43.15,10.1c.49-6.3.3-13,1.71-19.34s4.46-12.48,6.79-18.7c-5,5-8.55,10.76-9.71,17.55-1.28,7.51-1.73,15.17-2.82,22.72-.39,2.71-1.58,5.3-2.41,7.94l-1.24-.38c.53-3.25,1.26-6.48,1.52-9.75.24-3,2.47-6.67-1.74-8.25-1.69-10.41,4.63-18.4,7.36-27.68-3.43,3.34-6.64,6.86-8.71,11-5.87,11.59-5.37,23.89-2.21,36,1.1,4.2.14,6.85-2.77,10.06-.67-5.53.44-10.46-2.89-15.67-2.86-4.48-2.23-11.44-2.35-17.32-.12-5.67.78-11.36,1.22-16.92,0,0-.33.15-.43.35-7.6,16.29-9,33-1.63,49.56,3,6.88.87,11.65-2.34,16.11-2.32-6.44-4.66-13.16-7.16-19.82-3.38-9-4.22-18-.75-27.32,1.18-3.18.58-7,.79-10.57-10.61,15.93-10,41.38.56,59.37,3.4,5.81,2.79,10.54-1.27,14.9-2.16-7.69-4.73-15.89-6.73-24.23-2.17-9.08-4.08-18.25-5.58-27.46-.79-4.82-.45-9.83-.63-14.75l-1.86-.76a22.58,22.58,0,0,1-1.35,4.14c-5.39,9.78-5.47,20.19-3.85,30.82,1.91,12.46,7.92,23.11,14.74,33.4,3.27,4.93,3.1,8.41-.81,13a134.74,134.74,0,0,1,18.74,19.66c14.48-1.71,29-1.35,42.95,2.52l11-6.13-.44-.92-31.34,1.12,0-1.06,35.12-14.31c-15.73-2.14-30.58,1.8-45.67,4.2,14.93-7.73,31.25-11.5,47-17.2-5.47-.92-11-2.09-16.26-1.21-7.61,1.27-14.95,4.1-22.44,6.11-4.57,1.22-9.21,2.15-13.82,3.2l-.45-1.77,57.46-17.3c-4.59-1.39-9.71-3.08-14.31-2.17-14.47,2.86-28.76,6.66-43.09,10.22a22.81,22.81,0,0,0-6.33,2.77c-4.23,2.61-8.31,5.48-12.45,8.24.59-2.39,1.7-4.61,3.49-5.8a65.77,65.77,0,0,1,11.75-6.45c20.13-8.05,40.2-16.34,61.67-20.36a8,8,0,0,0,1.45-.57c-3.77-1.35-7.68-2.46-11.27-1.79-5.06.95-9.78,3.52-14.8,4.83-8.8,2.31-17.65,5.32-26.61,5.84-5.36.31-8.94,2.41-12.73,5-2.66,1.82-4.89,4.26-7.72,6.79,1.93-8.4,8.36-11.86,14.83-14.2,13.59-4.92,27.47-9.07,41.32-13.24,5.85-1.77,11.92-2.81,18.89-4.41-8.27-3.35-15.41-2.6-22.67-.6-6,1.65-12,3-18.12,4.2-8.16,1.62-16.63,2.27-22.94,8.72a9,9,0,0,1-2.23,1.25l-.95-1.24c1.81-1.55,3.38-3.77,5.48-4.55C2441.47,2078.65,2453.33,2074.46,2465.27,2070.56Z" transform="translate(-1191.19 -292.25)"/><path class="cls-5" d="M2462.69,2015.23l-12.08,26.63,1.38.7c1.67-2.93,3.37-5.85,5-8.8a11.11,11.11,0,0,1,7.21-6c4.8-1.41,9-4.66,13.61-7.16l-26.34,25,31.9-9.32.54,1.78-38.19,14.58C2443.68,2041.37,2452.71,2021.65,2462.69,2015.23Z" transform="translate(-1191.19 -292.25)"/><path class="cls-6" d="M2369.07,2095.68c5.47,4.3,10.41,9.18,16,13.36,6.08,4.56,12.36,8.84,18.3,13.59.5.4,1,.81,1.48,1.21-.18-.86-.36-1.69-.6-2.49-1.82-6.16-3.5-12.36-5.57-18.43s-4.86-11.65-6.61-17.67c-2.15-7.39-3.55-15-5.28-22.52a30.88,30.88,0,0,0-4.65,21.5c1.14,7.26,3.19,14.38,4.83,21.56-5.72-9.91-7.34-21.48-12-31.85h-1.15l-1.83,22.66c-5.49-.63-4.84-6.16-7.32-10l-1.43,5.3A34.7,34.7,0,0,1,2369.07,2095.68Z" transform="translate(-1191.19 -292.25)"/><path class="cls-6" d="M2460.55,2076.25c7.35-2.39,14.88-4.24,22.33-6.33-3.5-1-7.21-2-10.59-1.32-9.31,1.87-18.46,4.48-27.7,6.69a60,60,0,0,1-6.7.85l-.26-1.35c7.08-2.34,14.13-4.8,21.26-7s14.6-4.18,22.48-6.42c-8.63-1.59-16,1.7-23.71,2.93-7.86,1.26-15.88,1.7-22.56,6.87,5.54-6.3,13.77-6.57,20.86-9.27,7.42-2.83,15.09-5,22.65-7.42l-.22-1.05a196.78,196.78,0,0,0-39.33,9.21c.45-5.74.27-11.85,1.56-17.63s4.06-11.37,6.18-17c-4.58,4.52-7.8,9.8-8.85,16-1.16,6.85-1.58,13.82-2.57,20.7-.36,2.47-1.44,4.83-2.2,7.24l-1.13-.34c.48-3,1.15-5.9,1.38-8.88.22-2.71,2.25-6.08-1.59-7.52-1.54-9.48,4.22-16.77,6.71-25.22a39.14,39.14,0,0,0-7.94,10c-5.35,10.56-4.9,21.78-2,32.82,1,3.83.13,6.24-2.52,9.17-.61-5,.4-9.53-2.63-14.28-2.6-4.08-2-10.43-2.14-15.79-.11-5.17.71-10.36,1.11-15.42,0,0-.3.14-.39.32-6.93,14.84-8.16,30.06-1.48,45.16,2.78,6.27.8,10.62-2.13,14.69-2.11-5.87-4.25-12-6.52-18.06-3.08-8.24-3.84-16.39-.69-24.9,1.08-2.9.53-6.4.72-9.63-9.67,14.51-9.09,37.71.51,54.11,3.1,5.3,2.54,9.6-1.16,13.58-2-7-4.31-14.48-6.13-22.08-2-8.28-3.72-16.63-5.08-25-.72-4.39-.41-9-.57-13.44l-1.69-.7a20.58,20.58,0,0,1-1.23,3.78c-4.91,8.91-5,18.4-3.51,28.08,1.74,11.36,7.22,21.06,13.44,30.44,3,4.49,2.82,7.66-.74,11.86a122.79,122.79,0,0,1,17.08,17.92c13.19-1.56,26.39-1.23,39.14,2.3l10.06-5.59-.4-.84-28.56,1,0-1,32-13c-14.34-1.95-27.87,1.64-41.62,3.83,13.6-7,28.48-10.48,42.87-15.68-5-.83-10.06-1.9-14.82-1.11-6.93,1.16-13.62,3.74-20.45,5.57-4.16,1.11-8.4,2-12.6,2.92l-.41-1.61,52.36-15.77c-4.18-1.27-8.85-2.81-13-2-13.19,2.61-26.21,6.07-39.27,9.32a20.79,20.79,0,0,0-5.77,2.53c-3.86,2.38-7.57,5-11.34,7.51a8.71,8.71,0,0,1,3.18-5.28,59.94,59.94,0,0,1,10.7-5.88c18.35-7.34,36.64-14.9,56.2-18.56a7.25,7.25,0,0,0,1.32-.52c-3.43-1.23-7-2.24-10.27-1.63-4.61.86-8.92,3.21-13.49,4.41-8,2.11-16.08,4.85-24.25,5.32-4.89.28-8.14,2.2-11.6,4.56-2.43,1.65-4.46,3.89-7,6.19,1.76-7.65,7.61-10.81,13.51-12.94,12.39-4.48,25-8.26,37.66-12.07,5.33-1.61,10.87-2.56,17.21-4-7.54-3.05-14-2.37-20.66-.55-5.44,1.5-11,2.73-16.51,3.83-7.43,1.47-15.15,2.07-20.91,8a8.22,8.22,0,0,1-2,1.14l-.86-1.13c1.65-1.42,3.08-3.44,5-4.15C2438.86,2083.62,2449.66,2079.8,2460.55,2076.25Z" transform="translate(-1191.19 -292.25)"/><path class="cls-6" d="M2458.19,2025.82l-11,24.27,1.25.64c1.52-2.67,3.07-5.33,4.56-8a10.13,10.13,0,0,1,6.57-5.47c4.37-1.29,8.25-4.25,12.4-6.53l-24,22.81L2477,2045l.49,1.63-34.81,13.29C2440.87,2049.64,2449.1,2031.67,2458.19,2025.82Z" transform="translate(-1191.19 -292.25)"/><path class="cls-7" d="M2287.75,2059.51s9.92-21.2,64.56-21.2c0,0,68-4.72,109.83,10.6,0,0,17.15,15-18.57,18.35C2443.56,2067.27,2349.16,2079.88,2287.75,2059.51Z" transform="translate(-1191.19 -292.25)"/><path class="cls-8" d="M2305.06,2054.38s13.08-9.93,47.55-9.93c0,0,91.46-4.05,102.82,9.93,0,0,10.71,19.61-106.09,12.37C2349.34,2066.74,2297.93,2063.75,2305.06,2054.38Z" transform="translate(-1191.19 -292.25)"/><path class="cls-9" d="M2378.69,2070.87l.09-.19c-32.45-1.1-64.1-5.76-90.89-11.13v.17C2314.66,2065.09,2346.27,2069.75,2378.69,2070.87Z" transform="translate(-1191.19 -292.25)"/><path class="cls-9" d="M2287.91,2059.71v-.17l-.14,0c1.35,14.94,5.27,29.53,11.33,41.38a90.36,90.36,0,0,0,10.76,16.32c9.3,11.28,20.65,21.81,33.81,26.07l35-72.42C2346.27,2069.75,2314.66,2065.09,2287.91,2059.71Z" transform="translate(-1191.19 -292.25)"/><path class="cls-10" d="M2401.77,2146c11.27-.21,21.32-7.92,30.59-15.13a79.66,79.66,0,0,0,10.19-9.36c11.8-13,19.48-29.7,22.65-47.18a103.05,103.05,0,0,0,1.41-11.5q-4.63,1.17-9.34,2.17c-25.3,5.33-52.21,6.77-78.59,5.86l-35,72.42a40.76,40.76,0,0,0,8.29,1.79C2360.93,2146,2380.48,2146.41,2401.77,2146Z" transform="translate(-1191.19 -292.25)"/><path class="cls-11" d="M2457.12,2064.81c-25.22,5.31-52,6.76-78.34,5.87l-.09.19c26.37.91,53.29-.53,78.59-5.86q4.71-1,9.34-2.17c0-.08,0-.16,0-.24Q2461.92,2063.8,2457.12,2064.81Z" transform="translate(-1191.19 -292.25)"/><path class="cls-9" d="M2422.68,1918.54a155,155,0,0,0-20.15-8.33c-10.1-3.49-19.43-5.59-30-4-4.86.75-9.75,1.36-14.57,2.34-11.72,2.38-23.07,7-34.39,10.72-28.49,9.42-38.66,45-35.64,78.8,26.8,5.38,58.44,10,90.89,11.13Z" transform="translate(-1191.19 -292.25)"/><path class="cls-10" d="M2457.12,2003.38q4.8-1,9.52-2.21c0,.08,0,.16,0,.24l.18,0c1.94-29.94-9.27-60.43-35.52-77.85a88.37,88.37,0,0,0-8.6-5l-43.9,90.71C2405.08,2010.14,2431.91,2008.69,2457.12,2003.38Z" transform="translate(-1191.19 -292.25)"/><ellipse class="cls-11" cx="1194.03" cy="1639.47" rx="9.71" ry="7.28"/><ellipse class="cls-11" cx="1151.57" cy="1639.47" rx="9.71" ry="7.28"/><ellipse class="cls-11" cx="1174.62" cy="1659.11" rx="9.71" ry="7.28"/><path class="cls-5" d="M2154.14,2091.88c6,4.72,11.42,10.07,17.54,14.66,6.67,5,13.57,9.7,20.08,14.92.55.44,1.08.88,1.62,1.33-.2-.95-.4-1.85-.66-2.73-2-6.75-3.84-13.56-6.11-20.22s-5.33-12.78-7.25-19.39c-2.36-8.11-3.9-16.46-5.79-24.71-4.66,7.56-6.38,15.46-5.1,23.59,1.25,8,3.5,15.78,5.3,23.66-6.27-10.88-8.06-23.57-13.18-35h-1.26l-2,24.86c-6-.69-5.31-6.76-8-10.92l-1.57,5.81A38.07,38.07,0,0,1,2154.14,2091.88Z" transform="translate(-1191.19 -292.25)"/><path class="cls-5" d="M2254.53,2070.56c8.07-2.63,16.33-4.65,24.5-6.95-3.84-1.1-7.92-2.2-11.62-1.45-10.21,2-20.26,4.92-30.4,7.34a65.88,65.88,0,0,1-7.35.93l-.29-1.48c7.77-2.57,15.51-5.27,23.33-7.66s16-4.59,24.67-7c-9.47-1.75-17.59,1.87-26,3.22-8.62,1.38-17.42,1.86-24.75,7.54,6.08-6.91,15.11-7.21,22.88-10.17,8.14-3.1,16.56-5.46,24.86-8.14l-.24-1.15a215.92,215.92,0,0,0-43.15,10.1c.49-6.3.3-13,1.71-19.34s4.46-12.48,6.79-18.7c-5,5-8.55,10.76-9.71,17.55-1.28,7.51-1.73,15.17-2.82,22.72-.39,2.71-1.58,5.3-2.41,7.94l-1.24-.38c.53-3.25,1.26-6.48,1.52-9.75.24-3,2.47-6.67-1.74-8.25-1.69-10.41,4.63-18.4,7.36-27.68-3.43,3.34-6.64,6.86-8.71,11-5.87,11.59-5.37,23.89-2.21,36,1.1,4.2.14,6.85-2.77,10.06-.67-5.53.44-10.46-2.89-15.67-2.86-4.48-2.23-11.44-2.35-17.32-.12-5.67.78-11.36,1.22-16.92,0,0-.33.15-.43.35-7.6,16.29-9,33-1.63,49.56,3,6.88.87,11.65-2.34,16.11-2.32-6.44-4.66-13.16-7.16-19.82-3.38-9-4.22-18-.75-27.32,1.18-3.18.58-7,.79-10.57-10.61,15.93-10,41.38.56,59.37,3.4,5.81,2.79,10.54-1.27,14.9-2.16-7.69-4.73-15.89-6.73-24.23-2.17-9.08-4.08-18.25-5.58-27.46-.79-4.82-.45-9.83-.63-14.75l-1.86-.76a22.58,22.58,0,0,1-1.35,4.14c-5.39,9.78-5.47,20.19-3.85,30.82,1.91,12.46,7.92,23.11,14.74,33.4,3.27,4.93,3.1,8.41-.81,13a134.74,134.74,0,0,1,18.74,19.66c14.48-1.71,29-1.35,42.95,2.52l11-6.13-.44-.92-31.34,1.12,0-1.06,35.12-14.31c-15.73-2.14-30.58,1.8-45.67,4.2,14.93-7.73,31.25-11.5,47-17.2-5.47-.92-11-2.09-16.26-1.21-7.61,1.27-14.95,4.1-22.44,6.11-4.57,1.22-9.21,2.15-13.82,3.2l-.45-1.77,57.46-17.3c-4.59-1.39-9.71-3.08-14.31-2.17-14.47,2.86-28.76,6.66-43.09,10.22a22.81,22.81,0,0,0-6.33,2.77c-4.23,2.61-8.31,5.48-12.45,8.24.59-2.39,1.7-4.61,3.49-5.8a65.77,65.77,0,0,1,11.75-6.45c20.13-8.05,40.2-16.34,61.67-20.36a8,8,0,0,0,1.45-.57c-3.77-1.35-7.68-2.46-11.27-1.79-5.06.95-9.78,3.52-14.8,4.83-8.8,2.31-17.65,5.32-26.61,5.84-5.36.31-8.94,2.41-12.73,5-2.66,1.82-4.89,4.26-7.72,6.79,1.93-8.4,8.36-11.86,14.83-14.2,13.59-4.92,27.47-9.07,41.32-13.24,5.85-1.77,11.92-2.81,18.89-4.41-8.27-3.35-15.41-2.6-22.67-.6-6,1.65-12,3-18.12,4.2-8.16,1.62-16.63,2.27-22.94,8.72a9,9,0,0,1-2.23,1.25l-.95-1.24c1.81-1.55,3.38-3.77,5.48-4.55C2230.73,2078.65,2242.58,2074.46,2254.53,2070.56Z" transform="translate(-1191.19 -292.25)"/><path class="cls-5" d="M2251.94,2015.23l-12.08,26.63,1.38.7c1.67-2.93,3.37-5.85,5-8.8a11.11,11.11,0,0,1,7.21-6c4.8-1.41,9-4.66,13.61-7.16l-26.34,25,31.9-9.32.54,1.78-38.19,14.58C2232.93,2041.37,2242,2021.65,2251.94,2015.23Z" transform="translate(-1191.19 -292.25)"/><path class="cls-6" d="M2158.32,2095.68c5.47,4.3,10.41,9.18,16,13.36,6.08,4.56,12.36,8.84,18.3,13.59.5.4,1,.81,1.48,1.21-.18-.86-.36-1.69-.6-2.49-1.82-6.16-3.5-12.36-5.57-18.43s-4.86-11.65-6.61-17.67c-2.15-7.39-3.55-15-5.28-22.52a30.88,30.88,0,0,0-4.65,21.5c1.14,7.26,3.19,14.38,4.83,21.56-5.72-9.91-7.34-21.48-12-31.85h-1.15l-1.83,22.66c-5.49-.63-4.84-6.16-7.32-10l-1.43,5.3A34.7,34.7,0,0,1,2158.32,2095.68Z" transform="translate(-1191.19 -292.25)"/><path class="cls-6" d="M2249.8,2076.25c7.35-2.39,14.88-4.24,22.33-6.33-3.5-1-7.21-2-10.59-1.32-9.31,1.87-18.46,4.48-27.7,6.69a60,60,0,0,1-6.7.85l-.26-1.35c7.08-2.34,14.13-4.8,21.26-7s14.6-4.18,22.48-6.42c-8.63-1.59-16,1.7-23.71,2.93-7.86,1.26-15.88,1.7-22.56,6.87,5.54-6.3,13.77-6.57,20.86-9.27,7.42-2.83,15.09-5,22.65-7.42l-.22-1.05a196.78,196.78,0,0,0-39.33,9.21c.45-5.74.27-11.85,1.56-17.63s4.06-11.37,6.18-17c-4.58,4.52-7.8,9.8-8.85,16-1.16,6.85-1.58,13.82-2.57,20.7-.36,2.47-1.44,4.83-2.2,7.24l-1.13-.34c.48-3,1.15-5.9,1.38-8.88.22-2.71,2.25-6.08-1.59-7.52-1.54-9.48,4.22-16.77,6.71-25.22a39.14,39.14,0,0,0-7.94,10c-5.35,10.56-4.9,21.78-2,32.82,1,3.83.13,6.24-2.52,9.17-.61-5,.4-9.53-2.63-14.28-2.6-4.08-2-10.43-2.14-15.79-.11-5.17.71-10.36,1.11-15.42,0,0-.3.14-.39.32-6.93,14.84-8.16,30.06-1.48,45.16,2.78,6.27.8,10.62-2.13,14.69-2.11-5.87-4.25-12-6.52-18.06-3.08-8.24-3.84-16.39-.69-24.9,1.08-2.9.53-6.4.72-9.63-9.67,14.51-9.09,37.71.51,54.11,3.1,5.3,2.54,9.6-1.16,13.58-2-7-4.31-14.48-6.13-22.08-2-8.28-3.72-16.63-5.08-25-.72-4.39-.41-9-.57-13.44l-1.69-.7a20.58,20.58,0,0,1-1.23,3.78c-4.91,8.91-5,18.4-3.51,28.08,1.74,11.36,7.22,21.06,13.44,30.44,3,4.49,2.82,7.66-.74,11.86a122.79,122.79,0,0,1,17.08,17.92c13.19-1.56,26.39-1.23,39.14,2.3l10.06-5.59-.4-.84-28.56,1,0-1,32-13c-14.34-1.95-27.87,1.64-41.62,3.83,13.6-7,28.48-10.48,42.87-15.68-5-.83-10.06-1.9-14.82-1.11-6.93,1.16-13.62,3.74-20.45,5.57-4.16,1.11-8.4,2-12.6,2.92l-.41-1.61,52.36-15.77c-4.18-1.27-8.85-2.81-13-2-13.19,2.61-26.21,6.07-39.27,9.32a20.79,20.79,0,0,0-5.77,2.53c-3.86,2.38-7.57,5-11.34,7.51a8.71,8.71,0,0,1,3.18-5.28,59.94,59.94,0,0,1,10.7-5.88c18.35-7.34,36.64-14.9,56.2-18.56a7.25,7.25,0,0,0,1.32-.52c-3.43-1.23-7-2.24-10.27-1.63-4.61.86-8.92,3.21-13.49,4.41-8,2.11-16.08,4.85-24.25,5.32-4.89.28-8.14,2.2-11.6,4.56-2.43,1.65-4.46,3.89-7,6.19,1.76-7.65,7.61-10.81,13.51-12.94,12.39-4.48,25-8.26,37.66-12.07,5.33-1.61,10.87-2.56,17.21-4-7.54-3.05-14-2.37-20.66-.55-5.44,1.5-11,2.73-16.51,3.83-7.43,1.47-15.15,2.07-20.91,8a8.22,8.22,0,0,1-2,1.14l-.86-1.13c1.65-1.42,3.08-3.44,5-4.15C2228.11,2083.62,2238.91,2079.8,2249.8,2076.25Z" transform="translate(-1191.19 -292.25)"/><path class="cls-6" d="M2247.45,2025.82l-11,24.27,1.25.64c1.52-2.67,3.07-5.33,4.56-8a10.13,10.13,0,0,1,6.57-5.47c4.37-1.29,8.25-4.25,12.4-6.53l-24,22.81,29.07-8.5.49,1.63L2232,2059.93C2230.12,2049.64,2238.36,2031.67,2247.45,2025.82Z" transform="translate(-1191.19 -292.25)"/><path class="cls-7" d="M2077,2059.51s9.92-21.2,64.56-21.2c0,0,68-4.72,109.83,10.6,0,0,17.15,15-18.57,18.35C2232.81,2067.27,2138.41,2079.88,2077,2059.51Z" transform="translate(-1191.19 -292.25)"/><path class="cls-8" d="M2094.31,2054.38s13.08-9.93,47.55-9.93c0,0,91.46-4.05,102.82,9.93,0,0,10.71,19.61-106.09,12.37C2138.6,2066.74,2087.18,2063.75,2094.31,2054.38Z" transform="translate(-1191.19 -292.25)"/><path class="cls-9" d="M2167.95,2070.87l.09-.19c-32.45-1.1-64.1-5.76-90.89-11.13v.17C2103.92,2065.09,2135.52,2069.75,2167.95,2070.87Z" transform="translate(-1191.19 -292.25)"/><path class="cls-9" d="M2077.16,2059.71v-.17l-.14,0c1.35,14.94,5.27,29.53,11.33,41.38a90.36,90.36,0,0,0,10.76,16.32c9.3,11.28,20.65,21.81,33.81,26.07l35-72.42C2135.52,2069.75,2103.92,2065.09,2077.16,2059.71Z" transform="translate(-1191.19 -292.25)"/><path class="cls-10" d="M2191,2146c11.27-.21,21.32-7.92,30.59-15.13a79.66,79.66,0,0,0,10.19-9.36c11.8-13,19.48-29.7,22.65-47.18a103.05,103.05,0,0,0,1.41-11.5q-4.63,1.17-9.34,2.17c-25.3,5.33-52.21,6.77-78.59,5.86l-35,72.42a40.76,40.76,0,0,0,8.29,1.79C2150.18,2146,2169.73,2146.41,2191,2146Z" transform="translate(-1191.19 -292.25)"/><path class="cls-11" d="M2246.38,2064.81c-25.22,5.31-52,6.76-78.34,5.87l-.09.19c26.37.91,53.29-.53,78.59-5.86q4.71-1,9.34-2.17c0-.08,0-.16,0-.24Q2251.18,2063.8,2246.38,2064.81Z" transform="translate(-1191.19 -292.25)"/><path class="cls-9" d="M2211.94,1834.13a155,155,0,0,0-20.15-8.33c-10.1-3.49-19.43-5.59-30-4-4.86.75-9.75,1.36-14.57,2.34-11.72,2.38-23.07,7-34.39,10.72-28.49,9.42-38.66,45-35.64,78.8,26.8,5.38,58.44,10,90.89,11.13Z" transform="translate(-1191.19 -292.25)"/><path class="cls-10" d="M2246.38,1919q4.8-1,9.52-2.21c0,.08,0,.16,0,.24l.18,0c1.94-29.94-9.27-60.43-35.52-77.85a88.37,88.37,0,0,0-8.6-5l-43.9,90.71C2194.33,1925.73,2221.16,1924.29,2246.38,1919Z" transform="translate(-1191.19 -292.25)"/><ellipse class="cls-11" cx="983.29" cy="1555.06" rx="9.71" ry="7.28"/><ellipse class="cls-11" cx="940.83" cy="1555.06" rx="9.71" ry="7.28"/><ellipse class="cls-11" cx="963.88" cy="1574.7" rx="9.71" ry="7.28"/><g class="cls-12"><g class="cls-13"><path class="cls-14" d="M2285.91,2149.66c1.21,2.41.72,6,.72,8.68,5.3,1.69,12.78.48,18.32.48,6,0,11.81,0,17.84.24,22.9.48,45.56,1.45,68.46.72,21.21-.48,42.66-.48,63.88,0,11.33.24,23.62,1.69,34.71-.24,3.37-.72,6,0,6.51-3.37.24-1.45-.48-3.62-.72-4.82-1-2.65.48-1.93-2.17-2.65-3.86-1.21-11.33.72-15.43,1-12.53,1.45-24.83-.48-37.12-.48-12.78,0-25.31-1-38.08-1.45-19-.72-38.08-1-57.37-1s-39.53-1-58.81,1.45Z" transform="translate(-1191.19 -292.25)"/><path class="cls-15" d="M2324.15,2152.07c-6.91,0-13.82,0-20.57-.16-1.61,0-11.89-.48-7.23,2.25,2.57,1.61,8.84,1,11.89,1.12,16.39.64,32.94,1.12,49.33,1.12,1.93,0,4.18.32,5.78-.32,2.41-.8,2.25-2.09-.16-2.89-3.37-1-7.55.16-11.09-.16-6.75-.64-13.34-.72-20.09-.88C2329.78,2152.15,2329,2152,2324.15,2152.07Z" transform="translate(-1191.19 -292.25)"/><g class="cls-16"><path class="cls-17" d="M2275.78,2154.32c3.62.56,9.88,1.71,13.52,1.4,2.36-.2,5,.12,7.69-.16,7.23-.84,10.85-1.6,18.32-.76,13.5,1.68,27.24-1,40.74,1.48,6.27,1.12,12.29-.84,18.8-1.12s13-.84,19.52-.56c13.5.28,27.48,1.4,40.74.28a68.43,68.43,0,0,1,18.56.56c6.75,1.4,12.29,0,19-.56,6.51-.56,13,.84,19.52.84,2.41,0,5.54.28,7.47-1.68,3.62-3.08.48-5-3.13-5.6-11.09-1.68-22.9.84-34.23.84-14.94,0-29.89-1.68-44.83-1.12-35,1.12-69.66-1.12-104.37-1.12h-20c-4.82,0-12.29-1.12-16.15,2Z" transform="translate(-1191.19 -292.25)"/></g><path class="cls-18" d="M2509.88,2148.45c-.64,2.41-17.68,1.93-20.57,1.77-4.34-.16-8.2,1.12-12.37,1.12-4.82,0-9.48-.16-14.3-.16-21.05,0-42.66-.28-63.63,0-15.55.21-19.12-1-28.92-.8-12.53.32-25.07.8-37.6.32-9.48-.16-19,.32-28.28-.32-4.18-.32-10.56-.21-14.74-.05-1.45,0-2.78.86-4.06.05-2.89-1.77,1.77-2.41,3.37-2.57,7.55-1.12,15.59-.32,23,.32,14.14,1.29,28-.32,42.1-.64,14.94-.32,29.57,1.12,44.19,1.12,11.73,0,23.3-1.12,34.87-1.45,11.25-.32,22.66.64,33.91.64,13.18,0,26.19-1.61,39.21.8Z" transform="translate(-1191.19 -292.25)"/><path class="cls-19" d="M2289.45,2150c3,.36,12.69-.85,15.58-1,4.34-.16,8.2.64,12.37.64,4.82,0,9.48-.16,14.3-.16,21.05,0,42.74-1,63.63,1,9.64.8,19.12-.48,28.92-.32,12.53.32,25.07.8,37.6.32,9.48-.16,19,.32,28.28-.32a111.55,111.55,0,0,1,12.69.16c1.45,0,4.82.64,6.11-.16,2.89-1.77-1.77-2.41-3.37-2.57-7.55-1.12-15.59-.32-23,.32-14.14,1.29-28-.32-42.1-.64-14.94-.32-29.57,1.12-44.19,1.12-11.73,0-23.3-1.12-34.87-1.45-11.25-.32-22.66-.8-33.91-.8-13.18,0-26.19-1.61-39.21.8Z" transform="translate(-1191.19 -292.25)"/><path class="cls-20" d="M2289.45,2144.2c7.39-1.29,10.28.79,17.83.15,8.36-.8,21.69-.4,30,.08,10.12.48,15.59.24,25.55,1.21,6.11.64,11.89,0,18-.16,5-.16,10,.48,15.11.64,5.78.16,11.57,1.12,17.35,1,4.18-.16,8.36-1,12.53-1.45,9.32-.8,19-.48,28.28-.48,9.64,0,19.93,3.37,29.41.8a52.73,52.73,0,0,1,20.73-1.77,28.93,28.93,0,0,0,5.14,1c1.45,0,3.21-.32,4.34.48-1.45,2.25-8.68,1-11.25,1.12-3.21.16-6.43.48-9.8.8-8.52.8-17,1-25.71,1-18.8,0-37.76-1.45-56.56-.8-18.48.64-37.12,1-55.6-.16-18.64-1.12-37.6-1.61-56.24-1.61-5.3,0-10.28,1-15.59,1Z" transform="translate(-1191.19 -292.25)"/><path class="cls-21" d="M2289.45,2145c6.75-1.18,16.1.65,35.27.05,12.79-.4,24.34,1.21,37.36,1.21,14.46,0,31.58,1.21,45.8,1.45,14.94.24,28.68-2.41,43.39-1.93,8.68.24,15.67,1.69,24.59,1.69,4.82,0,8.92-1,13.5-1.93,4.1-.72,9.64-2.17,8.2,3.13-4.82,1.45-10.36.48-15.19.72-5.06.24-10.12.48-14.94.24-9.88-.48-20,.24-29.89-.24-24.1-1.45-48.69.72-73-.72-10.61-.72-18.08-1.21-28.68-.72-5.3,0-10.36.72-15.67.72-5.78,0-10.61-.48-16.39-.72-4.58-.24-9.22,1.63-14.3,1.51Z" transform="translate(-1191.19 -292.25)"/><path class="cls-22" d="M2383.45,2157c9.08,0,18.08-.24,27.24-.24,8.76,0,17.52-.72,26.27-1.37,4.34-.32,8.2-1.37,12.37-.32-2.77.16-2.17,1.53-2.89,1.53,2.09-.08,4.66-.4,5.87-.4,1.85-.08,3.78,0,5.62,0,4.42,0,8,.88,12.37.32-1.29-.4-1.77-.16-3.05-.72,2.41-.08,4.5.56,6.83.8,1.93.16,3.86.16,5.78.4s3.94.24,6,.24c2.81,0,5.22-.8,8-1.21a73.93,73.93,0,0,1,8.44-.24c2.09-.08,5.54-.24,5.46,2.73-.08,2.17-2.57,1.53-4.42,1.53a41,41,0,0,0-5.38.64,70.76,70.76,0,0,1-8.28,1.21c-5.22.4-10.53-.08-15.75-.16-7.79-.08-15.59-1-23.38-1.21-5.62-.16-11.33-.16-17-.32-6.75-.16-13.58-.08-20.33-.08-4.58,0-9.8.08-14.22-1Z" transform="translate(-1191.19 -292.25)"/><path class="cls-23" d="M2500.91,2155.8c-2.89.12-5.78,1.81-8.56,2.53-5.78,1.57-11.81,1.08-17.84,1.33l-10.85.36c-4.22.24-7.83-.36-12.05-.72-4.7-.6-9.4-.36-14.1-1a92.71,92.71,0,0,0-11.57-.24c-3.62,0-15.06.48-18.56-.36,4.58-.72,20-1.21,22.3-1.33,4.82-.24,9.76-1.08,14.58-1.21h2.29a8.56,8.56,0,0,0-1.69,1.21c1.57,1.45,6.87.48,9,.48,2.89,0,5.66.24,8.44.24,6.39,0,12.53.12,18.8.48,2.65.12,5.18.12,7.71.12s6.51.12,8.92-.72Z" transform="translate(-1191.19 -292.25)"/><path class="cls-22" d="M2289.45,2156.26c3.45,0,5.28.13,8.67.23s4.5-.16,8.2.08c6.75.4,13.5.4,20.25.72a20.42,20.42,0,0,0-3.78-.56c8.11,0,16.39.64,24.51,1,1.29.08,12.29.24,13.58.48.72.16,14.94-.72,15.43,0,.72,1.37-24.83,2.41-25.63,2.49a65.86,65.86,0,0,1-8,.32c-14.06.24-28.12.4-42.18.4-3.05,0-6.43.16-9.48-.56-1.85-.48-5.3-.32-6.75-1.85Z" transform="translate(-1191.19 -292.25)"/><path class="cls-23" d="M2296,2157c3.56.23,7.31.08,10.93.24s7.23.08,10.85.16c2,.08,3.94.16,5.95.16,1.29,0,2.65,0,3.94.08,1.61.08,9.88.19,17.52.8-4.26.64-20.89.24-25.23.4-4.74.24-9.48.08-14.22.32-4.42.24-8.84.32-13.26.16C2289.92,2159.3,2290.61,2156.71,2296,2157Z" transform="translate(-1191.19 -292.25)"/><path class="cls-24" d="M2498.26,2155.2c-9.64,3.62-20,2.89-30.13,2.17-8.2-.48-17.35,1.21-25.07-.48a14.4,14.4,0,0,1,2.65-1.45c-25.79,3.62-52.31.24-78.1,1.45,1.21.72,2.89.24,4.1,1-13,1.21-26.51.72-39.77.24-11.81-.24-23.64,0-35.43-1-6.2-.53-7.06-.31-7.06-.31-4.63,2.36-4.75,7.06-3.3,8,2.17,1.21,8,.24,10.61.24,11.09.24,22.18,0,33.26,0,40.49,0,81,1.93,121.72,1.93,11.81,0,24.1,0,35.91-.72,3.13-.48,14.22.72,14.94-4.34Z" transform="translate(-1191.19 -292.25)"/><path class="cls-23" d="M2442.1,2163.88a18.78,18.78,0,0,1,8.2.72c4.93,1.4,36.16.59,36.16.59l-16.51,3.47-24-1S2451.62,2165.81,2442.1,2163.88Z" transform="translate(-1191.19 -292.25)"/><path class="cls-23" d="M2442.46,2165.33c-5.66,0-11.33.36-16.87.36s-10.61-.6-16-1.08c-10.49-.84-21-.84-31.58-1.45-11.69-.72-23.14,0-34.71,1-1.45.12-3.62.12-4.7,1.08,4.1,1.93,11.21,1.33,15.67,1.33,5.18,0,10.36,0,15.55-.12,5.54-.12,11.09.6,16.63.84,11.57.72,22.9,1.69,34.47,1.69,9.16,0,18.32-.24,27.48-.48Z" transform="translate(-1191.19 -292.25)"/><path class="cls-22" d="M2282.77,2164.36c29.41,1.21,63.15-1.57,92.56-.48-.72,0-10.61,1.21-10.61,1.21,9.62-.43,17.63-1,21.93-1,8.68,0,16.87.48,25.55,1.21,9.16,1,21.69,2.17,30.37-.24.48,0,1.45.24,1.69.24-1-.24-1.45-1-2.17-1.45,2.89-.72,6.75,1.45,9.88,1.93,2.41.24,5.06.24,7.47.24,5.3.24,10.85,0,16.15,0,5.78-.24,11.81-1,17.6-.72,3.62.24,4.34-.24,4.58,3.37.48,4.82-2.17,9.1-6,9.1-28.92,1-58.57.72-87.74,0-32.3-1-64.36-.72-96.66.24-5.54,0-18.08-2.6-22.66-6.93Z" transform="translate(-1191.19 -292.25)"/><path class="cls-23" d="M2279.48,2172.88c7.71-1,15.91-.16,23.78.16,8.36.32,16.55,0,24.91,0,2.89,0,5.78.48,8.68.32-2.09-.16-6.54-1.5-11.09-1.61,3.37-.32,11.73,1,14.94,1.12,3.54.16,7.23.16,10.77.32,7.07.16,14.14.4,21.05-.4,5.95-.64,11.89-1,17.84-1.37-2.41.8-7.55,1.12-9.8,2.09,15.91-1,34.39-.88,50.14-.4,10.93.32,14.78.32,25.71.64,5.3.16,17.72.21,23-.08,9.64-.53,12.53-.48,16.07-.64,2.57-.16,10-1.29,11.57,1.12,2.57,4.18-17.84,3.86-20.57,4.18a247.49,247.49,0,0,1-34.55,1.29c-19.93-.48-39.69-.64-59.62-.32-21.37.32-42.58-1-64-1-11.89,0-23.78-.16-35.67-.32-5.14-.16-10.44,0-15.43-1.12Z" transform="translate(-1191.19 -292.25)"/><path class="cls-25" d="M2280.84,2172.8c24.83.72,50.38,1.93,75.45,1.21,26.27-.72,52.79-.24,79.06-.24,11.57,0,23.14,1,34.47.72,5.54,0,10.85-.24,16.15-.24,4.34,0,11.57-1.21,15.43.24a3.94,3.94,0,0,0,1.69,0c0,2.65-.24,7.23-1.93,8.44-2.65,1.93-11.09,18.56-14.22,18.56H2475.6c-17.35,0-34.71-.48-52.06.72-40,2.89-80.27-18.32-120-18.32-4.34,0-21.69,1.69-23.14-3.13Z" transform="translate(-1191.19 -292.25)"/><path class="cls-14" d="M2497,2166c-.62-.6-1.74-.49-3.84-.63-5.78-.24-11.81.48-17.6.72-5.3,0-10.85.24-16.15,0-2.41,0-5.06,0-7.47-.24-3.13-.48-7-2.65-9.88-1.93.72.48,1.21,1.21,2.17,1.45-.24,0-1.21-.24-1.69-.24-8.68,2.41-21.21,1.21-30.37.24-8.68-.72-16.87-1.21-25.55-1.21-1.07,0-2.37,0-3.86.09,1.71.14,3.4.21,4.83.39a76.77,76.77,0,0,0,12.21.64c7.39,0,14.46,1.93,21.85,2.09a134.12,134.12,0,0,0,21.21-1.12c3.37-.48,7.23.8,11.09.8,3.21,0,6.59.32,9.8.16,6.59-.16,13-.8,19.44-.8C2484.92,2166.37,2492.77,2166.75,2497,2166Z" transform="translate(-1191.19 -292.25)"/><path class="cls-26" d="M2350.44,2165.6c-8.51.64-17,.48-25.54.64-2.09,0-10.79-.92-10.4,2.29.55,3.85,10,1.58,12.4,1.37,7.7-.79,15.12.84,22.69,1.5a156.22,156.22,0,0,0,28.77-.22c4.33-.24,8.49-1.61,12.83-1.69,1.61,0,4.51.56,5.78-.11,3.19-1.51-.22-3-2.31-3.33-8.54-1-17.85-.31-26.36.17C2362.84,2166.49,2355.91,2165.49,2350.44,2165.6Z" transform="translate(-1191.19 -292.25)"/><g class="cls-16"><path class="cls-17" d="M2289.45,2166.4c6.27,0,10-.35,16.22,1.09,6,1.21,9.16.24,15.43.48,7.47.48,15.43.72,22.66-.24,7-1.21,13.74-2.89,21-2.89,12.53,0,24.83.24,37.12.72,7,.24,11.33,4.58,17.6,5.78,5.54,1,14.94,1.45,20.25-.24,2.89-1,5.06-3.37,8-4.1s6,.48,8.92-.24a100.48,100.48,0,0,1,17.35-2.17c6.27-.24,10.12-.72,15.67.48,3.62.72,7-.24,8.44,3.62,1.45,3.62.72,6.75-2.65,8.2-5.06,2.17-13.26,1.21-18.8,1.45-8.92,0-17.84.72-26.76,1-32.54,1.69-65.8,1-98.34.48-19-.24-37.84-1.21-56.89-1.21-5.3,0-9.16-.72-12.78-4.82Z" transform="translate(-1191.19 -292.25)"/></g><path class="cls-23" d="M2283,2165.21l36.47-.8s-23-.36-27-.82Z" transform="translate(-1191.19 -292.25)"/><polygon class="cls-27" points="1128.3 1872.15 1093.11 1873.94 1091.83 1872.95 1128.3 1872.15"/><path class="cls-22" d="M2464,2165.38s27.37-.92,31.28.18l1.07-.54S2487.42,2162.42,2464,2165.38Z" transform="translate(-1191.19 -292.25)"/><path class="cls-14" d="M2436.56,2158.34c-10.36-.72-20.73,1.21-31.34.72-5.54-.24-11.09-.72-16.87-1-2.41,0-15.91-1.45-13.26,1.93,2.17,3.13,13,1.45,16.39,1.45,6,.24,11.57,1.21,17.35,1.69,11.57.72,22.42,3.13,33.26-1.21,1.69-.48,3.13-.24,4.34-1.69-1.69-1.93-6-1.93-8.44-1.69Z" transform="translate(-1191.19 -292.25)"/><path class="cls-14" d="M2469.58,2158.66c-5.46,0-14.46-1.77-19.28.8-4.82,2.73,5.14,3.7,7.23,3.7a111.07,111.07,0,0,0,12.69.16c3.54-.16,6.91-.8,10.61-.64,4,0,9.06-.16,12.92-.16,6.59,0,3.86-4-1.61-4-3.37,0-7.29.48-10.51.48-3.54,0-7.07-.16-10.61-.16Z" transform="translate(-1191.19 -292.25)"/><path class="cls-14" d="M2332.93,2159.3c-7.1,0-14,.07-21.14.07-2.93,0-7.41-.53-10,.09-5.4,1.23-6.61,3.61,6.17,3.38,9.6-.18,19.45-.62,29-.62,4,0,8,.15,11.88,0,1.23,0,5.09.55,5.86-.38,1.39-2-3.4-1.85-4.63-1.85-5.09-.31-10.34-.68-15.43-.68Z" transform="translate(-1191.19 -292.25)"/><g class="cls-16"><path class="cls-17" d="M2284.46,2148.37c0,3.05,0,3.54,2.89,3.37,1.93,0,.33,1.27,2.1,1.41,5.2.41,11.24-.21,15.1,0,12.21.32,24.26.24,36.48.08,11.25-.16,22.5-1,33.75-1,13.18,0,26.35.48,39.53.8,23.14.64,46.28-.8,69.26-.32,4.18,0,8.36.64,12.53.48,2.73,0,4.5.32,3.37-2.89s-2.89-2.25-5.95-2.25c-15.59.64-31,.64-46.6.64-22,0-44.19.8-66-.64-10.77-.64-21.21-1.77-32-1.45-11.73.32-23.62.8-35.35.16-6.11-.32-18.66,1-24.44,1.35-3.69.2-2.23-2-5.77-.7Z" transform="translate(-1191.19 -292.25)"/></g><path class="cls-23" d="M2485.94,2165.21l36.47-.8s-23-.36-27-.82Z" transform="translate(-1191.19 -292.25)"/><polygon class="cls-27" points="1331.22 1872.15 1301.17 1873.68 1294.76 1872.95 1331.22 1872.15"/><path class="cls-14" d="M2289.45,2158.5s4.35-.23,4.89,2.06-3,1.93-4.89,2C2289.45,2162.52,2285.94,2160.69,2289.45,2158.5Z" transform="translate(-1191.19 -292.25)"/></g><g class="cls-28"><path class="cls-14" d="M2488.84,2149.66c1.21,2.41.72,6,.72,8.68,5.3,1.69,12.78.48,18.32.48,6,0,11.81,0,17.84.24,22.9.48,45.56,1.45,68.46.72,21.21-.48,42.66-.48,63.88,0,11.33.24,23.62,1.69,34.71-.24,3.37-.72,6,0,6.51-3.37.24-1.45-.48-3.62-.72-4.82-1-2.65.48-1.93-2.17-2.65-3.86-1.21-11.33.72-15.43,1-12.53,1.45-24.83-.48-37.12-.48-12.78,0-25.31-1-38.08-1.45-19-.72-38.08-1-57.37-1s-39.53-1-58.81,1.45Z" transform="translate(-1191.19 -292.25)"/><path class="cls-15" d="M2527.08,2152.07c-6.91,0-13.82,0-20.57-.16-1.61,0-11.89-.48-7.23,2.25,2.57,1.61,8.84,1,11.89,1.12,16.39.64,32.94,1.12,49.33,1.12,1.93,0,4.18.32,5.78-.32,2.41-.8,2.25-2.09-.16-2.89-3.37-1-7.55.16-11.09-.16-6.75-.64-13.34-.72-20.09-.88C2532.7,2152.15,2531.92,2152,2527.08,2152.07Z" transform="translate(-1191.19 -292.25)"/><g class="cls-16"><path class="cls-17" d="M2478.71,2154.32c3.62.56,9.88,1.71,13.52,1.4,2.36-.2,5,.12,7.69-.16,7.23-.84,10.85-1.6,18.32-.76,13.5,1.68,27.24-1,40.74,1.48,6.27,1.12,12.29-.84,18.8-1.12s13-.84,19.52-.56c13.5.28,27.48,1.4,40.74.28a68.43,68.43,0,0,1,18.56.56c6.75,1.4,12.29,0,19-.56,6.51-.56,13,.84,19.52.84,2.41,0,5.54.28,7.47-1.68,3.62-3.08.48-5-3.13-5.6-11.09-1.68-22.9.84-34.23.84-14.94,0-29.89-1.68-44.83-1.12-35,1.12-69.66-1.12-104.37-1.12h-20c-4.82,0-12.29-1.12-16.15,2Z" transform="translate(-1191.19 -292.25)"/></g><path class="cls-18" d="M2712.8,2148.45c-.64,2.41-17.68,1.93-20.57,1.77-4.34-.16-8.2,1.12-12.37,1.12-4.82,0-9.48-.16-14.3-.16-21.05,0-42.66-.28-63.63,0-15.55.21-19.12-1-28.92-.8-12.53.32-25.07.8-37.6.32-9.48-.16-19,.32-28.28-.32-4.18-.32-10.56-.21-14.74-.05-1.45,0-2.78.86-4.06.05-2.89-1.77,1.77-2.41,3.37-2.57,7.55-1.12,15.59-.32,23,.32,14.14,1.29,28-.32,42.1-.64,14.94-.32,29.57,1.12,44.19,1.12,11.73,0,23.3-1.12,34.87-1.45,11.25-.32,22.66.64,33.91.64,13.18,0,26.19-1.61,39.21.8Z" transform="translate(-1191.19 -292.25)"/><path class="cls-19" d="M2492.38,2150c3,.36,12.69-.85,15.58-1,4.34-.16,8.2.64,12.37.64,4.82,0,9.48-.16,14.3-.16,21.05,0,42.74-1,63.63,1,9.64.8,19.12-.48,28.92-.32,12.53.32,25.07.8,37.6.32,9.48-.16,19,.32,28.28-.32a111.55,111.55,0,0,1,12.69.16c1.45,0,4.82.64,6.11-.16,2.89-1.77-1.77-2.41-3.37-2.57-7.55-1.12-15.59-.32-23,.32-14.14,1.29-28-.32-42.1-.64-14.94-.32-29.57,1.12-44.19,1.12-11.73,0-23.3-1.12-34.87-1.45-11.25-.32-22.66-.8-33.91-.8-13.18,0-26.19-1.61-39.21.8Z" transform="translate(-1191.19 -292.25)"/><path class="cls-20" d="M2492.38,2144.2c7.39-1.29,10.28.79,17.83.15,8.36-.8,21.69-.4,30,.08,10.12.48,15.59.24,25.55,1.21,6.11.64,11.89,0,18-.16,5-.16,10,.48,15.11.64,5.78.16,11.57,1.12,17.35,1,4.18-.16,8.36-1,12.53-1.45,9.32-.8,19-.48,28.28-.48,9.64,0,19.93,3.37,29.41.8a52.73,52.73,0,0,1,20.73-1.77,28.93,28.93,0,0,0,5.14,1c1.45,0,3.21-.32,4.34.48-1.45,2.25-8.68,1-11.25,1.12-3.21.16-6.43.48-9.8.8-8.52.8-17,1-25.71,1-18.8,0-37.76-1.45-56.56-.8-18.48.64-37.12,1-55.6-.16-18.64-1.12-37.6-1.61-56.24-1.61-5.3,0-10.28,1-15.59,1Z" transform="translate(-1191.19 -292.25)"/><path class="cls-21" d="M2492.38,2145c6.75-1.18,16.1.65,35.27.05,12.79-.4,24.34,1.21,37.36,1.21,14.46,0,31.58,1.21,45.8,1.45,14.94.24,28.68-2.41,43.39-1.93,8.68.24,15.67,1.69,24.59,1.69,4.82,0,8.92-1,13.5-1.93,4.1-.72,9.64-2.17,8.2,3.13-4.82,1.45-10.36.48-15.19.72-5.06.24-10.12.48-14.94.24-9.88-.48-20,.24-29.89-.24-24.1-1.45-48.69.72-73-.72-10.61-.72-18.08-1.21-28.68-.72-5.3,0-10.36.72-15.67.72-5.78,0-10.61-.48-16.39-.72-4.58-.24-9.22,1.63-14.3,1.51Z" transform="translate(-1191.19 -292.25)"/><path class="cls-22" d="M2492.38,2156.26c3.45,0,5.28.13,8.67.23s4.5-.16,8.2.08c6.75.4,13.5.4,20.25.72a20.42,20.42,0,0,0-3.78-.56c8.11,0,16.39.64,24.51,1,1.29.08,12.29.24,13.58.48.72.16,14.94-.72,15.43,0,.72,1.37-24.83,2.41-25.63,2.49a65.86,65.86,0,0,1-8,.32c-14.06.24-28.12.4-42.18.4-3.05,0-6.43.16-9.48-.56-1.85-.48-5.3-.32-6.75-1.85Z" transform="translate(-1191.19 -292.25)"/><path class="cls-23" d="M2498.88,2157c3.56.23,7.31.08,10.93.24s7.23.08,10.85.16c2,.08,3.94.16,5.95.16,1.29,0,2.65,0,3.94.08,1.61.08,9.88.19,17.52.8-4.26.64-20.89.24-25.23.4-4.74.24-9.48.08-14.22.32-4.42.24-8.84.32-13.26.16C2492.85,2159.3,2493.54,2156.71,2498.88,2157Z" transform="translate(-1191.19 -292.25)"/><path class="cls-24" d="M2701.19,2155.2c-9.64,3.62-20,2.89-30.13,2.17-8.2-.48-17.35,1.21-25.07-.48a14.4,14.4,0,0,1,2.65-1.45c-25.79,3.62-52.31.24-78.1,1.45,1.21.72,2.89.24,4.1,1-13,1.21-26.51.72-39.77.24-11.81-.24-23.64,0-35.43-1-6.2-.53-7.06-.31-7.06-.31-4.63,2.36-4.75,7.06-3.3,8,2.17,1.21,8,.24,10.61.24,11.09.24,22.18,0,33.26,0,40.49,0,81,1.93,121.72,1.93,11.81,0,24.1,0,35.91-.72,3.13-.48,14.22.72,14.94-4.34Z" transform="translate(-1191.19 -292.25)"/><path class="cls-23" d="M2645.39,2165.33c-5.66,0-11.33.36-16.87.36s-10.61-.6-16-1.08c-10.49-.84-21-.84-31.58-1.45-11.69-.72-23.14,0-34.71,1-1.45.12-3.62.12-4.7,1.08,4.1,1.93,11.21,1.33,15.67,1.33,5.18,0,10.36,0,15.55-.12,5.54-.12,11.09.6,16.63.84,11.57.72,22.9,1.69,34.47,1.69,9.16,0,18.32-.24,27.48-.48Z" transform="translate(-1191.19 -292.25)"/><path class="cls-22" d="M2485.7,2164.36c29.41,1.21,63.15-1.57,92.56-.48-.72,0-10.61,1.21-10.61,1.21,9.62-.43,17.63-1,21.93-1,8.68,0,16.87.48,25.55,1.21,9.16,1,21.69,2.17,30.37-.24.48,0,1.45.24,1.69.24-1-.24-1.45-1-2.17-1.45,2.89-.72,6.75,1.45,9.88,1.93,2.41.24,5.06.24,7.47.24,5.3.24,10.85,0,16.15,0,5.78-.24,11.81-1,17.6-.72,3.62.24,4.34-.24,4.58,3.37.48,4.82-2.17,9.1-6,9.1-28.92,1-58.57.72-87.74,0-32.3-1-64.36-.72-96.66.24-5.54,0-18.08-2.6-22.66-6.93Z" transform="translate(-1191.19 -292.25)"/><path class="cls-23" d="M2482.41,2172.88c7.71-1,15.91-.16,23.78.16,8.36.32,16.55,0,24.91,0,2.89,0,5.78.48,8.68.32-2.09-.16-6.54-1.5-11.09-1.61,3.37-.32,11.73,1,14.94,1.12,3.54.16,7.23.16,10.77.32,7.07.16,14.14.4,21.05-.4,5.95-.64,11.89-1,17.84-1.37-2.41.8-7.55,1.12-9.8,2.09,15.91-1,34.39-.88,50.14-.4,10.93.32,14.78.32,25.71.64,5.3.16,17.72.21,23-.08,9.64-.53,12.53-.48,16.07-.64,2.57-.16,10-1.29,11.57,1.12,2.57,4.18-17.84,3.86-20.57,4.18a247.49,247.49,0,0,1-34.55,1.29c-19.93-.48-39.69-.64-59.62-.32-21.37.32-42.58-1-64-1-11.89,0-23.78-.16-35.67-.32-5.14-.16-10.44,0-15.43-1.12Z" transform="translate(-1191.19 -292.25)"/><path class="cls-25" d="M2483.77,2172.8c24.83.72,50.38,1.93,75.45,1.21,26.27-.72,52.79-.24,79.06-.24,11.57,0,23.14,1,34.47.72,5.54,0,10.85-.24,16.15-.24,4.34,0,11.57-1.21,15.43.24a3.94,3.94,0,0,0,1.69,0c0,2.65-.24,7.23-1.93,8.44-2.65,1.93-11.09,17.33-14.22,17.33h-11.33c-17.35,0-34.71-.48-52.06.72-40,2.89-80.27-.24-120-.24-4.34,0-21.69-15.16-23.14-20Z" transform="translate(-1191.19 -292.25)"/><path class="cls-26" d="M2553.37,2165.6c-8.51.64-17,.48-25.54.64-2.09,0-10.79-.92-10.4,2.29.55,3.85,10,1.58,12.4,1.37,7.7-.79,15.12.84,22.69,1.5a156.22,156.22,0,0,0,28.77-.22c4.33-.24,8.49-1.61,12.83-1.69,1.61,0,4.51.56,5.78-.11,3.19-1.51-.22-3-2.31-3.33-8.54-1-17.85-.31-26.36.17C2565.77,2166.49,2558.84,2165.49,2553.37,2165.6Z" transform="translate(-1191.19 -292.25)"/><g class="cls-16"><path class="cls-17" d="M2492.38,2166.4c6.27,0,10-.35,16.22,1.09,6,1.21,9.16.24,15.43.48,7.47.48,15.43.72,22.66-.24,7-1.21,13.74-2.89,21-2.89,12.53,0,24.83.24,37.12.72,7,.24,11.33,4.58,17.6,5.78,5.54,1,14.94,1.45,20.25-.24,2.89-1,5.06-3.37,8-4.1s6,.48,8.92-.24a100.48,100.48,0,0,1,17.35-2.17c6.27-.24,10.12-.72,15.67.48,3.62.72,7-.24,8.44,3.62,1.45,3.62.72,6.75-2.65,8.2-5.06,2.17-13.26,1.21-18.8,1.45-8.92,0-17.84.72-26.76,1-32.54,1.69-65.8,1-98.34.48-19-.24-37.84-1.21-56.89-1.21-5.3,0-9.16-.72-12.78-4.82Z" transform="translate(-1191.19 -292.25)"/></g><path class="cls-23" d="M2485.94,2165.21l36.47-.8s-23-.36-27-.82Z" transform="translate(-1191.19 -292.25)"/><polygon class="cls-27" points="1331.22 1872.15 1296.04 1873.94 1294.76 1872.95 1331.22 1872.15"/><path class="cls-14" d="M2639.49,2158.34c-10.36-.72-20.73,1.21-31.34.72-5.54-.24-11.09-.72-16.87-1-2.41,0-15.91-1.45-13.26,1.93,2.17,3.13,13,1.45,16.39,1.45,6,.24,11.57,1.21,17.35,1.69,11.57.72,22.42,3.13,33.26-1.21,1.69-.48,3.13-.24,4.34-1.69-1.69-1.93-6-1.93-8.44-1.69Z" transform="translate(-1191.19 -292.25)"/><path class="cls-14" d="M2535.86,2159.3c-7.1,0-14,.07-21.14.07-2.93,0-7.41-.53-10,.09-5.4,1.23-6.61,3.61,6.17,3.38,9.6-.18,19.45-.62,29-.62,4,0,8,.15,11.88,0,1.23,0,5.09.55,5.86-.38,1.39-2-3.4-1.85-4.63-1.85-5.09-.31-10.34-.68-15.43-.68Z" transform="translate(-1191.19 -292.25)"/><g class="cls-16"><path class="cls-17" d="M2487.39,2148.37c0,3.05,0,3.54,2.89,3.37,1.93,0,.33,1.27,2.1,1.41,5.2.41,11.24-.21,15.1,0,12.21.32,24.26.24,36.48.08,11.25-.16,22.5-1,33.75-1,13.18,0,26.35.48,39.53.8,23.14.64,46.28-.8,69.26-.32,4.18,0,8.36.64,12.53.48,2.73,0,4.5.32,3.37-2.89s-2.89-2.25-5.95-2.25c-15.59.64-31,.64-46.6.64-22,0-44.19.8-66-.64-10.77-.64-21.21-1.77-32-1.45-11.73.32-23.62.8-35.35.16-6.11-.32-18.66,1-24.44,1.35-3.69.2-2.23-2-5.77-.7Z" transform="translate(-1191.19 -292.25)"/></g><path class="cls-14" d="M2492.38,2158.5s4.35-.23,4.89,2.06-3,1.93-4.89,2C2492.38,2162.52,2488.87,2160.69,2492.38,2158.5Z" transform="translate(-1191.19 -292.25)"/></g><g class="cls-29"><rect class="cls-30" x="1094.83" y="1890.87" width="408.29" height="127.55"/><path class="cls-23" d="M2314.52,2285.7l165.66-1.71s-104.44-.76-122.68-1.76Z" transform="translate(-1191.19 -292.25)"/><path class="cls-23" d="M2686.93,2269.83c-5.69.14-11.38,2.09-16.83,2.93-11.38,1.81-23.23,1.26-35.08,1.53l-21.33.42c-8.3.28-15.41-.42-23.7-.84-9.24-.7-18.49-.42-27.73-1.12-7.59-.56-15.17-.28-22.76-.28-7.11,0-29.63.56-36.5-.42,9-.84,39.35-1.4,43.85-1.53,9.48-.28,19.2-1.26,28.68-1.4h4.5a19.61,19.61,0,0,0-3.32,1.4c3.08,1.67,13.51.56,17.78.56,5.69,0,11.14.28,16.59.28,12.56,0,24.65.14,37,.56,5.21.14,10.19.14,15.17.14,5.21,0,12.8.14,17.54-.84Z" transform="translate(-1191.19 -292.25)"/><path class="cls-31" d="M2479.82,2223.79c-5.69.14-11.38,2.09-16.83,2.93-11.38,1.81-23.23,1.26-35.08,1.53l-21.33.42c-8.3.28-15.41-.42-23.7-.84-9.24-.7-18.49-.42-27.73-1.12-7.59-.56-15.17-.28-22.76-.28-7.11,0-29.63.56-36.5-.42,9-.84,39.35-1.4,43.85-1.53,9.48-.28,19.2-1.26,28.68-1.4h4.5a19.61,19.61,0,0,0-3.32,1.4c3.08,1.67,13.51.56,17.78.56,5.69,0,11.14.28,16.59.28,12.56,0,24.65.14,37,.56,5.21.14,10.19.14,15.17.14,5.21,0,12.8.14,17.54-.84Z" transform="translate(-1191.19 -292.25)"/><path class="cls-31" d="M2330.68,2294.5c-1.22.23-2.44,3.49-3.6,4.88-2.44,3-5,2.09-7.51,2.56l-4.57.7c-1.78.46-3.3-.7-5.08-1.39-2-1.16-4-.7-5.94-1.86-1.62-.93-3.25-.46-4.87-.46s-6.35.93-7.82-.7c1.93-1.39,8.43-2.32,9.39-2.56,2-.46,4.11-2.09,6.14-2.32h1a16.84,16.84,0,0,0-.71,2.32c.66,2.79,2.89.93,3.81.93,1.22,0,2.39.46,3.55.46a30.5,30.5,0,0,1,7.92.93,15.55,15.55,0,0,0,3.25.23c1.12,0,2.74.23,3.76-1.39Z" transform="translate(-1191.19 -292.25)"/><path class="cls-23" d="M2735.91,2205.72c-25.65,0-51.29.42-76.39.42s-48-.7-72.57-1.26c-47.47-1-94.94-1-143-1.67-52.93-.84-104.77,0-157.15,1.12-6.55.14-16.37.14-21.28,1.26,18.55,2.23,50.75,1.53,70.94,1.53,23.46,0,46.93,0,70.39-.14,25.1-.14,50.2.7,75.3,1,52.38.84,103.67,2,156.06,2,41.47,0,82.94-.28,124.41-.56Z" transform="translate(-1191.19 -292.25)"/><path class="cls-22" d="M2282.66,2244.94c57.4.87,123.26-1.13,180.66-.35-1.41,0-20.7.87-20.7.87,18.77-.31,34.41-.7,42.81-.7,16.94,0,32.93.35,49.87.87,17.88.7,42.34,1.57,59.28-.17.94,0,2.82.17,3.29.17a22.4,22.4,0,0,1-4.23-1c5.65-.52,13.17,1,19.29,1.4,4.7.17,9.88.17,14.58.17,10.35.17,21.17,0,31.52,0,11.29-.17,23.05-.7,34.34-.52,7.06.17,8.47-.17,8.94,2.44.94,3.49-4.23,6.59-11.76,6.59-56.46.7-114.32.52-171.25,0-63-.7-125.61-.52-188.66.17-10.82,0-35.28-1.88-44.22-5Z" transform="translate(-1191.19 -292.25)"/><path class="cls-23" d="M2276.23,2251.1c15.05-.7,31.05-.12,46.42.12,16.31.23,32.31,0,48.61,0,5.65,0,11.29.35,16.94.23-4.08-.12-12.77-1.09-21.64-1.16,6.59-.23,22.9.7,29.17.81,6.9.12,14.11.12,21,.23,13.8.12,27.6.29,41.09-.29,11.6-.47,23.21-.76,34.81-1-4.7.58-14.74.81-19.13,1.51,31.05-.7,67.12-.64,97.86-.29,21.33.23,28.86.23,50.18.47,10.35.12,34.59.15,44.85-.06,18.81-.38,24.46-.35,31.36-.47,5-.12,19.45-.93,22.58.81,5,3-34.81,2.79-40.15,3-22.27.93-44.85,1.16-67.43.93-38.89-.35-77.47-.47-116.36-.23-41.71.23-83.12-.7-124.83-.7q-34.81,0-69.63-.23c-10-.12-20.39,0-30.11-.81Z" transform="translate(-1191.19 -292.25)"/><path class="cls-32" d="M2287.41,2253.06c50,.42,101.54,1.12,152.07.7,53-.42,106.4-.14,159.35-.14,23.32,0,46.64.56,69.47.42,11.17,0,21.86-.14,32.55-.14,8.74,0,23.32-.7,31.09.14a27.34,27.34,0,0,0,3.4,0,4.58,4.58,0,0,1-3.89,4.88c-5.34,1.12-22.35,10-28.66,10H2680c-35,0-70-.28-104.94.42-80.65,1.67-161.78-.14-241.94-.14-8.74,0-43.72-8.78-46.64-11.57Z" transform="translate(-1191.19 -292.25)"/><g class="cls-16"><path class="cls-17" d="M2242.82,2284.91c0,3.54,0,4.09,6.4,3.91,4.27,0,.74,1.48,4.64,1.64,11.5.48,24.87-.24,33.41-.06,27,.37,53.69.28,80.71.09,24.89-.19,49.78-1.12,74.66-1.12,29.15,0,58.31.56,87.46.93,51.2.74,102.4-.93,153.24-.37,9.24,0,18.49.74,27.73.56,6,0,10,.37,7.47-3.35s-6.4-2.6-13.16-2.6c-34.49.74-68.62.74-103.11.74-48.71,0-97.77.93-146.13-.74-23.82-.74-46.93-2-70.75-1.67-26,.37-52.26.93-78.22.19-13.51-.37-41.29,1.19-54.08,1.56-8.16.24-4.93-2.3-12.76-.81Z" transform="translate(-1191.19 -292.25)"/></g><g class="cls-16"><path class="cls-17" d="M2270.48,2182.06c0,3.54,0,4.09,5.88,3.91,3.92,0,.68,1.48,4.26,1.64,10.57.48,22.87-.24,30.71-.06,24.84.37,49.35.28,74.19.09,22.88-.19,45.76-1.12,68.63-1.12,26.8,0,53.6.56,80.4.93,47.06.74,94.13-.93,140.86-.37,8.5,0,17,.74,25.49.56,5.56,0,9.15.37,6.86-3.35s-5.88-2.6-12.09-2.6c-31.7.74-63.08.74-94.78.74-44.78,0-89.88.93-134.33-.74-21.9-.74-43.14-2-65-1.67-23.86.37-48,.93-71.9.19-12.42-.37-38,1.19-49.72,1.56-7.51.24-4.54-2.3-11.73-.81Z" transform="translate(-1191.19 -292.25)"/></g><path class="cls-24" d="M2744.35,2193.87c-21.28,4.19-44.17,3.35-66.52,2.51-18.09-.56-38.31,1.4-55.34-.56,2.13-.56,3.72-1.4,5.85-1.67-56.94,4.19-115.47.28-172.41,1.67,2.66.84,6.39.28,9,1.12-28.73,1.4-58.53.84-87.8.28-26.07-.28-52.2.06-78.22-1.12-13.68-.62-15.59-.36-15.59-.36-10.21,2.73-10.48,8.17-7.29,9.29,4.79,1.4,17.56.28,23.41.28,24.48.28,49,0,73.43,0,89.4,0,178.79,2.23,268.72,2.23,26.07,0,53.21,0,79.29-.84,6.92-.56,31.4.84,33-5Z" transform="translate(-1191.19 -292.25)"/><g class="cls-16"><path class="cls-17" d="M2271.84,2255.56c7.2.65,19.67,2,26.92,1.62,4.69-.23,10,.14,15.3-.18,14.4-1,21.59-1.86,36.47-.88,26.87,1.95,54.22-1.21,81.09,1.71,12.48,1.3,24.47-1,37.43-1.3s25.91-1,38.87-.65c26.87.32,54.7,1.62,81.09.32a233.29,233.29,0,0,1,36.95.65c13.44,1.62,24.47,0,37.91-.65,13-.65,25.91,1,38.87,1,4.8,0,11,.32,14.88-1.95,7.2-3.57,1-5.84-6.24-6.49-22.07-1.95-45.59,1-68.14,1-29.75,0-59.5-1.95-89.25-1.3-69.58,1.3-138.68-1.3-207.77-1.3h-39.83c-9.6,0-24.47-1.3-32.15,2.27Z" transform="translate(-1191.19 -292.25)"/></g><g class="cls-16"><path class="cls-17" d="M2271.84,2202.53c7.2.65,19.67,2,26.92,1.62,4.69-.23,10,.14,15.3-.18,14.4-1,21.59-1.86,36.47-.88,26.87,1.95,54.22-1.21,81.09,1.71,12.48,1.3,24.47-1,37.43-1.3s25.91-1,38.87-.65c26.87.32,54.7,1.62,81.09.32a233.29,233.29,0,0,1,36.95.65c13.44,1.62,24.47,0,37.91-.65,13-.65,25.91,1,38.87,1,4.8,0,11,.32,14.88-1.95,7.2-3.57,1-5.84-6.24-6.49-22.07-1.95-45.59,1-68.14,1-29.75,0-59.5-1.95-89.25-1.3-69.58,1.3-138.68-1.3-207.77-1.3h-39.83c-9.6,0-24.47-1.3-32.15,2.27Z" transform="translate(-1191.19 -292.25)"/></g><path class="cls-33" d="M2715.74,2231c-13.33,0-26.66.42-39.7.42s-25-.7-37.72-1.26c-24.67-1-49.35-1-74.3-1.67-27.51-.84-54.45,0-81.67,1.12-3.4.14-8.51.14-11.06,1.26,9.64,2.23,26.37,1.53,36.87,1.53,12.19,0,24.39,0,36.58-.14,13-.14,26.09.7,39.14,1,27.22.84,53.88,2,81.11,2,21.55,0,43.11-.28,64.66-.56Z" transform="translate(-1191.19 -292.25)"/><path class="cls-33" d="M2712.35,2297.37c-16.58,0-33.16.42-49.39.42s-31-.7-46.92-1.26c-30.7-1-61.39-1-92.44-1.67-34.22-.84-67.74,0-101.61,1.12-4.23.14-10.58.14-13.76,1.26,12,2.23,32.81,1.53,45.87,1.53,15.17,0,30.34,0,45.51-.14,16.23-.14,32.46.7,48.69,1,33.87.84,67,2,100.91,2,26.81,0,53.63-.28,80.44-.56Z" transform="translate(-1191.19 -292.25)"/><path class="cls-23" d="M2414.61,2185.62l165.66-1.71s-104.44-.76-122.68-1.76Z" transform="translate(-1191.19 -292.25)"/></g><g class="cls-34"><path class="cls-14" d="M1902,2149.66c1.21,2.41.72,6,.72,8.68,5.3,1.69,12.78.48,18.32.48,6,0,11.81,0,17.84.24,22.9.48,45.56,1.45,68.46.72,21.21-.48,42.66-.48,63.88,0,11.33.24,23.62,1.69,34.71-.24,3.37-.72,6,0,6.51-3.37.24-1.45-.48-3.62-.72-4.82-1-2.65.48-1.93-2.17-2.65-3.86-1.21-11.33.72-15.43,1-12.53,1.45-24.83-.48-37.12-.48-12.78,0-25.31-1-38.08-1.45-19-.72-38.08-1-57.37-1s-39.53-1-58.81,1.45Z" transform="translate(-1191.19 -292.25)"/><path class="cls-15" d="M1940.28,2152.07c-6.91,0-13.82,0-20.57-.16-1.61,0-11.89-.48-7.23,2.25,2.57,1.61,8.84,1,11.89,1.12,16.39.64,32.94,1.12,49.33,1.12,1.93,0,4.18.32,5.78-.32,2.41-.8,2.25-2.09-.16-2.89-3.37-1-7.55.16-11.09-.16-6.75-.64-13.34-.72-20.09-.88C1945.91,2152.15,1945.12,2152,1940.28,2152.07Z" transform="translate(-1191.19 -292.25)"/><g class="cls-16"><path class="cls-17" d="M1891.91,2154.32c3.62.56,9.88,1.71,13.52,1.4,2.36-.2,5,.12,7.69-.16,7.23-.84,10.85-1.6,18.32-.76,13.5,1.68,27.24-1,40.74,1.48,6.27,1.12,12.29-.84,18.8-1.12s13-.84,19.52-.56c13.5.28,27.48,1.4,40.74.28a68.43,68.43,0,0,1,18.56.56c6.75,1.4,12.29,0,19-.56,6.51-.56,13,.84,19.52.84,2.41,0,5.54.28,7.47-1.68,3.62-3.08.48-5-3.13-5.6-11.09-1.68-22.9.84-34.23.84-14.94,0-29.89-1.68-44.83-1.12-35,1.12-69.66-1.12-104.37-1.12h-20c-4.82,0-12.29-1.12-16.15,2Z" transform="translate(-1191.19 -292.25)"/></g><path class="cls-18" d="M2126,2148.45c-.64,2.41-17.68,1.93-20.57,1.77-4.34-.16-8.2,1.12-12.37,1.12-4.82,0-9.48-.16-14.3-.16-21.05,0-42.66-.28-63.63,0-15.55.21-19.12-1-28.92-.8-12.53.32-25.07.8-37.6.32-9.48-.16-19,.32-28.28-.32-4.18-.32-10.56-.21-14.74-.05-1.45,0-2.78.86-4.06.05-2.89-1.77,1.77-2.41,3.37-2.57,7.55-1.12,15.59-.32,23,.32,14.14,1.29,28-.32,42.1-.64,14.94-.32,29.57,1.12,44.19,1.12,11.73,0,23.3-1.12,34.87-1.45,11.25-.32,22.66.64,33.91.64,13.18,0,26.19-1.61,39.21.8Z" transform="translate(-1191.19 -292.25)"/><path class="cls-19" d="M1905.58,2150c3,.36,12.69-.85,15.58-1,4.34-.16,8.2.64,12.37.64,4.82,0,9.48-.16,14.3-.16,21.05,0,42.74-1,63.63,1,9.64.8,19.12-.48,28.92-.32,12.53.32,25.07.8,37.6.32,9.48-.16,19,.32,28.28-.32a111.55,111.55,0,0,1,12.69.16c1.45,0,4.82.64,6.11-.16,2.89-1.77-1.77-2.41-3.37-2.57-7.55-1.12-15.59-.32-23,.32-14.14,1.29-28-.32-42.1-.64-14.94-.32-29.57,1.12-44.19,1.12-11.73,0-23.3-1.12-34.87-1.45-11.25-.32-22.66-.8-33.91-.8-13.18,0-26.19-1.61-39.21.8Z" transform="translate(-1191.19 -292.25)"/><path class="cls-20" d="M1905.58,2144.2c7.39-1.29,10.28.79,17.83.15,8.36-.8,21.69-.4,30,.08,10.12.48,15.59.24,25.55,1.21,6.11.64,11.89,0,18-.16,5-.16,10,.48,15.11.64,5.78.16,11.57,1.12,17.35,1,4.18-.16,8.36-1,12.53-1.45,9.32-.8,19-.48,28.28-.48,9.64,0,19.93,3.37,29.41.8a52.73,52.73,0,0,1,20.73-1.77,28.93,28.93,0,0,0,5.14,1c1.45,0,3.21-.32,4.34.48-1.45,2.25-8.68,1-11.25,1.12-3.21.16-6.43.48-9.8.8-8.52.8-17,1-25.71,1-18.8,0-37.76-1.45-56.56-.8-18.48.64-37.12,1-55.6-.16-18.64-1.12-37.6-1.61-56.24-1.61-5.3,0-10.28,1-15.59,1Z" transform="translate(-1191.19 -292.25)"/><path class="cls-21" d="M1905.58,2145c6.75-1.18,16.1.65,35.27.05,12.79-.4,24.34,1.21,37.36,1.21,14.46,0,31.58,1.21,45.8,1.45,14.94.24,28.68-2.41,43.39-1.93,8.68.24,15.67,1.69,24.59,1.69,4.82,0,8.92-1,13.5-1.93,4.1-.72,9.64-2.17,8.2,3.13-4.82,1.45-10.36.48-15.19.72-5.06.24-10.12.48-14.94.24-9.88-.48-20,.24-29.89-.24-24.1-1.45-48.69.72-73-.72-10.61-.72-18.08-1.21-28.68-.72-5.3,0-10.36.72-15.67.72-5.78,0-10.61-.48-16.39-.72-4.58-.24-9.22,1.63-14.3,1.51Z" transform="translate(-1191.19 -292.25)"/><path class="cls-22" d="M1999.58,2157c9.08,0,18.08-.24,27.24-.24,8.76,0,17.52-.72,26.27-1.37,4.34-.32,8.2-1.37,12.37-.32-2.77.16-2.17,1.53-2.89,1.53,2.09-.08,4.66-.4,5.87-.4,1.85-.08,3.78,0,5.62,0,4.42,0,8,.88,12.37.32-1.29-.4-1.77-.16-3.05-.72,2.41-.08,4.5.56,6.83.8,1.93.16,3.86.16,5.78.4s3.94.24,6,.24c2.81,0,5.22-.8,8-1.21a73.93,73.93,0,0,1,8.44-.24c2.09-.08,5.54-.24,5.46,2.73-.08,2.17-2.57,1.53-4.42,1.53a41,41,0,0,0-5.38.64,70.76,70.76,0,0,1-8.28,1.21c-5.22.4-10.53-.08-15.75-.16-7.79-.08-15.59-1-23.38-1.21-5.62-.16-11.33-.16-17-.32-6.75-.16-13.58-.08-20.33-.08-4.58,0-9.8.08-14.22-1Z" transform="translate(-1191.19 -292.25)"/><path class="cls-23" d="M2117,2155.8c-2.89.12-5.78,1.81-8.56,2.53-5.78,1.57-11.81,1.08-17.84,1.33l-10.85.36c-4.22.24-7.83-.36-12.05-.72-4.7-.6-9.4-.36-14.1-1a92.71,92.71,0,0,0-11.57-.24c-3.62,0-15.06.48-18.56-.36,4.58-.72,20-1.21,22.3-1.33,4.82-.24,9.76-1.08,14.58-1.21h2.29a8.56,8.56,0,0,0-1.69,1.21c1.57,1.45,6.87.48,9,.48,2.89,0,5.66.24,8.44.24,6.39,0,12.53.12,18.8.48,2.65.12,5.18.12,7.71.12s6.51.12,8.92-.72Z" transform="translate(-1191.19 -292.25)"/><path class="cls-22" d="M1905.58,2156.26c3.45,0,5.28.13,8.67.23s4.5-.16,8.2.08c6.75.4,13.5.4,20.25.72a20.42,20.42,0,0,0-3.78-.56c8.11,0,16.39.64,24.51,1,1.29.08,12.29.24,13.58.48.72.16,14.94-.72,15.43,0,.72,1.37-24.83,2.41-25.63,2.49a65.86,65.86,0,0,1-8,.32c-14.06.24-28.12.4-42.18.4-3.05,0-6.43.16-9.48-.56-1.85-.48-5.3-.32-6.75-1.85Z" transform="translate(-1191.19 -292.25)"/><path class="cls-23" d="M1912.08,2157c3.56.23,7.31.08,10.93.24s7.23.08,10.85.16c2,.08,3.94.16,5.95.16,1.29,0,2.65,0,3.94.08,1.61.08,9.88.19,17.52.8-4.26.64-20.89.24-25.23.4-4.74.24-9.48.08-14.22.32-4.42.24-8.84.32-13.26.16C1906.05,2159.3,1906.74,2156.71,1912.08,2157Z" transform="translate(-1191.19 -292.25)"/><path class="cls-24" d="M2114.39,2155.2c-9.64,3.62-20,2.89-30.13,2.17-8.2-.48-17.35,1.21-25.07-.48a14.4,14.4,0,0,1,2.65-1.45c-25.79,3.62-52.31.24-78.1,1.45,1.21.72,2.89.24,4.1,1-13,1.21-26.51.72-39.77.24-11.81-.24-23.64,0-35.43-1-6.2-.53-7.06-.31-7.06-.31-4.63,2.36-4.75,7.06-3.3,8,2.17,1.21,8,.24,10.61.24,11.09.24,22.18,0,33.26,0,40.49,0,81,1.93,121.72,1.93,11.81,0,24.1,0,35.91-.72,3.13-.48,14.22.72,14.94-4.34Z" transform="translate(-1191.19 -292.25)"/><path class="cls-23" d="M2058.23,2163.88a18.78,18.78,0,0,1,8.2.72c4.93,1.4,36.16.59,36.16.59l-16.51,3.47-24-1S2067.75,2165.81,2058.23,2163.88Z" transform="translate(-1191.19 -292.25)"/><path class="cls-23" d="M2058.59,2165.33c-5.66,0-11.33.36-16.87.36s-10.61-.6-16-1.08c-10.49-.84-21-.84-31.58-1.45-11.69-.72-23.14,0-34.71,1-1.45.12-3.62.12-4.7,1.08,4.1,1.93,11.21,1.33,15.67,1.33,5.18,0,10.36,0,15.55-.12,5.54-.12,11.09.6,16.63.84,11.57.72,22.9,1.69,34.47,1.69,9.16,0,18.32-.24,27.48-.48Z" transform="translate(-1191.19 -292.25)"/><path class="cls-22" d="M1898.9,2164.36c29.41,1.21,63.15-1.57,92.56-.48-.72,0-10.61,1.21-10.61,1.21,9.62-.43,17.63-1,21.93-1,8.68,0,16.87.48,25.55,1.21,9.16,1,21.69,2.17,30.37-.24.48,0,1.45.24,1.69.24-1-.24-1.45-1-2.17-1.45,2.89-.72,6.75,1.45,9.88,1.93,2.41.24,5.06.24,7.47.24,5.3.24,10.85,0,16.15,0,5.78-.24,11.81-1,17.6-.72,3.62.24,4.34-.24,4.58,3.37.48,4.82-2.17,9.1-6,9.1-28.92,1-58.57.72-87.74,0-32.3-1-64.36-.72-96.66.24-5.54,0-18.08-2.6-22.66-6.93Z" transform="translate(-1191.19 -292.25)"/><path class="cls-23" d="M1895.61,2172.88c7.71-1,15.91-.16,23.78.16,8.36.32,16.55,0,24.91,0,2.89,0,5.78.48,8.68.32-2.09-.16-6.54-1.5-11.09-1.61,3.37-.32,11.73,1,14.94,1.12,3.54.16,7.23.16,10.77.32,7.07.16,14.14.4,21.05-.4,5.95-.64,11.89-1,17.84-1.37-2.41.8-7.55,1.12-9.8,2.09,15.91-1,34.39-.88,50.14-.4,10.93.32,14.78.32,25.71.64,5.3.16,17.72.21,23-.08,9.64-.53,12.53-.48,16.07-.64,2.57-.16,10-1.29,11.57,1.12,2.57,4.18-17.84,3.86-20.57,4.18a247.49,247.49,0,0,1-34.55,1.29c-19.93-.48-39.69-.64-59.62-.32-21.37.32-42.58-1-64-1-11.89,0-23.78-.16-35.67-.32-5.14-.16-10.44,0-15.43-1.12Z" transform="translate(-1191.19 -292.25)"/><path class="cls-25" d="M1897,2172.8c24.83.72,50.38,1.93,75.45,1.21,26.27-.72,52.79-.24,79.06-.24,11.57,0,23.14,1,34.47.72,5.54,0,10.85-.24,16.15-.24,4.34,0,11.57-1.21,15.43.24a3.94,3.94,0,0,0,1.69,0c0,2.65-.24,7.23-1.93,8.44-2.65,1.93-11.09,18.56-14.22,18.56h-11.33c-17.35,0-34.71-.48-52.06.72-40,2.89-80.27-18.32-120-18.32-4.34,0-21.69,1.69-23.14-3.13Z" transform="translate(-1191.19 -292.25)"/><path class="cls-14" d="M2113.17,2166c-.62-.6-1.74-.49-3.84-.63-5.78-.24-11.81.48-17.6.72-5.3,0-10.85.24-16.15,0-2.41,0-5.06,0-7.47-.24-3.13-.48-7-2.65-9.88-1.93.72.48,1.21,1.21,2.17,1.45-.24,0-1.21-.24-1.69-.24-8.68,2.41-21.21,1.21-30.37.24-8.68-.72-16.87-1.21-25.55-1.21-1.07,0-2.37,0-3.86.09,1.71.14,3.4.21,4.83.39a76.77,76.77,0,0,0,12.21.64c7.39,0,14.46,1.93,21.85,2.09a134.12,134.12,0,0,0,21.21-1.12c3.37-.48,7.23.8,11.09.8,3.21,0,6.59.32,9.8.16,6.59-.16,13-.8,19.44-.8C2101,2166.37,2108.9,2166.75,2113.17,2166Z" transform="translate(-1191.19 -292.25)"/><path class="cls-26" d="M1966.57,2165.6c-8.51.64-17,.48-25.54.64-2.09,0-10.79-.92-10.4,2.29.55,3.85,10,1.58,12.4,1.37,7.7-.79,15.12.84,22.69,1.5a156.22,156.22,0,0,0,28.77-.22c4.33-.24,8.49-1.61,12.83-1.69,1.61,0,4.51.56,5.78-.11,3.19-1.51-.22-3-2.31-3.33-8.54-1-17.85-.31-26.36.17C1979,2166.49,1972,2165.49,1966.57,2165.6Z" transform="translate(-1191.19 -292.25)"/><g class="cls-16"><path class="cls-17" d="M1905.58,2166.4c6.27,0,10-.35,16.22,1.09,6,1.21,9.16.24,15.43.48,7.47.48,15.43.72,22.66-.24,7-1.21,13.74-2.89,21-2.89,12.53,0,24.83.24,37.12.72,7,.24,11.33,4.58,17.6,5.78,5.54,1,14.94,1.45,20.25-.24,2.89-1,5.06-3.37,8-4.1s6,.48,8.92-.24a100.48,100.48,0,0,1,17.35-2.17c6.27-.24,10.12-.72,15.67.48,3.62.72,7-.24,8.44,3.62,1.45,3.62.72,6.75-2.65,8.2-5.06,2.17-13.26,1.21-18.8,1.45-8.92,0-17.84.72-26.76,1-32.54,1.69-65.8,1-98.34.48-19-.24-37.84-1.21-56.89-1.21-5.3,0-9.16-.72-12.78-4.82Z" transform="translate(-1191.19 -292.25)"/></g><path class="cls-23" d="M1899.14,2165.21l36.47-.8s-23-.36-27-.82Z" transform="translate(-1191.19 -292.25)"/><polygon class="cls-27" points="744.42 1872.15 709.24 1873.94 707.96 1872.95 744.42 1872.15"/><path class="cls-22" d="M2080.16,2165.38s27.37-.92,31.28.18l1.07-.54S2103.54,2162.42,2080.16,2165.38Z" transform="translate(-1191.19 -292.25)"/><path class="cls-14" d="M2052.69,2158.34c-10.36-.72-20.73,1.21-31.34.72-5.54-.24-11.09-.72-16.87-1-2.41,0-15.91-1.45-13.26,1.93,2.17,3.13,13,1.45,16.39,1.45,6,.24,11.57,1.21,17.35,1.69,11.57.72,22.42,3.13,33.26-1.21,1.69-.48,3.13-.24,4.34-1.69-1.69-1.93-6-1.93-8.44-1.69Z" transform="translate(-1191.19 -292.25)"/><path class="cls-14" d="M2085.71,2158.66c-5.46,0-14.46-1.77-19.28.8-4.82,2.73,5.14,3.7,7.23,3.7a111.07,111.07,0,0,0,12.69.16c3.54-.16,6.91-.8,10.61-.64,4,0,9.06-.16,12.92-.16,6.59,0,3.86-4-1.61-4-3.37,0-7.29.48-10.51.48-3.54,0-7.07-.16-10.61-.16Z" transform="translate(-1191.19 -292.25)"/><path class="cls-14" d="M1949.06,2159.3c-7.1,0-14,.07-21.14.07-2.93,0-7.41-.53-10,.09-5.4,1.23-6.61,3.61,6.17,3.38,9.6-.18,19.45-.62,29-.62,4,0,8,.15,11.88,0,1.23,0,5.09.55,5.86-.38,1.39-2-3.4-1.85-4.63-1.85-5.09-.31-10.34-.68-15.43-.68Z" transform="translate(-1191.19 -292.25)"/><g class="cls-16"><path class="cls-17" d="M1900.59,2148.37c0,3.05,0,3.54,2.89,3.37,1.93,0,.33,1.27,2.1,1.41,5.2.41,11.24-.21,15.1,0,12.21.32,24.26.24,36.48.08,11.25-.16,22.5-1,33.75-1,13.18,0,26.35.48,39.53.8,23.14.64,46.28-.8,69.26-.32,4.18,0,8.36.64,12.53.48,2.73,0,4.5.32,3.37-2.89s-2.89-2.25-5.95-2.25c-15.59.64-31,.64-46.6.64-22,0-44.19.8-66-.64-10.77-.64-21.21-1.77-32-1.45-11.73.32-23.62.8-35.35.16-6.11-.32-18.66,1-24.44,1.35-3.69.2-2.23-2-5.77-.7Z" transform="translate(-1191.19 -292.25)"/></g><path class="cls-23" d="M2102.07,2165.21l36.47-.8s-23-.36-27-.82Z" transform="translate(-1191.19 -292.25)"/><polygon class="cls-27" points="947.35 1872.15 917.3 1873.68 910.88 1872.95 947.35 1872.15"/><path class="cls-14" d="M1905.58,2158.5s4.35-.23,4.89,2.06-3,1.93-4.89,2C1905.58,2162.52,1902.07,2160.69,1905.58,2158.5Z" transform="translate(-1191.19 -292.25)"/></g><g class="cls-35"><path class="cls-14" d="M2105,2149.66c1.21,2.41.72,6,.72,8.68,5.3,1.69,12.78.48,18.32.48,6,0,11.81,0,17.84.24,22.9.48,45.56,1.45,68.46.72,21.21-.48,42.66-.48,63.88,0,11.33.24,23.62,1.69,34.71-.24,3.37-.72,6,0,6.51-3.37.24-1.45-.48-3.62-.72-4.82-1-2.65.48-1.93-2.17-2.65-3.86-1.21-11.33.72-15.43,1-12.53,1.45-24.83-.48-37.12-.48-12.78,0-25.31-1-38.08-1.45-19-.72-38.08-1-57.37-1s-39.53-1-58.81,1.45Z" transform="translate(-1191.19 -292.25)"/><path class="cls-15" d="M2143.21,2152.07c-6.91,0-13.82,0-20.57-.16-1.61,0-11.89-.48-7.23,2.25,2.57,1.61,8.84,1,11.89,1.12,16.39.64,32.94,1.12,49.33,1.12,1.93,0,4.18.32,5.78-.32,2.41-.8,2.25-2.09-.16-2.89-3.37-1-7.55.16-11.09-.16-6.75-.64-13.34-.72-20.09-.88C2148.83,2152.15,2148,2152,2143.21,2152.07Z" transform="translate(-1191.19 -292.25)"/><g class="cls-16"><path class="cls-17" d="M2094.84,2154.32c3.62.56,9.88,1.71,13.52,1.4,2.36-.2,5,.12,7.69-.16,7.23-.84,10.85-1.6,18.32-.76,13.5,1.68,27.24-1,40.74,1.48,6.27,1.12,12.29-.84,18.8-1.12s13-.84,19.52-.56c13.5.28,27.48,1.4,40.74.28a68.43,68.43,0,0,1,18.56.56c6.75,1.4,12.29,0,19-.56,6.51-.56,13,.84,19.52.84,2.41,0,5.54.28,7.47-1.68,3.62-3.08.48-5-3.13-5.6-11.09-1.68-22.9.84-34.23.84-14.94,0-29.89-1.68-44.83-1.12-35,1.12-69.66-1.12-104.37-1.12h-20c-4.82,0-12.29-1.12-16.15,2Z" transform="translate(-1191.19 -292.25)"/></g><path class="cls-18" d="M2328.93,2148.45c-.64,2.41-17.68,1.93-20.57,1.77-4.34-.16-8.2,1.12-12.37,1.12-4.82,0-9.48-.16-14.3-.16-21.05,0-42.66-.28-63.63,0-15.55.21-19.12-1-28.92-.8-12.53.32-25.07.8-37.6.32-9.48-.16-19,.32-28.28-.32-4.18-.32-10.56-.21-14.74-.05-1.45,0-2.78.86-4.06.05-2.89-1.77,1.77-2.41,3.37-2.57,7.55-1.12,15.59-.32,23,.32,14.14,1.29,28-.32,42.1-.64,14.94-.32,29.57,1.12,44.19,1.12,11.73,0,23.3-1.12,34.87-1.45,11.25-.32,22.66.64,33.91.64,13.18,0,26.19-1.61,39.21.8Z" transform="translate(-1191.19 -292.25)"/><path class="cls-19" d="M2108.51,2150c3,.36,12.69-.85,15.58-1,4.34-.16,8.2.64,12.37.64,4.82,0,9.48-.16,14.3-.16,21.05,0,42.74-1,63.63,1,9.64.8,19.12-.48,28.92-.32,12.53.32,25.07.8,37.6.32,9.48-.16,19,.32,28.28-.32a111.55,111.55,0,0,1,12.69.16c1.45,0,4.82.64,6.11-.16,2.89-1.77-1.77-2.41-3.37-2.57-7.55-1.12-15.59-.32-23,.32-14.14,1.29-28-.32-42.1-.64-14.94-.32-29.57,1.12-44.19,1.12-11.73,0-23.3-1.12-34.87-1.45-11.25-.32-22.66-.8-33.91-.8-13.18,0-26.19-1.61-39.21.8Z" transform="translate(-1191.19 -292.25)"/><path class="cls-20" d="M2108.51,2144.2c7.39-1.29,10.28.79,17.83.15,8.36-.8,21.69-.4,30,.08,10.12.48,15.59.24,25.55,1.21,6.11.64,11.89,0,18-.16,5-.16,10,.48,15.11.64,5.78.16,11.57,1.12,17.35,1,4.18-.16,8.36-1,12.53-1.45,9.32-.8,19-.48,28.28-.48,9.64,0,19.93,3.37,29.41.8a52.73,52.73,0,0,1,20.73-1.77,28.93,28.93,0,0,0,5.14,1c1.45,0,3.21-.32,4.34.48-1.45,2.25-8.68,1-11.25,1.12-3.21.16-6.43.48-9.8.8-8.52.8-17,1-25.71,1-18.8,0-37.76-1.45-56.56-.8-18.48.64-37.12,1-55.6-.16-18.64-1.12-37.6-1.61-56.24-1.61-5.3,0-10.28,1-15.59,1Z" transform="translate(-1191.19 -292.25)"/><path class="cls-21" d="M2108.51,2145c6.75-1.18,16.1.65,35.27.05,12.79-.4,24.34,1.21,37.36,1.21,14.46,0,31.58,1.21,45.8,1.45,14.94.24,28.68-2.41,43.39-1.93,8.68.24,15.67,1.69,24.59,1.69,4.82,0,8.92-1,13.5-1.93,4.1-.72,9.64-2.17,8.2,3.13-4.82,1.45-10.36.48-15.19.72-5.06.24-10.12.48-14.94.24-9.88-.48-20,.24-29.89-.24-24.1-1.45-48.69.72-73-.72-10.61-.72-18.08-1.21-28.68-.72-5.3,0-10.36.72-15.67.72-5.78,0-10.61-.48-16.39-.72-4.58-.24-9.22,1.63-14.3,1.51Z" transform="translate(-1191.19 -292.25)"/><path class="cls-22" d="M2202.51,2157c9.08,0,18.08-.24,27.24-.24,8.76,0,17.52-.72,26.27-1.37,4.34-.32,8.2-1.37,12.37-.32-2.77.16-2.17,1.53-2.89,1.53,2.09-.08,4.66-.4,5.87-.4,1.85-.08,3.78,0,5.62,0,4.42,0,8,.88,12.37.32-1.29-.4-1.77-.16-3.05-.72,2.41-.08,4.5.56,6.83.8,1.93.16,3.86.16,5.78.4s3.94.24,6,.24c2.81,0,5.22-.8,8-1.21a73.93,73.93,0,0,1,8.44-.24c2.09-.08,5.54-.24,5.46,2.73-.08,2.17-2.57,1.53-4.42,1.53a41,41,0,0,0-5.38.64,70.76,70.76,0,0,1-8.28,1.21c-5.22.4-10.53-.08-15.75-.16-7.79-.08-15.59-1-23.38-1.21-5.62-.16-11.33-.16-17-.32-6.75-.16-13.58-.08-20.33-.08-4.58,0-9.8.08-14.22-1Z" transform="translate(-1191.19 -292.25)"/><path class="cls-23" d="M2320,2155.8c-2.89.12-5.78,1.81-8.56,2.53-5.78,1.57-11.81,1.08-17.84,1.33l-10.85.36c-4.22.24-7.83-.36-12.05-.72-4.7-.6-9.4-.36-14.1-1a92.71,92.71,0,0,0-11.57-.24c-3.62,0-15.06.48-18.56-.36,4.58-.72,20-1.21,22.3-1.33,4.82-.24,9.76-1.08,14.58-1.21h2.29a8.56,8.56,0,0,0-1.69,1.21c1.57,1.45,6.87.48,9,.48,2.89,0,5.66.24,8.44.24,6.39,0,12.53.12,18.8.48,2.65.12,5.18.12,7.71.12s6.51.12,8.92-.72Z" transform="translate(-1191.19 -292.25)"/><path class="cls-22" d="M2108.51,2156.26c3.45,0,5.28.13,8.67.23s4.5-.16,8.2.08c6.75.4,13.5.4,20.25.72a20.42,20.42,0,0,0-3.78-.56c8.11,0,16.39.64,24.51,1,1.29.08,12.29.24,13.58.48.72.16,14.94-.72,15.43,0,.72,1.37-24.83,2.41-25.63,2.49a65.86,65.86,0,0,1-8,.32c-14.06.24-28.12.4-42.18.4-3.05,0-6.43.16-9.48-.56-1.85-.48-5.3-.32-6.75-1.85Z" transform="translate(-1191.19 -292.25)"/><path class="cls-23" d="M2115,2157c3.56.23,7.31.08,10.93.24s7.23.08,10.85.16c2,.08,3.94.16,5.95.16,1.29,0,2.65,0,3.94.08,1.61.08,9.88.19,17.52.8-4.26.64-20.89.24-25.23.4-4.74.24-9.48.08-14.22.32-4.42.24-8.84.32-13.26.16C2109,2159.3,2109.67,2156.71,2115,2157Z" transform="translate(-1191.19 -292.25)"/><path class="cls-24" d="M2317.32,2155.2c-9.64,3.62-20,2.89-30.13,2.17-8.2-.48-17.35,1.21-25.07-.48a14.4,14.4,0,0,1,2.65-1.45c-25.79,3.62-52.31.24-78.1,1.45,1.21.72,2.89.24,4.1,1-13,1.21-26.51.72-39.77.24-11.81-.24-23.64,0-35.43-1-6.2-.53-7.06-.31-7.06-.31-4.63,2.36-4.75,7.06-3.3,8,2.17,1.21,8,.24,10.61.24,11.09.24,22.18,0,33.26,0,40.49,0,81,1.93,121.72,1.93,11.81,0,24.1,0,35.91-.72,3.13-.48,14.22.72,14.94-4.34Z" transform="translate(-1191.19 -292.25)"/><path class="cls-23" d="M2261.16,2163.88a18.78,18.78,0,0,1,8.2.72c4.93,1.4,36.16.59,36.16.59l-16.51,3.47-24-1S2270.68,2165.81,2261.16,2163.88Z" transform="translate(-1191.19 -292.25)"/><path class="cls-23" d="M2261.52,2165.33c-5.66,0-11.33.36-16.87.36s-10.61-.6-16-1.08c-10.49-.84-21-.84-31.58-1.45-11.69-.72-23.14,0-34.71,1-1.45.12-3.62.12-4.7,1.08,4.1,1.93,11.21,1.33,15.67,1.33,5.18,0,10.36,0,15.55-.12,5.54-.12,11.09.6,16.63.84,11.57.72,22.9,1.69,34.47,1.69,9.16,0,18.32-.24,27.48-.48Z" transform="translate(-1191.19 -292.25)"/><path class="cls-22" d="M2101.83,2164.36c29.41,1.21,63.15-1.57,92.56-.48-.72,0-10.61,1.21-10.61,1.21,9.62-.43,17.63-1,21.93-1,8.68,0,16.87.48,25.55,1.21,9.16,1,21.69,2.17,30.37-.24.48,0,1.45.24,1.69.24-1-.24-1.45-1-2.17-1.45,2.89-.72,6.75,1.45,9.88,1.93,2.41.24,5.06.24,7.47.24,5.3.24,10.85,0,16.15,0,5.78-.24,11.81-1,17.6-.72,3.62.24,4.34-.24,4.58,3.37.48,4.82-2.17,9.1-6,9.1-28.92,1-58.57.72-87.74,0-32.3-1-64.36-.72-96.66.24-5.54,0-18.08-2.6-22.66-6.93Z" transform="translate(-1191.19 -292.25)"/><path class="cls-23" d="M2098.54,2172.88c7.71-1,15.91-.16,23.78.16,8.36.32,16.55,0,24.91,0,2.89,0,5.78.48,8.68.32-2.09-.16-6.54-1.5-11.09-1.61,3.37-.32,11.73,1,14.94,1.12,3.54.16,7.23.16,10.77.32,7.07.16,14.14.4,21.05-.4,5.95-.64,11.89-1,17.84-1.37-2.41.8-7.55,1.12-9.8,2.09,15.91-1,34.39-.88,50.14-.4,10.93.32,14.78.32,25.71.64,5.3.16,17.72.21,23-.08,9.64-.53,12.53-.48,16.07-.64,2.57-.16,10-1.29,11.57,1.12,2.57,4.18-17.84,3.86-20.57,4.18a247.49,247.49,0,0,1-34.55,1.29c-19.93-.48-39.69-.64-59.62-.32-21.37.32-42.58-1-64-1-11.89,0-23.78-.16-35.67-.32-5.14-.16-10.44,0-15.43-1.12Z" transform="translate(-1191.19 -292.25)"/><path class="cls-25" d="M2099.9,2172.8c24.83.72,50.38,1.93,75.45,1.21,26.27-.72,52.79-.24,79.06-.24,11.57,0,23.14,1,34.47.72,5.54,0,10.85-.24,16.15-.24,4.34,0,11.57-1.21,15.43.24a3.94,3.94,0,0,0,1.69,0c0,2.65-.24,7.23-1.93,8.44-2.65,1.93-11.09,17.33-14.22,17.33h-11.33c-17.35,0-34.71-.48-52.06.72-40,2.89-80.27-.24-120-.24-4.34,0-21.69-15.16-23.14-20Z" transform="translate(-1191.19 -292.25)"/><path class="cls-14" d="M2316.1,2166c-.62-.6-1.74-.49-3.84-.63-5.78-.24-11.81.48-17.6.72-5.3,0-10.85.24-16.15,0-2.41,0-5.06,0-7.47-.24-3.13-.48-7-2.65-9.88-1.93.72.48,1.21,1.21,2.17,1.45-.24,0-1.21-.24-1.69-.24-8.68,2.41-21.21,1.21-30.37.24-8.68-.72-16.87-1.21-25.55-1.21-1.07,0-2.37,0-3.86.09,1.71.14,3.4.21,4.83.39a76.77,76.77,0,0,0,12.21.64c7.39,0,14.46,1.93,21.85,2.09a134.12,134.12,0,0,0,21.21-1.12c3.37-.48,7.23.8,11.09.8,3.21,0,6.59.32,9.8.16,6.59-.16,13-.8,19.44-.8C2304,2166.37,2311.83,2166.75,2316.1,2166Z" transform="translate(-1191.19 -292.25)"/><path class="cls-26" d="M2169.5,2165.6c-8.51.64-17,.48-25.54.64-2.09,0-10.79-.92-10.4,2.29.55,3.85,10,1.58,12.4,1.37,7.7-.79,15.12.84,22.69,1.5a156.22,156.22,0,0,0,28.77-.22c4.33-.24,8.49-1.61,12.83-1.69,1.61,0,4.51.56,5.78-.11,3.19-1.51-.22-3-2.31-3.33-8.54-1-17.85-.31-26.36.17C2181.9,2166.49,2175,2165.49,2169.5,2165.6Z" transform="translate(-1191.19 -292.25)"/><g class="cls-16"><path class="cls-17" d="M2108.51,2166.4c6.27,0,10-.35,16.22,1.09,6,1.21,9.16.24,15.43.48,7.47.48,15.43.72,22.66-.24,7-1.21,13.74-2.89,21-2.89,12.53,0,24.83.24,37.12.72,7,.24,11.33,4.58,17.6,5.78,5.54,1,14.94,1.45,20.25-.24,2.89-1,5.06-3.37,8-4.1s6,.48,8.92-.24a100.48,100.48,0,0,1,17.35-2.17c6.27-.24,10.12-.72,15.67.48,3.62.72,7-.24,8.44,3.62,1.45,3.62.72,6.75-2.65,8.2-5.06,2.17-13.26,1.21-18.8,1.45-8.92,0-17.84.72-26.76,1-32.54,1.69-65.8,1-98.34.48-19-.24-37.84-1.21-56.89-1.21-5.3,0-9.16-.72-12.78-4.82Z" transform="translate(-1191.19 -292.25)"/></g><path class="cls-23" d="M2102.07,2165.21l36.47-.8s-23-.36-27-.82Z" transform="translate(-1191.19 -292.25)"/><polygon class="cls-27" points="947.35 1872.15 912.17 1873.94 910.88 1872.95 947.35 1872.15"/><path class="cls-22" d="M2283.09,2165.38s27.37-.92,31.28.18l1.07-.54S2306.47,2162.42,2283.09,2165.38Z" transform="translate(-1191.19 -292.25)"/><path class="cls-14" d="M2255.61,2158.34c-10.36-.72-20.73,1.21-31.34.72-5.54-.24-11.09-.72-16.87-1-2.41,0-15.91-1.45-13.26,1.93,2.17,3.13,13,1.45,16.39,1.45,6,.24,11.57,1.21,17.35,1.69,11.57.72,22.42,3.13,33.26-1.21,1.69-.48,3.13-.24,4.34-1.69-1.69-1.93-6-1.93-8.44-1.69Z" transform="translate(-1191.19 -292.25)"/><path class="cls-14" d="M2288.64,2158.66c-5.46,0-14.46-1.77-19.28.8-4.82,2.73,5.14,3.7,7.23,3.7a111.07,111.07,0,0,0,12.69.16c3.54-.16,6.91-.8,10.61-.64,4,0,9.06-.16,12.92-.16,6.59,0,3.86-4-1.61-4-3.37,0-7.29.48-10.51.48-3.54,0-7.07-.16-10.61-.16Z" transform="translate(-1191.19 -292.25)"/><path class="cls-14" d="M2152,2159.3c-7.1,0-14,.07-21.14.07-2.93,0-7.41-.53-10,.09-5.4,1.23-6.61,3.61,6.17,3.38,9.6-.18,19.45-.62,29-.62,4,0,8,.15,11.88,0,1.23,0,5.09.55,5.86-.38,1.39-2-3.4-1.85-4.63-1.85-5.09-.31-10.34-.68-15.43-.68Z" transform="translate(-1191.19 -292.25)"/><g class="cls-16"><path class="cls-17" d="M2103.52,2148.37c0,3.05,0,3.54,2.89,3.37,1.93,0,.33,1.27,2.1,1.41,5.2.41,11.24-.21,15.1,0,12.21.32,24.26.24,36.48.08,11.25-.16,22.5-1,33.75-1,13.18,0,26.35.48,39.53.8,23.14.64,46.28-.8,69.26-.32,4.18,0,8.36.64,12.53.48,2.73,0,4.5.32,3.37-2.89s-2.89-2.25-5.95-2.25c-15.59.64-31,.64-46.6.64-22,0-44.19.8-66-.64-10.77-.64-21.21-1.77-32-1.45-11.73.32-23.62.8-35.35.16-6.11-.32-18.66,1-24.44,1.35-3.69.2-2.23-2-5.77-.7Z" transform="translate(-1191.19 -292.25)"/></g><path class="cls-23" d="M2305,2165.21l36.47-.8s-23-.36-27-.82Z" transform="translate(-1191.19 -292.25)"/><polygon class="cls-27" points="1150.28 1872.15 1120.22 1873.68 1113.81 1872.95 1150.28 1872.15"/><path class="cls-14" d="M2108.51,2158.5s4.35-.23,4.89,2.06-3,1.93-4.89,2C2108.51,2162.52,2105,2160.69,2108.51,2158.5Z" transform="translate(-1191.19 -292.25)"/></g><g class="cls-36"><rect class="cls-37" x="710.96" y="1890.87" width="408.29" height="127.55"/><path class="cls-23" d="M1930.65,2285.7l165.66-1.71s-104.44-.76-122.68-1.76Z" transform="translate(-1191.19 -292.25)"/><path class="cls-23" d="M2303.06,2269.83c-5.69.14-11.38,2.09-16.83,2.93-11.38,1.81-23.23,1.26-35.08,1.53l-21.33.42c-8.3.28-15.41-.42-23.7-.84-9.24-.7-18.49-.42-27.73-1.12-7.59-.56-15.17-.28-22.76-.28-7.11,0-29.63.56-36.5-.42,9-.84,39.35-1.4,43.85-1.53,9.48-.28,19.2-1.26,28.68-1.4h4.5a19.61,19.61,0,0,0-3.32,1.4c3.08,1.67,13.51.56,17.78.56,5.69,0,11.14.28,16.59.28,12.56,0,24.65.14,37,.56,5.21.14,10.19.14,15.17.14,5.21,0,12.8.14,17.54-.84Z" transform="translate(-1191.19 -292.25)"/><path class="cls-31" d="M2095.95,2223.79c-5.69.14-11.38,2.09-16.83,2.93-11.38,1.81-23.23,1.26-35.08,1.53l-21.33.42c-8.3.28-15.41-.42-23.7-.84-9.24-.7-18.49-.42-27.73-1.12-7.59-.56-15.17-.28-22.76-.28-7.11,0-29.63.56-36.5-.42,9-.84,39.35-1.4,43.85-1.53,9.48-.28,19.2-1.26,28.68-1.4h4.5a19.61,19.61,0,0,0-3.32,1.4c3.08,1.67,13.51.56,17.78.56,5.69,0,11.14.28,16.59.28,12.56,0,24.65.14,37,.56,5.21.14,10.19.14,15.17.14,5.21,0,12.8.14,17.54-.84Z" transform="translate(-1191.19 -292.25)"/><path class="cls-23" d="M2352,2205.72c-25.65,0-51.29.42-76.39.42s-48-.7-72.57-1.26c-47.47-1-94.94-1-143-1.67-52.93-.84-104.77,0-157.15,1.12-6.55.14-16.37.14-21.28,1.26,18.55,2.23,50.75,1.53,70.94,1.53,23.46,0,46.93,0,70.39-.14,25.1-.14,50.2.7,75.3,1,52.38.84,103.67,2,156.06,2,41.47,0,82.94-.28,124.41-.56Z" transform="translate(-1191.19 -292.25)"/><path class="cls-22" d="M1898.79,2244.94c57.4.87,123.26-1.13,180.66-.35-1.41,0-20.7.87-20.7.87,18.77-.31,34.41-.7,42.81-.7,16.94,0,32.93.35,49.87.87,17.88.7,42.34,1.57,59.28-.17.94,0,2.82.17,3.29.17a22.4,22.4,0,0,1-4.23-1c5.65-.52,13.17,1,19.29,1.4,4.7.17,9.88.17,14.58.17,10.35.17,21.17,0,31.52,0,11.29-.17,23.05-.7,34.34-.52,7.06.17,8.47-.17,8.94,2.44.94,3.49-4.23,6.59-11.76,6.59-56.46.7-114.32.52-171.25,0-63-.7-125.61-.52-188.66.17-10.82,0-35.28-1.88-44.22-5Z" transform="translate(-1191.19 -292.25)"/><path class="cls-23" d="M1892.36,2251.1c15.05-.7,31.05-.12,46.42.12,16.31.23,32.31,0,48.61,0,5.65,0,11.29.35,16.94.23-4.08-.12-12.77-1.09-21.64-1.16,6.59-.23,22.9.7,29.17.81,6.9.12,14.11.12,21,.23,13.8.12,27.6.29,41.09-.29,11.6-.47,23.21-.76,34.81-1-4.7.58-14.74.81-19.13,1.51,31.05-.7,67.12-.64,97.86-.29,21.33.23,28.86.23,50.18.47,10.35.12,34.59.15,44.85-.06,18.81-.38,24.46-.35,31.36-.47,5-.12,19.45-.93,22.58.81,5,3-34.81,2.79-40.15,3-22.27.93-44.85,1.16-67.43.93-38.89-.35-77.47-.47-116.36-.23-41.71.23-83.12-.7-124.83-.7q-34.81,0-69.63-.23c-10-.12-20.39,0-30.11-.81Z" transform="translate(-1191.19 -292.25)"/><path class="cls-32" d="M1903.54,2253.06c50,.42,101.54,1.12,152.07.7,53-.42,106.4-.14,159.35-.14,23.32,0,46.64.56,69.47.42,11.17,0,21.86-.14,32.55-.14,8.74,0,23.32-.7,31.09.14a27.34,27.34,0,0,0,3.4,0,4.58,4.58,0,0,1-3.89,4.88c-5.34,1.12-22.35,10-28.66,10h-22.83c-35,0-70-.28-104.94.42-80.65,1.67-161.78-.14-241.94-.14-8.74,0-43.72-8.78-46.64-11.57Z" transform="translate(-1191.19 -292.25)"/><g class="cls-16"><path class="cls-17" d="M1859,2284.91c0,3.54,0,4.09,6.4,3.91,4.27,0,.74,1.48,4.64,1.64,11.5.48,24.87-.24,33.41-.06,27,.37,53.69.28,80.71.09,24.89-.19,49.78-1.12,74.66-1.12,29.15,0,58.31.56,87.46.93,51.2.74,102.4-.93,153.24-.37,9.24,0,18.49.74,27.73.56,6,0,10,.37,7.47-3.35s-6.4-2.6-13.16-2.6c-34.49.74-68.62.74-103.11.74-48.71,0-97.77.93-146.13-.74-23.82-.74-46.93-2-70.75-1.67-26,.37-52.26.93-78.22.19-13.51-.37-41.29,1.19-54.08,1.56-8.16.24-4.93-2.3-12.76-.81Z" transform="translate(-1191.19 -292.25)"/></g><g class="cls-16"><path class="cls-17" d="M1886.61,2182.06c0,3.54,0,4.09,5.88,3.91,3.92,0,.68,1.48,4.26,1.64,10.57.48,22.87-.24,30.71-.06,24.84.37,49.35.28,74.19.09,22.88-.19,45.76-1.12,68.63-1.12,26.8,0,53.6.56,80.4.93,47.06.74,94.13-.93,140.86-.37,8.5,0,17,.74,25.49.56,5.56,0,9.15.37,6.86-3.35s-5.88-2.6-12.09-2.6c-31.7.74-63.08.74-94.78.74-44.78,0-89.88.93-134.33-.74-21.9-.74-43.14-2-65-1.67-23.86.37-48,.93-71.9.19-12.42-.37-38,1.19-49.72,1.56-7.51.24-4.54-2.3-11.73-.81Z" transform="translate(-1191.19 -292.25)"/></g><path class="cls-24" d="M2360.48,2193.87c-21.28,4.19-44.17,3.35-66.52,2.51-18.09-.56-38.31,1.4-55.34-.56,2.13-.56,3.72-1.4,5.85-1.67-56.94,4.19-115.47.28-172.41,1.67,2.66.84,6.39.28,9,1.12-28.73,1.4-58.53.84-87.8.28-26.07-.28-52.2.06-78.22-1.12-13.68-.62-15.59-.36-15.59-.36-10.21,2.73-10.48,8.17-7.29,9.29,4.79,1.4,17.56.28,23.41.28,24.48.28,49,0,73.43,0,89.4,0,178.79,2.23,268.72,2.23,26.07,0,53.21,0,79.29-.84,6.92-.56,31.4.84,33-5Z" transform="translate(-1191.19 -292.25)"/><g class="cls-16"><path class="cls-17" d="M1888,2255.56c7.2.65,19.67,2,26.92,1.62,4.69-.23,10,.14,15.3-.18,14.4-1,21.59-1.86,36.47-.88,26.87,1.95,54.22-1.21,81.09,1.71,12.48,1.3,24.47-1,37.43-1.3s25.91-1,38.87-.65c26.87.32,54.7,1.62,81.09.32a233.29,233.29,0,0,1,36.95.65c13.44,1.62,24.47,0,37.91-.65,13-.65,25.91,1,38.87,1,4.8,0,11,.32,14.88-1.95,7.2-3.57,1-5.84-6.24-6.49-22.07-1.95-45.59,1-68.14,1-29.75,0-59.5-1.95-89.25-1.3-69.58,1.3-138.68-1.3-207.77-1.3h-39.83c-9.6,0-24.47-1.3-32.15,2.27Z" transform="translate(-1191.19 -292.25)"/></g><g class="cls-16"><path class="cls-17" d="M1888,2202.53c7.2.65,19.67,2,26.92,1.62,4.69-.23,10,.14,15.3-.18,14.4-1,21.59-1.86,36.47-.88,26.87,1.95,54.22-1.21,81.09,1.71,12.48,1.3,24.47-1,37.43-1.3s25.91-1,38.87-.65c26.87.32,54.7,1.62,81.09.32a233.29,233.29,0,0,1,36.95.65c13.44,1.62,24.47,0,37.91-.65,13-.65,25.91,1,38.87,1,4.8,0,11,.32,14.88-1.95,7.2-3.57,1-5.84-6.24-6.49-22.07-1.95-45.59,1-68.14,1-29.75,0-59.5-1.95-89.25-1.3-69.58,1.3-138.68-1.3-207.77-1.3h-39.83c-9.6,0-24.47-1.3-32.15,2.27Z" transform="translate(-1191.19 -292.25)"/></g><path class="cls-33" d="M2331.87,2231c-13.33,0-26.66.42-39.7.42s-25-.7-37.72-1.26c-24.67-1-49.35-1-74.3-1.67-27.51-.84-54.45,0-81.67,1.12-3.4.14-8.51.14-11.06,1.26,9.64,2.23,26.37,1.53,36.87,1.53,12.19,0,24.39,0,36.58-.14,13-.14,26.09.7,39.14,1,27.22.84,53.88,2,81.11,2,21.55,0,43.11-.28,64.66-.56Z" transform="translate(-1191.19 -292.25)"/><path class="cls-33" d="M2328.48,2297.37c-16.58,0-33.16.42-49.39.42s-31-.7-46.92-1.26c-30.7-1-61.39-1-92.44-1.67-34.22-.84-67.74,0-101.61,1.12-4.23.14-10.58.14-13.76,1.26,12,2.23,32.81,1.53,45.87,1.53,15.17,0,30.34,0,45.51-.14,16.23-.14,32.46.7,48.69,1,33.87.84,67,2,100.91,2,26.81,0,53.63-.28,80.44-.56Z" transform="translate(-1191.19 -292.25)"/><path class="cls-23" d="M2030.74,2185.62l165.66-1.71s-104.44-.76-122.68-1.76Z" transform="translate(-1191.19 -292.25)"/></g><path class="cls-5" d="M1966.89,1992.85c-3.37,3.6-3.6,5.85-8.32,9s-13.94,9.22-19.12,10.34-22.49,7-27.66,7.65a36.82,36.82,0,0,1-9.45,0s1.8-8.1,4.95-12.37,9.45-15.52,20.91-17.32,18-2.7,31.71,0S1966.89,1992.85,1966.89,1992.85Z" transform="translate(-1191.19 -292.25)"/><path class="cls-5" d="M1973.19,2023.88c4,8.55,4,10.12,4,12.82a19.63,19.63,0,0,1-2,8.32c-1.35,2.92-2.7,6.3-8.55,12.14s-5.62,8.77-7,3.82-3.37-10.08-2.7-17.3,1.57-9.92,3.82-13.51,6-5.4,7.73-6.3S1973.19,2023.88,1973.19,2023.88Z" transform="translate(-1191.19 -292.25)"/><path class="cls-5" d="M1990.28,1985.43s13.72-19.57,43.85-20c0,0,18.44,2,27.21,13.49,0,0-21.43,18.83-50.38,13C2008.72,1991.5,1995,1994.2,1990.28,1985.43Z" transform="translate(-1191.19 -292.25)"/><path class="cls-5" d="M1982.19,1981.6c-1.38.43-13.49-30.14,1.35-48.35,0,0,10.57-11.69,14.84-12.82,0,0,9.22,16.42-1.12,41.38C1997.25,1961.81,1988.71,1979.58,1982.19,1981.6Z" transform="translate(-1191.19 -292.25)"/><path class="cls-5" d="M1914.49,1938.2c15.29,1.12,17.32-.9,25.41,3.82s23.16,13.94,25.86,20.47,7.65,14.85,7.65,19.12-19.12,0-19.12,0-25.19-7.42-34.86-30.59Z" transform="translate(-1191.19 -292.25)"/><path class="cls-5" d="M1988.48,1993.05c2.47-.43,20.47-6.5,46.55,17.34,0,0,10.79,13,11.69,21.14a73,73,0,0,1-17.54-3.15c-9.45-2.92-31.93-9.22-35.31-19.34Z" transform="translate(-1191.19 -292.25)"/><path class="cls-38" d="M1984.32,2011.74s.9,26.09,1.35,30.81,1.57,73.54-3.6,86.36l-5.85,17.09H1998s-.22-12.14,0-12.82,4-54.87-5.4-99l-4-25.19Z" transform="translate(-1191.19 -292.25)"/><path class="cls-39" d="M1984.07,2013.71s15.44,43.23,7.34,132.29h8.1v-32.38s-4-76.91-12.14-105.25Z" transform="translate(-1191.19 -292.25)"/><path class="cls-6" d="M1988.12,1994.06s23.53-1.89,55.92,34.55l4,4s-40.48-8.1-52.62-20.24Z" transform="translate(-1191.19 -292.25)"/><path class="cls-6" d="M1991.41,1984.08s52.62-16.19,68.82-4c0,0-20.24,12.14-36.43,12.14H1999.5S1987.36,1988.13,1991.41,1984.08Z" transform="translate(-1191.19 -292.25)"/><path class="cls-6" d="M1983.31,1980s4-52.62,16.19-60.72c0,0,8.1,24.29,0,40.48C1999.5,1959.79,1987.36,1984.08,1983.31,1980Z" transform="translate(-1191.19 -292.25)"/><path class="cls-6" d="M1914.49,1939.55s48.58,16.19,56.67,44.53c0,0-24.29,0-36.43-16.19C1934.73,1967.89,1910.45,1947.65,1914.49,1939.55Z" transform="translate(-1191.19 -292.25)"/><path class="cls-6" d="M1967.12,1992.17s-48.58,0-64.77,28.34h8.1c4,0,32.38-4,32.38-8.1S1967.12,2004.32,1967.12,1992.17Z" transform="translate(-1191.19 -292.25)"/><path class="cls-6" d="M1959,2061s4-32.38,12.14-36.43a20.34,20.34,0,0,1,4,20.24S1967.12,2065,1959,2061Z" transform="translate(-1191.19 -292.25)"/><path class="cls-40" d="M1961.69,1988.85c-.22-1.57-.45-1.8,0-3.15a28,28,0,0,1,3.94-5.73c.45-.34,2.81-2,4.16-2.25a27,27,0,0,1,4.39,0c1.46.9,1.46,1.46,1.46,2.25a3.32,3.32,0,0,1-.56,2.36,6.79,6.79,0,0,1-1.91,2.36c-.9.56-1.46,1.69-2.59,2.47a7,7,0,0,1-3.26,1.69c-1.46.22-1.8-.45-3.15,0A3.89,3.89,0,0,1,1961.69,1988.85Z" transform="translate(-1191.19 -292.25)"/><path class="cls-40" d="M1977.21,1977.62c.56.1,0-.32,2.47,0a24,24,0,0,1,4.39,1l1.91,1.12,2.14,1.8,1.91,2.7.79,2.25v1.35c0,.79.45-.45,0,.79s.9.9-.45,1.24a9.57,9.57,0,0,1-3.26,0l-3.82-.81-4-3.12s-1.91-1.92-2-2.59-.56-2.69-.56-2.69v-2Z" transform="translate(-1191.19 -292.25)"/><path class="cls-40" d="M1961.69,2001.37c-.22-1.57-.45-1.8,0-3.15a28,28,0,0,1,3.94-5.73c.45-.34,2.81-2,4.16-2.25a27,27,0,0,1,4.39,0c1.46.9,1.46,1.46,1.46,2.25a3.32,3.32,0,0,1-.56,2.36,6.79,6.79,0,0,1-1.91,2.36c-.9.56-1.46,1.69-2.59,2.47a7,7,0,0,1-3.26,1.69c-1.46.22-1.8-.45-3.15,0A3.89,3.89,0,0,1,1961.69,2001.37Z" transform="translate(-1191.19 -292.25)"/><path class="cls-40" d="M1977.21,1990.14c.56.1,0-.32,2.47,0a24,24,0,0,1,4.39,1l1.91,1.12,2.14,1.8,1.91,2.7.79,2.25v1.35c0,.79.45-.45,0,.79s.9.9-.45,1.24a9.57,9.57,0,0,1-3.26,0l-3.82-.81-4-3.12s-1.91-1.92-2-2.59-.56-2.69-.56-2.69v-2Z" transform="translate(-1191.19 -292.25)"/><path class="cls-40" d="M1961.69,2012.39c-.22-1.57-.45-1.8,0-3.15a28,28,0,0,1,3.94-5.73c.45-.34,2.81-2,4.16-2.25a27,27,0,0,1,4.39,0c1.46.9,1.46,1.46,1.46,2.25a3.32,3.32,0,0,1-.56,2.36,6.79,6.79,0,0,1-1.91,2.36c-.9.56-1.46,1.69-2.59,2.47a7,7,0,0,1-3.26,1.69c-1.46.22-1.8-.45-3.15,0A3.89,3.89,0,0,1,1961.69,2012.39Z" transform="translate(-1191.19 -292.25)"/><path class="cls-40" d="M1977.21,2001.16c.56.1,0-.32,2.47,0a24,24,0,0,1,4.39,1l1.91,1.12,2.14,1.8,1.91,2.7.79,2.25v1.35c0,.79.45-.45,0,.79s.9.9-.45,1.24a9.57,9.57,0,0,1-3.26,0l-3.82-.81-4-3.12s-1.91-1.92-2-2.59-.56-2.69-.56-2.69v-2Z" transform="translate(-1191.19 -292.25)"/><path class="cls-40" d="M1961.69,2023.95c-.22-1.57-.45-1.8,0-3.15a28,28,0,0,1,3.94-5.73c.45-.34,2.81-2,4.16-2.25a27,27,0,0,1,4.39,0c1.46.9,1.46,1.46,1.46,2.25a3.32,3.32,0,0,1-.56,2.36,6.79,6.79,0,0,1-1.91,2.36c-.9.56-1.46,1.69-2.59,2.47a7,7,0,0,1-3.26,1.69c-1.46.22-1.8-.45-3.15,0A3.89,3.89,0,0,1,1961.69,2023.95Z" transform="translate(-1191.19 -292.25)"/><path class="cls-40" d="M1977.21,2012.71c.56.1,0-.32,2.47,0a24,24,0,0,1,4.39,1l1.91,1.12,2.14,1.8,1.91,2.7.79,2.25v1.35c0,.79.45-.45,0,.79s.9.9-.45,1.24a9.57,9.57,0,0,1-3.26,0l-3.82-.81-4-3.12s-1.91-1.92-2-2.59-.56-2.69-.56-2.69v-2Z" transform="translate(-1191.19 -292.25)"/><path class="cls-40" d="M1975.64,2021.91s4.57.52,4.72,7.5c0,0,.69,10.12-4.72,10.34,0,0-5-3.3-3.76-11.09C1971.89,2028.66,1973.06,2023.89,1975.64,2021.91Z" transform="translate(-1191.19 -292.25)"/><path class="cls-39" d="M1976.65,1978.62s11.55,2.88,14.07,10.43l.29.69a9.37,9.37,0,0,1-7.7-1S1975.22,1986.05,1976.65,1978.62Z" transform="translate(-1191.19 -292.25)"/><path class="cls-39" d="M1974.63,1978s-12,7.44-12.6,10.92c0,0-.48.19.63.1s-.14-.14,1.5-.2a8.89,8.89,0,0,1,1.92,0c.51.06-.21.22.8.05s7.65-3.2,8.43-7.81C1975.31,1981.08,1976.26,1980,1974.63,1978Z" transform="translate(-1191.19 -292.25)"/><path class="cls-39" d="M1976.65,1991s11.55,2.88,14.07,10.43l.29.69a9.37,9.37,0,0,1-7.7-1S1975.22,1998.43,1976.65,1991Z" transform="translate(-1191.19 -292.25)"/><path class="cls-39" d="M1974.63,1990.4s-12,7.44-12.6,10.92c0,0-.48.19.63.1s-.14-.14,1.5-.2a8.89,8.89,0,0,1,1.92,0c.51.06-.21.22.8.05s7.65-3.2,8.43-7.81C1975.31,1993.46,1976.26,1992.35,1974.63,1990.4Z" transform="translate(-1191.19 -292.25)"/><path class="cls-39" d="M1976.65,2002s11.55,2.88,14.07,10.43l.29.69a9.37,9.37,0,0,1-7.7-1S1975.22,2009.44,1976.65,2002Z" transform="translate(-1191.19 -292.25)"/><path class="cls-39" d="M1974.63,2001.42s-12,7.44-12.6,10.92c0,0-.48.19.63.1s-.14-.14,1.5-.2a8.89,8.89,0,0,1,1.92,0c.51.06-.21.22.8.05s7.65-3.2,8.43-7.81C1975.31,2004.47,1976.26,2003.37,1974.63,2001.42Z" transform="translate(-1191.19 -292.25)"/><path class="cls-39" d="M1976.65,2013.57s11.55,2.88,14.07,10.43l.29.69a9.37,9.37,0,0,1-7.7-1S1975.22,2021,1976.65,2013.57Z" transform="translate(-1191.19 -292.25)"/><path class="cls-39" d="M1974.63,2013s-12,7.44-12.6,10.92c0,0-.48.19.63.1s-.14-.14,1.5-.2a8.89,8.89,0,0,1,1.92,0c.51.06-.21.22.8.05s7.65-3.2,8.43-7.81C1975.31,2016,1976.26,2014.93,1974.63,2013Z" transform="translate(-1191.19 -292.25)"/><path class="cls-39" d="M1975.64,2021.91s2,16.61.4,17.8c0,0,4.47,0,4.34-9.89C1980.38,2029.83,1980.07,2023.44,1975.64,2021.91Z" transform="translate(-1191.19 -292.25)"/></g><g class="cls-41"><path class="cls-42" d="M2667.94,2264.54V2726.4H1191.19V2263.55a50.17,50.17,0,0,0,30.55-20.58,51.57,51.57,0,0,0,7.81,8.86v0a50.27,50.27,0,0,0,19.46,10.93l.43.1a48.65,48.65,0,0,0,8.5,1.64l1,.1c1.44.13,2.86.2,4.3.2,1.08,0,2.17,0,3.22-.1a50.12,50.12,0,0,0,32.42-14.7l.1-.1a50.56,50.56,0,0,0,4.43-5.12c.43-.59.89-1.18,1.31-1.77.39.59.85,1.18,1.28,1.77.79,1,1.54,2,2.4,2.92a51.54,51.54,0,0,0,4.2,4.27,49.68,49.68,0,0,0,24.12,11.95c1,.2,2.07.36,3.08.49a51,51,0,0,0,6.37.39,50.15,50.15,0,0,0,26.38-7.45,51.46,51.46,0,0,0,15.06-14.34,51.46,51.46,0,0,0,3.68,4.69,50.25,50.25,0,0,0,64.16,9.65,51.5,51.5,0,0,0,9.25-7.35l.1-.1a50.56,50.56,0,0,0,4.43-5.12c.43-.59.89-1.18,1.31-1.77.39.59.85,1.18,1.28,1.77a50.56,50.56,0,0,0,4.43,5.12l.1.1a50.63,50.63,0,0,0,20.22,12.4,51.3,51.3,0,0,0,6,1.51,49,49,0,0,0,6.24.79c1.05.07,2.13.1,3.22.1a49.93,49.93,0,0,0,23.76-6,50.61,50.61,0,0,0,17.69-15.82,50.3,50.3,0,0,0,82.89,0,50.36,50.36,0,0,0,35.11,21.4,51,51,0,0,0,6.37.39,50.28,50.28,0,0,0,41.45-21.79,50.28,50.28,0,0,0,41.45,21.79c1.08,0,2.13,0,3.22-.1a50.12,50.12,0,0,0,32.42-14.7l.1-.1a55.06,55.06,0,0,0,4.43-5.12c.43-.59.89-1.18,1.28-1.77.43.59.85,1.18,1.31,1.77a50.56,50.56,0,0,0,4.43,5.12l.1.1a51.5,51.5,0,0,0,9.25,7.35,50.39,50.39,0,0,0,52.74,0A51.17,51.17,0,0,0,1885,2243a51.06,51.06,0,0,0,15.06,14.34,50.67,50.67,0,0,0,38.85,5.91,50.8,50.8,0,0,0,13.91-5.91,52.68,52.68,0,0,0,9.25-7.35l.1-.1a55.06,55.06,0,0,0,4.43-5.12l1.28-1.77c.43.59.85,1.18,1.31,1.77a46.73,46.73,0,0,0,4.43,5.12l.1.1a50,50,0,0,0,32.42,14.7c1.05.07,2.13.1,3.18.1a49.9,49.9,0,0,0,15.42-2.4,56.41,56.41,0,0,0,5.68-2.2c.89-.43,1.8-.89,2.69-1.38a50.9,50.9,0,0,0,17.69-15.82,50.88,50.88,0,0,0,20.38,17.2,50.46,50.46,0,0,0,47.45-2.86,51,51,0,0,0,15.06-14.34,51.11,51.11,0,0,0,20.38,17.2,50.2,50.2,0,0,0,21.07,4.59,51,51,0,0,0,6.37-.39,50.2,50.2,0,0,0,20-7.06,51.57,51.57,0,0,0,15.1-14.34,50.19,50.19,0,0,0,41.45,21.79c1.05,0,2.13,0,3.18-.1a48.31,48.31,0,0,0,6.24-.79,51.3,51.3,0,0,0,6-1.51,56.41,56.41,0,0,0,5.68-2.2c.92-.43,1.8-.89,2.69-1.38a49.77,49.77,0,0,0,11.85-8.83l.13-.1a50.24,50.24,0,0,0,4.4-5.12c.46-.59.89-1.18,1.31-1.77.43.59.85,1.18,1.31,1.77a50.24,50.24,0,0,0,4.4,5.12.45.45,0,0,0,.13.1,50.36,50.36,0,0,0,56.67,10.21,51.57,51.57,0,0,0,5.32-2.86,51,51,0,0,0,11.39-9.65,46.28,46.28,0,0,0,3.68-4.69,50.9,50.9,0,0,0,17.69,15.82,50.52,50.52,0,0,0,30.13,5.58c1.05-.13,2.07-.3,3.08-.49a51.3,51.3,0,0,0,6-1.51,50.76,50.76,0,0,0,18.15-10.44,51.93,51.93,0,0,0,4.23-4.27c.82-.92,1.61-1.94,2.36-2.92.46-.59.89-1.18,1.31-1.77l1.28,1.77a55.06,55.06,0,0,0,4.43,5.12l.1.1a50.2,50.2,0,0,0,32.46,14.7c1.05.07,2.1.1,3.18.1,1.44,0,2.89-.07,4.3-.2l1-.1a48.28,48.28,0,0,0,8.47-1.64l.46-.1a50.38,50.38,0,0,0,19.43-10.93v0a48.93,48.93,0,0,0,7.81-8.86,50.35,50.35,0,0,0,82.93,0A50.18,50.18,0,0,0,2667.94,2264.54Z" transform="translate(-1191.19 -292.25)"/><path class="cls-43" d="M2133.1,2243s-4.73,33.1-42.83,43.77c0,0-34.07,11.44,1.37-22A49,49,0,0,0,2133.1,2243Z" transform="translate(-1191.19 -292.25)"/><path class="cls-44" d="M2215.56,2243.16s-4.73,33.1-42.83,43.77c0,0-34.07,11.44,1.37-22A49,49,0,0,0,2215.56,2243.16Z" transform="translate(-1191.19 -292.25)"/><path class="cls-45" d="M2298.62,2243s-4.73,33.1-42.83,43.77c0,0-34.07,11.44,1.37-22A49,49,0,0,0,2298.62,2243Z" transform="translate(-1191.19 -292.25)"/><path class="cls-46" d="M2050,2243s-4.73,33.1-42.83,43.77c0,0-34.07,11.44,1.37-22A49,49,0,0,0,2050,2243Z" transform="translate(-1191.19 -292.25)"/><path class="cls-47" d="M1966.86,2243s-4.73,33.1-42.83,43.77c0,0-34.07,11.44,1.37-22A49,49,0,0,0,1966.86,2243Z" transform="translate(-1191.19 -292.25)"/><path class="cls-48" d="M2547.48,2243s-4.73,33.1-42.83,43.77c0,0-34.07,11.44,1.37-22A49,49,0,0,0,2547.48,2243Z" transform="translate(-1191.19 -292.25)"/><path class="cls-49" d="M2465.19,2243s-4.73,33.1-42.83,43.77c0,0-34.07,11.44,1.37-22A49,49,0,0,0,2465.19,2243Z" transform="translate(-1191.19 -292.25)"/><path class="cls-50" d="M2381.71,2243.15s-4.73,33.1-42.83,43.77c0,0-34.07,11.44,1.37-22A49,49,0,0,0,2381.71,2243.15Z" transform="translate(-1191.19 -292.25)"/><g class="cls-51"><path class="cls-52" d="M2634.7,2270.78a50.26,50.26,0,0,1-41.45-21.81,50.3,50.3,0,0,1-82.91,0,50.3,50.3,0,0,1-82.91,0,50.3,50.3,0,0,1-82.91,0,50.3,50.3,0,0,1-82.91,0,50.3,50.3,0,0,1-82.91,0,50.3,50.3,0,0,1-82.91,0,50.3,50.3,0,0,1-82.91,0,50.3,50.3,0,0,1-82.91,0,50.3,50.3,0,0,1-82.91,0,50.3,50.3,0,0,1-82.91,0,50.3,50.3,0,0,1-82.91,0,50.3,50.3,0,0,1-82.91,0,50.3,50.3,0,0,1-82.91,0,50.3,50.3,0,0,1-82.91,0,50.3,50.3,0,0,1-82.91,0,50.3,50.3,0,0,1-82.91,0,50.22,50.22,0,0,1-75.1,8.84v469.05H2668.34V2257.8A50.09,50.09,0,0,1,2634.7,2270.78Z" transform="translate(-1191.19 -292.25)"/><path class="cls-53" d="M2178.2,2249s4.73,33.1,42.83,43.77c0,0,34.07,11.44-1.37-22A49,49,0,0,1,2178.2,2249Z" transform="translate(-1191.19 -292.25)"/><path class="cls-53" d="M2260.83,2249s4.73,33.1,42.83,43.77c0,0,34.07,11.44-1.37-22A49,49,0,0,1,2260.83,2249Z" transform="translate(-1191.19 -292.25)"/><path class="cls-53" d="M2095.16,2249s4.73,33.1,42.83,43.77c0,0,34.07,11.44-1.37-22A49,49,0,0,1,2095.16,2249Z" transform="translate(-1191.19 -292.25)"/><path class="cls-53" d="M2012.12,2249s4.73,33.1,42.83,43.77c0,0,34.07,11.44-1.37-22A49,49,0,0,1,2012.12,2249Z" transform="translate(-1191.19 -292.25)"/><path class="cls-53" d="M1929.29,2249s4.73,33.1,42.83,43.77c0,0,34.07,11.44-1.37-22A49,49,0,0,1,1929.29,2249Z" transform="translate(-1191.19 -292.25)"/><path class="cls-53" d="M2509.91,2249s4.73,33.1,42.83,43.77c0,0,34.07,11.44-1.37-22A49,49,0,0,1,2509.91,2249Z" transform="translate(-1191.19 -292.25)"/><path class="cls-53" d="M2427.08,2249s4.73,33.1,42.83,43.77c0,0,34.07,11.44-1.37-22A49,49,0,0,1,2427.08,2249Z" transform="translate(-1191.19 -292.25)"/><path class="cls-53" d="M2344,2249s4.73,33.1,42.83,43.77c0,0,34.07,11.44-1.37-22A49,49,0,0,1,2344,2249Z" transform="translate(-1191.19 -292.25)"/></g></g></g></g></g></svg>