<svg xmlns="http://www.w3.org/2000/svg" xmlns:xlink="http://www.w3.org/1999/xlink" viewBox="0 0 50.78 24.79">
    <defs>
        <style>
            .cls-1{isolation:isolate;}.cls-2{fill:#fff;}.cls-3{fill:#e75459;}.cls-4{fill:#9cd2c8;}.cls-5{fill:#ebeff4;}.cls-6{fill:#d01b1d;}.cls-7{fill:#66bfb4;}.cls-8{fill:#7e7a77;}.cls-9{opacity:0.62;mix-blend-mode:multiply;}.cls-10{fill:url(#linear-gradient);}
        </style>
        <linearGradient id="linear-gradient" x1="25.44" y1="-3833.01" x2="25.44" y2="518.14"
                        gradientUnits="userSpaceOnUse">
            <stop offset="0" stop-color="#3e64ad"/>
            <stop offset="0.24" stop-color="#3d62a9"/>
            <stop offset="0.45" stop-color="#395b9e"/>
            <stop offset="0.67" stop-color="#32518b"/>
            <stop offset="0.87" stop-color="#294271"/>
            <stop offset="1" stop-color="#22365d"/>
        </linearGradient>
    </defs>
    <title>fish</title>
    <g class="cls-1" transform="translate(0 3)">
        <g id="Слой_2" data-name="Слой 2">
            <animateTransform id="wingdown"
                              attributeName="transform"
                              type="rotate"
                              values="5 12 10; -5 12 10;5   12 10"
                              dur="1s"
                              fill="freeze"
                              repeatCount="indefinite" />
            <g id="Layer_1" data-name="Layer 1">
                <path class="cls-2" d="M35,.32A13.28,13.28,0,0,1,39.14.05,9.84,9.84,0,0,1,49,9.9H35Z"/>
               <g class="tail">
                   <path class="cls-3"
                         d="M4.72,9.9h0A8.67,8.67,0,0,1,0,4.41,17.39,17.39,0,0,1,8.79,6.72a8.84,8.84,0,0,0,3.3.77V9.9Z"/>
                   <path class="cls-6"
                         d="M12.08,12.3a8.84,8.84,0,0,0-3.3.77A17.39,17.39,0,0,1,0,15.38,8.67,8.67,0,0,1,4.72,9.9h7.36Z"/>
               </g>
                <path class="cls-4" d="M12.08,9.9V7.49a7.84,7.84,0,0,0,3.76-.77C25.51,2.52,31.55.91,35,.32V9.9Z"/>
                <path class="cls-5" d="M39.14,19.74A13.28,13.28,0,0,1,35,19.47V9.9H49A9.84,9.84,0,0,1,39.14,19.74Z"/>

                <path class="cls-3" d="M36.54,0h-14s-2.58.72-3,3c0,0,2,.08,2.68,1.08Z"/>
                <path class="cls-3" d="M47.53,7.65V9.9h2.31s1.9-1.93,0-3.17A1.38,1.38,0,0,0,47.53,7.65Z"/>
                <path class="cls-6" d="M47.53,12.15V9.9h2.31s1.9,1.93,0,3.17A1.38,1.38,0,0,1,47.53,12.15Z"/>
                <polygon class="cls-3" points="37.81 9.89 27.41 7.65 27.41 12.16 37.81 9.89"/>
                <circle class="cls-8" cx="43.42" cy="5.62" r="0.78"/>
                <path class="cls-6" d="M26.33,17.13a5.42,5.42,0,0,1-3,2.16H34.07Z"/>
                <g class="cls-9">
                    <path class="cls-7" d="M35,9.9v9.57c-3.5-.59-9.53-2.19-19.2-6.4a7.84,7.84,0,0,0-3.76-.77V9.9Z"/>
                    <path class="cls-10"
                          d="M23.45,19.29H34.17l1,.18a13.28,13.28,0,0,0,4.09.27,9.84,9.84,0,0,0,9.21-6.38,1.51,1.51,0,0,0,1.5-.28c1.9-1.24,0-3.17,0-3.17h0s1.9-1.93,0-3.17a1.51,1.51,0,0,0-1.5-.28A9.84,9.84,0,0,0,39.23.05a11.8,11.8,0,0,0-3.3.15l.71-.2h-14s-2.58.72-3,3c0,0,2,.08,2.68,1.08h0c-1.93.74-4.06,1.6-6.41,2.62a7.84,7.84,0,0,1-3.76.77,8.83,8.83,0,0,1-3.3-.77A17.38,17.38,0,0,0,.1,4.41,8.67,8.67,0,0,0,4.84,9.9h0A8.67,8.67,0,0,0,.1,15.38a17.39,17.39,0,0,0,8.79-2.31,8.83,8.83,0,0,1,3.3-.77,7.84,7.84,0,0,1,3.76.77c4.12,1.79,7.58,3.11,10.47,4.08A5.36,5.36,0,0,1,23.45,19.29Z"/>
                </g>
            </g>
        </g>
    </g>
</svg>