<svg id="Layer_1" data-name="Layer 1" xmlns="http://www.w3.org/2000/svg" xmlns:xlink="http://www.w3.org/1999/xlink"
     viewBox="0 0 771 365">
    <defs>
        <style>
            .cls-1,.cls-10,.cls-11{fill:none;}.cls-2{fill:#fbb715;}.cls-3{fill:#e59f24;opacity:0.57;}.cls-4{fill:#04834a;}.cls-5{fill:#296934;}.cls-6{opacity:0.3;}.cls-12,.cls-13,.cls-7,.cls-8,.cls-9{fill:#fff;}.cls-12,.cls-8{font-size:14.42px;}.cls-12,.cls-13,.cls-8,.cls-9{font-family:ArialMT,
            Arial;}.cls-8{letter-spacing:0.05em;}.cls-13,.cls-9{font-size:8.08px;}.cls-9{letter-spacing:0.05em;}.cls-10,.cls-11{stroke:#e0865d;stroke-miterlimit:10;}.cls-11{stroke-dasharray:1.98
            1.98;}.cls-12{letter-spacing:0.05em;}.cls-13{letter-spacing:0.05em;}.cls-14{fill:#c0151b;}.cls-15{fill:#ed1c24;}.cls-16{fill:#231f20;}.cls-17{fill:#2e3192;}.cls-18{fill:#39b54a;}.cls-19{fill:#262262;}.cls-20{fill:#009444;}.cls-21{fill:#e6e6e6;}.cls-22{fill:#414042;}.cls-23{fill:#bcbec0;}.cls-24{clip-path:url(#clip-path);}
        </style>
        <clipPath id="clip-path">
            <rect class="cls-1" x="-1832.48" y="-719.02" width="1202.36" height="2716.72"/>
        </clipPath>
    </defs>
    <title>icn_birds_wingup</title>
    <path class="cls-2"
          d="M632.78,362.66c-37.16-5-76.11-22.5-112-33.33L390.87,290.18q-149.34-45-298.7-90c-6.67-2.06,20.37-80.07,23.55-90.61l20-66.34c2.35-7.8,6.1-35.42,12.26-40.71,7.64-6.56,47.46,11.73,57.52,14.76,155.84,47,311.06,99.64,468.84,139.7,5.2,1.32,15.77,2.65,18.17,8.64,3.29,8.19-4.91,23.85-7.78,31.44-5.4,14.24-10.13,28.29-14.54,42.91C658.15,279.9,649.69,324.78,632.78,362.66Z"/>
    <polygon class="cls-3" points="693.03 164.24 88.73 199.1 633.06 363.19 693.03 164.24"/>
    <g id="UTckQz">
        <path class="cls-4"
              d="M469.74,155.48c-1.1-.27-1.24-.92-.88-1.91.44-1.21.76-2.45,1.13-3.68l-.49-.23c-.67,1.18-1.28,2.39-2,3.51a5.58,5.58,0,0,1-1.43,1.08,5.9,5.9,0,0,1-.45-1.58c0-1.45.13-2.89.21-4.34l-.42-.08c-.44,1.45-.84,2.9-1.33,4.33-.11.32-.54.54-.82.8-.11-.37-.4-.79-.32-1.1.57-2.08,1.22-4.14,1.83-6.18,1.65-.14,2.2.49,2,2s-.16,2.77-.23,4.16l.43.14a29.91,29.91,0,0,0,1.59-2.85c.7-1.64,1.69-2.45,3.49-1.61Z"/>
        <path class="cls-4"
              d="M278.82,116.19a31.85,31.85,0,0,0-3,1.54,6.75,6.75,0,0,1-10.37-4.94c-.08-.62-.22-1.22-.38-2.13-.74.44-1.35.79-1.94,1.17a10.34,10.34,0,0,1-8,1.55c-2.7-.57-4.07-2.12-4.26-5.07a16.75,16.75,0,0,1-1.65.67,31.9,31.9,0,0,1-5.28,1.36c-4.57.45-7.55-2.42-7.5-7,0-4.27,1.77-8,3.89-11.57,3.24-5.47,7.55-9.79,13.8-11.71a17.07,17.07,0,0,1,11-.16,11.87,11.87,0,0,1,2.48,1.47c.84.56,1.6,1.25,2.46,1.78a2.2,2.2,0,0,1,.8,3.48c-3,4.48-6.24,8.86-9.34,13.29-1.18,1.69-2.29,3.43-3.43,5.15l.43.5a10.93,10.93,0,0,0,2.14-.64c2.22-1.19,4.39-2.46,6.57-3.72a1.86,1.86,0,0,0,.6-.58c2.2-3.39,4.39-6.8,6.49-10a10.61,10.61,0,0,1-1.53-2.47,3.42,3.42,0,0,1,4.12-4.24,2.3,2.3,0,0,0,2.83-1.11c1.29-1.81,2.69-3.55,4.09-5.28a5.22,5.22,0,0,1,7.11-.88,2.24,2.24,0,0,1,.49,3.09c-.63,1.22-1.27,2.43-2,3.58s-1.51,2.12-2,2.8c.88,1.29,2.07,2.29,2.24,3.44.42,2.86-1.76,4.56-4.52,3.73-1-.29-1.59-.24-2.17.63-3,4.46-6,8.87-9,13.35a7.36,7.36,0,0,0-.58,2.32l.49.32c.64-.4,1.28-.82,1.93-1.21,1.93-1.17,3.89-2.31,5.79-3.53a4.32,4.32,0,0,0,1.08-1.26c3.7-5.46,8.25-9.94,14.47-12.46A8.08,8.08,0,0,1,303,91c3.37,1.21,4.56,5.24,2.76,8.79-2.78,5.47-7.65,8.14-13.14,10a4.86,4.86,0,0,1-1.31.38c-3.43.14-4.53,2.68-5.63,5.3-.52,1.24-.09,2.09,1.08,2.06,1.66,0,3.62,0,4.9-.9a79.5,79.5,0,0,0,10.78-8.14c4.15-3.89,7.84-8.28,11.72-12.47.82-.88,1.76-1.33,2.64-.33,2.44,2.78,5.84,3.69,9.07,5,1.9.74,2.37,1.44,1.64,3.38a11.6,11.6,0,0,1-1.71,2.94c-3.87,5-7.79,10-11.68,15a19.45,19.45,0,0,0-1.26,2.12l.33.42a20.37,20.37,0,0,0,2.88-1.17c3.06-1.8,6.06-3.69,9.09-5.55a11.49,11.49,0,0,1,1.75-1.07,9.07,9.07,0,0,1,1.91-.32,8.3,8.3,0,0,1,0,2.05c-2,7.44-8.55,10-14.64,12.51-4.75,1.95-7.51-2.65-7.46-6.91a15.86,15.86,0,0,1,3.83-9.54c2.07-2.65,4.32-5.16,6.44-7.78.54-.67,1.78-1.33.66-2.41s-1.83-.23-2.7.59c-5.35,5-9.72,11.16-16.12,15a47.35,47.35,0,0,1-7.86,3.75,10,10,0,0,1-7.69-.5,6.42,6.42,0,0,1-3.56-4C279.32,118.36,279.13,117.4,278.82,116.19ZM262.25,86.52C256.8,85.88,243.37,97.8,244,103c1.42-.68,2.92-1.07,4-2,3.51-3.08,6.91-6.29,10.22-9.57A60,60,0,0,0,262.25,86.52Zm29.39,15.86c2.67-.44,5.25-1.07,7.33-2.87.39-.34.46-1.06.67-1.6a4.85,4.85,0,0,0-1.59-.14C295.36,98.47,293.42,100.28,291.64,102.38Z"/>
        <path class="cls-4"
              d="M432.26,163.38c-2.64.85-5.12,2.59-7.8,1.27a7.12,7.12,0,0,1-3.9-6.48c-1.54.76-3,1.49-4.47,2.18-1.76.82-3.5,1.72-5.33,2.37-2.3.81-3.35-.1-2.61-2.37a9.42,9.42,0,0,1,2.43-4c4-3.55,8.14-6.85,12.17-10.31a17,17,0,0,0,2-2.51l-.53-.57a22.38,22.38,0,0,0-2.56,1.69c-3.54,3.07-6.93,6.32-10.59,9.24a17.79,17.79,0,0,1-6.36,3.52c-3.55.9-7.73.53-8.72-4.86-1.35.47-2.66,1-4,1.38a14.62,14.62,0,0,1-3.54.56c-3.85,0-6.36-2.43-6.64-6.35-.33-4.64,1.62-8.6,3.88-12.38,3.78-6.34,8.91-11,16.48-12.3a15,15,0,0,1,8.43.62,13.07,13.07,0,0,1,2.31,1.4c.79.54,1.49,1.22,2.31,1.72,1.55,1,1.94,2.06.92,3.54-3,4.36-6.12,8.66-9.16,13-1.25,1.78-2.44,3.59-3.66,5.39l.52.59c1-.39,2.08-.72,3.06-1.19,4.89-2.32,8.77-6,12.58-9.69q3.55-3.48,7.24-6.82a4.86,4.86,0,0,1,6-.15,2.18,2.18,0,0,1,.39,1.76,33.91,33.91,0,0,1-1,3.53l.49.45c1.17-.7,2.29-1.47,3.51-2.06a14.71,14.71,0,0,1,4.07-1.55c1.93-.28,3,1.17,2.43,3.05a4.93,4.93,0,0,1-1.32,2.14c-3.24,2.9-6.45,5.84-9.86,8.51-2.8,2.19-3.33,5.36-4.22,8.39-.34,1.17.56,1.6,1.56,1.07a34.69,34.69,0,0,0,4.23-2.6c3.79-2.78,6.44-6.61,9.3-10.23,1.06-1.34,2.16-2.67,3.32-3.92a8.35,8.35,0,0,1,2.14-1.67,3.36,3.36,0,0,1,4.12.59,3,3,0,0,1,.4,4c-1.86,2.73-3.95,5.29-5.95,7.92-2.32,3-4.67,6.05-6.93,9.13a11.12,11.12,0,0,0-1,2.41l.41.43c1.33-.67,2.72-1.25,4-2,2.83-1.73,5.57-3.62,8.42-5.32a10.62,10.62,0,0,1,2.84-.75,14.85,14.85,0,0,1-.1,3.06c-.93,3.9-4.25,5.7-7.23,7.62a34.25,34.25,0,0,1-7.67,3.74c-4.25,1.41-6.74-.68-6.71-5.19C432.32,164.07,432.29,163.8,432.26,163.38Zm-24.63-32.82c-5.65-.35-18.49,11.06-18.26,16.11,2.11.06,3.65-1.18,5.15-2.37A73,73,0,0,0,407.63,130.56Z"/>
        <path class="cls-4"
              d="M219.36,95.73a20.09,20.09,0,0,0,1.7-1.38c6.59-6.59,13.25-13.11,19.7-19.82,4.4-4.57,7-10.26,8.95-16.23.39-1.21,0-2.68,0-4,0-.74,0-1.86.46-2.11a3,3,0,0,1,2.38,0A6.33,6.33,0,0,1,256.35,58a22.79,22.79,0,0,1-3.1,12.15c-7,13.27-17.14,23.91-29.15,32.77-2.75,2-6.08,3.24-9.32,1.27s-4-5.68-3.45-9.26A102.09,102.09,0,0,1,214,84.83a3.34,3.34,0,0,0,.15-1.76l-1.34,1.16L198.94,96.32a12.17,12.17,0,0,1-1.48,1.16c-2.22,1.4-4.78.54-5.16-2a16.54,16.54,0,0,1,.31-6.25c1.56-6.34,4.7-12,8.2-17.44,2.1-3.26,4.15-6.55,6.23-9.83.46-.72.74-1.28-.15-2a2.31,2.31,0,0,1-.15-3.51c3.25-3.87,6.72-7.51,11.22-10,2.32-1.26,4.09-1.17,5.55.18a5,5,0,0,1,.8,5.87,43.68,43.68,0,0,1-3,4.54q-6.39,9.12-12.79,18.22c-.22.31-.37.67-.8,1.47.78-.55,1.14-.78,1.47-1,5.66-4.65,11.29-9.34,17-13.93A25.16,25.16,0,0,1,230.69,59c1.79-.9,3.08-.32,3.83,1.55a5.75,5.75,0,0,1-.54,5.42c-3,4.72-5.95,9.47-9.1,14.09a40.14,40.14,0,0,0-6,14.1,7.08,7.08,0,0,0,0,1.4Z"/>
        <path class="cls-4"
              d="M386.65,112.46c-4.61-.86-9.16-1.56-13.65-2.58-5.54-1.26-10.94-3-15.46-6.65-2.91-2.34-4.61-5.37-4.35-9.21a6.59,6.59,0,0,1,5.66-6,6.12,6.12,0,0,1,3.22.67c1.55.77,1.6,1.63.51,3-1.55,2-1.58,3.81.51,5.15a35.85,35.85,0,0,0,8.51,4.26,75.77,75.77,0,0,0,13.71,3c3.1.35,6.34-.43,9.51-.84.65-.08,1.2-.81,1.84-1.17a27.84,27.84,0,0,1,4.47-2.44,3.83,3.83,0,0,1,4.82,2.22,3.4,3.4,0,0,1-1.16,4.8,20.36,20.36,0,0,1-4.9,2.75,10,10,0,0,0-5.34,4.56c-4.11,6.91-8.07,13.92-12.39,20.7-3.35,5.27-7.29,10.19-12.9,13.26a34.54,34.54,0,0,1-8.45,3.22c-5.12,1.23-10.43-1.94-12.53-7.29-2.17-5.53-1.36-11,.8-16.36a3.11,3.11,0,0,1,2.36-1.67,15.62,15.62,0,0,1,5.43,1.59c1.21.63.93,2.12-.35,2.79-2.5,1.32-3.48,3.57-3.75,6.16s2.54,5,5.76,5.19c3.9.18,7.07-1.47,9.89-4,6.44-5.83,11.09-13,15.32-20.47C384.66,115.47,385.72,113.94,386.65,112.46Z"/>
        <path class="cls-4"
              d="M457.7,125.31a4.21,4.21,0,0,1,2.91,5.51,4.26,4.26,0,0,1-5.53,2.93,4.32,4.32,0,0,1-3-5.66A4.25,4.25,0,0,1,457.7,125.31Z"/>
        <path class="cls-4"
              d="M461.17,146.06c-.83,2.07-1.59,4-2.39,5.9a5,5,0,0,1-.89-.17l1.8-6c-.35-.26-.5-.35-.63-.45l-1.36-1.12a9.72,9.72,0,0,1,1.86.06,18.77,18.77,0,0,1,2.95.9c.37.15.61.61.91.92a8.15,8.15,0,0,1-1.2.16A5.71,5.71,0,0,1,461.17,146.06Z"/>
    </g>
    <g id="UTckQz-2" data-name="UTckQz">
        <path class="cls-5"
              d="M599.15,300.27c.1-.4.33-.44.69-.32s.88.27,1.32.41l.08-.18c-.42-.24-.86-.46-1.26-.73a2,2,0,0,1-.39-.51,2.12,2.12,0,0,1,.57-.16c.52,0,1,0,1.56.08l0-.15c-.52-.16-1-.3-1.56-.48-.12,0-.19-.19-.29-.29.13,0,.28-.14.4-.11.75.2,1.49.44,2.22.66,0,.59-.18.79-.71.72s-1-.06-1.49-.08l-.05.16a10.75,10.75,0,0,0,1,.57c.59.25.88.61.58,1.25Z"/>
        <path class="cls-5"
              d="M613.27,231.65a11.45,11.45,0,0,0-.55-1.09,2.43,2.43,0,0,1,1.78-3.73c.22,0,.44-.08.77-.14-.16-.27-.28-.49-.42-.7a3.71,3.71,0,0,1-.56-2.88,1.75,1.75,0,0,1,1.82-1.53,6,6,0,0,1-.24-.59,11.46,11.46,0,0,1-.49-1.9,2.31,2.31,0,0,1,2.52-2.7,8.31,8.31,0,0,1,4.16,1.4,8.76,8.76,0,0,1,4.21,5,6.13,6.13,0,0,1,.06,3.94,4.27,4.27,0,0,1-.53.89c-.2.3-.45.57-.64.88a.79.79,0,0,1-1.25.29c-1.61-1.1-3.18-2.24-4.78-3.36-.61-.43-1.23-.82-1.85-1.23l-.18.16a3.93,3.93,0,0,0,.23.77c.43.8.88,1.58,1.34,2.36a.67.67,0,0,0,.21.22l3.61,2.33a3.81,3.81,0,0,1,.89-.55,1.23,1.23,0,0,1,1.52,1.48.83.83,0,0,0,.4,1c.65.46,1.27,1,1.9,1.47a1.88,1.88,0,0,1,.32,2.56.8.8,0,0,1-1.11.18c-.44-.23-.87-.46-1.29-.72s-.76-.54-1-.72c-.46.32-.82.74-1.24.81a1.17,1.17,0,0,1-1.34-1.62c.1-.35.09-.57-.23-.78-1.6-1.07-3.19-2.16-4.8-3.22a2.65,2.65,0,0,0-.83-.21l-.11.18.44.69c.42.69.83,1.4,1.27,2.08a1.55,1.55,0,0,0,.45.39,11.54,11.54,0,0,1,4.48,5.2,2.9,2.9,0,0,1,.14,2.11,2.18,2.18,0,0,1-3.16,1,7.61,7.61,0,0,1-3.61-4.72,1.75,1.75,0,0,1-.14-.47c0-1.23-1-1.63-1.9-2-.44-.19-.75,0-.74.39a3.53,3.53,0,0,0,.32,1.76,28.57,28.57,0,0,0,2.93,3.87c1.4,1.49,3,2.82,4.48,4.21.32.29.48.63.12.95a7.58,7.58,0,0,0-1.78,3.26c-.27.68-.52.85-1.21.59a4.17,4.17,0,0,1-1.06-.61c-1.8-1.39-3.59-2.8-5.39-4.2a7,7,0,0,0-.76-.45l-.15.12a7.32,7.32,0,0,0,.42,1c.65,1.1,1.33,2.18,2,3.27a4.13,4.13,0,0,1,.39.63,3.26,3.26,0,0,1,.11.69,3,3,0,0,1-.74,0c-2.67-.74-3.6-3.07-4.5-5.26-.7-1.71,1-2.7,2.48-2.68a5.7,5.7,0,0,1,3.43,1.38c1,.74,1.86,1.55,2.8,2.31.24.19.48.64.86.24s.08-.66-.21-1c-1.81-1.92-4-3.49-5.41-5.79a17,17,0,0,1-1.35-2.82,3.61,3.61,0,0,1,.18-2.76,2.31,2.31,0,0,1,1.42-1.28C612.5,231.83,612.84,231.76,613.27,231.65Zm10.67-6c.23-2-4.05-6.79-5.91-6.55a6.32,6.32,0,0,0,.71,1.42c1.11,1.26,2.26,2.48,3.44,3.67A21.55,21.55,0,0,0,623.94,225.69Zm-5.7,10.56a5.13,5.13,0,0,0,1,2.63c.12.14.38.16.58.24a1.74,1.74,0,0,0,0-.57A4.58,4.58,0,0,0,618.24,236.26Z"/>
        <path class="cls-5"
              d="M596.31,286.8c-.31-.95-.93-1.84-.46-2.8a2.56,2.56,0,0,1,2.33-1.4c-.27-.55-.54-1.08-.78-1.61s-.62-1.26-.85-1.91c-.29-.83,0-1.2.85-.94a3.39,3.39,0,0,1,1.44.87c1.27,1.42,2.46,2.92,3.71,4.38a6.12,6.12,0,0,0,.9.73l.2-.19A8,8,0,0,0,603,283c-1.1-1.27-2.27-2.49-3.32-3.8a6.39,6.39,0,0,1-1.27-2.29c-.32-1.28-.19-2.78,1.75-3.13-.17-.48-.37-1-.5-1.45a5.25,5.25,0,0,1-.2-1.27,2.25,2.25,0,0,1,2.28-2.38,7.58,7.58,0,0,1,4.45,1.39,8.45,8.45,0,0,1,4.42,5.92,5.41,5.41,0,0,1-.22,3,4.7,4.7,0,0,1-.5.83c-.2.28-.44.54-.62.83-.34.56-.74.7-1.27.33-1.57-1.08-3.11-2.2-4.67-3.29-.64-.45-1.29-.88-1.94-1.32l-.21.19c.14.37.26.75.43,1.1a17,17,0,0,0,3.48,4.52q1.25,1.28,2.45,2.6a1.75,1.75,0,0,1,.05,2.15.78.78,0,0,1-.63.14,12.19,12.19,0,0,1-1.27-.37l-.16.18c.25.42.53.82.74,1.26a5.29,5.29,0,0,1,.56,1.46c.1.69-.42,1.08-1.1.87A1.77,1.77,0,0,1,605,290c-1-1.16-2.1-2.32-3.06-3.55a5.22,5.22,0,0,0-3-1.52c-.42-.12-.58.2-.38.56a12.47,12.47,0,0,0,.94,1.52,18.33,18.33,0,0,0,3.68,3.34c.48.38,1,.78,1.41,1.19a3,3,0,0,1,.6.77,1.21,1.21,0,0,1-.21,1.48,1.07,1.07,0,0,1-1.42.14c-1-.67-1.9-1.42-2.85-2.14s-2.18-1.68-3.28-2.49a4,4,0,0,0-.86-.37l-.15.15c.24.48.45,1,.73,1.44.62,1,1.3,2,1.91,3a3.82,3.82,0,0,1,.27,1,5.34,5.34,0,0,1-1.1,0c-1.4-.33-2-1.53-2.74-2.6a12.31,12.31,0,0,1-1.34-2.76c-.51-1.53.24-2.42,1.87-2.41Zm11.8-8.85c.12-2-4-6.65-5.79-6.56a2.86,2.86,0,0,0,.85,1.85A26.24,26.24,0,0,0,608.11,277.94Z"/>
        <path class="cls-5"
              d="M620.63,210.28a7.22,7.22,0,0,0,.49.61c2.37,2.37,4.71,4.76,7.12,7.08a14.76,14.76,0,0,0,5.83,3.22,5.67,5.67,0,0,0,1.45,0c.27,0,.67,0,.76.17a1.06,1.06,0,0,1,0,.86,2.28,2.28,0,0,1-2.1,1.36,8.19,8.19,0,0,1-4.37-1.11A35.17,35.17,0,0,1,618,212a2.9,2.9,0,0,1-.46-3.35,3,3,0,0,1,3.33-1.24,36.69,36.69,0,0,1,3.64.94,1.2,1.2,0,0,0,.63.05l-.42-.48-4.34-5a4.37,4.37,0,0,1-.42-.53,1.14,1.14,0,0,1,.73-1.85,5.94,5.94,0,0,1,2.25.11,21,21,0,0,1,6.27,2.95c1.17.75,2.36,1.49,3.53,2.24.26.16.46.27.73-.05a.83.83,0,0,1,1.26-.05,14.35,14.35,0,0,1,3.58,4,1.56,1.56,0,0,1-.07,2,1.78,1.78,0,0,1-2.11.29,15.7,15.7,0,0,1-1.63-1.09l-6.55-4.6c-.11-.08-.24-.13-.53-.29.2.28.28.41.38.53,1.67,2,3.36,4.06,5,6.11a9,9,0,0,1,1,1.63.89.89,0,0,1-.56,1.38,2.07,2.07,0,0,1-1.95-.2c-1.7-1.08-3.4-2.14-5.06-3.27a14.43,14.43,0,0,0-5.07-2.15,2.55,2.55,0,0,0-.5,0Z"/>
        <path class="cls-5"
              d="M614.61,270.4c.31-1.66.56-3.29.93-4.9a13.23,13.23,0,0,1,2.39-5.56,3.78,3.78,0,0,1,3.31-1.56,2.37,2.37,0,0,1,2.16,2,2.2,2.2,0,0,1-.24,1.16c-.28.56-.59.58-1.08.18-.71-.56-1.37-.57-1.85.18a12.88,12.88,0,0,0-1.53,3.06,27.23,27.23,0,0,0-1.08,4.93,14.54,14.54,0,0,0,.3,3.42c0,.23.29.43.42.66a10,10,0,0,1,.88,1.61,1.38,1.38,0,0,1-.8,1.73,1.22,1.22,0,0,1-1.73-.42,7.32,7.32,0,0,1-1-1.76,3.59,3.59,0,0,0-1.64-1.92c-2.48-1.48-5-2.9-7.44-4.45a13.25,13.25,0,0,1-4.77-4.63,12.41,12.41,0,0,1-1.16-3,4,4,0,0,1,2.62-4.5,7.71,7.71,0,0,1,5.88.29,1.12,1.12,0,0,1,.6.85,5.62,5.62,0,0,1-.57,1.95c-.23.44-.76.34-1-.13a2.6,2.6,0,0,0-2.22-1.35c-.92-.1-1.81.91-1.86,2.07a4.85,4.85,0,0,0,1.45,3.55,28.63,28.63,0,0,0,7.36,5.51C613.53,269.69,614.08,270.07,614.61,270.4Z"/>
        <path class="cls-5"
              d="M610,295.94a1.51,1.51,0,0,1-2,1,1.53,1.53,0,0,1-1.05-2,1.55,1.55,0,0,1,2-1.07A1.53,1.53,0,0,1,610,295.94Z"/>
        <path class="cls-5"
              d="M602.54,297.19l-2.12-.86a1.79,1.79,0,0,1,.06-.32l2.15.65.16-.23.4-.49a3.49,3.49,0,0,1,0,.67,6.75,6.75,0,0,1-.32,1.06c-.05.13-.22.22-.33.33a2.93,2.93,0,0,1-.06-.43A2.05,2.05,0,0,1,602.54,297.19Z"/>
    </g>
    <g class="cls-6">
        <path class="cls-7"
              d="M215.36,209c-3-9.27-3.21-18.84-3.05-28.67,5.57,1.78,10.16,5.32,15.6,6.84,1.23-.44,2.28.1,3.34.61,6.93,2.69,13.83,5.46,20.94,7.66,8.81,2.72,17.65,5.32,26.47,8,10.94,3.33,22.09,5.79,33.2,8.45,4.56,1.09,9.09,2.36,13.63,3.54a477.81,477.81,0,0,0,63.42,11.88,14.46,14.46,0,0,1,3.63.93l-.11.23c4.5,1.48,9.23,1.22,13.83,1.88,1.69.24,4.1-.64,4.86,1,.55,1.18-1.54,2.54-2.52,3.75-7.68,9.44-16.34,17.82-26.8,24.2-2-.13-2.67-1.82-3.55-3.2a16.48,16.48,0,0,1-2.06-5.76c-5.46,5.69-16.23,4.53-19.34-5-2.17,1.42-4.4,2.67-7.07,2.7a11.44,11.44,0,0,1-11.21-7c-.56-1.17-.88-1.89-2.47-1.09-7.77,3.9-13.79,1.73-17.54-6.15-.4,0-.64.25-.92.45-6.39,4.66-13.39,3.14-17.22-3.85-.86-1.56-1.56-2-3.28-1.14-6.36,3.06-12.34,1.55-16.41-4.08-.79-1.09-1.38-1.54-2.79-1-6.47,2.62-12.81.72-16.73-5.1-1-1.45-1.74-1.51-3.23-1-6.35,2.37-10.25,1.36-14.69-3.75-.87-1-1.56-1.48-2.9-.84-4.93,2.37-9.29,1-13.33-2.21a17.45,17.45,0,0,1-2.15-2,3.56,3.56,0,0,0-4.51-1C218.84,209.07,217.18,210,215.36,209Z"/>
        <path class="cls-7"
              d="M378.66,180.69c-2.82,9.51-5.61,19-8.48,28.53-.54,1.77-.85,2.53,1.74,2.9,12.83,1.88,25.73,3.07,38.63,4.37a34.9,34.9,0,0,1,4.63,1.1c2.19.53,2.72,2.07,2.37,4s-1.84,2.28-3.62,2.11c-6.48-.63-13-1.2-19.46-1.8-.53,0-1.05-.22-1.51.19a4.46,4.46,0,0,1-3.26.34c-15.32-1.84-30.62-3.79-45.73-7-13.52-2.85-26.94-6.13-40.38-9.36-14.25-3.42-28.17-7.93-42.09-12.37-9.52-3-19.09-6.06-28.26-10.11-1.24-.4-2.62-.63-3-2.18-4.54-2.34-9.35-4.07-14.06-6-3.34-1.38-3.51-1.95-2.22-5,.89-2.09,2.16-1.67,3.63-1.07,3,1.23,6,2.45,9,3.74,1.55.67,2.26.37,2.75-1.38,1.38-4.93,3-9.81,4.47-14.71a.45.45,0,0,1,.66.38c-.08,3.43-1.7,6.47-2.47,9.72-.16.69-.4,1.36-.61,2-1.25,4.16-1.25,4.16,2.76,5.83a17.26,17.26,0,0,0,3.11,1.5c16.25,5.27,32.42,10.86,49,15.2,8.4,2.2,16.63,5,25,7.07,8.58,2.16,17.21,4.12,25.86,6q11.69,2.49,23.45,4.59a29,29,0,0,0,3.69.42c4.23.59,4.24.59,5.48-3.53q3.8-12.58,7.57-25.17C377.62,180.46,378,179.89,378.66,180.69Z"/>
        <path class="cls-7"
              d="M268.23,155.74c8.75,2.2,17.6,4,26.44,5.74a9,9,0,0,1,1.68.7c1,1,.54,2.14.46,3.23-.16,2-.21,4-.39,6-.1,1-.19,2.13-1.36,2.63-4.16.43-8-1.32-11.87-2.18-4.79-1.06-9.61-2.11-14.33-3.54a6.24,6.24,0,0,1-3-1.49A17.23,17.23,0,0,1,268.23,155.74Z"/>
        <path class="cls-7"
              d="M295.38,173.73l1-11.55c4.47,0,8.67,1.53,13,2.22,5,.8,10.15,1.07,15.09,2.41.94,3.91,1.08,7.77-.61,11.54a7.68,7.68,0,0,1-3.91.11c-7.36-.76-14.63-2.13-21.93-3.27C297,175,295.88,174.89,295.38,173.73Z"/>
        <path class="cls-7"
              d="M347.06,168.37l28.61.66a19.6,19.6,0,0,1-.38,11.6,2.74,2.74,0,0,1-2.08.69c-7.88-.13-15.74-.55-23.6-1-1.14-.06-2.33,0-3.23-.93C345.71,175.68,345.46,172,347.06,168.37Z"/>
        <path class="cls-7"
              d="M268.23,155.74l-2.39,10.72a2.88,2.88,0,0,1-2.78.12c-5.78-1.82-11.66-3.29-17.55-4.72a14.65,14.65,0,0,1-6.14-2.92,1.47,1.47,0,0,1-.34-1.23c.94-3.34,1.79-6.73,4.34-9.33C251.73,150.58,260,153,268.23,155.74Z"/>
        <path class="cls-7"
              d="M347.06,168.37l-.54,11c-.66,1-1.69.81-2.63.81-5.9,0-11.77-.57-17.64-1.12-.87-.08-1.78-.18-2.21-1.15q.21-5.57.42-11.14C332,166.9,339.54,167.73,347.06,168.37Z"/>
        <path class="cls-7"
              d="M243.38,148.38l-4.3,10.11a.79.79,0,0,1-.58.58,8.82,8.82,0,0,1-4.33-1.81.8.8,0,0,0-.37-.21c-1.94-.83-3.92-1.6-5.82-2.51s-3.6-2-4-4.29c-.87-4.92,1-7.1,5.83-6A67.58,67.58,0,0,1,243.38,148.38Z"/>
        <path class="cls-7"
              d="M375.22,180.57l.45-11.54a30.78,30.78,0,0,1,13.35.32c2.26.55,4.62,1.57,4.65,4.34s-1.91,4-4.42,4.91c-3.46,1.29-7.14,1-10.59,2.1l-.83,0A1.73,1.73,0,0,1,375.22,180.57Z"/>
        <path class="cls-7"
              d="M364.9,210.51l8.83-29.7,2-.08,2.77.22c.57,1,0,1.9-.29,2.8q-3.55,11.9-7.15,23.78C369.77,211.92,369.77,211.92,364.9,210.51Z"/>
        <path class="cls-7" d="M238.27,158.43l-5.06,16.84c-4.39-.76-4.61-1.1-3.36-5.21,1.31-4.3,2.64-8.6,4-12.9Z"/>
        <g id="ySpcnM.tif">
            <path class="cls-7"
                  d="M373.68,256.65c-6.92,2.6-12.65.7-17.69-4.24a3.15,3.15,0,0,0-2.48-.64c-6.66,1.43-12.1-.65-16.82-5.35a4,4,0,0,0-3.07-1A16.52,16.52,0,0,1,318,241.14a3.57,3.57,0,0,0-2.69-.93c-6.7,1.5-12.11-.65-16.82-5.36a3.6,3.6,0,0,0-2.82-.82c-6.55,1.36-12.22.05-17-4.9a3.26,3.26,0,0,0-2.52-.7c-6.24,1-11.49-.6-15.78-5.35a3,3,0,0,0-2.48-.7c-6.8,1.54-12.73.32-17.65-4.94a3.48,3.48,0,0,0-2.79-.5,16.74,16.74,0,0,1-13.35-2.83c-1.2-.81-2-2.17-3.21-3.48-1.18.42-2.56.95-4,1.39a15.64,15.64,0,0,1-17.41-5.12c-1.2-1.49-2.23-1.7-4.06-1.25-5.77,1.43-10.91.27-14.65-4.73-1-1.35-2-1-3.21-.55a12.79,12.79,0,0,1-15.55-5.21c-1.06-1.63-1.7-3.32-.46-4.79,3.43,1.84,6.53,4.15,10,5.19,3.87,1.16,7.31-1.17,10.59-3.59,1.47,3.64,3.09,6.91,7.15,8.07s7-.85,10.41-2.64c1.85,5.07,4.91,8.94,10.41,9.92s9.4-2.13,13.36-5.61c.36,5.26,3.27,8.11,7.88,9.4,4.1,1.15,7.75.61,10.66-3.54,1.06,4.72,3.52,7.75,7.91,9s8.23.53,11.59-3.16c1.32,4.43,3.83,7.47,8,8.86a10,10,0,0,0,11.15-2.82c3.46,10.09,10.18,12.48,18.88,6.57,1.48,4.08,3.86,7.3,8.24,8.55s7.93-.55,11-3.68c2.07,9.56,12.74,11.5,19.32,5.72.89,4.54,3.4,7.54,7.81,8.88s8.18.44,11.69-3.13c.28,5.22,3.19,7.81,7.59,9s8.18.3,11.09-3.5c5.34,13.69,11.29,16.21,22.27,9.46,1.86,3.14,3.26,6.69,7.29,7.9s7.06-.5,10.39-2.87c2.71,9.19,9.09,11.57,17.89,9.24.42,2.61-.95,3.71-2.69,4.52a12.73,12.73,0,0,1-15.9-4c-1.06-1.44-1.83-1.86-3.67-1.29-5.79,1.81-10.5-.31-14.58-4.49-.7-.72-2.21-1.44-3-1.17a16.44,16.44,0,0,1-20-7.88A4.76,4.76,0,0,0,373.68,256.65Z"/>
        </g>
        <text class="cls-8" transform="translate(184.12 190.88) rotate(16.78)">TM</text>
        <circle class="cls-7" cx="391.95" cy="225.03" r="3.21" transform="translate(63.38 535.35) rotate(-73.22)"/>
        <circle class="cls-7" cx="230.77" cy="184.97" r="3.21" transform="translate(-12.93 352.54) rotate(-73.22)"/>
    </g>
    <g class="cls-6">
        <path class="cls-7"
              d="M556,181.86c5.2-1.69,10.55-1.8,16.06-1.71-1,3.12-3,5.69-3.83,8.74a2.33,2.33,0,0,1-.34,1.87c-1.51,3.88-3.06,7.75-4.29,11.73-1.53,4.93-3,9.89-4.48,14.83-1.86,6.13-3.24,12.38-4.73,18.6-.61,2.56-1.32,5.09-2,7.63a267.67,267.67,0,0,0-6.66,35.53,8.1,8.1,0,0,1-.52,2l-.13-.06c-.83,2.52-.68,5.17-1.05,7.75-.13.95.36,2.3-.56,2.72-.66.31-1.42-.86-2.1-1.41a59.32,59.32,0,0,1-13.56-15c.07-1.13,1-1.5,1.79-2a9.23,9.23,0,0,1,3.23-1.15,6.46,6.46,0,0,1,2.81-10.83,7.41,7.41,0,0,1-1.51-4,6.41,6.41,0,0,1,3.94-6.28c.65-.31,1.06-.49.61-1.38-2.18-4.35-1-7.72,3.44-9.83,0-.22-.14-.36-.25-.52-2.61-3.58-1.76-7.5,2.16-9.65.87-.48,1.1-.87.64-1.84a6.89,6.89,0,0,1,2.29-9.19c.61-.44.87-.77.54-1.56a7.4,7.4,0,0,1,2.86-9.37c.81-.55.85-1,.54-1.81-1.33-3.55-.76-5.74,2.1-8.23.56-.49.83-.87.47-1.62-1.33-2.76-.54-5.2,1.24-7.47a9.77,9.77,0,0,1,1.11-1.21,2,2,0,0,0,.53-2.53C555.94,183.81,555.4,182.88,556,181.86Z"/>
        <path class="cls-7"
              d="M571.84,273.35c-5.33-1.58-10.66-3.14-16-4.75-1-.3-1.41-.48-1.63,1-1.05,7.19-1.72,14.42-2.45,21.64a19.55,19.55,0,0,1-.62,2.6,1.71,1.71,0,0,1-2.27,1.33c-1.16-.21-1.28-1-1.18-2,.35-3.63.67-7.27,1-10.9,0-.3.12-.59-.11-.85a2.5,2.5,0,0,1-.19-1.83c1-8.58,2.12-17.15,3.91-25.62,1.6-7.58,3.44-15.09,5.24-22.62,1.92-8,4.44-15.78,6.93-23.58a157.52,157.52,0,0,1,5.66-15.83c.23-.7.35-1.47,1.22-1.7,1.31-2.54,2.28-5.24,3.37-7.88.77-1.87,1.09-2,2.8-1.24,1.17.5.94,1.21.6,2-.69,1.69-1.37,3.39-2.09,5.06-.37.87-.2,1.27.77,1.54,2.76.77,5.49,1.66,8.24,2.51a.25.25,0,0,1-.21.37c-1.92,0-3.62-1-5.45-1.39-.39-.09-.76-.23-1.14-.34-2.33-.7-2.33-.7-3.27,1.55a9.67,9.67,0,0,0-.84,1.74c-3,9.11-6.08,18.16-8.51,27.42-1.23,4.71-2.78,9.32-4,14s-2.31,9.64-3.34,14.49q-1.39,6.55-2.57,13.14a16.24,16.24,0,0,0-.24,2.07c-.33,2.37-.33,2.38,2,3.07l14.1,4.24C572,272.76,572.29,273,571.84,273.35Z"/>
        <path class="cls-7"
              d="M585.82,211.48c-1.23,4.9-2.23,9.86-3.22,14.81a5,5,0,0,1-.39.94c-.53.55-1.2.3-1.81.26-1.12-.09-2.25-.12-3.37-.22-.58-.05-1.19-.11-1.48-.76-.24-2.33.74-4.46,1.22-6.65.59-2.68,1.18-5.39,2-8a3.5,3.5,0,0,1,.83-1.7A9.66,9.66,0,0,1,585.82,211.48Z"/>
        <path class="cls-7"
              d="M575.74,226.69l6.47.55c0,2.5-.86,4.86-1.24,7.3a80.62,80.62,0,0,1-1.35,8.45,9.72,9.72,0,0,1-6.46-.34,4.3,4.3,0,0,1-.06-2.19c.43-4.12,1.19-8.19,1.83-12.29C575,227.58,575.09,227,575.74,226.69Z"/>
        <path class="cls-7"
              d="M578.74,255.64l-.37,16a11,11,0,0,1-6.5-.21,1.53,1.53,0,0,1-.39-1.16c.07-4.41.31-8.82.54-13.22a2.49,2.49,0,0,1,.52-1.81A10.29,10.29,0,0,1,578.74,255.64Z"/>
        <path class="cls-7"
              d="M585.82,211.48l-6-1.34a1.61,1.61,0,0,1-.07-1.56c1-3.24,1.85-6.53,2.65-9.83a8.21,8.21,0,0,1,1.64-3.44.82.82,0,0,1,.69-.19c1.87.53,3.77,1,5.22,2.43C588.71,202.24,587.37,206.89,585.82,211.48Z"/>
        <path class="cls-7"
              d="M578.74,255.64l-6.18-.3c-.55-.37-.45-.95-.45-1.47,0-3.31.32-6.59.63-9.88,0-.49.1-1,.64-1.24l6.24.24C579.56,247.22,579.1,251.43,578.74,255.64Z"/>
        <path class="cls-7"
              d="M589.94,197.56l-5.67-2.41a.44.44,0,0,1-.32-.33,4.94,4.94,0,0,1,1-2.43.45.45,0,0,0,.12-.2c.47-1.09.9-2.19,1.41-3.26a3.42,3.42,0,0,1,2.4-2.24c2.75-.49,4,.58,3.38,3.27A37.86,37.86,0,0,1,589.94,197.56Z"/>
        <path class="cls-7"
              d="M571.91,271.42l6.46.25a17.25,17.25,0,0,1-.18,7.48c-.31,1.27-.88,2.59-2.43,2.6s-2.23-1.07-2.75-2.48c-.72-1.94-.57-4-1.18-5.93l0-.46A1,1,0,0,1,571.91,271.42Z"/>
        <path class="cls-7"
              d="M555.13,265.64l16.64,4.95,0,1.15-.12,1.55c-.57.32-1.07,0-1.57-.17q-6.66-2-13.32-4C554.34,268.37,554.34,268.37,555.13,265.64Z"/>
        <path class="cls-7" d="M584.31,194.7l-9.43-2.83c.43-2.46.62-2.58,2.92-1.88L585,192.2Z"/>
        <g id="ySpcnM.tif-2" data-name="ySpcnM.tif">
            <path class="cls-7"
                  d="M529.29,270.55c-1.45-3.88-.39-7.08,2.38-9.91a1.77,1.77,0,0,0,.36-1.39,9.71,9.71,0,0,1,3-9.42,2.21,2.21,0,0,0,.58-1.72,9.26,9.26,0,0,1,2.38-8.77,2,2,0,0,0,.52-1.51c-.84-3.75.36-6.78,3-9.42a2,2,0,0,0,.46-1.58,9.55,9.55,0,0,1,2.74-9.5,1.82,1.82,0,0,0,.39-1.41,9.14,9.14,0,0,1,3-8.84,1.7,1.7,0,0,0,.39-1.39c-.86-3.81-.18-7.13,2.77-9.89a2,2,0,0,0,.28-1.56,9.38,9.38,0,0,1,1.59-7.48,11.94,11.94,0,0,1,1.95-1.8c-.23-.66-.53-1.44-.78-2.22a8.76,8.76,0,0,1,2.87-9.75,1.86,1.86,0,0,0,.7-2.27c-.8-3.24-.15-6.11,2.65-8.2.76-.57.56-1.1.31-1.8a7.16,7.16,0,0,1,2.92-8.71c.91-.59,1.86-1,2.68-.26-1,1.92-2.32,3.66-2.91,5.61-.65,2.17.66,4.1,2,5.93-2,.82-3.87,1.73-4.52,4s.48,3.95,1.48,5.83c-2.84,1-5,2.75-5.56,5.83s1.19,5.27,3.14,7.48a5.44,5.44,0,0,0-5.26,4.41c-.64,2.3-.34,4.34,2,6a6.16,6.16,0,0,0-5.07,4.43,5.84,5.84,0,0,0,1.77,6.49,6.85,6.85,0,0,0-5,4.47,5.61,5.61,0,0,0,1.58,6.25c-5.65,1.94-7,5.7-3.68,10.58-2.28.83-4.09,2.16-4.79,4.62s.31,4.44,2.06,6.17c-5.35,1.16-6.44,7.14-3.2,10.83a6.35,6.35,0,0,0-3.22,10.92c-2.92.16-4.38,1.79-5.07,4.25a5.36,5.36,0,0,0,2,6.21c-7.67,3-9.08,6.33-5.3,12.47-1.76,1-3.75,1.83-4.43,4.09s.28,4,1.61,5.82c-5.15,1.52-6.48,5.09-5.18,10a2.15,2.15,0,0,1-2.53-1.51,7.13,7.13,0,0,1,2.24-8.91,1.54,1.54,0,0,0,.72-2.05c-1-3.24.17-5.88,2.52-8.17a2.13,2.13,0,0,0,.66-1.69,9.21,9.21,0,0,1,4.42-11.18A2.67,2.67,0,0,0,529.29,270.55Z"/>
        </g>
        <text class="cls-9" transform="translate(566.08 164.34) rotate(106.78)">TM</text>
        <circle class="cls-7" cx="547" cy="280.79" r="1.8" transform="translate(120.28 723.47) rotate(-73.22)"/>
        <circle class="cls-7" cx="569.44" cy="190.5" r="1.8" transform="translate(222.7 680.72) rotate(-73.22)"/>
    </g>
    <line class="cls-10" x1="537.71" y1="119.2" x2="537.42" y2="120.15"/>
    <line class="cls-11" x1="536.85" y1="122.05" x2="478.8" y2="314.61"/>
    <line class="cls-10" x1="478.52" y1="315.56" x2="478.23" y2="316.51"/>
    <path class="cls-2"
          d="M677.59,242.66c-37,6-79.37.43-116.88.43H425.06q-156,0-312,0c-7,0-3.6-82.54-3.6-93.55V80.28c0-8.15-4.38-35.67,0-42.52,5.42-8.49,48.83-2.47,59.33-2.47,162.77,0,326.58,5.62,489.21-1.56,5.36-.24,15.86-2,19.89,3,5.51,6.9,2.19,24.25,1.62,32.35-1.06,15.19-1.53,30-1.53,45.28C678,156.11,682.85,201.51,677.59,242.66Z"/>
    <polygon class="cls-3" points="678.01 35.3 109.48 243.09 678.01 243.09 678.01 35.3"/>
    <g id="UTckQz-3" data-name="UTckQz">
        <path class="cls-4"
              d="M461.69,91.36c-1.13.06-1.45-.52-1.39-1.58.07-1.28,0-2.57,0-3.85l-.54-.07c-.3,1.32-.54,2.66-.94,3.95a5.58,5.58,0,0,1-1.05,1.44,5.9,5.9,0,0,1-.89-1.39c-.41-1.39-.71-2.81-1.05-4.22l-.42,0c0,1.51,0,3,0,4.53,0,.34-.36.67-.55,1-.22-.32-.61-.64-.62-1-.06-2.16,0-4.32,0-6.45,1.54-.61,2.25-.16,2.5,1.32s.65,2.7,1,4h.45a29.91,29.91,0,0,0,.7-3.18c.2-1.77.91-2.84,2.88-2.55Z"/>
        <path class="cls-4"
              d="M267.55,108.85a31.85,31.85,0,0,0-2.46,2.35,6.75,6.75,0,0,1-11.35-1.74c-.25-.57-.56-1.11-1-1.93-.58.64-1.06,1.15-1.52,1.68A10.34,10.34,0,0,1,244,113c-2.75.24-4.51-.85-5.54-3.63a16.75,16.75,0,0,1-1.39,1.12,31.9,31.9,0,0,1-4.67,2.83c-4.25,1.75-7.93-.14-9.21-4.55-1.19-4.1-.61-8.18.38-12.2,1.53-6.17,4.4-11.55,9.83-15.19a17.07,17.07,0,0,1,10.44-3.31,11.87,11.87,0,0,1,2.8.69c1,.3,1.89.74,2.87,1a2.2,2.2,0,0,1,1.77,3.1c-1.63,5.17-3.42,10.28-5.11,15.43-.65,2-1.2,3.95-1.8,5.92l.56.35a10.93,10.93,0,0,0,1.86-1.23c1.78-1.78,3.49-3.62,5.22-5.45a1.86,1.86,0,0,0,.41-.73c1.13-3.89,2.24-7.77,3.31-11.49a10.61,10.61,0,0,1-2.18-1.92,3.42,3.42,0,0,1,2.72-5.25,2.3,2.3,0,0,0,2.39-1.88c.71-2.11,1.56-4.17,2.39-6.24a5.22,5.22,0,0,1,6.55-2.9A2.24,2.24,0,0,1,269,70.26c-.25,1.34-.51,2.69-.88,4s-.84,2.47-1.11,3.26c1.22,1,2.65,1.6,3.14,2.65,1.23,2.62-.37,4.87-3.25,4.87-1,0-1.59.23-1.9,1.23-1.57,5.13-3.2,10.23-4.72,15.37a7.36,7.36,0,0,0,.12,2.39l.56.16c.5-.57,1-1.15,1.49-1.72,1.51-1.68,3.06-3.33,4.53-5a4.32,4.32,0,0,0,.67-1.52c2-6.29,5-11.9,10.26-16.1a8.08,8.08,0,0,1,5.5-2.07c3.58.18,5.88,3.7,5.18,7.62-1.08,6-5,10-9.68,13.4a4.86,4.86,0,0,1-1.15.74c-3.24,1.12-3.57,3.88-3.86,6.7-.14,1.33.51,2,1.63,1.66,1.58-.52,3.45-1.09,4.44-2.27a79.5,79.5,0,0,0,8-10.91c2.85-4.92,5.12-10.19,7.62-15.32.53-1.08,1.31-1.78,2.43-1.08,3.13,2,6.66,1.85,10.12,2.12,2,.16,2.68.69,2.55,2.76a11.6,11.6,0,0,1-.79,3.31c-2.25,5.92-4.58,11.82-6.85,17.73a19.45,19.45,0,0,0-.6,2.4l.43.31a20.37,20.37,0,0,0,2.42-2c2.41-2.61,4.74-5.28,7.1-7.94a11.49,11.49,0,0,1,1.37-1.53,9.07,9.07,0,0,1,1.74-.85,8.3,8.3,0,0,1,.55,2c.19,7.72-5.3,12-10.41,16.2-4,3.24-8-.37-9.13-4.46a15.86,15.86,0,0,1,.91-10.24c1.22-3.14,2.65-6.19,3.92-9.31.32-.79,1.32-1.79-.07-2.49s-1.82.3-2.42,1.34c-3.67,6.37-6.09,13.49-11.09,19.06a47.35,47.35,0,0,1-6.44,5.86,10,10,0,0,1-7.51,1.74,6.42,6.42,0,0,1-4.55-2.76C268.66,110.78,268.2,109.91,267.55,108.85ZM243.12,85.22c-5.4,1-14.82,16.25-12.7,21,1.16-1.06,2.49-1.86,3.22-3,2.47-4,4.8-8,7-12.11A60,60,0,0,0,243.12,85.22Zm32.72,6.7c2.43-1.19,4.72-2.54,6.19-4.86.28-.44.13-1.14.18-1.73a4.85,4.85,0,0,0-1.56.32C278.28,87.1,276.94,89.4,275.84,91.92Z"/>
        <path class="cls-4"
              d="M428.08,109.74c-2.28,1.58-4.15,4-7.1,3.47a7.12,7.12,0,0,1-5.6-5.08c-1.26,1.17-2.44,2.29-3.65,3.38-1.45,1.3-2.85,2.66-4.41,3.81-2,1.44-3.23.87-3.18-1.52a9.42,9.42,0,0,1,1.18-4.53c2.77-4.54,5.81-8.91,8.68-13.39a17,17,0,0,0,1.21-3l-.67-.39a22.38,22.38,0,0,0-2,2.35c-2.5,4-4.81,8.05-7.47,11.91A17.79,17.79,0,0,1,400,112c-3.14,1.89-7.25,2.74-9.75-2.13-1.15.84-2.25,1.74-3.46,2.49a14.62,14.62,0,0,1-3.22,1.56c-3.67,1.16-6.79-.49-8.18-4.16-1.66-4.35-.93-8.7.14-13,1.79-7.16,5.35-13.11,12.23-16.53A15,15,0,0,1,396,78.38a13.07,13.07,0,0,1,2.62.67c.91.29,1.78.74,2.71,1,1.76.46,2.46,1.41,1.9,3.12-1.63,5-3.36,10.06-5,15.09-.68,2.06-1.3,4.15-2,6.22l.67.41c.87-.67,1.78-1.29,2.59-2,4-3.63,6.68-8.23,9.25-12.91q2.39-4.36,5-8.62a4.86,4.86,0,0,1,5.7-1.87,2.18,2.18,0,0,1,.88,1.58,33.91,33.91,0,0,1,0,3.68l.6.29c.92-1,1.77-2.07,2.76-3a14.71,14.71,0,0,1,3.45-2.66c1.77-.83,3.22.26,3.21,2.22a4.93,4.93,0,0,1-.65,2.43c-2.26,3.71-4.49,7.45-7,11-2,2.91-1.64,6.1-1.62,9.25,0,1.22,1,1.37,1.8.57a34.69,34.69,0,0,0,3.29-3.71c2.83-3.75,4.26-8.18,6-12.48.63-1.59,1.3-3.18,2.05-4.71a8.35,8.35,0,0,1,1.56-2.22,3.36,3.36,0,0,1,4.11-.62,3,3,0,0,1,1.52,3.67c-1,3.15-2.25,6.21-3.41,9.3-1.34,3.58-2.72,7.14-4,10.75a11.12,11.12,0,0,0-.28,2.6l.52.29c1.08-1,2.25-2,3.24-3.09,2.21-2.48,4.29-5.07,6.53-7.52a10.62,10.62,0,0,1,2.5-1.54,14.85,14.85,0,0,1,.79,3c.24,4-2.42,6.69-4.72,9.39a34.25,34.25,0,0,1-6.27,5.79c-3.67,2.57-6.65,1.3-7.92-3C428.34,110.38,428.23,110.14,428.08,109.74ZM395,85.43c-5.51,1.3-14.51,15.92-12.83,20.69,2-.55,3.16-2.18,4.25-3.76A73,73,0,0,0,395,85.43Z"/>
        <path class="cls-4"
              d="M204.72,106.41a20.09,20.09,0,0,0,1.23-1.81c4.4-8.21,8.9-16.37,13.14-24.66C222,74.3,222.84,68.1,223,61.83c0-1.28-.8-2.56-1.14-3.86-.19-.72-.51-1.79-.17-2.15a3,3,0,0,1,2.28-.7,6.33,6.33,0,0,1,5.31,4.52,22.79,22.79,0,0,1,.54,12.52c-2.92,14.74-9.51,27.84-18.45,39.79-2.05,2.74-4.88,4.86-8.55,3.9-3.83-1-5.49-4.28-6-7.87a102.09,102.09,0,0,1-.42-10.44,3.34,3.34,0,0,0-.37-1.73l-.95,1.5q-4.88,7.78-9.75,15.56a12.17,12.17,0,0,1-1.08,1.54c-1.73,2-4.42,1.9-5.53-.45a16.54,16.54,0,0,1-1.5-6.07c-.33-6.52,1-12.83,2.82-19.07,1.07-3.73,2.08-7.47,3.13-11.21.23-.82.34-1.44-.73-1.91a2.31,2.31,0,0,1-1.15-3.32c2-4.64,4.26-9.13,7.87-12.78,1.86-1.88,3.58-2.31,5.37-1.43A5,5,0,0,1,197,63.57a43.68,43.68,0,0,1-1.6,5.22q-3.48,10.57-7,21.14c-.12.36-.16.74-.34,1.64.59-.75.87-1.07,1.11-1.43,4.08-6.08,8.11-12.2,12.25-18.24a25.16,25.16,0,0,1,3.54-4c1.46-1.38,2.86-1.2,4.11.38a5.75,5.75,0,0,1,1,5.35c-1.51,5.38-3,10.79-4.64,16.12A40.14,40.14,0,0,0,203.82,105a7.08,7.08,0,0,0,.37,1.35Z"/>
        <path class="cls-4"
              d="M369.72,74.15c-4.66.51-9.22,1.15-13.81,1.47-5.67.4-11.34.28-16.72-1.91-3.46-1.4-6-3.81-6.82-7.56a6.59,6.59,0,0,1,3.69-7.38,6.12,6.12,0,0,1,3.28-.29c1.71.29,2,1.1,1.36,2.74-.92,2.33-.41,4.11,2,4.78A35.85,35.85,0,0,0,352,67.63a75.77,75.77,0,0,0,14-1.09c3.07-.56,6-2.24,8.86-3.54.6-.27.92-1.12,1.42-1.65a27.84,27.84,0,0,1,3.57-3.63,3.83,3.83,0,0,1,5.26.73,3.4,3.4,0,0,1,.27,4.93,20.36,20.36,0,0,1-3.9,4,10,10,0,0,0-3.79,5.91c-1.94,7.8-3.71,15.65-5.89,23.39-1.69,6-4,11.86-8.52,16.42a34.54,34.54,0,0,1-7.16,5.52c-4.55,2.66-10.55,1.15-14.1-3.36-3.67-4.67-4.49-10.17-4-15.89a3.11,3.11,0,0,1,1.78-2.28,15.62,15.62,0,0,1,5.65,0c1.35.26,1.5,1.76.47,2.78-2,2-2.31,4.42-1.81,7s3.89,4.09,7,3.3c3.79-1,6.34-3.45,8.3-6.71,4.48-7.44,6.87-15.64,8.76-24C368.68,77.61,369.25,75.83,369.72,74.15Z"/>
        <path class="cls-4"
              d="M441.45,65.95a4.21,4.21,0,0,1,4.37,4.44,4.26,4.26,0,0,1-4.45,4.4,4.32,4.32,0,0,1-4.48-4.56A4.25,4.25,0,0,1,441.45,65.95Z"/>
        <path class="cls-4"
              d="M450.77,84.81c-.2,2.22-.37,4.28-.59,6.34a5,5,0,0,1-.9.09V85c-.41-.14-.58-.19-.73-.25l-1.62-.69a9.72,9.72,0,0,1,1.79-.48,18.77,18.77,0,0,1,3.08,0c.4,0,.76.4,1.14.62a8.15,8.15,0,0,1-1.1.5A5.71,5.71,0,0,1,450.77,84.81Z"/>
    </g>
    <g id="UTckQz-4" data-name="UTckQz">
        <path class="cls-5"
              d="M627.39,192.63c0-.41.19-.52.57-.5s.92,0,1.39,0l0-.19c-.47-.11-1-.19-1.42-.34a2,2,0,0,1-.52-.38,2.12,2.12,0,0,1,.5-.32c.5-.15,1-.25,1.52-.38l0-.15c-.54,0-1.09,0-1.63,0-.12,0-.24-.13-.36-.2.12-.08.23-.22.35-.22.78,0,1.55,0,2.32,0,.22.55.06.81-.47.9s-1,.23-1.45.35v.16a10.75,10.75,0,0,0,1.14.25c.64.07,1,.33.92,1Z"/>
        <path class="cls-5"
              d="M621.1,122.86a11.45,11.45,0,0,0-.85-.88,2.43,2.43,0,0,1,.63-4.08c.2-.09.4-.2.69-.35L621,117a3.71,3.71,0,0,1-1.36-2.6,1.75,1.75,0,0,1,1.3-2,6,6,0,0,1-.4-.5,11.46,11.46,0,0,1-1-1.68,2.31,2.31,0,0,1,1.64-3.31,8.31,8.31,0,0,1,4.39.14,8.76,8.76,0,0,1,5.46,3.53,6.13,6.13,0,0,1,1.19,3.75,4.27,4.27,0,0,1-.25,1c-.11.35-.26.68-.36,1a.79.79,0,0,1-1.11.64c-1.86-.59-3.69-1.23-5.54-1.84-.7-.23-1.42-.43-2.13-.65l-.13.2a3.93,3.93,0,0,0,.44.67c.64.64,1.3,1.26,2,1.88a.67.67,0,0,0,.26.15l4.13,1.19a3.81,3.81,0,0,1,.69-.78,1.23,1.23,0,0,1,1.89,1,.83.83,0,0,0,.68.86c.76.26,1.5.56,2.24.86a1.88,1.88,0,0,1,1,2.36.8.8,0,0,1-1,.49c-.48-.09-1-.19-1.44-.32s-.89-.3-1.17-.4c-.35.44-.57,1-1,1.13a1.17,1.17,0,0,1-1.75-1.17c0-.36-.08-.57-.44-.68-1.84-.56-3.68-1.15-5.52-1.7a2.65,2.65,0,0,0-.86,0l-.06.2.62.54c.6.54,1.2,1.1,1.81,1.63a1.55,1.55,0,0,0,.55.24,11.54,11.54,0,0,1,5.79,3.69,2.9,2.9,0,0,1,.74,2,2.18,2.18,0,0,1-2.74,1.86,7.61,7.61,0,0,1-4.81-3.48,1.75,1.75,0,0,1-.27-.41c-.4-1.17-1.39-1.28-2.41-1.39-.48-.05-.73.19-.6.59a3.53,3.53,0,0,0,.82,1.59,28.57,28.57,0,0,0,3.92,2.86c1.77,1,3.66,1.84,5.51,2.74.39.19.64.47.39.87a7.58,7.58,0,0,0-.76,3.64c-.06.73-.25,1-1,.92a4.17,4.17,0,0,1-1.19-.28c-2.13-.81-4.25-1.65-6.37-2.46a7,7,0,0,0-.86-.21l-.11.16a7.32,7.32,0,0,0,.7.87c.94.87,1.9,1.7,2.85,2.55a4.13,4.13,0,0,1,.55.49,3.26,3.26,0,0,1,.31.63,3,3,0,0,1-.71.2c-2.77.07-4.33-1.9-5.82-3.74-1.16-1.43.13-2.86,1.6-3.28a5.7,5.7,0,0,1,3.68.33c1.13.44,2.23,1,3.35,1.41.28.12.64.48.9,0s-.11-.65-.48-.87c-2.29-1.32-4.85-2.19-6.85-4a17,17,0,0,1-2.11-2.31,3.61,3.61,0,0,1-.63-2.7,2.31,2.31,0,0,1,1-1.64C620.41,123.25,620.72,123.09,621.1,122.86Zm8.49-8.78c-.35-1.94-5.84-5.33-7.55-4.56a6.32,6.32,0,0,0,1.09,1.16c1.42.89,2.88,1.72,4.35,2.53A21.55,21.55,0,0,0,629.59,114.08Zm-2.41,11.76a5.13,5.13,0,0,0,1.75,2.23c.16.1.41,0,.62.07a1.74,1.74,0,0,0-.12-.56A4.58,4.58,0,0,0,627.18,125.84Z"/>
        <path class="cls-5"
              d="M620.78,180.55c-.57-.82-1.42-1.49-1.25-2.55a2.56,2.56,0,0,1,1.83-2c-.42-.45-.82-.88-1.21-1.31s-1-1-1.37-1.59-.31-1.16.54-1.14a3.39,3.39,0,0,1,1.63.42c1.63,1,3.2,2.09,4.81,3.12a6.12,6.12,0,0,0,1.07.43l.14-.24a8,8,0,0,0-.85-.71c-1.42-.9-2.89-1.73-4.28-2.68a6.39,6.39,0,0,1-1.87-1.82c-.68-1.13-1-2.61.77-3.5-.3-.41-.63-.81-.89-1.24a5.25,5.25,0,0,1-.56-1.16,2.25,2.25,0,0,1,1.5-2.94,7.58,7.58,0,0,1,4.66.05,8.45,8.45,0,0,1,5.94,4.4,5.41,5.41,0,0,1,.66,3,4.7,4.7,0,0,1-.24.94c-.1.33-.27.64-.35,1-.17.63-.51.88-1.12.68-1.81-.59-3.61-1.21-5.42-1.8-.74-.25-1.49-.47-2.24-.7l-.15.24c.24.31.46.64.73.93a17,17,0,0,0,4.64,3.32q1.57.86,3.1,1.78a1.75,1.75,0,0,1,.67,2,.78.78,0,0,1-.57.32,12.19,12.19,0,0,1-1.32,0l-.1.22c.36.33.75.64,1.07,1a5.29,5.29,0,0,1,1,1.24c.3.63-.09,1.16-.8,1.15a1.77,1.77,0,0,1-.87-.23c-1.33-.81-2.68-1.61-4-2.51a5.22,5.22,0,0,0-3.33-.58c-.44,0-.49.36-.21.65a12.47,12.47,0,0,0,1.33,1.18,18.33,18.33,0,0,0,4.49,2.14c.57.23,1.14.47,1.69.74a3,3,0,0,1,.8.56,1.21,1.21,0,0,1,.22,1.48,1.07,1.07,0,0,1-1.32.55c-1.13-.36-2.23-.81-3.34-1.23-1.29-.48-2.57-1-3.86-1.44a4,4,0,0,0-.93-.1l-.1.19c.37.39.71.81,1.11,1.16.89.79,1.82,1.54,2.7,2.35a3.82,3.82,0,0,1,.55.9,5.34,5.34,0,0,1-1.06.28c-1.44.09-2.4-.87-3.37-1.7a12.31,12.31,0,0,1-2.08-2.25c-.92-1.32-.47-2.39,1.09-2.85Zm8.74-11.88c-.47-2-5.72-5.22-7.44-4.61a2.86,2.86,0,0,0,1.35,1.53A26.24,26.24,0,0,0,629.52,168.67Z"/>
        <path class="cls-5"
              d="M622,100.28a7.22,7.22,0,0,0,.65.44c3,1.58,5.88,3.2,8.86,4.72a14.76,14.76,0,0,0,6.51,1.4,5.67,5.67,0,0,0,1.39-.41c.26-.07.64-.18.77-.06a1.06,1.06,0,0,1,.25.82,2.28,2.28,0,0,1-1.62,1.91,8.19,8.19,0,0,1-4.5.19,35.17,35.17,0,0,1-14.3-6.63,2.9,2.9,0,0,1-1.4-3.07,3,3,0,0,1,2.83-2.15,36.69,36.69,0,0,1,3.75-.15,1.2,1.2,0,0,0,.62-.13l-.54-.34-5.59-3.51a4.37,4.37,0,0,1-.55-.39,1.14,1.14,0,0,1,.16-2,5.94,5.94,0,0,1,2.18-.54,21,21,0,0,1,6.85,1l4,1.12c.3.08.52.12.69-.26a.83.83,0,0,1,1.19-.41,14.35,14.35,0,0,1,4.59,2.83,1.56,1.56,0,0,1,.51,1.93,1.78,1.78,0,0,1-1.94.88,15.7,15.7,0,0,1-1.88-.58l-7.6-2.51c-.13,0-.27-.06-.59-.12.27.21.39.31.51.4,2.19,1.47,4.38,2.92,6.55,4.4a9,9,0,0,1,1.42,1.27.89.89,0,0,1-.14,1.48,2.07,2.07,0,0,1-1.92.38c-1.94-.54-3.88-1.06-5.79-1.67a14.43,14.43,0,0,0-5.47-.6,2.55,2.55,0,0,0-.49.13Z"/>
        <path class="cls-5"
              d="M633.57,159.58c-.18-1.67-.41-3.31-.53-5a13.23,13.23,0,0,1,.69-6,3.78,3.78,0,0,1,2.72-2.45,2.37,2.37,0,0,1,2.65,1.33,2.2,2.2,0,0,1,.1,1.18c-.11.61-.39.72-1,.49-.84-.33-1.48-.15-1.72.71a12.88,12.88,0,0,0-.58,3.37,27.23,27.23,0,0,0,.39,5,14.54,14.54,0,0,0,1.27,3.18c.1.22.4.33.59.51a10,10,0,0,1,1.3,1.28,1.38,1.38,0,0,1-.26,1.89,1.22,1.22,0,0,1-1.77.1,7.32,7.32,0,0,1-1.46-1.4,3.59,3.59,0,0,0-2.12-1.36c-2.8-.7-5.63-1.33-8.41-2.12a13.25,13.25,0,0,1-5.9-3.06,12.41,12.41,0,0,1-2-2.57,4,4,0,0,1,1.21-5.07,7.71,7.71,0,0,1,5.71-1.42,1.12,1.12,0,0,1,.82.64,5.62,5.62,0,0,1,0,2c-.09.48-.63.54-1,.17a2.6,2.6,0,0,0-2.51-.65,2,2,0,0,0-1.19,2.52,4.85,4.85,0,0,0,2.41,3,28.63,28.63,0,0,0,8.63,3.15C632.33,159.2,633,159.41,633.57,159.58Z"/>
        <path class="cls-5"
              d="M636.52,185.36a1.51,1.51,0,0,1-1.6,1.57,1.53,1.53,0,0,1-1.58-1.6,1.55,1.55,0,0,1,1.64-1.61A1.53,1.53,0,0,1,636.52,185.36Z"/>
        <path class="cls-5"
              d="M629.74,188.71l-2.28-.21a1.79,1.79,0,0,1,0-.32h2.24c.05-.15.07-.21.09-.26l.25-.58a3.49,3.49,0,0,1,.17.64,6.75,6.75,0,0,1,0,1.11c0,.14-.15.27-.22.41a2.93,2.93,0,0,1-.18-.39A2.05,2.05,0,0,1,629.74,188.71Z"/>
    </g>
    <g class="cls-6">
        <path class="cls-7"
              d="M233.59,216.06c-5.57-8-8.51-17.11-11.2-26.57,5.85.09,11.26,2.16,16.91,2,1.05-.77,2.21-.57,3.37-.38,7.41.58,14.82,1.24,22.26,1.29,9.22.06,18.44,0,27.66,0,11.43,0,22.82-.84,34.23-1.5,4.68-.27,9.38-.36,14.07-.55A477.81,477.81,0,0,0,405,183.5a14.46,14.46,0,0,1,3.74-.16l0,.25c4.73.11,9.19-1.49,13.79-2.2,1.69-.26,3.74-1.79,4.94-.45.87,1-.74,2.88-1.33,4.32-4.63,11.26-10.5,21.78-18.67,30.9-2,.46-3.08-1-4.32-2a16.48,16.48,0,0,1-3.64-4.92c-3.58,7-14.23,9-20,.78-1.67,2-3.44,3.83-6,4.63a11.44,11.44,0,0,1-12.76-3.49c-.87-1-1.38-1.55-2.68-.33-6.31,6-12.7,5.64-18.57-.82-.39.08-.54.42-.75.7-4.77,6.3-11.92,6.87-17.6,1.29-1.27-1.25-2.06-1.43-3.47-.14-5.21,4.77-11.37,5-16.89.83-1.07-.82-1.77-1.08-3-.12-5.44,4.37-12.06,4.39-17.49-.06-1.36-1.11-2.1-.94-3.37,0-5.39,4.1-9.42,4.26-15.15.65-1.12-.71-1.92-1-3,0-4,3.69-8.62,3.6-13.4,1.73a17.45,17.45,0,0,1-2.63-1.27,3.56,3.56,0,0,0-4.59.39C236.94,215.08,235.63,216.49,233.59,216.06Z"/>
        <path class="cls-7"
              d="M381.76,141.78c0,9.92.12,19.84.11,29.76,0,1.85-.09,2.66,2.5,2.28,12.83-1.9,25.53-4.49,38.24-7a34.9,34.9,0,0,1,4.76-.28c2.25-.12,3.2,1.19,3.44,3.19s-1.11,2.72-2.86,3.06c-6.39,1.27-12.77,2.6-19.15,3.89-.52.11-1.07.1-1.39.62a4.46,4.46,0,0,1-3,1.26c-15.2,2.66-30.41,5.21-45.8,6.52-13.77,1.17-27.57,1.9-41.36,2.69-14.63.84-29.26.54-43.87.31-10-.16-20-.29-30-1.52-1.31,0-2.69.16-3.54-1.21-5-.93-10.13-1.2-15.2-1.71-3.59-.36-3.92-.85-3.57-4.14.25-2.25,1.58-2.22,3.16-2.07,3.25.3,6.49.6,9.73,1,1.68.19,2.27-.3,2.23-2.11-.11-5.12,0-10.25,0-15.37a.45.45,0,0,1,.74.17c.92,3.31.24,6.68.44,10,0,.71,0,1.42,0,2.12,0,4.34,0,4.34,4.33,4.79a17.26,17.26,0,0,0,3.41.54c17.08.36,34.18,1,51.26.42,8.68-.31,17.36-.05,26-.46,8.83-.41,17.66-1,26.48-1.76q11.91-1,23.78-2.38a29,29,0,0,0,3.65-.66c4.22-.66,4.23-.66,4.23-5q0-13.14,0-26.28C380.7,141.86,380.86,141.22,381.76,141.78Z"/>
        <path class="cls-7"
              d="M268.83,149.76c9-.42,18-1.26,27-2.14a9,9,0,0,1,1.81.19c1.21.63,1.14,1.89,1.37,3,.42,2,1,3.91,1.36,5.88.21,1,.43,2.09-.55,2.92-3.86,1.61-8,1-12,1.34-4.89.37-9.81.75-14.74.75a6.24,6.24,0,0,1-3.34-.55A17.23,17.23,0,0,1,268.83,149.76Z"/>
        <path class="cls-7"
              d="M300,159.16l-2.4-11.34c4.27-1.31,8.74-1,13.11-1.63,5-.69,10-1.9,15.14-2,2,3.47,3.28,7.13,2.74,11.22a7.68,7.68,0,0,1-3.71,1.23c-7.26,1.4-14.62,2.18-21.94,3.2C301.91,159.93,300.83,160.12,300,159.16Z"/>
        <path class="cls-7"
              d="M348,139.1l27.58-7.63a19.6,19.6,0,0,1,3,11.22,2.74,2.74,0,0,1-1.79,1.26c-7.58,2.15-15.23,4-22.88,5.89-1.11.27-2.23.65-3.36,0C348.77,146.5,347.46,143,348,139.1Z"/>
        <path class="cls-7"
              d="M268.83,149.76l.81,11a2.88,2.88,0,0,1-2.63.91c-6.06-.07-12.11.21-18.17.54a14.65,14.65,0,0,1-6.72-1,1.47,1.47,0,0,1-.68-1.08c-.06-3.47-.23-7,1.47-10.18C251.55,149.59,260.19,149.48,268.83,149.76Z"/>
        <path class="cls-7"
              d="M348,139.11l2.66,10.72c-.34,1.13-1.38,1.26-2.28,1.53-5.65,1.72-11.44,2.85-17.21,4-.86.17-1.75.34-2.45-.46l-2.81-10.78C333.14,142,340.57,140.67,348,139.11Z"/>
        <path class="cls-7"
              d="M242.91,149.89l-1.2,10.92a.79.79,0,0,1-.39.72,8.82,8.82,0,0,1-4.67-.48.8.8,0,0,0-.41-.09c-2.1-.23-4.21-.4-6.3-.72s-4-.91-5.07-3c-2.25-4.45-1.06-7.1,3.84-7.47A67.58,67.58,0,0,1,242.91,149.89Z"/>
        <path class="cls-7"
              d="M378.43,142.66l-2.9-11.18a30.78,30.78,0,0,1,12.87-3.55c2.33-.13,4.88.17,5.7,2.81s-.68,4.36-2.82,6c-2.94,2.23-6.54,3-9.53,5.07l-.78.28A1.73,1.73,0,0,1,378.43,142.66Z"/>
        <path class="cls-7"
              d="M377.2,174.31q-.06-15.49-.12-31l1.94-.67,2.72-.59c.84.81.52,1.83.53,2.77q0,12.42,0,24.83C382.27,174.25,382.27,174.25,377.2,174.31Z"/>
        <path class="cls-7" d="M240.92,161q0,8.79,0,17.58c-4.42.53-4.73.28-4.72-4,0-4.5,0-9,.07-13.49Z"/>
        <g id="ySpcnM.tif-3" data-name="ySpcnM.tif">
            <path class="cls-7"
                  d="M398.92,215.95c-5.87,4.48-11.91,4.32-18.17,1a3.15,3.15,0,0,0-2.56.11c-6,3.3-11.77,2.87-17.65-.27a4,4,0,0,0-3.23-.1,16.52,16.52,0,0,1-16.21.45,3.57,3.57,0,0,0-2.85-.11c-6,3.37-11.78,2.87-17.65-.27a3.6,3.6,0,0,0-2.94,0C311.79,220,306,220.4,300,217a3.26,3.26,0,0,0-2.61.06c-5.68,2.79-11.17,2.74-16.65-.57a3,3,0,0,0-2.58.05c-6.07,3.44-12.1,4-18.32.36a3.48,3.48,0,0,0-2.81.33,16.74,16.74,0,0,1-13.6,1.14c-1.38-.43-2.57-1.49-4.08-2.4-1,.74-2.18,1.65-3.4,2.47a15.64,15.64,0,0,1-18.14.13c-1.58-1.08-2.62-1-4.25,0-5.12,3-10.37,3.41-15.39-.3-1.36-1-2.17-.39-3.23.4a12.79,12.79,0,0,1-16.4-.5c-1.48-1.26-2.59-2.69-1.82-4.45,3.81.77,7.45,2.09,11.08,2.08,4,0,6.66-3.23,9.1-6.49,2.46,3.06,5,5.72,9.17,5.66s6.5-2.85,9.2-5.53c3.24,4.32,7.28,7.14,12.83,6.49s8.38-4.75,11.17-9.23c1.86,4.94,5.47,6.82,10.26,6.72,4.25-.09,7.6-1.66,9.18-6.47,2.38,4.21,5.61,6.41,10.19,6.38s8-1.87,10.19-6.37c2.54,3.86,5.82,6,10.2,6.18a10,10,0,0,0,9.86-5.91c6.23,8.66,13.35,9,20,.85,2.59,3.48,5.8,5.88,10.36,5.81s7.43-2.82,9.49-6.71c4.74,8.55,15.52,7.34,20.15-.1,2.16,4.09,5.43,6.23,10,6.25s8-1.94,10.29-6.37c1.78,4.91,5.31,6.56,9.87,6.47s7.92-2.08,9.61-6.55c9.06,11.57,15.49,12.26,24,2.63,2.69,2.47,5.05,5.46,9.27,5.46s6.62-2.51,9.12-5.75c5.25,8,12,8.45,19.79,3.69,1.16,2.38.17,3.83-1.27,5.11a12.73,12.73,0,0,1-16.38.76c-1.43-1.07-2.29-1.25-3.88-.17-5,3.4-10.14,2.74-15.25-.1-.88-.49-2.53-.74-3.23-.25a16.44,16.44,0,0,1-21.38-1.79A4.76,4.76,0,0,0,398.92,215.95Z"/>
        </g>
        <text class="cls-12" transform="translate(198.48 207.71)">TM</text>
        <circle class="cls-7" cx="407.29" cy="180.39" r="3.21"/>
        <circle class="cls-7" cx="241.41" cy="188.57" r="3.21"/>
    </g>
    <g class="cls-6">
        <path class="cls-7"
              d="M551.85,91.73c4.49-3.12,9.58-4.77,14.88-6.27-.05,3.28-1.21,6.31-1.15,9.47a2.33,2.33,0,0,1,.21,1.89c-.32,4.15-.69,8.3-.72,12.47,0,5.16,0,10.33,0,15.49,0,6.4.47,12.79.84,19.17.15,2.62.2,5.25.31,7.88a267.67,267.67,0,0,0,3.88,35.94,8.1,8.1,0,0,1,.09,2.09l-.14,0c-.06,2.65.84,5.15,1.23,7.72.14.95,1,2.1.25,2.77-.54.49-1.61-.42-2.42-.75a59.32,59.32,0,0,1-17.31-10.46c-.26-1.11.54-1.73,1.14-2.42a9.23,9.23,0,0,1,2.76-2,6.46,6.46,0,0,1-.44-11.18,7.41,7.41,0,0,1-2.59-3.36,6.41,6.41,0,0,1,2-7.15c.54-.49.87-.77.18-1.5-3.35-3.54-3.16-7.11.46-10.4,0-.22-.24-.3-.39-.42-3.53-2.67-3.85-6.68-.72-9.86.7-.71.8-1.15.08-1.94a6.89,6.89,0,0,1-.47-9.46c.46-.6.61-1,.07-1.66a7.4,7.4,0,0,1,0-9.8c.62-.76.53-1.18,0-1.89-2.3-3-2.39-5.28-.37-8.49.4-.63.54-1.07,0-1.69-2.07-2.26-2-4.83-1-7.5a9.77,9.77,0,0,1,.71-1.47,2,2,0,0,0-.22-2.57C552.4,93.61,551.61,92.87,551.85,91.73Z"/>
        <path class="cls-7"
              d="M593.46,174.74c-5.56,0-11.12.07-16.67.06-1,0-1.49,0-1.28,1.4,1.07,7.19,2.51,14.3,3.9,21.42a19.55,19.55,0,0,1,.16,2.66c.07,1.26-.67,1.79-1.79,1.93s-1.52-.62-1.72-1.6c-.71-3.58-1.45-7.15-2.18-10.73-.06-.29-.05-.6-.35-.78a2.5,2.5,0,0,1-.71-1.69c-1.49-8.51-2.92-17-3.65-25.66-.66-7.71-1.07-15.44-1.51-23.17-.47-8.19-.3-16.39-.17-24.58a157.52,157.52,0,0,1,.85-16.79c0-.73-.09-1.51.68-2,.52-2.82.67-5.67,1-8.52.2-2,.48-2.2,2.32-2,1.26.14,1.24.89,1.16,1.77-.17,1.82-.34,3.64-.54,5.45-.11.94.17,1.27,1.18,1.25,2.87-.06,5.74,0,8.61,0a.25.25,0,0,1-.1.42c-1.85.51-3.74.13-5.62.24-.4,0-.79,0-1.19,0-2.43,0-2.43,0-2.68,2.42a9.67,9.67,0,0,0-.3,1.91c-.2,9.57-.58,19.15-.24,28.71.18,4.86,0,9.72.26,14.57s.57,9.89,1,14.84q.56,6.67,1.33,13.32a16.24,16.24,0,0,0,.37,2c.37,2.37.37,2.37,2.78,2.37H593C593.42,174.14,593.78,174.23,593.46,174.74Z"/>
        <path class="cls-7"
              d="M589,111.47c.24,5.05.71,10.08,1.2,15.11a5,5,0,0,1-.11,1c-.35.68-1.06.64-1.66.77-1.1.24-2.19.54-3.29.76-.58.12-1.17.24-1.63-.31-.9-2.16-.58-4.48-.75-6.72-.21-2.74-.42-5.5-.42-8.26a3.5,3.5,0,0,1,.31-1.87A9.66,9.66,0,0,1,589,111.47Z"/>
        <path class="cls-7"
              d="M583.73,128.94l6.35-1.34c.74,2.39.58,4.9.92,7.34a80.62,80.62,0,0,1,1.15,8.48,9.72,9.72,0,0,1-6.29,1.54,4.3,4.3,0,0,1-.69-2.08c-.78-4.07-1.22-8.19-1.79-12.29C583.3,130,583.19,129.4,583.73,128.94Z"/>
        <path class="cls-7"
              d="M595,155.8l4.27,15.45a11,11,0,0,1-6.28,1.67,1.53,1.53,0,0,1-.71-1c-1.21-4.24-2.25-8.53-3.3-12.82a2.49,2.49,0,0,1,0-1.88A10.29,10.29,0,0,1,595,155.8Z"/>
        <path class="cls-7"
              d="M589,111.47l-6.14.45a1.61,1.61,0,0,1-.51-1.47c0-3.4-.12-6.79-.3-10.18a8.21,8.21,0,0,1,.57-3.76.82.82,0,0,1,.6-.38c1.94,0,3.9-.13,5.7.82C589.09,101.79,589.15,106.63,589,111.47Z"/>
        <path class="cls-7"
              d="M595,155.8l-6,1.49c-.63-.19-.7-.78-.86-1.28-1-3.16-1.6-6.41-2.25-9.64-.1-.48-.19-1,.26-1.37l6-1.57C593.32,147.5,594.09,151.66,595,155.8Z"/>
        <path class="cls-7"
              d="M588.92,97l-6.12-.67a.44.44,0,0,1-.4-.22,4.94,4.94,0,0,1,.27-2.61.45.45,0,0,0,.05-.23c.13-1.18.23-2.36.41-3.53a3.42,3.42,0,0,1,1.65-2.84c2.5-1.26,4-.59,4.18,2.15A37.86,37.86,0,0,1,588.92,97Z"/>
        <path class="cls-7"
              d="M593,172.87l6.26-1.62a17.25,17.25,0,0,1,2,7.21c.07,1.3-.1,2.73-1.58,3.19s-2.44-.38-3.35-1.58c-1.25-1.65-1.7-3.67-2.84-5.34l-.16-.44A1,1,0,0,1,593,172.87Z"/>
        <path class="cls-7"
              d="M575.24,172.18l17.36-.07.37,1.08.33,1.52c-.45.47-1,.29-1.55.29H577.84C575.27,175,575.27,175,575.24,172.18Z"/>
        <path class="cls-7" d="M582.71,95.84h-9.85c-.3-2.48-.16-2.65,2.25-2.64l7.56,0Z"/>
        <g id="ySpcnM.tif-4" data-name="ySpcnM.tif">
            <path class="cls-7"
                  d="M551.92,184.35c-2.51-3.29-2.42-6.67-.59-10.18a1.77,1.77,0,0,0-.06-1.44,9.71,9.71,0,0,1,.15-9.89,2.21,2.21,0,0,0,.06-1.81,9.26,9.26,0,0,1-.25-9.08,2,2,0,0,0,.06-1.59c-1.89-3.35-1.61-6.6.15-9.89a2,2,0,0,0,0-1.64,9.55,9.55,0,0,1-.12-9.88,1.82,1.82,0,0,0,0-1.46,9.14,9.14,0,0,1,.32-9.33,1.7,1.7,0,0,0,0-1.44c-1.93-3.4-2.23-6.78-.2-10.26a2,2,0,0,0-.18-1.57,9.38,9.38,0,0,1-.64-7.62A11.94,11.94,0,0,1,551.89,95c-.41-.57-.92-1.22-1.38-1.9a8.76,8.76,0,0,1-.07-10.16,1.86,1.86,0,0,0,0-2.38c-1.7-2.87-1.91-5.81.17-8.62.56-.76.22-1.21-.22-1.81a7.16,7.16,0,0,1,.28-9.18c.7-.83,1.51-1.45,2.49-1C552.73,62,552,64.06,552,66.1c0,2.26,1.81,3.73,3.64,5.1-1.71,1.38-3.2,2.78-3.17,5.14s1.6,3.64,3.1,5.15c-2.42,1.81-4,4.08-3.64,7.19s2.66,4.7,5.17,6.26a5.44,5.44,0,0,0-3.77,5.75c0,2.38.93,4.26,3.62,5.14a6.16,6.16,0,0,0-3.57,5.71,5.84,5.84,0,0,0,3.57,5.71,6.85,6.85,0,0,0-3.46,5.71,5.61,5.61,0,0,0,3.31,5.52c-4.85,3.49-5,7.48-.47,11.19-1.95,1.45-3.29,3.25-3.26,5.8s1.58,4.17,3.76,5.31c-4.79,2.66-4.11,8.69.06,11.29a6.35,6.35,0,0,0,.07,11.39c-2.75,1-3.67,3-3.62,5.53a5.36,5.36,0,0,0,3.67,5.38c-6.48,5.08-6.87,8.68-1.47,13.47-1.39,1.51-3.06,2.83-3.06,5.19s1.41,3.71,3.22,5.11c-4.49,2.94-4.74,6.75-2.07,11.09a2.15,2.15,0,0,1-2.86-.71,7.13,7.13,0,0,1-.43-9.18,1.54,1.54,0,0,0,.1-2.17c-1.91-2.81-1.53-5.68.05-8.55a2.13,2.13,0,0,0,.14-1.81,9.21,9.21,0,0,1,1-12A2.67,2.67,0,0,0,551.92,184.35Z"/>
        </g>
        <text class="cls-13" transform="translate(556.53 72.06) rotate(90)">TM</text>
        <circle class="cls-7" cx="571.83" cy="189.04" r="1.8"/>
        <circle class="cls-7" cx="567.26" cy="96.11" r="1.8"/>
    </g>
    <line class="cls-10" x1="516.29" y1="37" x2="516.29" y2="38"/>
    <line class="cls-11" x1="516.29" y1="39.98" x2="516.29" y2="241.1"/>
    <line class="cls-10" x1="516.29" y1="242.09" x2="516.29" y2="243.09"/>
    <path class="cls-14"
          d="M79.86,176.77a55.53,55.53,0,0,1,4.38-5.44s-18.11-6-25.61,1.09-12.26,28.06-12.26,28.06l-5,37.45A212.09,212.09,0,0,1,35.59,260c-3.54,11.31-7.78,24.25-16.15,33-2.31,2.41-6.33,5-9.82,4.44a3.61,3.61,0,0,1-2.94-2.2c-.41-1.21.06-2.56-.16-3.82a.75.75,0,0,0-.27-.52c-.32-.21-.73.1-1,.38a10.83,10.83,0,0,0-2.07,3.06,3.72,3.72,0,0,0-.06,2.92,4.39,4.39,0,0,0,2.31,2c4.25,1.89,9.54,1,13.71-.71a31.79,31.79,0,0,0,11.34-8.29C39.26,280.58,46,267.38,49.86,255c.06-.18.53-2,.6-2,13.31.14,26.86-7.15,31.6-20,2.16-5.85,2.53-12.82,2-19-.5-5.79-2.24-12.49-7.65-15.6a12.23,12.23,0,0,0-2.76-1.15s-7.56-6.64-7.56-15.22c0-3.44-.42-6.52,3.57-7.17a9.54,9.54,0,0,1,5.31.41c1.47.74,3.6.61,4.88,1.64C79.83,176.83,79.84,176.81,79.86,176.77Z"/>
    <path class="cls-7"
          d="M79.88,176.79s-5.18,15.39.82,25.33c0,0-14-8.17-16.89-17C63.81,185.1,62.72,165.07,79.88,176.79Z"/>
    <path class="cls-15"
          d="M82,174s-18.58-7.69-20,4.07c0,0-4.87,14.65,5.19,22.65,0,0-27.21,101.72-60.6,99,0,0-2.18-.68-2.79-1.54s-.34.56-.61-.86a9.58,9.58,0,0,1,.38-3.58l1.75-2.41s1.31.74,1.28,1.83a12.69,12.69,0,0,0,.14,2.13,15.42,15.42,0,0,0,2.23,1c.73.18,3.63,1.17,4.66.73a9.69,9.69,0,0,0,4-2.22C19.44,293,37.4,275.9,44.85,217.42c0,0,2.73-38.91,19.16-47.78a54.46,54.46,0,0,1,20.22,1.7Z"/>
    <circle class="cls-16" cx="70.44" cy="179.78" r="1.73"/>
    <polygon class="cls-1" points="67.12 200.71 67.12 200.71 67.12 200.71 67.12 200.71"/>
    <g class="left-wing" transform="rotate(0 0 0)">
        <animateTransform id="wingup"
                          attributeName="transform"
                          type="rotate"
                          values="-45 67.12 200.71; 10 67.12 200.71; -45 67.12 200.71"
                          dur="0.5s"
                          fill="freeze"
                          repeatCount="indefinite" />

        <path class="cls-17"
              d="M8.17,172a1.67,1.67,0,0,0-.43.19,1.58,1.58,0,0,1,.22-.47c.5-.68,1.33-.49,2.15-.08C9.69,171.47,9.36,171.62,8.17,172Z"/>
        <path class="cls-17"
              d="M8.2,173.62a28,28,0,0,0,5.93,11.5c-.17.63.34,1.35.59,1.93.42,1,.85,1.91,1.26,2.87.23.53.77,2.58,1.61,2.5-1.08.1-3-.25-3.62,1s1.6,4.68,2.21,5.73A27.21,27.21,0,0,0,20,204.19c.49.51,1,1,1.54,1.45v0a67,67,0,0,1-7.12-7.88q-2-2.83-3.86-5.7c-2.35-3.55-5.2-7-6.48-11.09-.07-.23-.13-.52.05-.69.6-.55,2,1.12,2.36,1.42a7.69,7.69,0,0,0,2.84,1.36c2.19.43,1.53-1.13.69-2.57a15.66,15.66,0,0,1-2.42-7.28c0-.07,0-.14,0-.21A2.67,2.67,0,0,0,8.2,173.62Z"/>
        <path class="cls-17"
              d="M10.64,171.93c.57.35,1.09.75,1.42.95a9.27,9.27,0,0,1,1.62,1.25l.13.17S11.46,172.47,10.64,171.93Z"/>
        <path class="cls-17"
              d="M11.27,165.87c.92.45,2.63,4.43,3,5.08a42.8,42.8,0,0,0,4.08,5.68l.53.59H18.8C14.67,174.49,11.27,165.87,11.27,165.87Z"/>
        <path class="cls-17" d="M10.23,166.73a1.21,1.21,0,0,0-.08.15Z"/>
        <path class="cls-17" d="M9.88,168.93l3.7,5.07C12.2,172.42,10.28,170.73,9.88,168.93Z"/>
        <path class="cls-17"
              d="M11,165.83a.32.32,0,0,1,.22,0,2.55,2.55,0,0,0-1,.78,4.27,4.27,0,0,1,.41-.57A.78.78,0,0,1,11,165.83Z"/>
        <path class="cls-17" d="M10.09,167a6.22,6.22,0,0,0-.23,1.84A2.87,2.87,0,0,1,10.09,167Z"/>
        <path class="cls-18" d="M35.11,186.29l.11,0h0Z"/>
        <path class="cls-18" d="M30.45,184.25l.12.06-.08,0Z"/>
        <path class="cls-18" d="M18.9,177.22a4.12,4.12,0,0,1,2.22.92,6,6,0,0,0-2.07-.75Z"/>
        <path class="cls-18"
              d="M24.44,193.88l.93.58a1.27,1.27,0,0,0-.32.67c-.29,2.09,4.43,2.57,5.73,3.09,2,.8,4.06,1.53,6.09,2.31A48.71,48.71,0,0,1,42.1,203c1.42.77,2,1.78,0,1.92-2.58.17-5.68-1.55-8.15-2.2-2.19-.58-8.57-2.41-8.24,1.75.25,3.2,2.47,5.34,4.94,7.09l.26.16-.89-.41a36.36,36.36,0,0,1-8.49-5.71l1.35-9.17Z"/>
        <path class="cls-18" d="M19,177.38l-.24-.17h.11l.15.17Z"/>
        <path class="cls-18"
              d="M16.2,199.14c-.61-1-2.83-4.5-2.21-5.73s2.55-.88,3.62-1c-.84.08-1.38-2-1.61-2.5-.42-1-.84-1.92-1.26-2.87-.26-.58-.76-1.3-.59-1.93a44.08,44.08,0,0,0,10.3,8.76l-1.54,2.59-1.35,9.17c-.52-.47-1-.94-1.54-1.45A27.21,27.21,0,0,1,16.2,199.14Z"/>
        <path class="cls-15"
              d="M41.81,215.43l2.46-2.18,2.55-4.45.53-5.13a130,130,0,0,0,19.52,4,8.81,8.81,0,0,1-3,4.76,22.1,22.1,0,0,1-9,4.51,36.15,36.15,0,0,1-6,.41A30.37,30.37,0,0,1,41.06,216l-2.38-.71a28.06,28.06,0,0,1-7.76-3.5,52.53,52.53,0,0,0,7.4,2.79C38.7,214.67,41.47,215.73,41.81,215.43Z"/>
        <path class="cls-15"
              d="M35.21,186.33c.63,0,1.12.11,1.33.15a72.85,72.85,0,0,1,10.21,2.78c-5-1.46-9.09-2.09-9.63-2.24S35.85,186.57,35.21,186.33Z"/>
        <path class="cls-15" d="M64,198.74c2.31,2.68,3.53,5.91,2.87,9A11.78,11.78,0,0,0,64,198.74Z"/>
        <path class="cls-15"
              d="M25.72,204.51c-.33-4.16,6-2.33,8.24-1.75,2.47.65,5.56,2.37,8.15,2.2,2-.13,1.41-1.14,0-1.92a48.71,48.71,0,0,0-5.25-2.52c-2-.78-4.07-1.51-6.09-2.31-1.29-.51-6-1-5.73-3.09a1.27,1.27,0,0,1,.32-.67,91.65,91.65,0,0,0,22,9.21l-.53,5.13-2.55,4.45-2.46,2.18c-.34.3-3.11-.77-3.49-.88a52.53,52.53,0,0,1-7.4-2.79l-.26-.16C28.19,209.85,26,207.72,25.72,204.51Z"/>
        <path class="cls-15" d="M37.09,187c-1.13-.38-1.89-.69-1.89-.69h0q1,.36,1.91.7Z"/>
        <path class="cls-1" d="M35.11,186.29q-2.31-.89-4.53-2Z"/>
        <path class="cls-1" d="M7.73,172.18a3,3,0,0,0-.12.87A.55.55,0,0,1,7.73,172.18Z"/>
        <path class="cls-1" d="M13.68,174.13l-.1-.14.3.35Z"/>
        <path class="cls-1" d="M9.86,168.91v0l0,.06Z"/>
        <path class="cls-1" d="M10.25,166.69l0,0-.05.07Z"/>
        <path class="cls-1" d="M10.16,166.87c0,.05,0,.11-.07.16A1.64,1.64,0,0,1,10.16,166.87Z"/>
        <path class="cls-1" d="M10.64,171.93h0l-.54-.3A2.78,2.78,0,0,1,10.64,171.93Z"/>
        <path class="cls-1"
              d="M21.72,178.62c-.18-.17-.38-.33-.59-.48h0c.58.47,8.93,5.86,9.33,6.12-1.06-.52-2.11-1.06-3.13-1.65A31.44,31.44,0,0,1,21.72,178.62Z"/>
        <polygon class="cls-1" points="11.27 165.87 11.27 165.87 11.27 165.87 11.27 165.87"/>
        <path class="cls-1"
              d="M62.33,197.06c-3.94-3.44-8.94-5.47-13.82-7.2l-1.76-.6C52.75,191,60,194,64,198.74A16.79,16.79,0,0,0,62.33,197.06Z"/>
        <path class="cls-17" d="M13.88,174.34a4.79,4.79,0,0,1,1,1.59A5.73,5.73,0,0,0,13.88,174.34Z"/>
        <path class="cls-19"
              d="M11.27,165.87h0s3.4,8.62,7.53,11.35a2.52,2.52,0,0,0-.67.08,2,2,0,0,0-1.54,1.79,2.81,2.81,0,0,0,1.25,2.11,9.24,9.24,0,0,1,1.91,1.66c.4.56.38,1.34-.37,1.58a2.45,2.45,0,0,1-.85.07c-1,0-2-.36-3-.31a1.72,1.72,0,0,0-1.17.47,1,1,0,0,0-.25.45,28,28,0,0,1-5.93-11.5,2.67,2.67,0,0,1-.59-.57,3,3,0,0,1,.12-.87,1.67,1.67,0,0,1,.43-.19c1.19-.36,1.53-.51,1.94-.36l.54.3c.82.54,3.16,2.38,3.16,2.38l-.13-.17.2.21a5.73,5.73,0,0,1,1,1.59,4.79,4.79,0,0,0-1-1.59l-.3-.35-3.7-5.07,0-.06a6.22,6.22,0,0,1,.23-1.84c0-.05,0-.11.07-.16a1.21,1.21,0,0,1,.08-.15l.05-.07A2.55,2.55,0,0,1,11.27,165.87Z"/>
        <path class="cls-20"
              d="M29.3,187.91a1.72,1.72,0,0,0,.75.8,41.65,41.65,0,0,0,4.55,2.06c2.35,1.18,4.7,2.38,7,3.57.29.15,1.3.58,1,1s-1.21.08-1.52,0c-3.72-1-7.63-2.46-11.53-2.06-1,.1-3.38.22-4.26,1.21l-.93-.58,5.24-8.82a29.92,29.92,0,0,1-10.62-7.68,6,6,0,0,1,2.07.75c.21.15.41.32.59.48a31.44,31.44,0,0,0,5.61,4c1,.59,2.07,1.13,3.13,1.65l0,0,.08,0q2.22,1.08,4.53,2l.09,0C32.88,186.14,28.67,186.11,29.3,187.91Z"/>
        <path class="cls-20"
              d="M19.06,177.39a29.92,29.92,0,0,0,10.62,7.68l-5.24,8.82a44.08,44.08,0,0,1-10.3-8.76,1,1,0,0,1,.25-.45,1.72,1.72,0,0,1,1.17-.47c1,0,2,.28,3,.31a2.45,2.45,0,0,0,.85-.07c.75-.25.77-1,.37-1.58a9.24,9.24,0,0,0-1.91-1.66,2.81,2.81,0,0,1-1.25-2.11,2,2,0,0,1,1.54-1.79,2.52,2.52,0,0,1,.67-.08l.24.17Z"/>
        <path class="cls-14"
              d="M47.71,200.17l-5-11.53Q39.88,188,37.13,187c.53.15,4.63.78,9.63,2.24l1.76.6c4.87,1.72,9.87,3.75,13.82,7.2A16.79,16.79,0,0,1,64,198.74a11.78,11.78,0,0,1,2.87,9h0a130,130,0,0,1-19.52-4Z"/>
        <path class="cls-14"
              d="M29.62,193.24c3.9-.4,7.81,1.09,11.53,2.06.31.08,1.27.35,1.52,0s-.74-.82-1-1c-2.35-1.19-4.69-2.39-7-3.57A41.65,41.65,0,0,1,30,188.71a1.72,1.72,0,0,1-.75-.8c-.63-1.8,3.58-1.77,5.9-1.59h0s.76.31,1.89.69h0q2.75.94,5.58,1.63l5,11.53-.36,3.49a91.65,91.65,0,0,1-22-9.21C26.24,193.47,28.62,193.35,29.62,193.24Z"/>
    </g>
    <path d="M94.46,196.64c-2.09-1.8-7.44-4.67-14.17,4.8,0,0-.46-1.22-1-3.07C79.27,198.36,89,185.55,94.46,196.64Z"/>
    <path d="M77.79,192.23c-.53-3.08-.72-6.34.09-8.73,0,0,.1.2.28.52,0,.28,0,.56.08.83A46.91,46.91,0,0,0,77.79,192.23Z"/>
    <path class="cls-21"
          d="M79.27,178.94s-.52,2.29-.95,5.34l-.16-.26a16.42,16.42,0,0,1,1.72-7.24l4.36-5.45c9,3.54,11.44,8.72,11.44,8.72,7.9,12.26,0,20.43,0,20.43,0-.33,0-.62-.05-.93l0,.08S99.33,178.06,79.27,178.94Z"/>
    <path class="cls-21" d="M78.24,184.86c0-.28-.07-.55-.08-.83l.16.26Z"/>
    <path class="cls-1" d="M88.65,190.81a11.58,11.58,0,0,1-1.37-.13A7.86,7.86,0,0,1,88.65,190.81Z"/>
    <path class="cls-1" d="M77.79,192.23a52.94,52.94,0,0,0,1.48,6.13h0C78.28,197,77.87,194.72,77.79,192.23Z"/>
    <path class="cls-1" d="M95.39,197.57a13.81,13.81,0,0,1,.24,2,21,21,0,0,0-1.17-2.91A7.51,7.51,0,0,1,95.39,197.57Z"/>
    <path class="cls-22"
          d="M78.24,184.86c.45,3,2.64,5.7,9,5.82h0a11.58,11.58,0,0,0,1.37.13,8.06,8.06,0,0,1,6.74,6.75,7.51,7.51,0,0,0-.92-.93c-5.5-11.09-15.2,1.73-15.2,1.73a52.82,52.82,0,0,1-1.48-6.13A46.91,46.91,0,0,1,78.24,184.86Z"/>
    <path class="cls-23"
          d="M95.41,197.6c-1.22-7.24-6.75-6.79-6.75-6.79h0a7.86,7.86,0,0,0-1.37-.13c-5-.79-7.93-4.71-9-6.39.43-3.06.95-5.34.95-5.34,20.06-.89,16.39,20.69,16.39,20.69l0-.08a13.81,13.81,0,0,0-.24-2Z"/>
    <path class="cls-23" d="M87.28,190.68h0c-6.36-.12-8.54-2.83-9-5.82l.08-.57C79.35,186,82.25,189.88,87.28,190.68Z"/>
    <path class="cls-21" d="M95.41,197.6l0,0a8.06,8.06,0,0,0-6.74-6.75h0S94.19,190.36,95.41,197.6Z"/>
    <path class="cls-14"
          d="M691.57,19a55.53,55.53,0,0,0-4.38-5.44s18.11-6,25.61,1.09,12.26,28.06,12.26,28.06l5,37.45a212.09,212.09,0,0,0,5.75,22.1c3.54,11.31,7.78,24.25,16.15,33,2.31,2.41,6.33,5,9.82,4.44a3.61,3.61,0,0,0,2.94-2.2c.41-1.21-.06-2.56.16-3.82a.75.75,0,0,1,.27-.52c.32-.21.73.1,1,.38a10.83,10.83,0,0,1,2.07,3.06,3.72,3.72,0,0,1,.06,2.92,4.39,4.39,0,0,1-2.31,2c-4.25,1.89-9.54,1-13.71-.71a31.79,31.79,0,0,1-11.34-8.29c-8.78-9.69-15.5-22.89-19.38-35.32-.06-.18-.53-2-.6-2-13.31.14-26.86-7.15-31.6-20-2.16-5.85-2.53-12.82-2-19,.5-5.79,2.24-12.49,7.65-15.6a12.23,12.23,0,0,1,2.76-1.15s7.56-6.64,7.56-15.22c0-3.44.42-6.52-3.57-7.17a9.54,9.54,0,0,0-5.31.41c-1.47.74-3.6.61-4.88,1.64C691.6,19.06,691.59,19,691.57,19Z"/>
    <path class="cls-7" d="M691.55,19s5.18,15.39-.82,25.33c0,0,14-8.17,16.89-17C707.62,27.32,708.71,7.3,691.55,19Z"/>
    <path class="cls-15"
          d="M689.47,16.21s18.58-7.69,20,4.07c0,0,4.87,14.65-5.19,22.65,0,0,27.21,101.72,60.6,99,0,0,2.18-.68,2.79-1.54s.34.56.61-.86a9.58,9.58,0,0,0-.38-3.58l-1.75-2.41s-1.31.74-1.28,1.83a12.69,12.69,0,0,1-.14,2.13,15.42,15.42,0,0,1-2.23,1c-.73.18-3.63,1.17-4.66.73a9.69,9.69,0,0,1-4-2.22C752,135.26,734,118.12,726.58,59.64c0,0-2.73-38.91-19.16-47.78a54.46,54.46,0,0,0-20.22,1.7Z"/>
    <circle class="cls-16" cx="700.99" cy="22.01" r="1.73"/>
    <g class="right-wing">
        <animateTransform id="wingdown"
                          attributeName="transform"
                          type="rotate"
                          values="40 704.31 42.93; -10 704.31 42.93; 40 704.31 42.93"
                          dur="0.5s"
                          fill="freeze"
                          repeatCount="indefinite" />
    <polygon class="cls-1" points="704.31 42.93 704.31 42.93 704.31 42.93 704.31 42.93"/>
    <path class="cls-17"
          d="M763.26,14.21a1.67,1.67,0,0,1,.43.19,1.58,1.58,0,0,0-.22-.47c-.5-.68-1.33-.49-2.15-.08C761.74,13.7,762.07,13.85,763.26,14.21Z"/>
    <path class="cls-17"
          d="M763.22,15.84a28,28,0,0,1-5.93,11.5c.17.63-.34,1.35-.59,1.93-.42,1-.85,1.91-1.26,2.87-.23.53-.77,2.58-1.61,2.5,1.08.1,3-.25,3.62,1s-1.6,4.68-2.21,5.73a27.21,27.21,0,0,1-3.81,5.05c-.49.51-1,1-1.54,1.45v0A67,67,0,0,0,757,40q2-2.83,3.86-5.7c2.35-3.55,5.2-7,6.48-11.09.07-.23.13-.52-.05-.69-.6-.55-2,1.12-2.36,1.42a7.69,7.69,0,0,1-2.84,1.36c-2.19.43-1.53-1.13-.69-2.57a15.66,15.66,0,0,0,2.42-7.28c0-.07,0-.14,0-.21A2.67,2.67,0,0,1,763.22,15.84Z"/>
    <path class="cls-17"
          d="M760.79,14.15c-.57.35-1.09.75-1.42.95a9.27,9.27,0,0,0-1.62,1.25l-.13.17S760,14.7,760.79,14.15Z"/>
    <path class="cls-17"
          d="M760.16,8.09c-.92.45-2.63,4.43-3,5.08a42.8,42.8,0,0,1-4.08,5.68l-.53.59h.11C756.76,16.71,760.16,8.09,760.16,8.09Z"/>
    <path class="cls-17" d="M761.2,9a1.21,1.21,0,0,1,.08.15Z"/>
    <path class="cls-17" d="M761.55,11.15l-3.7,5.07C759.23,14.65,761.15,13,761.55,11.15Z"/>
    <path class="cls-17"
          d="M760.38,8.05a.32.32,0,0,0-.22,0,2.55,2.55,0,0,1,1,.78,4.27,4.27,0,0,0-.41-.57A.78.78,0,0,0,760.38,8.05Z"/>
    <path class="cls-17" d="M761.34,9.26a6.22,6.22,0,0,1,.23,1.84A2.87,2.87,0,0,0,761.34,9.26Z"/>
    <path class="cls-18" d="M736.32,28.51l-.11,0h0Z"/>
    <path class="cls-18" d="M741,26.48l-.12.06.08,0Z"/>
    <path class="cls-18" d="M752.53,19.44a4.12,4.12,0,0,0-2.22.92,6,6,0,0,1,2.07-.75Z"/>
    <path class="cls-18"
          d="M747,36.11l-.93.58a1.27,1.27,0,0,1,.32.67c.29,2.09-4.43,2.57-5.73,3.09-2,.8-4.06,1.53-6.09,2.31a48.71,48.71,0,0,0-5.25,2.52c-1.42.77-2,1.78,0,1.92,2.58.17,5.68-1.55,8.15-2.2,2.19-.58,8.57-2.41,8.24,1.75-.25,3.2-2.47,5.34-4.94,7.09l-.26.16.89-.41a36.36,36.36,0,0,0,8.49-5.71l-1.35-9.17Z"/>
    <path class="cls-18" d="M752.39,19.61l.24-.17h-.11l-.15.17Z"/>
    <path class="cls-18"
          d="M755.23,41.36c.61-1,2.83-4.5,2.21-5.73s-2.55-.88-3.62-1c.84.08,1.38-2,1.61-2.5.42-1,.84-1.92,1.26-2.87.26-.58.76-1.3.59-1.93A44.08,44.08,0,0,1,747,36.11l1.54,2.59,1.35,9.17c.52-.47,1-.94,1.54-1.45A27.21,27.21,0,0,0,755.23,41.36Z"/>
    <path class="cls-15"
          d="M729.62,57.66l-2.46-2.18L724.6,51l-.53-5.13a130,130,0,0,1-19.52,4,8.81,8.81,0,0,0,3,4.76,22.1,22.1,0,0,0,9,4.51,36.15,36.15,0,0,0,6,.41,30.37,30.37,0,0,0,7.84-1.43l2.38-.71A28.06,28.06,0,0,0,740.5,54a52.53,52.53,0,0,1-7.4,2.79C732.73,56.89,730,58,729.62,57.66Z"/>
    <path class="cls-15"
          d="M736.22,28.55c-.63,0-1.12.11-1.33.15a72.85,72.85,0,0,0-10.21,2.78c5-1.46,9.09-2.09,9.63-2.24S735.58,28.79,736.22,28.55Z"/>
    <path class="cls-15" d="M707.42,41c-2.31,2.68-3.53,5.91-2.87,9A11.78,11.78,0,0,1,707.42,41Z"/>
    <path class="cls-15"
          d="M745.71,46.74c.33-4.16-6-2.33-8.24-1.75-2.47.65-5.56,2.37-8.15,2.2-2-.13-1.41-1.14,0-1.92a48.71,48.71,0,0,1,5.25-2.52c2-.78,4.07-1.51,6.09-2.31,1.29-.51,6-1,5.73-3.09a1.27,1.27,0,0,0-.32-.67,91.65,91.65,0,0,1-22,9.21L724.6,51l2.55,4.45,2.46,2.18c.34.3,3.11-.77,3.49-.88A52.53,52.53,0,0,0,740.5,54l.26-.16C743.24,52.08,745.46,49.94,745.71,46.74Z"/>
    <path class="cls-15" d="M734.34,29.23c1.13-.38,1.89-.69,1.89-.69h0q-1,.36-1.91.7Z"/>
    <path class="cls-1" d="M736.32,28.51q2.31-.89,4.53-2Z"/>
    <path class="cls-1" d="M763.7,14.4a3,3,0,0,1,.12.87A.55.55,0,0,0,763.7,14.4Z"/>
    <path class="cls-1" d="M757.75,16.35l.1-.14-.3.35Z"/>
    <path class="cls-1" d="M761.57,11.13v0l0,.06Z"/>
    <path class="cls-1" d="M761.18,8.91l0,0,.05.07Z"/>
    <path class="cls-1" d="M761.27,9.1c0,.05,0,.11.07.16A1.64,1.64,0,0,0,761.27,9.1Z"/>
    <path class="cls-1" d="M760.79,14.15h0l.54-.3A2.78,2.78,0,0,0,760.79,14.15Z"/>
    <path class="cls-1"
          d="M749.71,20.84c.18-.17.38-.33.59-.48h0c-.58.47-8.93,5.86-9.33,6.12,1.06-.52,2.11-1.06,3.13-1.65A31.44,31.44,0,0,0,749.71,20.84Z"/>
    <polygon class="cls-1" points="760.16 8.09 760.16 8.09 760.16 8.09 760.16 8.09"/>
    <path class="cls-1"
          d="M709.1,39.28c3.94-3.44,8.94-5.47,13.82-7.2l1.76-.6c-6,1.75-13.28,4.7-17.25,9.48A16.79,16.79,0,0,1,709.1,39.28Z"/>
    <path class="cls-17" d="M757.55,16.56a4.79,4.79,0,0,0-1,1.59A5.73,5.73,0,0,1,757.55,16.56Z"/>
    <path class="cls-19"
          d="M760.16,8.09h0s-3.4,8.62-7.53,11.35a2.52,2.52,0,0,1,.67.08,2,2,0,0,1,1.54,1.79,2.81,2.81,0,0,1-1.25,2.11,9.24,9.24,0,0,0-1.91,1.66c-.4.56-.38,1.34.37,1.58a2.45,2.45,0,0,0,.85.07c1,0,2-.36,3-.31a1.72,1.72,0,0,1,1.17.47,1,1,0,0,1,.25.45,28,28,0,0,0,5.93-11.5,2.67,2.67,0,0,0,.59-.57,3,3,0,0,0-.12-.87,1.67,1.67,0,0,0-.43-.19c-1.19-.36-1.53-.51-1.94-.36l-.54.3c-.82.54-3.16,2.38-3.16,2.38l.13-.17-.2.21a5.73,5.73,0,0,0-1,1.59,4.79,4.79,0,0,1,1-1.59l.3-.35,3.7-5.07,0-.06a6.22,6.22,0,0,0-.23-1.84c0-.05,0-.11-.07-.16A1.21,1.21,0,0,0,761.2,9l-.05-.07A2.55,2.55,0,0,0,760.16,8.09Z"/>
    <path class="cls-20"
          d="M742.13,30.14a1.72,1.72,0,0,1-.75.8A41.65,41.65,0,0,1,736.84,33c-2.35,1.18-4.7,2.38-7,3.57-.29.15-1.3.58-1,1s1.21.08,1.52,0c3.72-1,7.63-2.46,11.53-2.06,1,.1,3.38.22,4.26,1.21l.93-.58-5.24-8.82a29.92,29.92,0,0,0,10.62-7.68,6,6,0,0,0-2.07.75c-.21.15-.41.32-.59.48a31.44,31.44,0,0,1-5.61,4c-1,.59-2.07,1.13-3.13,1.65l0,0-.08,0q-2.22,1.08-4.53,2l-.09,0C738.55,28.37,742.76,28.33,742.13,30.14Z"/>
    <path class="cls-20"
          d="M752.37,19.61a29.92,29.92,0,0,1-10.62,7.68L747,36.11a44.08,44.08,0,0,0,10.3-8.76,1,1,0,0,0-.25-.45,1.72,1.72,0,0,0-1.17-.47c-1,0-2,.28-3,.31a2.45,2.45,0,0,1-.85-.07c-.75-.25-.77-1-.37-1.58a9.24,9.24,0,0,1,1.91-1.66,2.81,2.81,0,0,0,1.25-2.11,2,2,0,0,0-1.54-1.79,2.52,2.52,0,0,0-.67-.08l-.24.17Z"/>
    <path class="cls-14"
          d="M723.71,42.4l5-11.53q2.83-.68,5.58-1.63c-.53.15-4.63.78-9.63,2.24l-1.76.6c-4.87,1.72-9.87,3.75-13.82,7.2A16.79,16.79,0,0,0,707.42,41a11.78,11.78,0,0,0-2.87,9h0a130,130,0,0,0,19.52-4Z"/>
    <path class="cls-14"
          d="M741.81,35.47c-3.9-.4-7.81,1.09-11.53,2.06-.31.08-1.27.35-1.52,0s.74-.82,1-1c2.35-1.19,4.69-2.39,7-3.57a41.65,41.65,0,0,0,4.55-2.06,1.72,1.72,0,0,0,.75-.8c.63-1.8-3.58-1.77-5.9-1.59h0s-.76.31-1.89.69h0q-2.75.94-5.58,1.63l-5,11.53.36,3.49a91.65,91.65,0,0,0,22-9.21C745.19,35.69,742.81,35.57,741.81,35.47Z"/>
    </g>
    <path d="M677,38.86c2.09-1.8,7.44-4.67,14.17,4.8,0,0,.46-1.22,1-3.07C692.16,40.59,682.46,27.77,677,38.86Z"/>
    <path d="M693.64,34.46c.53-3.08.72-6.34-.09-8.73,0,0-.1.2-.28.52,0,.28,0,.56-.08.83A46.91,46.91,0,0,1,693.64,34.46Z"/>
    <path class="cls-21"
          d="M692.16,21.17s.52,2.29.95,5.34l.16-.26A16.42,16.42,0,0,0,691.55,19l-4.36-5.45c-9,3.54-11.44,8.72-11.44,8.72-7.9,12.26,0,20.43,0,20.43,0-.33,0-.62.05-.93l0,.08S672.1,20.28,692.16,21.17Z"/>
    <path class="cls-21" d="M693.19,27.08c0-.28.07-.55.08-.83l-.16.26Z"/>
    <path class="cls-1" d="M682.78,33a11.58,11.58,0,0,0,1.37-.13A7.86,7.86,0,0,0,682.78,33Z"/>
    <path class="cls-1" d="M693.64,34.46a52.94,52.94,0,0,1-1.48,6.13h0C693.15,39.2,693.56,36.95,693.64,34.46Z"/>
    <path class="cls-1" d="M676,39.79a13.81,13.81,0,0,0-.24,2A21,21,0,0,1,677,38.86,7.51,7.51,0,0,0,676,39.79Z"/>
    <path class="cls-22"
          d="M693.19,27.08c-.45,3-2.64,5.7-9,5.82h0a11.58,11.58,0,0,1-1.37.13A8.06,8.06,0,0,0,676,39.79a7.51,7.51,0,0,1,.92-.93c5.5-11.09,15.2,1.73,15.2,1.73a52.82,52.82,0,0,0,1.48-6.13A46.91,46.91,0,0,0,693.19,27.08Z"/>
    <path class="cls-23"
          d="M676,39.82c1.22-7.24,6.75-6.79,6.75-6.79h0a7.86,7.86,0,0,1,1.37-.13c5-.79,7.93-4.71,9-6.39-.43-3.06-.95-5.34-.95-5.34-20.06-.89-16.39,20.69-16.39,20.69l0-.08a13.81,13.81,0,0,1,.24-2Z"/>
    <path class="cls-23" d="M684.15,32.9h0c6.36-.12,8.54-2.83,9-5.82l-.08-.57C692.08,28.2,689.18,32.11,684.15,32.9Z"/>
    <path class="cls-21" d="M676,39.82l0,0A8.06,8.06,0,0,1,682.78,33h0S677.24,32.58,676,39.82Z"/>
    <g class="cls-24">
        <image width="8000" height="4500" transform="translate(-3181.49 -716.37) scale(0.61)"
               xlink:href="../../../../Volumes/MADStudios/Projects/Website/Website-Redo/assets/Sky.jpg"/>
    </g>
</svg>