<svg xmlns="http://www.w3.org/2000/svg" viewBox="0 0 203.74 324.88">
    <defs>
        <style>
            .cls-1{fill:#58943f;}.cls-2{fill:#2b672d;}.cls-3{fill:#ededed;}.cls-4{fill:#fff;}.cls-5{fill:#936037;}.cls-6{fill:#845630;}.cls-7{fill:#683c11;}
        </style>
    </defs>
    <title>icn_cocount_1</title>
    <g id="Слой_2" data-name="Слой 2">
        <g id="Layer_1" data-name="Layer 1">
            <g class="cocount-bottom">
                <path class="cls-1"
                      d="M77.51,270.6c6,4.72,11.42,10.07,17.54,14.66,6.67,5,13.57,9.7,20.08,14.92.55.44,1.08.88,1.62,1.33-.2-.95-.4-1.85-.66-2.73-2-6.75-3.84-13.56-6.11-20.22s-5.33-12.78-7.25-19.39c-2.36-8.11-3.9-16.46-5.79-24.71-4.66,7.56-6.38,15.46-5.1,23.59,1.25,8,3.5,15.78,5.3,23.66-6.27-10.88-8.06-23.57-13.18-35H82.7l-2,24.86c-6-.69-5.31-6.76-8-10.92l-1.57,5.81A38.07,38.07,0,0,1,77.51,270.6Z"/>
                <path class="cls-1"
                      d="M177.89,249.28c8.07-2.63,16.33-4.65,24.5-6.95-3.84-1.1-7.92-2.2-11.62-1.45-10.21,2-20.26,4.92-30.4,7.34a65.88,65.88,0,0,1-7.35.93l-.29-1.48c7.77-2.57,15.51-5.27,23.33-7.66s16-4.59,24.67-7c-9.47-1.75-17.59,1.87-26,3.22-8.62,1.38-17.42,1.86-24.75,7.54,6.08-6.91,15.11-7.21,22.88-10.17,8.14-3.1,16.56-5.46,24.86-8.14l-.24-1.15a215.92,215.92,0,0,0-43.15,10.1c.49-6.3.3-13,1.71-19.34s4.46-12.48,6.79-18.7c-5,5-8.55,10.76-9.71,17.55-1.28,7.51-1.73,15.17-2.82,22.72-.39,2.71-1.58,5.3-2.41,7.94l-1.24-.38c.53-3.25,1.26-6.48,1.52-9.75.24-3,2.47-6.67-1.74-8.25-1.69-10.41,4.63-18.4,7.36-27.68-3.43,3.34-6.64,6.86-8.71,11-5.87,11.59-5.37,23.89-2.21,36,1.1,4.2.14,6.85-2.77,10.06-.67-5.53.44-10.46-2.89-15.67-2.86-4.48-2.23-11.44-2.35-17.32-.12-5.67.78-11.36,1.22-16.92,0,0-.33.15-.43.35-7.6,16.29-9,33-1.63,49.56,3,6.88.87,11.65-2.34,16.11-2.32-6.44-4.66-13.16-7.16-19.82-3.38-9-4.22-18-.75-27.32,1.18-3.18.58-7,.79-10.57-10.61,15.93-10,41.38.56,59.37,3.4,5.81,2.79,10.54-1.27,14.9-2.16-7.69-4.73-15.89-6.73-24.23-2.17-9.08-4.08-18.25-5.58-27.46-.79-4.82-.45-9.83-.63-14.75L109,221a22.58,22.58,0,0,1-1.35,4.14c-5.39,9.78-5.47,20.19-3.85,30.82,1.91,12.46,7.92,23.11,14.74,33.4,3.27,4.93,3.1,8.41-.81,13A134.74,134.74,0,0,1,136.5,322c14.48-1.71,29-1.35,42.95,2.52l11-6.13-.44-.92-31.34,1.12,0-1.06,35.12-14.31c-15.73-2.14-30.58,1.8-45.67,4.2,14.93-7.73,31.25-11.5,47-17.2-5.47-.92-11-2.09-16.26-1.21-7.61,1.27-14.95,4.1-22.44,6.11-4.57,1.22-9.21,2.15-13.82,3.2l-.45-1.77,57.46-17.3c-4.59-1.39-9.71-3.08-14.31-2.17-14.47,2.86-28.76,6.66-43.09,10.22a22.81,22.81,0,0,0-6.33,2.77c-4.23,2.61-8.31,5.48-12.45,8.24.59-2.39,1.7-4.61,3.49-5.8a65.77,65.77,0,0,1,11.75-6.45c20.13-8.05,40.2-16.34,61.67-20.36a8,8,0,0,0,1.45-.57c-3.77-1.35-7.68-2.46-11.27-1.79-5.06.95-9.78,3.52-14.8,4.83-8.8,2.31-17.65,5.32-26.61,5.84-5.36.31-8.94,2.41-12.73,5-2.66,1.82-4.89,4.26-7.72,6.79,1.93-8.4,8.36-11.86,14.83-14.2,13.59-4.92,27.47-9.07,41.32-13.24,5.85-1.77,11.92-2.81,18.89-4.41-8.27-3.35-15.41-2.6-22.67-.6-6,1.65-12,3-18.12,4.2-8.16,1.62-16.63,2.27-22.94,8.72a9,9,0,0,1-2.23,1.25l-.95-1.24c1.81-1.55,3.38-3.77,5.48-4.55C154.09,257.37,165.94,253.17,177.89,249.28Z"/>
                <path class="cls-1"
                      d="M175.31,193.94l-12.08,26.63,1.38.7c1.67-2.93,3.37-5.85,5-8.8a11.11,11.11,0,0,1,7.21-6c4.8-1.41,9-4.66,13.61-7.16l-26.34,25L196,215l.54,1.78-38.19,14.58C156.3,220.08,165.33,200.36,175.31,193.94Z"/>
                <path class="cls-2"
                      d="M81.68,274.39c5.47,4.3,10.41,9.18,16,13.36,6.08,4.56,12.36,8.84,18.3,13.59.5.4,1,.81,1.48,1.21-.18-.86-.36-1.69-.6-2.49-1.82-6.16-3.5-12.36-5.57-18.43S106.42,270,104.66,264c-2.15-7.39-3.55-15-5.28-22.52A30.88,30.88,0,0,0,94.74,263c1.14,7.26,3.19,14.38,4.83,21.56-5.72-9.91-7.34-21.48-12-31.85H86.41l-1.83,22.66c-5.49-.63-4.84-6.16-7.32-10l-1.43,5.3A34.7,34.7,0,0,1,81.68,274.39Z"/>
                <path class="cls-2"
                      d="M173.17,255c7.35-2.39,14.88-4.24,22.33-6.33-3.5-1-7.21-2-10.59-1.32-9.31,1.87-18.46,4.48-27.7,6.69a60,60,0,0,1-6.7.85l-.26-1.35c7.08-2.34,14.13-4.8,21.26-7s14.6-4.18,22.48-6.42c-8.63-1.59-16,1.7-23.71,2.93-7.86,1.26-15.88,1.7-22.56,6.87,5.54-6.3,13.77-6.57,20.86-9.27,7.42-2.83,15.09-5,22.65-7.42l-.22-1.05a196.78,196.78,0,0,0-39.33,9.21c.45-5.74.27-11.85,1.56-17.63s4.06-11.37,6.18-17c-4.58,4.52-7.8,9.8-8.85,16-1.16,6.85-1.58,13.82-2.57,20.7-.36,2.47-1.44,4.83-2.2,7.24l-1.13-.34c.48-3,1.15-5.9,1.38-8.88.22-2.71,2.25-6.08-1.59-7.52-1.54-9.48,4.22-16.77,6.71-25.22a39.14,39.14,0,0,0-7.94,10c-5.35,10.56-4.9,21.78-2,32.82,1,3.83.13,6.24-2.52,9.17-.61-5,.4-9.53-2.63-14.28-2.6-4.08-2-10.43-2.14-15.79-.11-5.17.71-10.36,1.11-15.42,0,0-.3.14-.39.32-6.93,14.84-8.16,30.06-1.48,45.16,2.78,6.27.8,10.62-2.13,14.69-2.11-5.87-4.25-12-6.52-18.06-3.08-8.24-3.84-16.39-.69-24.9,1.08-2.9.53-6.4.72-9.63-9.67,14.51-9.09,37.71.51,54.11,3.1,5.3,2.54,9.6-1.16,13.58-2-7-4.31-14.48-6.13-22.08-2-8.28-3.72-16.63-5.08-25-.72-4.39-.41-9-.57-13.44l-1.69-.7a20.58,20.58,0,0,1-1.23,3.78c-4.91,8.91-5,18.4-3.51,28.08,1.74,11.36,7.22,21.06,13.44,30.44,3,4.49,2.82,7.66-.74,11.86a122.79,122.79,0,0,1,17.08,17.92c13.19-1.56,26.39-1.23,39.14,2.3L184.65,318l-.4-.84-28.56,1,0-1,32-13c-14.34-1.95-27.87,1.64-41.62,3.83,13.6-7,28.48-10.48,42.87-15.68-5-.83-10.06-1.9-14.82-1.11-6.93,1.16-13.62,3.74-20.45,5.57-4.16,1.11-8.4,2-12.6,2.92l-.41-1.61L193,282.28c-4.18-1.27-8.85-2.81-13-2-13.19,2.61-26.21,6.07-39.27,9.32a20.79,20.79,0,0,0-5.77,2.53c-3.86,2.38-7.57,5-11.34,7.51a8.71,8.71,0,0,1,3.18-5.28,59.94,59.94,0,0,1,10.7-5.88c18.35-7.34,36.64-14.9,56.2-18.56a7.25,7.25,0,0,0,1.32-.52c-3.43-1.23-7-2.24-10.27-1.63-4.61.86-8.92,3.21-13.49,4.41-8,2.11-16.08,4.85-24.25,5.32-4.89.28-8.14,2.2-11.6,4.56-2.43,1.65-4.46,3.89-7,6.19,1.76-7.65,7.61-10.81,13.51-12.94,12.39-4.48,25-8.26,37.66-12.07,5.33-1.61,10.87-2.56,17.21-4-7.54-3.05-14-2.37-20.66-.55-5.44,1.5-11,2.73-16.51,3.83-7.43,1.47-15.15,2.07-20.91,8a8.22,8.22,0,0,1-2,1.14l-.86-1.13c1.65-1.42,3.08-3.44,5-4.15C151.48,262.34,162.28,258.51,173.17,255Z"/>
                <path class="cls-2"
                      d="M170.81,204.53l-11,24.27,1.25.64c1.52-2.67,3.07-5.33,4.56-8a10.13,10.13,0,0,1,6.57-5.47c4.37-1.29,8.25-4.25,12.4-6.53l-24,22.81,29.07-8.5.49,1.63-34.81,13.29C153.49,228.36,161.72,210.39,170.81,204.53Z"/>
                <path class="cls-3"
                      d="M.37,238.23S10.29,217,64.93,217c0,0,68-4.72,109.83,10.6,0,0,17.15,15-18.57,18.35C156.18,246,61.78,258.59.37,238.23Z"/>
                <path class="cls-4"
                      d="M17.68,233.09s13.08-9.93,47.55-9.93c0,0,91.46-4.05,102.82,9.93,0,0,10.71,19.61-106.09,12.37C62,245.46,10.55,242.47,17.68,233.09Z"/>
                <path class="cls-5"
                      d="M91.31,249.58l.09-.19c-32.45-1.1-64.1-5.76-90.89-11.13v.17C27.28,243.8,58.89,248.47,91.31,249.58Z"/>
                <path class="cls-5"
                      d="M.52,238.43v-.17l-.14,0c1.35,14.94,5.27,29.53,11.33,41.38a90.36,90.36,0,0,0,10.76,16.32c9.3,11.28,20.65,21.81,33.81,26.07l35-72.42C58.89,248.47,27.28,243.8.52,238.43Z"/>
                <path class="cls-6"
                      d="M114.39,324.72c11.27-.21,21.32-7.92,30.59-15.13a79.66,79.66,0,0,0,10.19-9.36c11.8-13,19.48-29.7,22.65-47.18a103.05,103.05,0,0,0,1.41-11.5q-4.63,1.17-9.34,2.17c-25.3,5.33-52.21,6.77-78.59,5.86L56.26,322a40.76,40.76,0,0,0,8.29,1.79C73.55,324.74,93.1,325.13,114.39,324.72Z"/>
            </g>
          <g class="cocount-top" transform="translate(0 146)">
              <animateTransform id="wingdown"
                                attributeName="transform"
                                type="translate"
                                values="0 146; 0 0;0 146"
                                dur="3s"
                                fill="freeze"
                                repeatCount="indefinite" />
              <path class="cls-5"
                    d="M135.3,12.85a155,155,0,0,0-20.15-8.33c-10.1-3.49-19.43-5.59-30-4-4.86.75-9.75,1.36-14.57,2.34-11.72,2.38-23.07,7-34.39,10.72C7.66,23.05-2.51,58.6.51,92.43c26.8,5.38,58.44,10,90.89,11.13Z"/>
              <path class="cls-6"
                    d="M169.74,97.69q4.8-1,9.52-2.21c0,.08,0,.16,0,.24l.18,0c1.94-29.94-9.27-60.43-35.52-77.85a88.37,88.37,0,0,0-8.6-5L91.4,103.56C117.7,104.45,144.52,103,169.74,97.69Z"/>
              <ellipse class="cls-7" cx="97.84" cy="26.03" rx="9.71" ry="7.28"/>
              <ellipse class="cls-7" cx="55.38" cy="26.03" rx="9.71" ry="7.28"/>
              <ellipse class="cls-7" cx="78.43" cy="45.67" rx="9.71" ry="7.28"/>
          </g>
        </g>
    </g>
</svg>