<svg id="Layer_1" data-name="Layer 1" xmlns="http://www.w3.org/2000/svg" viewBox="0 0 315 156"><defs><style>.cls-1{fill:#754c29;}.cls-2{fill:#fbb715;}.cls-3{fill:#880c18;}.cls-4{fill:#603913;}.cls-5{fill:#e59f24;}.cls-6{fill:#640002;}.cls-7{fill:#da9a28;}.cls-8{fill:#d08b29;}.cls-9{fill:#febf43;}</style></defs><title>icn_treasure_open_top</title><path class="cls-1" d="M63.12,147.71l-2.43,0,5.07.17Z"/><path class="cls-2" d="M93.95,145.32c11-.8,23.32-1.2,36-1.32a31.32,31.32,0,0,1-5.69-11.64c-11,0-18.3-.12-18.3-.12l0-.49h-.19c0,.18,0,.35,0,.53H82.73s.05-.46.15-1.32q-26.62-1.11-56.41-3.31l-1.77-.13S32.65,15.22,61,4.77h0c-1-.18-1.88-.36-2.68-.56,0,0-44.44-39.56-58.16,139.13,0,0,25,2.46,62.94,4.37,4.79.07,16.33.21,31.6.31Z"/><path class="cls-2" d="M270.82,18.1c7.63,15.06,17,45.07,20.92,104.21-24.92,5.61-58.11,8.39-92.61,9.5A44.49,44.49,0,0,1,195,145.21c10.83.44,20.23.92,27.22,1.31h.06c23.64-1.67,44.62-4.34,59.22-8.45,0,0-.43,1.54-1.17,4.27,11.83-1.56,23.38-3.41,34.47-5.59,0,0-11.52-153.63-50.27-133.85l-5.2.52C263.6,4.82,267.42,10.26,270.82,18.1Z"/><path class="cls-2" d="M192.87,132c-16,.43-32.19.51-47.88.38H132.23A26.81,26.81,0,0,0,140.42,144c15.06,0,30.23.38,43.89.84C189.15,142.22,192.67,138.2,192.87,132Z"/><path class="cls-2" d="M278.34,142.61l2-.27c.73-2.73,1.17-4.27,1.17-4.27A20.33,20.33,0,0,0,278.34,142.61Z"/><path class="cls-2" d="M222.31,146.51c18-.84,31.78-2.1,37.24-3.93l-.48,2.24q6.49-.66,12.9-1.43l9.56-5.33C266.93,142.17,245.95,144.84,222.31,146.51Z"/><path class="cls-2" d="M222.31,146.51h0Z"/><path class="cls-2" d="M94.88,148.59l-.16-.57c-15.28-.1-26.82-.25-31.6-.31l2.63.13C74.22,148.11,84.08,148.38,94.88,148.59Z"/><path class="cls-2" d="M232.38,147.11c9-.63,17.88-1.39,26.69-2.29l.48-2.24c-5.46,1.83-19.28,3.08-37.24,3.93h-.05C226.7,146.76,230.16,147,232.38,147.11Z"/><path class="cls-2" d="M65.75,147.84c9.1.44,18.91.85,29.26,1.18l-.12-.43C84.08,148.38,74.22,148.11,65.75,147.84Z"/><path class="cls-2" d="M133.7,148.13A36.63,36.63,0,0,1,130,144c-12.7.12-25,.52-36,1.32l.77,2.7C106.08,148.1,119.49,148.15,133.7,148.13Z"/><path class="cls-2" d="M184.31,144.81c-13.66-.47-28.83-.82-43.89-.84a23.22,23.22,0,0,0,8.2,4.11c9.07-.05,18.28-.14,27.33-.27A33.83,33.83,0,0,0,184.31,144.81Z"/><path class="cls-2" d="M222.24,146.51c-7-.39-16.39-.87-27.22-1.31-.41.78-.84,1.54-1.31,2.26C203.87,147.23,213.54,146.92,222.24,146.51Z"/><path class="cls-2" d="M193.3,148.06c9.91-.38,19.64-.88,29-1.54h0c-8.7.41-18.37.72-28.53,1C193.58,147.67,193.43,147.86,193.3,148.06Z"/><path class="cls-2" d="M170.9,148.71c1.67-.22,3.37-.52,5-.9-9.05.13-18.26.22-27.33.27a28.72,28.72,0,0,0,4.66.89C159.13,148.91,165,148.83,170.9,148.71Z"/><path class="cls-2" d="M133.7,148.13c-14.21,0-27.62,0-39-.11l.16.57c12.29.24,25.77.42,39.8.44Q134.19,148.59,133.7,148.13Z"/><path class="cls-2" d="M134.68,149c-14,0-27.52-.19-39.8-.44L95,149c12.81.41,26.45.71,40.63.82Z"/><path class="cls-2" d="M154.56,149.1a81.25,81.25,0,0,0,16.35-.39c-5.89.12-11.78.2-17.63.25C153.7,149,154.11,149.07,154.56,149.1Z"/><path class="cls-2" d="M193.3,148.06q-.4.57-.83,1.11c13.26-.44,26.63-1.11,39.91-2-2.22-.14-5.68-.35-10.13-.6C212.94,147.17,203.21,147.68,193.3,148.06Z"/><path class="cls-1" d="M132.18,7.82h.13l.05-.2c17.5-.36,32.49-.38,43.42-.3,34.37-.67,62.55-1.78,62.55-1.78l21-2.11C197.69,9.09,62,4.8,61,4.77c10.22,1.86,29.57,2.7,51.86,3Z"/><path class="cls-1" d="M26.48,127.65q29.78,2.24,56.41,3.31l0-.19C54,129.57,32.58,128.09,26.48,127.65Z"/><path class="cls-1" d="M114.94,79.8c7.43-34.83,16.61-69.16,17.37-72h-.13a591,591,0,0,0-19.37,73.1Z"/><path class="cls-1" d="M175.78,7.32c12.09.09,19.21.3,19.21.3l22.24-1.36s2.46,6.25,5.9,16.31L259.36,3.42h0l-21,2.11S210.15,6.65,175.78,7.32Z"/><polygon class="cls-1" points="259.36 3.42 259.36 3.42 259.36 3.42 259.36 3.42"/><path class="cls-1" d="M291.75,122.31c-4-59.14-13.29-89.15-20.92-104.21C284.76,50.14,291.75,122.31,291.75,122.31Z"/><path class="cls-1" d="M105.85,131.6v.15H106v-.15Z"/><path class="cls-1" d="M24.71,127.52,88.1,94C93.32,61.54,102,18.58,112.87,7.73h0c-22.3-.26-41.64-1.1-51.86-3h0C32.65,15.22,24.71,127.52,24.71,127.52Z"/><path class="cls-2" d="M206.45,31.4l16.69-8.83c-3.44-10.07-5.9-16.31-5.9-16.31L195,7.62C198.62,8.53,202.6,18.06,206.45,31.4Z"/><path class="cls-2" d="M82.73,132.28h23.08c0-.18,0-.35,0-.53q-11.16-.3-23-.79C82.78,131.81,82.73,132.28,82.73,132.28Z"/><path class="cls-2" d="M112.87,7.73c6.25.07,12.73.1,19.31.09Z"/><path class="cls-2" d="M82.91,130.77l0,.19q11.79.49,23,.79v-.1C97.82,131.35,90.13,131.07,82.91,130.77Z"/><path class="cls-2" d="M132.18,7.82c-6.58,0-13.06,0-19.31-.09h0C102,18.58,93.32,61.54,88.1,94l24.71-13.07A591,591,0,0,1,132.18,7.82Z"/><path class="cls-3" d="M145,132.37q-6-.05-11.8-.14h-1l.06.17Z"/><path class="cls-3" d="M106,131.75l0,.49s7.3.08,18.3.12l-.06-.24Q115.34,132,106,131.75Z"/><path class="cls-3" d="M132.36,7.62l-.05.2c14.53,0,29.51-.23,43.48-.5C164.85,7.24,149.86,7.26,132.36,7.62Z"/><path class="cls-3" d="M206.16,31.55C202.56,19.13,198.74,9.9,195,7.62c0,0-7.12-.21-19.21-.3-14,.27-28.95.47-43.48.5-.76,2.82-9.94,37.15-17.37,72Z"/><path class="cls-3" d="M132.16,132.21h1Z"/><path class="cls-3" d="M124.21,132.06c-6.2-.13-12.28-.28-18.16-.46v.15q9.32.25,18.19.37Z"/><path class="cls-3" d="M206.16,31.55l.3-.16C202.6,18.06,198.62,8.53,195,7.62,198.74,9.9,202.56,19.13,206.16,31.55Z"/><path class="cls-2" d="M26.48,127.65l-1.77-.13Z"/><path class="cls-2" d="M270.82,18.1c-3.41-7.83-7.23-13.28-11.47-14.68C259.36,3.42,264.51,5.64,270.82,18.1Z"/><path class="cls-2" d="M192.87,132c0-.12,0-.24,0-.35-14.84.5-32.42.68-47.88.73C160.68,132.51,176.87,132.42,192.87,132Z"/><path class="cls-2" d="M244.22,128.23q-8.67.77-18.89,1.47l-.22,0h0q-3.89.26-8,.51c-4.65.49-10.84.88-17.92,1.18l-.07.41c34.5-1.12,67.69-3.89,92.61-9.5,0,0-16.17,3.15-47.35,5.91h-.17Z"/><path class="cls-4" d="M88.1,94l-63.4,33.53,1.77.13c6.1.44,27.52,1.93,56.43,3.12C83.45,126.21,85.26,111.66,88.1,94Z"/><path class="cls-4" d="M223.14,22.57c8.29,24.26,22.27,70.73,21.25,105.64,31.18-2.76,47.35-5.91,47.35-5.91s-7-72.16-20.92-104.21C264.51,5.64,259.36,3.42,259.36,3.42h0Z"/><path class="cls-1" d="M112.81,80.92a409.91,409.91,0,0,0-7,50.67H106c1.4-14.2,4.89-33.07,8.89-51.8Z"/><path class="cls-1" d="M225.34,129.7q10.21-.69,18.89-1.47Z"/><path class="cls-1" d="M225.12,129.71l-.12-.89a37.89,37.89,0,0,1-7.88,1.4Q221.23,130,225.12,129.71Z"/><path class="cls-2" d="M244.39,128.22h0l-.17,0Z"/><path class="cls-2" d="M225.34,129.7h-.22Z"/><path class="cls-5" d="M226,128.28a2.92,2.92,0,0,1-1,.54l.12.89h.22l18.89-1.47.17,0c1-34.92-13-81.39-21.25-105.64L206.45,31.4C216.63,66.58,226,128.28,226,128.28Z"/><path class="cls-5" d="M105.85,131.6a409.91,409.91,0,0,1,7-50.67L88.1,94c-2.84,17.67-4.65,32.22-5.19,36.78C90.13,131.07,97.82,131.35,105.85,131.6Z"/><path class="cls-3" d="M199.2,131.4c7.07-.3,13.26-.69,17.92-1.18q-8.47.5-17.88.92Z"/><path class="cls-3" d="M133.2,132.23q5.84.09,11.8.14c15.46,0,33-.24,47.88-.73,0-.08,0-.17,0-.25C175.22,132.06,155.32,132.41,133.2,132.23Z"/><path class="cls-6" d="M192.86,131.39c0-.52,0-1-.05-1.59,0,0,4-25.67-9.56-27.93H181.4a18.48,18.48,0,0,1-.86,9.28c-4,9.55-15.65,3.52-23.09,5.12-1.44.31-2.79,1-4.24,1.28-5.37,1.17-10.86-2.84-13-7.92a22.7,22.7,0,0,1-1.56-7.16c-3.75,1.1-9,4.25-9.3,13.24a45.92,45.92,0,0,0,2.77,16.5l1,0C155.32,132.41,175.22,132.06,192.86,131.39Z"/><path class="cls-6" d="M133.31,94.56h5.86A31.34,31.34,0,0,1,140.7,89l.25-.62c3.77-9.19,8.51-7.42,16.64-9.94,1.13-.35,4.32-3.17,4.77-3.18,16.08-.43,16.6,7.71,18,19.35h4.35s18.12,5.64,15.1,29.25a56.81,56.81,0,0,1-.62,7.33q9.4-.41,17.88-.92a37.89,37.89,0,0,0,7.88-1.4c-1.08-7.68-9.19-64-18.84-97.27L114.94,79.8c-4,18.74-7.49,37.61-8.89,51.8,5.88.18,12,.33,18.16.46a32.34,32.34,0,0,1-.86-8.25S122.63,98.59,133.31,94.56Z"/><path class="cls-3" d="M226,128.28s-9.36-61.7-19.54-96.89l-.3.16c9.65,33.29,17.76,89.59,18.84,97.27A2.92,2.92,0,0,0,226,128.28Z"/><path class="cls-7" d="M153.22,117.55c1.44-.31,2.79-1,4.24-1.28,7.45-1.61,19.07,4.43,23.09-5.12a18.48,18.48,0,0,0,.86-9.28H142.48a14.12,14.12,0,0,0-3.79.6,22.7,22.7,0,0,0,1.56,7.16C142.36,114.71,147.84,118.72,153.22,117.55Z"/><path class="cls-7" d="M180.41,94.56c-1.45-11.64-2-19.78-18-19.35-.46,0-3.65,2.83-4.77,3.18-8.13,2.52-12.87.75-16.64,9.94l-.25.62a31.34,31.34,0,0,0-1.53,5.6h41.24Z"/><path class="cls-7" d="M135.63,149.85a38.43,38.43,0,0,0,8.86,5.62s25.67-.5,33.72,0a16,16,0,0,0,14.26-6.31C173.06,149.81,153.91,150,135.63,149.85Z"/><path class="cls-7" d="M184.31,144.81c3.69.13,7.27.26,10.71.4a44.49,44.49,0,0,0,4.11-13.39l-6.27.18C192.67,138.2,189.15,142.22,184.31,144.81Z"/><path class="cls-7" d="M140.42,144a26.81,26.81,0,0,1-8.19-11.58l-7.95,0A31.32,31.32,0,0,0,130,144C133.43,144,136.92,144,140.42,144Z"/><path class="cls-7" d="M133.7,148.13l14.91-.05a23.22,23.22,0,0,1-8.2-4.11c-3.49,0-7,0-10.45,0A36.63,36.63,0,0,0,133.7,148.13Z"/><path class="cls-7" d="M175.95,147.8c6-.09,12-.2,17.76-.33.48-.73.91-1.49,1.31-2.26-3.44-.14-7-.27-10.71-.4A33.83,33.83,0,0,1,175.95,147.8Z"/><path class="cls-7" d="M193.3,148.06c.14-.2.28-.39.41-.59-5.79.13-11.74.24-17.76.33-1.68.38-3.37.68-5,.9C178.41,148.55,185.9,148.34,193.3,148.06Z"/><path class="cls-7" d="M153.27,149a28.72,28.72,0,0,1-4.66-.89l-14.91.05q.49.47,1,.9C140.8,149,147,149,153.27,149Z"/><path class="cls-7" d="M170.9,148.71a81.25,81.25,0,0,1-16.35.39c-.44,0-.86-.09-1.28-.14-6.26.06-12.48.08-18.59.07l1,.82c18.27.14,37.43,0,56.84-.68q.43-.54.83-1.11C185.9,148.34,178.41,148.55,170.9,148.71Z"/><path class="cls-7" d="M132.17,132.22l-7.94-.09.06.24,7.95,0Z"/><path class="cls-7" d="M124.21,132.06l0,.06,7.94.09h0Z"/><path class="cls-7" d="M192.87,131.64c0,.12,0,.24,0,.35l6.27-.18.07-.41Z"/><path class="cls-7" d="M192.86,131.39c0,.08,0,.17,0,.25l6.33-.24,0-.26Z"/><path class="cls-7" d="M129.39,115.71c.32-9,5.55-12.13,9.3-13.24a32.34,32.34,0,0,1,.48-7.91h-5.86c-10.68,4-10,29.25-10,29.25a32.34,32.34,0,0,0,.86,8.25l8,.15A45.92,45.92,0,0,1,129.39,115.71Z"/><path class="cls-7" d="M181.4,101.87h1.84c13.59,2.27,9.56,27.93,9.56,27.93,0,.55.05,1.07.05,1.59l6.38-.26a56.81,56.81,0,0,0,.62-7.33c3-23.61-15.1-29.25-15.1-29.25h-4.35c.17,1.4.36,2.85.59,4.35C181.15,99.89,181.29,100.88,181.4,101.87Z"/><path class="cls-7" d="M181.4,101.87c-.11-1-.25-2-.4-3-.23-1.5-.42-2.95-.59-4.35H139.16a32.34,32.34,0,0,0-.48,7.91,14.12,14.12,0,0,1,3.79-.6Z"/><path class="cls-2" d="M272,143.4q3.2-.38,6.37-.79a20.33,20.33,0,0,1,3.19-4.54Z"/><path class="cls-8" d="M157.59,78.4l4.77-3.18s2.23,0,3.48.06,3.36-.22,6,1.16,2.81-.67,4.15,2a35.17,35.17,0,0,1,2.89,6.48c.41,1.69,1.62,9.29,2.17,14s-.46,12.23-.46,12.23-2,4.08-4.6,4.74-.16-.64-4.15,0a29.23,29.23,0,0,1-7.81.19c-2.36-.08-4.42-.45-6.54.19s-2.22,1.08-4.24,1.28,3.41,1.86-2,.2-7.72-3.43-7.72-3.43S167.94,106.47,157.59,78.4Z"/><path class="cls-2" d="M138.87,96.52a39,39,0,0,0-6.19,2,37.69,37.69,0,0,0-4.49,4s-3.51,11.69-2,19.84c0,0-3.75,26.9,24.12,30,0,0,30.18,4.58,42.12-6.32,0,0,13.18-25,.9-40.32,0,0-2.08-7.72-11.76-9.18l2.7,3s9.1,4.86,10.71,15c0,0,3.62,30.28-9.54,32.13,0,0-35.95,12.53-51.78-6.3,0,0-14.19-19.9-2.45-37.87l6.46-4Z"/><circle class="cls-8" cx="38.08" cy="15.83" r="5.17"/><circle class="cls-8" cx="115.26" cy="22.57" r="5.17"/><circle class="cls-8" cx="212.43" cy="21" r="5.17"/><circle class="cls-8" cx="108.19" cy="50.86" r="5.17"/><circle class="cls-8" cx="222.24" cy="50.86" r="5.17"/><circle class="cls-8" cx="100.05" cy="81.81" r="5.17"/><circle class="cls-8" cx="228.67" cy="80.72" r="5.17"/><circle class="cls-8" cx="95.98" cy="114.74" r="5.17"/><circle class="cls-8" cx="233.64" cy="114.74" r="5.17"/><circle class="cls-8" cx="279.93" cy="15.83" r="5.17"/><circle class="cls-8" cx="26.58" cy="43.56" r="5.17" transform="translate(-22.37 57.96) rotate(-75)"/><circle class="cls-8" cx="288.62" cy="39.2" r="5.17" transform="translate(176.05 307.84) rotate(-75)"/><circle class="cls-8" cx="20.28" cy="73.83" r="5.17" transform="translate(-34.2 20.03) rotate(-30)"/><circle class="cls-8" cx="293.79" cy="65.82" r="5.17" transform="matrix(0.87, -0.5, 0.5, 0.87, 6.45, 155.71)"/><circle class="cls-8" cx="15.11" cy="109.58" r="5.17" transform="translate(-9.78 1.8) rotate(-5.15)"/><circle class="cls-8" cx="301.96" cy="98.52" r="5.17" transform="translate(-7.63 27.51) rotate(-5.15)"/><circle class="cls-8" cx="12.54" cy="134.47" r="5.17" transform="translate(-12.02 1.67) rotate(-5.15)"/><circle class="cls-8" cx="45.75" cy="138.18" r="5.17" transform="translate(-12.22 4.67) rotate(-5.15)"/><circle class="cls-8" cx="78.97" cy="139.09" r="5.17" transform="translate(-12.17 7.65) rotate(-5.15)"/><circle class="cls-8" cx="112.81" cy="140.73" r="5.17" transform="translate(-12.18 10.7) rotate(-5.15)"/><circle class="cls-8" cx="160.18" cy="140.73" r="5.17" transform="translate(-11.99 14.95) rotate(-5.15)"/><circle class="cls-8" cx="212.08" cy="139.09" r="5.17" transform="translate(-11.63 19.61) rotate(-5.15)"/><circle class="cls-8" cx="276.75" cy="133.26" r="5.17" transform="translate(-10.85 25.39) rotate(-5.15)"/><circle class="cls-8" cx="245.47" cy="136.14" r="5.17" transform="translate(-29.64 191.83) rotate(-40.46)"/><circle class="cls-8" cx="304.74" cy="129.3" r="5.17" transform="translate(-10.38 27.89) rotate(-5.15)"/><path class="cls-9" d="M37.19,12.51c-.29,0-.39-.58-1.17,0s-1,.68-1,1.17-.19-.39,0,.49-.49,1.21.49,1.68-.68.37,1,.46l1.65.1.88-.56V13.38Z"/><path class="cls-9" d="M24.71,40.51c-.3.35-.84.49-.84,1a3.92,3.92,0,0,0,0,1.07l.1.39c-.1-.39-.47.75.74.62a7,7,0,0,1,1.87,0l.5-.81V42a1.39,1.39,0,0,0-.5-1.53S25.54,39.54,24.71,40.51Z"/><path class="cls-9" d="M18.81,70.85l-1,.49-.58,1.17L18,73.83,19.3,74l1-.14.57-.84.1-1-.67-.78A1.08,1.08,0,0,0,18.81,70.85Z"/><path class="cls-9" d="M14,106.26c-1,.38-1.26.18-1.51.77l-.24.58v1.07l.24.9a1.21,1.21,0,0,0,1.51.37c1.07-.37.29.59,1.07.1s.59.19.78-.49.19-.19.19-.68v-.49h0l-.19-1.07-.78-.68Z"/><path class="cls-9" d="M11.62,131.75c-.88.18-.29-.41-.88.18l-.58.58v2a2.18,2.18,0,0,0,1.46.47c1,0,.58.58,1,0s.19.1.39-.58.29.1.19-.68h0l-.1-.78S12.49,131.57,11.62,131.75Z"/><path class="cls-9" d="M44.87,135.19a13.84,13.84,0,0,1-1.07,1l-.58,1.36v.84l1.36.69,1.17-.91c.58-1.3.68-.72.58-1.3l-.1-.58-.48-.58Z"/><path class="cls-9" d="M78,136.69,76.67,138v.45l1.36.69H79l0-.69.49-1.26Z"/><path class="cls-9" d="M112.81,137.89h-1.13l-.88.51-.41,1.3v1l1.21.52h1.21l1-.52.09-1.52s.92-.3-.09-.81Z"/><path class="cls-9" d="M93.95,115.2s-.91-2.13.34-2.81.39-1.56,1.7-.69a4,4,0,0,1,1.57,1.57v1l-1.57,1h-2Z"/><path class="cls-9" d="M98.75,78.92a2.87,2.87,0,0,0-1.2.39l-.84,1.17a1.76,1.76,0,0,0,.39,1.33c.49.42-.49.13.49.42s.1.19,1,.29l.88.1H100l.64-1.36s.49-1.17,0-1.46l-.49-.29-.58-.58Z"/><path class="cls-9" d="M106.92,47.8c-.42.24-.76-.49-1.06,0s-.64,1-.64,1a7.94,7.94,0,0,0,0,1.17c0,.68-.25.19,0,.68s-.19.1.29.49-.68.39.49.39,1.36.19,1.75,0a.78.78,0,0,0,.4-.64L109,50v-1S108.61,46.83,106.92,47.8Z"/><path class="cls-9" d="M112.87,19.59l-.12.31s.29.07,0,1.11l-.29,1,.9.54.85.53a4.3,4.3,0,0,1,1.75-.53l.49-1.23-.39-1a3,3,0,0,0-.8-.79c-.37-.18.22-.08-.37-.18l-.58-.1S113,19.28,112.87,19.59Z"/><path class="cls-9" d="M211.16,18.1l-.49.34-.88.39-.19,1.26s-1,.95,0,.91.39-.13,1,0-.1.1.58.1.09.06.68,0-.19.56.59-.06.68,0,.78-.62l.1-.58v-.49a.68.68,0,0,1-.87-.48l-.2-.68Z"/><path class="cls-9" d="M220.89,48l-1,.49h0v1.09l1,1.29.88-.24.48.24.39-.82.29-1.07v-.49S221.86,47.51,220.89,48Z"/><path class="cls-9" d="M226,77.85,226,78s-.5-.58-.59.58-.19.19-.09,1.17-.78.1.1,1l.88.88,1.08.16h1.06l1-.89s-.19-.21,0-.81.88.85.19-.61-.1-1.07-.68-1.46l-.58-.39H227Z"/><path class="cls-9" d="M231.58,111.6c-.68.58-.39,0-.68.58s-.1-.39-.29.58-.29.19-.19,1-.39,0,.1.78a1.77,1.77,0,0,0,1.07.88c1.07.19.29.29,1.07.19l.78-.1s-.05.27.41-.74.37-.23.46-1,.58.1.1-.78.29-.1-.49-.88A3,3,0,0,0,231.58,111.6Z"/><path class="cls-9" d="M159,137.89c-1.56.45-1.26-.13-1.56.45s-.58,1.23-.58,1.23a7.8,7.8,0,0,0,0,1.68l1,1s.9.35,1.09,0-.49,0,.19-.35.41.43.68-.39-.29,1.56,0,0,.58-.68.29-1.56l-.29-.88-.13-.61Z"/><path class="cls-9" d="M211.16,136.14c-.58,0,.19-.42-.58,0l-.78.39-.21.68v1.23l.78,1.11h2.05s.48,0,.68-1.11.68-.45.19-1.13l-.49-.68-.74-.45Z"/><path class="cls-9" d="M243.74,133.26l-.68.41v.78a2.61,2.61,0,0,0,0,1c.1.58-.58-.1.1.58s-.39-.42.58.13l1,.55h.76c.89-1,.79-.39.89-1l.1-.58-.49-1.26a1.6,1.6,0,0,0-1.32-.6Z"/><path class="cls-9" d="M274.76,130.75l-.78.38a2.8,2.8,0,0,1,0,1.07c-.1.78-.39.2-.1.78s-.58.19.29.58,0,.39.88.39.05.7.88,0,.82-.19.82-.19v-.51c0-1.83,0-1.38,0-1.38l0-.45Z"/><path class="cls-9" d="M303.83,127.06h-1.07l-.8,1.16s-.22-.16,0,.75-.36.13.22.91-.88.29.58.78.19.88,1.46.49.51,0,.51,0,.07,1.37.75-.38,1.07-.58.68-1.75l-.39-1.17-1-.78Z"/><path class="cls-9" d="M301.86,95.36h-.95s-1-.19-1.17.68-.19.19-.19.88-.29-.19,0,.68l.29.88.8.49c1.32-.44.12.78,1.32,0s.71-.44.71-.44a2.45,2.45,0,0,0,.58-1.24c0-.56.58.41,0-.56l-.58-1-.29-.41Z"/><path class="cls-9" d="M292.65,62.49c-.78.1,0-.78-.78.1A3.37,3.37,0,0,0,291,64s-.58.1,0,.88-.29.58.58.78l.88.19s0,.07.68,0,.23.73.65-.07.13-.22.42-.8.78.88.29-.58L294,63h0Z"/><path class="cls-9" d="M287.4,36c-1.36.39-1.56,1-1.56,1a2,2,0,0,0,0,1.46,1.83,1.83,0,0,0,.71,1.26h.84l1.26-.1s.58.3,1-.43.39,0,.39-.73.68.1,0-.78,1.26-.1-.68-.88Z"/><path class="cls-9" d="M279.23,12.51l-1,.19s-.29.1-.49.78-.19-.19-.19.68-.29.29,0,.88-.58-.19.29.58-.58.68.88.78.49.29,1.46.1l1-.19.11-.46.57-1.38s1.07.58,0-.49l-1.07-1.07h0Z"/></svg>