<svg xmlns="http://www.w3.org/2000/svg" xmlns:xlink="http://www.w3.org/1999/xlink" viewBox="0 0 1484.79 599.38"><defs><style>.cls-1{isolation:isolate;}.cls-2,.cls-20{fill:#98c7e1;}.cls-10,.cls-11,.cls-12,.cls-13,.cls-14,.cls-15,.cls-16,.cls-17,.cls-18,.cls-19,.cls-3,.cls-4,.cls-5,.cls-6,.cls-7,.cls-8,.cls-9{opacity:0.43;}.cls-3{fill:url(#linear-gradient);}.cls-4{fill:url(#linear-gradient-2);}.cls-5{fill:url(#linear-gradient-3);}.cls-6{fill:url(#linear-gradient-4);}.cls-7{fill:url(#linear-gradient-5);}.cls-8{fill:url(#linear-gradient-6);}.cls-9{fill:url(#linear-gradient-7);}.cls-10{fill:url(#linear-gradient-8);}.cls-11{fill:url(#linear-gradient-9);}.cls-12{fill:url(#linear-gradient-10);}.cls-13{fill:url(#linear-gradient-11);}.cls-14{fill:url(#linear-gradient-12);}.cls-15{fill:url(#linear-gradient-13);}.cls-16{fill:url(#linear-gradient-14);}.cls-17{fill:url(#linear-gradient-15);}.cls-18{fill:url(#linear-gradient-16);}.cls-19{fill:url(#linear-gradient-17);}.cls-20{opacity:0.29;}.cls-21{fill:none;}.cls-22{fill:#1a1a1a;}.cls-23{fill:#2b2627;}.cls-24{fill:#fab800;}.cls-25{fill:#7d4e24;}.cls-26{fill:#dd9c00;}.cls-27{fill:#008041;}.cls-28{fill:#066431;}.cls-29,.cls-32{fill:#683c11;}.cls-30{fill:#fff;}.cls-31{fill:#ccc;}.cls-32{opacity:0.66;}.cls-33{opacity:0.75;mix-blend-mode:multiply;}.cls-34{fill:url(#linear-gradient-18);}</style><linearGradient id="linear-gradient" x1="312.12" y1="138.34" x2="369.69" y2="138.34" gradientUnits="userSpaceOnUse"><stop offset="0" stop-color="#3e64ad"/><stop offset="0.24" stop-color="#3d62a9"/><stop offset="0.45" stop-color="#395b9e"/><stop offset="0.67" stop-color="#32518b"/><stop offset="0.87" stop-color="#294271"/><stop offset="1" stop-color="#22365d"/></linearGradient><linearGradient id="linear-gradient-2" x1="891.98" y1="138.34" x2="949.56" y2="138.34" xlink:href="#linear-gradient"/><linearGradient id="linear-gradient-3" x1="974.44" y1="138.51" x2="1032.01" y2="138.51" xlink:href="#linear-gradient"/><linearGradient id="linear-gradient-4" x1="1057.5" y1="138.34" x2="1115.07" y2="138.34" xlink:href="#linear-gradient"/><linearGradient id="linear-gradient-5" x1="808.86" y1="138.34" x2="866.43" y2="138.34" xlink:href="#linear-gradient"/><linearGradient id="linear-gradient-6" x1="725.74" y1="138.34" x2="783.31" y2="138.34" xlink:href="#linear-gradient"/><linearGradient id="linear-gradient-7" x1="643.44" y1="138.34" x2="701.01" y2="138.34" xlink:href="#linear-gradient"/><linearGradient id="linear-gradient-8" x1="559.96" y1="138.5" x2="617.54" y2="138.5" xlink:href="#linear-gradient"/><linearGradient id="linear-gradient-9" x1="394.57" y1="138.51" x2="452.14" y2="138.51" xlink:href="#linear-gradient"/><linearGradient id="linear-gradient-10" x1="477.64" y1="138.34" x2="535.21" y2="138.34" xlink:href="#linear-gradient"/><linearGradient id="linear-gradient-11" x1="229" y1="138.34" x2="286.57" y2="138.34" xlink:href="#linear-gradient"/><linearGradient id="linear-gradient-12" x1="145.87" y1="138.34" x2="203.44" y2="138.34" xlink:href="#linear-gradient"/><linearGradient id="linear-gradient-13" x1="1389.49" y1="138.34" x2="1447.06" y2="138.34" xlink:href="#linear-gradient"/><linearGradient id="linear-gradient-14" x1="1306.36" y1="138.34" x2="1363.93" y2="138.34" xlink:href="#linear-gradient"/><linearGradient id="linear-gradient-15" x1="1224.07" y1="138.34" x2="1281.64" y2="138.34" xlink:href="#linear-gradient"/><linearGradient id="linear-gradient-16" x1="1140.59" y1="138.5" x2="1198.16" y2="138.5" xlink:href="#linear-gradient"/><linearGradient id="linear-gradient-17" x1="63.58" y1="138.34" x2="121.15" y2="138.34" xlink:href="#linear-gradient"/><linearGradient id="linear-gradient-18" x1="746.42" y1="123.51" x2="746.42" y2="598.02" xlink:href="#linear-gradient"/></defs><title>Ресурс 1</title><g class="cls-1"><g id="Слой_2" data-name="Слой 2"><g id="Layer_1" data-name="Layer 1"><path class="cls-2" d="M1484.39,137.07V598.92H7.64V136.08a50.17,50.17,0,0,0,30.55-20.58A51.57,51.57,0,0,0,46,124.37v0a50.27,50.27,0,0,0,19.46,10.93l.43.1a48.65,48.65,0,0,0,8.5,1.64l1,.1c1.44.13,2.86.2,4.3.2,1.08,0,2.17,0,3.22-.1a50.12,50.12,0,0,0,32.42-14.7l.1-.1a50.56,50.56,0,0,0,4.43-5.12c.43-.59.89-1.18,1.31-1.77.39.59.85,1.18,1.28,1.77.79,1,1.54,2,2.4,2.92a51.54,51.54,0,0,0,4.2,4.27,49.68,49.68,0,0,0,24.12,11.95c1,.2,2.07.36,3.08.49a51,51,0,0,0,6.37.39A50.15,50.15,0,0,0,189,129.85,51.46,51.46,0,0,0,204,115.51a51.46,51.46,0,0,0,3.68,4.69,50.25,50.25,0,0,0,64.16,9.65,51.5,51.5,0,0,0,9.25-7.35l.1-.1a50.56,50.56,0,0,0,4.43-5.12c.43-.59.89-1.18,1.31-1.77.39.59.85,1.18,1.28,1.77a50.56,50.56,0,0,0,4.43,5.12l.1.1A50.63,50.63,0,0,0,313,134.9a51.29,51.29,0,0,0,6,1.51,49.05,49.05,0,0,0,6.24.79c1.05.07,2.13.1,3.22.1a49.93,49.93,0,0,0,23.76-6,50.61,50.61,0,0,0,17.69-15.82,50.3,50.3,0,0,0,82.89,0,50.36,50.36,0,0,0,35.11,21.4,51,51,0,0,0,6.37.39,50.28,50.28,0,0,0,41.45-21.79,50.28,50.28,0,0,0,41.45,21.79c1.08,0,2.13,0,3.22-.1a50.12,50.12,0,0,0,32.42-14.7l.1-.1a55.06,55.06,0,0,0,4.43-5.12c.43-.59.89-1.18,1.28-1.77.43.59.85,1.18,1.31,1.77a50.56,50.56,0,0,0,4.43,5.12l.1.1a51.5,51.5,0,0,0,9.25,7.35,50.39,50.39,0,0,0,52.74,0,51.17,51.17,0,0,0,15.1-14.34,51.06,51.06,0,0,0,15.06,14.34,50.67,50.67,0,0,0,38.85,5.91,50.8,50.8,0,0,0,13.91-5.91,52.68,52.68,0,0,0,9.25-7.35l.1-.1a55.06,55.06,0,0,0,4.43-5.12l1.28-1.77c.43.59.85,1.18,1.31,1.77a46.73,46.73,0,0,0,4.43,5.12l.1.1a50,50,0,0,0,32.42,14.7c1.05.07,2.13.1,3.18.1a49.9,49.9,0,0,0,15.42-2.4,56.41,56.41,0,0,0,5.68-2.2c.89-.43,1.8-.89,2.69-1.38a50.9,50.9,0,0,0,17.69-15.82,50.88,50.88,0,0,0,20.38,17.2,50.46,50.46,0,0,0,47.45-2.86,51,51,0,0,0,15.06-14.34,51.11,51.11,0,0,0,20.38,17.2,50.2,50.2,0,0,0,21.07,4.59,51,51,0,0,0,6.37-.39,50.2,50.2,0,0,0,20-7.06,51.57,51.57,0,0,0,15.1-14.34,50.19,50.19,0,0,0,41.45,21.79c1.05,0,2.13,0,3.18-.1a48.31,48.31,0,0,0,6.24-.79,51.29,51.29,0,0,0,6-1.51,56.41,56.41,0,0,0,5.68-2.2c.92-.43,1.8-.89,2.69-1.38a49.77,49.77,0,0,0,11.85-8.83l.13-.1a50.24,50.24,0,0,0,4.4-5.12c.46-.59.89-1.18,1.31-1.77.43.59.85,1.18,1.31,1.77a50.24,50.24,0,0,0,4.4,5.12.45.45,0,0,0,.13.1,50.36,50.36,0,0,0,56.67,10.21,51.57,51.57,0,0,0,5.32-2.86,51,51,0,0,0,11.39-9.65,46.28,46.28,0,0,0,3.68-4.69,50.9,50.9,0,0,0,17.69,15.82,50.52,50.52,0,0,0,30.13,5.58c1.05-.13,2.07-.3,3.08-.49a51.29,51.29,0,0,0,6-1.51,50.76,50.76,0,0,0,18.15-10.44,51.93,51.93,0,0,0,4.23-4.27c.82-.92,1.61-1.94,2.36-2.92.46-.59.89-1.18,1.31-1.77l1.28,1.77a55.06,55.06,0,0,0,4.43,5.12l.1.1a50.2,50.2,0,0,0,32.46,14.7c1.05.07,2.1.1,3.18.1,1.44,0,2.89-.07,4.3-.2l1-.1a48.28,48.28,0,0,0,8.47-1.64l.46-.1a50.38,50.38,0,0,0,19.43-10.93v0a48.93,48.93,0,0,0,7.81-8.86,50.35,50.35,0,0,0,82.93,0A50.18,50.18,0,0,0,1484.39,137.07Z"/><path class="cls-3" d="M369.69,115.51s-4.73,33.1-42.83,43.77c0,0-34.07,11.44,1.37-22A49,49,0,0,0,369.69,115.51Z"/><path class="cls-4" d="M949.56,115.51s-4.73,33.1-42.83,43.77c0,0-34.07,11.44,1.37-22A49,49,0,0,0,949.56,115.51Z"/><path class="cls-5" d="M1032,115.68s-4.73,33.1-42.83,43.77c0,0-34.07,11.44,1.37-22A49,49,0,0,0,1032,115.68Z"/><path class="cls-6" d="M1115.07,115.51s-4.73,33.1-42.83,43.77c0,0-34.07,11.44,1.37-22A49,49,0,0,0,1115.07,115.51Z"/><path class="cls-7" d="M866.43,115.51s-4.73,33.1-42.83,43.77c0,0-34.07,11.44,1.37-22A49,49,0,0,0,866.43,115.51Z"/><path class="cls-8" d="M783.31,115.51s-4.73,33.1-42.83,43.77c0,0-34.07,11.44,1.37-22A49,49,0,0,0,783.31,115.51Z"/><path class="cls-9" d="M701,115.51s-4.73,33.1-42.83,43.77c0,0-34.07,11.44,1.37-22A49,49,0,0,0,701,115.51Z"/><path class="cls-10" d="M617.54,115.67s-4.73,33.1-42.83,43.77c0,0-34.07,11.44,1.37-22A49,49,0,0,0,617.54,115.67Z"/><path class="cls-11" d="M452.14,115.68s-4.73,33.1-42.83,43.77c0,0-34.07,11.44,1.37-22A49,49,0,0,0,452.14,115.68Z"/><path class="cls-12" d="M535.21,115.51s-4.73,33.1-42.83,43.77c0,0-34.07,11.44,1.37-22A49,49,0,0,0,535.21,115.51Z"/><path class="cls-13" d="M286.57,115.51s-4.73,33.1-42.83,43.77c0,0-34.07,11.44,1.37-22A49,49,0,0,0,286.57,115.51Z"/><path class="cls-14" d="M203.44,115.51s-4.73,33.1-42.83,43.77c0,0-34.07,11.44,1.37-22A49,49,0,0,0,203.44,115.51Z"/><path class="cls-15" d="M1447.06,115.51s-4.73,33.1-42.83,43.77c0,0-34.07,11.44,1.37-22A49,49,0,0,0,1447.06,115.51Z"/><path class="cls-16" d="M1363.93,115.51s-4.73,33.1-42.83,43.77c0,0-34.07,11.44,1.37-22A49,49,0,0,0,1363.93,115.51Z"/><path class="cls-17" d="M1281.64,115.51s-4.73,33.1-42.83,43.77c0,0-34.07,11.44,1.37-22A49,49,0,0,0,1281.64,115.51Z"/><path class="cls-18" d="M1198.16,115.67s-4.73,33.1-42.83,43.77c0,0-34.07,11.44,1.37-22A49,49,0,0,0,1198.16,115.67Z"/><path class="cls-19" d="M121.15,115.51s-4.73,33.1-42.83,43.77c0,0-34.07,11.44,1.37-22A49,49,0,0,0,121.15,115.51Z"/><path class="cls-20" d="M414.38,122.59s4.73,33.1,42.83,43.77c0,0,34.07,11.44-1.37-22A49,49,0,0,1,414.38,122.59Z"/><path class="cls-20" d="M497,122.59s4.73,33.1,42.83,43.77c0,0,34.07,11.44-1.37-22A49,49,0,0,1,497,122.59Z"/><path class="cls-20" d="M331.34,122.59s4.73,33.1,42.83,43.77c0,0,34.07,11.44-1.37-22A49,49,0,0,1,331.34,122.59Z"/><path class="cls-20" d="M82.63,122.59s4.73,33.1,42.83,43.77c0,0,34.07,11.44-1.37-22A49,49,0,0,1,82.63,122.59Z"/><path class="cls-20" d="M165.47,122.59s4.73,33.1,42.83,43.77c0,0,34.07,11.44-1.37-22A49,49,0,0,1,165.47,122.59Z"/><path class="cls-20" d="M248.3,122.59s4.73,33.1,42.83,43.77c0,0,34.07,11.44-1.37-22A49,49,0,0,1,248.3,122.59Z"/><path class="cls-21" d="M528,339.69l-79.1,51.66a50.28,50.28,0,0,0,59.06-6.79c0-.54,0-.84,0-.84.08.2.17.39.26.58l.48-.43A50.29,50.29,0,0,0,564,413.74q4.67-2,9.08-4.28C558.57,385.87,543.3,362.76,528,339.69Z"/><path class="cls-22" d="M436.54,186.15l-2.78,1.8h0l-3.72,2.4,11.79,18.05,6.43-4.3Z"/><path class="cls-22" d="M369.67,83.76,325.3,15.81c-2.08-3.19-4.32-6.33-6.27-9.6-.43-.72-1.74-2-1.84-2.82a3.06,3.06,0,0,1,.47-2.23c-3.79,2-7.17,6.17-5.1,9.31C323.84,27.62,335,44.85,346.25,62l23.12,35.4,6.57-4.09Z"/><path class="cls-22" d="M324.64,1.35A5.06,5.06,0,0,0,322.56.18a4.62,4.62,0,0,0-1.12-.1A8.57,8.57,0,0,1,324.64,1.35Z"/><path class="cls-22" d="M585.52,402l.38-.25a12,12,0,0,0-.86-1.41q-6.64-9.69-13.23-19.42l.76,1.17C576.84,388.66,581.76,395.18,585.52,402Z"/><path class="cls-22" d="M573.11,409.46l1.85-1q3.17-1.81,6.25-3.71a9,9,0,0,1-3.05-.85c-2.88-2.28-4.08-7.21-6.06-10.23l-13.41-20.53-24.53-37.55L528,339.69C543.3,362.76,558.57,385.87,573.11,409.46Z"/><path class="cls-23" d="M453.77,200.67l.21-.14-10.64-16.29-1.15-1.76-.21.14Z"/><path class="cls-23" d="M317.66,1.16A8.8,8.8,0,0,1,321.44.09C319.84-.17,318.39.15,317.66,1.16Z"/><path class="cls-23" d="M333.07,15.78,347.52,38q16.93,26,33.9,52l.23-.14L372,75l-27.17-41.6-10.19-15.6C331.55,13.06,329.9,6,325.72,2.17a8.17,8.17,0,0,0-1.08-.82C328.27,4.48,331,12.66,333.07,15.78Z"/><path class="cls-23" d="M556.4,357.82Q564,369.47,571.81,381l-32-49-.21.14Z"/><path class="cls-23" d="M450,203.11l3.74-2.44L442,182.62l-5.44,3.52,11.72,18,1.76-1.18C450,203,450,203,450,203.11Z"/><path class="cls-23" d="M317.18,3.39c.1.83,1.41,2.1,1.84,2.82,2,3.27,4.19,6.41,6.27,9.6l44.37,67.94,6.26,9.59,5.49-3.42q-17-26-33.9-52L333.07,15.78c-2-3.13-4.8-11.3-8.43-14.43a8.57,8.57,0,0,0-3.2-1.26,8.8,8.8,0,0,0-3.78,1.07A3.06,3.06,0,0,0,317.18,3.39Z"/><path class="cls-23" d="M539.59,332.09l-5.43,3.55,24.53,37.55,13.41,20.53c2,3,3.18,7.95,6.06,10.23a9,9,0,0,0,3.05.85q2.18-1.36,4.32-2.76c-3.76-6.85-8.68-13.38-12.95-19.91l-.76-1.17Q564,369.45,556.4,357.82Z"/><path class="cls-24" d="M313.21,92.2c-2,.69-14.23,5-19.55,6.49A118.11,118.11,0,0,0,313.21,92.2Z"/><path class="cls-24" d="M247.06,111.93c.21.41.43.77.65,1.13,2.53-7.11,29.34-28.49,29.34-28.49A57.32,57.32,0,0,0,285.57,79c-1.94-1.6-4.44-4.2-3.6-6.47l-4-1.48s-3.76,3.72-7.37,1.07c0,0-1.8-4.47,2.11-4.61,0,0-.11-5.27,3.45-4.74,0,0,4.77.3,3.3,4.29l3.84,1.87a11.63,11.63,0,0,1,5-3.9,14.34,14.34,0,0,1,5.95-1.12l2-4.91s-3.67-7.25,3.14-5.41c0,0,3.94,1,5.44,2.57A118.5,118.5,0,0,0,317,26.74c-5,2.88-12.31,16.46-15.34,19.13-10.84,9.55-25.33,14.83-39.7,15.31-14.15.48-21.82,8.06-33.25,15.7C230.39,75.75,245.25,108.47,247.06,111.93Z"/><path class="cls-24" d="M336.78,78.67l.09-.06c-3.45,2.36-6.11,4.16-7.18,4.87C332.11,82,334.48,80.37,336.78,78.67Z"/><path class="cls-24" d="M347.14,69.91h0l-.88,1.62A3.71,3.71,0,0,0,347.14,69.91Z"/><path class="cls-24" d="M328.72,84.07l-14.81,7.81A119.48,119.48,0,0,0,328.72,84.07Z"/><path class="cls-24" d="M341.38,59.9l5.75,10C347.49,67.84,343.84,63.11,341.38,59.9Z"/><path class="cls-24" d="M249.53,115.34c3.42,3.19,7.33,1.15,11.39-2.83l.13-.12C260.11,113,256.42,115.28,249.53,115.34Z"/><path class="cls-24" d="M337.73,54.5,329,40.74c-.94-1.48-2.23-4.28-3.72-7,.19.75.27,1.49.39,2.19C326.07,38,337.71,54.48,337.73,54.5Z"/><path class="cls-24" d="M338.05,77.8c1.12-.74,2.59-1.69,4-2.71-1.09.73-2.4,1.59-4,2.71Z"/><path class="cls-24" d="M272.77,103.71a42.24,42.24,0,0,1,11.48-3.14c2.56-.39,5.09-.88,7.62-1.44a43.22,43.22,0,0,1-11,.33S274.64,102.78,272.77,103.71Z"/><polygon class="cls-24" points="272.38 103.9 272.38 103.9 272.38 103.9 272.38 103.9"/><path class="cls-24" d="M323.6,30.72c-1.34-2.12-2.77-3.85-4.21-4.4a2.78,2.78,0,0,0-2.39.42l4.22,2.3A10.7,10.7,0,0,1,323.6,30.72Z"/><path class="cls-24" d="M476.28,116.6C458,88.4,455.16,44,455.15,44,456.2,80.1,465.6,102.61,476.28,116.6Z"/><path class="cls-24" d="M455.15,44,435.31,56.36a80.65,80.65,0,0,0,.95,27.72Z"/><path class="cls-24" d="M382.61,197.9l8-17.06C356.52,150.3,357.19,105,357.19,105l-29.48,18.36,9.74-6.06C322.35,151.72,358.72,182.3,382.61,197.9Z"/><path class="cls-24" d="M396.69,80.42l.58-.36Z"/><path class="cls-24" d="M400.47,92.86a48.53,48.53,0,0,0,5.09,16.2,84.4,84.4,0,0,0,11.13,16.53L430.4,96.51a222.26,222.26,0,0,1-8-32.12L401.27,77.56l1-.62C399.34,78.77,400.15,90,400.47,92.86Z"/><polygon class="cls-24" points="401.45 208.85 415.85 199.53 401.45 208.85 401.45 208.85"/><polygon class="cls-24" points="497.19 146.88 509.11 139.17 497.19 146.88 497.19 146.88"/><polygon class="cls-24" points="442.19 182.48 467.8 165.91 442.19 182.48 442.19 182.48"/><path class="cls-24" d="M398.61,164l6-12.62L369.36,97.44l-.24.15C363.78,125.09,380.72,148.06,398.61,164Z"/><path class="cls-24" d="M321.72,127.12,305,137.55c-8.72,54.6,61.92,93.67,61.92,93.67L374.08,216C315.82,181.8,321.72,127.12,321.72,127.12Z"/><path class="cls-24" d="M394.64,96c-.17-1.16-2.53-12.69-1.4-13.39l-11.59,7.22L399.43,117A144.62,144.62,0,0,1,394.64,96Z"/><path class="cls-24" d="M408.43,143.11l-32.5-49.76-6.57,4.09,35.19,53.89Z"/><polygon class="cls-24" points="433.76 187.94 433.76 187.94 436.54 186.15 436.54 186.15 433.76 187.94"/><polygon class="cls-24" points="441.98 182.62 441.98 182.62 442.19 182.48 442.19 182.48 441.98 182.62"/><path class="cls-24" d="M399.7,117.92c-.1-.31-.18-.62-.28-.93L381.65,89.79l-.23.14Z"/><polygon class="cls-24" points="441.98 182.62 436.54 186.15 436.54 186.15 441.98 182.62 441.98 182.62"/><path class="cls-24" d="M399.7,117.92l-18.28-28-5.49,3.42,32.5,49.76,1.14-2.42A114.86,114.86,0,0,1,399.7,117.92Z"/><path class="cls-24" d="M520.27,209.88a217.13,217.13,0,0,1-11.59-45.07l-20.94,13.68a113.53,113.53,0,0,0,16.2,67.17Z"/><path class="cls-24" d="M464.9,331.18l10.61-23.25c-34.66-41.9-38-96.62-38-96.62l-19,12.44C411,275.21,439,310.29,464.9,331.18Z"/><path class="cls-24" d="M497,260.94c-19.43-34.25-28.59-69.81-28.59-69.81L454,200.53l41.53,63.59Z"/><polygon class="cls-24" points="539.8 331.95 553.13 323.25 539.8 331.95 539.8 331.95"/><path class="cls-24" d="M487.76,278.73,451.7,223.51c4.44,28.15,17.14,50.67,31.37,67.86l5.33-11.67Z"/><polygon class="cls-24" points="594.83 296.01 576.63 307.9 570.47 311.92 637.5 268.14 608.79 286.89 594.83 296.01"/><path class="cls-24" d="M637.5,268.14c-69.8-45.87-83-133.23-83-133.25C563.32,251.48,637.5,268.14,637.5,268.14Z"/><path class="cls-24" d="M554.5,134.89l-29.83,19.48a117.49,117.49,0,0,0,4.75,35.48Z"/><polygon class="cls-24" points="527.95 339.69 527.68 339.86 504.25 355.17 488.17 365.67 468.28 378.66 450.5 390.27 448.86 391.34 448.86 391.34 527.95 339.69 527.95 339.69"/><path class="cls-24" d="M448,368.27l8.43-18.47c-49.65-37.43-56.18-114.15-56.18-114.15l-19.59,12.79C379.28,315.53,421.67,352.09,448,368.27Z"/><path class="cls-24" d="M420.35,372.91c-47.43-39.33-55.68-114-55.68-114l-14.88,9.71c.43,56.4,27.67,92,50.79,112.1A50.38,50.38,0,0,0,420.35,372.91Z"/><polygon class="cls-24" points="527.95 339.69 527.95 339.69 534.16 335.63 534.16 335.63 527.95 339.69"/><path class="cls-24" d="M488.4,279.7l3.8-8.33-42-64.38a138.07,138.07,0,0,0,1.55,16.51l36.06,55.21Z"/><polygon class="cls-24" points="539.59 332.09 539.59 332.09 539.8 331.95 539.8 331.95 539.59 332.09"/><path class="cls-24" d="M495.38,264.4l.13-.27L454,200.53l-.21.14Z"/><polygon class="cls-24" points="534.16 335.63 534.16 335.63 539.59 332.09 539.59 332.09 535.94 334.47 534.16 335.63"/><path class="cls-24" d="M450.15,207l42,64.38,3.19-7-41.62-63.72L450,203.11C450,204.43,450.11,205.71,450.15,207Z"/><path class="cls-25" d="M645.38,320.95c3.52,3.88,6.59,6.34,7.32,9.69l0,0C655,327.19,650.36,326.26,645.38,320.95Z"/><path class="cls-25" d="M620.45,374a246.83,246.83,0,0,1-34.55,27.76c.05.11.09.22.14.33A185.62,185.62,0,0,0,620.45,374Z"/><path class="cls-25" d="M781.44,314.6c-1-6.32-2.23-13.43-3.47-21l3.18,21.26Z"/><polygon class="cls-25" points="789.24 368.84 789.24 368.84 789.24 368.84 789.24 368.84"/><path class="cls-25" d="M626.15,430.16c.52.11,1,.18,1.56.27q7.41-5.18,15.11-10.64C704.17,318.93,737.65,213.14,743,195.62l-66.32,41.27,7.79,36.88-35.57,36.36,7.4,6.48s7.31,5.64,10.29,12.3.17,14.83.17,14.83C646.1,370.06,619,391.16,593.4,407.18A50.12,50.12,0,0,0,626.15,430.16Z"/><path class="cls-25" d="M791.54,402.92c0-.32,0-.62.07-.94a73.7,73.7,0,0,1-7,17.06C788.1,413.73,791.22,407.74,791.54,402.92Z"/><path class="cls-25" d="M636.18,307.86l.22-.24C634.15,304,636.18,307.86,636.18,307.86Z"/><path class="cls-25" d="M585.68,402.34l.35-.22c0-.11-.08-.22-.14-.33l-.38.25Z"/><path class="cls-25" d="M581.54,404.84l-.34-.05q-3.08,1.91-6.25,3.71Q578.33,406.73,581.54,404.84Z"/><path class="cls-25" d="M585.68,402.34l-.17-.3q-2.14,1.4-4.32,2.76l.34.05Q583.64,403.61,585.68,402.34Z"/><circle class="cls-26" cx="455.15" cy="44" transform="translate(4.13 119.33) rotate(-15)"/><path class="cls-26" d="M509.11,139.17s-17.69-2.71-32.84-22.57C484.08,128.65,494.7,137.74,509.11,139.17Z"/><path class="cls-26" d="M497.19,146.88l11.92-7.71c-14.41-1.43-25-10.52-32.84-22.57-10.67-14-20.08-36.5-21.12-72.6h0L436.26,84.08C445.87,128.46,493,145.47,497.19,146.88Z"/><polygon class="cls-26" points="366.9 231.22 401.45 208.85 401.45 208.85 366.9 231.22"/><path class="cls-26" d="M382.86,220.74q-4.62-2.3-8.78-4.75l-7.18,15.23,34.55-22.36Z"/><polygon class="cls-26" points="467.8 165.91 490.98 150.91 490.98 150.91 467.8 165.91"/><path class="cls-26" d="M412.45,163.42l-7.89-12.09-6,12.62a175.58,175.58,0,0,0,26.9,19.45Z"/><path class="cls-26" d="M484.49,154.81c-28.89.72-45.46-32-54.09-58.3L416.69,125.6a146,146,0,0,0,11.38,11.95c3.23,3.06,36.08,29.75,36,29.84a67.18,67.18,0,0,1-7.85,5.83c-6.9,4.9-18.56-3.07-24.13-7-.35-.25-.69-.52-1-.77l11.14,17.05,25.61-16.58,23.18-15Z"/><path class="cls-26" d="M425.51,183.41c5,3,8.25,4.54,8.25,4.54l2.78-1.8-1.28-2-26.83-41.07-3.87,8.22,7.89,12.09Z"/><path class="cls-26" d="M441.75,182.27l.23.35.21-.14-11.14-17.05-.61-.45Z"/><path class="cls-26" d="M436.54,186.15l5.44-3.52-.23-.35L430.45,165A77.73,77.73,0,0,1,413,146.25q-1.82-2.71-3.45-5.55l-1.14,2.42,26.83,41.07Z"/><polygon class="cls-26" points="415.85 199.53 430.04 190.35 430.04 190.35 415.85 199.53"/><polygon class="cls-26" points="433.75 187.94 430.04 190.35 430.04 190.35 433.76 187.94 433.75 187.94"/><path class="cls-26" d="M430,190.29l-12.16,7.6a97,97,0,0,1-27.2-17.06l-8,17.06a192.61,192.61,0,0,0,18.85,11l14.4-9.32L430,190.35Z"/><path class="cls-26" d="M430,190.35l3.71-2.4L430,190.29Z"/><polygon class="cls-27" points="321.72 127.12 321.72 127.12 327.72 123.39 321.72 127.12"/><path class="cls-27" d="M374.08,216l8.53-18.09c-23.89-15.6-60.25-46.18-45.15-80.58l-9.74,6.06-6,3.74S315.82,181.8,374.08,216Z"/><polygon class="cls-28" points="401.45 208.85 401.45 208.85 401.45 208.85 401.45 208.85"/><path class="cls-28" d="M382.61,197.9,374.08,216q4.17,2.45,8.78,4.75l18.59-11.89h0A192.56,192.56,0,0,1,382.61,197.9Z"/><path class="cls-27" d="M369.2,97.18l-12,7.84h0l11.93-7.43C369.15,97.45,369.17,97.32,369.2,97.18Z"/><path class="cls-27" d="M390.65,180.84l8-16.88c-17.88-15.9-34.83-38.86-29.48-66.36L357.19,105S356.52,150.3,390.65,180.84Z"/><polygon class="cls-28" points="433.76 187.94 433.76 187.94 433.75 187.94 433.76 187.94"/><path class="cls-28" d="M398.61,164l-8,16.88a97,97,0,0,0,27.2,17.06l12.16-7.6-4.5-6.88A175.58,175.58,0,0,1,398.61,164Z"/><path class="cls-28" d="M425.51,183.41l4.5,6.88,3.75-2.35h0S430.52,186.36,425.51,183.41Z"/><path class="cls-27" d="M393.24,82.57h0l3.45-2.15Z"/><path class="cls-27" d="M397.27,80.05l4-2.49Z"/><path class="cls-27" d="M394.64,96a144.62,144.62,0,0,0,4.78,21l12.38,19,4.88-10.36a84.4,84.4,0,0,1-11.13-16.53,48.53,48.53,0,0,1-5.09-16.2c-.32-2.87-1.13-14.09,1.79-15.91l-1,.62-4,2.49-.58.36-3.45,2.15C392.11,83.27,394.47,94.79,394.64,96Z"/><path class="cls-27" d="M411.81,136l-12.38-19c.09.31.18.62.28.93l12,18.32Z"/><path class="cls-27" d="M411.67,136.24l-12-18.32a114.86,114.86,0,0,0,9.87,22.77Z"/><path class="cls-28" d="M432.09,166.2c5.57,3.94,17.23,11.91,24.13,7a67.18,67.18,0,0,0,7.85-5.83c.09-.09-32.76-26.78-36-29.84a146,146,0,0,1-11.38-11.95L411.81,136l19.25,29.47C431.4,165.68,431.74,166,432.09,166.2Z"/><path class="cls-28" d="M430.45,165l.61.45L411.81,136l-.13.29Z"/><path class="cls-28" d="M409.57,140.7q1.64,2.84,3.45,5.55A77.73,77.73,0,0,0,430.45,165l-18.78-28.73Z"/><path class="cls-27" d="M491,150.91,497.5,147l-.3-.1-.45.29Z"/><polygon class="cls-27" points="496.74 147.18 497.19 146.88 497.19 146.88 496.74 147.18"/><polygon class="cls-27" points="435.31 56.36 422.42 64.39 422.42 64.39 435.31 56.36 435.31 56.36"/><path class="cls-27" d="M436.26,84.08a80.65,80.65,0,0,1-.95-27.72l-12.89,8a222.29,222.29,0,0,0,8,32.12Z"/><polygon class="cls-28" points="490.98 150.91 490.98 150.91 496.74 147.18 490.98 150.91"/><path class="cls-28" d="M484.49,154.81l6.49-3.9,5.76-3.73.45-.29c-4.15-1.41-51.32-18.42-60.94-62.8L430.4,96.51C439,122.79,455.6,155.53,484.49,154.81Z"/><polygon class="cls-26" points="553.13 323.25 558 320.06 558 320.06 553.13 323.25"/><path class="cls-26" d="M497,260.94l-1.45,3.18L518,298.49l21.85,33.45,13.33-8.7,4.87-3.18C531.64,311.28,511.45,286.48,497,260.94Z"/><path class="cls-26" d="M498.78,295.6,488.4,279.7l-5.33,11.67a180.53,180.53,0,0,0,33.36,31Q507.56,309,498.78,295.6Z"/><path class="cls-26" d="M504.21,289.77l-12-18.4-3.8,8.33,10.38,15.89q8.77,13.42,17.66,26.76a167.43,167.43,0,0,0,15.61,10Z"/><path class="cls-26" d="M539.59,332.09l.21-.14L518,298.49l-22.45-34.37-.13.27,20.43,31.29Z"/><path class="cls-26" d="M504.21,289.77,532,332.4c2.47,1.39,3.89,2.07,3.89,2.07l3.65-2.39-23.77-36.4L495.38,264.4l-3.19,7Z"/><path class="cls-26" d="M527.69,339.86,520,342.35a124.75,124.75,0,0,1-44.52-34.42L464.9,331.18a172.82,172.82,0,0,0,39.35,24Z"/><path class="cls-26" d="M442.22,386.8a50,50,0,0,0,6.64,4.54l1.64-1.07C447.63,389.24,444.9,388.06,442.22,386.8Z"/><circle class="cls-26" cx="554.5" cy="134.89" transform="translate(17.45 327.88) rotate(-33.44)"/><path class="cls-26" d="M608.79,286.89l28.71-18.75s-74.18-16.66-83-133.25h0l-25.09,55C547.21,250.95,608.79,286.89,608.79,286.89Z"/><path class="cls-26" d="M576.63,307.9,594.82,296c-41.21-17.61-63.14-55.45-74.56-86.13l-16.33,35.78C529.7,288.58,576.63,307.9,576.63,307.9Z"/><path class="cls-26" d="M488.17,365.67a96.92,96.92,0,0,1-31.76-15.88L448,368.27a128.34,128.34,0,0,0,20.3,10.39Z"/><polygon class="cls-27" points="380.64 248.43 364.67 258.86 364.67 258.86 380.64 248.43 380.64 248.43"/><path class="cls-27" d="M420.35,372.91a50.83,50.83,0,0,0,6.62-5.23c0-.33,0-.53,0-.53l.16.37.3-.27a50.65,50.65,0,0,0,12.82,17.89l7.7-16.87c-26.31-16.18-68.7-52.73-67.33-119.84l-16,10.43S372.92,333.58,420.35,372.91Z"/><path class="cls-28" d="M450.5,390.27l17.78-11.61A128.34,128.34,0,0,1,448,368.27l-7.7,16.87c.63.57,1.28,1.12,1.95,1.66C444.9,388.06,447.63,389.24,450.5,390.27Z"/><polygon class="cls-27" points="418.43 223.75 400.23 235.64 400.23 235.64 418.43 223.75 418.43 223.75"/><path class="cls-27" d="M456.41,349.79l8.49-18.61c-25.93-20.89-53.86-56-46.47-107.43l-18.2,11.89S406.76,312.37,456.41,349.79Z"/><path class="cls-28" d="M504.25,355.17a172.82,172.82,0,0,1-39.35-24l-8.49,18.61a96.92,96.92,0,0,0,31.76,15.88Z"/><path class="cls-27" d="M441.83,208.4l-4.36,2.91h0l4.39-2.87Z"/><path class="cls-27" d="M448.34,204.22l-.08-.12-6.43,4.3,0,0Z"/><path class="cls-27" d="M450,202.92l-1.76,1.18.08.12,1.69-1.11C450,203,450,203,450,202.92Z"/><path class="cls-27" d="M475.51,307.93l7.56-16.56c-14.23-17.19-26.93-39.71-31.37-67.86l-9.84-15.07-4.39,2.87S440.86,266,475.51,307.93Z"/><path class="cls-27" d="M448.34,204.22l-6.48,4.23,9.84,15.07A138.07,138.07,0,0,1,450.15,207Z"/><path class="cls-27" d="M450,203.11l-1.69,1.11,1.82,2.78C450.11,205.71,450,204.43,450,203.11Z"/><path class="cls-28" d="M527.69,339.86l.27-.18-11.52-17.32a180.53,180.53,0,0,1-33.36-31l-7.56,16.56A124.75,124.75,0,0,0,520,342.35Z"/><path class="cls-28" d="M532,332.4a167.43,167.43,0,0,1-15.61-10L528,339.69l6.21-4.05Z"/><path class="cls-28" d="M535.94,334.47s-1.42-.69-3.89-2.07l2.11,3.23Z"/><path class="cls-27" d="M487.75,178.28l-19.38,12.85h0l19.37-12.65C487.74,178.42,487.74,178.35,487.75,178.28Z"/><path class="cls-27" d="M503.94,245.66a113.53,113.53,0,0,1-16.2-67.17l-19.37,12.65s9.16,35.56,28.59,69.81Z"/><polygon class="cls-28" points="558 320.06 570.47 311.92 558 320.06 558 320.06"/><path class="cls-28" d="M503.94,245.66l-7,15.28c14.49,25.53,34.68,50.33,61,59.12l12.47-8.14,6.15-4S529.7,288.58,503.94,245.66Z"/><path class="cls-27" d="M524.66,154.37l-16.09,9.57s0,.31.11.86l16-10.44Z"/><path class="cls-27" d="M529.41,189.86a117.49,117.49,0,0,1-4.75-35.48l-16,10.44a217.13,217.13,0,0,0,11.59,45.07Z"/><path class="cls-28" d="M594.82,296l14-9.12s-61.59-35.95-79.38-97l-9.14,20C531.68,240.56,553.61,278.41,594.82,296Z"/><path class="cls-29" d="M639.91,313.58c-1.72-3-2.82-4.81-3.51-6l-.22.24a75,75,0,0,0,9.17,13.05l0,0A42.61,42.61,0,0,1,639.91,313.58Z"/><path class="cls-29" d="M652.71,330.64A209.2,209.2,0,0,1,620.45,374c17.32-16.6,28.52-31.71,30.8-36.16C652.8,334.84,653.14,332.59,652.71,330.64Z"/><path class="cls-29" d="M573.15,409.52l0-.07q-4.41,2.25-9.08,4.28.94-.17,1.86-.38C568.35,412.14,570.76,410.85,573.15,409.52Z"/><path class="cls-29" d="M656,234.23,673.79,267l-7.44-14.16C658.92,238.67,656,234.23,656,234.23Z"/><path class="cls-29" d="M573.11,409.46l0,.07,1.81-1Z"/><path class="cls-29" d="M586,402.11a3.51,3.51,0,0,1,.32,1.4s0,0,0,.05c1.23-1,2.42-2,3.56-3.09l.05.11v-.1c.48,1.16,1,2.25,1.52,3.32s1.24,2.27,1.92,3.36c25.59-16,52.7-37.12,73.34-63.44,0,0,2.81-8.18-.17-14.83s-10.29-12.3-10.29-12.3l-7.4-6.48,35.57-36.36-7.79-36.88L743,195.62c.5-1.66.76-2.54.76-2.54l26.37-14.34-8.71-13.33L656,234.23s2.9,4.44,10.34,18.61L673.79,267,636.4,307.62c.7,1.14,1.8,3,3.51,6a42.61,42.61,0,0,0,5.47,7.37c5,5.32,9.64,6.24,7.35,9.65l0,0c.43,2,.09,4.2-1.46,7.23-2.28,4.45-13.48,19.56-30.8,36.16A185.62,185.62,0,0,1,586,402.11Z"/><path class="cls-29" d="M565.89,413.36a50.17,50.17,0,0,0,8.07-2.54l-.81-1.3C570.76,410.85,568.35,412.14,565.89,413.36Z"/><path class="cls-29" d="M586.3,403.45a1.12,1.12,0,0,1,0,.12h0s0,0,0-.05a3.51,3.51,0,0,0-.32-1.4l-.35.22c.2.36.4.72.59,1.08Z"/><path class="cls-29" d="M584.49,405a14.91,14.91,0,0,1-3-.13q-3.21,1.88-6.58,3.66l-1.81,1,.81,1.3A50.65,50.65,0,0,0,584.49,405Z"/><path class="cls-29" d="M584.49,405q.94-.68,1.84-1.4a1.12,1.12,0,0,0,0-.12l0,0c-.19-.36-.4-.72-.59-1.08q-2,1.27-4.14,2.51A14.91,14.91,0,0,0,584.49,405Z"/><polygon class="cls-26" points="317 26.73 317 26.73 317 26.73 317 26.73"/><path class="cls-26" d="M323.6,30.72c.6.94,1.17,2,1.72,3A6,6,0,0,0,323.6,30.72Z"/><path class="cls-26" d="M346.26,71.53h0a22.86,22.86,0,0,1-4.17,3.56C344.42,73.53,345.66,72.63,346.26,71.53Z"/><polygon class="cls-26" points="347.14 69.92 347.14 69.92 347.14 69.92 347.14 69.92"/><path class="cls-26" d="M336.87,78.61l1.18-.81C337.58,78.11,337.18,78.39,336.87,78.61Z"/><path class="cls-26" d="M247.71,113.06c-.51,1.43-.06,2.29,1.81,2.28h0A11.06,11.06,0,0,1,247.71,113.06Z"/><path class="cls-26" d="M341.38,59.9h0l-3.65-5.4h0l1.84,2.91C339.93,58,340.6,58.87,341.38,59.9Z"/><path class="cls-26" d="M261,112.38l.27-.2s10-7.79,11.05-8.28C268.43,105.78,265.07,108.45,261,112.38Z"/><path class="cls-26" d="M329.16,83.84l.53-.36-1,.59Z"/><path class="cls-26" d="M292.6,99l1.06-.29c-.6.14-1.19.31-1.79.45Z"/><path class="cls-26" d="M313.51,92.09l.41-.21-.7.32Z"/><path class="cls-26" d="M272.77,103.71l-.4.19Z"/><path class="cls-26" d="M302.42,60.15l-3.54,5.27s4.64,9.12,1.45,10.59l7.29,1.94s5.56-4.21,6.1-2.81c0,0,3.51,5-.71,6.61,0,0,1.34,4.35-2.19,5.31,0,0-5.61-1.39-4.4-5.26l-4.53-2.55-.52,4.54-3.61,1.88-1.73.9-6-2.89-.45,5.5s3.63,5.73.73,7.34c0,0-3.8.36-4.37-3,0,0-6.11,1.82-6.38-2.36,0,0,2.55-3.82,6.28-2.89l1.73-7.75A22.72,22.72,0,0,1,285.57,79a57.32,57.32,0,0,1-8.51,5.56S250.25,106,247.71,113.06a11.06,11.06,0,0,0,1.82,2.28c6.89-.06,10.58-2.29,11.52-3,4-3.93,7.38-6.6,11.33-8.48h0l.4-.19c1.86-.92,8.08-4.25,8.08-4.25a43.22,43.22,0,0,0,11-.33c.6-.13,1.19-.3,1.79-.45,5.32-1.5,17.58-5.8,19.55-6.49l.7-.32,14.81-7.81,1-.59c1.06-.72,3.73-2.52,7.18-4.87.31-.22.71-.5,1.18-.81h0c1.63-1.12,2.94-2,4-2.71a22.86,22.86,0,0,0,4.17-3.56l.88-1.62h0l-5.75-10c-.79-1-1.45-1.91-1.82-2.49l-1.84-2.91s-11.66-16.46-12-18.61c-.12-.71-.2-1.44-.39-2.19-.55-1-1.13-2-1.72-3A10.7,10.7,0,0,0,321.23,29L317,26.73h0a118.5,118.5,0,0,1-12.16,29.43C305.87,57.25,305.75,58.62,302.42,60.15Z"/><path class="cls-30" d="M293.53,71a1.3,1.3,0,0,1,.64-1.73,1.29,1.29,0,0,1,1.33.17,91.47,91.47,0,0,0,9.35-13.26c-1.5-1.58-5.44-2.57-5.44-2.57-6.8-1.84-3.14,5.41-3.14,5.41l-2,4.91A14.34,14.34,0,0,0,288.27,65a11.63,11.63,0,0,0-5,3.9l-3.84-1.87c1.48-4-3.3-4.29-3.3-4.29-3.55-.53-3.45,4.74-3.45,4.74-3.91.14-2.11,4.61-2.11,4.61,3.61,2.64,7.37-1.07,7.37-1.07l4,1.48c-.84,2.28,1.66,4.87,3.6,6.47a67.83,67.83,0,0,0,8.23-7.66A1.28,1.28,0,0,1,293.53,71Zm-4.78,3.63a1.3,1.3,0,1,1,.64-1.73A1.3,1.3,0,0,1,288.75,74.62Z"/><path class="cls-31" d="M285.89,88.27c-3.74-.93-6.28,2.89-6.28,2.89.27,4.18,6.38,2.36,6.38,2.36.56,3.38,4.37,3,4.37,3,2.9-1.6-.73-7.34-.73-7.34l.45-5.5,6,2.89,1.73-.9,3.61-1.88.52-4.54,4.53,2.55c-1.2,3.86,4.4,5.26,4.4,5.26,3.53-1,2.19-5.31,2.19-5.31,4.22-1.61.71-6.61.71-6.61-.54-1.41-6.1,2.81-6.1,2.81L300.33,76c3.19-1.47-1.45-10.59-1.45-10.59l3.54-5.27c3.33-1.53,3.46-2.9,2.43-4a91.47,91.47,0,0,1-9.35,13.26,1.27,1.27,0,0,1,.4.47,1.3,1.3,0,0,1-2.1,1.46A67.83,67.83,0,0,1,285.57,79a22.72,22.72,0,0,0,2.06,1.51Z"/><circle cx="288.2" cy="73.43" r="1.3" transform="translate(-4.32 127.14) rotate(-24.7)"/><path d="M294.17,69.25a1.3,1.3,0,0,0-.64,1.73,1.28,1.28,0,0,0,.27.37c.58-.64,1.15-1.28,1.7-1.93A1.29,1.29,0,0,0,294.17,69.25Z"/><path d="M295.25,71.62a1.3,1.3,0,0,0,.64-1.73,1.27,1.27,0,0,0-.4-.47c-.56.65-1.12,1.3-1.7,1.93A1.29,1.29,0,0,0,295.25,71.62Z"/><path class="cls-32" d="M791.61,402a49.23,49.23,0,0,0-2.37-33.14c.87,3.24,1.75,6.2,2.49,8.6C794.46,386.21,792.4,391.29,791.61,402Z"/><path class="cls-32" d="M789.24,368.84l-1.4-9.36-.68.81C787.79,363.23,788.51,366.13,789.24,368.84Z"/><path class="cls-32" d="M759.41,445.5q1.13,1.42,2.37,2.76c9-9,17.07-18.84,22.82-29.21a119.69,119.69,0,0,1-10.16,13.15Q766.85,439,759.41,445.5Z"/><path class="cls-25" d="M692.62,441.23a50.27,50.27,0,0,0,59.74-7.51l.1.22v-.2a52.17,52.17,0,0,0,2.85,5.82,50.83,50.83,0,0,0,4.1,5.94q7.44-6.48,15-13.3A119.69,119.69,0,0,0,784.6,419a73.7,73.7,0,0,0,7-17.06c.8-10.69,2.85-15.77.12-24.55-.75-2.4-1.62-5.36-2.49-8.6h0c-.73-2.71-1.45-5.6-2.08-8.56C780.58,368,754,396.93,692.62,441.23Z"/><path class="cls-32" d="M692.62,441.23a50.27,50.27,0,0,0,59.74-7.51l.1.22v-.2a52.17,52.17,0,0,0,2.85,5.82,50.83,50.83,0,0,0,4.1,5.94q7.44-6.48,15-13.3A119.69,119.69,0,0,0,784.6,419a73.7,73.7,0,0,0,7-17.06c.8-10.69,2.85-15.77.12-24.55-.75-2.4-1.62-5.36-2.49-8.6h0c-.73-2.71-1.45-5.6-2.08-8.56C780.58,368,754,396.93,692.62,441.23Z"/><path class="cls-32" d="M778,293.57l-7.16-47.86-.71-67h0C762.17,191.47,770.9,250.24,778,293.57Z"/><path class="cls-25" d="M770.11,178.74,743,195.62c-5.32,17.52-38.81,123.31-100.16,224.17,40.13-28.5,86.13-63.07,138.34-105L778,293.57C770.9,250.24,762.17,191.47,770.11,178.74Z"/><path class="cls-32" d="M770.11,178.74,743,195.62c-5.32,17.52-38.81,123.31-100.16,224.17,40.13-28.5,86.13-63.07,138.34-105L778,293.57C770.9,250.24,762.17,191.47,770.11,178.74Z"/><path class="cls-29" d="M743,195.62l27.13-16.88h0l-26.37,14.34S743.48,194,743,195.62Z"/><path class="cls-32" d="M743,195.62l27.13-16.88h0l-26.37,14.34S743.48,194,743,195.62Z"/><path class="cls-24" d="M635.72,431.18c2.4-3.79,4.77-7.58,7.09-11.39q-7.7,5.47-15.11,10.64A50.44,50.44,0,0,0,635.72,431.18Z"/><path class="cls-26" d="M787.15,360.28l.68-.81c.69-.83,1-1.26,1-1.26l-6.24-44.57-1.19,1c2.28,13.86,3.84,23.84,3.64,26.43C784.66,346.41,785.68,353.46,787.15,360.28Z"/><path class="cls-26" d="M642.81,419.79c-2.32,3.81-4.69,7.6-7.09,11.39a50.37,50.37,0,0,0,35.41-14.08l.17.37c0-.21,0-.33,0-.33a51.25,51.25,0,0,0,4.41,8.41,50.36,50.36,0,0,0,16.89,15.69c61.39-44.3,88-73.26,94.53-80.95-1.47-6.82-2.49-13.87-2.07-19.26.2-2.59-1.36-12.57-3.64-26.43l-.29.23C728.94,356.72,682.94,391.29,642.81,419.79Z"/><path class="cls-24" d="M448.86,391.34h0L432.6,402l7.39-16.2a102.26,102.26,0,0,1-19.64-12.86,50.38,50.38,0,0,1-19.77,7.77c17.14,14.9,32,21.28,32,21.28Z"/><path class="cls-25" d="M296.86,492.74l-.71-1.09Z"/><path class="cls-25" d="M565.85,522.31c-30.78,17.74-65.42,36.59-104.39,56.39l-23.27-18.17c9.62,10.25,21.53,23.09,37.95,30.32C509.06,574.45,539,550.48,565.85,522.31Z"/><path class="cls-25" d="M494.63,423.94c-7.51-4.58-12.75-12.59-12.75-12.59C484.66,417.66,490.06,421.6,494.63,423.94Z"/><path class="cls-25" d="M627.71,430.42c-.52-.09-1-.16-1.56-.27a50.12,50.12,0,0,1-32.75-23A418.21,418.21,0,0,1,515,445.56l-35.8-17.37-11,.82L365.78,467.39,308.91,489c19.14.18,17.5-4.19,30.79,2.53s18.31,8.87,27.71,16.32,24.28,12.22,33.06,17.35,9,4.08,14.61,11.28c4.84,6.21.1,1.18,10.41,11.23C438.68,543,502.49,517.84,627.71,430.42Z"/><path class="cls-25" d="M608.24,554.34a874.46,874.46,0,0,0,88.23-58.07C662,520.88,632.85,539.83,608.24,554.34Z"/><path class="cls-25" d="M293.9,488.2l-.22-.34Z"/><path class="cls-25" d="M288.8,480.39s17.52-7.58,42-17.76C307.44,471.59,288.13,479.37,288.8,480.39Z"/><path class="cls-25" d="M292.35,485.83l-1.27-2Z"/><path class="cls-26" d="M440,385.76,432.6,402l16.26-10.62a50,50,0,0,1-6.64-4.54C441.48,386.45,440.72,386.13,440,385.76Z"/><path class="cls-27" d="M427.45,367.25l-.3.27-.16-.37s0,.2,0,.53a50.83,50.83,0,0,1-6.62,5.23A102.26,102.26,0,0,0,440,385.76l.29-.62A50.65,50.65,0,0,1,427.45,367.25Z"/><path class="cls-28" d="M440.27,385.14l-.29.62c.73.36,1.49.69,2.23,1C441.56,386.26,440.91,385.71,440.27,385.14Z"/><path class="cls-29" d="M293.67,487.86l-1.32-2Z"/><path class="cls-29" d="M291.08,483.88l-2.28-3.49Z"/><path class="cls-29" d="M494.63,423.94a20.6,20.6,0,0,0,7.79,3A36.77,36.77,0,0,1,494.63,423.94Z"/><path class="cls-29" d="M297.51,493.72l-.64-1Z"/><path class="cls-29" d="M481.88,411.34c-3.72-8.48-95.43,28.13-151.1,51.29,34.81-13.35,78.59-29.29,78.59-29.29Z"/><path class="cls-29" d="M565.89,413.36q-.93.21-1.86.38a159.89,159.89,0,0,1-61.6,13.17c11.42,1.6,12.74.73,12.74.73C533.08,426.6,550.2,421.14,565.89,413.36Z"/><path class="cls-29" d="M296.15,491.65l-2.25-3.45Z"/><path class="cls-29" d="M468.23,429l11-.82L515,445.56a418.21,418.21,0,0,0,78.41-38.38c-.68-1.1-1.33-2.22-1.92-3.36s-1-2.17-1.52-3.32v.1l-.05-.11c-1.13,1.09-2.33,2.11-3.56,3.09v0a.74.74,0,0,1-.16.86s0,0,0,.06a6.93,6.93,0,0,1-2.48,2.85,50.41,50.41,0,0,1-7.21,4.54,1.86,1.86,0,0,1-1.21.3,1.9,1.9,0,0,1-1.07-1l-.24-.39a50.17,50.17,0,0,1-8.07,2.54c-15.69,7.78-32.81,13.24-50.72,14.28,0,0-1.33.87-12.74-.73a20.6,20.6,0,0,1-7.79-3c-4.57-2.34-10-6.27-12.75-12.59l-72.5,22s-43.79,15.95-78.59,29.29c-24.47,10.18-42,17.76-42,17.76l2.28,3.49,1.27,2,1.32,2,.22.34,2.25,3.45.71,1.09.64,1,11.4-4.73,56.87-21.6Z"/><path class="cls-29" d="M584.49,405A50.65,50.65,0,0,1,574,410.83l.24.39a1.9,1.9,0,0,0,1.07,1,1.86,1.86,0,0,0,1.21-.3,50.41,50.41,0,0,0,7.21-4.54,6.93,6.93,0,0,0,2.48-2.85s0,0,0-.06A2.9,2.9,0,0,1,584.49,405Z"/><path class="cls-29" d="M586.34,403.6v0h0Z"/><path class="cls-29" d="M586.34,403.6a3,3,0,0,1-.16.86A.74.74,0,0,0,586.34,403.6Z"/><path class="cls-29" d="M584.49,405a2.9,2.9,0,0,0,1.69-.52,3,3,0,0,0,.16-.86v0Q585.43,404.3,584.49,405Z"/><path class="cls-32" d="M476.14,590.86h0s13.1,33.67,132.12-36.52c-48.32,27.58-77.86,37.24-77.86,37.24C508,599.15,490.36,597.11,476.14,590.86Z"/><path class="cls-32" d="M696.47,496.27l.07,0s37-19.68,65.25-48q-1.23-1.34-2.37-2.76C737.4,464.66,716.31,481.51,696.47,496.27Z"/><path class="cls-25" d="M755.32,439.55a52.17,52.17,0,0,1-2.85-5.82v.2l-.1-.22a50.27,50.27,0,0,1-59.74,7.51c-32.06,23.13-73.6,50.44-126.77,81.09-26.88,28.16-56.78,52.13-89.71,68.54,14.22,6.26,31.82,8.3,54.25.73,0,0,29.54-9.66,77.86-37.24,24.61-14.51,53.74-33.46,88.23-58.07,19.84-14.77,40.93-31.62,62.95-50.78A50.83,50.83,0,0,1,755.32,439.55Z"/><path class="cls-32" d="M755.32,439.55a52.17,52.17,0,0,1-2.85-5.82v.2l-.1-.22a50.27,50.27,0,0,1-59.74,7.51c-32.06,23.13-73.6,50.44-126.77,81.09-26.88,28.16-56.78,52.13-89.71,68.54,14.22,6.26,31.82,8.3,54.25.73,0,0,29.54-9.66,77.86-37.24,24.61-14.51,53.74-33.46,88.23-58.07,19.84-14.77,40.93-31.62,62.95-50.78A50.83,50.83,0,0,1,755.32,439.55Z"/><path class="cls-24" d="M425.5,547.7c-1.74.62-2.61.88-2.61.88l15.31,12c-2.3-2.45-4.48-4.76-6.55-6.8C429.14,551.27,427.13,549.3,425.5,547.7Z"/><path class="cls-24" d="M565.85,522.31c26.18-27.43,49.46-58.85,69.88-91.14a50.44,50.44,0,0,1-8-.75C502.49,517.84,438.68,543,425.5,547.7c1.64,1.6,3.65,3.56,6.15,6,2.07,2,4.25,4.35,6.55,6.8l23.27,18.17C500.43,558.9,535.07,540.05,565.85,522.31Z"/><path class="cls-26" d="M692.62,441.23a50.36,50.36,0,0,1-16.89-15.69,51.25,51.25,0,0,1-4.41-8.41s0,.12,0,.33l-.17-.37a50.37,50.37,0,0,1-35.41,14.08c-20.42,32.29-43.7,63.7-69.88,91.14C619,491.67,660.56,464.36,692.62,441.23Z"/><g class="cls-33"><path class="cls-34" d="M1451.15,143.3a50.26,50.26,0,0,1-41.45-21.81,50.3,50.3,0,0,1-82.91,0,50.3,50.3,0,0,1-82.91,0,50.3,50.3,0,0,1-82.91,0,50.3,50.3,0,0,1-82.91,0,50.3,50.3,0,0,1-82.91,0,50.3,50.3,0,0,1-82.91,0,50.3,50.3,0,0,1-82.91,0,50.3,50.3,0,0,1-82.91,0,50.3,50.3,0,0,1-82.91,0,50.3,50.3,0,0,1-82.91,0,50.3,50.3,0,0,1-82.91,0,50.3,50.3,0,0,1-82.91,0,50.3,50.3,0,0,1-82.91,0,50.3,50.3,0,0,1-82.91,0,50.3,50.3,0,0,1-82.91,0,50.3,50.3,0,0,1-82.91,0A50.22,50.22,0,0,1,8,130.33V599.38H1484.79V130.33A50.09,50.09,0,0,1,1451.15,143.3Z"/><path class="cls-20" d="M994.65,121.49s4.73,33.1,42.83,43.77c0,0,34.07,11.44-1.37-22A49,49,0,0,1,994.65,121.49Z"/><path class="cls-20" d="M1077.28,121.49s4.73,33.1,42.83,43.77c0,0,34.07,11.44-1.37-22A49,49,0,0,1,1077.28,121.49Z"/><path class="cls-20" d="M911.61,121.49s4.73,33.1,42.83,43.77c0,0,34.07,11.44-1.37-22A49,49,0,0,1,911.61,121.49Z"/><path class="cls-20" d="M828.57,121.49s4.73,33.1,42.83,43.77c0,0,34.07,11.44-1.37-22A49,49,0,0,1,828.57,121.49Z"/><path class="cls-20" d="M745.74,121.49s4.73,33.1,42.83,43.77c0,0,34.07,11.44-1.37-22A49,49,0,0,1,745.74,121.49Z"/><path class="cls-20" d="M662.9,121.49s4.73,33.1,42.83,43.77c0,0,34.07,11.44-1.37-22A49,49,0,0,1,662.9,121.49Z"/><path class="cls-20" d="M579.87,121.49s4.73,33.1,42.83,43.77c0,0,34.07,11.44-1.37-22A49,49,0,0,1,579.87,121.49Z"/><path class="cls-20" d="M414.78,121.49s4.73,33.1,42.83,43.77c0,0,34.07,11.44-1.37-22A49,49,0,0,1,414.78,121.49Z"/><path class="cls-20" d="M497.41,121.49s4.73,33.1,42.83,43.77c0,0,34.07,11.44-1.37-22A49,49,0,0,1,497.41,121.49Z"/><path class="cls-20" d="M331.74,121.49s4.73,33.1,42.83,43.77c0,0,34.07,11.44-1.37-22A49,49,0,0,1,331.74,121.49Z"/><path class="cls-20" d="M248.71,121.49s4.73,33.1,42.83,43.77c0,0,34.07,11.44-1.37-22A49,49,0,0,1,248.71,121.49Z"/><path class="cls-20" d="M165.87,121.49s4.73,33.1,42.83,43.77c0,0,34.07,11.44-1.37-22A49,49,0,0,1,165.87,121.49Z"/><path class="cls-20" d="M83,121.49s4.73,33.1,42.83,43.77c0,0,34.07,11.44-1.37-22A49,49,0,0,1,83,121.49Z"/><path class="cls-20" d="M0,121.49s4.73,33.1,42.83,43.77c0,0,34.07,11.44-1.37-22A49,49,0,0,1,0,121.49Z"/><path class="cls-20" d="M1326.36,121.49s4.73,33.1,42.83,43.77c0,0,34.07,11.44-1.37-22A49,49,0,0,1,1326.36,121.49Z"/><path class="cls-20" d="M1243.53,121.49s4.73,33.1,42.83,43.77c0,0,34.07,11.44-1.37-22A49,49,0,0,1,1243.53,121.49Z"/><path class="cls-20" d="M1160.49,121.49s4.73,33.1,42.83,43.77c0,0,34.07,11.44-1.37-22A49,49,0,0,1,1160.49,121.49Z"/><path class="cls-20" d="M1409.2,121.49s4.73,33.1,42.83,43.77c0,0,34.07,11.44-1.37-22A49,49,0,0,1,1409.2,121.49Z"/></g></g></g></g></svg>