<svg xmlns="http://www.w3.org/2000/svg" xmlns:xlink="http://www.w3.org/1999/xlink" viewBox="0 0 1476.75 477.89"><defs><style>.cls-1{isolation:isolate;}.cls-2{opacity:0.75;mix-blend-mode:multiply;}.cls-3{fill:url(#linear-gradient);}</style><linearGradient id="linear-gradient" x1="738.37" y1="2.02" x2="738.37" y2="476.53" gradientUnits="userSpaceOnUse"><stop offset="0" stop-color="#3e64ad"/><stop offset="0.24" stop-color="#3d62a9"/><stop offset="0.45" stop-color="#395b9e"/><stop offset="0.67" stop-color="#32518b"/><stop offset="0.87" stop-color="#294271"/><stop offset="1" stop-color="#22365d"/></linearGradient></defs><title>sea</title><g class="cls-1"><g id="Слой_2" data-name="Слой 2"><g id="Layer_1" data-name="Layer 1"><g class="cls-2"><path class="cls-3" d="M1443.1,21.81A50.26,50.26,0,0,1,1401.65,0a50.26,50.26,0,0,1-41.45,21.81A50.26,50.26,0,0,1,1318.74,0a50.26,50.26,0,0,1-41.45,21.81A50.26,50.26,0,0,1,1235.83,0a50.26,50.26,0,0,1-41.45,21.81A50.26,50.26,0,0,1,1152.92,0a50.26,50.26,0,0,1-41.45,21.81A50.26,50.26,0,0,1,1070,0a50.26,50.26,0,0,1-41.45,21.81A50.26,50.26,0,0,1,987.1,0a50.27,50.27,0,0,1-41.45,21.81A50.26,50.26,0,0,1,904.19,0a50.26,50.26,0,0,1-41.45,21.81A50.26,50.26,0,0,1,821.28,0a50.26,50.26,0,0,1-41.45,21.81A50.26,50.26,0,0,1,738.37,0a50.26,50.26,0,0,1-41.45,21.81A50.26,50.26,0,0,1,655.46,0,50.26,50.26,0,0,1,614,21.81,50.26,50.26,0,0,1,572.56,0,50.26,50.26,0,0,1,531.1,21.81,50.26,50.26,0,0,1,489.65,0a50.26,50.26,0,0,1-41.45,21.81A50.26,50.26,0,0,1,406.74,0a50.26,50.26,0,0,1-41.45,21.81A50.26,50.26,0,0,1,323.83,0a50.26,50.26,0,0,1-41.45,21.81A50.26,50.26,0,0,1,240.92,0a50.26,50.26,0,0,1-41.45,21.81A50.26,50.26,0,0,1,158,0a50.26,50.26,0,0,1-41.45,21.81A50.26,50.26,0,0,1,75.1,0,50.26,50.26,0,0,1,33.64,21.81,50.09,50.09,0,0,1,0,8.84V477.89H1476.75V8.84A50.09,50.09,0,0,1,1443.1,21.81Z"/></g></g></g></g></svg>