<svg xmlns="http://www.w3.org/2000/svg" viewBox="0 0 38.71 37"><defs><style>.cls-1{fill:#fab800;}</style></defs><title>star-favourite</title><g id="Слой_2" data-name="Слой 2"><g id="Layer_1" data-name="Layer 1"><path class="cls-1" d="M21.15,1.31l3.27,10.07a1.89,1.89,0,0,0,1.8,1.31H36.81a1.89,1.89,0,0,1,1.11,3.43l-8.56,6.22a1.89,1.89,0,0,0-.69,2.12l3.27,10.07A1.89,1.89,0,0,1,29,36.63l-8.56-6.22a1.89,1.89,0,0,0-2.23,0L9.68,36.63a1.89,1.89,0,0,1-2.91-2.12L10,24.45a1.89,1.89,0,0,0-.69-2.12L.78,16.11A1.89,1.89,0,0,1,1.9,12.68H12.48a1.89,1.89,0,0,0,1.8-1.31L17.55,1.31A1.89,1.89,0,0,1,21.15,1.31Z"/></g></g></svg>