<svg xmlns="http://www.w3.org/2000/svg" viewBox="0 0 39.71 38"><defs><style>.cls-1{fill:#f6f6f6;stroke:#9d9d9c;stroke-miterlimit:10;}</style></defs><title>star</title><g id="Слой_2" data-name="Слой 2"><g id="Layer_1" data-name="Layer 1"><path class="cls-1" d="M21.65,1.81l3.27,10.07a1.89,1.89,0,0,0,1.8,1.31H37.31a1.89,1.89,0,0,1,1.11,3.43l-8.56,6.22a1.89,1.89,0,0,0-.69,2.12L32.44,35a1.89,1.89,0,0,1-2.91,2.12L21,30.91a1.89,1.89,0,0,0-2.23,0l-8.56,6.22A1.89,1.89,0,0,1,7.26,35l3.27-10.07a1.89,1.89,0,0,0-.69-2.12L1.28,16.61A1.89,1.89,0,0,1,2.4,13.18H13a1.89,1.89,0,0,0,1.8-1.31L18.05,1.81A1.89,1.89,0,0,1,21.65,1.81Z"/></g></g></svg>