<svg xmlns="http://www.w3.org/2000/svg" xmlns:xlink="http://www.w3.org/1999/xlink" viewBox="0 0 571.54 355.89"><defs><style>.cls-1{fill:none;}.cls-2{isolation:isolate;}.cls-3{clip-path:url(#clip-path);}.cls-4{clip-path:url(#clip-path-2);}.cls-5{fill:#8b3f26;}.cls-6{fill:#944c35;}.cls-7{mix-blend-mode:multiply;}.cls-8{fill:#d5d4d4;}.cls-9{fill:#576e28;}.cls-10{fill:#77932b;}.cls-11{fill:#c7d664;}.cls-12{fill:#8ca927;}.cls-13{fill:#6b3420;}.cls-14,.cls-22,.cls-24{fill:#a06049;}.cls-15{fill:#7e3b24;}.cls-16{fill:#5d2e1e;}.cls-17{fill:#763924;}.cls-18{fill:#572c1d;}.cls-19{clip-path:url(#clip-path-3);}.cls-20{clip-path:url(#clip-path-4);}.cls-21{fill:url(#linear-gradient);}.cls-22{opacity:0.66;}.cls-23{fill:#432918;}.cls-24{opacity:0.33;}.cls-25{clip-path:url(#clip-path-5);}.cls-26{clip-path:url(#clip-path-6);}.cls-27{clip-path:url(#clip-path-7);}.cls-28{fill:url(#linear-gradient-2);}</style><clipPath id="clip-path" transform="translate(0 -7.74)"><rect class="cls-1" x="118.94" width="432.3" height="376.03"/></clipPath><clipPath id="clip-path-2" transform="translate(0 -7.74)"><path class="cls-1" d="M311,252.85,516.1,163.16q-16-36.57-31.85-73.2C475,68.63,470.5,44.67,458.06,24.84c-4.83-7.69-11.6-14.06-21.31-13.58-9.94.49-15.15,9.15-23.7,12.87q-21.89,9.52-43.75,19.12-43.72,19.17-87.43,38.36L243.49,98.4Z"/></clipPath><clipPath id="clip-path-3" transform="translate(0 -7.74)"><rect class="cls-1" x="63.5" y="136.04" width="223.82" height="171.96" transform="translate(-74.27 88.89) rotate(-23.62)"/></clipPath><clipPath id="clip-path-4" transform="translate(0 -7.74)"><path class="cls-1" d="M113.85,357.79l106.41-46.54,198-86.59Q456.3,208,494.39,191.43C509.09,185,528.94,181,522,160.65c-2.91-8.51-7.57-16.21-11.48-24.26-5.41-11.16-12-21.89-16.95-33.25Q476.87,65.06,460.17,27v0L48,207.22Z"/></clipPath><linearGradient id="linear-gradient" x1="495.54" y1="131.34" x2="495.54" y2="272.02" gradientTransform="matrix(1, 0, 0, -1, -203.58, 404.8)" gradientUnits="userSpaceOnUse"><stop offset="0" stop-color="#5d2e1e"/><stop offset="0.2" stop-color="#532b1b"/><stop offset="0.67" stop-color="#412515"/><stop offset="1" stop-color="#3a2313"/></linearGradient><clipPath id="clip-path-5" transform="translate(0 -7.74)"><path class="cls-1" d="M319.49,159.1H522.42c0-24.13.09-48.25.13-72.38,0-21.09,5-42.62,1.9-63.61-1.22-8.14-4.53-15.9-12.77-19-8.44-3.2-15.91,2.1-24.36,2.08q-21.64,0-43.28,0-43.28,0-86.57.1h-38Z"/></clipPath><clipPath id="clip-path-6" transform="translate(0 -7.74)"><rect class="cls-1" x="116.57" y="6.27" width="202.93" height="155.91"/></clipPath><clipPath id="clip-path-7" transform="translate(0 -7.74)"><path class="cls-1" d="M117.57,174.63H418.78q37.67,0,75.34.07c14.53,0,32.49,3.88,34.11-15.55.68-8.12-.4-16.22-.72-24.32-.44-11.24-2-22.53-2-33.77q0-37.69-.07-75.39v0H117.57Z"/></clipPath><linearGradient id="linear-gradient-2" x1="453.95" y1="47.09" x2="453.95" y2="174.63" gradientTransform="matrix(1, 0, 0, -1, -132.24, 221.72)" xlink:href="#linear-gradient"/></defs><title>step_one</title><g class="cls-2"><g id="Слой_2" data-name="Слой 2"><g id="Layer_1" data-name="Layer 1"><g class="cls-3"><g class="cls-4"><path class="cls-5" d="M455.38,14.58c-.15,3,1.93,6.41,3.1,9.09-4.61,4-12.7,6.13-18.3,8.58-6.09,2.66-11.94,5.22-17.92,8.13-22.93,10.61-45.4,21.6-68.86,31-21.65,8.89-43.33,18.37-64.55,28.23-11.34,5.25-23.12,12.15-35.18,15.1-3.73.76-6.09,2.66-8.07-.53-.88-1.35-1.11-3.87-1.4-5.19-.2-3.11-1.34-1.74,1-3.64,3.36-2.92,11.77-4.28,16-5.84,13.31-4.08,24.88-11.46,37.3-16.89,12.91-5.65,25.15-12.16,37.85-18.29,18.92-9.15,38.06-17.81,57.55-26.33S433.46,19.52,454,13.44Z" transform="translate(0 -7.74)"/><path class="cls-6" d="M417.8,33.92c7-3.05,14-6.11,20.71-9.25,1.62-.71,11.8-5.74,8.3-.92-1.89,2.76-8.51,4.88-11.52,6.39C419,38,402.51,45.83,385.94,53.07c-1.95.85-4.08,2.17-6,2.23-2.79.25-3.2-1.12-1.12-3,3-2.47,7.7-3.18,11.13-5.06,6.54-3.63,13.16-6.63,19.91-9.77C412.15,36.48,412.9,36,417.8,33.92Z" transform="translate(0 -7.74)"/><g class="cls-7"><path class="cls-8" d="M467.67,14.81c-3.41,2.16-9.23,6.1-13,7.39-2.47.84-5,2.35-7.84,3.24-7.68,2.35-11.67,3.17-18.85,7.33-12.9,7.66-28,11-40.51,19.5-5.84,3.9-12.79,4.58-19.49,7.18s-13.52,4.9-20,8.06c-13.52,6.25-27.15,13.56-41,18.29a75.48,75.48,0,0,0-18.51,8.77c-6.2,4.4-12.42,5.43-19.49,7.85-6.82,2.31-12.78,6.6-19.36,9.48-2.44,1.07-5.48,2.73-8.29,1.6-5-1.52-2.72-4.88.69-7,10.46-6.6,23.51-9.27,35-14.28,15.1-6.6,29.46-14.91,44.81-20.95,35.81-14.31,69.9-31.92,105-47.26l20.22-8.84C451.79,13,458.84,8.56,464.1,10Z" transform="translate(0 -7.74)"/></g><path class="cls-9" d="M228.52,112.35c1.71,2.15,18.71-5.86,21.57-7.3,4.31-2.08,8.78-2.49,13-4.33,4.87-2.13,9.51-4.35,14.38-6.48,21.27-9.3,43-19.14,64.3-28.12,15.81-6.66,18.9-9.43,28.87-13.6,12.81-5.21,25.69-10.27,38.14-16.29,9.51-4.35,19.3-8.06,28.44-12.82,4.08-2.17,10.58-4.89,14.87-6.57,1.46-.64,3.18-.36,4.13-1.74,2.14-3.06-2.85-1.65-4.55-1.11-8.13,2.2-15.89,6.56-23.08,10.48-13.72,7.55-28.4,12-42.83,18-15.24,6.28-29.38,14.2-44.16,20.67-11.85,5.18-24,9.16-35.88,14-11.51,4.65-22.61,10.66-34,15.63-13.32,5.82-27.18,10-39.27,18.14Z" transform="translate(0 -7.74)"/><path class="cls-10" d="M452,16.52c-2.84,1.67-13.2,4.75-16.19,5.87-4.46,1.76-8,4.27-12.22,6.12-4.87,2.13-9.65,4-14.52,6.16-21.27,9.3-43.62,17.92-63.88,29.1-9.39,5.07-19.54,8-29.37,12.46-12.52,5.86-25,11.89-37.86,16.94-9.65,4-19,8.71-28.72,12.18a123,123,0,0,0-12.76,5.77c-1.46.64-4.59,2.78-6.24,2.54-3.7-.51.72-3.22,2.27-4.09,7.13-4.47,15.61-7.21,23.36-9.83C270.7,94.77,284,87,298.1,80.47c15-6.93,30.38-11.93,45.15-18.39,11.85-5.18,23-11.43,34.6-16.87,11.22-5.3,22.54-10.83,33.91-15.8,13.32-5.82,25.76-13.2,40-16.52Z" transform="translate(0 -7.74)"/><path class="cls-11" d="M449.39,10.63c-8,2-10,5.34-18,8-8.8,2.88-22.1,9.18-30.33,13.36-10,5-15.64,7.13-25.29,12.51-5.89,3.35-12,5.26-18.26,7.79-5.1,2-9.85,4.89-15,7.33-5.77,2.72-11.19,6.25-17.11,8.64C321.18,70,316.6,71,312.17,72.38c-9.77,3.31-19.37,7.89-28.79,12C273.63,88.65,264.73,96.61,254,98.2c-7.28,1.05-15.17,3.35-21.73,7.38-1.64,1.11-3,2.47-4.77,3.25-1.46.64-3.39,1.1-4.17,2.4,2.46,1.63,9.19-2.86,11.86-3.83,3.32-1.26,6.71-2.35,10.26-3.52,9-3,17.64-6.55,26.41-10.39,19-8.31,37.52-18.15,56.8-25.81,19-7.52,37.94-15.43,56.11-24.74,18.34-9.38,37.29-18.24,56.12-26.48,5.36-2.34,10.82-3.57,16.18-5.91Z" transform="translate(0 -7.74)"/><path class="cls-12" d="M449.76,11.46c-7.34,1.79-16,7.78-35.61,15.64-13.1,5.25-24.07,12-37.22,17.73-14.61,6.39-31.38,15.17-45.64,21.7-15,6.85-30.05,10.24-44.7,17.23-8.66,4.08-15.09,8.63-24.1,12.57-4.87,2.13-9.44,3-14.49,4-4.46,1.08-10.7,2.07-6.9,6.79,5.51-.67,10.69-4.09,15.67-6,5.22-2,10.44-4,15.21-6.36,9.77-4.85,20.32-8.6,30.1-13.45,23.72-12.11,49.52-20.79,73.48-33,10.4-5.42,17.74-9.21,28.67-13.41,5.36-2.34,10.79-3.85,16.15-6.19,5.85-2.56,10.5-5.17,16.24-8,4.52-2.27,10-2.43,15.11-4.8Z" transform="translate(0 -7.74)"/><path class="cls-13" d="M360,65.08c-9.17,4-18.37,7.75-27.63,11.79-8.85,3.87-18,7-27.15,10.23-4.53,1.59-8.89,2.24-12.65,5.14,2.87-1.06,2.87.58,3.6.26-2.15.84-4.89,1.65-6.1,2.19-1.9.74-3.82,1.67-5.68,2.49-4.47,2-7.65,4.41-12.36,5.79,1.12-1,1.72-.94,2.77-2.08-2.47,1-4.3,2.56-6.55,3.83-1.88,1-3.83,1.87-5.67,3s-3.87,2-6,2.91c-2.84,1.24-5.63,1.5-8.57,2.3s-5.84,2.36-8.63,3.49c-2.15.84-5.71,2.21-4.31,5.18,1,2.16,3.27.41,5.14-.41a45.2,45.2,0,0,1,5.72-1.73,78,78,0,0,0,8.9-2.44c5.46-1.9,10.6-4.73,15.84-7.12,7.84-3.53,15.33-7.86,23.09-11.55,5.61-2.65,11.38-5.17,17.07-7.85,6.75-3.15,13.69-6.08,20.51-9.07,4.63-2,9.94-4.25,13.91-7.34Z" transform="translate(0 -7.74)"/><path class="cls-14" d="M240.83,115.82c3-1.16,6.64-.73,9.77-1.22,6.54-1,12.41-4.12,18.61-6.54l11.12-4.43c4.37-1.62,7.76-3.83,11.86-6.06,4.48-2.69,9.34-4.52,13.82-7.21,3.68-2.19,7.69-3.65,11.59-5.36,3.65-1.6,15.44-6.17,18.6-8.57-4.95,1.29-20.75,7.62-23.12,8.51-5,1.89-10.34,3.22-15.27,5.23l-2.31,1a9.44,9.44,0,0,1,2.24.47c-.94,2.15-6.73,3.52-8.92,4.48-2.92,1.28-5.62,2.75-8.42,4-6.45,2.82-12.61,5.66-18.79,8.8-2.63,1.29-5.18,2.41-7.74,3.53s-6.52,3-9.33,3.21Z" transform="translate(0 -7.74)"/><path class="cls-13" d="M454.72,22.81c-3.49,1.53-5.28,2.47-8.66,4.06s-4.62,1.83-8.25,3.7C431.17,34,424.35,37,417.67,40.26A22.52,22.52,0,0,1,421.24,38c-8.2,3.59-16.28,7.89-24.3,11.89-1.26.65-12.32,5.68-13.51,6.49-.66.48-15.42,5.87-15.59,6.82-.13,1.7,26.15-8.54,27-8.81A72.64,72.64,0,0,0,403,51.21q21.47-9,42.8-18.24c3.09-1.35,6.57-2.68,9.33-4.76,1.65-1.3,5.22-2.67,6-4.85Z" transform="translate(0 -7.74)"/><path class="cls-14" d="M448.5,26.49c-3.5,1.8-7.35,3.31-10.94,5.07s-7.27,3.28-10.89,5c-2,1-3.91,1.9-5.94,2.79-1.3.57-2.68,1.17-3.94,1.82-1.59.79-9.9,4.56-17.34,8.55,4.59-1.23,21.22-9,25.67-10.74,4.9-1.85,9.62-4.11,14.51-6,4.57-1.71,9.07-3.58,13.47-5.7C455.59,26.1,453.75,23.78,448.5,26.49Z" transform="translate(0 -7.74)"/><path class="cls-15" d="M243.24,114c11.34-.61,21.5-5.92,31.41-11.12,8.07-4.11,18.07-6.45,25.12-11.57a15.88,15.88,0,0,0-3.32-.29c27.66-7.75,53-22.87,79.56-33.05-.9,1.26-2.82,1.52-3.71,2.79,13.69-4.53,27.11-11,40.3-17.33C424.42,38,436.5,33.05,448,26.82c6-3.28,7-3.44,7-3.44,5.72.34,7.92,5,6.88,6.65-1.66,2.18-7.93,3.76-10.61,4.93-11.1,5.14-22.41,9.8-33.61,14.7-40.92,17.9-81,37.74-122.16,55.75-11.94,5.22-24.36,10.65-36.61,15.14-3.38.9-14.05,7-17,2.22Z" transform="translate(0 -7.74)"/><path class="cls-14" d="M303.83,98a20.72,20.72,0,0,0-8,4.35c-4.36,3.59-36.28,16.58-36.28,16.58l18.22-3.79,23.77-11.66S295.06,104.14,303.83,98Z" transform="translate(0 -7.74)"/><path class="cls-14" d="M304.1,99.6c5.72-2.5,11.61-4.64,17.21-7.09s10.45-5.3,15.72-8.18c10.22-5.49,20.82-10.12,31.27-15.42,11.49-5.9,23.38-10.23,35.5-14.37,1.51-.52,3.71-1.48,5.23-1-3.29,3.76-10.74,6.29-15.25,8.26-5.24,2.29-10.47,4.58-15.76,6.75-5.66,2.33-10.94,5.51-16.43,8.2-11.37,5.84-22.39,11.83-34.09,16.94-9.26,4-18.62,7.85-28,11.66Z" transform="translate(0 -7.74)"/><path class="cls-13" d="M465,28.05c-29.18,14.21-64.51,26.33-93.75,40.42C372,68.15,382.55,65,382.55,65c-9.91,3.81-18.24,6.82-22.59,8.72-8.77,3.84-16.84,7.94-25.29,12.51-8.83,5-21,11.78-30.8,13.18-.49.21-1.35.88-1.6,1,.87-.67,1-1.61,1.55-2.42-3.24.55-6.18,4.44-9.13,6.32-2.33,1.31-5,2.48-7.44,3.55-5.25,2.59-11,4.79-16.32,7.14-6,2.31-12.36,4.25-18.1,7-3.55,1.84-4.49,1.67-3.14,5.43,1.64,5.08,6.22,8.24,10.11,6.54,29.66-11.81,59.51-25.16,88.66-38.78C380.68,80,413.19,66,446.25,52.75c5.6-2.45,17.12-10.61,19.83-17Z" transform="translate(0 -7.74)"/><path class="cls-14" d="M472.14,35.2c-8.22,2.43-16.15,6.87-24,10.67-8.3,4-16.73,7.32-25.17,11-2.92,1.28-5.63,3-8.63,4.16,2-1.09,5.95-4.41,10.49-6.52-3.55,1.17-11.43,6.16-14.6,7.74-3.5,1.72-7.24,3.36-10.74,5.08-7.07,3.29-14.11,6.66-21.45,8.9-6.29,2-12.48,4.2-18.63,6.5,2.79-.25,8.13-2.2,10.83-2.22-16.5,6.06-35.14,14.31-50.84,21.75-10.9,5.15-14.8,6.86-25.7,12-5.29,2.51-17.82,8-23.26,10.07-10,3.73-12.88,5.05-16.52,6.45-2.67,1-10.64,3.1-11.19,6.25-.75,5.36,19.73-4,22.63-4.87a273,273,0,0,0,35.48-14c19.92-9.29,39.83-18.19,60.1-26.67,21.74-9.12,42.61-19.79,64.2-29.24,12-5.26,24-10.67,35.91-16.09,5.13-2.44,10.55-4.62,15.09-8Z" transform="translate(0 -7.74)"/><path class="cls-16" d="M470.73,35.72C446,47.43,420.67,59.94,395,70.29c-26.87,10.88-53.45,23.09-80,34.7-11.69,5.11-23,11.2-34.51,16-5.6,2.45-11.07,4.55-16.43,6.89-4.38,1.92-12.22,3.9-15.48,7.06-.38.46-1.46.64-1.71.75,1.17,2.68,3.44,7.2,5.68,7.67,3.53.78,19.41,13.85,22.57,12.47l11.45-5c17.54-7.67,34.86-15.83,52.93-22.28,41.71-14.76,73-54,113.21-71.56,4.38-1.92,22.67-7.88,22-13.39Z" transform="translate(0 -7.74)"/><path class="cls-5" d="M249.23,124.37c.36-.88,1.54-1.27,3.6-2.34,5.74-2.8,12.15-4.73,18.1-7,5.36-2.34,11.07-4.55,16.32-7.14,2.44-1.07,5.12-2.24,7.44-3.55,3-1.87,5.89-5.77,9.13-6.32-.52.81-.69,1.75-1.55,2.42.24-.11,1.11-.78,1.6-1,9.83-1.4,22-8.16,30.8-13.18,8.45-4.57,16.52-8.68,25.29-12.51,1.08-.47,2.41-1,3.94-1.62-1.67.9-3.35,1.71-4.7,2.53a84.67,84.67,0,0,1-12.06,6C339.67,84,333.38,89,326,92.45A147.93,147.93,0,0,1,304,100.69c-3.62,1-7,4-10.85,5.71-3.25,1.42-6.52,3.24-9.83,4.49-6.73,2.75-13.51,4.94-20,7.78C261.66,119.42,253.89,123.28,249.23,124.37Z" transform="translate(0 -7.74)"/><path class="cls-17" d="M397.21,59.21c8.88-3.11,17.42-7,26.1-10.64,2.13-.88,10.49-5.7,11.52-2.29,1.14,4.13-9.4,6-11.92,6.87-8.13,2.61-14.91,7.53-22.27,11.55a172.31,172.31,0,0,1-29.17,12.49c-4.49,1.67-9.29,2.13-13.71,4-1.64.68-4.31,2.56-5.89,2.45-3.89-.11-1.13-3.18.86-4.39,8.2-4.75,17.9-8.2,26.71-11.47C385.08,65.59,391.65,61.52,397.21,59.21Z" transform="translate(0 -7.74)"/><g class="cls-7"><path class="cls-8" d="M459.2,33.06c-6.33,2.77-10.22,4-15.91,8.28-5.56,3.88-9.15,4.29-15.38,7.31-7.34,3.79-15.27,7.55-23,9.77-7.6,1.87-15.16,3.15-22.47,6.35-12.67,5.54-25,11.22-37.19,17.14-7,3.33-9.42,9.64-15.22,13.62-5.18,3.42-14.46,8.07-20.57,8.71-3.35.3-6.61-1.17-9.85-.63s-5.88,3.15-9.12,3.7a110.82,110.82,0,0,0-18.5,5.48c-6.44,2.53-10.55,3.74-15.62,7.41-3.33,2.33-7.17,2.85-6.93,7.38.14,4.29,2.25,7.14,6.3,7.11,6.07,0,13.93-4.64,19.64-6.85,9-3.94,18.34-7.15,27.46-10.85,33.63-12.68,66.92-28.11,99.59-43,19.14-8.66,37.71-17.94,57-26.36,5.36-2.34,8.94-4.78,10.78-10.52Z" transform="translate(0 -7.74)"/></g><path class="cls-14" d="M465.18,29,428,44.32S451,33.79,454.9,31.55Z" transform="translate(0 -7.74)"/><polygon class="cls-18" points="427.97 36.58 464.31 22.84 465.18 21.27 427.97 36.58"/><path class="cls-13" d="M282.33,109.19s-28.06,11.16-31.53,14l-1.32-.07S257.39,116.53,282.33,109.19Z" transform="translate(0 -7.74)"/><path class="cls-5" d="M307,89.93c10.15-5.31,21.48-7.94,32-13.12,5.5-2.69,10.89-5.63,16.62-8.43,2.44-1.07,15.44-8.49,14.25-3.91-.81,4.13-12.51,7.21-15.92,8.71-6,2.91-11.16,6.33-16.79,9.38C325.75,88.39,315.86,95.62,303,96c-1.92.26-3.27,1.14-5.13.21.85-2.69,5.24-4.61,7.78-5.43Z" transform="translate(0 -7.74)"/><path class="cls-5" d="M273.75,104.85c5.52-2.41,13.83-8.18,19.84-7.71,6.08.63-3.56,6-5.67,6.93a122.51,122.51,0,0,1-12.76,5.77c-3.64,1.4-7.34,2.24-11,4-4.06,1.78-9.23,3.84-13.12,5.55-6.66,2.91-5.67-2.36-.15-4.77,3.41-1.49,7.58-2.74,10.83-4.16,3.57-1.56,7.07-3.29,10.65-4.85Z" transform="translate(0 -7.74)"/><path class="cls-5" d="M412.13,45.11c7.17-3.14,14.22-6.14,21.4-9.28,3-1.3,7.25-3.81,10.18-4.35,6-1.14,8.27.73-4.75,6.14-9.78,4.07-19.92,8-29.59,12.2-4.05,1.77-8,3.7-12,5.25-1.25.55-4.9,2.81-6.09,2.21-2.29-1.41,2.61-3.37,3.86-3.92,5-2.56,10.15-5.26,15.29-7.51Z" transform="translate(0 -7.74)"/><g class="cls-7"><path class="cls-8" d="M456.28,12.64c1.35,3.09,1.56,3.57-1.43,4.69-1.95.85.23,1.44-1.49,2.36-5.07,2.71-11.45,4.76-15.28,6.62-12.2,5.72-24.41,11-36.83,16.2-11.44,4.81-23.16,9-34.53,13.94-13.32,5.82-26.42,12.13-39.59,18.28C304,85.61,280,94.38,257,105c-4.22,1.85-8.16,4.34-12.45,6-2.76,1.21-4.4,2.31-4.69-1.43s1.93-3.55,5-4.9c16-6.24,31.62-13.06,47.38-19.95C314.49,75,337.26,66,358.7,54.93c10.6-5.41,20.65-11.16,31.68-15.59,12-4.86,24.23-9.63,35.8-15.46,6-3,19.31-7.21,25.3-9.44,3.82-1.42,1.38-3,5.52-3.26Z" transform="translate(0 -7.74)"/></g><path class="cls-14" d="M260.11,118.7,222.9,134s23.07-10.52,26.93-12.77Z" transform="translate(0 -7.74)"/><polygon class="cls-18" points="222.9 126.27 253.95 114.53 260.11 110.96 222.9 126.27"/><path class="cls-5" d="M455.71,25.08s-4.5,1.7-4,4.25,3.93.61,5.81-.19C457.49,29.14,460.22,25.74,455.71,25.08Z" transform="translate(0 -7.74)"/></g><g class="cls-19"><path class="cls-5" d="M250.32,104.27c-.15,3,1.93,6.41,3.1,9.09-4.61,4-12.7,6.13-18.3,8.58-6.09,2.66-11.94,5.22-17.92,8.13-22.93,10.61-45.4,21.6-68.86,31C126.7,169.94,105,179.42,83.8,189.28c-11.34,5.25-23.12,12.15-35.18,15.1-3.73.76-6.09,2.66-8.07-.53-.88-1.35-1.11-3.87-1.4-5.19-.2-3.11-1.34-1.74,1-3.64,3.36-2.92,11.77-4.28,16-5.84,13.31-4.08,24.88-11.46,37.3-16.89,12.91-5.65,25.15-12.16,37.85-18.29,18.92-9.15,38.06-17.81,57.55-26.33s39.52-18.45,60.07-24.53Z" transform="translate(0 -7.74)"/><path class="cls-6" d="M212.73,123.61c7-3.05,14-6.11,20.71-9.25,1.62-.71,11.8-5.74,8.3-.92-1.89,2.76-8.51,4.88-11.52,6.39-16.28,7.89-32.79,15.7-49.36,22.94-1.95.85-4.08,2.17-6,2.23-2.79.25-3.2-1.12-1.12-3,3-2.47,7.7-3.18,11.13-5.06,6.54-3.63,13.16-6.63,19.91-9.77C207.09,126.17,207.83,125.71,212.73,123.61Z" transform="translate(0 -7.74)"/><g class="cls-7"><path class="cls-8" d="M262.61,104.5c-3.41,2.16-9.23,6.1-13,7.39-2.47.84-5,2.35-7.84,3.24-7.68,2.35-11.67,3.17-18.85,7.33-12.9,7.66-28,11-40.51,19.5-5.84,3.9-12.79,4.58-19.49,7.18s-13.52,4.9-20,8.06c-13.52,6.25-27.15,13.56-41,18.29a75.48,75.48,0,0,0-18.51,8.77c-6.2,4.4-12.42,5.43-19.49,7.85-6.82,2.31-12.78,6.6-19.36,9.48-2.44,1.07-5.48,2.73-8.29,1.6-5-1.52-2.72-4.88.69-7,10.46-6.6,23.51-9.27,35-14.28,15.1-6.6,29.46-14.91,44.81-20.95,35.81-14.31,69.9-31.92,105-47.26l20.22-8.84c4.87-2.13,11.93-6.57,17.19-5.16Z" transform="translate(0 -7.74)"/></g><path class="cls-9" d="M23.46,202c1.71,2.15,18.71-5.86,21.57-7.3,4.31-2.08,8.78-2.49,13-4.33,4.87-2.13,9.51-4.35,14.38-6.48,21.27-9.3,43-19.14,64.3-28.12,15.81-6.66,18.9-9.43,28.87-13.6,12.81-5.21,25.69-10.27,38.14-16.29,9.51-4.35,19.3-8.06,28.44-12.82,4.08-2.17,10.58-4.89,14.87-6.57,1.46-.64,3.18-.36,4.13-1.74,2.14-3.06-2.85-1.65-4.55-1.11-8.13,2.2-15.89,6.56-23.08,10.48-13.72,7.55-28.4,12-42.83,18-15.24,6.28-29.38,14.2-44.16,20.67-11.85,5.18-24,9.16-35.88,14-11.51,4.65-22.61,10.66-34,15.63-13.32,5.82-27.18,10-39.27,18.14Z" transform="translate(0 -7.74)"/><path class="cls-10" d="M246.9,106.2c-2.84,1.67-13.2,4.75-16.19,5.87-4.46,1.76-8,4.27-12.22,6.12-4.87,2.13-9.65,4-14.52,6.16-21.27,9.3-43.62,17.92-63.88,29.1-9.39,5.07-19.54,8-29.37,12.46-12.52,5.86-25,11.89-37.86,16.94-9.65,4-19,8.71-28.72,12.18a123,123,0,0,0-12.76,5.77c-1.46.64-4.59,2.78-6.24,2.54-3.7-.51.72-3.22,2.27-4.09,7.13-4.47,15.61-7.21,23.36-9.83,14.86-5,28.11-12.68,42.26-19.26,15-6.93,30.38-11.93,45.15-18.39,11.85-5.18,23-11.43,34.6-16.87,11.22-5.3,22.54-10.83,33.91-15.8,13.32-5.82,25.76-13.2,40-16.52Z" transform="translate(0 -7.74)"/><path class="cls-11" d="M244.33,100.32c-8,2-10,5.34-18,8-8.8,2.88-22.1,9.18-30.33,13.36-10,5-15.64,7.13-25.29,12.51-5.89,3.35-12,5.26-18.26,7.79-5.1,2-9.85,4.89-15,7.33-5.77,2.72-11.19,6.25-17.11,8.64-4.29,1.68-8.87,2.72-13.31,4.08-9.77,3.31-19.37,7.89-28.79,12-9.74,4.26-18.64,12.22-29.36,13.81-7.28,1.05-15.17,3.35-21.73,7.38-1.64,1.11-3,2.47-4.77,3.25-1.46.64-3.39,1.1-4.17,2.4,2.46,1.63,9.19-2.86,11.86-3.83,3.32-1.26,6.71-2.35,10.26-3.52,9-3,17.64-6.55,26.41-10.39,19-8.31,37.52-18.15,56.8-25.81,19-7.52,37.94-15.43,56.11-24.74,18.34-9.38,37.29-18.24,56.12-26.48,5.36-2.34,10.82-3.57,16.18-5.91Z" transform="translate(0 -7.74)"/><path class="cls-12" d="M244.69,101.15c-7.34,1.79-16,7.78-35.61,15.64-13.1,5.25-24.07,12-37.22,17.73-14.61,6.39-31.38,15.17-45.64,21.7-15,6.85-30.05,10.24-44.7,17.23-8.66,4.08-15.09,8.63-24.1,12.57-4.87,2.13-9.44,3-14.49,4-4.46,1.08-10.7,2.07-6.9,6.79,5.51-.67,10.69-4.09,15.67-6,5.22-2,10.44-4,15.21-6.36,9.77-4.85,20.32-8.6,30.1-13.45,23.72-12.11,49.52-20.79,73.48-33,10.4-5.42,17.74-9.21,28.67-13.41,5.36-2.34,10.79-3.85,16.15-6.19,5.85-2.56,10.5-5.17,16.24-8,4.52-2.27,10-2.43,15.11-4.8Z" transform="translate(0 -7.74)"/><path class="cls-13" d="M155,154.77c-9.17,4-18.37,7.75-27.63,11.79-8.85,3.87-18,7-27.15,10.23-4.53,1.59-8.89,2.24-12.65,5.14,2.87-1.06,2.87.58,3.6.26-2.15.84-4.89,1.65-6.1,2.19-1.9.74-3.82,1.67-5.68,2.49-4.47,2-7.65,4.41-12.36,5.79,1.12-1,1.72-.94,2.77-2.08-2.47,1-4.3,2.56-6.55,3.83-1.88,1-3.83,1.87-5.67,3s-3.87,2-6,2.91c-2.84,1.24-5.63,1.5-8.57,2.3s-5.84,2.36-8.63,3.49c-2.15.84-5.71,2.21-4.31,5.18,1,2.16,3.27.41,5.14-.41a45.2,45.2,0,0,1,5.72-1.73,78,78,0,0,0,8.9-2.44c5.46-1.9,10.6-4.73,15.84-7.12C73.49,196,81,191.68,88.75,188c5.61-2.65,11.38-5.17,17.07-7.85,6.75-3.15,13.69-6.08,20.51-9.07,4.63-2,9.94-4.25,13.91-7.34Z" transform="translate(0 -7.74)"/><path class="cls-14" d="M35.76,205.5c3-1.16,6.64-.73,9.77-1.22,6.54-1,12.41-4.12,18.61-6.54l11.12-4.43c4.37-1.62,7.76-3.83,11.86-6.06,4.48-2.69,9.34-4.52,13.82-7.21,3.68-2.19,7.69-3.65,11.59-5.36,3.65-1.6,15.44-6.17,18.6-8.57-4.95,1.29-20.75,7.62-23.12,8.51-5,1.89-10.34,3.22-15.27,5.23l-2.31,1a9.44,9.44,0,0,1,2.24.47c-.94,2.15-6.73,3.52-8.92,4.48-2.92,1.28-5.62,2.75-8.42,4-6.45,2.82-12.61,5.66-18.79,8.8-2.63,1.29-5.18,2.41-7.74,3.53s-6.52,3-9.33,3.21Z" transform="translate(0 -7.74)"/><path class="cls-13" d="M249.66,112.5c-3.49,1.53-5.28,2.47-8.66,4.06s-4.62,1.83-8.25,3.7c-6.64,3.39-13.46,6.37-20.14,9.68a22.52,22.52,0,0,1,3.57-2.24c-8.2,3.59-16.28,7.89-24.3,11.89-1.26.65-12.32,5.68-13.51,6.49-.66.48-15.42,5.87-15.59,6.82-.13,1.7,26.15-8.54,27-8.81A72.64,72.64,0,0,0,198,140.9q21.47-9,42.8-18.24c3.09-1.35,6.57-2.68,9.33-4.76,1.65-1.3,5.22-2.67,6-4.85Z" transform="translate(0 -7.74)"/><path class="cls-14" d="M243.43,116.18c-3.5,1.8-7.35,3.31-10.94,5.07s-7.27,3.28-10.89,5c-2,1-3.91,1.9-5.94,2.79-1.3.57-2.68,1.17-3.94,1.82-1.59.79-9.9,4.56-17.34,8.55,4.59-1.23,21.22-9,25.67-10.74,4.9-1.85,9.62-4.11,14.51-6,4.57-1.71,9.07-3.58,13.47-5.7C250.52,115.79,248.68,113.47,243.43,116.18Z" transform="translate(0 -7.74)"/><path class="cls-15" d="M38.17,203.72c11.34-.61,21.5-5.92,31.41-11.12,8.07-4.11,18.07-6.45,25.12-11.57a15.88,15.88,0,0,0-3.32-.29c27.66-7.75,53-22.87,79.56-33.05-.9,1.26-2.82,1.52-3.71,2.79,13.69-4.53,27.11-11,40.3-17.33,11.83-5.46,23.91-10.4,35.38-16.63,6-3.28,7-3.44,7-3.44,5.72.34,7.92,5,6.88,6.65-1.66,2.18-7.93,3.76-10.61,4.93-11.1,5.14-22.41,9.8-33.61,14.7-40.92,17.9-81,37.74-122.16,55.75C78.47,200.32,66,205.75,53.79,210.24c-3.38.9-14.05,7-17,2.22Z" transform="translate(0 -7.74)"/><path class="cls-14" d="M98.76,187.67a20.72,20.72,0,0,0-8,4.35c-4.36,3.59-36.28,16.58-36.28,16.58l18.22-3.79,23.77-11.66S90,193.83,98.76,187.67Z" transform="translate(0 -7.74)"/><path class="cls-14" d="M99,189.29c5.72-2.5,11.61-4.64,17.21-7.09S126.7,176.9,132,174c10.22-5.49,20.82-10.12,31.27-15.42,11.49-5.9,23.38-10.23,35.5-14.37,1.51-.52,3.71-1.48,5.23-1-3.29,3.76-10.74,6.29-15.25,8.26-5.24,2.29-10.47,4.58-15.76,6.75-5.66,2.33-10.94,5.51-16.43,8.2-11.37,5.84-22.39,11.83-34.09,16.94-9.26,4-18.62,7.85-28,11.66Z" transform="translate(0 -7.74)"/><path class="cls-13" d="M260,117.74c-29.18,14.21-64.51,26.33-93.75,40.42.73-.32,11.25-3.47,11.25-3.47-9.91,3.81-18.24,6.82-22.59,8.72-8.77,3.84-16.84,7.94-25.29,12.51-8.83,5-21,11.78-30.8,13.18-.49.21-1.35.88-1.6,1,.87-.67,1-1.61,1.55-2.42-3.24.55-6.18,4.44-9.13,6.32-2.33,1.31-5,2.48-7.44,3.55-5.25,2.59-11,4.79-16.32,7.14-6,2.31-12.36,4.25-18.1,7-3.55,1.84-4.49,1.67-3.14,5.43,1.64,5.08,6.22,8.24,10.11,6.54,29.66-11.81,59.51-25.16,88.66-38.78,32.21-15.25,64.72-29.17,97.78-42.48,5.6-2.45,17.12-10.61,19.83-17Z" transform="translate(0 -7.74)"/><path class="cls-14" d="M267.08,124.89c-8.22,2.43-16.15,6.87-24,10.67-8.3,4-16.73,7.32-25.17,11-2.92,1.28-5.63,3-8.63,4.16,2-1.09,5.95-4.41,10.49-6.52-3.55,1.17-11.43,6.16-14.6,7.74-3.5,1.72-7.24,3.36-10.74,5.08-7.07,3.29-14.11,6.66-21.45,8.9-6.29,2-12.48,4.2-18.63,6.5,2.79-.25,8.13-2.2,10.83-2.22-16.5,6.06-35.14,14.31-50.84,21.75-10.9,5.15-14.8,6.86-25.7,12-5.29,2.51-17.82,8-23.26,10.07-10,3.73-12.88,5.05-16.52,6.45-2.67,1-10.64,3.1-11.19,6.25-.75,5.36,19.73-4,22.63-4.87a273,273,0,0,0,35.48-14c19.92-9.29,39.83-18.19,60.1-26.67,21.74-9.12,42.61-19.79,64.2-29.24,12-5.26,24-10.67,35.91-16.09,5.13-2.44,10.55-4.62,15.09-8Z" transform="translate(0 -7.74)"/><path class="cls-16" d="M265.66,125.41C240.89,137.12,215.6,149.63,190,160c-26.87,10.88-53.45,23.09-80,34.7-11.69,5.11-23,11.2-34.51,16-5.6,2.45-11.07,4.55-16.43,6.89-4.38,1.92-12.22,3.9-15.48,7.06-.38.46-1.46.64-1.71.75C43,228,45.26,232.54,47.5,233c3.53.78,18.86,12.61,22,11.23l11.45-5c17.54-7.67,34.86-15.83,52.93-22.28,41.71-14.76,81-35.72,121.2-53.3,4.38-1.92,15.22-24.91,14.55-30.42Z" transform="translate(0 -7.74)"/><path class="cls-5" d="M44.16,214.06c.36-.88,1.54-1.27,3.6-2.34,5.74-2.8,12.15-4.73,18.1-7,5.36-2.34,11.07-4.55,16.32-7.14,2.44-1.07,5.12-2.24,7.44-3.55,3-1.87,5.89-5.77,9.13-6.32-.52.81-.69,1.75-1.55,2.42.24-.11,1.11-.78,1.6-1,9.83-1.4,22-8.16,30.8-13.18,8.45-4.57,16.52-8.68,25.29-12.51,1.08-.47,2.41-1,3.94-1.62-1.67.9-3.35,1.71-4.7,2.53a84.67,84.67,0,0,1-12.06,6c-7.47,3.27-13.76,8.34-21.16,11.77A147.93,147.93,0,0,1,99,190.38c-3.62,1-7,4-10.85,5.71-3.25,1.42-6.52,3.24-9.83,4.49-6.73,2.75-13.51,4.94-20,7.78C56.59,209.11,48.83,213,44.16,214.06Z" transform="translate(0 -7.74)"/><path class="cls-17" d="M192.14,148.9c8.88-3.11,17.42-7,26.1-10.64,2.13-.88,10.49-5.7,11.52-2.29,1.14,4.13-9.4,6-11.92,6.87-8.13,2.61-14.91,7.53-22.27,11.55a172.31,172.31,0,0,1-29.17,12.49c-4.49,1.67-9.29,2.13-13.71,4-1.64.68-4.31,2.56-5.89,2.45-3.89-.11-1.13-3.18.86-4.39,8.2-4.75,17.9-8.2,26.71-11.47C180,155.28,186.58,151.21,192.14,148.9Z" transform="translate(0 -7.74)"/><g class="cls-7"><path class="cls-8" d="M254.14,122.75c-6.33,2.77-10.22,4-15.91,8.28-5.56,3.88-9.15,4.29-15.38,7.31-7.34,3.79-15.27,7.55-23,9.77-7.6,1.87-15.16,3.15-22.47,6.35-12.67,5.54-25,11.22-37.19,17.14-7,3.33-9.42,9.64-15.22,13.62-5.18,3.42-14.46,8.07-20.57,8.71-3.35.3-6.61-1.17-9.85-.63s-5.88,3.15-9.12,3.7a110.82,110.82,0,0,0-18.5,5.48c-6.44,2.53-10.55,3.74-15.62,7.41-3.33,2.33-7.17,2.85-6.93,7.38.14,4.29,2.25,7.14,6.3,7.11,6.07,0,13.93-4.64,19.64-6.85,9-3.94,18.34-7.15,27.46-10.85,33.63-12.68,66.92-28.11,99.59-43,19.14-8.66,37.71-17.94,57-26.36,5.36-2.34,8.94-4.78,10.78-10.52Z" transform="translate(0 -7.74)"/></g><path class="cls-14" d="M260.11,118.7,222.9,134s23.07-10.52,26.93-12.77Z" transform="translate(0 -7.74)"/><polygon class="cls-18" points="222.9 126.27 259.25 112.52 260.11 110.96 222.9 126.27"/><path class="cls-13" d="M77.26,198.88S49.2,210,45.73,212.88l-1.32-.07S52.32,206.22,77.26,198.88Z" transform="translate(0 -7.74)"/><path class="cls-5" d="M101.92,179.62c10.15-5.31,21.48-7.94,32-13.12,5.5-2.69,10.89-5.63,16.62-8.43,2.44-1.07,15.44-8.49,14.25-3.91-.81,4.13-12.51,7.21-15.92,8.71-6,2.91-11.16,6.33-16.79,9.38-11.37,5.84-21.27,13.07-34.15,13.48-1.92.26-3.27,1.14-5.13.21.85-2.69,5.24-4.61,7.78-5.43Z" transform="translate(0 -7.74)"/><path class="cls-5" d="M68.69,194.54c5.52-2.41,13.83-8.18,19.84-7.71,6.08.63-3.56,6-5.67,6.93a122.51,122.51,0,0,1-12.76,5.77c-3.64,1.4-7.34,2.24-11,4-4.06,1.78-9.23,3.84-13.12,5.55-6.66,2.91-5.67-2.36-.15-4.77,3.41-1.49,7.58-2.74,10.83-4.16,3.57-1.56,7.07-3.29,10.65-4.85Z" transform="translate(0 -7.74)"/><path class="cls-5" d="M207.06,134.8c7.17-3.14,14.22-6.14,21.4-9.28,3-1.3,7.25-3.81,10.18-4.35,6-1.14,8.27.73-4.75,6.14-9.78,4.07-19.92,8-29.59,12.2-4.05,1.77-8,3.7-12,5.25-1.25.55-4.9,2.81-6.09,2.21-2.29-1.41,2.61-3.37,3.86-3.92,5-2.56,10.15-5.26,15.29-7.51Z" transform="translate(0 -7.74)"/><g class="cls-7"><path class="cls-8" d="M251.21,102.33c1.35,3.09,1.56,3.57-1.43,4.69-1.95.85.23,1.44-1.49,2.36-5.07,2.71-11.45,4.76-15.28,6.62-12.2,5.72-24.41,11-36.83,16.2-11.44,4.81-23.16,9-34.53,13.94-13.32,5.82-26.42,12.13-39.59,18.28C99,175.3,74.94,184.07,51.93,194.71c-4.22,1.85-8.16,4.34-12.45,6-2.76,1.21-4.4,2.31-4.69-1.43s1.93-3.55,5-4.9c16-6.24,31.62-13.06,47.38-19.95,22.25-9.73,45-18.72,66.46-29.84,10.6-5.41,20.65-11.16,31.68-15.59,12-4.86,24.23-9.63,35.8-15.46,6-3,19.31-7.21,25.3-9.44,3.82-1.42,1.38-3,5.52-3.26Z" transform="translate(0 -7.74)"/></g><path class="cls-14" d="M55,208.39,17.84,223.69s23.07-10.52,26.93-12.77Z" transform="translate(0 -7.74)"/><polygon class="cls-18" points="17.84 215.96 48.89 204.22 55.04 200.65 17.84 215.96"/><path class="cls-5" d="M250.65,114.77s-4.5,1.7-4,4.25,3.93.61,5.81-.19C252.42,118.83,255.16,115.43,250.65,114.77Z" transform="translate(0 -7.74)"/></g><g class="cls-20"><rect class="cls-21" x="66.79" y="132.78" width="450.32" height="140.68" transform="translate(640.84 264.49) rotate(156.38)"/><path class="cls-14" d="M486.6,164.7,318.44,236.19s105.2-46.93,123.2-56Z" transform="translate(0 -7.74)"/><path class="cls-14" d="M103.25,313.26c5.81-2.37,12.42-2.91,18.3-4.48,12.3-3.2,24-9,36.13-14l21.74-9c8.51-3.38,15.38-7.23,23.58-11.32,9-4.79,18.5-8.59,27.53-13.39,7.42-3.92,15.21-7,22.87-10.34,7.19-3.14,30.19-12.53,36.7-16.56-9.47,3.13-40.38,16-45,17.83-9.7,3.91-20,7.22-29.6,11.27l-4.55,2a21.63,21.63,0,0,1,4-.06c-2.37,3.05-13.41,6.54-17.72,8.42-5.75,2.51-11.13,5.21-16.64,7.62-12.7,5.55-24.85,11-37.12,16.91-5.21,2.45-10.24,4.65-15.27,6.85-5.27,2.3-12.87,5.8-18.1,6.91Z" transform="translate(0 -7.74)"/><path class="cls-22" d="M292.2,175.2c5.81-2.37,12.42-2.91,18.3-4.48,12.3-3.2,24-9,36.13-14l21.74-9c8.51-3.38,15.38-7.23,23.58-11.32,9-4.79,18.5-8.59,27.53-13.39,7.42-3.92,15.21-7,22.87-10.34,7.19-3.14,30.19-12.53,36.7-16.56-9.47,3.13-40.38,16-45,17.83-9.7,3.91-20,7.22-29.6,11.27l-4.55,2a21.63,21.63,0,0,1,4-.06c-2.37,3.05-13.41,6.54-17.72,8.42-5.75,2.51-11.13,5.21-16.64,7.62-12.7,5.55-24.85,11-37.12,16.91-5.21,2.45-10.24,4.65-15.27,6.85-5.27,2.3-12.87,5.8-18.1,6.91Z" transform="translate(0 -7.74)"/><path class="cls-22" d="M474.15,180.73c1.33-.3,4,2.44,5.8,3.34,3.8,2,6-.09,8.72-.74L493.6,182c2-.32,3-2.16,4.51-3.65,1.49-2,3.69-2.45,5.18-4.5,1.23-1.66,3.08-1.91,4.72-2.62s6.82-1.87,7.59-4.16c-2.57-.56-9.54,1.38-10.62,1.57-2.26.43-5.08-.3-7.24.37l-1,.43a18.57,18.57,0,0,1,1.75,2c.57,3.11-2.51,2.22-3.44,2.62-1.23.54-2.21,1.52-3.39,2a33.64,33.64,0,0,0-7.59,4.44,17.15,17.15,0,0,1-3.18,1.67c-1.13.49-2.67,1.45-4.41.25Z" transform="translate(0 -7.74)"/><path class="cls-14" d="M25.42,270.12c25.92-11.33,52-22.25,77.38-33.34s48.22-21.93,72.78-33.34c47.54-22,95.51-42.95,143.73-64.88,53.12-24.24,105.87-46.3,159.3-68.33,6.68-2.75,16.6-7.09,22.06-8.14-17.76,10.46-50.6,24-71,32.9q-35.57,15.55-71.19,31c-25.43,11-50.42,22.89-75.66,34.27C230.24,184.23,178.9,208,126,231.18Q63.11,258.68,0,285.6Z" transform="translate(0 -7.74)"/><path class="cls-13" d="M500.77,109.43c-57.62,26.25-125.06,53.33-182.72,79.49,1.43-.62,21.3-8.27,21.3-8.27-19.11,8-35.08,14.5-43.57,18.22-17.12,7.49-33.13,14.91-50,22.92-17.76,8.61-42.09,20.3-60,26-1,.42-2.78,1.42-3.25,1.63a24.71,24.71,0,0,0,3.82-2.93c-5.94,2-12.85,6.88-18.88,9.94-4.68,2.26-9.91,4.54-14.66,6.62-10.38,4.75-21.39,9.36-31.85,13.93-11.49,4.81-23.6,9.48-34.94,14.65-7.05,3.3-8.63,3.57-8,6.42.59,3.94,7.19,4.79,14.8,1.46,57.36-24.25,115.76-50,173.05-75.69,63.4-28.57,126.71-56,190.72-83.2,10.93-4.78,34.83-17.49,42.47-24.62Z" transform="translate(0 -7.74)"/><path class="cls-14" d="M510,112.81c-15.52,5.95-31.43,13.61-46.86,20.63-16.38,7.44-32.65,14.28-49.13,21.49-5.71,2.5-11.26,5.34-17,7.72,4.07-1.92,12.42-6.74,21.36-10.74-6.76,2.68-22.83,10.82-29.12,13.71-6.92,3.17-14.21,6.36-21.13,9.52-13.89,6.22-27.76,12.49-41.65,17.87-11.93,4.66-23.79,9.49-35.62,14.39,5-1.49,15.26-5.69,20-6.93-31.69,13-68.11,29-99,43-21.45,9.66-29.06,13-50.51,22.65-10.41,4.69-34.89,15.44-45.35,19.76-19.18,7.93-24.88,10.46-31.9,13.39-5.12,2.1-20.06,7.65-22.46,10.8-3.73,5.27,36.42-12.57,41.91-14.69,22.91-8.9,45.84-18.65,68.56-28.86,39.15-17.54,78.08-34.71,117.48-51.66,42.26-18.2,83.68-37.44,125.84-55.88q35.18-15.39,70.26-31c10.09-4.55,20.6-9,30.07-14.13Z" transform="translate(0 -7.74)"/><path class="cls-23" d="M499.56,119.74c-50.38,22.54-102.12,46-153.36,67.91-53.7,23-107.58,46.88-161.09,70.29-23.57,10.31-46.88,21.18-70,31.13-11.29,4.94-22.15,9.52-33,14.25-8.84,3.87-23.87,9.6-31.36,13.88a30.15,30.15,0,0,1-3.44,1.5,5.06,5.06,0,0,0,6.09,3.22c5.89-1.23,27,.26,33.4-2.53L109.9,309.3c35.35-15.46,70.57-31.2,106.23-46,82.24-34,163.43-71.64,244.43-107.07,8.84-3.87,40.31-28.2,42-32.3Z" transform="translate(0 -7.74)"/><g class="cls-7"><path class="cls-8" d="M558.7,132.21c1.56,3.57,1.81,4.14-4.74,6.78-4.31,1.89-.09,1.82-4,3.7-11.41,5.56-25.24,10.75-33.78,14.71-27.14,12.32-54.13,24-81.52,35.76C409.46,204,383.9,214,358.75,225c-29.46,12.89-58.68,26.33-88,39.6C219.37,288,166.89,308.95,115.76,332c-9.34,4.09-18.35,8.92-27.78,12.82-6.11,2.67-9.9,4.78-9-.08s5.32-5.46,12.14-8.45c35.18-14.49,69.67-29.58,104.52-44.82,49.22-21.53,99.21-42.27,147.34-65.34,23.74-11.28,46.52-22.81,70.76-33,26.39-11.1,53.23-22.16,79.13-34.38,13.49-6.35,42.25-17,55.34-22.33,8.36-3.37,4-4.51,12.53-6.46Z" transform="translate(0 -7.74)"/></g><g class="cls-7"><path class="cls-8" d="M485.29,40.51c1.56,3.57,1.81,4.14-4.22,6.55-4,1.73,0,1.79-3.58,3.54-10.47,5.15-23.21,9.86-31.06,13.52C421.5,75.47,396.69,86.21,371.5,97c-23.2,9.92-46.73,19.09-69.85,29.21-27.08,11.84-53.92,24.25-80.84,36.47-47.23,21.55-95.53,40.66-142.51,61.88-8.59,3.76-16.85,8.26-25.51,11.83-5.61,2.46-9.08,4.42-8.42-.35s4.79-5.23,11.07-8c32.36-13.26,64.07-27.13,96.11-41.14C196.8,167.13,242.79,148.14,287,126.8c21.8-10.43,42.69-21.14,65-30.44,24.27-10.17,49-20.29,72.74-31.59,12.39-5.87,38.88-15.58,50.93-20.4,7.69-3.08,3.57-4.33,11.49-6Z" transform="translate(0 -7.74)"/></g><path class="cls-15" d="M11.65,261.88C35,256.7,57.76,245.74,80,235c18-8.56,39.33-15.52,55.68-25-2.4.38-4.38.24-6.66.89,59.39-20.93,116.81-50.75,175-74.51-2.32,2-6.33,3.1-8.65,5.13,29.65-11.29,59.52-25,88.85-38.52,26.23-11.81,52.77-23,78.55-35.7,13.56-6.67,15.6-7.26,15.6-7.26,11.53-1.75,14.2,3.63,11.47,6.17-4.22,3.53-17.62,8-23.54,10.63-24.61,11.1-49.47,21.64-74.21,32.46-90.34,39.51-179.69,81.28-270.57,121C95.13,241.83,67.7,253.82,41,264.5,33.75,267,9.63,279.22,5.43,274Z" transform="translate(0 -7.74)"/><g class="cls-7"><path class="cls-8" d="M516.4,115.38c-7,3.84-19,10.69-26.49,13.54-4.84,1.84-10.07,4.57-15.54,6.58-15,5.38-22.64,7.67-37.24,15.23-26.29,13.84-55.33,22.75-81.19,37.57-12,6.82-25.16,9.83-38.4,15.23S290.92,214,278,220.05c-27,12.2-54.56,25.82-81.8,36.17a257.31,257.31,0,0,0-37.05,17c-12.86,7.58-24.73,10.82-38.59,16.1-13.38,5.07-25.75,12.44-38.85,18.16-4.85,2.12-11,5.21-15.89,4.61-8.85-.42-3.55-5.48,3.44-9.31,21.45-11.72,46.5-19.16,69.29-29.13,30.06-13.15,59.27-28.26,89.62-40.76,70.88-29.44,139.56-62.6,209.39-93.14l40.25-17.6c9.7-4.24,24.16-12.13,33.49-11.91Z" transform="translate(0 -7.74)"/></g><g class="cls-7"><path class="cls-8" d="M493,61.8c-7,3.84-19,10.69-26.49,13.54-4.84,1.84-10.07,4.57-15.54,6.58-15,5.38-22.64,7.67-37.24,15.23-26.29,13.84-55.33,22.75-81.19,37.57-12,6.82-25.16,9.83-38.4,15.23s-26.61,10.47-39.56,16.52c-27,12.2-54.56,25.82-81.8,36.17a257.31,257.31,0,0,0-37.05,17c-12.86,7.58-24.73,10.82-38.59,16.1-13.38,5.07-25.75,12.44-38.85,18.16-4.85,2.12-11,5.21-15.89,4.61-8.85-.42-3.55-5.48,3.44-9.31C67.23,237.45,92.28,230,115.07,220c30.06-13.15,59.27-28.26,89.62-40.76,70.88-29.44,139.56-62.6,209.39-93.14l40.25-17.6c9.7-4.24,24.16-12.13,33.49-11.91Z" transform="translate(0 -7.74)"/></g><path class="cls-24" d="M57,286.74c13.47-5.89,27.12-11.36,40.31-17.12s24.91-11.73,37.56-17.94c24.5-11.89,49.43-22.8,74.34-34.53,27.43-13,55-24.07,83-35,3.5-1.36,8.66-3.62,11.73-3.62-8.76,6.52-26,13.21-36.58,17.85-12.32,5.39-24.65,10.78-37,16-13.24,5.62-26.06,12.24-39.12,18.28-27.14,12.88-53.59,25.79-81.1,37.82-21.78,9.53-43.68,18.77-65.59,28Z" transform="translate(0 -7.74)"/><path class="cls-24" d="M89.73,352.32c16.76-7.33,33.7-14.23,50.1-21.41s31.07-14.43,46.86-22c30.59-14.55,61.61-28.12,92.67-42.55,34.21-16,68.45-29.94,103.18-43.78,4.34-1.73,10.76-4.54,14.46-4.81-11.14,7.56-32.48,16.05-45.67,21.82-15.33,6.71-30.66,13.41-46.05,20-16.46,7-32.49,15.05-48.77,22.51-33.86,15.82-66.88,31.6-101.11,46.57-27.1,11.85-54.32,23.42-81.54,35Z" transform="translate(0 -7.74)"/><path class="cls-14" d="M341.22,107.8,173.06,179.28s105.2-46.93,123.2-56Z" transform="translate(0 -7.74)"/></g><g class="cls-25"><path class="cls-5" d="M526,13.62c-1.21,2.41-.72,6-.72,8.68-5.3,1.69-12.78.48-18.32.48-6,0-11.81,0-17.84.24-22.9.48-45.56,1.45-68.46.72-21.21-.48-42.66-.48-63.88,0-11.33.24-23.62,1.69-34.71-.24-3.37-.72-6,0-6.51-3.37-.24-1.45.48-3.62.72-4.82,1-2.65-.48-1.93,2.17-2.65,3.86-1.21,11.33.72,15.43,1,12.53,1.45,24.83-.48,37.12-.48,12.78,0,25.31-1,38.08-1.45,19-.72,38.08-1,57.37-1s39.53-1,58.81,1.45Z" transform="translate(0 -7.74)"/><path class="cls-6" d="M487.72,16c6.91,0,13.82,0,20.57-.16,1.61,0,11.89-.48,7.23,2.25-2.57,1.61-8.84,1-11.89,1.12-16.39.64-32.94,1.12-49.33,1.12-1.93,0-4.18.32-5.78-.32-2.41-.8-2.25-2.09.16-2.89,3.37-1,7.55.16,11.09-.16,6.75-.64,13.34-.72,20.09-.88C482.1,16.11,482.88,16,487.72,16Z" transform="translate(0 -7.74)"/><g class="cls-7"><path class="cls-8" d="M536.09,18.28c-3.62.56-9.88,1.71-13.52,1.4-2.36-.2-5,.12-7.69-.16-7.23-.84-10.85-1.6-18.32-.76-13.5,1.68-27.24-1-40.74,1.48-6.27,1.12-12.29-.84-18.8-1.12s-13-.84-19.52-.56c-13.5.28-27.48,1.4-40.74.28a68.43,68.43,0,0,0-18.56.56c-6.75,1.4-12.29,0-19-.56-6.51-.56-13,.84-19.52.84-2.41,0-5.54.28-7.47-1.68-3.62-3.08-.48-5,3.13-5.6,11.09-1.68,22.9.84,34.23.84,14.94,0,29.89-1.68,44.83-1.12C429.31,13.24,464,11,498.73,11h20c4.82,0,12.29-1.12,16.15,2Z" transform="translate(0 -7.74)"/></g><path class="cls-9" d="M302,12.42c.64,2.41,17.68,1.93,20.57,1.77,4.34-.16,8.2,1.12,12.37,1.12,4.82,0,9.48-.16,14.3-.16,21.05,0,42.66-.28,63.63,0,15.55.21,19.12-1,28.92-.8,12.53.32,25.07.8,37.6.32,9.48-.16,19,.32,28.28-.32,4.18-.32,10.56-.21,14.74-.05,1.45,0,2.78.86,4.06.05,2.89-1.77-1.77-2.41-3.37-2.57-7.55-1.12-15.59-.32-23,.32-14.14,1.29-28-.32-42.1-.64-14.94-.32-29.57,1.12-44.19,1.12-11.73,0-23.3-1.12-34.87-1.45-11.25-.32-22.66.64-33.91.64-13.18,0-26.19-1.61-39.21.8Z" transform="translate(0 -7.74)"/><path class="cls-10" d="M522.42,14c-3,.36-12.69-.85-15.58-1-4.34-.16-8.2.64-12.37.64-4.82,0-9.48-.16-14.3-.16-21.05,0-42.74-1-63.63,1-9.64.8-19.12-.48-28.92-.32-12.53.32-25.07.8-37.6.32-9.48-.16-19,.32-28.28-.32a111.55,111.55,0,0,0-12.69.16c-1.45,0-4.82.64-6.11-.16-2.89-1.77,1.77-2.41,3.37-2.57,7.55-1.12,15.59-.32,23,.32,14.14,1.29,28-.32,42.1-.64,14.94-.32,29.57,1.12,44.19,1.12,11.73,0,23.3-1.12,34.87-1.45,11.25-.32,22.66-.8,33.91-.8,13.18,0,26.19-1.61,39.21.8Z" transform="translate(0 -7.74)"/><path class="cls-11" d="M522.42,8.17c-7.39-1.29-10.28.79-17.83.15-8.36-.8-21.69-.4-30,.08C464.42,8.88,459,8.64,449,9.6c-6.11.64-11.89,0-18-.16-5-.16-10,.48-15.11.64-5.78.16-11.57,1.12-17.35,1-4.18-.16-8.36-1-12.53-1.45-9.32-.8-19-.48-28.28-.48-9.64,0-19.93,3.37-29.41.8a52.73,52.73,0,0,0-20.73-1.77,28.93,28.93,0,0,1-5.14,1c-1.45,0-3.21-.32-4.34.48,1.45,2.25,8.68,1,11.25,1.12,3.21.16,6.43.48,9.8.8,8.52.8,17,1,25.71,1,18.8,0,37.76-1.45,56.56-.8,18.48.64,37.12,1,55.6-.16,18.64-1.12,37.6-1.61,56.24-1.61,5.3,0,10.28,1,15.59,1Z" transform="translate(0 -7.74)"/><path class="cls-12" d="M522.42,9c-6.75-1.18-16.1.65-35.27.05-12.79-.4-24.34,1.21-37.36,1.21-14.46,0-31.58,1.21-45.8,1.45-14.94.24-28.68-2.41-43.39-1.93-8.68.24-15.67,1.69-24.59,1.69-4.82,0-8.92-1-13.5-1.93-4.1-.72-9.64-2.17-8.2,3.13,4.82,1.45,10.36.48,15.19.72,5.06.24,10.12.48,14.94.24,9.88-.48,20,.24,29.89-.24,24.1-1.45,48.69.72,73-.72,10.61-.72,18.08-1.21,28.68-.72,5.3,0,10.36.72,15.67.72,5.78,0,10.61-.48,16.39-.72,4.58-.24,9.22,1.63,14.3,1.51Z" transform="translate(0 -7.74)"/><path class="cls-13" d="M428.42,20.93c-9.08,0-18.08-.24-27.24-.24-8.76,0-17.52-.72-26.27-1.37-4.34-.32-8.2-1.37-12.37-.32,2.77.16,2.17,1.53,2.89,1.53-2.09-.08-4.66-.4-5.87-.4-1.85-.08-3.78,0-5.62,0-4.42,0-8,.88-12.37.32,1.29-.4,1.77-.16,3.05-.72-2.41-.08-4.5.56-6.83.8-1.93.16-3.86.16-5.78.4s-3.94.24-6,.24c-2.81,0-5.22-.8-8-1.21a73.93,73.93,0,0,0-8.44-.24c-2.09-.08-5.54-.24-5.46,2.73.08,2.17,2.57,1.53,4.42,1.53a41,41,0,0,1,5.38.64,70.76,70.76,0,0,0,8.28,1.21c5.22.4,10.53-.08,15.75-.16,7.79-.08,15.59-1,23.38-1.21,5.62-.16,11.33-.16,17-.32,6.75-.16,13.58-.08,20.33-.08,4.58,0,9.8.08,14.22-1Z" transform="translate(0 -7.74)"/><path class="cls-14" d="M311,19.77c2.89.12,5.78,1.81,8.56,2.53,5.78,1.57,11.81,1.08,17.84,1.33L348.2,24c4.22.24,7.83-.36,12.05-.72,4.7-.6,9.4-.36,14.1-1a92.71,92.71,0,0,1,11.57-.24c3.62,0,15.06.48,18.56-.36-4.58-.72-20-1.21-22.3-1.33-4.82-.24-9.76-1.08-14.58-1.21h-2.29A8.56,8.56,0,0,1,367,20.37c-1.57,1.45-6.87.48-9,.48-2.89,0-5.66.24-8.44.24-6.39,0-12.53.12-18.8.48-2.65.12-5.18.12-7.71.12s-6.51.12-8.92-.72Z" transform="translate(0 -7.74)"/><path class="cls-13" d="M522.42,20.22c-3.45,0-5.28.13-8.67.23s-4.5-.16-8.2.08c-6.75.4-13.5.4-20.25.72a20.42,20.42,0,0,1,3.78-.56c-8.11,0-16.39.64-24.51,1-1.29.08-12.29.24-13.58.48-.72.16-14.94-.72-15.43,0-.72,1.37,24.83,2.41,25.63,2.49a65.86,65.86,0,0,0,8,.32c14.06.24,28.12.4,42.18.4,3.05,0,6.43.16,9.48-.56,1.85-.48,5.3-.32,6.75-1.85Z" transform="translate(0 -7.74)"/><path class="cls-14" d="M515.92,21c-3.56.23-7.31.08-10.93.24s-7.23.08-10.85.16c-2,.08-3.94.16-5.95.16-1.29,0-2.65,0-3.94.08-1.61.08-9.88.19-17.52.8,4.26.64,20.89.24,25.23.4,4.74.24,9.48.08,14.22.32,4.42.24,8.84.32,13.26.16C521.95,23.26,521.26,20.67,515.92,21Z" transform="translate(0 -7.74)"/><path class="cls-15" d="M313.61,19.16c9.64,3.62,20,2.89,30.13,2.17,8.2-.48,17.35,1.21,25.07-.48a14.4,14.4,0,0,0-2.65-1.45c25.79,3.62,52.31.24,78.1,1.45-1.21.72-2.89.24-4.1,1,13,1.21,26.51.72,39.77.24,11.81-.24,23.64,0,35.43-1,6.2-.53,7.06-.31,7.06-.31,4.63,2.36,4.75,7.06,3.3,8-2.17,1.21-8,.24-10.61.24-11.09.24-22.18,0-33.26,0-40.49,0-81,1.93-121.72,1.93-11.81,0-24.1,0-35.91-.72-3.13-.48-14.22.72-14.94-4.34Z" transform="translate(0 -7.74)"/><path class="cls-14" d="M369.77,27.84a18.78,18.78,0,0,0-8.2.72c-4.93,1.4-36.16.59-36.16.59l16.51,3.47,24-1S360.25,29.77,369.77,27.84Z" transform="translate(0 -7.74)"/><path class="cls-14" d="M369.41,29.29c5.66,0,11.33.36,16.87.36s10.61-.6,16-1.08c10.49-.84,21-.84,31.58-1.45,11.69-.72,23.14,0,34.71,1,1.45.12,3.62.12,4.7,1.08-4.1,1.93-11.21,1.33-15.67,1.33-5.18,0-10.36,0-15.55-.12-5.54-.12-11.09.6-16.63.84-11.57.72-22.9,1.69-34.47,1.69-9.16,0-18.32-.24-27.48-.48Z" transform="translate(0 -7.74)"/><path class="cls-13" d="M529.1,28.32c-29.41,1.21-63.15-1.57-92.56-.48.72,0,10.61,1.21,10.61,1.21-9.62-.43-17.63-1-21.93-1-8.68,0-16.87.48-25.55,1.21-9.16,1-21.69,2.17-30.37-.24-.48,0-1.45.24-1.69.24,1-.24,1.45-1,2.17-1.45-2.89-.72-6.75,1.45-9.88,1.93-2.41.24-5.06.24-7.47.24-5.3.24-10.85,0-16.15,0-5.78-.24-11.81-1-17.6-.72-3.62.24-4.34-.24-4.58,3.37-.48,4.82,2.17,9.1,6,9.1,28.92,1,58.57.72,87.74,0,32.3-1,64.36-.72,96.66.24,5.54,0,18.08-2.6,22.66-6.93Z" transform="translate(0 -7.74)"/><path class="cls-14" d="M532.39,36.84c-7.71-1-15.91-.16-23.78.16-8.36.32-16.55,0-24.91,0-2.89,0-5.78.48-8.68.32,2.09-.16,6.54-1.5,11.09-1.61-3.37-.32-11.73,1-14.94,1.12-3.54.16-7.23.16-10.77.32-7.07.16-14.14.4-21.05-.4-5.95-.64-11.89-1-17.84-1.37,2.41.8,7.55,1.12,9.8,2.09-15.91-1-34.39-.88-50.14-.4-10.93.32-14.78.32-25.71.64-5.3.16-17.72.21-23-.08-9.64-.53-12.53-.48-16.07-.64-2.57-.16-10-1.29-11.57,1.12-2.57,4.18,17.84,3.86,20.57,4.18A247.49,247.49,0,0,0,360,43.59c19.93-.48,39.69-.64,59.62-.32,21.37.32,42.58-1,64-1,11.89,0,23.78-.16,35.67-.32,5.14-.16,10.44,0,15.43-1.12Z" transform="translate(0 -7.74)"/><path class="cls-16" d="M531,36.76c-24.83.72-50.38,1.93-75.45,1.21-26.27-.72-52.79-.24-79.06-.24-11.57,0-23.14,1-34.47.72-5.54,0-10.85-.24-16.15-.24-4.34,0-11.57-1.21-15.43.24a3.94,3.94,0,0,1-1.69,0c0,2.65.24,7.23,1.93,8.44,2.65,1.93,11.09,18.56,14.22,18.56h11.33c17.35,0,34.71-.48,52.06.72,40,2.89,80.27-18.32,120-18.32,4.34,0,21.69,1.69,23.14-3.13Z" transform="translate(0 -7.74)"/><path class="cls-5" d="M314.83,29.92c.62-.6,1.74-.49,3.84-.63,5.78-.24,11.81.48,17.6.72,5.3,0,10.85.24,16.15,0,2.41,0,5.06,0,7.47-.24,3.13-.48,7-2.65,9.88-1.93-.72.48-1.21,1.21-2.17,1.45.24,0,1.21-.24,1.69-.24,8.68,2.41,21.21,1.21,30.37.24,8.68-.72,16.87-1.21,25.55-1.21,1.07,0,2.37,0,3.86.09-1.71.14-3.4.21-4.83.39a76.77,76.77,0,0,1-12.21.64c-7.39,0-14.46,1.93-21.85,2.09A134.12,134.12,0,0,1,369,30.17c-3.37-.48-7.23.8-11.09.8-3.21,0-6.59.32-9.8.16-6.59-.16-13-.8-19.44-.8C327,30.33,319.1,30.71,314.83,29.92Z" transform="translate(0 -7.74)"/><path class="cls-17" d="M461.43,29.56c8.51.64,17,.48,25.54.64,2.09,0,10.79-.92,10.4,2.29-.55,3.85-10,1.58-12.4,1.37-7.7-.79-15.12.84-22.69,1.5a156.22,156.22,0,0,1-28.77-.22c-4.33-.24-8.49-1.61-12.83-1.69-1.61,0-4.51.56-5.78-.11-3.19-1.51.22-3,2.31-3.33,8.54-1,17.85-.31,26.36.17C449,30.45,456,29.46,461.43,29.56Z" transform="translate(0 -7.74)"/><g class="cls-7"><path class="cls-8" d="M522.42,30.36c-6.27,0-10-.35-16.22,1.09-6,1.21-9.16.24-15.43.48-7.47.48-15.43.72-22.66-.24-7-1.21-13.74-2.89-21-2.89-12.53,0-24.83.24-37.12.72-7,.24-11.33,4.58-17.6,5.78-5.54,1-14.94,1.45-20.25-.24-2.89-1-5.06-3.37-8-4.1s-6,.48-8.92-.24A100.48,100.48,0,0,0,338,28.57c-6.27-.24-10.12-.72-15.67.48-3.62.72-7-.24-8.44,3.62-1.45,3.62-.72,6.75,2.65,8.2,5.06,2.17,13.26,1.21,18.8,1.45,8.92,0,17.84.72,26.76,1,32.54,1.69,65.8,1,98.34.48,19-.24,37.84-1.21,56.89-1.21,5.3,0,9.16-.72,12.78-4.82Z" transform="translate(0 -7.74)"/></g><path class="cls-14" d="M528.86,29.17l-36.47-.8s23-.36,27-.82Z" transform="translate(0 -7.74)"/><polygon class="cls-18" points="492.39 20.63 527.57 22.41 528.86 21.43 492.39 20.63"/><path class="cls-13" d="M347.84,29.34s-27.37-.92-31.28.18L315.49,29S324.46,26.38,347.84,29.34Z" transform="translate(0 -7.74)"/><path class="cls-5" d="M375.31,22.3c10.36-.72,20.73,1.21,31.34.72,5.54-.24,11.09-.72,16.87-1,2.41,0,15.91-1.45,13.26,1.93-2.17,3.13-13,1.45-16.39,1.45-6,.24-11.57,1.21-17.35,1.69-11.57.72-22.42,3.13-33.26-1.21-1.69-.48-3.13-.24-4.34-1.69,1.69-1.93,6-1.93,8.44-1.69Z" transform="translate(0 -7.74)"/><path class="cls-5" d="M342.29,22.62c5.46,0,14.46-1.77,19.28.8,4.82,2.73-5.14,3.7-7.23,3.7a111.07,111.07,0,0,1-12.69.16c-3.54-.16-6.91-.8-10.61-.64-4,0-9.06-.16-12.92-.16-6.59,0-3.86-4,1.61-4,3.37,0,7.29.48,10.51.48,3.54,0,7.07-.16,10.61-.16Z" transform="translate(0 -7.74)"/><path class="cls-5" d="M478.94,23.27c7.1,0,14,.07,21.14.07,2.93,0,7.41-.53,10,.09,5.4,1.23,6.61,3.61-6.17,3.38-9.6-.18-19.45-.62-29-.62-4,0-8,.15-11.88,0-1.23,0-5.09.55-5.86-.38-1.39-2,3.4-1.85,4.63-1.85,5.09-.31,10.34-.68,15.43-.68Z" transform="translate(0 -7.74)"/><g class="cls-7"><path class="cls-8" d="M527.41,12.34c0,3.05,0,3.54-2.89,3.37-1.93,0-.33,1.27-2.1,1.41-5.2.41-11.24-.21-15.1,0-12.21.32-24.26.24-36.48.08-11.25-.16-22.5-1-33.75-1-13.18,0-26.35.48-39.53.8-23.14.64-46.28-.8-69.26-.32-4.18,0-8.36.64-12.53.48-2.73,0-4.5.32-3.37-2.89S315.3,12,318.35,12c15.59.64,31,.64,46.6.64,22,0,44.19.8,66-.64,10.77-.64,21.21-1.77,32-1.45,11.73.32,23.62.8,35.35.16,6.11-.32,18.66,1,24.44,1.35,3.69.2,2.23-2,5.77-.7Z" transform="translate(0 -7.74)"/></g><path class="cls-14" d="M325.93,29.17l-36.47-.8s23-.36,27-.82Z" transform="translate(0 -7.74)"/><polygon class="cls-18" points="289.46 20.63 319.52 22.15 325.93 21.43 289.46 20.63"/><path class="cls-5" d="M522.42,22.46s-4.35-.23-4.89,2.06,3,1.93,4.89,2C522.42,26.48,525.93,24.65,522.42,22.46Z" transform="translate(0 -7.74)"/></g><g class="cls-26"><path class="cls-5" d="M323,13.62c-1.21,2.41-.72,6-.72,8.68-5.3,1.69-12.78.48-18.32.48-6,0-11.81,0-17.84.24-22.9.48-45.56,1.45-68.46.72-21.21-.48-42.66-.48-63.88,0-11.33.24-23.62,1.69-34.71-.24-3.37-.72-6,0-6.51-3.37-.24-1.45.48-3.62.72-4.82,1-2.65-.48-1.93,2.17-2.65,3.86-1.21,11.33.72,15.43,1,12.53,1.45,24.83-.48,37.12-.48,12.78,0,25.31-1,38.08-1.45,19-.72,38.08-1,57.37-1s39.53-1,58.81,1.45Z" transform="translate(0 -7.74)"/><path class="cls-6" d="M284.79,16c6.91,0,13.82,0,20.57-.16,1.61,0,11.89-.48,7.23,2.25-2.57,1.61-8.84,1-11.89,1.12-16.39.64-32.94,1.12-49.33,1.12-1.93,0-4.18.32-5.78-.32-2.41-.8-2.25-2.09.16-2.89,3.37-1,7.55.16,11.09-.16,6.75-.64,13.34-.72,20.09-.88C279.17,16.11,280,16,284.79,16Z" transform="translate(0 -7.74)"/><g class="cls-7"><path class="cls-8" d="M333.16,18.28c-3.62.56-9.88,1.71-13.52,1.4-2.36-.2-5,.12-7.69-.16-7.23-.84-10.85-1.6-18.32-.76-13.5,1.68-27.24-1-40.74,1.48-6.27,1.12-12.29-.84-18.8-1.12s-13-.84-19.52-.56c-13.5.28-27.48,1.4-40.74.28a68.43,68.43,0,0,0-18.56.56c-6.75,1.4-12.29,0-19-.56-6.51-.56-13,.84-19.52.84-2.41,0-5.54.28-7.47-1.68-3.62-3.08-.48-5,3.13-5.6,11.09-1.68,22.9.84,34.23.84,14.94,0,29.89-1.68,44.83-1.12,35,1.12,69.66-1.12,104.37-1.12h20c4.82,0,12.29-1.12,16.15,2Z" transform="translate(0 -7.74)"/></g><path class="cls-9" d="M99.07,12.42c.64,2.41,17.68,1.93,20.57,1.77,4.34-.16,8.2,1.12,12.37,1.12,4.82,0,9.48-.16,14.3-.16,21.05,0,42.66-.28,63.63,0,15.55.21,19.12-1,28.92-.8,12.53.32,25.07.8,37.6.32,9.48-.16,19,.32,28.28-.32,4.18-.32,10.56-.21,14.74-.05,1.45,0,2.78.86,4.06.05,2.89-1.77-1.77-2.41-3.37-2.57-7.55-1.12-15.59-.32-23,.32-14.14,1.29-28-.32-42.1-.64-14.94-.32-29.57,1.12-44.19,1.12-11.73,0-23.3-1.12-34.87-1.45-11.25-.32-22.66.64-33.91.64-13.18,0-26.19-1.61-39.21.8Z" transform="translate(0 -7.74)"/><path class="cls-10" d="M319.49,14c-3,.36-12.69-.85-15.58-1-4.34-.16-8.2.64-12.37.64-4.82,0-9.48-.16-14.3-.16-21.05,0-42.74-1-63.63,1-9.64.8-19.12-.48-28.92-.32-12.53.32-25.07.8-37.6.32-9.48-.16-19,.32-28.28-.32a111.55,111.55,0,0,0-12.69.16c-1.45,0-4.82.64-6.11-.16-2.89-1.77,1.77-2.41,3.37-2.57,7.55-1.12,15.59-.32,23,.32,14.14,1.29,28-.32,42.1-.64,14.94-.32,29.57,1.12,44.19,1.12,11.73,0,23.3-1.12,34.87-1.45,11.25-.32,22.66-.8,33.91-.8,13.18,0,26.19-1.61,39.21.8Z" transform="translate(0 -7.74)"/><path class="cls-11" d="M319.49,8.17c-7.39-1.29-10.28.79-17.83.15-8.36-.8-21.69-.4-30,.08-10.12.48-15.59.24-25.55,1.21-6.11.64-11.89,0-18-.16-5-.16-10,.48-15.11.64-5.78.16-11.57,1.12-17.35,1-4.18-.16-8.36-1-12.53-1.45-9.32-.8-19-.48-28.28-.48-9.64,0-19.93,3.37-29.41.8a52.73,52.73,0,0,0-20.73-1.77,28.93,28.93,0,0,1-5.14,1c-1.45,0-3.21-.32-4.34.48,1.45,2.25,8.68,1,11.25,1.12,3.21.16,6.43.48,9.8.8,8.52.8,17,1,25.71,1,18.8,0,37.76-1.45,56.56-.8,18.48.64,37.12,1,55.6-.16,18.64-1.12,37.6-1.61,56.24-1.61,5.3,0,10.28,1,15.59,1Z" transform="translate(0 -7.74)"/><path class="cls-12" d="M319.49,9c-6.75-1.18-16.1.65-35.27.05-12.79-.4-24.34,1.21-37.36,1.21-14.46,0-31.58,1.21-45.8,1.45-14.94.24-28.68-2.41-43.39-1.93C149,10,142,11.45,133.1,11.45c-4.82,0-8.92-1-13.5-1.93-4.1-.72-9.64-2.17-8.2,3.13,4.82,1.45,10.36.48,15.19.72,5.06.24,10.12.48,14.94.24,9.88-.48,20,.24,29.89-.24,24.1-1.45,48.69.72,73-.72,10.61-.72,18.08-1.21,28.68-.72,5.3,0,10.36.72,15.67.72,5.78,0,10.61-.48,16.39-.72,4.58-.24,9.22,1.63,14.3,1.51Z" transform="translate(0 -7.74)"/><path class="cls-13" d="M225.5,20.93c-9.08,0-18.08-.24-27.24-.24-8.76,0-17.52-.72-26.27-1.37-4.34-.32-8.2-1.37-12.37-.32,2.77.16,2.17,1.53,2.89,1.53-2.09-.08-4.66-.4-5.87-.4-1.85-.08-3.78,0-5.62,0-4.42,0-8,.88-12.37.32,1.29-.4,1.77-.16,3.05-.72-2.41-.08-4.5.56-6.83.8-1.93.16-3.86.16-5.78.4s-3.94.24-6,.24c-2.81,0-5.22-.8-8-1.21a73.93,73.93,0,0,0-8.44-.24c-2.09-.08-5.54-.24-5.46,2.73.08,2.17,2.57,1.53,4.42,1.53a41,41,0,0,1,5.38.64,70.76,70.76,0,0,0,8.28,1.21c5.22.4,10.53-.08,15.75-.16,7.79-.08,15.59-1,23.38-1.21,5.62-.16,11.33-.16,17-.32,6.75-.16,13.58-.08,20.33-.08,4.58,0,9.8.08,14.22-1Z" transform="translate(0 -7.74)"/><path class="cls-14" d="M108,19.77c2.89.12,5.78,1.81,8.56,2.53,5.78,1.57,11.81,1.08,17.84,1.33l10.85.36c4.22.24,7.83-.36,12.05-.72,4.7-.6,9.4-.36,14.1-1A92.71,92.71,0,0,1,183,22.06c3.62,0,15.06.48,18.56-.36-4.58-.72-20-1.21-22.3-1.33-4.82-.24-9.76-1.08-14.58-1.21h-2.29a8.56,8.56,0,0,1,1.69,1.21c-1.57,1.45-6.87.48-9,.48-2.89,0-5.66.24-8.44.24-6.39,0-12.53.12-18.8.48-2.65.12-5.18.12-7.71.12s-6.51.12-8.92-.72Z" transform="translate(0 -7.74)"/><path class="cls-13" d="M319.49,20.22c-3.45,0-5.28.13-8.67.23s-4.5-.16-8.2.08c-6.75.4-13.5.4-20.25.72a20.42,20.42,0,0,1,3.78-.56c-8.11,0-16.39.64-24.51,1-1.29.08-12.29.24-13.58.48-.72.16-14.94-.72-15.43,0-.72,1.37,24.83,2.41,25.63,2.49a65.86,65.86,0,0,0,8,.32c14.06.24,28.12.4,42.18.4,3.05,0,6.43.16,9.48-.56,1.85-.48,5.3-.32,6.75-1.85Z" transform="translate(0 -7.74)"/><path class="cls-14" d="M313,21c-3.56.23-7.31.08-10.93.24s-7.23.08-10.85.16c-2,.08-3.94.16-5.95.16-1.29,0-2.65,0-3.94.08-1.61.08-9.88.19-17.52.8,4.26.64,20.89.24,25.23.4,4.74.24,9.48.08,14.22.32,4.42.24,8.84.32,13.26.16C319,23.26,318.34,20.67,313,21Z" transform="translate(0 -7.74)"/><path class="cls-15" d="M110.68,19.16c9.64,3.62,20,2.89,30.13,2.17,8.2-.48,17.35,1.21,25.07-.48a14.4,14.4,0,0,0-2.65-1.45c25.79,3.62,52.31.24,78.1,1.45-1.21.72-2.89.24-4.1,1,13,1.21,26.51.72,39.77.24,11.81-.24,23.64,0,35.43-1,6.2-.53,7.06-.31,7.06-.31,4.63,2.36,4.75,7.06,3.3,8-2.17,1.21-8,.24-10.61.24-11.09.24-22.18,0-33.26,0C238.43,29,197.94,31,157.2,31c-11.81,0-24.1,0-35.91-.72-3.13-.48-14.22.72-14.94-4.34Z" transform="translate(0 -7.74)"/><path class="cls-14" d="M166.84,27.84a18.78,18.78,0,0,0-8.2.72c-4.93,1.4-36.16.59-36.16.59L139,32.63l24-1S157.32,29.77,166.84,27.84Z" transform="translate(0 -7.74)"/><path class="cls-14" d="M166.48,29.29c5.66,0,11.33.36,16.87.36s10.61-.6,16-1.08c10.49-.84,21-.84,31.58-1.45,11.69-.72,23.14,0,34.71,1,1.45.12,3.62.12,4.7,1.08-4.1,1.93-11.21,1.33-15.67,1.33-5.18,0-10.36,0-15.55-.12-5.54-.12-11.09.6-16.63.84-11.57.72-22.9,1.69-34.47,1.69-9.16,0-18.32-.24-27.48-.48Z" transform="translate(0 -7.74)"/><path class="cls-13" d="M326.17,28.32c-29.41,1.21-63.15-1.57-92.56-.48.72,0,10.61,1.21,10.61,1.21-9.62-.43-17.63-1-21.93-1-8.68,0-16.87.48-25.55,1.21-9.16,1-21.69,2.17-30.37-.24-.48,0-1.45.24-1.69.24,1-.24,1.45-1,2.17-1.45-2.89-.72-6.75,1.45-9.88,1.93-2.41.24-5.06.24-7.47.24-5.3.24-10.85,0-16.15,0-5.78-.24-11.81-1-17.6-.72-3.62.24-4.34-.24-4.58,3.37-.48,4.82,2.17,9.1,6,9.1,28.92,1,58.57.72,87.74,0,32.3-1,64.36-.72,96.66.24,5.54,0,18.08-2.6,22.66-6.93Z" transform="translate(0 -7.74)"/><path class="cls-14" d="M329.46,36.84c-7.71-1-15.91-.16-23.78.16-8.36.32-16.55,0-24.91,0-2.89,0-5.78.48-8.68.32,2.09-.16,6.54-1.5,11.09-1.61-3.37-.32-11.73,1-14.94,1.12-3.54.16-7.23.16-10.77.32-7.07.16-14.14.4-21.05-.4-5.95-.64-11.89-1-17.84-1.37,2.41.8,7.55,1.12,9.8,2.09-15.91-1-34.39-.88-50.14-.4-10.93.32-14.78.32-25.71.64-5.3.16-17.72.21-23-.08-9.64-.53-12.53-.48-16.07-.64-2.57-.16-10-1.29-11.57,1.12C99.35,42.3,119.76,42,122.49,42.3A247.49,247.49,0,0,0,157,43.59c19.93-.48,39.69-.64,59.62-.32,21.37.32,42.58-1,64-1,11.89,0,23.78-.16,35.67-.32,5.14-.16,10.44,0,15.43-1.12Z" transform="translate(0 -7.74)"/><path class="cls-16" d="M328.1,36.76c-24.83.72-50.38,1.93-75.45,1.21-26.27-.72-52.79-.24-79.06-.24-11.57,0-23.14,1-34.47.72-5.54,0-10.85-.24-16.15-.24-4.34,0-11.57-1.21-15.43.24a3.94,3.94,0,0,1-1.69,0c0,2.65.24,7.23,1.93,8.44,2.65,1.93,11.09,17.33,14.22,17.33h11.33c17.35,0,34.71-.48,52.06.72,40,2.89,80.27-.24,120-.24,4.34,0,21.69-15.16,23.14-20Z" transform="translate(0 -7.74)"/><path class="cls-5" d="M111.9,29.92c.62-.6,1.74-.49,3.84-.63,5.78-.24,11.81.48,17.6.72,5.3,0,10.85.24,16.15,0,2.41,0,5.06,0,7.47-.24,3.13-.48,7-2.65,9.88-1.93-.72.48-1.21,1.21-2.17,1.45.24,0,1.21-.24,1.69-.24,8.68,2.41,21.21,1.21,30.37.24,8.68-.72,16.87-1.21,25.55-1.21,1.07,0,2.37,0,3.86.09-1.71.14-3.4.21-4.83.39a76.77,76.77,0,0,1-12.21.64c-7.39,0-14.46,1.93-21.85,2.09A134.12,134.12,0,0,1,166,30.17c-3.37-.48-7.23.8-11.09.8-3.21,0-6.59.32-9.8.16-6.59-.16-13-.8-19.44-.8C124,30.33,116.17,30.71,111.9,29.92Z" transform="translate(0 -7.74)"/><path class="cls-17" d="M258.5,29.56c8.51.64,17,.48,25.54.64,2.09,0,10.79-.92,10.4,2.29-.55,3.85-10,1.58-12.4,1.37-7.7-.79-15.12.84-22.69,1.5a156.22,156.22,0,0,1-28.77-.22c-4.33-.24-8.49-1.61-12.83-1.69-1.61,0-4.51.56-5.78-.11-3.19-1.51.22-3,2.31-3.33,8.54-1,17.85-.31,26.36.17C246.11,30.45,253,29.46,258.5,29.56Z" transform="translate(0 -7.74)"/><g class="cls-7"><path class="cls-8" d="M319.49,30.36c-6.27,0-10-.35-16.22,1.09-6,1.21-9.16.24-15.43.48-7.47.48-15.43.72-22.66-.24-7-1.21-13.74-2.89-21-2.89-12.53,0-24.83.24-37.12.72-7,.24-11.33,4.58-17.6,5.78-5.54,1-14.94,1.45-20.25-.24-2.89-1-5.06-3.37-8-4.1s-6,.48-8.92-.24A100.48,100.48,0,0,0,135,28.57c-6.27-.24-10.12-.72-15.67.48-3.62.72-7-.24-8.44,3.62-1.45,3.62-.72,6.75,2.65,8.2,5.06,2.17,13.26,1.21,18.8,1.45,8.92,0,17.84.72,26.76,1,32.54,1.69,65.8,1,98.34.48,19-.24,37.84-1.21,56.89-1.21,5.3,0,9.16-.72,12.78-4.82Z" transform="translate(0 -7.74)"/></g><path class="cls-14" d="M325.93,29.17l-36.47-.8s23-.36,27-.82Z" transform="translate(0 -7.74)"/><polygon class="cls-18" points="289.46 20.63 324.64 22.41 325.93 21.43 289.46 20.63"/><path class="cls-13" d="M144.91,29.34s-27.37-.92-31.28.18L112.56,29S121.53,26.38,144.91,29.34Z" transform="translate(0 -7.74)"/><path class="cls-5" d="M172.39,22.3c10.36-.72,20.73,1.21,31.34.72,5.54-.24,11.09-.72,16.87-1,2.41,0,15.91-1.45,13.26,1.93-2.17,3.13-13,1.45-16.39,1.45-6,.24-11.57,1.21-17.35,1.69-11.57.72-22.42,3.13-33.26-1.21-1.69-.48-3.13-.24-4.34-1.69,1.69-1.93,6-1.93,8.44-1.69Z" transform="translate(0 -7.74)"/><path class="cls-5" d="M139.36,22.62c5.46,0,14.46-1.77,19.28.8,4.82,2.73-5.14,3.7-7.23,3.7a111.07,111.07,0,0,1-12.69.16c-3.54-.16-6.91-.8-10.61-.64-4,0-9.06-.16-12.92-.16-6.59,0-3.86-4,1.61-4,3.37,0,7.29.48,10.51.48,3.54,0,7.07-.16,10.61-.16Z" transform="translate(0 -7.74)"/><path class="cls-5" d="M276,23.27c7.1,0,14,.07,21.14.07,2.93,0,7.41-.53,10,.09,5.4,1.23,6.61,3.61-6.17,3.38-9.6-.18-19.45-.62-29-.62-4,0-8,.15-11.88,0-1.23,0-5.09.55-5.86-.38-1.39-2,3.4-1.85,4.63-1.85,5.09-.31,10.34-.68,15.43-.68Z" transform="translate(0 -7.74)"/><g class="cls-7"><path class="cls-8" d="M324.48,12.34c0,3.05,0,3.54-2.89,3.37-1.93,0-.33,1.27-2.1,1.41-5.2.41-11.24-.21-15.1,0-12.21.32-24.26.24-36.48.08-11.25-.16-22.5-1-33.75-1-13.18,0-26.35.48-39.53.8-23.14.64-46.28-.8-69.26-.32-4.18,0-8.36.64-12.53.48-2.73,0-4.5.32-3.37-2.89S112.37,12,115.42,12c15.59.64,31,.64,46.6.64,22,0,44.19.8,66-.64,10.77-.64,21.21-1.77,32-1.45,11.73.32,23.62.8,35.35.16,6.11-.32,18.66,1,24.44,1.35,3.69.2,2.23-2,5.77-.7Z" transform="translate(0 -7.74)"/></g><path class="cls-14" d="M123,29.17l-36.47-.8s23-.36,27-.82Z" transform="translate(0 -7.74)"/><polygon class="cls-18" points="86.53 20.63 116.59 22.15 123 21.43 86.53 20.63"/><path class="cls-5" d="M319.49,22.46s-4.35-.23-4.89,2.06,3,1.93,4.89,2C319.49,26.48,323,24.65,319.49,22.46Z" transform="translate(0 -7.74)"/></g><g class="cls-27"><rect class="cls-28" x="117.57" y="47.09" width="408.29" height="127.55" transform="translate(643.42 213.99) rotate(-180)"/><path class="cls-14" d="M497.35,149.67,331.69,148s104.44-.76,122.68-1.76Z" transform="translate(0 -7.74)"/><path class="cls-14" d="M124.95,133.8c5.69.14,11.38,2.09,16.83,2.93,11.38,1.81,23.23,1.26,35.08,1.53l21.33.42c8.3.28,15.41-.42,23.7-.84,9.24-.7,18.49-.42,27.73-1.12,7.59-.56,15.17-.28,22.76-.28,7.11,0,29.63.56,36.5-.42-9-.84-39.35-1.4-43.85-1.53-9.48-.28-19.2-1.26-28.68-1.4h-4.5a19.61,19.61,0,0,1,3.32,1.4c-3.08,1.67-13.51.56-17.78.56-5.69,0-11.14.28-16.59.28-12.56,0-24.65.14-37,.56-5.21.14-10.19.14-15.17.14-5.21,0-12.8.14-17.54-.84Z" transform="translate(0 -7.74)"/><path class="cls-22" d="M332.05,87.76c5.69.14,11.38,2.09,16.83,2.93,11.38,1.81,23.23,1.26,35.08,1.53l21.33.42c8.3.28,15.41-.42,23.7-.84,9.24-.7,18.49-.42,27.73-1.12,7.59-.56,15.17-.28,22.76-.28,7.11,0,29.63.56,36.5-.42-9-.84-39.35-1.4-43.85-1.53-9.48-.28-19.2-1.26-28.68-1.4H439a19.61,19.61,0,0,1,3.32,1.4c-3.08,1.67-13.51.56-17.78.56-5.69,0-11.14.28-16.59.28-12.56,0-24.65.14-37,.56-5.21.14-10.19.14-15.17.14-5.21,0-12.8.14-17.54-.84Z" transform="translate(0 -7.74)"/><path class="cls-22" d="M481.19,158.46c1.22.23,2.44,3.49,3.6,4.88,2.44,3,5,2.09,7.51,2.56l4.57.7c1.78.46,3.3-.7,5.08-1.39,2-1.16,4-.7,5.94-1.86,1.62-.93,3.25-.46,4.87-.46s6.35.93,7.82-.7c-1.93-1.39-8.43-2.32-9.39-2.56-2-.46-4.11-2.09-6.14-2.32h-1a16.84,16.84,0,0,1,.71,2.32c-.66,2.79-2.89.93-3.81.93-1.22,0-2.39.46-3.55.46a30.5,30.5,0,0,0-7.92.93,15.55,15.55,0,0,1-3.25.23c-1.12,0-2.74.23-3.76-1.39Z" transform="translate(0 -7.74)"/><path class="cls-14" d="M76,69.68c25.65,0,51.29.42,76.39.42s48-.7,72.57-1.26c47.47-1,94.94-1,143-1.67,52.93-.84,104.77,0,157.15,1.12,6.55.14,16.37.14,21.28,1.26-18.55,2.23-50.75,1.53-70.94,1.53-23.46,0-46.93,0-70.39-.14-25.1-.14-50.2.7-75.3,1-52.38.84-103.67,2-156.06,2-41.47,0-82.94-.28-124.41-.56Z" transform="translate(0 -7.74)"/><path class="cls-13" d="M529.21,108.9c-57.4.87-123.26-1.13-180.66-.35,1.41,0,20.7.87,20.7.87-18.77-.31-34.41-.7-42.81-.7-16.94,0-32.93.35-49.87.87-17.88.7-42.34,1.57-59.28-.17-.94,0-2.82.17-3.29.17a22.4,22.4,0,0,0,4.23-1c-5.65-.52-13.17,1-19.29,1.4-4.7.17-9.88.17-14.58.17-10.35.17-21.17,0-31.52,0-11.29-.17-23.05-.7-34.34-.52-7.06.17-8.47-.17-8.94,2.44-.94,3.49,4.23,6.59,11.76,6.59,56.46.7,114.32.52,171.25,0,63-.7,125.61-.52,188.66.17,10.82,0,35.28-1.88,44.22-5Z" transform="translate(0 -7.74)"/><path class="cls-14" d="M535.64,115.06c-15.05-.7-31.05-.12-46.42.12-16.31.23-32.31,0-48.61,0-5.65,0-11.29.35-16.94.23,4.08-.12,12.77-1.09,21.64-1.16-6.59-.23-22.9.7-29.17.81-6.9.12-14.11.12-21,.23-13.8.12-27.6.29-41.09-.29-11.6-.47-23.21-.76-34.81-1,4.7.58,14.74.81,19.13,1.51-31.05-.7-67.12-.64-97.86-.29-21.33.23-28.86.23-50.18.47-10.35.12-34.59.15-44.85-.06-18.81-.38-24.46-.35-31.36-.47-5-.12-19.45-.93-22.58.81-5,3,34.81,2.79,40.15,3,22.27.93,44.85,1.16,67.43.93,38.89-.35,77.47-.47,116.36-.23,41.71.23,83.12-.7,124.83-.7q34.81,0,69.63-.23c10-.12,20.39,0,30.11-.81Z" transform="translate(0 -7.74)"/><path class="cls-23" d="M524.46,117c-50,.42-101.54,1.12-152.07.7-53-.42-106.4-.14-159.35-.14-23.32,0-46.64.56-69.47.42-11.17,0-21.86-.14-32.55-.14-8.74,0-23.32-.7-31.09.14a27.34,27.34,0,0,1-3.4,0,4.58,4.58,0,0,0,3.89,4.88c5.34,1.12,22.35,10,28.66,10h22.83c35,0,70-.28,104.94.42,80.65,1.67,161.78-.14,241.94-.14,8.74,0,43.72-8.78,46.64-11.57Z" transform="translate(0 -7.74)"/><g class="cls-7"><path class="cls-8" d="M569,148.87c0,3.54,0,4.09-6.4,3.91-4.27,0-.74,1.48-4.64,1.64-11.5.48-24.87-.24-33.41-.06-27,.37-53.69.28-80.71.09-24.89-.19-49.78-1.12-74.66-1.12-29.15,0-58.31.56-87.46.93-51.2.74-102.4-.93-153.24-.37-9.24,0-18.49.74-27.73.56-6,0-10,.37-7.47-3.35s6.4-2.6,13.16-2.6c34.49.74,68.62.74,103.11.74,48.71,0,97.77.93,146.13-.74,23.82-.74,46.93-2,70.75-1.67,26,.37,52.26.93,78.22.19,13.51-.37,41.29,1.19,54.08,1.56,8.16.24,4.93-2.3,12.76-.81Z" transform="translate(0 -7.74)"/></g><g class="cls-7"><path class="cls-8" d="M541.39,46c0,3.54,0,4.09-5.88,3.91-3.92,0-.68,1.48-4.26,1.64-10.57.48-22.87-.24-30.71-.06-24.84.37-49.35.28-74.19.09-22.88-.19-45.76-1.12-68.63-1.12-26.8,0-53.6.56-80.4.93-47.06.74-94.13-.93-140.86-.37-8.5,0-17,.74-25.49.56-5.56,0-9.15.37-6.86-3.35s5.88-2.6,12.09-2.6c31.7.74,63.08.74,94.78.74,44.78,0,89.88.93,134.33-.74,21.9-.74,43.14-2,65-1.67,23.86.37,48,.93,71.9.19,12.42-.37,38,1.19,49.72,1.56,7.51.24,4.54-2.3,11.73-.81Z" transform="translate(0 -7.74)"/></g><path class="cls-15" d="M67.52,57.83C88.81,62,111.69,61.18,134,60.35c18.09-.56,38.31,1.4,55.34-.56-2.13-.56-3.72-1.4-5.85-1.67,56.94,4.19,115.47.28,172.41,1.67-2.66.84-6.39.28-9,1.12,28.73,1.4,58.53.84,87.8.28,26.07-.28,52.2.06,78.22-1.12,13.68-.62,15.59-.36,15.59-.36,10.21,2.73,10.48,8.17,7.29,9.29-4.79,1.4-17.56.28-23.41.28-24.48.28-49,0-73.43,0-89.4,0-178.79,2.23-268.72,2.23-26.07,0-53.21,0-79.29-.84-6.92-.56-31.4.84-33-5Z" transform="translate(0 -7.74)"/><g class="cls-7"><path class="cls-8" d="M540,119.53c-7.2.65-19.67,2-26.92,1.62-4.69-.23-10,.14-15.3-.18-14.4-1-21.59-1.86-36.47-.88-26.87,1.95-54.22-1.21-81.09,1.71-12.48,1.3-24.47-1-37.43-1.3s-25.91-1-38.87-.65c-26.87.32-54.7,1.62-81.09.32a233.29,233.29,0,0,0-36.95.65c-13.44,1.62-24.47,0-37.91-.65-13-.65-25.91,1-38.87,1-4.8,0-11,.32-14.88-1.95-7.2-3.57-1-5.84,6.24-6.49,22.07-1.95,45.59,1,68.14,1,29.75,0,59.5-1.95,89.25-1.3,69.58,1.3,138.68-1.3,207.77-1.3h39.83c9.6,0,24.47-1.3,32.15,2.27Z" transform="translate(0 -7.74)"/></g><g class="cls-7"><path class="cls-8" d="M540,66.5c-7.2.65-19.67,2-26.92,1.62-4.69-.23-10,.14-15.3-.18-14.4-1-21.59-1.86-36.47-.88-26.87,1.95-54.22-1.21-81.09,1.71-12.48,1.3-24.47-1-37.43-1.3s-25.91-1-38.87-.65c-26.87.32-54.7,1.62-81.09.32a233.29,233.29,0,0,0-36.95.65c-13.44,1.62-24.47,0-37.91-.65-13-.65-25.91,1-38.87,1-4.8,0-11,.32-14.88-1.95-7.2-3.57-1-5.84,6.24-6.49,22.07-1.95,45.59,1,68.14,1,29.75,0,59.5-1.95,89.25-1.3,69.58,1.3,138.68-1.3,207.77-1.3h39.83c9.6,0,24.47-1.3,32.15,2.27Z" transform="translate(0 -7.74)"/></g><path class="cls-24" d="M96.13,94.95c13.33,0,26.66.42,39.7.42s25-.7,37.72-1.26c24.67-1,49.35-1,74.3-1.67,27.51-.84,54.45,0,81.67,1.12,3.4.14,8.51.14,11.06,1.26-9.64,2.23-26.37,1.53-36.87,1.53-12.19,0-24.39,0-36.58-.14-13-.14-26.09.7-39.14,1-27.22.84-53.88,2-81.11,2-21.55,0-43.11-.28-64.66-.56Z" transform="translate(0 -7.74)"/><path class="cls-24" d="M99.52,161.33c16.58,0,33.16.42,49.39.42s31-.7,46.92-1.26c30.7-1,61.39-1,92.44-1.67,34.22-.84,67.74,0,101.61,1.12,4.23.14,10.58.14,13.76,1.26-12,2.23-32.81,1.53-45.87,1.53-15.17,0-30.34,0-45.51-.14-16.23-.14-32.46.7-48.69,1-33.87.84-67,2-100.91,2-26.81,0-53.63-.28-80.44-.56Z" transform="translate(0 -7.74)"/><path class="cls-14" d="M397.27,49.58,231.61,47.87S336,47.1,354.29,46.11Z" transform="translate(0 -7.74)"/></g></g></g></g></g></svg>