<svg xmlns="http://www.w3.org/2000/svg" viewBox="0 0 242.73 167.73"><defs><style>.cls-1{isolation:isolate;}.cls-2{mix-blend-mode:multiply;}.cls-3{fill-opacity: 0.4; fill:#ededed;}.cls-4{fill:#dd9c00;}.cls-5{fill:#f9b600;}.cls-6,.cls-8{fill:#f0f6f8;}.cls-7{fill:#d71e16;}.cls-8{mix-blend-mode:overlay;}</style></defs><title>icn_float_pad</title><g class="cls-1"><g id="Слой_2" data-name="Слой 2"><g id="Layer_1" data-name="Layer 1"><g class="cls-2"><path class="cls-3" d="M202.74,51.29C149.41,20.5,94.38,20.5,41.05,51.29h0c-26.66,15.39-40,31-40,46.68s13.33,31.28,40,46.68c53.33,30.79,108.36,30.79,161.69,0,26.66-15.39,40-31,40-46.68S229.4,66.69,202.74,51.29Z"/></g><path class="cls-4" d="M186.08,107.43c-49.2,28.4-100,28.4-149.18,0C12.3,93.23,0,78.8,0,64.37V85.86c0,14.43,12.3,28.86,36.9,43.06,49.2,28.41,100,28.41,149.18,0,24.6-14.2,36.9-28.63,36.9-43.06V64.37C223,78.8,210.68,93.23,186.08,107.43Z"/><path class="cls-5" d="M186.08,21.3C136.87-7.1,86.1-7.1,36.9,21.3h0C12.3,35.51,0,49.94,0,64.37s12.3,28.86,36.9,43.06c49.2,28.41,100,28.41,149.18,0C210.68,93.23,223,78.8,223,64.37S210.68,35.51,186.08,21.3Z"/><path class="cls-4" d="M63.21,41.73c-29.43,17-29.43,44.55,0,61.54s77.16,17,106.59,0,29.43-44.55,0-61.54S92.65,24.74,63.21,41.73Zm76.92,44.41c-13,7.53-34.2,7.53-47.25,0s-13-19.75,0-27.28,34.2-7.53,47.25,0S153.18,78.61,140.13,86.14Z"/><path class="cls-6" d="M181.41,50.37c0-23.62-33.17-42.77-74.08-42.77S33.26,26.75,33.26,50.37V58c0,23.62,33.17,42.77,74.08,42.77S181.41,81.64,181.41,58ZM107.33,72.5c-18.91,0-34.58-7.91-37.73-18.31,3.14-10.4,18.82-18.31,37.73-18.31s34.58,7.91,37.73,18.31C141.92,64.59,126.24,72.5,107.33,72.5Z"/><path class="cls-7" d="M47.27,25.35h0Q49,24,50.94,22.65h0a70.15,70.15,0,0,1,8.37-4.83h0Q61.59,16.7,64,15.7h0a95.15,95.15,0,0,1,10.19-3.57c12.89-3,25.26,1.36,26.92,24.07C86.9,37.53,75.36,43.39,71,51.13c.54-21.25-18.37-27.6-29.88-19.9A47.09,47.09,0,0,1,47.27,25.35ZM69.63,54.25c-2.77-2.54-8.52-3.5-14-1.58C46.12,56,38,65.18,40.73,76.75,47.31,84.54,57.88,91,70.9,95.25c.58.19,1.16.38,1.76.56l1.11.33C69.29,79.15,83.34,68.73,93.6,71,81.25,68.28,72,62,69.63,54.25Zm96.62-.14c-5.89-3.2-14.16-4.08-20.9-.91-.07.33-.19.65-.3,1v0c0,.09-.06.16-.09.24-.08.23-.17.46-.26.69-2.82,7.43-12.06,13.47-24.23,16,11.38-1,20.71,10.45,16.22,26.13C153.73,93,167.44,85.2,175,75.43,176.38,68.08,173.88,58.26,166.24,54.11Zm-22.7-3.27c-.52-19.39,21.36-26,30-19.6a47.07,47.07,0,0,0-6.18-5.88h0q-1.74-1.39-3.66-2.69h0a70.13,70.13,0,0,0-8.37-4.83h0q-2.25-1.11-4.66-2.11h0a95.21,95.21,0,0,0-10.18-3.57C131.76,9,114.35,16.7,116.73,36.57,129.3,38.41,139.37,43.82,143.54,50.84ZM117.21,71.75h0Z"/><path class="cls-8" d="M107.33,9.13c-35.91,0-65,16-65,35.69s29.11,35.69,65,35.69,65-16,65-35.69S143.25,9.13,107.33,9.13Zm-.47,65.46c-24.72,0-44.77-12-44.77-26.71s20-26.71,44.77-26.71,44.76,12,44.77,26.71S131.59,74.6,106.86,74.6Z"/></g></g></g></svg>