<svg xmlns="http://www.w3.org/2000/svg" viewBox="0 0 242.73 167.73"><defs><style>.cls-1{isolation:isolate;}.cls-2,.cls-6{mix-blend-mode:multiply;}.cls-3{fill-opacity: 0.4; fill:#e6e7e8;}.cls-4{fill:#0a6d38;}.cls-5{fill:#04834a;}.cls-6{fill:#d09c2a;}.cls-6,.cls-9{opacity:0.6;}.cls-7{fill:#a92123;}.cls-8{fill:#f2f2f2;}.cls-9{fill:#f04a33;}.cls-10,.cls-11{fill:#ef4524;}.cls-11{mix-blend-mode:screen;}</style></defs><title>icn_sandals_pad</title><g class="cls-1"><g id="Слой_2" data-name="Слой 2"><g id="Layer_1" data-name="Layer 1"><g class="cls-2"><path class="cls-3" d="M202.74,51.29C149.41,20.5,94.38,20.5,41.05,51.29h0c-26.66,15.39-40,31-40,46.68s13.33,31.28,40,46.68c53.33,30.79,108.36,30.79,161.69,0,26.66-15.39,40-31,40-46.68S229.4,66.69,202.74,51.29Z"/></g><path class="cls-4" d="M186.08,107.43c-49.2,28.4-100,28.4-149.18,0C12.3,93.23,0,78.8,0,64.37V85.86c0,14.43,12.3,28.86,36.9,43.06,49.2,28.41,100,28.41,149.18,0,24.6-14.2,36.9-28.63,36.9-43.06V64.37C223,78.8,210.68,93.23,186.08,107.43Z"/><path class="cls-5" d="M186.08,21.3C136.87-7.1,86.1-7.1,36.9,21.3h0C12.3,35.51,0,49.94,0,64.37s12.3,28.86,36.9,43.06c49.2,28.41,100,28.41,149.18,0C210.68,93.23,223,78.8,223,64.37S210.68,35.51,186.08,21.3Z"/><path class="cls-6" d="M115.2,14.48c12.06,3.22,19.72,10.29,26.61,16.86s12.9,13.52,21.59,19.35c3.57,2.39,43.82,21.87,10.42,32.88-5.09,1.68-16.28,5.08-26.22-1.68C135,73.33,125.49,63.26,111.75,55.1,98.51,47.23,90.28,49,68.61,33.69c-3.78-2.66-11-12.23,6-18A71.28,71.28,0,0,1,115.2,14.48ZM39.77,76.73c6,6.85,18.53,11,30.15,14.74s23.86,7,34.26,11.75c4.27,2,39.44,24.49,57.26,4.8,2.72-3,8.19-9.59-3.87-15.08-15.28-7-33-12.08-47.67-19.71C95.81,65.89,98.5,61.07,71.28,49.13c-4.74-2.08-21.56-5.9-30.92,4.11C35,58.93,31.72,67.56,39.77,76.73Z"/><path class="cls-7" d="M153,44.41C145.22,39.2,139.84,33,133.67,27.09s-13-12.22-23.83-15.1a63.82,63.82,0,0,0-36.37,1.08c-7.37,2.51-9.64,5.81-9.64,8.83,0,.7,0,3.36,0,4,0,3.17,2.56,6,4.29,7.23,19.4,13.68,26.77,12.13,38.63,19.17,12.3,7.31,20.82,16.33,32.1,24,8.9,6.05,18.92,3,23.48,1.5,8.7-2.87,11.82-6.38,11.79-10,0-.66,0-3.25,0-3.89C174.12,55.18,155.27,45.94,153,44.41Z"/><path class="cls-7" d="M147.78,82.26C134.1,76,118.19,71.44,105.09,64.61,92.48,58,94.88,53.71,70.51,43c-4.25-1.86-19.31-5.28-27.68,3.68-2.74,2.93-4.87,6.72-4.83,11,0,.61,0,3.06,0,3.68,0,3.23,1.14,6.73,4.3,10.33,5.38,6.13,16.59,9.85,27,13.2S90.66,91.1,100,95.4c3.82,1.77,35.31,21.93,51.27,4.3,1.28-1.42,3.26-3.73,3.24-6.32,0-.62,0-3.25,0-4C154.46,87.1,152.86,84.57,147.78,82.26Z"/><path class="cls-8" d="M73.47,13.07c-15.19,5.17-8.72,13.73-5.34,16.12,19.4,13.68,26.77,12.13,38.63,19.17,12.3,7.31,20.82,16.33,32.1,24,8.9,6.05,18.92,3,23.48,1.5,29.91-9.86-6.13-27.3-9.33-29.44C145.22,39.2,139.84,33,133.67,27.09s-13-12.22-23.83-15.1A63.82,63.82,0,0,0,73.47,13.07Z"/><path class="cls-8" d="M42.83,46.69c8.38-9,23.43-5.54,27.68-3.68,24.37,10.7,22,15,34.58,21.6,13.1,6.83,29,11.42,42.69,17.65,10.79,4.91,5.89,10.81,3.46,13.5-16,17.63-47.45-2.53-51.27-4.3-9.31-4.3-20.28-7.17-30.68-10.52s-21.61-7.07-27-13.2C35.09,59.52,38.06,51.79,42.83,46.69Z"/><path class="cls-9" d="M82,37.64q-1.35-.68-2.8-1.47l40.92-19.87c.88.51,1.71,1,2.53,1.6Zm47.13-14.72c-.69-.61-1.4-1.2-2.13-1.79L87.68,40.23c1.11.46,2.17.88,3.21,1.27Zm-14.5-9.29c-1.08-.43-2.22-.82-3.39-1.18L71.72,31.64c.87.57,1.7,1.09,2.51,1.61ZM99.23,10.12,65.48,26.51a12,12,0,0,0,1.76,2l36.56-17.76C102.27,10.47,100.73,10.25,99.23,10.12ZM174.08,63.6,148.83,75.86a26.91,26.91,0,0,0,6.25-.21l18.31-8.89A6,6,0,0,0,174.08,63.6ZM138.52,31.87,105.74,47.79c.34.19.67.37,1,.57.54.32,1,.67,1.58,1l32.12-15.6C139.81,33.13,139.16,32.5,138.52,31.87ZM88.28,10.1A64.17,64.17,0,0,0,80,11.3L64.79,18.68A5.94,5.94,0,0,0,63.84,22Zm46.61,18.2c-.41-.4-.81-.81-1.22-1.2l-.72-.68L97.12,43.81c1.06.4,2.12.82,3.18,1.28Zm25.32,20.37c-.91-.57-1.78-1.09-2.59-1.57L125.94,62.47l2.18,1.77Zm12.17,10.42A18.66,18.66,0,0,0,170.79,57L139,72.45a20.4,20.4,0,0,0,2.72,1.5Zm-5.33-5.58q-1.09-.9-2.24-1.74L132.3,67.55c.75.58,1.49,1.16,2.25,1.73ZM146.21,39.12q-1-.91-2-1.83L113,52.44c.79.56,1.61,1.11,2.38,1.67Zm6.45,5c-.81-.55-1.52-1.14-2.29-1.72L119.63,57.38l2.2,1.76ZM83,49.19q-1.19-.68-2.55-1.4L49.79,73.33c.84.46,1.73.9,2.63,1.33Zm6.9,4.43q-1.06-.78-2.3-1.61l-30,24.93c1,.37,1.95.73,2.93,1.08ZM75.49,45.29c-.86-.41-1.78-.83-2.72-1.26L43.23,68.62a21.91,21.91,0,0,0,2.06,1.81Zm27.24,18c-.88-.52-1.67-1-2.41-1.52l-25.2,21,3.08,1ZM94,56.86,66.28,80l3,1h0L96.14,58.63ZM67.26,42c-1-.27-2.14-.5-3.4-.7l-25,20.81A15.38,15.38,0,0,0,40,64.63Zm-11-1a24.71,24.71,0,0,0-5.35.93L39.57,51.32a14.32,14.32,0,0,0-1.5,4.77Zm87,39.45c-.94-.39-1.87-.79-2.82-1.18L116.37,99.29c1,.36,2,.7,3,1ZM110.42,67.08c-.91-.42-1.83-.83-2.72-1.26L84,85.52c1,.32,2,.67,3,1Zm40.65,17a19.46,19.46,0,0,0-2.5-1.44L125.37,102c1.16.25,2.32.46,3.49.62Zm-16-7.06-2.9-1.1L108.32,95.82c.86.42,1.75.84,2.7,1.27Zm18.82,14.85a5.56,5.56,0,0,0,.35-3.81l-17.68,14.71a24.73,24.73,0,0,0,5.74-1.25Zm-27.21-18c-1-.37-1.91-.76-2.88-1.13l-23,19.17,2.56,1.39Zm-8.29-3.27c-1-.38-1.93-.74-2.87-1.13l-22.85,19c1,.36,1.88.78,2.83,1.16Z"/><path class="cls-10" d="M93.74,25.68c6.08,10.59,21.15,30.73,24.54,29.92,1.82-.44,2.11-.82-.82-4.79-7.21-9.78-11-12.29-19.52-27.93-2.23-4.12-4.44-9.27-1.64-9.12,7.63.42,25.32,8.65,33.81,13.79,2.95,1.78,14.41,11.61,15.19,10.67.86-.7-4.87-7.74-8.08-10.25-11.4-8.91-25.73-15-32.17-16.61-4.75-1.2-12.37-3.21-18.22-1.11-4.56,1.64-5.33,7.16-5.21,12,0,1.63,4.16,2.79,5.36,1,0,0,.85-5.22,2.19-7.15A46.12,46.12,0,0,0,93.74,25.68Z"/><path class="cls-10" d="M110.69,65.65c-3.19-4.08-22.22-16.92-26.84-19.48-5.43-3-8.34-5.3-16.23-5.87-5.77-.42-10.88,6.93-13,11.63-1,2.26,5,4.46,6.31,2.1l.6-1.07C72.82,72.31,86.44,85.4,95.61,89.41c1.23.54,3.23-1.5,2-2.42-8.6-6.31-17-13.39-23.31-22-2.92-4-8.56-12.83-6.09-18.16.71-1.53,3-2.52,6.44-1.28,7.83,2.86,32.52,19.87,36,22C112.25,68.5,111.6,66.82,110.69,65.65Z"/><path class="cls-11" d="M90.55,10.25C88,11.66,96,24.39,98.63,28.4,104,36.66,108.86,43.68,117,51.7c-3-3.27-9.13-11.65-9.89-12.7-.59-.81-10.75-15.89-13-21.87-.46-1.24-1-2.9-.08-4.06,1.34-1.69,5.16-.75,7.1-.44a55.8,55.8,0,0,1,7.65,1.85,94.46,94.46,0,0,1,10.48,4c2.24,1,4.45,2.08,6.64,3.2a58,58,0,0,1,7.45,4,93.36,93.36,0,0,0-26.1-13C97.52,9.82,91.37,9.8,90.55,10.25Z"/><path class="cls-11" d="M65.75,42.1c-4.76,3.76,2.16,16.42,4.56,20,2.51,3.73,16,19.57,22.44,23C90,82.41,67.74,63.48,66.92,50c-.22-3.64,1-6.75,5.26-6.22,6.1.75,15.43,4.67,33.77,18.23-4.34-3.81-22.12-16.65-29.16-19C68.73,40.23,66.73,41.33,65.75,42.1Z"/></g></g></g></svg>