<svg xmlns="http://www.w3.org/2000/svg" viewBox="0 0 242.79 201.68"><defs><style>.cls-1{isolation:isolate;}.cls-2{mix-blend-mode:multiply;}.cls-3{fill-opacity: 0.4; fill:#e6e7e8;}.cls-4{fill:#f99b1c;}.cls-5{fill:#008c84;}.cls-6{fill:#00a79d;}.cls-7{fill:#f1f2f2;}.cls-8{fill:#d74527;}</style></defs><title>icn_ball_pad</title><g class="cls-1"><g id="Слой_2" data-name="Слой 2"><g id="Layer_1" data-name="Layer 1"><g class="cls-2"><path class="cls-3" d="M202.78,85.22c-53.34-30.8-108.38-30.8-161.72,0h0c-26.67,15.4-40,31-40,46.69s13.33,31.29,40,46.69c53.34,30.8,108.38,30.8,161.72,0,26.67-15.4,40-31,40-46.69S229.45,100.61,202.78,85.22Z"/></g><path class="cls-4" d="M186.12,76.71c-49.21-28.41-100-28.41-149.21,0h0C12.3,90.92,0,105.35,0,119.79s12.3,28.87,36.91,43.07c49.21,28.41,100,28.41,149.21,0C210.72,148.65,223,134.22,223,119.79S210.72,90.92,186.12,76.71Z"/><path class="cls-5" d="M186.12,141.37c-49.21,28.41-100,28.41-149.21,0C12.3,127.16,0,112.73,0,98.29v21.49c0,14.43,12.3,28.87,36.91,43.07,49.21,28.41,100,28.41,149.21,0C210.72,148.65,223,134.22,223,119.79V98.29C223,112.73,210.72,127.16,186.12,141.37Z"/><path class="cls-6" d="M186.12,55.22c-49.21-28.41-100-28.41-149.21,0h0C12.3,69.43,0,83.86,0,98.29s12.3,28.87,36.91,43.07c49.21,28.41,100,28.41,149.21,0C210.72,127.16,223,112.73,223,98.29S210.72,69.43,186.12,55.22Z"/><path class="cls-5" d="M161.35,89.05c21,12.13,21,31.8,0,43.92s-55.07,12.13-76.08,0-21-31.8,0-43.92S140.34,76.92,161.35,89.05Z"/><circle class="cls-7" cx="112.28" cy="65" r="65"/><path class="cls-8" d="M177.28,65a64.91,64.91,0,0,1-2.11,16.17c-11.63-27.75-56.58-53.6-85-49.82,3.43,37.12,27.73,73.74,58.59,87.48a64.95,64.95,0,0,1-62.32,5.77c-15.76-23.1-12.29-72.19,3-93.26-22,14.75-36.92,42-34.65,63.82a64.59,64.59,0,0,1-4-50.84c7.58-8.54,26.21-14.86,38.85-13.71-7.75-12.51-9-20.24-9.12-22.24A64.65,64.65,0,0,1,112.28,0c2,0,3.89.12,5.8.29C110.35,3.2,95.74,10.4,90.2,30.45c8.7-7.22,46.94-18.14,71.07-8l.09.07A64.68,64.68,0,0,1,177.28,65Z"/></g></g></g></svg>