<svg xmlns="http://www.w3.org/2000/svg" xmlns:xlink="http://www.w3.org/1999/xlink" viewBox="0 0 242.73 203.73"><defs><style>.cls-1{isolation:isolate;}.cls-2{mix-blend-mode:multiply;}.cls-3{fill-opacity: 0.4; fill:#e6e7e8;}.cls-4{fill:#2596c7;}.cls-5{fill:#27aae1;}.cls-6{fill:#f9a11e;}.cls-7{fill:#754c29;}.cls-8{fill:#a97c50;}.cls-9{fill:url(#linear-gradient);}.cls-10{fill:#009444;}.cls-11{fill:#8dc63f;}.cls-12{fill:url(#linear-gradient-2);}.cls-13{fill:#a21d21;}.cls-14{fill:#d22026;}.cls-15{fill:#de5f25;}.cls-16{fill:#d74527;}.cls-17{fill:#dc8f1a;}</style><linearGradient id="linear-gradient" x1="-948.21" y1="1834.47" x2="-925.85" y2="1873.21" gradientTransform="matrix(0.5, 0.87, 0.87, -0.5, -1049.24, 1818.58)" gradientUnits="userSpaceOnUse"><stop offset="0" stop-color="#76c043"/><stop offset="0.22" stop-color="#70b942"/><stop offset="0.54" stop-color="#5fa741"/><stop offset="0.9" stop-color="#44893e"/><stop offset="1" stop-color="#3c803d"/></linearGradient><linearGradient id="linear-gradient-2" x1="407.7" y1="3482.85" x2="430.07" y2="3521.59" gradientTransform="translate(2905.64 2263.63) rotate(135)" xlink:href="#linear-gradient"/></defs><title>icn_humburger_pad</title><g class="cls-1"><g id="Слой_2" data-name="Слой 2"><g id="Layer_1" data-name="Layer 1"><g class="cls-2"><path class="cls-3" d="M202.74,87.29C149.41,56.5,94.38,56.5,41.05,87.29h0c-26.66,15.39-40,31-40,46.68s13.33,31.28,40,46.68c53.33,30.79,108.36,30.79,161.69,0,26.66-15.39,40-31,40-46.68S229.4,102.69,202.74,87.29Z"/></g><path class="cls-4" d="M186.08,143.43c-49.2,28.4-100,28.4-149.18,0C12.3,129.23,0,114.8,0,100.37v21.49c0,14.43,12.3,28.86,36.9,43.06,49.2,28.41,100,28.41,149.18,0,24.6-14.2,36.9-28.63,36.9-43.06V100.37C223,114.8,210.68,129.23,186.08,143.43Z"/><path class="cls-5" d="M186.08,57.3c-49.2-28.41-100-28.41-149.18,0h0C12.3,71.51,0,85.94,0,100.37s12.3,28.86,36.9,43.06c49.2,28.41,100,28.41,149.18,0,24.6-14.2,36.9-28.63,36.9-43.06S210.68,71.51,186.08,57.3Z"/><path class="cls-4" d="M160.12,84.46c23.37,13.49,23.37,35.37,0,48.87s-61.27,13.49-84.64,0S52.11,98,75.48,84.46,136.75,71,160.12,84.46Z"/><path class="cls-6" d="M143.14,98.08c-20,11.53-52.34,11.53-72.3,0-10-5.76-15-13.32-15-20.87V97c0,7.55,5,15.11,15,20.87,20,11.53,52.34,11.53,72.3,0,10-5.76,15-13.32,15-20.87V77.2C158.11,84.76,153.12,92.31,143.14,98.08Z"/><path class="cls-6" d="M143.14,98.08c-20,11.53-52.34,11.53-72.3,0-10-5.76-15-13.32-15-20.87s5-15.11,15-20.87c20-11.53,52.34-11.53,72.3,0,10,5.76,15,13.32,15,20.87S153.12,92.31,143.14,98.08Z"/><path class="cls-7" d="M145.74,94.31c-21.4,12.35-56.11,12.36-77.51,0C57.53,88.13,52.18,80,52.18,71.94V82.48c0,8.1,5.35,16.2,16.05,22.37,21.4,12.36,56.11,12.35,77.51,0,10.7-6.18,16.05-14.28,16.05-22.38V71.93C161.79,80,156.44,88.13,145.74,94.31Z"/><path class="cls-8" d="M145.74,94.31c-21.4,12.36-56.11,12.36-77.51,0C57.53,88.13,52.18,80,52.18,71.94s5.35-16.2,16.05-22.38c21.4-12.36,56.11-12.36,77.51,0,10.7,6.18,16.05,14.28,16.05,22.37S156.44,88.13,145.74,94.31Z"/><path class="cls-9" d="M110,75.1V68.65c-18.71,1.91-35,7.78-44.73,16.64v6.45C75.05,82.87,91.33,77,110,75.1Z"/><path class="cls-10" d="M107.74,82.42s.11-3.12,0-4.15c-1.82-16.76-47,4.92-47.88,17.65C74.14,100.6,107.74,100,107.74,82.42Z"/><path class="cls-11" d="M106.42,72.91a12.79,12.79,0,0,1,1.31,5.36c0,5.08-8.15,10.35-14,12.38-19.06,6.57-33.85,5.27-33.85,5.27A27.93,27.93,0,0,1,56,82.74c0-7.34,4.21-15.64,21.42-18.93C90.94,61.22,103.65,66.91,106.42,72.91Z"/><path class="cls-10" d="M110,68.65c-18.71,1.91-35,7.78-44.73,16.64,7.55-9.8,21.23-16.8,39.88-20.15Z"/><path class="cls-12" d="M112.74,72.69l1.67-6.23C132,73.15,146.18,83,153.31,94.11l-1.67,6.23C144.51,89.26,130.31,79.38,112.74,72.69Z"/><path class="cls-10" d="M113.06,80.36s.7-3,1.08-4c6.1-15.72,44.17,16.93,41.68,29.44C140.8,106.62,108.5,97.36,113.06,80.36Z"/><path class="cls-11" d="M116.79,71.51a12.8,12.8,0,0,0-2.66,4.84c-1.32,4.91,5.19,12.11,10.35,15.59,16.71,11.28,31.34,13.85,31.34,13.85A27.93,27.93,0,0,0,163,94.06c1.9-7.09,0-16.19-15.79-23.83C134.77,64.23,121,66.44,116.79,71.51Z"/><path class="cls-10" d="M114.41,66.46C132,73.15,146.18,83,153.31,94.11,148.55,82.7,137.14,72.39,120,64.33Z"/><path class="cls-13" d="M124,48.92c-9.33,5.39-24.46,5.39-33.8,0-4.67-2.69-7-6.22-7-9.76v4.6c0,3.53,2.33,7.06,7,9.76,9.33,5.39,24.47,5.39,33.8,0,4.67-2.7,7-6.23,7-9.76v-4.6C131,42.7,128.64,46.23,124,48.92Z"/><path class="cls-14" d="M124,48.92c-9.33,5.39-24.46,5.39-33.8,0-4.67-2.69-7-6.23-7-9.76s2.33-7.06,7-9.76c9.33-5.39,24.47-5.39,33.8,0,4.67,2.69,7,6.22,7,9.76S128.64,46.23,124,48.92Z"/><path class="cls-15" d="M155,64.76c-13.59,7.84-35.62,7.85-49.21,0C99,60.84,95.64,55.7,95.64,50.56v6.7c0,5.14,3.4,10.28,10.19,14.2,13.59,7.85,35.62,7.84,49.21,0,6.8-3.92,10.19-9.07,10.19-14.21V50.56C165.23,55.7,161.83,60.84,155,64.76Z"/><path class="cls-16" d="M155,64.76c-13.59,7.84-35.62,7.85-49.21,0C99,60.84,95.64,55.7,95.64,50.56S99,40.27,105.83,36.35c13.59-7.85,35.62-7.85,49.21,0,6.79,3.92,10.19,9.06,10.19,14.2S161.83,60.84,155,64.76Z"/><path class="cls-15" d="M89.54,68.8c-9.33,5.39-24.46,5.39-33.8,0-4.67-2.69-7-6.23-7-9.76v4.6c0,3.53,2.33,7.06,7,9.76,9.33,5.39,24.47,5.39,33.8,0,4.67-2.7,7-6.23,7-9.76V59C96.54,62.57,94.21,66.1,89.54,68.8Z"/><path class="cls-16" d="M89.54,68.8c-9.33,5.39-24.46,5.39-33.8,0-4.67-2.69-7-6.23-7-9.76s2.33-7.06,7-9.76c9.33-5.39,24.46-5.39,33.8,0,4.67,2.69,7,6.22,7,9.76S94.21,66.1,89.54,68.8Z"/><path class="cls-15" d="M127.74,88.41c-11.51,6.64-30.16,6.64-41.67,0-5.75-3.32-8.63-7.67-8.63-12v5.67c0,4.35,2.88,8.71,8.63,12,11.51,6.64,30.16,6.64,41.67,0,5.75-3.32,8.63-7.68,8.63-12V76.38C136.37,80.74,133.49,85.09,127.74,88.41Z"/><path class="cls-16" d="M127.74,88.41c-11.51,6.64-30.16,6.64-41.67,0-5.75-3.32-8.63-7.67-8.63-12s2.88-8.71,8.63-12c11.51-6.64,30.16-6.64,41.67,0,5.75,3.32,8.63,7.68,8.63,12S133.49,85.09,127.74,88.41Z"/><path class="cls-6" d="M158.11,51.12h0a51.13,51.13,0,0,0-102.25,0h0v4.44c0,16.31,22.89,29.52,51.13,29.52s51.13-13.22,51.13-29.52Z"/><path class="cls-17" d="M107,0S138,69.18,87.67,82.9c0,0,56.78,12.28,70.45-27.33C158.11,55.57,157.19,3.43,107,0Z"/><path class="cls-17" d="M114.41,114.12l-37,6.19s45.91,21.17,78.38-14.51l-10.08-.94S119,114.62,114.41,114.12Z"/></g></g></g></svg>