<svg xmlns="http://www.w3.org/2000/svg" viewBox="0 0 258.06 210.02"><defs><style>.cls-1{isolation:isolate;}.cls-2,.cls-9{mix-blend-mode:multiply;}.cls-3{fill-opacity: 0.4; fill:#e6e7e8;}.cls-4{fill:#0a6d38;}.cls-5{fill:#04834a;}.cls-6{fill:#ede3dc;}.cls-7{fill:#aee2fa;}.cls-8{fill:#62bc52;}.cls-9{fill:#cecac8;}</style></defs><title>icn_map_pad</title><g class="cls-1"><g id="Слой_2" data-name="Слой 2"><g id="Layer_1" data-name="Layer 1"><g class="cls-2"><path class="cls-3" d="M218.07,93.58c-53.33-30.79-108.36-30.79-161.69,0h0c-26.66,15.39-40,31-40,46.68s13.33,31.28,40,46.68c53.33,30.79,108.36,30.79,161.69,0,26.66-15.39,40-31,40-46.68S244.73,109,218.07,93.58Z"/></g><path class="cls-4" d="M201.4,149.72c-49.2,28.4-100,28.4-149.18,0-24.6-14.2-36.9-28.63-36.9-43.06v21.49c0,14.43,12.3,28.86,36.9,43.06,49.2,28.41,100,28.41,149.18,0,24.6-14.2,36.9-28.63,36.9-43.06V106.65C238.3,121.08,226,135.51,201.4,149.72Z"/><path class="cls-5" d="M201.4,63.59c-49.2-28.41-100-28.41-149.18,0h0c-24.6,14.2-36.9,28.63-36.9,43.06s12.3,28.86,36.9,43.06c49.2,28.41,100,28.41,149.18,0,24.6-14.2,36.9-28.63,36.9-43.06S226,77.79,201.4,63.59Z"/><polygon class="cls-4" points="229.13 112.81 151.9 157.61 33.16 89.06 110.39 44.26 229.13 112.81"/><polygon class="cls-6" points="0 48.55 35.81 87.16 95.58 104.31 143 149.05 227.1 100.5 179.68 55.76 119.91 38.61 84.1 0 0 48.55"/><path class="cls-7" d="M97.87,101.89a3.34,3.34,0,0,0-1.37-.78L37.63,84.21,5.29,49.35,83.46,4.22l34,36.66a3.33,3.33,0,0,0,1.53.94l59,16.93,43.57,41.11-78.07,45.07Z"/><path class="cls-8" d="M138.76,111.58c.06,0,.11,0,.09.09a.13.13,0,0,1-.08.05l-.62.15a1.39,1.39,0,0,1-1.15-.19.5.5,0,0,1-.12-.09,2.69,2.69,0,0,0-1.12-.71c-.25-.11-.47-.24-.7-.36a.7.7,0,0,0-.8,0c-.19.13-.34.28-.35.46s.1.21.29.23a8.6,8.6,0,0,1,1.93.53l0,0s0,.06,0,.07-.1.08-.13.07a8.41,8.41,0,0,1-1.93-.24,1.84,1.84,0,0,0-.35.65.37.37,0,0,1-.24.26c-.21.08-.14.24-.16.36s-.07.1-.17.09l-.92-.1c-.16,0-.23-.14-.14-.22s.22-.17.22-.28.16-.45.55-.58c.13,0,.09-.14-.05-.19a.56.56,0,0,0-.54.05.75.75,0,0,0-.19.2,1.92,1.92,0,0,1-1.19.65.61.61,0,0,1-.5,0c-.15-.1-.19-.25-.07-.36a2.29,2.29,0,0,1,.31-.21l.61-.36c.1-.06.12-.13.07-.21-.16-.26-.14-.31.2-.46a2.35,2.35,0,0,1,.47-.15,13.52,13.52,0,0,1,1.33-.28,1.89,1.89,0,0,0,.58-.2,3.44,3.44,0,0,1,.84-.25,1.55,1.55,0,0,1,1.26.23l.87.7c.11.08.22.16.32.25a.83.83,0,0,0,.55.19c.25,0,.49,0,.73.07Zm-3.07,24a6.18,6.18,0,0,0,1-.31,5.9,5.9,0,0,0,2.36-1.73.9.9,0,0,0,.25-1,.76.76,0,0,1,0-.23.89.89,0,0,1,.43-1c.11-.07.09-.15,0-.21-.47-.24-.44-.49-.09-.75l0,0a.73.73,0,0,0,.22-1,5.92,5.92,0,0,1-.33-.64.53.53,0,0,1,.1-.61c.23-.27.41-.55.61-.83a3.22,3.22,0,0,1,.63-.65,3.83,3.83,0,0,0,.46-.43.24.24,0,0,0,0-.37,3.54,3.54,0,0,0-.28-.31c-.22-.18-.17-.34.08-.49a2,2,0,0,0,.54-.45,5.74,5.74,0,0,1,.82-1s0-.11-.14-.1l-.4,0a5.17,5.17,0,0,1-.52.08,1.36,1.36,0,0,0-.75.22c-.43.26-.9.52-1.33.78a8.4,8.4,0,0,1-1.8.75,3.85,3.85,0,0,1-.56.13c-.64.1-1.19,0-1.14-.5v0a.76.76,0,0,0-.25-.68c-.22-.26-.41-.52-.63-.78s-.2-.29,0-.44a.19.19,0,0,0,0-.3l-.06-.07c-.14-.19-.14-.19.17-.3s.44-.14.63-.23a1.43,1.43,0,0,1,1.06-.1h.13c.25,0,.44-.07.48-.22s-.07-.43-.5-.53a2.1,2.1,0,0,1-.92-.44,3.19,3.19,0,0,1-.58-.62l-.37-.55a.36.36,0,0,0-.1-.1.19.19,0,0,0-.11,0c-.09.06-.07.15-.09.22s.06.17-.12.2a.65.65,0,0,1-.37-.08l-.6-.25a4.29,4.29,0,0,0-.78-.23,1,1,0,0,0-.64,0,2,2,0,0,1-.57.12,1.71,1.71,0,0,0-.8.27c-.25.16-.27.15-.47,0a.74.74,0,0,0-.2-.15,2.17,2.17,0,0,1-.44-.16c-.12-.11.13-.21.14-.32s0-.08,0-.12c0-.27-.14-.46-.57-.55a4.28,4.28,0,0,0-.46-.07,2.17,2.17,0,0,1-.63-.13.82.82,0,0,0-.67,0,1.77,1.77,0,0,1-.39.07,3.86,3.86,0,0,0-.89.18c-.18.06-.24,0-.36-.09s-.06-.13-.2-.17l-.22.06c-.2.05-.35.23-.57.18s-.06-.23-.09-.35-.1-.11-.23-.11a1.12,1.12,0,0,0-.5.1c-.19.09-.39.18-.56.28a1.51,1.51,0,0,1-.79.18,5.41,5.41,0,0,1-.93-.08l-1-.2a12.21,12.21,0,0,1-2.43-.84,3.79,3.79,0,0,0-1.87-.37,5.5,5.5,0,0,1-1.2-.08c-.14,0-.21-.07-.23-.17s-.17-.15-.32-.13a1,1,0,0,0-.38.15l-.41.24,20.15,19a4.9,4.9,0,0,0,.68-.13C135.16,135.86,135.33,135.63,135.69,135.55Zm.43-21.51a.33.33,0,0,0,0,.38.35.35,0,0,0,.08.06c.16.07.58,0,.64-.1s0,0,0,0a.42.42,0,0,0-.29-.38A.38.38,0,0,0,136.13,114Zm-5.35.69a2.07,2.07,0,0,1-1.31-.65l-.27-.23a1.05,1.05,0,0,0-.41-.19.43.43,0,0,0-.31,0c-.1,0-.11.11-.08.18a.3.3,0,0,0,.12.13c.36.21.71.43,1.11.63A1.71,1.71,0,0,0,130.78,114.73Zm.32,1.4a.59.59,0,0,1,.59,0,4.7,4.7,0,0,0,1.08.31c.17,0,.41.09.51,0s-.15-.19-.26-.28l-.11-.06a3.19,3.19,0,0,0-.85-.36,1,1,0,0,0-.45-.05,1.05,1.05,0,0,1-.57-.06,2.84,2.84,0,0,0-.43-.11,1.05,1.05,0,0,0-.74.12.15.15,0,0,0,0,.28A2.57,2.57,0,0,0,131.09,116.13Zm-17.39-24a8.15,8.15,0,0,0,.09-1,11.11,11.11,0,0,1-1.48.58,3.55,3.55,0,0,0-.84.39c-.28.19-.33.42-.15.62a1.28,1.28,0,0,0,1,.23C113.05,92.85,113.61,92.54,113.7,92.11Zm27.75,6.42-.57-.12-.91-.15c-.3-.05-.3-.06-.5.08l-.17.12c-.21.18-.18.38.13.56a2.53,2.53,0,0,0,.36.1,4.63,4.63,0,0,0,1.53,0,1,1,0,0,0,.23-.07C141.82,98.92,141.87,98.6,141.46,98.53ZM97.9,79.87l-.34-.12a.23.23,0,0,0-.23,0,.08.08,0,0,0,0,.11c.18.18.36.21.81.13A2.4,2.4,0,0,0,97.9,79.87Zm40.92,26.31a.09.09,0,0,0,.06.07,2.82,2.82,0,0,0,.91.1c.25,0,.49-.08.72-.08s.52.07.79.07.21,0,.24-.1l.1-.24a4.26,4.26,0,0,1-1.69.08h-.67a2.65,2.65,0,0,0-.39.06S138.82,106.16,138.82,106.18Zm12.92,18.18a10.19,10.19,0,0,1-1.55-.68.27.27,0,0,0-.12,0c-.07,0-.13,0-.14.06a.17.17,0,0,0,0,.11l.31.55a.68.68,0,0,0,.31.25,8.39,8.39,0,0,0,1.28.34.27.27,0,0,0,.13,0,2.55,2.55,0,0,1,.8,0,1,1,0,0,0,.53-.15,1,1,0,0,0,.13-.13.12.12,0,0,0,0-.19.46.46,0,0,0-.36-.06l-.44.1a1,1,0,0,1-.58,0Zm.29-23.77a4.08,4.08,0,0,0-2,.59c-.2.14-.24.24-.13.35a.74.74,0,0,0,.57.17l.33,0a5.26,5.26,0,0,0,1.46-.45l.2-.12c.17-.11.34-.23.22-.38S152.28,100.57,152,100.59Zm2.06,25.67a.79.79,0,0,1-.13.49c0,.06.16.14.28.11s.17-.05.18-.1a1.06,1.06,0,0,0,0-.7C154.11,126.2,154.09,126.2,154.1,126.26Zm-9.92-20.89a.33.33,0,0,0,.23.13c.36.06.43.2.37.39a.25.25,0,0,0,0,.19s.1.08.2,0l.17-.06c.21.33.21.33.17.79,0,0,.12.09.19.07s.24-.08.19-.18-.05-.28.18-.38,0-.11-.06-.12c-.28,0-.24-.14-.2-.27s.05-.3-.42-.38c-.11,0-.15,0-.15-.1a.85.85,0,0,1,.35-.58,1.46,1.46,0,0,1,.79-.19,1.17,1.17,0,0,0,.83-.35l.51-.59c.06-.07,0-.11-.1-.14-.31-.06-.31-.07-.28-.22a.63.63,0,0,0,0-.15c0-.09-.2-.16-.35-.13a1.28,1.28,0,0,0-.29.09,2.16,2.16,0,0,0-.48.33,1.64,1.64,0,0,1-1,.4,1.37,1.37,0,0,0-.76.36c-.17.11-.06.25-.06.37s.28.15.37.26l-.17.06C144.15,105.09,144.07,105.2,144.18,105.37Zm9.55,19.6a.31.31,0,0,0,.33,0c.17-.08.27-.18.2-.31a1.11,1.11,0,0,1-.09-.57,1.27,1.27,0,0,0-.07-.34.62.62,0,0,0-.11-.18.16.16,0,0,0-.1,0c-.08,0-.07.05-.07.09a.06.06,0,0,0,0,0,.71.71,0,0,1-.12,1C153.62,124.79,153.64,124.88,153.73,125Zm-33.8-23.69a.28.28,0,0,0-.11,0,.46.46,0,0,0-.13.41c0,.05,0,.1.14.11a.14.14,0,0,0,.13-.07.53.53,0,0,0,.08-.38s0,0-.06-.06Zm7.57,13.25a.48.48,0,0,0,.52.05s.06-.05.06-.09a3.12,3.12,0,0,0,0-.38.13.13,0,0,0-.06-.1,1.75,1.75,0,0,0-.49-.26c-.14,0-.34,0-.35.11a.22.22,0,0,0,.12.21c.16.1.26.2.14.35S127.47,114.49,127.5,114.53Zm-1.62-2.07c.2,0,.31.09.34.23s.3.35.65.41a.93.93,0,0,1,.61.27c.06.09.19.08.33,0s.22-.16.06-.26a.73.73,0,0,0-.29-.15,1.49,1.49,0,0,1-.73-.32c-.12-.07-.31-.1-.44-.17s0-.2-.12-.29a.63.63,0,0,0-.13-.08.25.25,0,0,0-.12,0c-.16,0-.26.1-.28.2S125.77,112.44,125.88,112.46Zm-2.76-7.13c-.08,0-.14.08-.08.13a.37.37,0,0,1,.09.51c-.09.13,0,.28.18.39a.33.33,0,0,0,.18,0,.23.23,0,0,0,.14-.08.11.11,0,0,0,0-.11.43.43,0,0,1,.09-.49,1,1,0,0,0,.12-.18s0-.07,0-.11A1.19,1.19,0,0,0,123.12,105.34Zm10.83,14.06a.26.26,0,0,0,.13,0,.41.41,0,0,0,.28-.16c0-.05,0-.1-.1-.14a2.8,2.8,0,0,0-.95-.35A1,1,0,0,0,133.94,119.39Zm-14.53-16.6a.35.35,0,0,0,0-.15s-.05,0-.08-.06a.42.42,0,0,0-.12,0,.41.41,0,0,0-.16.12c-.07.15-.19.3,0,.44S119.32,103.06,119.42,102.79Zm25.2,4.07c.14.11.14.24.17.36s.06,0,.09,0h.06a.34.34,0,0,0,.08-.06.46.46,0,0,0,0-.38c0-.06-.08-.12-.22-.12S144.56,106.82,144.62,106.86Zm-.08-1s0,0,0,0l0,0s-.05,0,0,0ZM139,115.4c-.16-.3-.63-.46-1-.68a.67.67,0,0,0-.42-.09c-.1,0-.16,0-.14.1a.62.62,0,0,0,.32.29,2.21,2.21,0,0,1,.92.75.37.37,0,0,0,.24.18,1,1,0,0,0,.18,0s.07,0,.07-.07C139.26,115.71,139.38,115.52,139,115.4Zm-12.7-8.15a1.44,1.44,0,0,0-.27.23c-.22.24-.17.42.17.59.15.08.33.13.49.19,0,0,0,.06,0,.08-.23.34-.19.42.4.49a.84.84,0,0,1,.67.34l.18.3a.35.35,0,0,1,.06.38c-.08.16.07.28.36.32a2.74,2.74,0,0,0,1.42,0,1.11,1.11,0,0,1,.19,0c.25,0,.45-.11.53-.27s.22-.16.41-.17a1.57,1.57,0,0,1,.47,0,.92.92,0,0,0,.5-.06l1.15-.33a.74.74,0,0,1,.62.05l.35.18a.39.39,0,0,0,.26,0c.09,0,.13-.07.11-.13-.17-.4.05-.77.26-1.14.12-.22.43-.28.71-.37a1,1,0,0,1,.51,0c.19,0,.37.11.56,0a.29.29,0,0,1,.24,0l.3.09c.19,0,.36,0,.36-.15a.39.39,0,0,0-.14-.26l-.25-.23c-.13-.13-.13-.24.05-.35a1.68,1.68,0,0,0,.31-.25c.07-.07,0-.15,0-.22a.84.84,0,0,0-.44-.17,3.21,3.21,0,0,0-.61,0,10.85,10.85,0,0,0-1.25.16,1,1,0,0,1-.57,0l-.22-.09a1.29,1.29,0,0,0-.75-.13,1.6,1.6,0,0,1-.34,0,2.31,2.31,0,0,0-.79,0,1.52,1.52,0,0,1-1.07-.1,2.4,2.4,0,0,0-.23-.08,1.47,1.47,0,0,0-.84-.05l-.57.13a1.38,1.38,0,0,1-1.15-.16,3.92,3.92,0,0,0-.47-.28.58.58,0,0,0-.64.05,6.32,6.32,0,0,0-.46.48c-.11.12-.18.24,0,.37s0,.15,0,.22A2.49,2.49,0,0,1,126.33,107.25Zm22.36,15c0,.13-.07.26-.1.39a.48.48,0,0,0,.31.57.76.76,0,0,1,.21.15c.09.1.07.2-.06.29a.51.51,0,0,1-.42.07l-.32-.05c-.07,0-.14,0-.16.06a.86.86,0,0,0-.07.27,1,1,0,0,1-.22.68.31.31,0,0,0,.06.48.27.27,0,0,1,.11.33.1.1,0,0,0,0,.11.33.33,0,0,1,.16.44c0,.11.21.16.25.27s-.06,0-.09.05c-.66.06-.68.06-.85-.32a.76.76,0,0,0-.37-.32,1.32,1.32,0,0,1-.59-.51c-.09-.16-.17-.32-.06-.5a.18.18,0,0,0,0-.15,1.94,1.94,0,0,1,0-.62,2.76,2.76,0,0,0-.07-.54.9.9,0,0,0-.35-.46,1.31,1.31,0,0,0-.93-.25,2.92,2.92,0,0,0-.89.14.71.71,0,0,1-.81-.07l-.48-.27a.69.69,0,0,1-.43-.55,2.39,2.39,0,0,0,0-.35.68.68,0,0,0-.6-.48,2.59,2.59,0,0,1-.83-.39c-.1-.06-.16-.13-.1-.21a.46.46,0,0,1,.39-.13l.63.06c.1-.1.19-.22.31-.32s.25-.19.37-.28a.31.31,0,0,0,.1-.41,2.31,2.31,0,0,0-.72-1,5.84,5.84,0,0,0-.54-.4c-.19-.12-.3-.26-.28-.42a.55.55,0,0,0,0-.12c0-.27,0-.29-.53-.36a.76.76,0,0,1-.34-.11c-.08-.06-.1-.12-.06-.18a.17.17,0,0,1,.06-.07c.3-.17.35-.35.16-.56,0,0,0,0,0-.07s.12,0,.18,0l.58.2a.36.36,0,0,0,.24,0A1,1,0,0,1,141,116c-.06-.07-.12-.15-.07-.22s0-.31-.11-.45a.75.75,0,0,1-.12-.18c0-.06,0-.13.09-.18a.41.41,0,0,1,.31,0,4.67,4.67,0,0,0,1.08.21.89.89,0,0,1,.69.33c.14.23.27.47.41.7,0,.06,0,.1-.09.14l-.61.37c-.1.06-.17.14-.09.21s.1.25.07.38a.5.5,0,0,0,0,.19.23.23,0,0,0,.27.15,5,5,0,0,1,1.7.15,4.4,4.4,0,0,0,.67,0,.66.66,0,0,1,.52.21.8.8,0,0,1,.24.48.34.34,0,0,0,.25.35,1.2,1.2,0,0,1,.68.7,2.87,2.87,0,0,0,1,1.13.68.68,0,0,1,.28.31,2.56,2.56,0,0,0,.4.85A.49.49,0,0,1,148.69,122.27Zm-6.94-5.84s0,0,0-.05l-.14-.07a.6.6,0,0,0,.09.09Zm-2.18,2.19a1.49,1.49,0,0,1,.65-.18.59.59,0,0,0,.16-.06.37.37,0,0,0,.07-.11.11.11,0,0,0,0-.11.19.19,0,0,0-.18,0,2,2,0,0,1-.78.19.3.3,0,0,0-.12,0c-.11.05-.15.12-.1.21A.3.3,0,0,0,139.58,118.62Zm4.17-13.31s-.11,0-.12.07a3.52,3.52,0,0,0-.15.53c0,.17.16.23.42.15s.34-.18.29-.31a.92.92,0,0,0-.31-.41C143.82,105.33,143.76,105.3,143.74,105.31ZM124.58,107c.12-.06.08-.19-.11-.3a.3.3,0,0,0-.29,0c-.18.1-.22.23-.09.31A.63.63,0,0,0,124.58,107ZM141,112.43a.55.55,0,0,0-.19,0,.91.91,0,0,0-.61.34,1.73,1.73,0,0,1-.63.54c-.12.07-.18.15-.17.24s0,.08.1.08a.15.15,0,0,0,.09,0c.08-.09,0-.21.2-.28s.27.09.4.13.3.06.35-.06.19-.19.43-.18.18,0,.13-.1a.41.41,0,0,1,0-.56S141.09,112.45,141,112.43Zm1.6-4.72a.69.69,0,0,0,0,.23c0,.09,0,.2.18.22s.21-.07.28-.14a.21.21,0,0,1,.3,0s0,.05,0,.08c.11.19.22.24.53.2l.37-.06-.23-.16a.42.42,0,0,0-.33,0h0s0,0,0,0a.22.22,0,0,1,.16-.12l.44-.1c.14,0,.16-.13,0-.19a.73.73,0,0,1-.27-.16c-.14-.15-.23-.15-.49-.1a3.36,3.36,0,0,1-.62.15C142.69,107.55,142.64,107.59,142.61,107.71Zm-1.2.43a1.54,1.54,0,0,0-.57.2,2.47,2.47,0,0,1-.56.33c-.07,0-.12.08,0,.13a.31.31,0,0,0,.25,0l.54-.16c.29-.09.29-.09.55.1a.79.79,0,0,0,.5.16c.13,0,.18.14.07.19s-.2.06-.29.1c-.44.22-.52.51-.2.8a1.1,1.1,0,0,1,.16.21.41.41,0,0,0,.45.08.38.38,0,0,0,.27-.21.94.94,0,0,1,.06-.19c0-.06.13-.07.22-.07s.15,0,.14.11-.2.24-.1.38l.69-.12a.78.78,0,0,0,.38-.16,5.33,5.33,0,0,0,.9-1,.32.32,0,0,0,0-.34.2.2,0,0,0-.29-.06,1,1,0,0,1-.85.06,1.53,1.53,0,0,0-.33,0,2.66,2.66,0,0,1-.53,0c-.1-.08,0-.15,0-.23s-.1-.22-.28-.24A10.78,10.78,0,0,1,141.41,108.14Zm-18.82.85a1.16,1.16,0,0,1-.31-.51,1.75,1.75,0,0,0-.22-.53.7.7,0,0,0-.4-.3,1.12,1.12,0,0,1-.56-.26.46.46,0,0,0-.23-.07,3,3,0,0,0-.88,0,.7.7,0,0,1,.25.68c0,.19.12.33.37.43a1.57,1.57,0,0,1,.53.35,4.14,4.14,0,0,0,.86.65c.18.11.32.22.33.37s.14.27.33.37a7.15,7.15,0,0,1,1.9,1.41.24.24,0,0,0,.27.07c.1,0,.17,0,.21.05l.09.15c.07.13.24.14.43.14s.25-.06.23-.15a.54.54,0,0,0-.37-.4c-.11,0-.26-.11-.23-.18.08-.23-.2-.36-.4-.51s-.24-.18-.2-.32l.59.2s.09,0,.11,0,0-.05,0-.06a3.3,3.3,0,0,0-.41-.2,1,1,0,0,1-.68-.6c-.08-.31-.33-.53-1-.53A.86.86,0,0,1,122.59,109Zm20.75-2.34-.16.11c-.14.12-.38.21-.37.38a2.73,2.73,0,0,0,.83.12l.2,0c.23,0,.34-.13.27-.26a3.1,3.1,0,0,0-.22-.32c-.12-.17-.25-.18-.49,0ZM120,105.4a1.43,1.43,0,0,1,0,.93,1.29,1.29,0,0,0,0,.23c0,.11.07.2.23.26s.23.09.35.12a.67.67,0,0,0,.55-.06,1.29,1.29,0,0,1,.75-.3.4.4,0,0,0,.16-.07l.76-.44c.14-.08.18-.18.16-.29s-.07-.15-.08-.23c0-.28-.14-.57.19-.83.1-.08,0-.14,0-.21s-.12-.22.18-.36l.17-.06c.05,0,.13-.09.1-.14s0-.3.08-.44a.31.31,0,0,0,0-.27,1.71,1.71,0,0,0-.25-.32,1.45,1.45,0,0,1-.43-1.05c0-.21,0-.42,0-.62s0-.3-.1-.42a.38.38,0,0,1-.08-.52c.22-.41.1-.77-.5-1.06-.24-.12-.46-.25-.5-.45,0,0-.07-.09-.13-.14a.31.31,0,0,0-.42,0,1.4,1.4,0,0,0-.33.63.34.34,0,0,0,.18.44c.2.12.21.25.11.4s-.11.2-.17.3a.48.48,0,0,0,0,.64c.16.2.11.4-.09.6a4.65,4.65,0,0,0-.33.39.22.22,0,0,0,0,.33c.07.06.12.13.09.22a2.9,2.9,0,0,1-.32.8A2.07,2.07,0,0,0,120,105.4Zm24.32,2.86h0Zm.68-.16c.18,0,.3.11.5.07s.22-.18.31-.28l.08-.06c.29-.32.3-.4-.16-.68a.25.25,0,0,0-.24,0,.14.14,0,0,0-.08.1c0,.13,0,.26,0,.39s-.14.13-.28.09l-.17-.07c-.11,0-.24,0-.27.06s-.06.1,0,.15,0,.2-.17.27a.55.55,0,0,0-.16.15c.14,0,.21.13.39.14S144.78,108.17,145,108.1Zm-.68.16v0h0ZM93.37,35.68s0-.07,0-.1a1.42,1.42,0,0,0-.59-.15.37.37,0,0,0-.3.13.1.1,0,0,0,0,.17A1,1,0,0,0,93.37,35.68Zm-2.7,3c.07,0,.12-.08.06-.13a.44.44,0,0,0-.41,0c-.06,0-.06.09,0,.13A.31.31,0,0,0,90.67,38.7Zm-4.32-1.29-.54,0c-.16,0-.32,0-.47,0-.67.1-.9.52-.45.83a1.45,1.45,0,0,0,.75.24l.47,0a1.76,1.76,0,0,1,.79.19l.25.13a.8.8,0,0,0,.92-.06,7.21,7.21,0,0,1,.8-.53.75.75,0,0,1,.65-.1.56.56,0,0,0,.52-.11c.45-.34.4-.7-.12-1a2.16,2.16,0,0,0-1.1-.34.65.65,0,0,0-.51.14c-.16.15-.18.14-.41.09a2.77,2.77,0,0,1-.57-.2.55.55,0,0,0-.58.06.35.35,0,0,0-.1.38C86.68,37.34,86.63,37.38,86.35,37.41ZM83.5,48.84c0-.07,0-.13-.12-.16a.77.77,0,0,0-.38,0s-.05,0,0,.07a.46.46,0,0,0,.07.19.3.3,0,0,0,.27.09A.21.21,0,0,0,83.5,48.84ZM50.78,23.41s0,.1,0,.15.18.29.5.25.78-.27.81-.55c0-.06-.08-.05-.13-.07s-.14-.06-.13-.12.08-.21.39-.25.31,0,.17-.18,0-.1.08-.13l.34-.19c.11-.06.13-.12,0-.2L52.61,22l-1.67,1s0,0,0,0C50.75,23.13,50.65,23.25,50.78,23.41ZM95.3,37.92c.36-.12.38-.18.11-.35l-.48-.28L94.36,37c-.09-.06,0-.17.13-.18h.27l.46.06c.28,0,.48-.14.37-.28a.51.51,0,0,0-.15-.13L95,36.15a1.11,1.11,0,0,0-.92-.08.94.94,0,0,1-.5.09.75.75,0,0,0-.7.16c0-.13,0-.24-.22-.3a.39.39,0,0,0-.24,0,.19.19,0,0,0-.14.13c0,.09,0,.18.07.26s.11.18-.22.27-.29.08-.22.26,0,.19-.2.24a1,1,0,0,0-.45.23s0,.08,0,.1a.2.2,0,0,0,.18,0c.1-.05.2-.12.33,0s.15.15,0,.24a1,1,0,0,1-.59.24L91,38c-.26.06-.31.18-.15.31a3.23,3.23,0,0,0,.7.3c.16.07.14.11,0,.18-.34.17-.34.19-.12.42l0,0c.11.11,0,.23-.18.28a1.06,1.06,0,0,1-.4,0,4,4,0,0,1-.85-.24c-.23-.09-.3-.08-.41.06s-.1.14-.17.21-.28.2-.6.18l-.46-.05a1.74,1.74,0,0,0-.33,0c-.09,0-.16.06-.17.11s0,.11.11.13c.29,0,.38.16.42.31s.25.33.58.39l.06,0c.06,0,.08,0,0,.06a.21.21,0,0,1-.11,0,.85.85,0,0,1-.42-.12,1.66,1.66,0,0,0-1-.21l-.74,0-.4,0c-.07,0-.11,0-.1.09a.09.09,0,0,0,.06.07,3.64,3.64,0,0,1,.88.27.76.76,0,0,0,.26,0c.39,0,.5,0,.65.18a1.23,1.23,0,0,0,.63.39,7.3,7.3,0,0,1,1.62.76l.29.16a2,2,0,0,0,.87.19c.35,0,.42-.06.25-.26,0,0-.1-.09-.07-.14a1.37,1.37,0,0,1,.46,0h.47c.33,0,.63-.07.75-.27s0-.36-.26-.49l-.34-.15c.16,0,.3-.1.32-.2a.87.87,0,0,1,.32-.46.35.35,0,0,0,.11-.34,1.64,1.64,0,0,0-.08-.35.69.69,0,0,1,.16-.83.48.48,0,0,0,.08-.11c.13-.2.11-.38-.17-.54-.08,0-.17-.08-.19-.15a4.28,4.28,0,0,1,1.15-.2A2.91,2.91,0,0,0,95.3,37.92Zm.6-10.4s0,0,.06-.06a.55.55,0,0,0-.26-.12c-.34-.1-.61-.22-.5-.48,0-.09-.17-.18-.36-.17a1.15,1.15,0,0,1-.26,0,8.57,8.57,0,0,1-.9-.34c-.32-.15-.48-.41-1-.46-.12-.17-.42-.23-.65-.32a.75.75,0,0,1-.2-.1c-.07-.06-.07-.16-.16-.21s-.21.07-.34.07c-.39,0-.63-.18-.5-.4s.2-.23.28-.35,0-.21-.21-.25l-.19,0a1.68,1.68,0,0,1-.9-.19.29.29,0,0,0-.13,0c-.09,0-.1.05-.09.09a.56.56,0,0,0,.07.23,4.76,4.76,0,0,0,.31.39l.23.24a.05.05,0,0,1,0,.07.21.21,0,0,1-.12,0l-.24-.07-.93-.37c-.07,0-.09.08-.05.1a2.43,2.43,0,0,0,.36.23c.54.27.44.27-.12.49-.13,0-.28.08-.45.12A1.44,1.44,0,0,1,89,26a3.7,3.7,0,0,0,1.18,1.39,4.92,4.92,0,0,0,2.5,1.07c.26,0,.51.11.76.17a5.84,5.84,0,0,0,1.66.13c.41,0,.6-.15.57-.39a2.14,2.14,0,0,0-.13-.38C95.46,27.8,95.52,27.62,95.9,27.52ZM108.65,45.6s0,0,0,.07l0,0a2.06,2.06,0,0,0,.72-.06l.52-.15a.48.48,0,0,0-.35-.13A1.64,1.64,0,0,0,108.65,45.6ZM102,43.82c.11-.12,0-.2-.15-.29a.36.36,0,0,0-.32-.06c-.24.08-.33.22-.23.36s.13.14.18.21a.17.17,0,0,0,.18.09.28.28,0,0,0,.2-.09A2.19,2.19,0,0,1,102,43.82ZM98.42,20.34l-1.05-1.13,0,.11a1,1,0,0,0,.23.88A.74.74,0,0,0,98.42,20.34ZM110,45.47h0ZM147.58,50c.26.17.28.27.07.45l-.25.19c-.15.13-.14.21.06.31s.46.17.44.36.12.11.2.15l.72.41h0l.77.44a.17.17,0,0,0,.26-.08c0-.11,0-.2-.08-.31a1.89,1.89,0,0,1-.15-.7.72.72,0,0,1,.38-.54l-2.45-.7ZM88.33,53.16c-.11,0-.28.06-.26.13a.19.19,0,0,0,.05.11,1.15,1.15,0,0,1,.38.66,3.52,3.52,0,0,0,.26.52.29.29,0,0,0,.25.11.4.4,0,0,0,.28-.09l0,0c.06-.16.25-.24.51-.28l.18-.05c.17-.05.18-.14,0-.21a2.07,2.07,0,0,0-.35-.11,1,1,0,0,1-.66-.36,2.65,2.65,0,0,0-.28-.28Zm61.54-.08a.33.33,0,0,0-.05.15c0,.26.16.48.48.68a.35.35,0,0,0,.5-.08c.14-.32,0-.59-.39-.82A.43.43,0,0,0,149.87,53.08Zm-8.52-3.3c-.19.06-.25.2-.14.3a1.61,1.61,0,0,0,.17.13,3.3,3.3,0,0,0,1.37.35c.19,0,.43-.12.39-.21a4.33,4.33,0,0,0-.27-.52.35.35,0,0,0-.28-.16A3.18,3.18,0,0,0,141.35,49.79Zm14.39,80.79c-.16.1-.19.22-.12.35a.17.17,0,0,0,.2,0c.21-.1.24-.26.08-.41S155.78,130.55,155.74,130.58ZM100.19,62.72a.68.68,0,0,0,.32,0,1.15,1.15,0,0,1,.64,0,.38.38,0,0,0,.12,0s0-.06,0-.07a8.5,8.5,0,0,0-1.63-.46c-.1,0-.17,0-.18.08s0,.21.18.28A5.71,5.71,0,0,0,100.19,62.72ZM89.89,49.95a.24.24,0,0,0,.16-.28,3.31,3.31,0,0,1-.77-.11c-.14.15-.29.29-.42.44a.6.6,0,0,0-.11.22s0,.07.08.1a.22.22,0,0,0,.13,0C89.27,50.19,89.59,50.08,89.89,49.95Zm-1.71.35H88c-.37,0-.4,0-.46.17s-.22.27-.49.33a1,1,0,0,0-.5.25c-.17.17-.08.3.24.36a1.73,1.73,0,0,0,1.35-.24,1.1,1.1,0,0,0,.52-.43C88.81,50.5,88.6,50.32,88.18,50.3Zm7.09,9.36a3.51,3.51,0,0,0-.9-.72.51.51,0,0,0-.4-.08,3.82,3.82,0,0,0,.95.77A.33.33,0,0,0,95.27,59.65Zm66.79-4.53a1.54,1.54,0,0,0-.6.16c-.15.07-.15.14,0,.23a1.85,1.85,0,0,0,.5.18c.17.05.36.16.54.08s.07-.22.09-.33a.2.2,0,0,0,0-.11C162.5,55.19,162.31,55.11,162.06,55.12Zm5.1,46.35a1.66,1.66,0,0,0-.83-.08c-.26,0-.12.2-.23.3l-.07.07c-.1.14,0,.27.28.27a4.53,4.53,0,0,0,.46,0c.29,0,.29,0,.46.13a.54.54,0,0,0,.55.13,1.17,1.17,0,0,0,.49-.2c.12-.09.14-.2,0-.28a4,4,0,0,0-.39-.19l-.09,0A1.4,1.4,0,0,1,167.16,101.47Zm-3.42-.2c-.42.07-.55.19-.45.43s.22.24.53.21a4.47,4.47,0,0,0,.93-.23.83.83,0,0,1,.56-.08s.12,0,.08,0c.17-.06.21-.1.23-.16s0-.16.06-.23.08-.14,0-.22-.13-.17-.2-.25a.45.45,0,0,0-.29-.15,4.94,4.94,0,0,0-1-.07c-.14,0-.25.05-.29.14s0,.16.1.21l.23.08c.19.08.16.17,0,.24A2.63,2.63,0,0,1,163.73,101.28Zm8.28.35-1.46.13a1.06,1.06,0,0,1-.67-.13c-.38-.22-.78-.43-1.15-.66a2.46,2.46,0,0,0-1.46-.33,5,5,0,0,1-1.33-.08.18.18,0,0,0-.17,0s0,.08,0,.11a3.51,3.51,0,0,0,1.18.51l.62.15c.15,0,.26.1.29.2h0a4.26,4.26,0,0,0,.43,0,.51.51,0,0,1,.42.16,1.92,1.92,0,0,1,.16.21c.1.15.11.18-.13.25s-.38.23-.33.42.07.13.26.12a3.11,3.11,0,0,1,1.24,0c.09,0,.09-.08.12-.13a.74.74,0,0,1,.12-.14.23.23,0,0,1,.12,0c.08,0,.13,0,.14.07a1.08,1.08,0,0,0,0,.31.74.74,0,0,0,.67.34c.18,0,.39,0,.47.12s.21.15.42.12a1.68,1.68,0,0,1,.33,0c.18,0,.2,0,.2.2s0,.11.14.11h.61c.2,0,.33,0,.43-.13a1,1,0,0,1,.72-.32,1.13,1.13,0,0,0,.65-.25,2.3,2.3,0,0,1,.61-.31.52.52,0,0,1,.38,0,.5.5,0,0,0,.43,0,1,1,0,0,1,.43-.1c.5,0,.77-.19.85-.47a.76.76,0,0,1,.38-.41,1,1,0,0,0,.28-.26c0-.06,0-.13-.07-.18a.29.29,0,0,0-.29,0c-.06,0-.12,0-.16,0a.3.3,0,0,0-.26-.11,1.75,1.75,0,0,0-1.24.31,2.24,2.24,0,0,1-1.11.48,7.49,7.49,0,0,1-3-.06c-.13,0-.26-.08-.23-.17S172.2,101.61,172,101.62Zm18.19-5.73a4,4,0,0,1,.33-.34,1.76,1.76,0,0,0,.16-.17s0-.05,0-.07a.23.23,0,0,0-.11,0,.26.26,0,0,0-.12,0,1.89,1.89,0,0,1-1.17.31,2.17,2.17,0,0,0-1.06.32c-.26.13-.48.27-.51.49a.53.53,0,0,1-.29.39,10,10,0,0,1-1.84,1,1.08,1.08,0,0,0-.55.34,1.78,1.78,0,0,1-.74.5c-.44.2-.86.42-1.28.63-.07,0-.11.09-.08.14s.14.06.22.06l.53-.05c.26,0,.41.06.46.22s0,.1,0,.15.06.07.14.06.09,0,.09,0,.08-.31.11-.46a.65.65,0,0,1,.27-.47,3.59,3.59,0,0,1,1.08-.52c.57-.16,1-.06,1.22.29a1,1,0,0,1,.06.13.31.31,0,0,0,.25-.16c.16-.23.31-.46.48-.69a3.54,3.54,0,0,1,.57-.7,9.33,9.33,0,0,1,1.06-.7A2.57,2.57,0,0,0,190.21,95.89Zm-34.93,32.22a.17.17,0,0,0-.12.08c-.07.23.12.42.34.59l.07,0a.81.81,0,0,0,.18,0c.09,0,.08-.05.08-.09a1.21,1.21,0,0,0-.37-.61A.29.29,0,0,0,155.28,128.11Zm-.48-1c-.1.12,0,.21,0,.31a.21.21,0,0,0,.21.13c.09,0,.12-.09,0-.2S155,127.22,154.8,127.15ZM156.1,130l.14,0a.54.54,0,0,0,0-.69l-.05,0c-.05,0-.08,0-.1,0a.67.67,0,0,0-.06.67Zm31.82-27.46c0,.07.19.11.45.09a.72.72,0,0,0,.3-.07c.06,0,.06-.07,0-.1a.6.6,0,0,0-.36-.09A.69.69,0,0,0,187.92,102.55Zm-32.57,27.7a.34.34,0,0,0,.23.06c.13,0,.1-.08.09-.13a.59.59,0,0,0-.37-.44.23.23,0,0,0-.12,0c-.05,0-.12,0-.13.08C155,130,155.17,130.11,155.35,130.25Zm30.15-28.18s0,.05,0,.07a.27.27,0,0,0,.14.07,4.36,4.36,0,0,1,1.1.13.38.38,0,0,0,.12,0s.07-.07,0-.11A1.42,1.42,0,0,0,185.5,102.07ZM5.29,49.35l14.66-8.46a1.32,1.32,0,0,1,.31.26,2.61,2.61,0,0,0,.41.45.8.8,0,0,1,.31.55,1.91,1.91,0,0,0,.12.7c0,.08,0,.15-.09.22s-.34.37-.49.56-.29.4-.19.64-.07.22-.34.22l-1,0a2.9,2.9,0,0,0-.73.05,2.09,2.09,0,0,0-.34.12c-.21.09-.22.13-.06.34.2,0,.24-.09.35-.14a1.2,1.2,0,0,1,.56-.12.66.66,0,0,1,.57.23,3.07,3.07,0,0,1,.23.41c0,.07.1.1.19.14.26.11.26.17,0,.31l-.19.1c.08.08.22.06.34.06a1,1,0,0,1,.74.3,6.73,6.73,0,0,1,.47.61c.16.24.29.49.45.74a.18.18,0,0,1,0,.26c-.07.06-.17.12-.26.18s-.11.18.14.22h.13a.85.85,0,0,1,.75.4c0,.07.07.15.11.23a.78.78,0,0,0,.5.4l.22.09a2.48,2.48,0,0,1,1.27,1,.37.37,0,0,1,0,.31,2,2,0,0,0,.07.86.9.9,0,0,0,.61.63l.15.08c.43.26.5.54.18.85a2.44,2.44,0,0,1-.49.37,6.16,6.16,0,0,1-2.67.78l-3.16.21a3.78,3.78,0,0,1-.81,0,1.39,1.39,0,0,0-1.08.22c-.18.13-.37.26-.53.4a3.32,3.32,0,0,1-1.05.6l-.44.18a2.42,2.42,0,0,1-.92.23,1.68,1.68,0,0,0-.77.22,3.24,3.24,0,0,1-1.31.38h-.1Zm14-3.34.21-.11C19.43,45.91,19.4,46,19.33,46Zm0,0h0Zm-1.08,0a.34.34,0,0,0,.17,0A3.79,3.79,0,0,0,19,46l-.65-.11a.28.28,0,0,0-.15.05C18.19,46,18.15,46,18.21,46.06Zm0-.35c-.06-.11-.06-.24-.23-.34C17.77,45.55,17.77,45.55,18.17,45.71ZM114.9,42.3l1.76.29a6.53,6.53,0,0,0,.94.07,1.82,1.82,0,0,0,.91-.22,2.5,2.5,0,0,0,.21-.15,1.72,1.72,0,0,1,1.18-.22l-.91-.26a3.33,3.33,0,0,1-1.53-.94L114.76,38a7.32,7.32,0,0,0-1.25.29,2.51,2.51,0,0,1-1,.14c-.43,0-.86,0-1.29,0a7.66,7.66,0,0,1-1.93-.17,1,1,0,0,0-.24,0c-.19.18-.4,0-.59,0l-.27,0a4.13,4.13,0,0,1-1.11-.16,3.24,3.24,0,0,0-1.13-.09,4.15,4.15,0,0,1-1.07,0,.74.74,0,0,0-.5.08,4.36,4.36,0,0,0-1,.69c-.15.15-.16.34-.34.46s-.62,0-.86.18c0,.06.08.09.16.11l.23.08c.07,0,.14.08.11.13a.28.28,0,0,1-.24.12c-.11,0-.22,0-.33,0-.32,0-.44.05-.39.22s.15.38.22.57a1,1,0,0,0,.64.48,5,5,0,0,0,1.28.24,11.6,11.6,0,0,0,1.69,0,.54.54,0,0,1,.37,0,1,1,0,0,0-.05.27c0,.13-.08.22-.28.29s-.41.25-.41.43a1,1,0,0,1-.45.72c-.15.13-.31.27-.34.42s-.26.4-.58.54a1,1,0,0,1-.15-.1.87.87,0,0,0-.82-.16c-.5.09-.89.14-.62.57,0,.07-.06.12-.19.11a.64.64,0,0,1-.28-.1.16.16,0,0,0-.17,0s0,.05,0,.07a.66.66,0,0,0,.76.26l.43-.11.38-.08c.21,0,.34,0,.31.16s.12.24.34.3a2.11,2.11,0,0,0,.6,0l.54,0a1.07,1.07,0,0,1,.5.09,2.58,2.58,0,0,0,.61.3c.24.05.52-.06.79,0a1.78,1.78,0,0,0,.34,0,3.81,3.81,0,0,0,.46-.07c.15,0,.28-.1.23-.21s.07-.3.27-.41a2.75,2.75,0,0,1,.68-.26,1.61,1.61,0,0,1,1,0,3.5,3.5,0,0,0,1.64.08.62.62,0,0,0,.5-.29.57.57,0,0,0,.05-.39,1.1,1.1,0,0,0-.22-.45s-.09-.11-.07-.15a.89.89,0,0,1,.77-.59,1.59,1.59,0,0,0,.63-.22,1.8,1.8,0,0,1,1.18-.18ZM75.85,8.61a.64.64,0,0,1,.4.19.51.51,0,0,1,.1.42,2.17,2.17,0,0,0,0,1.09c0,.08-.21.17-.34.12a1.11,1.11,0,0,1-.25-.13,1.91,1.91,0,0,1-.45-.48,2.18,2.18,0,0,0-.63-.53l-1.84,1.06c.23.13.46.27.71.39a1.61,1.61,0,0,0,.68.16c.29,0,.42-.07.35-.23a.9.9,0,0,1-.08-.66,5.89,5.89,0,0,1,1.3,1.21,4.21,4.21,0,0,1-.81.18c-.32.06-.65.11-1,.19s-.38.11-.55-.06a1,1,0,0,0-.6-.15,12.86,12.86,0,0,0-2.19.23.47.47,0,0,0-.12.05l-.4.23s0,.07.15.15.14.18-.11.22c-.58.1-.83.33-.91.66a1.16,1.16,0,0,0,0,.27.86.86,0,0,1-.34.66,2,2,0,0,0-.26.27c-.1.13,0,.23.15.3l.47.15s.08.07.07.1a.2.2,0,0,1-.14.06,1,1,0,0,0-.89.33,1.59,1.59,0,0,0-.33.55,2.63,2.63,0,0,0-.16,1c0,.1,0,.22-.08.3-.27.19-.2.39,0,.58a.37.37,0,0,1,.1.3c0,.09-.17.18,0,.26a2.09,2.09,0,0,0,.41.13l.44.11c.48.14.59.26.48.57-.05.14-.14.28-.19.42s0,.37.44.49c.22.06.29.13.31.26s.24.25.53.23a1.72,1.72,0,0,0,.39-.06c.2-.06.39-.13.58-.2a2.31,2.31,0,0,1,.74-.18,1,1,0,0,0,.58-.17l.91-.53a1.23,1.23,0,0,1,.93-.12l.58.12a1.73,1.73,0,0,0,.73,0,.53.53,0,0,0,.33-.19,1.86,1.86,0,0,1,.18-.37c.1-.12.41-.06.55-.2a1,1,0,0,1,1-.13c.25.06.49.14.73.21s.39.13.6.18a2,2,0,0,0,1,0,2.07,2.07,0,0,1,.33,0,.17.17,0,0,1,.1,0s0,0,0,.07l0,0c-.16.15-.15.19.05.29a.61.61,0,0,0,.16.07,12.27,12.27,0,0,1,1.55.47,3.12,3.12,0,0,0,1.5.09l.39-.07a4.24,4.24,0,0,1,1.33-.06,5,5,0,0,0,.94,0,1.34,1.34,0,0,1,.79.18l.67.39a1.61,1.61,0,0,0,.43.19,11.43,11.43,0,0,1,1.79.63,6.18,6.18,0,0,0,2.69.55,4.74,4.74,0,0,1,1.55.24c.24.07.49.13.74.19s.29.07.38,0,0-.14-.12-.2l-.81-.58a6.89,6.89,0,0,1-.56-.44c-.17-.15-.33-.31-.34-.5s.07-.15.23-.12l.32.07a.45.45,0,0,0,.48-.14c.06-.09,0-.21.22-.27.62.19.77.47.64.81a1.39,1.39,0,0,0-.09.35c0,.39.34.75,1,.91a.65.65,0,0,0,.5,0,1.29,1.29,0,0,0,.52-.45,1,1,0,0,0,.14-.66,4.45,4.45,0,0,0-.24-.89c-.07-.23-.13-.46-.19-.7s0-.18.16-.24h0L83.46,4.22ZM113.3,46.19a.51.51,0,0,0-.18.11.26.26,0,0,1-.27.07l-.32-.06a.33.33,0,0,0-.29.06.16.16,0,0,0,0,.26,1,1,0,0,0,.79.08,2.71,2.71,0,0,1,.41-.12c.29-.06.31-.09.28-.25S113.49,46.12,113.3,46.19ZM221.56,99.85l-5.66,3.27a8.19,8.19,0,0,1-1.87-.46,1.33,1.33,0,0,1-.66-.48c-.11-.17-.21-.34-.33-.51a2.82,2.82,0,0,0-2.44-1c-.36,0-.72,0-1.08,0a16.12,16.12,0,0,0-2.09.33,1.41,1.41,0,0,0-.77.36,1.53,1.53,0,0,1-.2.16,1.07,1.07,0,0,1-.69.21h-.54a2.2,2.2,0,0,0-1.06.21,1.37,1.37,0,0,1-.76.12l-.67-.05a1.47,1.47,0,0,0-.77.1.52.52,0,0,1-.38,0,4.29,4.29,0,0,0-1.66,0l-1.3.23-.65.11c-.13,0-.22,0-.22-.1a.66.66,0,0,1,.19-.41,7,7,0,0,1,.64-.69,18.61,18.61,0,0,1,2.21-1.68,4.1,4.1,0,0,1,2.68-.55c.25,0,.49,0,.73.09a7,7,0,0,0,1.88,0c.53-.05,1.07-.11,1.59-.19a3.46,3.46,0,0,1,1.81.16,6.47,6.47,0,0,0,2.12.35,3,3,0,0,0,.8-.07c.48-.12.51-.42.21-.66a.4.4,0,0,0-.25,0l-1,0c-.54,0-1.08,0-1.62,0a3.4,3.4,0,0,1-.84-.14c-.23-.07-.28-.21-.14-.33a2.12,2.12,0,0,1,.73-.32.24.24,0,0,0-.15-.18,15.21,15.21,0,0,0-1.83-.92,4.93,4.93,0,0,0-2.59-.25,9.75,9.75,0,0,0-1.49.36c-.37.11-.38.11-.69-.06l-.29-.16A3.64,3.64,0,0,1,201,95.6a2.93,2.93,0,0,0-1.14-.86c-1.33-.67-2.68-1.32-4.11-1.92a6.29,6.29,0,0,0-2-.45c-.95-.07-1.9,0-2.84,0-.59,0-1.17,0-1.76,0l-1.42-.06a3.34,3.34,0,0,0-.86.09.48.48,0,0,0-.36.22,1.64,1.64,0,0,0-.15.38c-.09.54.34.9,1.26,1l.2,0c.48,0,.66.2.73.43a1.27,1.27,0,0,1-.33,1.22,1.37,1.37,0,0,1-.56.33,6.9,6.9,0,0,1-1.29.34,3.09,3.09,0,0,0-1.24.45,5.87,5.87,0,0,1-3.1.84c-1.36.06-2.68.22-4,.35-.58.06-1.16.1-1.75.13-.31,0-.63,0-.95,0a2.85,2.85,0,0,1-1.66-.53c-.28-.22-.57-.44-.83-.66a1,1,0,0,0-.68-.2,6.84,6.84,0,0,0-1.52.16,3.89,3.89,0,0,1-1.33.08,6.92,6.92,0,0,1-1.45-.17.29.29,0,0,0-.24,0,.46.46,0,0,0-.22.4c0,.2,0,.39,0,.59a2,2,0,0,1-1.13,1.3,2.18,2.18,0,0,1-.55.23,1.2,1.2,0,0,1-.77,0,8.28,8.28,0,0,0-1.6-.4,1.19,1.19,0,0,1-.34-.12c-.11-.07-.12-.12,0-.18l.06,0a1.76,1.76,0,0,1,.94-.41.37.37,0,0,0,.32-.28c0-.07,0-.16,0-.23s.2-.16.4-.14l.26,0c.21,0,.34-.07.36-.19s-.09-.36-.36-.48c-.09,0-.2-.05-.3-.09s-.14-.1-.12-.17.22-.31.57-.33a.93.93,0,0,0,.44-.09c.23-.15.37-.29.23-.52a1.26,1.26,0,0,0-.89-.54c-.32-.07-.65-.12-1-.17a4.47,4.47,0,0,1-.92-.24c-.1,0-.1-.12,0-.16a1.37,1.37,0,0,1,.44-.1l.47,0c.33,0,.48-.18.47-.37s-.21-.31-.52-.27a8.73,8.73,0,0,1-1.82,0,3.25,3.25,0,0,1-1-.22l-.35-.12a.67.67,0,0,0-.45,0c-.15.06-.15.15-.12.25l0,0a.51.51,0,0,1,0,.64c-.12.17,0,.32.22.46a.73.73,0,0,0,.65.08l.19,0a.45.45,0,0,1,.4.09.31.31,0,0,1,.11.22c0,.18.15.32.38.44a.54.54,0,0,1,.29.26s-.06.11-.14.11a2.45,2.45,0,0,1-.59-.07l-.94-.22a2.48,2.48,0,0,0-1.12,0,2.76,2.76,0,0,1-.74,0c-.29,0-.46.08-.49.25a.56.56,0,0,1,0,.08c-.06.17.34.34,0,.52s-.18.32-.32.46a1.21,1.21,0,0,0-.26.48,2.27,2.27,0,0,1-1,1.11,3.46,3.46,0,0,1-1.17.52l-.06,0c-.29.07-.56.18-.84.24a6.06,6.06,0,0,1-.86,0,9.15,9.15,0,0,0-2.16.29c-.2.06-.41.11-.63.15a2.08,2.08,0,0,1-.53.05c-.42,0-.84,0-1.25-.06l-1.48-.1a4,4,0,0,1-.91-.14,1.68,1.68,0,0,1-1.07-.61c-.08-.16-.17-.18-.47-.12a1.93,1.93,0,0,1-1.21-.13,15.06,15.06,0,0,0-1.49-.46,1.19,1.19,0,0,0-.83,0,.67.67,0,0,1-.18,0,.38.38,0,0,1-.24,0c-.07,0-.08-.1,0-.14a1.88,1.88,0,0,1,.24-.18c.18-.13.18-.17,0-.31a2.86,2.86,0,0,1-.25-.18,1.31,1.31,0,0,0-1.14-.36,5.77,5.77,0,0,1-.8-.06c-.27,0-.54,0-.81-.05a2.33,2.33,0,0,0-1,.19c-.16.07-.29.17-.28.3a3.49,3.49,0,0,1-.17,1,1.25,1.25,0,0,0,0,.7.85.85,0,0,1-.09.7,2.72,2.72,0,0,1-1,1,3.15,3.15,0,0,1-1,.44,3.51,3.51,0,0,0-.47.15.62.62,0,0,1-.44,0,5.91,5.91,0,0,0-1.22-.22l-.6-.07a1.28,1.28,0,0,0-.33,0c-.39.07-.8,0-1.19.05a2.94,2.94,0,0,1-.8,0c-.14,0-.21-.1-.16-.18a1,1,0,0,1,.42-.35,1.46,1.46,0,0,0,.28-.17c.1-.09.14-.19,0-.29s-.4-.35-.29-.57a.14.14,0,0,0,0-.15.19.19,0,0,1,0-.3c.29-.27.17-.52,0-.78l-.07-.07c-.21-.19-.36-.37-.12-.61s-.05-.36-.35-.45a.28.28,0,0,0-.24,0,1.19,1.19,0,0,0-.2.16,1.7,1.7,0,0,1-1.14.44l-.6.05a1.85,1.85,0,0,0-.56.13c-.28.12-.46.29-.33.47s.1.6-.29.86a.53.53,0,0,0-.24.74l.32.64a1.44,1.44,0,0,1,.19.61c0,.37-.23.67-.79.85-.31.1-.5.24-.51.43,0,.35-.34.61-.6.9-.24,0-.34-.12-.54-.14a.31.31,0,0,1-.28-.2,2.53,2.53,0,0,0-.17-.34,1.46,1.46,0,0,1,.21-1.86,3.16,3.16,0,0,1,.33-.34,8.21,8.21,0,0,0,1.19-1.4,1.76,1.76,0,0,0,.16-.26c.07-.15,0-.27-.19-.38s-.18-.16,0-.25a4.1,4.1,0,0,1,.68-.32c.31-.11.59-.24.87-.37a3.06,3.06,0,0,0,1.37-1,10.93,10.93,0,0,1,.83-1,1.19,1.19,0,0,1,.35-.23l.4-.21c.15-.09.21-.19.11-.32s-.08-.15,0-.38a1.7,1.7,0,0,0-.66,0,6.4,6.4,0,0,1-.81.05,1.55,1.55,0,0,1-.78-.2c-.18-.11-.21-.22-.1-.36a1.07,1.07,0,0,1,.55-.34,1.31,1.31,0,0,0,.85-.62,5.08,5.08,0,0,0,.41-.87.78.78,0,0,0,0-.43,1,1,0,0,1,0-.55,1.3,1.3,0,0,1,.47-.51c.45-.34.44-.53,0-.91a2.45,2.45,0,0,1-1.3,0c-.51-.17-1-.35-1.2-.71,0,0,0,0-.07-.06l-.79-.11a1.07,1.07,0,0,0-.64.05l-.29.1a1.84,1.84,0,0,1-1,.1c-.37-.05-.74-.11-1.11-.18a6.15,6.15,0,0,0-1.33-.12l-2.57,0a3.56,3.56,0,0,1-1.36-.18l-.25-.06a1.15,1.15,0,0,0-1.07.17,3,3,0,0,0-.35.29,2.5,2.5,0,0,1-1.05.59l-.17.06a2.6,2.6,0,0,0-1.16.57c-.17.17-.25.18-.56.09a1.13,1.13,0,0,0-.76,0,1.39,1.39,0,0,1-1,.06,1,1,0,0,0-.58,0c-.57.13-.8,0-.78-.32a.61.61,0,0,1,.13-.34c.29-.38.56-.77.85-1.15a.74.74,0,0,0,.18-.45.79.79,0,0,1,.39-.65,1.2,1.2,0,0,0,.45-.52.39.39,0,0,1,.1-.15,6.83,6.83,0,0,0,.9-1.22q.4-.56.86-1.1a2.42,2.42,0,0,1,1.19-.78,1.33,1.33,0,0,0,.72-.5.87.87,0,0,1,.63-.42c-.07-.12-.19-.07-.28-.06l-.7.14c-.72.13-1.25,0-1.45-.45a.59.59,0,0,1-.06-.31,4.77,4.77,0,0,1,.11-.62c0-.15.15-.16.36-.06s.2.11.31.15a.79.79,0,0,0,.39,0c.13,0,.2-.08.12-.14l-.14-.09c-.79-.5-1-1.06-.6-1.7l0,0c.09-.19.29-.37.12-.57a1.75,1.75,0,0,0-.92-.49,1.32,1.32,0,0,1-.78-.4.61.61,0,0,0-.31-.2,4.44,4.44,0,0,1-1.54-.73l-.52-.41a10.53,10.53,0,0,0-1-.71,1.91,1.91,0,0,1-.39-.32c-.39-.4-.45-.33-.12-.79a.77.77,0,0,0,.12-.22c.06-.2-.14-.4-.48-.39a1.57,1.57,0,0,1-1-.28c-.17-.1-.34-.21-.53-.3a.57.57,0,0,1-.37-.49.36.36,0,0,1,0-.08.89.89,0,0,0-.38-.92c-.19-.14-.13-.3,0-.47a1.13,1.13,0,0,0,.3-1.25.34.34,0,0,0-.07-.11.92.92,0,0,0-1.18-.23,1.75,1.75,0,0,0-.9.62,1.45,1.45,0,0,0-.29,1.49.18.18,0,0,1,0,.22,1.75,1.75,0,0,0-.16.25c.21.1.41,0,.6,0s.15.07.11.12a.84.84,0,0,1-.39.21l-.53.17c-.21.08-.3.2-.22.34a1,1,0,0,0,.25.32,4,4,0,0,0,2.72.78l1.28,0h.2c.07,0,.14,0,.14.06a.08.08,0,0,1,0,.07,2.67,2.67,0,0,1-.33.2c-.57.27-.61.62-.43,1a1.85,1.85,0,0,0,.35.47c.18.18.27.35.12.56a.41.41,0,0,0,0,.46c.09.17,0,.26-.27.35a2.35,2.35,0,0,1-.59.07,3.36,3.36,0,0,0-1,.13.34.34,0,0,1-.25,0l-.29-.1a1.07,1.07,0,0,0-.65,0l-.46.16a.8.8,0,0,1-.57,0,1.14,1.14,0,0,0-.65,0,1.52,1.52,0,0,1-.84,0,2,2,0,0,0-1.05,0,.71.71,0,0,1-.44,0,12.58,12.58,0,0,0-1.39-.48c-.23-.06-.46-.11-.69-.15a.77.77,0,0,0-.66.11.41.41,0,0,1-.41.05,13.61,13.61,0,0,1-1.5-.45,7.18,7.18,0,0,0-1.75-.41l-.46-.06a2.45,2.45,0,0,1-1.28-.39,1.14,1.14,0,0,0-.65-.18,3.92,3.92,0,0,1-1-.19,1.05,1.05,0,0,1-.7-.63.11.11,0,0,1,0-.11,6.63,6.63,0,0,1,1-1.24,1.22,1.22,0,0,1,.51-.25c.48-.13.63-.36.59-.64a2.16,2.16,0,0,1,.08-.9,1.71,1.71,0,0,1,.45-.77.16.16,0,0,0,0-.26c-.38-.43-.18-.81.35-1.15l.48-.33a.76.76,0,0,0,.25-.27c.08-.15.18-.29.25-.45a.39.39,0,0,0-.13-.56c-.24-.16-.17-.32.06-.45a.91.91,0,0,0,.45-.6A17.86,17.86,0,0,0,96,65.87l-.4.08c-.29.06-.41,0-.45-.16a1,1,0,0,1,.08-.54c.07-.2.14-.41.22-.61,0,0,0-.09-.07-.09a.23.23,0,0,0-.15.06A2.8,2.8,0,0,0,95,65l-1.33,2.83a1.28,1.28,0,0,1-.45.56,1.3,1.3,0,0,0-.48.72,2,2,0,0,0-.11.54.38.38,0,0,1-.24.31c-.26.15-.5.3-.77.44s-.44.39-.4.63a2.67,2.67,0,0,0,.09.35.89.89,0,0,1-.42,1l0,0c-.55.36-.66.76-.37,1.2a1,1,0,0,1,.07,1.07.64.64,0,0,0,.14.87.09.09,0,0,1,0,.15c-.1.09-.16.21-.3.26a.49.49,0,0,0-.39.46,2.64,2.64,0,0,0-.09.47c0,.27.17.37.63.41h.2a1.39,1.39,0,0,1,.91.29,2.51,2.51,0,0,0,.78.42c.55.21,1.13.38,1.71.56l1.07.34c.21.07.25.17.15.3a1.1,1.1,0,0,1-.35.24,7.68,7.68,0,0,1-1.43.52,22.52,22.52,0,0,1-3.34.62c-.88.1-1.77.2-2.65.31a12.26,12.26,0,0,1-3.09,0l-1.86-.23c-.55-.07-1.11-.13-1.67-.16a8.37,8.37,0,0,0-2.89.31,4.87,4.87,0,0,1-1.42.23,2.24,2.24,0,0,0-1.43.45,13.38,13.38,0,0,1-1.32,1,.82.82,0,0,0-.4.61c0,.16,0,.31-.07.47s-.17.35-.53.41a1,1,0,0,0-.29.1L70.94,85a.78.78,0,0,0-.34.29c-.19.35-.7.49-1.26.58a3.73,3.73,0,0,1-.94,0,11.33,11.33,0,0,1-1.17-.19c-.51-.11-1-.22-1.54-.3a3.69,3.69,0,0,0-1.78,0,.71.71,0,0,1-.39,0,2.22,2.22,0,0,0-.53-.05c-.51,0-.76.1-.9.38a1.28,1.28,0,0,0-.11.31,1.39,1.39,0,0,1-.86.9c-.3.14-.59.29-.9.41a.86.86,0,0,1-.85,0,4.13,4.13,0,0,0-2.29-.29c-.27,0-.31,0-.31.2s-.27.43-.67.53a5,5,0,0,1-1.46.14,8.21,8.21,0,0,0-2,.18c-.3.06-.61.09-.91.13l-10.4-3s0,0,0,0a1.69,1.69,0,0,0,.58-.74c0-.08.11-.11.23-.12l.26,0a.86.86,0,0,0,.66-.36,1.6,1.6,0,0,0,.17-.42,11.17,11.17,0,0,1,.91-2.32,5.18,5.18,0,0,1,1.56-1.81,8.86,8.86,0,0,1,1.07-.66.81.81,0,0,0,.44-.55,5.91,5.91,0,0,1,.91-2,4.36,4.36,0,0,1,1.58-1.26,4.23,4.23,0,0,1,1.31-.39c.28,0,.58-.07.87-.09l.67,0a2.91,2.91,0,0,0,2.3-.94,3.25,3.25,0,0,1,.55-.54,4.53,4.53,0,0,0,1-1,3.16,3.16,0,0,1,.81-.85,1,1,0,0,0,.46-.84c0-.4,0-.81,0-1.21a1.47,1.47,0,0,1,.25-.77,1.62,1.62,0,0,1,1.27-.63,3,3,0,0,1,.33,0,1.24,1.24,0,0,0,.65-.18l.3-.16a3.44,3.44,0,0,1,1-.4.32.32,0,0,0,.28-.2.82.82,0,0,0-.3-1,4.3,4.3,0,0,0-1-.6c-.52-.25-.65-.54-.53-.91a2.39,2.39,0,0,0,.1-.5c0-.28-.14-.51-.5-.7A7.49,7.49,0,0,0,58,62.31c-.71-.2-1.44-.38-2.17-.56a4,4,0,0,0-.66-.09,1.21,1.21,0,0,1-.85-.34L54,60.94a2.82,2.82,0,0,0-1.41-.82L52,60c-.18-.05-.37-.1-.54-.16-.68-.26-1.19-.58-1.3-1.09s-.27-.87-.39-1.31a2,2,0,0,1,.2-1.62,1.91,1.91,0,0,0,.26-1.42,4.06,4.06,0,0,1-.06-1.52c0-.06,0-.13.1-.18.33-.13.44-.36.7-.52s.21-.37.33-.54.26,0,.38,0a5.62,5.62,0,0,0,3.39-1.14c.21-.18.39-.38.58-.58a7.75,7.75,0,0,1,.7-.62,1.64,1.64,0,0,1,1-.34,7.65,7.65,0,0,0,1.68-.27,30.38,30.38,0,0,1,3.5-.61,3.31,3.31,0,0,1,1.62.15,5.58,5.58,0,0,0,1.66.31,3.72,3.72,0,0,0,2-.36c.1-.05.21-.1.29-.16a3,3,0,0,1,1.61-.42L72,47.43a14,14,0,0,0,2.14-.15,3,3,0,0,1,.4,0c.12,0,.21,0,.24.1a2,2,0,0,0,.14.3,3.29,3.29,0,0,0,1.31,1.12,1.59,1.59,0,0,0,.73.18,5.3,5.3,0,0,1,1,.16,23.78,23.78,0,0,1,3.84,1.14,1.78,1.78,0,0,1,.89.62,1,1,0,0,0,.78.39,1.61,1.61,0,0,1,1.15.55,1.06,1.06,0,0,0,.77.34l.39.06c.36.08.55.22.51.45s0,.33.39.39c.06,0,.14,0,.12.08a.19.19,0,0,1-.13.07c-.58,0-.88.13-.88.47,0,.08-.12.14-.25.17L85,54c-.45.09-.71.28-.8.54s0,.65.42.9l.53.3a1.46,1.46,0,0,1,.74.77,5.13,5.13,0,0,1,.17.66c.05.26.08.52.15.78a1.69,1.69,0,0,0,.76,1,1.15,1.15,0,0,0,.5.19A.85.85,0,0,0,88,59l.48-.28a1.49,1.49,0,0,1,1-.12,4.12,4.12,0,0,1,1.64.66c.06,0,.08.09,0,.14a.49.49,0,0,0-.07.11.58.58,0,0,0,.35.75,2.5,2.5,0,0,1,.81.71,8,8,0,0,0,1.36,1.3,3.61,3.61,0,0,0,1.12.55l.49.13a2.13,2.13,0,0,1,1.32.79,1.4,1.4,0,0,0,1,.61,1,1,0,0,0,.38,0A8.83,8.83,0,0,0,99.62,64a4,4,0,0,1,1.34-.25,1.59,1.59,0,0,0,.94-.27c.14-.1.3-.2.43-.3a1.29,1.29,0,0,1,.8-.41,4.49,4.49,0,0,1-.49-.18.6.6,0,0,1-.26-.27c0-.07-.15-.09-.27-.09s-.36,0-.54,0c-.65-.07-1.22-.32-1.27-.75a1.7,1.7,0,0,0-.07-.31.78.78,0,0,0-.89-.36l-.2,0c-.37,0-.6-.08-.71-.29a1,1,0,0,1-.09-.27.58.58,0,0,0-.51-.47c-.12,0-.12-.09,0-.14s.08-.09.06-.14a1.35,1.35,0,0,1-.06-.27c0-.08,0-.18,0-.23.32-.2.16-.38,0-.58s-.13-.14-.11-.22a1.24,1.24,0,0,1,.52,0A.91.91,0,0,0,99,58c.08-.07,0-.12,0-.18s-.06-.25.21-.29.31,0,.53,0a.76.76,0,0,1-.34-.5c-.11-.39-.55-.6-1.2-.61a.51.51,0,0,0-.28.09c-.11.06-.22.16-.39.12s-.19-.16-.2-.27a.77.77,0,0,0,0-.19c0-.08-.16-.09-.27-.09s-.18,0-.2.09a3.21,3.21,0,0,0-.06.35.22.22,0,0,1-.18.2c-.22.07-.24.18-.23.3a1.24,1.24,0,0,0,.11.5c.05.11,0,.21-.13.28-.65-.2-.65-.2-.89-.56a3.17,3.17,0,0,1-.36.26c-.13.07-.3.12-.44.18s-.22.09-.37,0-.36-.26-.36-.45.19-.47.79-.61c-.19-.11-.29-.23-.11-.38a.79.79,0,0,0,.26-.68.62.62,0,0,0,0-.16c-.13-.44.1-.8.7-1.08a.7.7,0,0,0,.49-.7,1,1,0,0,0-.26-.68c-.12-.14-.23-.29-.16-.45s0-.1-.06-.14c-.64-.37-.58-.81-.25-1.23.2-.26.21-.43-.19-.59a1.17,1.17,0,0,1-.14-.08c-.15-.09-.16-.18-.06-.29s.15-.13.21-.2,0-.09,0-.1l-.59-.18a.35.35,0,0,0-.41.1,1,1,0,0,1-.3.15c-.43.18-.56.33-.35.6s.17.66-.12,1a2.58,2.58,0,0,0-.21.29c-.18.25-.05.46.28.63a1.56,1.56,0,0,1,.48.28s-.06.07-.1.09c-.23.1-.21.22-.12.35s.3.44.44.66a.88.88,0,0,1,.12.34c0,.12,0,.23-.21.32s-.19,0-.21,0-.09-.23-.14-.34a.74.74,0,0,0-.55-.32c-.3-.06-.55,0-.59.2s0,.23,0,.35-.19.16-.35.11a1.06,1.06,0,0,0-.7,0l-.31.07a.6.6,0,0,1-.56-.15c-.06-.06,0-.15.12-.14a1.42,1.42,0,0,0,.92-.17.7.7,0,0,0,.38-.57,1.75,1.75,0,0,0,0-.66,1.53,1.53,0,0,0-.33-.63,1.22,1.22,0,0,1-.35-.87.59.59,0,0,0-.07-.39.57.57,0,0,1,0-.61l.28-.56a.66.66,0,0,0,.06-.46c-.08-.33-.48-.53-1-.55s-1.11-.1-1.66-.17A1.9,1.9,0,0,1,87.71,48c-.11-.1-.19-.21-.29-.31a1.7,1.7,0,0,0-.58-.38,1.13,1.13,0,0,0-1.2.14l-.14.14a.81.81,0,0,1-.56.19,2.49,2.49,0,0,1-.73-.07,6.19,6.19,0,0,1-.61-.17,2.7,2.7,0,0,0-1.1-.13,6.61,6.61,0,0,0-1.31.19c-.23.06-.5.13-.5.29s-.17.21-.4.24a4.6,4.6,0,0,1-1.27,0,3.13,3.13,0,0,0-.93,0,1.17,1.17,0,0,1-.84-.17,4.38,4.38,0,0,0-1.86-.67l-.19,0c-.63-.14-.77-.26-.56-.62s0-.63-.58-.83l-.51-.19c-.26-.11-.29-.23-.09-.36s.31-.19.47-.28.35-.21.26-.4.1-.31.43-.34a2.5,2.5,0,0,0,.93-.29c.33-.16.68-.31,1-.45a1.85,1.85,0,0,0,1-.69,1.19,1.19,0,0,1,.11-.14.44.44,0,0,1,.38-.13,6.74,6.74,0,0,1,1.19.14.46.46,0,0,1,.22.09,4.39,4.39,0,0,0,1,.67,1.24,1.24,0,0,1,.33.24,3.91,3.91,0,0,0,1.19.79,2.11,2.11,0,0,1,.6.41,1.2,1.2,0,0,0,.43.24,1,1,0,0,0,.67,0,5.29,5.29,0,0,0,1.63-.66c.39-.23.67-.4.39-.73-.1-.12,0-.26.14-.37s.22-.41,0-.61a3.2,3.2,0,0,1-.62-.69c-.07-.11-.11-.22,0-.34a.41.41,0,0,1,.37-.13,4.38,4.38,0,0,1,1,.25c.13,0,.14.13.18.2a1.18,1.18,0,0,0,.62.45.65.65,0,0,0,.37.07c.13,0,.12-.1.18-.16a.78.78,0,0,1,.12-.09c.14-.08.26-.22.47-.2s.23.17.26.29a.76.76,0,0,0,.76.47,1.22,1.22,0,0,1,.62.08,1.87,1.87,0,0,0,1.1,0,3,3,0,0,0,.37-.1.9.9,0,0,1,.68,0,11.46,11.46,0,0,0,1.49.37.89.89,0,0,0,.74-.09A1.62,1.62,0,0,1,95.68,43l.61,0a2.31,2.31,0,0,1,1.13.32.78.78,0,0,0,.57.17.66.66,0,0,1,.53.2,1.1,1.1,0,0,0,.68.22.51.51,0,0,0,.41-.11,3.91,3.91,0,0,0,.75-.87,1.13,1.13,0,0,1,.35-.46,2.06,2.06,0,0,1,1.39-.39,9.55,9.55,0,0,1,1.77.33.46.46,0,0,1-.27.16l-.42.13c-.37.14-.39.19-.2.44s0,.24-.26.23l-.4,0a3.21,3.21,0,0,0-.87,0c-.36.07-.64.19-.66.44a.23.23,0,0,1,0,.15c-.08.08,0,.14,0,.22s.32.26.2.43.05.13.15.16l.67.19.76.17a.7.7,0,0,1,.44.22c-.35.15-.36.17-.29.38s.16.19.36.19a2.53,2.53,0,0,1,1,.25,3.45,3.45,0,0,0,1.17.28,2.12,2.12,0,0,1,1.38.57s.11.09.07.14-.18.1-.1.17a1.82,1.82,0,0,0,.61.3.41.41,0,0,0,.25,0,2.8,2.8,0,0,1,1-.12,2.38,2.38,0,0,0,1.23-.26,4.79,4.79,0,0,1,1.62-.47l.33,0c.7,0,.9.08.9.48a.8.8,0,0,0,0,.31c.11.26.62.34,1,.15a.67.67,0,0,0,.3-.34,1.75,1.75,0,0,0,.09-.62c0-.19.16-.27.47-.24a4.16,4.16,0,0,1,1.94.59,2.61,2.61,0,0,1,.4.31A2.52,2.52,0,0,0,118,48l.13,0c.77.14.85.25.94-.38a1,1,0,0,0,0-.21,4.18,4.18,0,0,1-2-.67,2.27,2.27,0,0,0-.6-.25,8.83,8.83,0,0,1-1.17-.39,1.55,1.55,0,0,1-.49-.32c-.12-.12.07-.26-.1-.38a.69.69,0,0,1-.28-.35.57.57,0,0,1,0-.27c0-.25.28-.42.71-.45s.36-.1.41-.24a1.38,1.38,0,0,1,.8-.75.36.36,0,0,1,.31,0,4.2,4.2,0,0,0,1.81.22l.88,0a4.64,4.64,0,0,1,1.39.1,4.07,4.07,0,0,0,.65.1c.39,0,.65-.11.69-.33a.4.4,0,0,0-.13-.34,3.35,3.35,0,0,0-1.12-.72L133.68,46c.17.22.34.44.52.65a3.09,3.09,0,0,1,.62,1,.86.86,0,0,1,0,.58c-.1.3-.44.48-1,.5a4.12,4.12,0,0,1-1.82-.35,2.22,2.22,0,0,1-.72-.46,9.9,9.9,0,0,0-1.88-1.33l-.25-.12a4.31,4.31,0,0,0-1.09,1.3.53.53,0,0,0,.06.46c.23.36.32.35.75.1s.53-.28.84.08a3.25,3.25,0,0,0,.5.46,2.45,2.45,0,0,0,1.91.39c.3,0,.6-.11.9-.17a1.56,1.56,0,0,1,1.23.16l.55.35a4.6,4.6,0,0,0,.54.3.78.78,0,0,0,.94-.15.38.38,0,0,0,.07-.23c0-.15.11-.25.33-.31a12.7,12.7,0,0,1,1.69-.4,2.13,2.13,0,0,1,.6,0c.2,0,.3.12.28.23a.61.61,0,0,1-.21.29,2.41,2.41,0,0,1-1,.55c-.42.13-.37.3-.21.49a.87.87,0,0,0,.5.25c.36.07.72.15,1.1.2l2.44.34a16.72,16.72,0,0,1,1.87.35,3.48,3.48,0,0,1,.8.29c.2.11.36.25.31.41s.12.38.35.52a5,5,0,0,0,1.35.58l1.21.35.53.17c.3.1.44.25.48.45a1.87,1.87,0,0,0,.11.42c.06.13.25.19.48.13a1.59,1.59,0,0,0,.93-.48c.25-.35.65-.28,1-.1a5.92,5.92,0,0,1,1,.7,5.58,5.58,0,0,1,1.54,2,5.84,5.84,0,0,0,.57.92l.19.21a.35.35,0,0,0,.28.09.24.24,0,0,0,.19-.1,1.16,1.16,0,0,0,.26-.6,2.67,2.67,0,0,1,.07-.47,2.33,2.33,0,0,1,1.07-1.33,2.15,2.15,0,0,1,.92-.31,10.17,10.17,0,0,1,3.9.22,2,2,0,0,1,.72.35,2.65,2.65,0,0,1,.65.68c.12.2,0,.35-.36.38a3.31,3.31,0,0,0-1.75.67,17.3,17.3,0,0,0-1.88,1.48,3.09,3.09,0,0,0-.56.67.49.49,0,0,0-.05.54.38.38,0,0,0,.52.07,1.22,1.22,0,0,0,.33-.34c.16-.2.3-.41.47-.61a1.83,1.83,0,0,1,.28-.27,1,1,0,0,1,.62-.21c.66,0,1-.28,1.14-.62s.16-.43.27-.65.14-.23.52-.18l.33,0a3.79,3.79,0,0,0,1.71-.11.36.36,0,0,1,.26,0c0,.2-.28.34-.43.51a1.59,1.59,0,0,0-.33.43c-.06.17.05.28.35.32a4.35,4.35,0,0,0,1,0,.92.92,0,0,1,.65.14l1.26.87a1.6,1.6,0,0,0,.56.28.29.29,0,0,0,.33-.07c.08-.11.13-.22.21-.33a1.46,1.46,0,0,1,1.57-.44,6,6,0,0,1,1.77.64c.55.29,1.09.59,1.59.91a1.46,1.46,0,0,0,1.15.16l.38-.08a4.78,4.78,0,0,1,1.72-.09,16.59,16.59,0,0,1,3,.64c.8.24,1.54.54,2.29.83l8.13,7.67-.75-.14c-.32-.06-.65-.1-1-.14a1.12,1.12,0,0,0-.58.07c-.16.06-.17.2,0,.27a3.37,3.37,0,0,0,.75.18c.66.1,1.33.16,2,.21h0l9.7,9.16a1.09,1.09,0,0,0-.12.25.65.65,0,0,0,.33.7.83.83,0,0,0,.66.12l.21-.05ZM112.73,58.62l-2.05-.49c-.19,0-.38-.08-.58-.1s-.42.06-.35.23a.57.57,0,0,0,.2.2,2,2,0,0,1,.43.38l-.08,0a7.7,7.7,0,0,1-2.14-.45c-.19-.06-.27-.17-.26-.3s0-.52.07-.78a3.08,3.08,0,0,0,.06-.82c0-.27-.23-.37-.69-.38-.27,0-.54,0-.81,0a1.13,1.13,0,0,0-.69.08.44.44,0,0,1-.32,0,.9.9,0,0,0-.46,0,3.06,3.06,0,0,0-.76.25,2,2,0,0,1-1.19.29H103c-.93.08-1.16.24-1.13.78a.57.57,0,0,1,0,.08c0,.11.13.27,0,.33s-.39-.08-.57-.15a1.55,1.55,0,0,1-.2-.11,1.7,1.7,0,0,0-1.11-.12L101,58l.54.24a.21.21,0,0,0,.28-.07.31.31,0,0,1,.41-.08,2.73,2.73,0,0,1,.29.16,3.7,3.7,0,0,0,2.19.77,4.17,4.17,0,0,1,2,.93.3.3,0,0,1,.1.14c.09.27.42.48.43.77,0,.07.1.14.16.21a2.9,2.9,0,0,0,.68.53c.36.2.72.4,1.06.61a2.6,2.6,0,0,0,1.05.33c.67.09.82,0,1.08-.32a.8.8,0,0,0,.1-.73,2.45,2.45,0,0,0-.32-.64c-.17-.26-.33-.51-.49-.77a1.46,1.46,0,0,1-.21-.57.62.62,0,0,1,.16-.54c.29.06.55.13.83.17a.87.87,0,0,0,.85-.2c.07-.07.07-.15.18-.21S112.7,58.75,112.73,58.62ZM123,65.12a.86.86,0,0,0-.43-.92,5.62,5.62,0,0,0-1.87-.88c-.51-.14-1.06-.22-1.57-.37a2.22,2.22,0,0,0-1.16,0l-.64.13c-.26,0-.45.15-.46.3a1.45,1.45,0,0,1-.64,1,.7.7,0,0,0-.14.18,2.53,2.53,0,0,0-.47,1.65c0,.07.09.15,0,.23a5,5,0,0,0-1.26.23,1.13,1.13,0,0,1-.79,0c.07.29-.13.51-.5.68l0,0c-.13.1-.13.19,0,.29l.18.12c.26.13.38.29.28.49s0,.33.25.46a8.72,8.72,0,0,0,1.18.64l.49.21a.45.45,0,0,0,.37,0,.55.55,0,0,0,.28-.3.68.68,0,0,1,.51-.34,1.48,1.48,0,0,0,.4-.14c.42-.25.5-.54.3-.87-.1-.17,0-.23.23-.29a1.21,1.21,0,0,1,.87.1,1.9,1.9,0,0,0,.58.28c.26-.2.19-.44.35-.65-.31-.15-.7-.15-1-.26,0,0,0-.08,0-.09a1.31,1.31,0,0,0,.59-.94,4.45,4.45,0,0,1,.13-.58.71.71,0,0,0,0-.5.27.27,0,0,1,.06-.3.31.31,0,0,1,.32-.09,14,14,0,0,1,1.58.35,2.45,2.45,0,0,1,.9.46,3.4,3.4,0,0,0,.37.28.55.55,0,0,0,.39.14c.24,0,.18-.16.23-.25A1.7,1.7,0,0,0,123,65.12Zm59.38,35.4c0-.12,0-.23,0-.35a4.16,4.16,0,0,0,0-.43c0-.09-.14-.12-.29-.1a.4.4,0,0,0-.3.14.44.44,0,0,1-.22.2,3.55,3.55,0,0,1-.9.33,1,1,0,0,1-.85-.1.41.41,0,0,0-.4-.05,1.6,1.6,0,0,1-.4,0c-.34,0-.63,0-.73.25,0,0-.08.06-.12.09-.47.33-.47.33.2.46l.26,0c.16,0,.25,0,.2-.14a1.73,1.73,0,0,1-.1-.18c0-.07,0-.13.14-.16a.37.37,0,0,1,.3,0c.17.08.23.26.46.27a.4.4,0,0,1,.41.26l.2.33c.06.1.08.22.2.28s.38,0,.57,0a1.78,1.78,0,0,1,1.19.14,2,2,0,0,0,.57.21c.24,0,.29,0,.3-.1s0-.19.25-.24.26-.14,0-.21C182.61,101.28,182.39,100.93,182.35,100.52Zm1,1.24c-.05,0-.08.12,0,.16l.24,0a1.27,1.27,0,0,0,.75-.08c.11-.07-.28-.18-.72-.18A.61.61,0,0,0,183.38,101.76ZM67.75,92.07A7.92,7.92,0,0,0,69,91.83l3.37-.91a14.58,14.58,0,0,0,3.2-1.22c.2-.11.22-.12.42,0a.26.26,0,0,0,.32,0,.9.9,0,0,0,.14-.08c.41-.36.83-.71,1.23-1.08a1.21,1.21,0,0,0,.24-.36.33.33,0,0,0-.06-.38.28.28,0,0,0-.28,0l-.21.1a1.69,1.69,0,0,1-.86.19l-1.49,0a7.67,7.67,0,0,1-2.23-.26l-.44-.1a2.3,2.3,0,0,0-1.67.23,1.51,1.51,0,0,0-.46.38l-.3.39a.58.58,0,0,1-.36.23,6.13,6.13,0,0,1-1.87.28,1,1,0,0,0-.62.12c-.2.13-.41.26-.46.42a.57.57,0,0,1-.39.38c-.6.28-.84.6-.84,1s.24.57.72.75A3.66,3.66,0,0,0,67.75,92.07ZM110,45.47h0v0Z"/><polygon class="cls-9" points="84.1 0 0 48.55 35.81 87.16 119.91 38.61 84.1 0"/><polygon class="cls-9" points="179.68 55.76 95.58 104.31 143 149.05 227.1 100.5 179.68 55.76"/></g></g></g></svg>