<svg xmlns="http://www.w3.org/2000/svg" viewBox="0 0 242.73 172.04"><defs><style>.cls-1{isolation:isolate;}.cls-2{mix-blend-mode:multiply;}.cls-3{fill-opacity: 0.4; fill:#e6e7e8;}.cls-4{fill:#1760aa;}.cls-5{fill:#0079bd;}.cls-6{fill:#b4b4b4;}.cls-7{fill:#194c6d;}.cls-8{fill:#fff;}.cls-9{fill:#e9e8e8;}.cls-10{fill:#9e9e9e;}.cls-11{fill:#d2d2d2;}.cls-12{fill:#004b75;}.cls-13{fill:#959494;}.cls-14{fill:#dcdcdc;}.cls-15{fill:#ccc;}.cls-16{fill:#c3c3c3;}.cls-17{fill:#f1f0f0;}.cls-18{fill:#dcdbdb;}.cls-19{fill:#9b9c9c;}.cls-20{fill:#c8c7c6;}.cls-21{fill:#acabab;}.cls-22{fill:#d4d4d4;}</style></defs><title>icn_tour_pad</title><g class="cls-1"><g id="Слой_2" data-name="Слой 2"><g id="Layer_1" data-name="Layer 1"><g class="cls-2"><path class="cls-3" d="M202.74,55.6c-53.33-30.79-108.36-30.79-161.69,0h0c-26.66,15.39-40,31-40,46.68s13.33,31.28,40,46.68c53.33,30.79,108.36,30.79,161.69,0,26.66-15.39,40-31,40-46.68S229.4,71,202.74,55.6Z"/></g><path class="cls-4" d="M186.08,111.74c-49.2,28.4-100,28.4-149.18,0C12.3,97.53,0,83.1,0,68.67V90.16C0,104.59,12.3,119,36.9,133.23c49.2,28.41,100,28.41,149.18,0C210.68,119,223,104.59,223,90.16V68.67C223,83.1,210.68,97.53,186.08,111.74Z"/><path class="cls-5" d="M186.08,25.61C136.87-2.8,86.1-2.8,36.9,25.61h0C12.3,39.81,0,54.24,0,68.67s12.3,28.86,36.9,43.06c49.2,28.41,100,28.41,149.18,0C210.68,97.53,223,83.1,223,68.67S210.68,39.81,186.08,25.61Z"/><path class="cls-4" d="M46.14,60.63C46.75,68.88,61,79.4,66.67,84.58A135.74,135.74,0,0,0,95.33,105c20.46,10.64,46.53,15.35,68.49,6.46,12.81-5.19,23.71-17.2,10-28.58s-60-37.25-92.73-40a35.46,35.46,0,0,0-19.64,4.39c-4.8,2.57-14.69,5.82-15.29,12.41A5.5,5.5,0,0,0,46.14,60.63Z"/><path class="cls-6" d="M180.08,87.91c-.24.23-20.9,17.23-23.07,18.35-13.6,7-27.94-.54-27.94-.54L56.23,62.93s-8.61-5-11-8.8a19.27,19.27,0,0,1-2.8-7.79l-5-19.16S180.32,87.68,180.08,87.91Z"/><path class="cls-7" d="M133.3,101s13.29,7.13,27.29,2.61a40.63,40.63,0,0,1-3.58,2.6c-13.6,7-27.94-.54-27.94-.54L56.23,62.93s-8.61-5-11-8.8a19.27,19.27,0,0,1-2.8-7.79l-.1-.4A70.4,70.4,0,0,0,51,52Z"/><path class="cls-8" d="M154.68,42.41c24.63,14.86,25.39,45.51,25.39,45.51H180l-44.82-33.7Z"/><path class="cls-8" d="M135.13,54.21,180,87.9c-2.64-.18-47.29-3.37-71.18-17.79Z"/><polygon class="cls-8" points="154.69 42.41 108.78 70.11 37.51 27.18 37.51 27.18 82.97 0 154.69 42.41"/><polygon class="cls-9" points="149.95 41.97 107.84 67.39 41.46 27.41 41.46 27.41 83.17 2.48 149.95 41.97"/><polygon class="cls-6" points="149.95 41.97 146.15 44.27 83.17 7.02 83.17 2.48 149.95 41.97"/><polygon class="cls-10" points="83.17 2.48 83.17 2.48 83.17 7.02 83.17 7.02 45.24 29.7 41.46 27.41 83.17 2.48"/><path class="cls-11" d="M89,35.63l66.34,9.31a40,40,0,0,1,3.35,2.32l1.91-3.69,5.32,11.84a16.79,16.79,0,0,1,.93,2.08h0c2.2,6,.14,12-6.55,16-11.56,7-32.58,5.57-47.16-3.1L89,56.05Z"/><path class="cls-12" d="M93.8,38.6l61.56,6.34a40,40,0,0,1,3.35,2.32l1.91-3.69,5.32,11.84a16.79,16.79,0,0,1,.93,2.08h0c2.2,6,.14,12-6.55,16-11.56,7-32.58,5.57-47.16-3.1L93.8,58.87Z"/><path class="cls-8" d="M89,35.63l26.07,15.57c12.16,7.24,29.71,8.41,39.35,2.58s7.77-16.45-4.14-23.84l-25.9-15.73Z"/><path class="cls-8" d="M45,41.22a9.69,9.69,0,0,0,4.15,7.52h0c2.29,1.38,4.15.26,4.15-2.51v-.31a9.69,9.69,0,0,0-4.15-7.52h0C46.86,37,45,38.15,45,40.92Z"/><path class="cls-12" d="M45.51,41.51a8.52,8.52,0,0,0,3.65,6.61h0c2,1.22,3.65.23,3.65-2.2v-.27A8.52,8.52,0,0,0,49.16,39h0c-2-1.22-3.65-.23-3.65,2.2Z"/><path class="cls-8" d="M57.24,48.67a9.69,9.69,0,0,0,4.15,7.52h0c2.29,1.38,4.15.26,4.15-2.51v-.31a9.69,9.69,0,0,0-4.15-7.52h0c-2.29-1.38-4.15-.26-4.15,2.51Z"/><path class="cls-12" d="M57.82,49a8.33,8.33,0,0,0,3.57,6.46h0c2,1.19,3.57.23,3.57-2.15V53a8.33,8.33,0,0,0-3.57-6.46h0c-2-1.19-3.57-.23-3.57,2.15Z"/><g class="cls-1"><g class="cls-1"><g class="cls-1"><path class="cls-13" d="M146.57,41.65l0,7.16a.52.52,0,0,0,0,.2l0-7.16a.53.53,0,0,1,0-.2Z"/><path class="cls-6" d="M146.61,41.84l0,7.16a.85.85,0,0,0,.36.39,1.93,1.93,0,0,0,1,.25l0-7.16a1.93,1.93,0,0,1-1-.25.84.84,0,0,1-.36-.39Z"/><path class="cls-14" d="M148,42.48l0,7.16a1.92,1.92,0,0,0,1-.25.72.72,0,0,0,.41-.6l0-7.16a.72.72,0,0,1-.41.6,1.92,1.92,0,0,1-1,.25Z"/></g></g><path class="cls-15" d="M147,41a.64.64,0,0,0,0,1.19,2.07,2.07,0,0,0,2,0,.64.64,0,0,0,0-1.19A2.07,2.07,0,0,0,147,41Z"/></g><g class="cls-1"><g class="cls-1"><path class="cls-16" d="M142.33,41.2v.62a2.93,2.93,0,0,0,1.64,2.4,8.45,8.45,0,0,0,8,0,3,3,0,0,0,1.66-2.43v-.62a3,3,0,0,1-1.66,2.43,8.45,8.45,0,0,1-8,0,2.93,2.93,0,0,1-1.64-2.4Z"/></g><path class="cls-8" d="M144,38.77c-2.21,1.33-2.22,3.5,0,4.83a8.45,8.45,0,0,0,8,0c2.21-1.33,2.22-3.5,0-4.83A8.45,8.45,0,0,0,144,38.77Z"/></g><g class="cls-1"><g class="cls-1"><g class="cls-1"><path class="cls-13" d="M146.57,33.77l0,7.16a.52.52,0,0,0,0,.2l0-7.16a.53.53,0,0,1,0-.2Z"/><path class="cls-6" d="M146.61,34l0,7.16a.85.85,0,0,0,.36.39,1.93,1.93,0,0,0,1,.25l0-7.16a1.93,1.93,0,0,1-1-.25.84.84,0,0,1-.36-.39Z"/><path class="cls-14" d="M148,34.6l0,7.16a1.93,1.93,0,0,0,1-.25.72.72,0,0,0,.41-.6l0-7.16a.72.72,0,0,1-.41.6,1.92,1.92,0,0,1-1,.25Z"/></g></g><path class="cls-15" d="M147,33.17a.64.64,0,0,0,0,1.19,2.08,2.08,0,0,0,2,0,.64.64,0,0,0,0-1.19A2.07,2.07,0,0,0,147,33.17Z"/></g><g class="cls-1"><g class="cls-1"><path class="cls-16" d="M143.25,32.92v.52a2.45,2.45,0,0,0,1.37,2,7.07,7.07,0,0,0,6.67,0,2.47,2.47,0,0,0,1.39-2v-.52a2.47,2.47,0,0,1-1.39,2,7.07,7.07,0,0,1-6.67,0,2.45,2.45,0,0,1-1.37-2Z"/></g><path class="cls-8" d="M144.65,30.88c-1.85,1.12-1.86,2.93,0,4a7.07,7.07,0,0,0,6.67,0c1.85-1.12,1.86-2.92,0-4A7.07,7.07,0,0,0,144.65,30.88Z"/></g><g class="cls-1"><g class="cls-1"><g class="cls-1"><path class="cls-13" d="M146.57,25.52l0,7.16a.52.52,0,0,0,0,.2l0-7.16a.53.53,0,0,1,0-.2Z"/><path class="cls-6" d="M146.61,25.71l0,7.16a.85.85,0,0,0,.36.39,1.93,1.93,0,0,0,1,.25l0-7.16a1.93,1.93,0,0,1-1-.25.84.84,0,0,1-.36-.39Z"/><path class="cls-14" d="M148,26.35l0,7.16a1.92,1.92,0,0,0,1-.25.72.72,0,0,0,.41-.6l0-7.16a.72.72,0,0,1-.41.6,1.92,1.92,0,0,1-1,.25Z"/></g></g><path class="cls-15" d="M147,24.92a.64.64,0,0,0,0,1.19,2.08,2.08,0,0,0,2,0,.64.64,0,0,0,0-1.19A2.07,2.07,0,0,0,147,24.92Z"/></g><g class="cls-1"><g class="cls-1"><path class="cls-16" d="M144,24.9v.44a2.08,2.08,0,0,0,1.16,1.7,6,6,0,0,0,5.67,0A2.1,2.1,0,0,0,152,25.32v-.44a2.1,2.1,0,0,1-1.18,1.73,6,6,0,0,1-5.67,0A2.08,2.08,0,0,1,144,24.9Z"/></g><path class="cls-8" d="M145.15,23.17c-1.57.95-1.58,2.48,0,3.43a6,6,0,0,0,5.67,0c1.57-.95,1.58-2.48,0-3.43A6,6,0,0,0,145.15,23.17Z"/></g><g class="cls-1"><g class="cls-1"><g class="cls-1"><path class="cls-13" d="M147.2,16l-.47,9a.49.49,0,0,0,0,.18l.45-9.1a.29.29,0,0,1,0-.11Z"/><path class="cls-16" d="M147.22,16.06l-.45,9.1a.76.76,0,0,0,.33.35,1.73,1.73,0,0,0,.9.22l0-9.33a1,1,0,0,1-.54-.13.45.45,0,0,1-.2-.21Z"/><path class="cls-14" d="M148,16.4l0,9.33a1.73,1.73,0,0,0,.86-.22.65.65,0,0,0,.37-.54l-.53-9a.39.39,0,0,1-.22.32,1,1,0,0,1-.51.13Z"/></g></g><path class="cls-8" d="M147.42,15.63a.34.34,0,0,0,0,.64,1.12,1.12,0,0,0,1.06,0,.34.34,0,0,0,0-.64A1.12,1.12,0,0,0,147.42,15.63Z"/></g><polygon class="cls-17" points="116.47 11.91 122.31 8.36 129.04 32.73 123.2 36.28 116.47 11.91"/><polygon class="cls-8" points="106.53 6.03 112.37 2.48 122.31 8.36 116.47 11.91 106.53 6.03"/><polygon class="cls-14" points="116.47 11.91 123.2 36.28 109.64 28.21 106.53 6.03 116.47 11.91"/><g class="cls-1"><polygon class="cls-8" points="115.05 85.37 69.48 57.44 72.55 55.49 118.11 83.42 115.05 85.37"/><polygon class="cls-18" points="115.06 86.62 69.49 58.69 69.48 57.44 115.05 85.37 115.06 86.62"/></g><polygon class="cls-19" points="115.05 85.37 115.06 86.62 118.11 84.67 118.11 83.42 115.05 85.37"/><g class="cls-1"><polygon class="cls-8" points="87.35 19.49 76.51 12.91 82.42 9.34 93.26 15.93 87.35 19.49"/><polygon class="cls-19" points="87.37 21.73 76.53 15.15 76.51 12.91 87.35 19.49 87.37 21.73"/></g><polygon class="cls-20" points="87.35 19.49 87.37 21.73 93.26 18.18 93.26 15.93 87.35 19.49"/><g class="cls-1"><g class="cls-1"><g class="cls-1"><path class="cls-21" d="M70.3,38.64v1.64a4.16,4.16,0,0,0,2.33,3.41l.56.31V42.35q-.29-.15-.56-.31a4.16,4.16,0,0,1-2.33-3.41Z"/><path class="cls-22" d="M73.19,42.35V44a11.69,11.69,0,0,0,5.46,1.11V43.46a11.69,11.69,0,0,1-5.46-1.11Z"/><path class="cls-21" d="M78.65,43.46v1.64A11,11,0,0,0,84,43.68a4.19,4.19,0,0,0,2.36-3.45V38.59A4.19,4.19,0,0,1,84,42a11,11,0,0,1-5.3,1.42Z"/></g></g><path class="cls-8" d="M72.66,35.18c-3.14,1.9-3.15,5,0,6.86A12,12,0,0,0,84,42c3.14-1.89,3.15-5,0-6.86A12,12,0,0,0,72.66,35.18Z"/></g></g></g></g></svg>