<svg xmlns="http://www.w3.org/2000/svg" viewBox="0 0 242.73 173.83"><defs><style>.cls-1{isolation:isolate;}.cls-2{mix-blend-mode:multiply;}.cls-3{fill-opacity: 0.4; fill:#e6e7e8;}.cls-4{fill:#d74527;}.cls-5{fill:#de5f25;}.cls-6{fill:#95a9a7;}.cls-7,.cls-8{fill:#dde7e7;}.cls-7{opacity:0.5;}.cls-9{fill:#a9bab8;}.cls-10{fill:#2a2529;}.cls-11{fill:#fff;}.cls-12{fill:#6f626c;opacity:0.3;}.cls-13{fill:#e5e3e3;}.cls-14{fill:#4866b0;}.cls-15{fill:#f04c4d;}.cls-16{fill:#673923;}</style></defs><title>icn_compass_pad</title><g class="cls-1"><g id="Слой_2" data-name="Слой 2"><g id="Layer_1" data-name="Layer 1"><g class="cls-2"><path class="cls-3" d="M202.74,57.39C149.41,26.6,94.38,26.6,41.05,57.39h0c-26.66,15.39-40,31-40,46.68s13.33,31.28,40,46.68c53.33,30.79,108.36,30.79,161.69,0,26.66-15.39,40-31,40-46.68S229.4,72.78,202.74,57.39Z"/></g><path class="cls-4" d="M186.08,113.53c-49.2,28.4-100,28.4-149.18,0C12.3,99.32,0,84.89,0,70.46V91.95C0,106.38,12.3,120.81,36.9,135c49.2,28.41,100,28.41,149.18,0,24.6-14.2,36.9-28.63,36.9-43.06V70.46C223,84.89,210.68,99.32,186.08,113.53Z"/><path class="cls-5" d="M186.08,27.4C136.87-1,86.1-1,36.9,27.4h0C12.3,41.6,0,56,0,70.46s12.3,28.86,36.9,43.06c49.2,28.41,100,28.41,149.18,0,24.6-14.2,36.9-28.63,36.9-43.06S210.68,41.6,186.08,27.4Z"/><path class="cls-4" d="M176.12,37.26c32.21,18.6,32.21,48.75,0,67.34s-84.43,18.6-116.64,0-32.21-48.75,0-67.34S143.91,18.66,176.12,37.26Z"/><path class="cls-6" d="M160.45,13.34c-30.81-17.79-80.76-17.79-111.57,0-15,8.68-22.73,20-23.08,31.37q-.3,9.7,0,19.41c.36,11.38,8,22.69,23.08,31.37,30.81,17.79,80.76,17.79,111.57,0,15-8.68,22.73-20,23.08-31.37q.3-9.7,0-19.41C183.18,33.34,175.49,22,160.45,13.34Z"/><path class="cls-7" d="M65,6.26a88.11,88.11,0,0,0-16.09,7.08c-15,8.68-22.73,20-23.08,31.37q-.3,9.7,0,19.41c.36,11.38,8,22.69,23.08,31.37A88.11,88.11,0,0,0,65,102.58Z"/><path class="cls-8" d="M160.45,13.34c30.81,17.79,30.81,46.63,0,64.42s-80.76,17.79-111.57,0-30.81-46.63,0-64.42S129.64-4.45,160.45,13.34Z"/><path class="cls-9" d="M154,17c27.27,15.74,27.27,41.26,0,57s-71.47,15.74-98.74,0S28,32.79,55.3,17,126.77,1.3,154,17Z"/><path class="cls-10" d="M148.85,20C124.65,6,85.42,6,61.22,20s-24.2,36.75,0,50.76,63.43,14,87.63,0S173,34,148.85,20Z"/><path class="cls-11" d="M105.18,45.47V70h-.49V45.47H62.19v-.28h42.5V20.65h.49V45.19h42.5v.28ZM135,27.6,104.94,44.95,74.89,27.6l-.67.39,30.05,17.35L74.22,62.68l.67.39,30.05-17.35L135,63.07l.67-.39L105.61,45.33,135.66,28Zm-63,.58L69,26.47c-1.14-.66-2-1.13-2.91-1.6l0,0c1.09.23,2.34.42,3.59.58l5.68.76.9-.52-6.89-4-.84.48,2.88,1.66c1.07.62,1.93,1.09,2.93,1.58v0c-1-.22-2.16-.41-3.47-.58l-5.69-.74-1,.56,6.89,4Zm-.32,40.68-2.61-2.64a19.72,19.72,0,0,0-1.72-1.61h0c.79.35,1.61.65,2.7,1l4.46,1.57.93-.54-4.94-5.1-.91.52,2.57,2.53c.64.62,1.22,1.17,1.83,1.69h0c-.83-.36-1.83-.73-2.84-1.09L66.79,63.7l-.93.54,2.56,2.54c.65.65,1.26,1.25,1.83,1.71h0c-.79-.31-1.83-.7-2.89-1.08L63,65.87l-.94.54,8.64,3Zm70.57.18a6.51,6.51,0,0,0,2.2-.76c1.62-.94,1.49-1.92.43-2.54a4.81,4.81,0,0,0-3.78-.15c-1.32.34-2.05.4-2.7,0-.47-.27-.67-.8.27-1.35a5,5,0,0,1,1.64-.57l-.48-.56a5.59,5.59,0,0,0-1.86.68c-1.34.77-1.43,1.75-.36,2.37a4.92,4.92,0,0,0,3.77.08,3.37,3.37,0,0,1,2.67,0c.69.4.64,1-.27,1.51a5.91,5.91,0,0,1-2,.66Zm-1.89-44.61L137.67,26l-2.18-1.26,2.83-1.63-.75-.43-3.72,2.15,6.89,4,3.87-2.24-.75-.43-3,1.72L138.4,26.4l2.68-1.55Z"/><path class="cls-12" d="M148.74,20c24.14,13.94,24.14,36.53,0,50.47s-63.27,13.94-87.41,0S37.19,34,61.33,20,124.6,6.11,148.74,20Z"/><path class="cls-13" d="M60.6,19.63c-24.5,14.14-24.5,37.16,0,51.3s64.36,14.14,88.86,0,24.5-37.16,0-51.3S85.1,5.48,60.6,19.63ZM148,70.06c-23.66,13.66-62.17,13.66-85.83,0s-23.67-35.89,0-49.56,62.17-13.66,85.83,0S171.61,56.39,148,70.06Z"/><path class="cls-14" d="M88.92,69.66,101.3,62a4.17,4.17,0,0,0,1.59-1.61l20-39.8c.19-.38-.73-.6-1.06-.25L88.22,57a2.78,2.78,0,0,0-.8,1.79l-.3,10.44C87.1,69.79,88.27,70.06,88.92,69.66Z"/><path class="cls-15" d="M109.31,47.66l13.58-27c.19-.38-.73-.6-1.06-.25L101.13,42.93Z"/><path class="cls-16" d="M103.76,44.91a1.84,1.84,0,0,1,1.79-.44c.7.16,1,.63.76,1a1.83,1.83,0,0,1-1.79.44C103.81,45.78,103.48,45.31,103.76,44.91Z"/></g></g></g></svg>