<?xml version="1.0" encoding="utf-8"?>
<!-- Generator: Adobe Illustrator 16.0.2, SVG Export Plug-In . SVG Version: 6.00 Build 0)  -->
<!DOCTYPE svg PUBLIC "-//W3C//DTD SVG 1.1//EN" "http://www.w3.org/Graphics/SVG/1.1/DTD/svg11.dtd">
<svg version="1.1" id="Layer_1" xmlns="http://www.w3.org/2000/svg" xmlns:xlink="http://www.w3.org/1999/xlink" x="0px" y="0px"
	 width="270.399px" height="208.749px" viewBox="0 0 270.399 208.749" enable-background="new 0 0 270.399 208.749"
	 xml:space="preserve">
<path fill="#E5E5E5" fill-opacity="0.4" d="M225.845,79.036c-59.404-34.298-120.71-34.298-180.115,0c-29.702,17.147-44.553,34.57-44.553,51.995
	c0,17.422,14.851,34.845,44.553,51.994c59.405,34.298,120.71,34.298,180.116,0c29.703-17.147,44.554-34.572,44.554-51.994
	C270.397,113.608,255.547,96.186,225.845,79.036"/>
<polyline fill="none" points="270.399,53.313 1.176,53.313 1.176,208.749 270.399,208.749 270.399,53.313 "/>
<polyline fill="none" points="270.399,53.313 1.176,53.313 1.176,208.749 270.399,208.749 270.399,53.313 "/>
<path fill="#FF8A00" d="M207.284,69.568c-54.809-31.644-111.372-31.644-166.179,0C13.701,85.389-0.001,101.465,0,117.539
	c0,16.075,13.702,32.149,41.106,47.972c54.808,31.644,111.37,31.644,166.178,0c27.404-15.82,41.105-31.896,41.105-47.972
	C248.39,101.465,234.688,85.391,207.284,69.568"/>
<path fill="#203994" d="M207.284,141.574c-54.809,31.642-111.37,31.642-166.178-0.002C13.702,125.751,0,109.678,0,93.601v23.938
	c0,16.075,13.702,32.149,41.106,47.973c54.808,31.643,111.37,31.643,166.178,0c27.404-15.821,41.105-31.896,41.105-47.973V93.603
	C248.39,109.678,234.688,125.751,207.284,141.574"/>
<path fill="#1D5CA5" d="M207.284,45.631c-54.809-31.644-111.372-31.644-166.179,0C13.701,61.452-0.001,77.527,0,93.601
	c0,16.076,13.702,32.15,41.106,47.972c54.808,31.644,111.37,31.644,166.178,0.002c27.404-15.823,41.105-31.897,41.105-47.972
	C248.39,77.527,234.688,61.452,207.284,45.631"/>
<path fill="#203994" d="M26.259,119.824c-0.595,0.47,4.76,6.313,5.11,6.646c4.337,4.125,9.336,6.271,15.109,7.715
	c9.476,2.37,19.602,2.16,28.958-0.661c6.491-1.957,18.26-5.522,19.061-13.698c-0.473,4.838,14.375,11.143,17.991,12.748
	c11.664,5.182,24.894,5.594,37.123,2.256c9.859-2.691,21.75-8.104,22.688-19.747c0.532-6.604-1.535-10.942-5.521-16.132
	c10.026,2.51,23.106,2.702,32.289-2.688c9.334-5.481,16.012-24.688,0.639-26.878c-16.103-2.294-50.48-14.061-50.48-14.061
	L70.012,76.012c0,0-4.45,7.751,0.484,8.95C70.496,84.962,26.344,119.757,26.259,119.824"/>
<path fill="#F8A801" d="M123.319,56.915c-12.195-7.042-31.967-7.041-44.161,0c-6.098,3.521-9.146,8.135-9.146,12.748v6.35
	c0,4.614,3.048,9.228,9.146,12.75c12.194,7.039,31.966,7.039,44.161,0c6.097-3.522,9.146-8.136,9.146-12.75v-6.35
	C132.465,65.05,129.416,60.437,123.319,56.915"/>
<path fill="#F6FB55" d="M123.319,56.915c12.195,7.041,12.195,18.456,0,25.497c-12.195,7.039-31.967,7.039-44.161,0
	c-12.194-7.041-12.195-18.456,0-25.497C91.352,49.874,111.124,49.873,123.319,56.915"/>
<path fill="#FED429" d="M122.977,56.833c12.006,6.934,12.006,18.169,0,25.102c-12.005,6.933-31.471,6.933-43.477,0
	c-12.005-6.933-12.006-18.168,0-25.102C91.504,49.901,110.972,49.901,122.977,56.833"/>
<path fill="#FBE435" d="M122.977,56.833c-12.005-6.932-31.472-6.932-43.477,0c-10.443,6.028-11.8,15.313-4.08,22.19
	c10.871-8.098,29.193-18.481,52.067-18.884C126.242,58.963,124.74,57.852,122.977,56.833"/>
<path fill="#F8A801" d="M196.626,59.242c-12.195-7.042-31.967-7.04-44.161,0c-6.098,3.521-9.146,8.134-9.146,12.748v6.351
	c0,4.614,3.048,9.226,9.146,12.747c12.194,7.041,31.966,7.041,44.161,0c6.098-3.521,9.146-8.133,9.146-12.747V71.99
	C205.772,67.376,202.724,62.763,196.626,59.242"/>
<path fill="#F6FB55" d="M196.626,59.242c12.195,7.042,12.195,18.455,0,25.496c-12.195,7.039-31.967,7.039-44.161,0
	c-12.194-7.041-12.194-18.454,0-25.496C164.659,52.202,184.431,52.2,196.626,59.242"/>
<path fill="#FED429" d="M196.283,59.159c12.007,6.935,12.007,18.169,0,25.104c-12.005,6.931-31.472,6.931-43.478,0
	c-12.004-6.935-12.006-18.169,0-25.104C164.812,52.228,184.278,52.228,196.283,59.159"/>
<path fill="#FBE435" d="M196.283,59.159c-12.005-6.932-31.472-6.932-43.478,0c-10.441,6.029-11.799,15.313-4.08,22.192
	c10.873-8.1,29.193-18.482,52.068-18.886C199.548,61.29,198.046,60.178,196.283,59.159"/>
<path fill="#F8A801" d="M199.372,48.834c-12.195-7.042-31.966-7.041-44.161,0c-6.098,3.521-9.146,8.134-9.146,12.748v6.352
	c0,4.613,3.048,9.227,9.146,12.746c12.195,7.039,31.966,7.039,44.161,0c6.098-3.52,9.146-8.133,9.146-12.746v-6.352
	C208.519,56.968,205.47,52.354,199.372,48.834"/>
<path fill="#F6FB55" d="M199.372,48.834c12.195,7.041,12.195,18.456,0,25.496c-12.195,7.039-31.966,7.039-44.161,0
	c-12.192-7.04-12.194-18.455,0-25.496C167.406,41.793,187.177,41.792,199.372,48.834"/>
<path fill="#FED429" d="M199.03,48.752c12.006,6.934,12.006,18.169,0,25.103c-12.006,6.931-31.471,6.931-43.479,0
	c-12.004-6.934-12.004-18.169,0-25.103C167.558,41.819,187.024,41.819,199.03,48.752"/>
<path fill="#FBE435" d="M199.03,48.752c-12.006-6.933-31.473-6.933-43.479,0c-10.441,6.028-11.799,15.314-4.078,22.192
	c10.871-8.1,29.191-18.483,52.066-18.887C202.294,50.882,200.793,49.771,199.03,48.752"/>
<path fill="#F8A801" d="M191.044,39.572c-12.195-7.041-31.967-7.04-44.161,0c-6.099,3.521-9.147,8.134-9.147,12.748v6.352
	c0,4.614,3.049,9.228,9.147,12.746c12.194,7.041,31.966,7.041,44.161,0c6.098-3.519,9.146-8.132,9.146-12.746V52.32
	C200.19,47.706,197.142,43.093,191.044,39.572"/>
<path fill="#F6FB55" d="M191.044,39.572c12.195,7.042,12.195,18.457,0,25.497s-31.967,7.04-44.161,0
	c-12.194-7.04-12.196-18.455,0-25.497C159.077,32.532,178.849,32.531,191.044,39.572"/>
<path fill="#FED429" d="M190.701,39.49c12.006,6.935,12.006,18.17,0,25.104c-12.005,6.93-31.472,6.93-43.478,0
	c-12.004-6.934-12.006-18.169,0-25.104C159.229,32.559,178.696,32.559,190.701,39.49"/>
<path fill="#FBE435" d="M190.701,39.49c-12.005-6.932-31.472-6.932-43.478,0c-10.441,6.028-11.799,15.314-4.08,22.192
	c10.871-8.1,29.193-18.482,52.068-18.885C193.966,41.62,192.464,40.509,190.701,39.49"/>
<path fill="#F8A801" d="M197.125,33.215c-12.196-7.041-31.967-7.04-44.161,0c-6.098,3.521-9.146,8.134-9.146,12.748v6.351
	c0,4.614,3.049,9.228,9.146,12.749c12.194,7.04,31.965,7.04,44.161,0c6.097-3.521,9.146-8.135,9.146-12.749v-6.351
	C206.271,41.349,203.222,36.736,197.125,33.215"/>
<path fill="#F6FB55" d="M197.125,33.215c12.194,7.041,12.194,18.456,0,25.497c-12.196,7.04-31.967,7.04-44.161,0
	c-12.193-7.041-12.195-18.456,0-25.497C165.158,26.175,184.929,26.174,197.125,33.215"/>
<path fill="#FED429" d="M196.782,33.133c12.006,6.934,12.006,18.17,0,25.103c-12.006,6.932-31.471,6.932-43.477,0
	c-12.004-6.933-12.006-18.169,0-25.103C165.31,26.201,184.776,26.201,196.782,33.133"/>
<path fill="#FBE435" d="M196.782,33.133c-12.006-6.932-31.473-6.932-43.477,0c-10.443,6.028-11.801,15.314-4.08,22.191
	c10.871-8.099,29.193-18.482,52.068-18.886C200.046,35.262,198.546,34.15,196.782,33.133"/>
<path fill="#F8A801" d="M123.319,49.406c-12.195-7.041-31.967-7.04-44.161,0c-6.098,3.521-9.146,8.135-9.146,12.749v6.351
	c0,4.613,3.048,9.227,9.146,12.747c12.194,7.041,31.966,7.041,44.161,0c6.097-3.521,9.146-8.134,9.146-12.747v-6.351
	C132.465,57.541,129.416,52.928,123.319,49.406"/>
<path fill="#F6FB55" d="M123.319,49.406c12.195,7.042,12.195,18.457,0,25.496c-12.195,7.041-31.967,7.041-44.161,0
	c-12.194-7.039-12.195-18.454,0-25.496C91.352,42.366,111.124,42.365,123.319,49.406"/>
<path fill="#FED429" d="M122.977,49.324c12.006,6.935,12.006,18.17,0,25.103c-12.005,6.933-31.471,6.933-43.477,0
	c-12.005-6.933-12.006-18.168,0-25.103C91.504,42.393,110.972,42.393,122.977,49.324"/>
<path fill="#FBE435" d="M122.977,49.324c-12.005-6.932-31.472-6.932-43.477,0c-10.443,6.028-11.8,15.315-4.08,22.191
	c10.871-8.099,29.193-18.482,52.067-18.886C126.242,51.454,124.74,50.341,122.977,49.324"/>
<path fill="#F8A801" d="M126.597,40.724c-12.196-7.042-31.967-7.041-44.161,0c-6.098,3.521-9.146,8.134-9.146,12.748v6.351
	c0,4.614,3.048,9.228,9.146,12.747c12.194,7.041,31.965,7.041,44.161,0c6.097-3.52,9.146-8.133,9.146-12.747v-6.351
	C135.743,48.857,132.694,44.244,126.597,40.724"/>
<path fill="#F6FB55" d="M126.597,40.724c12.195,7.041,12.195,18.456,0,25.497c-12.196,7.039-31.967,7.039-44.161,0
	c-12.194-7.041-12.195-18.456,0-25.497C94.63,33.683,114.401,33.682,126.597,40.724"/>
<path fill="#FED429" d="M126.254,40.642c12.006,6.934,12.006,18.169,0,25.103c-12.005,6.93-31.471,6.93-43.477,0
	c-12.005-6.934-12.006-18.169,0-25.103C94.782,33.709,114.25,33.709,126.254,40.642"/>
<path fill="#FBE435" d="M126.254,40.642c-12.005-6.933-31.472-6.933-43.477,0c-10.443,6.028-11.799,15.314-4.08,22.191
	c10.872-8.1,29.193-18.482,52.068-18.885C129.519,42.771,128.018,41.659,126.254,40.642"/>
<path fill="#F8A801" d="M121.072,31.242c-12.196-7.041-31.967-7.04-44.161,0c-6.098,3.521-9.147,8.134-9.147,12.748v6.351
	c0,4.615,3.049,9.228,9.147,12.748c12.194,7.041,31.965,7.041,44.161,0c6.096-3.521,9.146-8.133,9.146-12.748V43.99
	C130.218,39.376,127.168,34.764,121.072,31.242"/>
<path fill="#F6FB55" d="M121.072,31.242c12.194,7.042,12.194,18.456,0,25.497c-12.196,7.04-31.967,7.04-44.161,0
	c-12.194-7.041-12.195-18.455,0-25.497C89.104,24.202,108.876,24.201,121.072,31.242"/>
<path fill="#FED429" d="M120.729,31.16c12.006,6.935,12.006,18.17,0,25.104c-12.005,6.931-31.47,6.931-43.477,0
	c-12.005-6.934-12.006-18.169,0-25.104C89.256,24.229,108.724,24.229,120.729,31.16"/>
<path fill="#FBE435" d="M120.729,31.16c-12.005-6.932-31.472-6.932-43.477,0c-10.442,6.028-11.799,15.314-4.08,22.192
	c10.872-8.1,29.193-18.483,52.068-18.887C123.994,33.29,122.492,32.179,120.729,31.16"/>
<path fill="#F8A801" d="M124.349,19.521c-12.195-7.041-31.967-7.04-44.16,0c-6.099,3.521-9.147,8.134-9.147,12.748v6.352
	c0,4.614,3.048,9.227,9.147,12.748c12.193,7.039,31.965,7.039,44.16,0c6.098-3.521,9.146-8.134,9.146-12.748v-6.352
	C133.495,27.654,130.447,23.042,124.349,19.521"/>
<path fill="#F6FB55" d="M124.349,19.521c12.195,7.041,12.195,18.457,0,25.497s-31.967,7.04-44.16,0
	c-12.194-7.04-12.196-18.456,0-25.497C92.382,12.48,112.154,12.479,124.349,19.521"/>
<path fill="#FED429" d="M124.006,19.438c12.006,6.934,12.006,18.169,0,25.104c-12.004,6.931-31.47,6.931-43.476,0
	c-12.005-6.935-12.007-18.17,0-25.104C92.534,12.507,112.002,12.507,124.006,19.438"/>
<path fill="#FBE435" d="M124.006,19.438c-12.004-6.932-31.472-6.932-43.476,0c-10.443,6.028-11.8,15.315-4.08,22.192
	c10.871-8.101,29.193-18.483,52.067-18.886C127.271,21.568,125.771,20.457,124.006,19.438"/>
<path fill="#F8A801" d="M130.379,5.281c-12.195-7.041-31.967-7.04-44.161,0c-6.098,3.521-9.146,8.135-9.146,12.749v6.351
	c0,4.614,3.048,9.227,9.146,12.748c12.194,7.04,31.966,7.04,44.161,0c6.097-3.521,9.147-8.134,9.147-12.748V18.03
	C139.526,13.416,136.476,8.803,130.379,5.281"/>
<path fill="#F6FB55" d="M130.379,5.281c12.194,7.041,12.194,18.457,0,25.497c-12.195,7.04-31.967,7.04-44.161,0
	c-12.194-7.04-12.195-18.456,0-25.497C98.412-1.759,118.184-1.76,130.379,5.281"/>
<path fill="#FED429" d="M130.036,5.199c12.006,6.933,12.006,18.169,0,25.104c-12.005,6.931-31.47,6.931-43.477,0
	c-12.004-6.935-12.005-18.171,0-25.104C98.564-1.732,118.031-1.732,130.036,5.199"/>
<path fill="#FBE435" d="M130.036,5.199c-12.005-6.932-31.472-6.932-43.477,0C76.117,11.228,74.76,20.515,82.48,27.392
	c10.871-8.1,29.193-18.483,52.067-18.887C133.301,7.329,131.8,6.218,130.036,5.199"/>
<path fill="#F8A801" d="M155.091,92.971c-12.195-7.041-31.967-7.039-44.16,0c-6.099,3.521-9.147,8.135-9.147,12.748v6.353
	c0,4.614,3.048,9.228,9.147,12.748c12.193,7.038,31.965,7.038,44.16,0c6.098-3.521,9.146-8.134,9.146-12.748v-6.353
	C164.237,101.105,161.188,96.492,155.091,92.971"/>
<path fill="#F6FB55" d="M155.091,92.971c12.195,7.041,12.195,18.457,0,25.496c-12.195,7.041-31.967,7.041-44.16,0
	c-12.194-7.039-12.195-18.455,0-25.496C123.124,85.932,142.896,85.93,155.091,92.971"/>
<path fill="#FED429" d="M154.748,92.889c12.007,6.935,12.007,18.17,0,25.104c-12.004,6.931-31.47,6.931-43.476,0
	c-12.005-6.935-12.006-18.17,0-25.104C123.276,85.957,142.744,85.957,154.748,92.889"/>
<path fill="#FBE435" d="M154.748,92.889c-12.004-6.932-31.472-6.932-43.476,0c-10.443,6.029-11.8,15.316-4.08,22.193
	c10.871-8.102,29.193-18.482,52.069-18.886C158.013,95.02,156.513,93.907,154.748,92.889"/>
<path fill="#F8A801" d="M147.32,85.463c-12.195-7.041-31.967-7.039-44.16,0c-6.098,3.521-9.147,8.135-9.147,12.75v6.351
	c0,4.614,3.049,9.228,9.147,12.748c12.193,7.041,31.965,7.041,44.16,0c6.097-3.521,9.146-8.134,9.146-12.748v-6.351
	C156.466,93.598,153.417,88.984,147.32,85.463"/>
<path fill="#F6FB55" d="M147.32,85.463c12.194,7.043,12.194,18.457,0,25.498c-12.195,7.039-31.967,7.039-44.16,0
	c-12.194-7.041-12.195-18.455,0-25.498C115.354,78.424,135.125,78.422,147.32,85.463"/>
<path fill="#FED429" d="M146.978,85.383c12.006,6.933,12.006,18.168,0,25.103c-12.004,6.931-31.471,6.931-43.477,0
	c-12.005-6.935-12.006-18.17,0-25.103C115.506,78.451,134.973,78.451,146.978,85.383"/>
<path fill="#FBE435" d="M146.978,85.383c-12.004-6.932-31.472-6.932-43.477,0c-10.442,6.027-11.8,15.314-4.08,22.191
	c10.871-8.1,29.193-18.482,52.068-18.886C150.243,87.512,148.741,86.401,146.978,85.383"/>
<path fill="#F8A801" d="M152.846,76.547c-12.194-7.04-31.966-7.04-44.161,0c-6.097,3.521-9.145,8.135-9.145,12.748v6.351
	c0,4.614,3.048,9.228,9.145,12.747c12.195,7.041,31.967,7.041,44.161,0c6.097-3.52,9.146-8.133,9.146-12.747v-6.351
	C161.991,84.682,158.942,80.067,152.846,76.547"/>
<path fill="#F6FB55" d="M152.846,76.547c12.196,7.041,12.196,18.457,0,25.496c-12.194,7.041-31.966,7.041-44.161,0
	c-12.193-7.039-12.194-18.455,0-25.496C120.88,69.507,140.651,69.507,152.846,76.547"/>
<path fill="#FED429" d="M152.503,76.465c12.006,6.935,12.006,18.17,0,25.103c-12.004,6.931-31.471,6.931-43.477,0
	c-12.004-6.933-12.006-18.168,0-25.103C121.031,69.534,140.499,69.534,152.503,76.465"/>
<path fill="#FBE435" d="M152.503,76.465c-12.004-6.931-31.472-6.931-43.477,0c-10.442,6.027-11.8,15.314-4.079,22.191
	c10.87-8.1,29.192-18.482,52.067-18.884C155.769,78.596,154.267,77.483,152.503,76.465"/>
<path fill="#F8A801" d="M79.565,92.971c-12.195-7.041-31.967-7.039-44.161,0c-6.098,3.521-9.145,8.135-9.145,12.748v6.353
	c0,4.614,3.047,9.228,9.145,12.748c12.194,7.038,31.966,7.038,44.161,0c6.097-3.521,9.146-8.134,9.146-12.748v-6.353
	C88.711,101.105,85.663,96.492,79.565,92.971"/>
<path fill="#F6FB55" d="M79.565,92.971c12.195,7.041,12.195,18.457,0,25.496c-12.195,7.041-31.967,7.041-44.161,0
	c-12.193-7.039-12.195-18.455,0-25.496C47.599,85.932,67.371,85.93,79.565,92.971"/>
<path fill="#FED429" d="M79.223,92.889c12.006,6.935,12.006,18.17,0,25.104c-12.004,6.931-31.471,6.931-43.476,0
	c-12.005-6.935-12.007-18.17,0-25.104C47.75,85.957,67.219,85.957,79.223,92.889"/>
<path fill="#FBE435" d="M79.223,92.889c-12.004-6.932-31.472-6.932-43.476,0c-10.443,6.029-11.8,15.316-4.08,22.193
	C42.538,106.98,60.86,96.6,83.733,96.196C82.489,95.02,80.987,93.907,79.223,92.889"/>
</svg>
