<?xml version="1.0" encoding="utf-8"?>
<!-- Generator: Adobe Illustrator 16.0.2, SVG Export Plug-In . SVG Version: 6.00 Build 0)  -->
<!DOCTYPE svg PUBLIC "-//W3C//DTD SVG 1.1//EN" "http://www.w3.org/Graphics/SVG/1.1/DTD/svg11.dtd">
<svg version="1.1" id="Layer_1" xmlns="http://www.w3.org/2000/svg" xmlns:xlink="http://www.w3.org/1999/xlink" x="0px" y="0px"
	 width="270.876px" height="193.981px" viewBox="0 0 270.876 193.981" enable-background="new 0 0 270.876 193.981"
	 xml:space="preserve">
<path fill="#E5E5E5" fill-opacity="0.4" d="M226.244,64.039c-59.51-34.357-120.924-34.357-180.434,0C16.056,81.217,1.179,98.671,1.179,116.126
	c0,17.453,14.877,34.906,44.631,52.087c59.51,34.357,120.924,34.357,180.435,0c29.755-17.179,44.632-34.634,44.632-52.087
	C270.875,98.672,255.998,81.219,226.244,64.039"/>
<polyline fill="none" points="270.876,193.981 270.876,38.27 1.178,38.27 1.178,193.981 270.876,193.981 "/>
<polyline fill="none" points="270.876,193.981 270.876,38.27 1.178,38.27 1.178,193.981 270.876,193.981 "/>
<path fill="#E21E00" d="M207.65,126.688c-54.904,31.698-111.566,31.698-166.471-0.002C13.726,110.837,0,94.734,0,78.63v23.98
	c0,16.104,13.726,32.206,41.179,48.057c54.905,31.699,111.566,31.699,166.471,0c27.453-15.85,41.18-31.952,41.18-48.057V78.631
	C248.83,94.734,235.103,110.837,207.65,126.688"/>
<path fill="#E93B00" d="M207.65,30.574c-54.906-31.699-111.568-31.699-166.473,0C13.725,46.425-0.001,62.526,0,78.631
	c0,16.104,13.726,32.206,41.179,48.055c54.905,31.701,111.566,31.701,166.471,0.002c27.453-15.851,41.18-31.953,41.18-48.056
	C248.83,62.528,235.103,46.425,207.65,30.574"/>
<path fill="#E21E00" d="M196.538,41.577c35.944,20.753,35.944,54.4,0,75.153c-35.945,20.753-94.223,20.753-130.168,0
	c-35.945-20.753-35.945-54.4,0-75.153C102.314,20.823,160.592,20.823,196.538,41.577"/>
<path fill="#8F9E90" d="M179.054,14.888c-34.381-19.851-90.125-19.851-124.507,0C37.766,24.576,29.185,37.2,28.789,49.896
	c-0.226,7.22-0.226,14.446,0,21.665c0.396,12.696,8.977,25.32,25.758,35.009c34.382,19.851,90.126,19.851,124.507,0
	c16.78-9.688,25.361-22.313,25.758-35.009c0.227-7.219,0.227-14.445,0-21.664C204.416,37.2,195.834,24.576,179.054,14.888"/>
<g opacity="0.5">
	<g>
		<defs>
			<rect id="SVGID_1_" x="28.619" y="6.989" width="43.888" height="107.479"/>
		</defs>
		<clipPath id="SVGID_2_">
			<use xlink:href="#SVGID_1_"  overflow="visible"/>
		</clipPath>
		<path clip-path="url(#SVGID_2_)" fill="#E0EAE3" d="M72.507,6.988c-6.401,2.143-12.476,4.732-17.96,7.899
			C37.766,24.575,29.185,37.2,28.788,49.896c-0.225,7.219-0.225,14.447,0,21.665c0.397,12.697,8.978,25.321,25.759,35.009
			c5.484,3.167,11.559,5.758,17.96,7.898V6.988z"/>
	</g>
</g>
<path fill="#E0EAE3" d="M179.054,14.888c34.383,19.851,34.383,52.035,0,71.886c-34.381,19.851-90.125,19.851-124.507,0
	c-34.382-19.851-34.382-52.035,0-71.886C88.929-4.963,144.673-4.963,179.054,14.888"/>
<path fill="#A6B3A6" d="M171.893,19.022c30.427,17.566,30.427,46.049,0,63.615c-30.427,17.568-79.758,17.568-110.185,0
	c-30.427-17.566-30.427-46.049,0-63.615C92.135,1.456,141.466,1.456,171.893,19.022"/>
<path fill="#1A1216" d="M166.109,22.315c-27.004-15.643-70.789-15.643-97.792,0c-27.004,15.645-27.004,41.007,0,56.65
	s70.789,15.644,97.792,0S193.113,37.96,166.109,22.315"/>
<path fill="#FFFFFF" d="M117.381,50.745l-0.002,27.383h-0.547l-0.001-27.383H69.404v-0.316l47.427-0.001l0.001-27.382h0.547
	l0.002,27.382l47.426,0.001v0.316H117.381z M150.642,30.794l-33.536,19.362L83.57,30.794l-0.746,0.431l33.537,19.362L82.824,69.949
	l0.746,0.43l33.536-19.361l33.536,19.361l0.745-0.43l-33.536-19.362l33.536-19.362L150.642,30.794z M80.321,31.438l-3.285-1.896
	c-1.277-0.736-2.223-1.258-3.251-1.784l0.024-0.026c1.22,0.257,2.612,0.468,4.003,0.651l6.341,0.844l1.004-0.58l-7.687-4.438
	l-0.936,0.54l3.217,1.857c1.197,0.69,2.155,1.218,3.273,1.758l-0.011,0.02c-1.152-0.243-2.407-0.454-3.878-0.645l-6.353-0.823
	l-1.084,0.625l7.687,4.438L80.321,31.438z M79.967,76.831l-2.909-2.944c-0.706-0.736-1.289-1.271-1.916-1.791l0.023-0.013
	c0.88,0.389,1.791,0.73,3.011,1.159l4.973,1.751l1.037-0.599l-5.508-5.696l-1.015,0.586l2.863,2.826
	c0.719,0.69,1.357,1.31,2.041,1.89l-0.022,0.013c-0.924-0.4-2.042-0.811-3.171-1.212l-4.836-1.712L73.5,71.688l2.852,2.832
	c0.729,0.725,1.402,1.39,2.041,1.903l-0.022,0.013c-0.879-0.349-2.043-0.782-3.229-1.205l-4.801-1.719l-1.049,0.605l9.637,3.313
	L79.967,76.831z M158.721,77.037c0.685-0.08,1.711-0.422,2.452-0.85c1.814-1.047,1.666-2.146,0.479-2.832
	c-1.129-0.652-2.418-0.632-4.219-0.171c-1.473,0.375-2.293,0.441-3.012,0.026c-0.525-0.303-0.752-0.895,0.297-1.501
	c0.695-0.401,1.438-0.566,1.824-0.632l-0.534-0.626c-0.537,0.085-1.291,0.31-2.077,0.764c-1.495,0.862-1.598,1.949-0.398,2.641
	c1.084,0.625,2.51,0.553,4.209,0.087c1.436-0.37,2.256-0.371,2.976,0.045c0.776,0.447,0.719,1.1-0.296,1.686
	c-0.684,0.396-1.563,0.639-2.282,0.737L158.721,77.037z M156.617,27.259l-2.987,1.727l-2.429-1.403l3.158-1.824l-0.832-0.48
	l-4.152,2.396l7.687,4.439l4.323-2.497l-0.833-0.48l-3.33,1.923l-2.771-1.601l2.987-1.724L156.617,27.259z"/>
<g opacity="0.3">
	<g>
		<defs>
			<rect id="SVGID_3_" x="48.237" y="10.705" width="137.951" height="79.646"/>
		</defs>
		<clipPath id="SVGID_4_">
			<use xlink:href="#SVGID_3_"  overflow="visible"/>
		</clipPath>
		<path clip-path="url(#SVGID_4_)" fill="#5C4451" d="M165.986,22.369c26.937,15.552,26.937,40.768,0,56.318
			c-26.938,15.553-70.609,15.553-97.545,0c-26.937-15.551-26.937-40.767,0-56.318C95.376,6.817,139.048,6.817,165.986,22.369"/>
	</g>
</g>
<path fill="#E7E4DF" d="M67.629,21.901C40.292,37.686,40.291,63.369,67.63,79.156c27.339,15.782,71.825,15.782,99.162,0
	c27.339-15.785,27.339-41.47,0-57.254C139.453,6.117,94.967,6.118,67.629,21.901 M165.105,78.18
	c-26.408,15.247-69.376,15.247-95.786,0c-26.408-15.247-26.41-40.056-0.001-55.303C95.728,7.63,138.697,7.63,165.105,22.878
	C191.513,38.125,191.513,62.933,165.105,78.18"/>
<path fill="#3D429C" d="M99.235,77.737l13.813-8.501c0.828-0.509,1.436-1.124,1.773-1.796l22.328-44.413
	c0.214-0.427-0.819-0.669-1.179-0.275L98.444,63.609c-0.567,0.617-0.873,1.303-0.893,2.002l-0.334,11.654
	C97.199,77.882,98.505,78.187,99.235,77.737"/>
<path fill="#FB262D" d="M121.989,53.182l15.159-30.154c0.215-0.427-0.818-0.669-1.179-0.276l-23.108,25.161L121.989,53.182z"/>
<path fill="#541F0F" d="M115.791,50.113c0.318-0.452,1.212-0.671,1.996-0.487c0.785,0.184,1.163,0.699,0.845,1.152
	c-0.318,0.453-1.212,0.672-1.996,0.488C115.851,51.082,115.473,50.566,115.791,50.113"/>
</svg>
