<?xml version="1.0" standalone="no"?>
<!DOCTYPE svg PUBLIC "-//W3C//DTD SVG 1.1//EN" "http://www.w3.org/Graphics/SVG/1.1/DTD/svg11.dtd" >
<svg xmlns="http://www.w3.org/2000/svg" xmlns:xlink="http://www.w3.org/1999/xlink" version="1.1">
<metadata>
Created by FontForge 20160407 at Fri Sep  9 14:51:20 2016
 By Jimmy Warting
Copyright (c) 2009 by Muthu Nedumaran. All rights reserved.
</metadata>
<defs>
<font id="KannadaSangamMN-Bold" horiz-adv-x="0" >
  <font-face 
    font-family="Kannada Sangam MN"
    font-weight="700"
    font-stretch="normal"
    units-per-em="1900"
    panose-1="2 0 0 0 0 0 0 0 0 0"
    ascent="1520"
    descent="-380"
    x-height="1018"
    cap-height="1415"
    bbox="-1412 -1159 3296 1596"
    underline-thickness="102"
    underline-position="-205"
    unicode-range="U+0020-25CC"
  />
<missing-glyph 
 />
    <glyph glyph-name="kn_matra_o" unicode="&#xcc6;&#xcc2;" horiz-adv-x="2364" 
d="M1311 160q36 0 56.5 29.5t31.5 80t14 117.5t3 143q0 50 7 107t23.5 112t43.5 105.5t66.5 89t92.5 61.5t123 23q93 0 175 -40t143.5 -116t97.5 -186.5t36 -250.5q0 -92 -22.5 -172.5t-65 -141.5t-104.5 -96t-141 -35q-65 0 -111 24.5t-76 63.5t-44 87.5t-14 96.5
q0 54 17.5 102.5t50.5 85t81 58.5t108 22q29 0 64.5 -10.5t65.5 -46.5q-4 73 -22 142t-50.5 123t-80 87t-110.5 33q-30 0 -53.5 -15.5t-41 -41.5t-29 -60t-19 -72t-10.5 -76.5t-3 -73.5q0 -59 -2.5 -121t-12 -121t-29.5 -111t-54 -91t-85 -62t-124 -23q-91 0 -160 43
t-118 122l79 185q17 -50 41 -84.5t51 -55.5t55 -30.5t52 -9.5h4zM973 873q43 -40 75 -92l-102 -72q-51 82 -134 132l5 7h-442l5 -7q-84 -49 -134 -132l-102 72q21 36 49 67h-156v170h794q37 0 68.5 12t55 33.5t36.5 51t13 65.5q0 34 -11 63.5t-31.5 51t-49.5 33.5t-64 12
q-30 0 -56.5 -6t-46 -18t-30.5 -30.5t-11 -43.5q0 -17 8 -36q18 24 32.5 37.5t27 20t24 8.5t23.5 2q38 0 61 -27.5t23 -66.5q0 -48 -37.5 -79.5t-103.5 -31.5q-40 0 -73 13t-57 36.5t-37.5 54.5t-13.5 67q0 50 20.5 89t56.5 66t85.5 41t107.5 14q86 0 145.5 -25.5t96 -66.5
t53 -91.5t16.5 -101.5q0 -40 -10.5 -83t-33 -82.5t-58.5 -73t-87 -53.5zM1919 360q-34 0 -59.5 -25.5t-25.5 -70.5q0 -51 24.5 -77.5t58.5 -26.5q16 0 33 7.5t31 23t24.5 39t14.5 55.5q-13 24 -26 39t-26 23t-25.5 10.5t-23.5 2.5zM1048 238q-63 -100 -164 -165l-72 104
q83 50 134 134zM1120 509q0 -57 -12 -115l-125 23q9 43 9 92q0 48 -9 95l125 19q12 -59 12 -114zM380 177l-73 -104q-102 66 -163 165l102 73q50 -86 134 -134zM710 -2q-56 -13 -115 -13q-28 0 -57 3t-58 10l23 125q46 -11 93 -11q46 0 93 11zM208 417l-124 -23
q-7 28 -10 57t-3 58q0 62 13 114l124 -19q-5 -23 -7.5 -47t-2.5 -48q0 -51 10 -92z" />
    <glyph glyph-name="kn_kssa" unicode="&#xc95;&#xccd;&#xcb7;" horiz-adv-x="1264" 
d="M36 848v170h732q69 0 106 32.5t37 83.5q0 16 -6 33.5t-15 34t-20.5 32t-23.5 26.5l119 114q67 -66 100 -130.5t33 -121.5q0 -54 -19 -103.5t-58.5 -87.5t-102 -60.5t-149.5 -22.5h-126v-66h407v-111h-180q37 -21 70 -51.5t57.5 -67t38.5 -76.5t14 -80q0 -99 -53 -182
t-144 -139q87 -66 139 -132t80.5 -140t38.5 -161.5t12 -197.5l-157 -21q2 26 3.5 50t1.5 49q0 44 -6 101q-14 -45 -35 -74t-47 -46t-55 -23.5t-58 -6.5q-73 0 -132.5 36t-94.5 114q-37 -79 -98.5 -114.5t-134.5 -35.5q-51 0 -101.5 13.5t-90.5 44t-64.5 79.5t-24.5 121
q0 65 29 114.5t74 82.5t100.5 50t109.5 17l-17 -166q-11 -1 -28 -6t-34 -16.5t-29 -32t-12 -51.5q0 -24 10 -43t25.5 -31.5t33.5 -19t33 -6.5q33 0 57.5 14t40 38.5t23.5 57t8 70.5h179q0 -82 38.5 -131t105.5 -49q50 0 84 35t34 98q0 39 -18.5 72.5t-44 59.5t-52 45
t-42.5 29l72 88q-59 -29 -126 -44.5t-140 -15.5q-105 0 -197.5 32t-161.5 87t-108.5 129t-39.5 158q0 39 11 77.5t33 74.5t56 67.5t80 55.5h-180v111h408v66h-408zM235 396q0 -49 24 -92t66 -75t98 -50.5t120 -18.5t120 18.5t98 50.5t66 75t24 92t-24 92t-66 75t-98 50.5
t-120 18.5t-120 -18.5t-98 -50.5t-66 -75t-24 -92z" />
    <glyph glyph-name="kn_jnya" unicode="&#xc9c;&#xccd;&#xc9e;" horiz-adv-x="1456" 
d="M408 -10q-54 0 -114 15t-110.5 51t-83 95t-32.5 146q0 60 24.5 106t63.5 83.5t87 68t95 58.5q31 18 59.5 35.5t50 36t34.5 39t13 44.5q0 22 -9 37t-23 24.5t-31 14t-33 4.5q-31 0 -55 -14t-41 -36t-28.5 -47.5t-16.5 -48.5q-51 19 -91 35q-17 7 -33.5 14t-29.5 13
t-20.5 11t-7.5 8q15 49 41.5 93.5t66.5 78t92 53.5t118 20q102 0 172.5 -39t101.5 -112q51 -45 106.5 -73.5t118.5 -28.5q29 0 49.5 18t20.5 46q0 17 -11 37t-26 35l142 81q42 -39 68 -86t26 -84q0 -43 -20 -81t-55 -66t-84 -44t-106 -16q-66 0 -120.5 16.5t-99.5 42.5
q-16 -33 -43.5 -63.5t-61 -56.5t-69.5 -49t-69 -41q-32 -18 -62 -36t-53.5 -38t-38 -43.5t-14.5 -51.5q0 -38 15 -64t38 -42t50.5 -22.5t53.5 -6.5q30 0 60 15.5t54.5 45t41 71t19.5 93.5h195q4 -42 16 -82t33 -72t51.5 -51.5t71.5 -19.5q24 0 48 9t43.5 27t31.5 45.5
t12 65.5q0 37 -14.5 62.5t-36.5 41t-46.5 23.5t-44.5 10l-20 166q61 0 124.5 -17.5t116 -54t86 -92.5t33.5 -133q0 -86 -29.5 -147t-77 -100t-106.5 -57.5t-118 -18.5q-89 0 -158.5 30.5t-111.5 89.5q-45 -55 -121.5 -87.5t-167.5 -32.5zM1022 -300q0 -42 -11.5 -94.5
t-45.5 -100.5q29 -27 47 -62t18 -74q0 -30 -9 -57t-23.5 -51t-32.5 -44t-35 -36l-106 72q19 20 30.5 34.5t18 26.5t9 22t2.5 21q0 5 -2.5 15t-18.5 19q-21 -23 -50.5 -46.5t-66 -42t-80 -30.5t-91.5 -12q-59 0 -110 12t-89.5 34.5t-60.5 54.5t-22 71q0 46 29 82.5t77 62
t109 38.5t125 13q52 0 100 -10t90 -27q6 22 10.5 47t4.5 47t-5.5 44.5t-17.5 41t-30.5 30t-44.5 11.5q-19 0 -39.5 -8t-38.5 -25.5t-31.5 -45t-18.5 -66.5h-144q-7 39 -22.5 67t-35.5 45t-44 25t-49 8q-34 0 -56.5 -20t-22.5 -48q0 -36 22 -64t70 -57l-92 -99
q-38 12 -74 33.5t-64 51.5t-44.5 67.5t-16.5 81.5q0 51 21.5 90.5t57.5 67t83 41.5t99 14q44 0 82 -12t68.5 -31.5t53.5 -44.5t36 -51q18 29 41.5 54.5t52.5 44t63 29.5t72 11q48 0 90 -19.5t75 -52.5q30 30 68.5 51t96.5 21q42 0 81.5 -13t70.5 -39.5t50 -67t19 -94.5
q0 -63 -38.5 -123t-125.5 -118l-89 112q29 25 50.5 55t21.5 80q0 29 -17.5 48t-43.5 19q-11 0 -29.5 -9.5t-40.5 -39.5q14 -40 14 -81zM628 -506q-22 0 -46 -4t-44.5 -12.5t-33.5 -21.5t-13 -31q0 -11 7 -19.5t18.5 -14.5t25.5 -9t28 -3q49 0 98.5 22.5t83.5 68.5
q-20 8 -51 16t-73 8z" />
    <glyph glyph-name=".notdef" 
 />
    <glyph glyph-name="A" unicode="A" horiz-adv-x="1298" 
d="M783 1415l515 -1415h-234l-151 419h-526l-151 -419h-236l521 1415h262zM650 1145q-25 -70 -49.5 -137.5l-49 -135t-49.5 -136t-50 -141.5h394z" />
    <glyph glyph-name="B" unicode="B" horiz-adv-x="1208" 
d="M88 1415h570q98 0 175.5 -27.5t131.5 -74t82.5 -109.5t28.5 -133q0 -93 -43.5 -174t-134.5 -141q70 -27 119.5 -64t80.5 -82t45 -96t14 -105q0 -84 -36 -158.5t-96.5 -130t-139.5 -88t-164 -32.5h-633v1415zM311 840h314q52 0 96.5 17t76 45.5t49.5 67t18 81.5
q0 39 -12.5 72.5t-39 58t-67 38.5t-95.5 14h-340v-394zM311 180h349q48 0 96.5 14t87 43t63 73.5t24.5 105.5q0 50 -22 95t-64 79t-102 54t-136 20h-296v-484z" />
    <glyph glyph-name="C" unicode="C" horiz-adv-x="1383" 
d="M285 725q0 -150 37 -260.5t97.5 -183.5t137 -108.5t155.5 -35.5q81 0 147 32.5t115.5 85.5t81.5 121t46 140h226q-22 -116 -72.5 -217.5t-128 -176.5t-182 -118.5t-233.5 -43.5q-149 0 -269.5 52t-205 151t-130.5 241.5t-46 322.5q0 93 19.5 183t57.5 171t93.5 149
t128 118t160 78t190.5 28q131 0 233.5 -36t179.5 -99.5t129 -151.5t82 -193h-231q-54 154 -149.5 229t-243.5 75q-94 0 -172 -45t-134.5 -120.5t-87.5 -176t-31 -211.5z" />
    <glyph glyph-name="D" unicode="D" horiz-adv-x="1347" 
d="M89 1415h546q145 0 261 -55.5t197.5 -151.5t125.5 -224.5t44 -273.5q0 -150 -46 -280t-129 -225.5t-198.5 -150t-254.5 -54.5h-546v1415zM310 180h266q100 0 184.5 35.5t146 103.5t96 166t34.5 223q0 136 -35 235.5t-96.5 164t-146 95.5t-183.5 31h-266v-1054z" />
    <glyph glyph-name="E" unicode="E" horiz-adv-x="1161" 
d="M1078 1415v-181h-767v-413h721v-181h-721v-460h800v-180h-1023v1415h990z" />
    <glyph glyph-name="F" unicode="F" horiz-adv-x="1104" 
d="M1056 1415v-181h-746v-413h648v-181h-648v-640h-222v1415h968z" />
    <glyph glyph-name="G" unicode="G" horiz-adv-x="1439" 
d="M285 710q0 -135 34.5 -241t93.5 -178.5t137 -111t166 -38.5q73 0 143.5 37.5t127 99.5t94 142t45.5 166h-423v177h640v-763h-161l-32 181q-40 -44 -90 -83.5t-106 -69t-115.5 -47t-118.5 -17.5q-152 0 -274 57.5t-207.5 158t-131.5 236.5t-46 294q0 92 19.5 183
t57.5 173.5t93.5 153.5t128 123t160 81.5t190.5 29.5q131 0 233.5 -36t179.5 -99.5t129 -151.5t82 -193h-231q-54 154 -149.5 229t-243.5 75q-94 0 -172 -45.5t-134.5 -123.5t-87.5 -181t-31 -218z" />
    <glyph glyph-name="H" unicode="H" horiz-adv-x="1313" 
d="M312 1415v-594h666v594h223v-1415h-223v644h-666v-644h-223v1415h223z" />
    <glyph glyph-name="I" unicode="I" horiz-adv-x="401" 
d="M308 1415v-1415h-222v1415h222z" />
    <glyph glyph-name="J" unicode="J" horiz-adv-x="964" 
d="M861 1415v-1033q0 -113 -33.5 -193t-90.5 -131t-132 -74.5t-158 -23.5q-80 0 -153.5 24.5t-130.5 72.5t-91 119.5t-34 165.5v131h222v-113q0 -58 17 -100t44.5 -69.5t61.5 -40.5t68 -13q27 0 60 11t61 37.5t47 70t19 108.5v1051h223z" />
    <glyph glyph-name="K" unicode="K" horiz-adv-x="1272" 
d="M312 1415v-641l639 641h280l-567 -563l588 -852h-267l-471 698l-202 -197v-501h-223v1415h223z" />
    <glyph glyph-name="L" unicode="L" horiz-adv-x="1030" 
d="M310 1415v-1235h687v-180h-910v1415h223z" />
    <glyph glyph-name="M" unicode="M" horiz-adv-x="1530" 
d="M338 1415l404 -1087l412 1087h258v-1415h-223v967l-341 -967h-194l-349 969v-969h-224v1415h257z" />
    <glyph glyph-name="N" unicode="N" horiz-adv-x="1295" 
d="M349 1415l631 -1071v1071h223v-1415h-261l-630 1071v-1071h-223v1415h260z" />
    <glyph glyph-name="O" unicode="O" horiz-adv-x="1472" 
d="M1375 706q0 -164 -43.5 -300t-126.5 -234.5t-204.5 -153t-278.5 -54.5q-156 0 -277.5 54.5t-204.5 153t-126 234.5t-43 300q0 163 43 299t126 234.5t204.5 153t277.5 54.5q157 0 278.5 -54.5t204.5 -153t126.5 -234.5t43.5 -299zM1151 706q0 133 -33 237.5t-91 177
t-136.5 111t-168.5 38.5t-168 -38.5t-135.5 -111t-90.5 -177t-33 -237.5t33 -238t90.5 -177.5t135.5 -111t168 -38.5t168.5 38.5t136.5 111t91 177.5t33 238z" />
    <glyph glyph-name="P" unicode="P" horiz-adv-x="1175" 
d="M88 1415h556q109 0 193.5 -37t142 -96t87 -132.5t29.5 -147.5q0 -80 -30 -154.5t-87.5 -133t-141.5 -93.5t-193 -35h-333v-586h-223v1415zM311 763h333q46 0 87 18.5t72.5 51t50 76.5t18.5 95q0 49 -17.5 91.5t-48 73t-72 48t-90.5 17.5h-333v-471z" />
    <glyph glyph-name="Q" unicode="Q" horiz-adv-x="1483" 
d="M1365 706q0 -155 -42.5 -288t-120.5 -234q23 -23 49 -48.5t52 -52t51 -51.5t47 -46l-136 -132l-204 203q-72 -45 -159 -69t-190 -24q-156 0 -277 54.5t-204.5 153t-126.5 234.5t-43 300q0 163 43 299t126.5 234.5t204.5 153t277 54.5q157 0 278.5 -54.5t204.5 -153
t126.5 -234.5t43.5 -299zM1142 706q0 133 -33 237.5t-91 177t-136.5 111t-169.5 38.5q-90 0 -168 -38.5t-135.5 -111t-90.5 -177t-33 -237.5t33 -238t90.5 -177.5t135.5 -111t168 -38.5q56 0 106 14t98 44l-137 138l135 138l136 -139q44 69 68 161.5t24 208.5z" />
    <glyph glyph-name="R" unicode="R" horiz-adv-x="1208" 
d="M1138 1002q0 -94 -42.5 -181.5t-127.5 -148.5q47 -20 76.5 -50t46.5 -67t23 -78.5t6 -83.5v-207q0 -45 16 -92.5t41 -93.5h-237q-13 22 -21 46.5t-12.5 48.5t-6 45.5t-1.5 37.5v217q0 35 -11.5 69.5t-36.5 61.5t-65.5 43.5t-98.5 16.5h-376v-586h-222v1415h598
q109 0 193 -37t141.5 -96t87 -132.5t29.5 -147.5zM311 763h376q46 0 87 18.5t72 51t49.5 76.5t18.5 95q0 49 -17 91.5t-47.5 73t-72 48t-90.5 17.5h-376v-471z" />
    <glyph glyph-name="S" unicode="S" horiz-adv-x="1210" 
d="M275 475q5 -73 30.5 -134.5t68 -106.5t99.5 -70t126 -25q61 0 116.5 13.5t98 43.5t68 78t25.5 117q0 57 -35 96.5t-92.5 70t-131 55.5t-150.5 52.5t-150.5 61t-131 81t-92.5 113.5t-35 158q0 91 36 160.5t101.5 116.5t156 71.5t199.5 24.5q96 0 170 -20t129.5 -53.5
t94 -79t63.5 -96t37 -103.5t16 -103h-227q-5 69 -29.5 121t-62.5 87t-87 53t-104 18q-50 0 -98.5 -10.5t-86.5 -33.5t-61.5 -61t-23.5 -92q0 -61 35 -103.5t92.5 -74.5t131 -57.5t150 -52.5t150 -60t131 -79t92.5 -109.5t35 -152.5q0 -106 -39.5 -186.5t-110 -134.5
t-168 -81.5t-212.5 -27.5q-69 0 -136 16t-127.5 47t-112.5 75.5t-90 102t-60.5 126.5t-24.5 148h227z" />
    <glyph glyph-name="T" unicode="T" horiz-adv-x="1188" 
d="M1158 1415v-181h-453v-1234h-222v1234h-453v181h1128z" />
    <glyph glyph-name="U" unicode="U" horiz-adv-x="1281" 
d="M311 1415v-944q0 -78 27.5 -140t71.5 -105t99.5 -66t111.5 -23q60 0 120 21t108 62.5t77.5 103t29.5 143.5v948h223v-939q0 -83 -23 -153.5t-62.5 -128t-93 -101.5t-115.5 -73.5t-129 -44.5t-133 -15q-95 0 -190.5 33.5t-172 99t-124 162.5t-47.5 225v935h222z" />
    <glyph glyph-name="V" unicode="V" horiz-adv-x="1216" 
d="M607 333l361 1082h238l-472 -1415h-244l-480 1415h238z" />
    <glyph glyph-name="W" unicode="W" horiz-adv-x="1793" 
d="M896 1056l-315 -1056h-204l-357 1415h230l243 -1014l303 1014h202l297 -1012l248 1012h230l-358 -1415h-209z" />
    <glyph glyph-name="X" unicode="X" horiz-adv-x="1195" 
d="M720 708l455 -708h-248l-329 518l-331 -518h-247l455 710l-451 705h243l329 -515l330 515h249z" />
    <glyph glyph-name="Y" unicode="Y" horiz-adv-x="1295" 
d="M652 772l364 643h249l-506 -845v-570h-223v570l-506 845h250z" />
    <glyph glyph-name="Z" unicode="Z" horiz-adv-x="1187" 
d="M30 174l848 1060h-848v181h1106v-199l-834 -1036h834v-180h-1106v174z" />
    <glyph glyph-name="a" unicode="a" horiz-adv-x="1035" 
d="M70 710q5 84 44 145.5t98 101.5t131.5 59t144.5 19q79 0 153.5 -17t132 -54.5t92.5 -96.5t35 -143v-510q0 -23 9.5 -42t23.5 -19q5 0 27.5 6t56.5 17v-169q-46 -13 -76 -19.5t-61 -6.5q-62 0 -108 33t-66 98q-41 -42 -82 -67.5t-83 -39.5t-84.5 -19t-86.5 -5
q-68 0 -127 21t-103 59.5t-69.5 93t-25.5 122.5q0 59 27.5 104t72 79.5t101.5 60.5t116.5 47.5t116.5 40.5t101.5 39.5t72 44t27.5 55.5q0 47 -47.5 80t-132.5 33q-87 0 -140.5 -35t-65.5 -116h-225zM681 509q-25 -18 -66 -31t-87 -25.5t-93 -26t-85 -32.5t-62 -45.5
t-24 -63.5q0 -35 11.5 -60t29.5 -41t41 -23.5t47 -7.5q75 0 150.5 49.5t137.5 152.5v154z" />
    <glyph glyph-name="ampersand" unicode="&#x26;" horiz-adv-x="1405" 
d="M1201 662q-9 -108 -37.5 -208t-74.5 -181q25 -29 58.5 -64.5t68.5 -72.5t69 -72.5t62 -63.5h-268l-38 38t-27 26.5t-22.5 23.5t-24.5 29q-75 -71 -174 -113.5t-225 -42.5q-129 0 -218.5 35.5t-145 91.5t-80 126.5t-24.5 139.5q0 66 27 124.5t72 111.5t103 101t119 94
q-75 114 -112 204t-37 165q0 55 23.5 109.5t69 97t112 69t151.5 26.5q90 0 157 -27.5t112 -71.5t67.5 -98.5t22.5 -108.5q0 -60 -24 -114t-64.5 -103t-93.5 -94.5t-111 -88.5q25 -35 50 -68t53.5 -69.5t64 -78.5t81.5 -96q17 46 29 103t19 121h210zM565 147q78 0 147 31.5
t123 88.5q-46 52 -86.5 98t-77 89.5t-71 87t-69.5 89.5q-44 -33 -83 -66t-68.5 -67.5t-47 -70.5t-17.5 -75q0 -53 21.5 -92t57 -64t80 -37t91.5 -12zM485 1156q0 -45 24 -106t77 -146q39 30 73 59.5t59 60.5t39 62t14 64t-11.5 56.5t-31 39t-46 23t-56.5 7.5q-27 0 -52.5 -8
t-45 -23t-31.5 -37.5t-12 -51.5z" />
    <glyph glyph-name="asciicircum" unicode="^" horiz-adv-x="968" 
d="M603 1415l367 -534h-198l-289 372q-73 -93 -145.5 -186.5t-143.5 -185.5h-195l362 534h242z" />
    <glyph glyph-name="asciitilde" unicode="~" horiz-adv-x="1266" 
d="M1196 840q-3 -108 -30 -192.5t-73 -142t-109 -88t-138 -30.5q-67 0 -112.5 23.5t-79.5 59t-61 77t-55 77t-62.5 59t-84.5 23.5q-44 0 -75.5 -28t-52.5 -71t-31.5 -93.5t-11.5 -96.5h-186q2 90 25.5 173.5t67.5 147.5t110 102.5t154 38.5q72 0 122.5 -23.5t88 -59
t66 -76.5t56.5 -76.5t60 -59t76 -23.5q28 0 53.5 21t45.5 58.5t33 88.5t16 111h188z" />
    <glyph glyph-name="asterisk" unicode="*" horiz-adv-x="979" 
d="M609 1445l-21 -268l249 107l73 -193l-287 -66l193 -205l-170 -132l-151 229l-155 -228l-170 131l194 206l-278 69l62 190l255 -109l-23 269h229z" />
    <glyph glyph-name="at" unicode="@" horiz-adv-x="1612" 
d="M1321 662q0 72 -21 134t-57 113l-157 -547q-2 -3 -3.5 -10.5t-2.5 -16.5t-1.5 -19t-0.5 -17q0 -11 1 -11q13 0 36 6t50 21t55 41.5t50.5 68t36.5 100t14 137.5zM1053 923h181q-32 42 -73.5 76t-89.5 57.5t-100.5 36t-107.5 12.5q-118 0 -220.5 -44t-178 -122.5
t-118.5 -186t-43 -234.5q0 -120 44.5 -217.5t118.5 -166.5t170 -106.5t199 -37.5q124 0 224.5 49t169.5 134q-49 -23 -100.5 -34.5t-105.5 -11.5q-47 0 -80 18t-51 48q-39 -36 -86 -51t-109 -15q-71 0 -128 26.5t-96.5 70t-60.5 98.5t-21 112q0 90 33 182t92 166.5
t142 121.5t183 47q33 0 61.5 -7t53 -19t44 -27t34.5 -31zM1512 672q0 -81 -16 -151t-45 -128t-68.5 -103t-87.5 -78h154q-38 -98 -104.5 -170t-152.5 -119.5t-185 -71t-201 -23.5q-90 0 -176.5 23t-164.5 65.5t-143 103t-113 136.5t-74.5 166t-26.5 190q0 116 28 216.5
t78.5 184t120.5 149t154 110.5t179.5 68.5t196.5 23.5q83 0 163.5 -19.5t152.5 -56.5t132.5 -89.5t105 -118.5t69 -143.5t24.5 -164.5zM916 467q15 49 24 80.5t13 51t5 29.5t1 18q0 31 -9 57.5t-24.5 45t-37 29t-45.5 10.5q-46 0 -90.5 -33t-80 -82.5t-57 -109t-21.5 -111.5
q0 -30 6.5 -60t20.5 -54t36 -39t53 -15t61.5 12.5t58 35.5t50 57t36.5 78z" />
    <glyph glyph-name="b" unicode="b" horiz-adv-x="1033" 
d="M70 1406h220v-465q52 45 113.5 69.5t121.5 24.5q109 0 191.5 -41.5t137.5 -113t82.5 -168t27.5 -206.5t-28.5 -206t-84 -167.5t-138.5 -113t-192 -41.5q-62 0 -121.5 23.5t-109.5 68.5v-70h-220v1406zM516 861q-53 0 -94 -26.5t-70 -73t-45 -108.5t-17 -133v-14
q0 -73 15 -137.5t44 -112.5t71 -75.5t96 -27.5q55 0 97.5 27.5t71.5 75.5t44.5 112.5t15.5 137.5t-15.5 138t-44.5 113t-71.5 76t-97.5 28z" />
    <glyph glyph-name="backslash" unicode="\" horiz-adv-x="657" 
d="M187 1447l469 -1486h-190l-464 1486h185z" />
    <glyph glyph-name="bar" unicode="|" horiz-adv-x="371" 
d="M281 1596v-1864h-192v1864h192z" />
    <glyph glyph-name="braceleft" unicode="{" horiz-adv-x="642" 
d="M483 828q0 -28 -10 -57t-27.5 -56t-42 -50.5t-53.5 -39.5q29 -16 53.5 -38.5t42 -48t27.5 -53.5t10 -55v-481q0 -33 19.5 -48t50.5 -15q7 0 37.5 9.5t75.5 26.5v-160q-42 -26 -86 -39.5t-73 -13.5q-57 0 -102.5 16t-77 44.5t-48.5 68t-17 85.5v453q0 24 -3.5 52.5t-13 53
t-27.5 41.5t-47 17h-81v175h81q29 0 47 17t27.5 42.5t13 54t3.5 52.5v454q0 45 17 84.5t48.5 68t77 45t102.5 16.5q29 0 73 -13.5t86 -39.5v-168q-48 21 -77.5 33t-35.5 12q-31 0 -50.5 -15.5t-19.5 -48.5v-481v0z" />
    <glyph glyph-name="braceright" unicode="}" horiz-adv-x="607" 
d="M151 430q0 26 10 53.5t27.5 54t41 49t51.5 39.5q-28 16 -52 39t-41 50t-27 56t-10 57v481q0 33 -20 48.5t-52 15.5q-6 0 -35 -12t-77 -33v168q42 26 85.5 39.5t73.5 13.5q57 0 102.5 -16.5t77 -45t48.5 -68t17 -84.5v-454q0 -24 3 -52.5t13 -54t27.5 -42.5t47.5 -17h81
v-175h-81q-30 0 -47.5 -17t-27.5 -41.5t-13 -53t-3 -52.5v-453q0 -46 -17 -85.5t-48.5 -68t-77 -44.5t-102.5 -16q-30 0 -73.5 13.5t-85.5 39.5v160q45 -17 75 -26.5t37 -9.5q32 0 52 15t20 48v481v0z" />
    <glyph glyph-name="bracketleft" unicode="[" horiz-adv-x="484" 
d="M486 1551v-141h-193v-1540h193v-144h-400v1825h400z" />
    <glyph glyph-name="bracketright" unicode="]" horiz-adv-x="457" 
d="M403 -274h-402v144h194v1540h-194v141h402v-1825z" />
    <glyph glyph-name="bullet" unicode="&#x2022;" horiz-adv-x="666" 
d="M348 361q-52 0 -98 19t-80 51t-53.5 75.5t-19.5 91.5q0 49 19.5 92t53.5 75.5t80 51.5t98 19t97.5 -19t79.5 -51.5t54 -75.5t20 -92q0 -48 -20 -91.5t-54 -75.5t-79.5 -51t-97.5 -19z" />
    <glyph glyph-name="c" unicode="c" horiz-adv-x="1005" 
d="M717 672q-15 52 -34.5 88t-45 58.5t-58 32.5t-71.5 10q-58 0 -103.5 -27.5t-77 -73.5t-48 -107t-16.5 -128q0 -70 16.5 -137t48 -119t76.5 -84t101 -32q43 0 77.5 18.5t60.5 51t43.5 75.5t26.5 91h231q-12 -96 -47.5 -172t-92.5 -129.5t-134 -81.5t-171 -28
q-79 0 -143.5 22.5t-115 61.5t-87 91.5t-61 113.5t-36 127t-11.5 131q0 108 33 201t93.5 161.5t146.5 108t192 39.5q94 0 167.5 -27.5t127.5 -76t88.5 -115t50.5 -144.5h-227z" />
    <glyph glyph-name="colon" unicode=":" horiz-adv-x="395" 
d="M344 1018v-237h-260v237h260zM344 235v-235h-260v235h260z" />
    <glyph glyph-name="comma" unicode="," horiz-adv-x="416" 
d="M364 235v-260q0 -47 -15.5 -87t-44 -73.5t-68 -60t-87.5 -45.5l-80 109q34 14 55 30t32 35t14.5 41.5t3.5 50.5v25h-71v235h261z" />
    <glyph glyph-name="copyright" unicode="&#xa9;" horiz-adv-x="1579" 
d="M104 652q0 92 24.5 177.5t69 159.5t106.5 135t138 104.5t163 67.5t181 24t181.5 -24t163.5 -67.5t138 -104.5t106.5 -135t69 -159.5t24.5 -177.5q0 -93 -24.5 -178.5t-69 -159.5t-106.5 -135t-138 -104.5t-163.5 -67.5t-181.5 -24t-181 24t-163 67.5t-138 104.5
t-106.5 135t-69 160t-24.5 178zM270 652q0 -110 40.5 -207t110.5 -169t164 -114t201 -42t201 42t164 114t110.5 169t40.5 207q0 109 -40.5 206t-110.5 169t-164 114t-201 42t-201 -42t-164 -114t-110.5 -169t-40.5 -206zM586 650q0 -59 13 -107t39 -82.5t65.5 -53
t92.5 -18.5q57 0 101.5 41t77.5 110l150 -54q-22 -51 -53.5 -93.5t-73 -74t-92 -49t-110.5 -17.5q-90 0 -160.5 29t-119 81.5t-73.5 125.5t-25 162q0 88 25 161.5t73.5 126t119 81.5t160.5 29q60 0 110.5 -17.5t92 -48.5t73 -74t53.5 -95l-150 -53q-34 68 -78 108.5
t-101 40.5q-53 0 -92.5 -19t-65.5 -53.5t-39 -82t-13 -104.5z" />
    <glyph glyph-name="d" unicode="d" horiz-adv-x="1033" 
d="M721 520q-2 71 -17.5 133t-44.5 108.5t-71 73t-95 26.5q-54 0 -96.5 -28t-71.5 -76t-44.5 -113t-15.5 -138t15.5 -137.5t44.5 -112.5t71.5 -75.5t96.5 -27.5t96.5 27.5t72 75.5t44.5 112.5t15 137.5v14zM939 0h-218v71q-51 -46 -111 -69.5t-123 -23.5q-108 0 -190.5 41.5
t-138.5 113t-84.5 167.5t-28.5 206t28 206.5t83 168t137.5 113t190.5 41.5q59 0 121 -26t116 -70v467h218v-1406z" />
    <glyph glyph-name="dollar" unicode="$" horiz-adv-x="1155" 
d="M676 1364q67 -11 128 -38.5t109.5 -73t83 -109t48.5 -145.5h-207q-49 147 -162 185v-422q73 -31 143.5 -65.5t125.5 -80t88.5 -105.5t33.5 -141q0 -91 -33.5 -159t-88.5 -114.5t-125.5 -73.5t-143.5 -37v-225h-206v231q-71 19 -134.5 61t-113.5 101.5t-84 134.5t-47 160
h216q17 -92 59 -162.5t104 -102.5v455q-68 30 -130.5 64t-110.5 78.5t-77 102t-29 132.5q0 68 26.5 126.5t73.5 104t110 76t137 42.5v148h206v-148zM853 365q0 29 -14.5 55t-39 49.5t-56.5 43.5t-67 38v-385q41 10 74 29t56 45.5t35 58t12 66.5zM337 1022q0 -60 37.5 -102
t95.5 -74v334q-63 -20 -98 -62.5t-35 -95.5z" />
    <glyph glyph-name="e" unicode="e" horiz-adv-x="1060" 
d="M274 458q3 -62 23.5 -117t54.5 -97t79 -66.5t98 -24.5q179 0 247 195h204q-18 -88 -61.5 -156t-104 -115t-134 -71.5t-151.5 -24.5q-110 0 -199.5 44t-152.5 118t-97 172.5t-34 207.5q0 102 33.5 195t96 163.5t151.5 112t200 41.5q108 0 194 -37.5t147 -103.5t93.5 -157
t32.5 -197v-82h-720zM769 618q-5 52 -24 96.5t-51.5 77t-77 51t-98.5 18.5q-49 0 -91 -19.5t-74 -53t-52.5 -77.5t-25.5 -93h494z" />
    <glyph glyph-name="eight" unicode="8" horiz-adv-x="1147" 
d="M79 391q0 49 14.5 96t40.5 90t62 80t79 66q-77 52 -121 125.5t-44 159.5q0 76 35 143t95 116.5t140.5 78t171.5 28.5q92 0 173 -28.5t141 -78t95 -116.5t35 -143q0 -85 -45 -158.5t-120 -126.5q45 -29 82 -65.5t62.5 -79.5t39.5 -90t14 -97q0 -86 -37.5 -160.5t-102 -130
t-151.5 -87.5t-186 -32t-185 32t-150 87.5t-101 130t-37 160.5zM297 391q0 -51 20 -96.5t54.5 -79t81 -53t99.5 -19.5q54 0 100.5 19.5t81 53t54.5 79t20 96.5q0 52 -20 97.5t-54.5 79.5t-81 53.5t-100.5 19.5q-53 0 -99.5 -19.5t-81 -53.5t-54.5 -79.5t-20 -97.5zM331 1008
q0 -42 17.5 -79t47.5 -65t70.5 -44t85.5 -16q46 0 87.5 16t72 44t48.5 65t18 79t-18 79t-48.5 64.5t-72 44t-87.5 16.5q-45 0 -85.5 -16.5t-70.5 -44t-47.5 -64.5t-17.5 -79z" />
    <glyph glyph-name="emdash" unicode="&#x2014;" horiz-adv-x="1634" 
d="M1522 662v-185h-1418v185h1418z" />
    <glyph glyph-name="endash" unicode="&#x2013;" horiz-adv-x="1384" 
d="M1284 662v-185h-1185v185h1185z" />
    <glyph glyph-name="equal" unicode="=" horiz-adv-x="1247" 
d="M1154 964v-156h-1056v156h1056zM1154 596v-157h-1056v157h1056z" />
    <glyph glyph-name="exclam" unicode="!" horiz-adv-x="377" 
d="M326 1406v-583l-39 -480h-164l-39 478v585h242zM326 235v-235h-242v235h242z" />
    <glyph glyph-name="f" unicode="f" horiz-adv-x="610" 
d="M186 1018v214q0 46 17 85t48.5 67.5t77 44.5t102.5 16q31 0 74 -13.5t85 -38.5v-166q-48 20 -77.5 31t-34.5 11q-32 0 -52 -15t-20 -49v-187h171v-174h-171v-844h-220v844h-166v174h166z" />
    <glyph glyph-name="five" unicode="5" horiz-adv-x="1147" 
d="M100 624l94 733h775v-163h-594q-3 -28 -6.5 -57t-8.5 -66t-11.5 -87t-15.5 -120q36 16 72 25.5t68.5 14.5t58.5 6.5t42 1.5q101 0 187 -36.5t148.5 -99.5t98 -148t35.5 -181q0 -89 -30.5 -173t-92.5 -149t-157.5 -104.5t-224.5 -39.5q-86 0 -162.5 24.5t-139 73.5
t-108 123t-69.5 172h224q17 -55 44.5 -98t61.5 -72.5t72.5 -45t78.5 -15.5q58 0 109.5 23.5t89.5 64t60.5 96t22.5 120.5q0 66 -24 120.5t-64 94t-90.5 61.5t-103.5 22q-30 0 -62.5 -8t-64 -23.5t-61 -38t-51.5 -51.5h-201z" />
    <glyph glyph-name="four" unicode="4" horiz-adv-x="1147" 
d="M653 0v328h-605v190l609 839h208v-868h194v-161h-194v-328h-212zM263 489h390v547z" />
    <glyph glyph-name="g" unicode="g" horiz-adv-x="1058" 
d="M963 0q0 -106 -37.5 -186.5t-100 -135t-143 -82.5t-167.5 -28q-75 0 -142 20t-123 62t-100.5 107t-75.5 154h218q41 -88 94.5 -127.5t128.5 -39.5q46 0 87.5 18.5t72.5 51.5t49 78.5t18 99.5v75q-51 -45 -109.5 -67t-121.5 -22q-108 0 -194 42t-146.5 114t-93 169
t-32.5 207t32.5 205.5t91.5 166.5t142.5 112t185.5 41q57 0 121.5 -19t123.5 -69v71h221v-1018zM742 521q-2 70 -17.5 132t-44.5 108.5t-70 73t-93 26.5q-55 0 -101.5 -27.5t-80 -75t-52.5 -111.5t-19 -137t19 -138t52.5 -113.5t80 -77t101.5 -28.5q54 0 95.5 27.5
t70.5 75.5t44 112.5t15 137.5v15z" />
    <glyph glyph-name="grave" unicode="`" horiz-adv-x="410" 
d="M84 890v268q0 53 19 98.5t55 81.5t86.5 62t113.5 41v-155q-54 -17 -71 -48.5t-17 -81.5h88v-266h-274z" />
    <glyph glyph-name="greater" unicode="&#x3e;" horiz-adv-x="1165" 
d="M97 76v185l745 299l-745 308v184l978 -422v-131z" />
    <glyph glyph-name="h" unicode="h" horiz-adv-x="1017" 
d="M299 1406v-459q60 52 129.5 70t150.5 18q78 0 143 -24t112.5 -66t73.5 -99.5t26 -124.5v-721h-218v696q0 45 -14 76t-38 51t-54.5 29t-63.5 9q-44 0 -88 -19t-79 -52.5t-57.5 -79t-22.5 -97.5v-613h-220v1406h220z" />
    <glyph glyph-name="hyphen" unicode="-" horiz-adv-x="666" 
d="M601 662v-185h-512v185h512z" />
    <glyph glyph-name="i" unicode="i" horiz-adv-x="404" 
d="M309 1406v-215h-218v215h218zM309 1018v-1018h-218v1018h218z" />
    <glyph glyph-name="j" unicode="j" horiz-adv-x="371" 
d="M289 1406v-215h-220v215h220zM289 1018v-1173q0 -67 -19.5 -117.5t-54.5 -84t-82.5 -50t-103.5 -16.5q-24 0 -52.5 6t-63.5 24v181q27 -12 44 -19.5t26.5 -11t13.5 -5t6 -1.5q18 0 30.5 9.5t20.5 26t11.5 38.5t3.5 46v1147h220z" />
    <glyph glyph-name="k" unicode="k" horiz-adv-x="977" 
d="M582 635l376 -635h-249l-279 480l-131 -130v-350h-220v1406h220v-780q100 97 202 196t200 196h263z" />
    <glyph glyph-name="l" unicode="l" horiz-adv-x="394" 
d="M299 1406v-1406h-218v1406h218z" />
    <glyph glyph-name="less" unicode="&#x3c;" horiz-adv-x="1165" 
d="M97 630l978 422v-184l-743 -304l743 -301v-187l-978 423v131z" />
    <glyph glyph-name="m" unicode="m" horiz-adv-x="1579" 
d="M76 1018h219v-84q61 53 131.5 77t134.5 24q74 0 139.5 -30.5t119.5 -107.5q31 37 68.5 64t78.5 43.5t83 24.5t83 8q75 0 137.5 -24t108.5 -67t71.5 -101t25.5 -126v-719h-219v678q0 54 -14 89t-36 56t-49.5 29.5t-54.5 8.5q-38 0 -76.5 -18t-69 -50.5t-50 -76.5
t-19.5 -95v-621h-218v678q0 54 -14 89t-35 56t-46.5 29.5t-48.5 8.5q-49 0 -91 -24t-73 -61t-49 -81t-18 -84v-611h-219v1018z" />
    <glyph glyph-name="n" unicode="n" horiz-adv-x="1005" 
d="M69 1018h220v-91q67 51 147 79.5t157 28.5q78 0 139 -22t103 -62.5t64.5 -98.5t22.5 -131v-721h-218v703q0 87 -37 122.5t-101 35.5q-58 0 -108.5 -21.5t-88 -56.5t-59 -81t-21.5 -95v-607h-220v1018z" />
    <glyph glyph-name="nine" unicode="9" horiz-adv-x="1147" 
d="M293 344q7 -36 26.5 -72t48.5 -64.5t67 -46.5t83 -18q76 0 129 38.5t88.5 100.5t55 138.5t27.5 153.5q-35 -35 -73 -57.5t-75.5 -36t-73.5 -18.5t-67 -5q-106 0 -190 35.5t-143 98.5t-90.5 149t-31.5 186q0 90 31 171.5t89.5 143t143 98t191.5 36.5q115 0 208 -40
t159 -119.5t101.5 -197.5t35.5 -274q0 -197 -36 -341t-102.5 -238t-161 -139t-210.5 -45q-97 0 -173 30.5t-131 81t-88.5 116t-43.5 135.5h206zM529 1214q-51 0 -94 -22.5t-74.5 -61.5t-49 -91.5t-17.5 -112.5q0 -59 17 -112.5t47.5 -93.5t74 -63.5t96.5 -23.5
q63 0 110 26.5t78 68.5t46 93t15 101q0 63 -20.5 116.5t-55 92.5t-79.5 61t-94 22z" />
    <glyph glyph-name="numbersign" unicode="#" horiz-adv-x="1503" 
d="M788 451h-220l-85 -451h-181l80 451h-285l26 143h280l51 248h-289l30 143h283l79 430h183l-77 -430h225l75 430h187l-83 -430h337l-17 -90l-16 -53h-326l-44 -248h330l-17 -90l-14 -53h-325l-86 -451h-186zM862 842h-223l-49 -248h222z" />
    <glyph glyph-name="o" unicode="o" horiz-adv-x="1076" 
d="M46 508q0 109 31.5 205t92 167.5t149.5 113t204 41.5t205 -41.5t151.5 -113t93.5 -167.5t32 -205t-32 -204.5t-93.5 -167t-151.5 -112.5t-205 -41t-204 41t-149.5 112.5t-92 167t-31.5 204.5zM264 508q0 -72 18 -136t51.5 -112t81.5 -75.5t108 -27.5t108.5 27.5t82 75.5
t52 112t18.5 136q0 73 -18.5 137t-52 112t-82 76t-108.5 28t-108 -28t-81.5 -76t-51.5 -112t-18 -137z" />
    <glyph glyph-name="one" unicode="1" horiz-adv-x="1147" 
d="M640 0v1019q-85 -85 -200 -123t-264 -38v160q78 0 142.5 18.5t115.5 49t89 69t63.5 78t39 77t15.5 65.5h212v-1375h-213z" />
    <glyph glyph-name="onehalf" unicode="&#xbd;" horiz-adv-x="1665" 
d="M642 -37h-209l463 1465h206zM900 492q0 79 21.5 142.5t63.5 107.5t104.5 68t144.5 24q75 0 134.5 -22.5t100 -60t62 -86.5t21.5 -101q0 -50 -21.5 -91t-56.5 -75t-80 -62.5t-91.5 -54.5t-91 -50.5t-78.5 -50.5h419v-180h-688q1 74 21.5 129t53 95.5t73.5 70t83.5 53.5
t83.5 46t73 47.5t51.5 57.5t19.5 76q0 50 -30 68.5t-75 18.5q-58 0 -86.5 -47.5t-28.5 -122.5h-203zM382 589v537q-51 -34 -120 -46t-157 -12v145q72 0 123.5 24t85.5 57.5t51.5 70.5t21.5 63h200v-839h-205z" />
    <glyph glyph-name="onequarter" unicode="&#xbc;" horiz-adv-x="1675" 
d="M382 589v537q-51 -34 -120 -46t-157 -12v145q72 0 123.5 24t85.5 57.5t51.5 70.5t21.5 63h200v-839h-205zM704 -37h-208l461 1465h206zM1235 0v186h-363v150l385 490h183v-488h121v-152h-121v-186h-205zM1099 338h136v179z" />
    <glyph glyph-name="p" unicode="p" horiz-adv-x="1074" 
d="M80 1018h218v-76q54 48 121 72.5t131 24.5q108 0 192 -41.5t142 -112.5t88.5 -167.5t30.5 -205.5q0 -110 -30 -206.5t-87 -168t-141 -113t-192 -41.5q-63 0 -131 24t-124 72v-477h-218v1416zM298 498q1 -71 19.5 -133t51 -108.5t77 -73t97.5 -26.5q55 0 99 28t75 76
t48 112.5t17 138.5q0 73 -17 137.5t-48 112.5t-75 75.5t-99 27.5q-54 0 -99.5 -27.5t-77.5 -75.5t-50 -112.5t-18 -137.5v-14z" />
    <glyph glyph-name="parenleft" unicode="(" horiz-adv-x="588" 
d="M584 1596q-126 -235 -184.5 -467.5t-58.5 -466.5q0 -231 58 -464.5t185 -465.5h-179q-160 207 -239 445.5t-79 484.5q0 247 78.5 485t239.5 449h179z" />
    <glyph glyph-name="parenright" unicode=")" horiz-adv-x="563" 
d="M183 1596q162 -211 240 -449t78 -485q0 -123 -19.5 -245.5t-59.5 -240.5t-99.5 -230t-139.5 -214h-181q131 233 190 464t59 466q0 233 -59.5 465.5t-189.5 468.5h181z" />
    <glyph glyph-name="percent" unicode="%" horiz-adv-x="1729" 
d="M326 0l829 1350h222l-829 -1350h-222zM105 1024q0 71 27.5 133.5t75 109t111.5 73.5t137 27t137 -27t112 -73.5t75.5 -109t27.5 -133.5q0 -72 -27.5 -135t-75.5 -110t-112 -74t-137 -27t-137 27t-111.5 74t-75 110t-27.5 135zM301 1024q0 -38 12 -71t33 -58.5t49 -40
t61 -14.5q32 0 60.5 14.5t50 40t34 58.5t12.5 71q0 37 -12.5 70.5t-34 58.5t-50 39.5t-60.5 14.5q-33 0 -61 -14.5t-49 -39.5t-33 -58.5t-12 -70.5zM910 328q0 72 27 135t74 110t111 74t138 27q73 0 137 -27t111 -74t74.5 -110t27.5 -135t-27.5 -134.5t-74.5 -109.5
t-111 -74t-137 -27q-74 0 -138 27t-111 74t-74 109.5t-27 134.5zM1105 328q0 -37 12 -70.5t33 -58.5t49.5 -39.5t60.5 -14.5t60.5 14.5t50 39.5t34 58.5t12.5 70.5t-12.5 70.5t-34 59t-50 40t-60.5 14.5t-60.5 -14.5t-49.5 -40t-33 -59t-12 -70.5z" />
    <glyph glyph-name="period" unicode="." horiz-adv-x="395" 
d="M344 235v-235h-260v235h260z" />
    <glyph glyph-name="plus" unicode="+" horiz-adv-x="1247" 
d="M98 830h434v422h185v-422h437v-156h-437v-422h-185v422h-434v156z" />
    <glyph glyph-name="q" unicode="q" horiz-adv-x="1064" 
d="M748 512q0 73 -17.5 137.5t-50 112.5t-77.5 75.5t-100 27.5q-54 0 -98.5 -27.5t-75.5 -75.5t-48 -112.5t-17 -137.5q0 -74 17 -138.5t48 -112.5t75.5 -76t98.5 -28t98 26.5t76.5 73t50.5 108t20 132.5v15zM969 -398h-221v476q-56 -47 -124 -71t-130 -24
q-108 0 -191.5 41.5t-140.5 113t-86.5 168t-29.5 206.5q0 109 30 205.5t88 167.5t141.5 112.5t191.5 41.5q64 0 130.5 -24.5t120.5 -72.5v76h221v-1416z" />
    <glyph glyph-name="question" unicode="?" horiz-adv-x="1034" 
d="M399 393v117q0 62 25 111t62.5 92t81 82t81 80.5t62.5 88.5t25 105q0 46 -12.5 86.5t-38 70.5t-64.5 47.5t-91 17.5q-49 0 -89.5 -23t-70 -64.5t-47.5 -99.5t-22 -128h-208q4 106 37.5 194t91.5 151t136.5 98t171.5 35q114 0 194 -33t130.5 -87t73 -123.5t22.5 -141.5
q0 -63 -22.5 -113.5t-56.5 -94.5t-74 -84t-74 -82.5t-56.5 -89t-22.5 -103.5v-109h-245zM644 219v-219h-245v219h245z" />
    <glyph glyph-name="quotedbl" unicode="&#x22;" horiz-adv-x="683" 
d="M296 1406v-547h-209v547h209zM620 1406v-547h-206v547h206z" />
    <glyph glyph-name="quotedblleft" unicode="&#x201c;" horiz-adv-x="775" 
d="M435 890v268q0 53 19 98.5t54.5 81.5t86 62t113.5 41v-155q-28 -9 -45 -21t-26.5 -27.5t-13 -36t-3.5 -45.5h88v-266h-273zM90 890v268q0 53 19 98.5t55 81.5t86.5 62t113.5 41v-155q-28 -9 -45.5 -21t-27 -27.5t-12.5 -36t-3 -45.5h88v-266h-274z" />
    <glyph glyph-name="quotedblright" unicode="&#x201d;" horiz-adv-x="775" 
d="M364 1391v-270q0 -53 -19.5 -98.5t-55.5 -81.5t-86.5 -61.5t-112.5 -38.5v150q54 20 71 51t17 81h-88v268h274zM708 1391v-270q0 -53 -19.5 -98.5t-55.5 -81.5t-86.5 -61.5t-111.5 -38.5v150q27 10 43.5 22.5t26 28.5t12.5 36t3 45h-85v268h273z" />
    <glyph glyph-name="quoteleft" unicode="&#x2018;" horiz-adv-x="410" 
d="M84 851v270q0 52 19 97t55 81t86.5 62t113.5 41v-156q-54 -16 -71 -46.5t-17 -78.5v-4h88v-266h-274z" />
    <glyph glyph-name="quoteright" unicode="&#x2019;" horiz-adv-x="410" 
d="M358 1391v-270q0 -53 -19 -98.5t-55 -81.5t-86.5 -61.5t-113.5 -38.5v150q27 10 44.5 22.5t27 28.5t13 36t3.5 45h-88v268h274z" />
    <glyph glyph-name="quotesingle" unicode="'" horiz-adv-x="338" 
d="M288 1406v-547h-204v547h204z" />
    <glyph glyph-name="r" unicode="r" horiz-adv-x="628" 
d="M65 1018h211v-76q84 93 213 93q19 0 47.5 -5.5t57.5 -17.5v-200q-92 33 -109 33q-48 0 -85.5 -19.5t-63.5 -52t-39.5 -75t-13.5 -89.5v-609h-218v1018z" />
    <glyph glyph-name="s" unicode="s" horiz-adv-x="947" 
d="M268 348q1 -53 16 -90.5t39.5 -60.5t58.5 -33.5t73 -10.5q33 0 69 6t66 21t49.5 40t19.5 63q0 32 -18.5 56t-49.5 42.5t-71.5 34t-83.5 30.5q-63 22 -126.5 46.5t-114.5 60t-83 85.5t-32 122q0 70 31 122t83 86t120 50.5t141 16.5q82 0 153 -18.5t124 -56.5t84.5 -97
t35.5 -140h-70h-54.5t-47 0.5t-47.5 0.5q-5 39 -21 65.5t-39.5 42.5t-53.5 22.5t-64 6.5q-75 0 -115 -28t-40 -75q0 -29 19 -51.5t50.5 -41t72 -34.5t83.5 -31q61 -22 124.5 -48.5t114.5 -61.5t83.5 -81.5t32.5 -109.5q0 -86 -34.5 -146t-93 -98.5t-135.5 -56t-162 -17.5
q-83 0 -156 22.5t-129 68.5t-90 114.5t-37 161.5h225z" />
    <glyph glyph-name="semicolon" unicode=";" horiz-adv-x="416" 
d="M364 1018v-237h-261v237h261zM364 235v-260q0 -47 -15.5 -87t-44 -73.5t-68 -60t-87.5 -45.5l-80 109q34 14 55 30t32 35t14.5 41.5t3.5 50.5v25h-71v235h261z" />
    <glyph glyph-name="seven" unicode="7" horiz-adv-x="1147" 
d="M264 0q23 162 64 318t104 305.5t148.5 292t198.5 278.5h-716v163h982v-137q-105 -132 -194 -262.5t-159.5 -275t-122 -311.5t-79.5 -371h-226z" />
    <glyph glyph-name="six" unicode="6" horiz-adv-x="1147" 
d="M813 1013q-7 36 -26 72t-48.5 64.5t-67 46.5t-82.5 18q-75 0 -128 -38t-88.5 -98.5t-55.5 -137t-29 -153.5q34 31 72 52.5t76.5 35t75 19t66.5 5.5q105 0 189.5 -35.5t143.5 -98.5t90.5 -148.5t31.5 -184.5q0 -92 -31 -173.5t-89.5 -143.5t-143 -98t-190.5 -36
q-115 0 -208 40.5t-159 120t-102 197.5t-36 274q0 197 36 341t103 237.5t161.5 138.5t210.5 45q97 0 172.5 -30.5t130.5 -80.5t88.5 -115.5t45.5 -135.5h-209zM579 143q51 0 93.5 22.5t74 62t49 92t17.5 112.5q0 58 -17 111t-47.5 93t-74 64t-96.5 24q-63 0 -109.5 -26.5
t-77 -68.5t-45.5 -93t-15 -100q0 -63 20.5 -116.5t55 -93t79 -61.5t93.5 -22z" />
    <glyph glyph-name="slash" unicode="/" horiz-adv-x="673" 
d="M209 -39h-209l469 1484h204z" />
    <glyph glyph-name="space" unicode=" " horiz-adv-x="500" 
 />
    <glyph glyph-name="t" unicode="t" horiz-adv-x="585" 
d="M391 1307v-289h150v-171h-150v-605q0 -51 19 -70t50 -19q13 0 37 3.5t68 13.5v-165q-42 -11 -83.5 -17.5t-77.5 -6.5q-47 0 -89 11.5t-74 36.5t-51 65t-19 98v655h-151v171h151v289h220z" />
    <glyph glyph-name="three" unicode="3" horiz-adv-x="1147" 
d="M100 950q15 83 49 160t90 135.5t135 93.5t185 35q99 0 177 -27.5t132.5 -75.5t83.5 -114t29 -144q0 -90 -43 -164t-124 -124q52 -24 94 -56t72 -74t46.5 -95t16.5 -117q0 -99 -38 -174t-102 -125.5t-149.5 -76.5t-179.5 -26q-101 0 -185.5 30.5t-149.5 89t-110.5 143.5
t-68.5 193h227q15 -84 46 -140.5t70.5 -90.5t84 -48.5t86.5 -14.5q45 0 89.5 17t79.5 48.5t57 75.5t22 99q0 53 -18.5 99t-52.5 80t-83 53.5t-109 19.5h-124v174h124q56 0 94.5 16.5t62.5 44t34.5 62t10.5 70.5q0 98 -54 154t-148 56q-53 0 -94 -22.5t-70.5 -59.5t-47 -84
t-23.5 -96h-224z" />
    <glyph glyph-name="threequarters" unicode="&#xbe;" horiz-adv-x="1686" 
d="M90 1123q7 71 29 127.5t61 96t96.5 60.5t137.5 21q69 0 124.5 -17t95.5 -48t61.5 -75t21.5 -97q0 -52 -21 -90.5t-61 -67.5q51 -29 85 -76t34 -119q0 -64 -27 -112.5t-73.5 -81.5t-108.5 -49.5t-131 -16.5q-87 0 -148.5 20.5t-102.5 60.5t-66 100t-38 138h216
q8 -45 20.5 -74t30 -45t40 -22t50.5 -6q24 0 46.5 5t39 15.5t26.5 27t10 40.5q0 45 -32.5 73t-89.5 28h-119v165h117q24 0 40.5 7t26.5 19t14.5 26.5t4.5 29.5q0 36 -24.5 51.5t-63.5 15.5q-54 0 -79 -34t-36 -96h-207zM743 -37h-208l463 1465h206zM1245 0v186h-363v150
l385 490h183v-488h121v-152h-121v-186h-205zM1109 338h136v179z" />
    <glyph glyph-name="two" unicode="2" horiz-adv-x="1147" 
d="M82 929q11 102 51 184t104 140.5t150.5 90t190.5 31.5q109 0 192 -32.5t139 -87t84.5 -125t28.5 -145.5q0 -83 -32 -150t-84 -124t-118.5 -106t-135.5 -96q-52 -36 -101 -72.5t-91.5 -75.5t-76.5 -82.5t-55 -92.5h694v-186h-935v157q22 82 69 151.5t107.5 129t128 110
t132.5 95.5q52 37 102 74.5t89 76.5t62.5 80.5t23.5 86.5q0 63 -17.5 110.5t-47.5 79t-71 47.5t-87 16q-57 0 -104 -19.5t-82 -56.5t-55.5 -89.5t-24.5 -119.5h-230z" />
    <glyph glyph-name="u" unicode="u" horiz-adv-x="1005" 
d="M912 17h-218v91q-67 -51 -147.5 -79.5t-158.5 -28.5q-77 0 -138 22t-103.5 63t-65 99t-22.5 131v720h220v-702q0 -44 9.5 -74.5t27.5 -49t44 -27t58 -8.5q57 0 107 21.5t87.5 56.5t59.5 81t22 95v607h218v-1018z" />
    <glyph glyph-name="underscore" unicode="_" horiz-adv-x="1198" 
d="M1107 -241v-159h-1010v159h1010z" />
    <glyph glyph-name="v" unicode="v" horiz-adv-x="982" 
d="M490 305l255 713h230l-373 -1018h-218l-377 1018h233z" />
    <glyph glyph-name="w" unicode="w" horiz-adv-x="1442" 
d="M718 690l-191 -690h-215l-292 1018h224l176 -672q46 168 93.5 337.5t92.5 334.5h225l180 -672l183 672h223l-291 -1018h-215z" />
    <glyph glyph-name="x" unicode="x" horiz-adv-x="980" 
d="M614 508l352 -508h-255l-225 324l-225 -324h-255l354 508l-352 510h253l226 -324l224 324h255z" />
    <glyph glyph-name="y" unicode="y" horiz-adv-x="963" 
d="M487 316l242 702h229l-429 -1216q-21 -60 -51.5 -102.5t-65.5 -70t-71.5 -40t-70.5 -12.5q-32 0 -65.5 5.5t-77.5 20.5v183q14 -6 32 -13t35.5 -12.5t32.5 -9.5t24 -4q15 0 28 14t24 34.5t19.5 43t14.5 40.5q11 35 21.5 65.5t21.5 65.5l-373 1008h235z" />
    <glyph glyph-name="z" unicode="z" horiz-adv-x="906" 
d="M875 1018v-166l-566 -674h566v-178h-854v153l559 678h-559v187h854z" />
    <glyph glyph-name="zero" unicode="0" horiz-adv-x="1147" 
d="M284 687q0 -139 21 -238.5t57.5 -163.5t85.5 -94t106 -30t106 30t85.5 94t57.5 163.5t21 238.5t-21 239.5t-57.5 164.5t-85.5 94.5t-106 30.5t-106 -30.5t-85.5 -94.5t-57.5 -164.5t-21 -239.5zM1045 687q0 -158 -31.5 -285.5t-93.5 -216.5t-153.5 -137t-212.5 -48
q-120 0 -211.5 48t-153 137t-93 216.5t-31.5 285.5q0 159 31.5 286t93 216.5t153 137.5t211.5 48q121 0 212.5 -48t153.5 -137.5t93.5 -216.5t31.5 -286z" />
    <glyph glyph-name=".null" 
 />
    <glyph glyph-name="ZWJ" unicode="&#x200d;" 
 />
    <glyph glyph-name="ZWNJ" unicode="&#x200c;" 
 />
    <glyph glyph-name="uni200B" unicode="&#x200b;" 
 />
    <glyph glyph-name="kn_0" unicode="&#xce6;" horiz-adv-x="1237" 
d="M237 512q0 -81 29 -144.5t76.5 -107.5t108.5 -67t126 -23q64 0 125.5 24.5t109 69.5t76.5 108t29 140q0 75 -29.5 137.5t-77.5 108t-109 71t-124 25.5t-124 -25.5t-109 -70.5t-77.5 -108t-29.5 -138zM37 509q0 106 42.5 199t116 162t171.5 109t210 40t211 -40t172.5 -109
t116 -162t42.5 -199t-42.5 -198.5t-116 -161.5t-172.5 -109t-211 -40t-210 40t-171.5 109t-116 161.5t-42.5 198.5z" />
    <glyph glyph-name="kn_1" unicode="&#xce7;" horiz-adv-x="1157" 
d="M379 -14q-74 35 -137 89.5t-109 122t-71.5 143t-25.5 152.5q0 106 34 202.5t98.5 170.5t158 118t211.5 44q115 0 208.5 -44t158.5 -118t100.5 -170.5t35.5 -202.5q0 -78 -24.5 -155t-69 -144.5t-107.5 -122t-140 -88.5l-50 168q43 22 78.5 59t60 82t38 96.5t13.5 104.5
q0 71 -21 136t-60 115t-95 80t-126 30q-68 0 -123.5 -30t-95 -80t-61.5 -115t-22 -136q0 -52 15 -103t42 -96t63.5 -81.5t79.5 -59.5z" />
    <glyph glyph-name="kn_2" unicode="&#xce8;" horiz-adv-x="1462" 
d="M1031 695q0 -45 -13.5 -92.5t-46 -86.5t-87 -64t-135.5 -25q-60 0 -111.5 23.5t-90 63t-60 91t-21.5 107.5q0 69 27.5 126.5t74.5 98.5t109.5 64t132.5 23q117 0 214 -33t166 -98t107.5 -160.5t38.5 -220.5q0 -120 -42.5 -215t-120 -161t-185.5 -101t-239 -35h-710v170
h710q38 0 81.5 7t86.5 23t83 42t70.5 64t48.5 89t18 117q0 96 -29.5 171t-95.5 120q9 -27 14 -55t5 -53zM665 712q0 -50 24.5 -82.5t59.5 -32.5q21 0 36.5 9.5t26 25t15.5 36.5t5 45q0 18 -2 37t-8 37t-17 34.5t-29 29.5q-51 -8 -81 -43.5t-30 -95.5z" />
    <glyph glyph-name="kn_3" unicode="&#xce9;" horiz-adv-x="1439" 
d="M1317 211q-15 -27 -44.5 -65t-71 -72.5t-93 -59t-110.5 -24.5q-49 0 -90.5 10.5t-78 27.5t-69.5 40t-64 48q-72 -61 -159.5 -93.5t-181.5 -32.5q-56 0 -112.5 14.5t-101.5 44.5t-73.5 75.5t-28.5 107.5q0 58 26.5 102.5t70 74.5t99.5 45.5t114 15.5q87 0 160 -34.5
t139 -82.5q26 47 37.5 97t11.5 101q0 92 -42 167q-16 -49 -47 -84t-70 -57.5t-83 -33t-86 -10.5q-60 0 -110 18.5t-86 50.5t-56.5 75t-20.5 92q0 59 21.5 107t62 81.5t98.5 52t131 18.5q96 0 184 -38t155 -103t107 -150.5t40 -179.5q0 -93 -24 -173t-68 -147
q48 -33 96.5 -55t98.5 -22q27 0 56 15t56.5 38t52.5 51t43 54zM346 160q60 0 113 20.5t94 52.5q-23 17 -47.5 34.5t-50 31t-52.5 22t-55 8.5q-52 0 -81.5 -23.5t-29.5 -61.5q0 -25 11.5 -41.5t28.5 -26t35.5 -13t33.5 -3.5zM537 817q-37 26 -72.5 33.5t-55.5 7.5
q-29 0 -50.5 -8t-35.5 -21t-21 -29.5t-7 -33.5q0 -32 21.5 -56.5t66.5 -24.5q22 0 45.5 6t44.5 21t38 40.5t26 64.5z" />
    <glyph glyph-name="kn_4" unicode="&#xcea;" horiz-adv-x="1429" 
d="M852 1018q121 0 206.5 -32.5t140 -81t80 -104.5t25.5 -103q0 -89 -41 -149.5t-105.5 -101.5t-144 -67.5t-156.5 -47.5q23 -27 36 -59t13 -74q0 -43 -21 -80.5t-54.5 -66t-77 -45t-88.5 -16.5t-88 15t-76.5 42.5t-54 65.5t-20.5 85q0 40 14 72t40 59q-51 14 -103 30
t-101 37.5t-92 50t-75.5 67t-51 88.5t-18.5 115q0 67 24 124t65.5 98.5t96 65t115.5 23.5q67 0 117 -21.5t82 -56t48 -78t16 -87.5q0 -54 -17.5 -92t-48 -62.5t-72 -36t-89.5 -11.5q-31 0 -58.5 7t-49.5 16t-38 18.5t-23 14.5q15 -30 46 -54t71.5 -44t87 -36t92.5 -29.5
t88 -24t74 -19.5q28 9 62.5 19t64.5 19q57 16 113 35t100.5 45t72 61.5t27.5 85.5q0 68 -47.5 109.5t-136.5 41.5zM339 858q-11 0 -24.5 -4t-27 -13t-25.5 -22.5t-21 -31.5q8 -18 21 -31t27 -20.5t28.5 -11t26.5 -3.5q16 0 27.5 6t19 16t11 21.5t3.5 22.5q0 35 -18.5 53
t-47.5 18zM605 199q0 -27 16 -49t46 -22q15 0 26.5 6.5t19 16.5t11.5 23t4 25q0 27 -16 49t-45 34q-62 -28 -62 -83z" />
    <glyph glyph-name="kn_5" unicode="&#xceb;" horiz-adv-x="1623" 
d="M981 556v-17.5t2 -16.5q47 11 87.5 31.5t70 49.5t46.5 67.5t17 85.5q0 54 -21 78t-45 24q-32 0 -60 -26t-50 -68.5t-34.5 -96.5t-12.5 -111zM346 147q86 0 138 52.5t63 143.5q-53 -5 -108 -13.5t-99 -22t-72 -33t-28 -46.5q0 -23 10 -38t25.5 -25t34 -14t36.5 -4z
M427 831q-12 12 -26 19t-26.5 10.5t-23 4.5t-16.5 1q-44 0 -71 -26.5t-27 -64.5q0 -18 7 -33t18 -25.5t25.5 -16.5t28.5 -6q28 0 49 11.5t35 31t20.5 44t6.5 50.5zM783 506v30q0 99 26.5 188t74.5 156.5t114 107.5t146 40q76 0 126 -29.5t79.5 -72t41 -90.5t11.5 -85
q0 -86 -33 -146t-88.5 -101.5t-128.5 -67t-152 -43.5q9 -39 23 -79t35.5 -72t52.5 -52t76 -20q30 0 55.5 17.5t45 44.5t32.5 60.5t18 66.5l157 -62q-17 -78 -49 -134t-73.5 -92t-90 -53.5t-96.5 -17.5q-62 0 -121 24.5t-110 72t-91 116.5t-62 158l-70 -8
q-14 -74 -45.5 -141.5t-80.5 -119t-114.5 -82t-147.5 -30.5q-55 0 -104.5 14.5t-87 44t-60 74.5t-22.5 107q0 77 39.5 122t106.5 70t154.5 35.5t183.5 19.5q0 6 0.5 16t0.5 20v19v15q0 26 -7.5 74t-27.5 102q-20 -77 -74 -121.5t-143 -44.5q-60 0 -107 18.5t-79.5 50t-49 74
t-16.5 90.5q0 59 21.5 103.5t59.5 74.5t90.5 45t114.5 15q74 0 140.5 -31.5t118.5 -86.5t87.5 -129.5t47.5 -159.5q2 -12 3 -28.5l2 -33t1 -32v-27.5z" />
    <glyph glyph-name="kn_6" unicode="&#xcec;" horiz-adv-x="1462" 
d="M663 1041v-15.5t-2 -16.5q55 -16 101 -46.5t78.5 -71t50.5 -89.5t18 -103q0 -57 -20.5 -106.5t-58 -86t-90 -58t-115.5 -21.5q-79 0 -133 22t-87.5 57t-48 79.5t-14.5 89.5q0 34 8.5 66.5t22.5 64.5q-33 -24 -58.5 -58t-42 -72.5t-25 -80.5t-8.5 -83q0 -66 18 -117
t48.5 -89t70 -64t82.5 -42t86.5 -23t81.5 -7h710v-170h-710q-131 0 -239 35t-185.5 101t-120 161t-42.5 215q0 112 35 200.5t93.5 153t135.5 103.5t161 52v8q0 16 -8.5 30.5t-22.5 24.5t-32.5 16t-39.5 6q-43 0 -83 -30t-69 -96l-174 89q21 43 50.5 79.5t69.5 63t91.5 41.5
t117.5 15q62 0 116.5 -20t95 -52.5t64 -73t23.5 -81.5zM541 686q0 -36 21 -62.5t63 -26.5q34 0 59.5 27t25.5 75q0 54 -30.5 93.5t-85.5 55.5q-21 -38 -37 -76t-16 -86z" />
    <glyph glyph-name="kn_7" unicode="&#xced;" horiz-adv-x="1410" 
d="M434 0q-77 0 -148 18t-126 54.5t-88 91.5t-33 130q0 88 36 142.5t94 86.5t129.5 49t143.5 30q47 9 90 18.5t75.5 24.5t52 38t19.5 59q0 35 -14.5 57.5t-36.5 35.5t-48 18t-49 5q-53 0 -88 -24t-55.5 -58.5t-29.5 -71.5t-9 -63l-189 41q7 68 34.5 130.5t75 110.5t113 76.5
t148.5 28.5q68 0 120.5 -14t91 -37.5t64.5 -53.5t42 -62t22.5 -63t6.5 -56q0 -59 -17 -102.5t-46.5 -75t-69 -53t-85 -37t-94.5 -26t-96 -19.5q-46 -9 -88 -18.5t-74 -24t-51 -35.5t-19 -53q0 -39 22.5 -63.5t54 -39t64.5 -20t54 -5.5h853v-170h-852z" />
    <glyph glyph-name="kn_8" unicode="&#xcee;" horiz-adv-x="1718" 
d="M671 -10q-76 0 -152 14.5t-146 45.5t-130.5 79t-105 114.5t-70 153t-25.5 193.5q0 96 30.5 176t83 137t122.5 89t148 32q64 0 110 -24.5t76 -63.5t44 -86.5t14 -93.5q0 -51 -19.5 -99t-55 -85.5t-85 -60.5t-109.5 -23q-36 0 -77.5 8.5t-80.5 28.5q10 -95 49.5 -164
t97.5 -113.5t130.5 -66t150.5 -21.5q90 0 162.5 32.5t123.5 87t78.5 125t27.5 146.5q0 78 -24 156t-75 147h-37v170h656v-170h-406q40 -78 59 -154.5t19 -146.5q0 -117 -45.5 -220t-124 -179t-185 -120t-229.5 -44zM400 854q-19 0 -39 -8t-38.5 -24.5t-34.5 -40.5t-26 -57
q15 -22 33.5 -35t37.5 -20t35.5 -9t28.5 -2q17 0 31 8.5t23.5 22.5t15 31.5t5.5 35.5q0 43 -19 70.5t-53 27.5z" />
    <glyph glyph-name="kn_9" unicode="&#xcef;" horiz-adv-x="1165" 
d="M36 672q0 61 25 123t72.5 111.5t116 80.5t156.5 31h643v-170h-643q-33 0 -64 -12t-55 -34.5t-38.5 -55t-14.5 -73.5q0 -26 4 -43q52 41 119.5 62.5t147.5 21.5q51 0 99.5 -13t86 -40t60.5 -67.5t23 -94.5q0 -49 -22 -87t-59.5 -64t-86 -39.5t-101.5 -13.5q-51 0 -103 8.5
t-101 26.5q4 -35 18.5 -64t38 -50.5t54.5 -33.5t69 -12h185v-170h-215q-78 0 -142 27t-110 73.5t-71.5 108.5t-25.5 132q0 27 4 56.5t11 55.5q-38 44 -59.5 98.5t-21.5 120.5zM483 448q15 0 31.5 4t30 12t22.5 19.5t9 26.5q0 24 -22 38.5t-51 14.5q-33 0 -63 -6.5t-55 -17
t-44.5 -23t-31.5 -24.5q21 -17 47.5 -25.5t51.5 -13t45.5 -5t29.5 -0.5z" />
    <glyph glyph-name="kn_a" unicode="&#xc85;" horiz-adv-x="1550" 
d="M592 601h325q-17 12 -39 30t-41.5 43t-33 56.5t-13.5 72.5q0 42 16 82.5t49 72t84 51t122 19.5q63 0 116 -19.5t96 -53t75.5 -78t54 -94.5t32.5 -102.5t11 -101.5q0 -106 -29.5 -190.5t-81 -150t-120.5 -112.5t-147.5 -77t-163 -44.5t-166.5 -14.5q-76 0 -157 15
t-158.5 46.5t-147 80.5t-122 117t-83 155.5t-30.5 196.5q0 91 23 169.5t65 135.5t101.5 89.5t132.5 32.5q62 0 106 -25t71.5 -65.5t40 -90.5t12.5 -101q0 -44 -14.5 -90t-43 -83.5t-71 -61t-97.5 -23.5q-33 0 -59.5 10.5t-47.5 26t-35.5 34t-22.5 35.5q10 -89 39.5 -155.5
t72 -114.5t95.5 -79.5t109 -50.5t113 -26.5t108 -7.5q56 0 116 9t116.5 29t107 52t88 78t59.5 107.5t22 140.5q0 65 -14.5 117.5t-38 89t-54 56t-62.5 19.5q-25 0 -42.5 -10.5t-29 -25.5t-16.5 -32.5t-5 -31.5q0 -23 10.5 -46.5t27 -44.5t38 -38t44.5 -28h58v-174h-571v174z
M346 658q17 0 31 9t24 23t15.5 31.5t5.5 34.5q0 20 -5 38.5t-14.5 32.5t-23 22.5t-30.5 8.5q-33 0 -56.5 -29t-39.5 -77q9 -30 20.5 -48.5t24 -28.5t25 -13.5t23.5 -3.5z" />
    <glyph glyph-name="kn_aa" unicode="&#xc86;" horiz-adv-x="1462" 
d="M585 601h247q-22 26 -41.5 67.5t-19.5 87.5q0 50 18.5 98.5t54.5 87t88.5 62.5t120.5 24q58 0 109.5 -19.5t90 -58t61 -95.5t22.5 -131q0 -26 -7 -61t-22.5 -71t-40.5 -69t-62 -57q23 -24 42.5 -58.5t19.5 -76.5q0 -87 -40.5 -151t-113.5 -106.5t-173.5 -63t-221.5 -20.5
q-76 0 -157 15t-158.5 46.5t-147 80.5t-122 117t-83 155.5t-30.5 196.5q0 91 23 169.5t65 135.5t101.5 89.5t132.5 32.5q62 0 106 -25t71.5 -65.5t40 -90.5t12.5 -101q0 -44 -14.5 -90t-43 -83.5t-71 -61t-97.5 -23.5q-33 0 -59.5 10.5t-47.5 26t-35.5 34t-22.5 35.5
q10 -89 39.5 -155.5t72 -114.5t95.5 -79.5t109 -50.5t113 -26.5t108 -7.5q78 0 141.5 12.5t109 35.5t70.5 54.5t25 70.5q0 28 -16.5 53.5t-43.5 40.5h-418v174zM1138 730q0 35 -9 59.5t-22.5 39.5t-28 22t-25.5 7q-26 0 -43.5 -10.5t-28 -26t-14.5 -33.5t-4 -32
q0 -33 7.5 -57.5t20 -43t28.5 -32t32 -25.5q26 3 43 18.5t26.5 35.5t13.5 41.5t4 36.5zM325 658q17 0 31 9t24 23t15.5 31.5t5.5 34.5q0 20 -5 38.5t-14.5 32.5t-23 22.5t-30.5 8.5q-33 0 -56.5 -29t-39.5 -77q9 -30 20.5 -48.5t24 -28.5t25 -13.5t23.5 -3.5z" />
    <glyph glyph-name="kn_ai" unicode="&#xc90;" horiz-adv-x="1443" 
d="M375 -10q-60 0 -119 18.5t-106.5 57.5t-77 100t-29.5 147q0 77 33.5 133t86 92.5t116 54t124.5 17.5l-20 -166q-20 -2 -44.5 -10t-46 -23.5t-36.5 -41t-15 -62.5q0 -38 12 -65.5t31.5 -45.5t44 -27t48.5 -9q42 0 73.5 21.5t52.5 54.5t32 72.5t11 76.5h198q0 -52 16 -93.5
t41 -71t56 -45t61 -15.5q36 0 72 21t64.5 63.5t46.5 107t18 151.5q0 67 -13.5 131t-39.5 113.5t-64.5 80t-87.5 30.5q-40 0 -71.5 -21.5t-53.5 -54.5t-33.5 -72.5t-11.5 -76.5h-198q0 52 -12.5 93.5t-33 71t-47 45t-55.5 15.5q-32 0 -61 -11.5t-50.5 -33t-34 -53.5
t-12.5 -73q0 -2 0.5 -8t1.5 -14v-27l-196 -25q-3 21 -5 41t-2 36q0 69 26 130.5t73 107.5t114 73t148 27q74 0 142 -31.5t110 -96.5q40 65 98.5 96.5t146.5 31.5q93 0 170.5 -38t133 -107t86 -166t30.5 -215q0 -125 -30 -220.5t-84 -160.5t-128 -98t-162 -33
q-95 0 -158 37.5t-103 100.5q-45 -69 -115.5 -103.5t-161.5 -34.5z" />
    <glyph glyph-name="kn_au" unicode="&#xc94;" horiz-adv-x="1445" 
d="M618 914q27 -31 36.5 -73.5t9.5 -84.5q0 -63 -31.5 -111t-79 -86.5t-103 -70.5t-103 -63t-79 -64t-31.5 -73q0 -32 12.5 -56t32.5 -40t45.5 -24t51.5 -8q40 0 73.5 15.5t58 45t40 71t18.5 93.5h195q4 -42 14 -82t29 -72t48.5 -51.5t72.5 -19.5q24 0 49.5 9t46 27t34 45.5
t13.5 65.5q0 37 -15 62.5t-36.5 41t-46.5 23.5t-44 10l-20 166q61 0 124.5 -17.5t116 -54t86 -92.5t33.5 -133q0 -86 -29.5 -147t-77 -100t-106.5 -57.5t-119 -18.5q-44 0 -82 11t-70.5 31.5t-61.5 48.5t-55 62q-52 -79 -125 -116t-164 -37q-54 0 -114 15t-110.5 51t-83 95
t-32.5 146q0 62 31.5 110t79 87t103 71.5t103 64t79 64.5t31.5 74q0 22 -9 37t-23.5 24.5t-31.5 14t-33 4.5q-31 0 -54.5 -14t-41 -36t-28.5 -47.5t-17 -48.5q-51 19 -91 35q-17 7 -33 14t-29 13t-20.5 11t-7.5 8q14 49 41 93.5t66.5 78t92 53.5t118.5 20h114q20 0 36 18.5
t16 46.5q0 13 -7 24t-16.5 19.5t-21 13.5t-20.5 5h-423v170h901q101 0 172 -24t116 -66.5t66 -100t21 -124.5q0 -59 -20.5 -109t-57 -86t-88.5 -56.5t-115 -20.5q-67 0 -119 24.5t-87.5 64t-54 89t-18.5 100.5h197q0 -52 24 -80.5t56 -28.5q36 0 60.5 28t24.5 82
q0 65 -47 101.5t-133 36.5h-298q20 -7 36 -19.5t27 -27.5t17 -31.5t6 -31.5q0 -20 -4.5 -38.5t-17 -35t-34 -31t-55.5 -26.5z" />
    <glyph glyph-name="kn_ba" unicode="&#xcac;" horiz-adv-x="1477" 
d="M935 160q55 0 96 24.5t67.5 65t39.5 93t13 108.5q0 53 -14 111t-50 117.5t-99.5 120t-162.5 118.5l89 143q130 -68 214.5 -147.5t133.5 -160.5t68 -159t19 -143q0 -109 -29.5 -194.5t-83.5 -145t-130 -90.5t-169 -31q-44 0 -82 11t-70.5 31.5t-61.5 48.5t-55 62
q-52 -79 -125 -116t-164 -37q-54 0 -114 15t-110.5 51t-83 95t-32.5 146q0 62 31.5 110t79 87t103 71.5t103 64t79 64.5t31.5 74q0 22 -9 37t-23.5 24.5t-31.5 14t-33 4.5q-31 0 -54.5 -14t-41 -36t-28.5 -47.5t-17 -48.5l-181 81q14 49 41 93.5t66.5 78t92 53.5t118.5 20
q68 0 123.5 -18.5t94.5 -53.5t60 -85.5t21 -114.5q0 -63 -31.5 -111t-79 -86.5t-103 -70.5t-103 -63t-79 -63.5t-31.5 -73.5q0 -32 12.5 -56t32.5 -40t45.5 -24t51.5 -8q40 0 73.5 15.5t58 45t40 71t18.5 93.5h195q4 -42 15 -82t31.5 -72t51 -51.5t73.5 -19.5z" />
    <glyph glyph-name="kn_bha" unicode="&#xcad;" horiz-adv-x="1478" 
d="M1349 451q0 -109 -29.5 -194.5t-83.5 -145t-130 -90.5t-169 -31q-44 0 -82 11t-70.5 31.5t-61.5 48.5t-55 62q-52 -79 -125 -116t-164 -37q-54 0 -114 15t-110.5 51t-83 95t-32.5 146q0 62 31.5 110t79 87t103 71.5t103 64t79 64.5t31.5 74q0 22 -9 37t-23.5 24.5
t-31.5 14t-33 4.5q-31 0 -54.5 -14t-41 -36t-28.5 -47.5t-17 -48.5q-51 19 -91 35q-17 7 -33 14t-29 13t-20.5 11t-7.5 8q14 49 41 93.5t66.5 78t92 53.5t118.5 20q68 0 123.5 -18.5t94.5 -53.5t60 -85.5t21 -114.5q0 -63 -31.5 -111t-79 -86.5t-103 -70.5t-103 -63
t-79 -63.5t-31.5 -73.5q0 -32 12.5 -56t32.5 -40t45.5 -24t51.5 -8q40 0 73.5 15.5t58 45t40 71t18.5 93.5h195q4 -42 15 -82t31.5 -72t51 -51.5t73.5 -19.5q55 0 96 24.5t67.5 65t39.5 93t13 108.5q0 52 -19.5 116.5t-59.5 123.5t-101 102.5t-145 54.5h-75v170h268
q74 0 109 33t35 83q0 32 -19.5 62.5t-44.5 49.5l101 124q77 -58 113.5 -124.5t36.5 -123.5q0 -39 -13.5 -79t-40.5 -74.5t-67 -61t-93 -37.5q56 -44 96.5 -98.5t66.5 -111t38 -111t12 -98.5zM776 -170q0 -21 -6.5 -41t-20 -35t-33.5 -24.5t-48 -9.5q-27 0 -47 9.5
t-33.5 25.5t-20 35.5t-6.5 39.5q0 55 31.5 110t75.5 115q48 -62 78 -114.5t30 -110.5z" />
    <glyph glyph-name="kn_ca" unicode="&#xc9a;" horiz-adv-x="1396" 
d="M1270 776q0 -38 -26 -69.5t-59 -50.5h106v-169h-104q37 -43 60 -89.5t23 -112.5q0 -70 -27.5 -125t-74 -92.5t-107 -57.5t-127.5 -20q-44 0 -85 13t-75.5 34t-62 48.5t-43.5 57.5q-20 -31 -44.5 -58.5t-58 -48.5t-77 -33.5t-101.5 -12.5q-54 0 -115.5 14.5t-113 49.5
t-85.5 93.5t-34 145.5q0 69 31.5 118.5t79 87t103 67t103 59t79 63.5t31.5 80q0 22 -9 37t-23 24.5t-31 14t-33 4.5q-31 0 -55 -14t-41 -36t-28.5 -47.5t-16.5 -48.5l-181 81q14 49 41 93.5t66.5 78t92 53.5t117.5 20q68 0 124 -18.5t95.5 -53t61.5 -85t22 -114.5
q0 -50 -18.5 -89.5t-48.5 -71.5t-69 -58.5t-79 -49.5t-79 -44.5t-69 -44.5t-48.5 -48t-18.5 -56q0 -38 14.5 -64t36 -42t46 -22.5t44.5 -6.5q40 0 74 15.5t58.5 45t39.5 71t18 93.5h196q4 -42 16.5 -82t34 -72t53 -51.5t72.5 -19.5q25 0 50 9t45.5 27t33 45.5t12.5 64.5
q0 39 -12.5 70t-30 54t-37 37.5t-33.5 19.5h-220v169h261q8 3 20 10t23.5 20t20 30.5t8.5 41.5q0 23 -9 39t-21 26.5t-24.5 16.5t-20.5 8h-258v170h279q22 1 43 10t38 24t27.5 36t10.5 46q0 32 -20 62.5t-44 49.5l100 124q39 -29 67 -61t47 -64t28 -63.5t9 -59.5
q0 -62 -38 -121.5t-107 -100.5q41 -27 61 -59t20 -65z" />
    <glyph glyph-name="kn_cha" unicode="&#xc9b;" horiz-adv-x="1638" 
d="M1505 451q0 -109 -29.5 -194.5t-83.5 -145t-130 -90.5t-169 -31q-44 0 -84.5 9t-77.5 29.5t-71.5 53.5t-65.5 80q-32 -50 -68.5 -83t-74 -52.5t-76 -28t-75.5 -8.5q-80 0 -162 29t-148 89t-107.5 152.5t-41.5 219.5q0 114 31 214t83.5 174.5t121.5 117t146 42.5
q67 0 115 -26.5t78.5 -66t44.5 -85.5t14 -85q0 -50 -17 -98t-49 -85.5t-78 -60.5t-104 -23q-54 0 -100 27.5t-72 80.5q-5 -15 -8 -33t-4.5 -35.5t-2 -33t-0.5 -24.5q0 -87 24.5 -147.5t62 -99t82 -56t84.5 -17.5t77.5 21.5t66 54.5t45.5 72.5t17 76.5h198q0 -45 17.5 -85.5
t45.5 -71.5t62.5 -49.5t68.5 -18.5q55 0 96 24.5t67 65t39 93t13 108.5q0 52 -19.5 116.5t-59.5 123.5t-101 102.5t-145 54.5h-75v170h269q74 0 109 33t35 83q0 32 -20 62.5t-44 49.5l100 124q39 -29 67 -61t47 -64t28 -63.5t9 -59.5q0 -39 -13 -77.5t-38 -72t-61.5 -60.5
t-82.5 -42q54 -44 91 -98.5t60 -111t33 -111t10 -98.5zM402 667q17 0 31 10.5t23.5 25.5t15 32t5.5 30q0 18 -5 36t-14.5 32t-23 22.5t-29.5 8.5q-23 0 -48.5 -29.5t-48.5 -74.5q19 -53 46 -73t48 -20zM902 -170q0 -21 -6.5 -41t-20 -35t-33.5 -24.5t-48 -9.5q-27 0 -47 9.5
t-33.5 25.5t-20 35.5t-6.5 39.5q0 55 31.5 110t75.5 115q48 -62 78 -114.5t30 -110.5z" />
    <glyph glyph-name="kn_da" unicode="&#xca6;" horiz-adv-x="1514" 
d="M808 352q8 -26 24 -59.5t39 -63t53 -49.5t68 -20q41 0 76.5 18t61.5 53.5t41 88.5t15 123q0 68 -21 124.5t-56.5 101.5t-82.5 78.5t-99.5 56t-107.5 33.5t-106 11t-106 -11t-107.5 -33.5t-100 -56t-83 -78.5t-56.5 -101.5t-21 -124.5q0 -70 15 -123t41.5 -88.5
t61.5 -53.5t76 -18q38 0 68.5 20t53.5 49.5t38.5 63t23.5 59.5h191zM41 848v170h1081q74 0 109 33t35 83q0 32 -20 62.5t-44 49.5l100 124q39 -29 67 -61t46.5 -64t27.5 -63.5t9 -59.5q0 -50 -15.5 -95.5t-48.5 -82.5t-84.5 -61.5t-123.5 -31.5q95 -78 150 -182t55 -227
q0 -99 -28.5 -182t-80 -143t-124.5 -93.5t-161 -33.5q-34 0 -69 6t-70 22.5t-70 46.5t-69 78q-33 -48 -68.5 -78t-71 -46.5t-70.5 -22.5t-69 -6q-89 0 -161 33.5t-124 93.5t-80 143t-28 182q0 122 53.5 225.5t146.5 180.5h-200z" />
    <glyph glyph-name="kn_dda" unicode="&#xca1;" horiz-adv-x="1411" 
d="M675 848q-79 0 -157 -25.5t-140.5 -79.5t-101 -137t-38.5 -197q0 -48 10.5 -93t32.5 -79.5t56 -55.5t81 -21q38 0 66.5 20t48 49.5t31 63t15.5 60.5h194q3 -35 15 -69t32 -62t48 -45t64 -17q33 0 63 13t52.5 34.5t36 50.5t13.5 61q0 33 -6.5 60t-16.5 47
q-46 -38 -120 -38q-35 0 -64.5 10.5t-51.5 30t-34 46.5t-12 60q0 27 11.5 52.5t32.5 45.5t51.5 32.5t69.5 14.5q-13 42 -44 73.5t-71 52.5t-84 31.5t-83 10.5zM40 848v170h979q75 0 109.5 32.5t34.5 83.5q0 32 -19.5 62.5t-44.5 49.5l101 124q77 -58 113.5 -124.5
t36.5 -123.5q0 -51 -16.5 -97.5t-51 -83t-88 -61t-128.5 -30.5q40 -45 62.5 -98t22.5 -113v-15t-1 -11q64 -53 99.5 -131.5t35.5 -161.5q0 -77 -30.5 -138.5t-81 -104t-115.5 -65t-134 -22.5q-33 0 -67.5 8t-67.5 23t-63 36.5t-53 48.5q-47 -58 -113.5 -87t-141.5 -29
q-104 0 -176 40t-117 102t-65 137.5t-20 147.5q0 133 50.5 241.5t140.5 189.5h-191z" />
    <glyph glyph-name="kn_ddha" unicode="&#xca2;" horiz-adv-x="1411" 
d="M675 848q-79 0 -157 -25.5t-140.5 -79.5t-101 -137t-38.5 -197q0 -48 10.5 -93t32.5 -79.5t56 -55.5t81 -21q38 0 66.5 20t48 49.5t31 63t15.5 60.5h194q3 -35 15 -69t32 -62t48 -45t64 -17q33 0 63 13t52.5 34.5t36 50.5t13.5 61q0 33 -6.5 60t-16.5 47
q-46 -38 -120 -38q-35 0 -64.5 10.5t-51.5 30t-34 46.5t-12 60q0 27 11.5 52.5t32.5 45.5t51.5 32.5t69.5 14.5q-13 42 -44 73.5t-71 52.5t-84 31.5t-83 10.5zM40 848v170h979q75 0 109.5 32.5t34.5 83.5q0 32 -19.5 62.5t-44.5 49.5l101 124q77 -58 113.5 -124.5
t36.5 -123.5q0 -51 -16.5 -97.5t-51 -83t-88 -61t-128.5 -30.5q40 -45 62.5 -98t22.5 -113v-15t-1 -11q64 -53 99.5 -131.5t35.5 -161.5q0 -77 -30.5 -138.5t-81 -104t-115.5 -65t-134 -22.5q-33 0 -67.5 8t-67.5 23t-63 36.5t-53 48.5q-47 -58 -113.5 -87t-141.5 -29
q-104 0 -176 40t-117 102t-65 137.5t-20 147.5q0 133 50.5 241.5t140.5 189.5h-191zM781 -170q0 -21 -6.5 -41t-20 -35t-33.5 -24.5t-48 -9.5q-27 0 -47 9.5t-33.5 25.5t-20 35.5t-6.5 39.5q0 55 31.5 110t75.5 115q48 -62 78 -114.5t30 -110.5z" />
    <glyph glyph-name="kn_dha" unicode="&#xca7;" horiz-adv-x="1514" 
d="M808 352q8 -26 24 -59.5t39 -63t53 -49.5t68 -20q41 0 76.5 18t61.5 53.5t41 88.5t15 123q0 68 -21 124.5t-56.5 101.5t-82.5 78.5t-99.5 56t-107.5 33.5t-106 11t-106 -11t-107.5 -33.5t-100 -56t-83 -78.5t-56.5 -101.5t-21 -124.5q0 -70 15 -123t41.5 -88.5
t61.5 -53.5t76 -18q38 0 68.5 20t53.5 49.5t38.5 63t23.5 59.5h191zM41 848v170h1081q74 0 109 33t35 83q0 32 -20 62.5t-44 49.5l100 124q39 -29 67 -61t46.5 -64t27.5 -63.5t9 -59.5q0 -50 -15.5 -95.5t-48.5 -82.5t-84.5 -61.5t-123.5 -31.5q95 -78 150 -182t55 -227
q0 -99 -28.5 -182t-80 -143t-124.5 -93.5t-161 -33.5q-34 0 -69 6t-70 22.5t-70 46.5t-69 78q-33 -48 -68.5 -78t-71 -46.5t-70.5 -22.5t-69 -6q-89 0 -161 33.5t-124 93.5t-80 143t-28 182q0 122 53.5 225.5t146.5 180.5h-200zM821 -170q0 -21 -6.5 -41t-20 -35
t-33.5 -24.5t-48 -9.5q-27 0 -47 9.5t-33.5 25.5t-20 35.5t-6.5 39.5q0 55 31.5 110t75.5 115q48 -62 78 -114.5t30 -110.5z" />
    <glyph glyph-name="kn_e" unicode="&#xc8e;" horiz-adv-x="1404" 
d="M903 -10q-85 0 -153.5 36t-109.5 102q-19 -33 -47.5 -59t-64 -43.5t-76 -26.5t-82.5 -9q-59 0 -118.5 18.5t-106.5 57.5t-76.5 100t-29.5 147q0 77 33.5 133t86 92.5t116 54t124.5 17.5l-20 -166q-20 -2 -44.5 -10t-46 -23.5t-36.5 -41t-15 -62.5q0 -38 12 -65.5
t31.5 -45.5t43.5 -27t48 -9q48 0 79.5 19.5t50.5 51.5t28.5 72t13.5 82h195q7 -105 52.5 -165t122.5 -60q35 0 65.5 13t53 38.5t35.5 63t13 85.5q0 102 -42 185.5t-110 147t-153.5 105.5t-172.5 62v179q136 -35 259 -95.5t216 -146t147.5 -194.5t54.5 -239
q0 -80 -25.5 -148.5t-74 -118.5t-118.5 -78.5t-159 -28.5z" />
    <glyph glyph-name="kn_ee" unicode="&#xc8f;" horiz-adv-x="1404" 
d="M690 834q-45 -55 -102.5 -81.5t-137.5 -26.5q-59 0 -117.5 20.5t-105 61.5t-75.5 102.5t-29 143.5q0 12 1 30.5t5 44.5l198 -28q-6 -30 -6 -52q0 -42 13 -71t33.5 -47.5t45.5 -26.5t49 -8t48 11.5t45 31t39 44t30 50.5q132 -36 251 -97t209 -146t143 -192t53 -234
q0 -80 -25.5 -148.5t-74 -118.5t-118.5 -78.5t-159 -28.5q-85 0 -153.5 36t-109.5 102q-19 -33 -47.5 -59t-64 -43.5t-76 -26.5t-82.5 -9q-59 0 -118.5 18.5t-106.5 57.5t-76.5 100t-29.5 147q0 77 33.5 133t86 92.5t116 54t124.5 17.5l-20 -166q-20 -2 -44.5 -10t-46 -23.5
t-36.5 -41t-15 -62.5q0 -38 12 -65.5t31.5 -45.5t43.5 -27t48 -9q48 0 79.5 19.5t50.5 51.5t28.5 72t13.5 82h195q7 -105 52.5 -165t122.5 -60q35 0 65.5 13t53 38.5t35.5 63t13 85.5q0 90 -32.5 165t-87 134.5t-125 103.5t-146.5 71z" />
    <glyph glyph-name="kn_ga" unicode="&#xc97;" horiz-adv-x="1201" 
d="M38 848v170h820q69 0 106.5 32.5t37.5 83.5q0 16 -6 33.5t-15 34t-21 32t-24 26.5l120 114q67 -66 100 -130.5t33 -121.5q0 -48 -15 -92.5t-46.5 -80.5t-80.5 -61.5t-116 -34.5q71 -76 111.5 -173.5t40.5 -209.5q0 -107 -49 -230.5t-162 -259.5l-142 121q80 85 117.5 181
t37.5 187q0 76 -21.5 145t-63 121t-102 82.5t-138.5 30.5t-138 -30.5t-101.5 -82.5t-63 -121t-21.5 -145q0 -91 37 -186.5t117 -180.5l-140 -123q-113 137 -162.5 260.5t-49.5 231.5q0 109 40.5 205.5t107.5 171.5h-148z" />
    <glyph glyph-name="kn_gha" unicode="&#xc98;" horiz-adv-x="1511" 
d="M1024 744q17 -12 33 -27t31 -28.5t30.5 -23t32.5 -9.5q23 0 41.5 16.5t18.5 49.5q0 21 -9.5 40t-23.5 35t-29 28.5t-27 20.5l104 124q69 -48 113 -107t44 -124q0 -73 -43.5 -125t-113.5 -75q24 -43 39.5 -91t15.5 -101q0 -81 -27 -146.5t-73 -112.5t-107 -72.5
t-130 -25.5q-112 0 -184.5 43t-117.5 115q-45 -80 -113.5 -119t-156.5 -39q-60 0 -119 18.5t-106.5 57.5t-77 100t-29.5 147q0 77 33.5 133t86 92.5t116 54t124.5 17.5l-20 -166q-20 -2 -44.5 -10t-46 -23.5t-36.5 -41t-15 -62.5q0 -38 12 -65.5t31.5 -45.5t44 -27t48.5 -9
q41 0 71.5 19.5t51.5 51.5t32.5 72t15.5 82h196q3 -52 19.5 -93.5t41 -71t54 -45t59.5 -15.5q35 0 66 12t53.5 36t35.5 60t13 84q0 42 -16.5 79t-42 69t-56.5 58.5t-59 47.5zM40 848v170h867q74 0 109 33t35 83q0 32 -19.5 62.5t-44.5 49.5l100 124q39 -29 67 -61t47 -64
t28 -63.5t9 -59.5q0 -54 -19 -103.5t-59 -87.5t-102.5 -60.5t-149.5 -22.5h-868zM750 -170q0 -21 -6.5 -41t-20 -35t-33.5 -24.5t-48 -9.5q-27 0 -47 9.5t-33.5 25.5t-20 35.5t-6.5 39.5q0 55 31.5 110t75.5 115q48 -62 78 -114.5t30 -110.5zM501 624q0 26 11 49t30 40
t45 27t55 10t55 -10t45.5 -27t30.5 -40t11 -49t-11 -48.5t-30.5 -39.5t-45.5 -27t-55 -10t-55 10t-45 27t-30 39.5t-11 48.5z" />
    <glyph glyph-name="kn_ha" unicode="&#xcb9;" horiz-adv-x="1624" 
d="M851 383q0 -49 17 -90t47 -70.5t70 -46t86 -16.5t86 17.5t70 47.5t47.5 70.5t17.5 87.5q0 46 -17.5 87t-47.5 71.5t-70 48t-86 17.5t-86 -16.5t-70 -46t-47 -71t-17 -90.5zM250 383q0 -47 16.5 -87.5t45 -70.5t66.5 -47.5t82 -17.5t83 16.5t67.5 46t45 70.5t16.5 90
q0 48 -16.5 89t-45 71t-67.5 47t-83 17t-82 -17.5t-66.5 -48t-45 -71.5t-16.5 -87zM42 848v170h1166q74 0 108.5 33t34.5 83q0 32 -19.5 62.5t-43.5 49.5l100 124q39 -29 67 -61t46.5 -64t27.5 -63.5t9 -59.5q0 -54 -19 -103.5t-58.5 -87.5t-102 -60.5t-149.5 -22.5h-478
q29 -32 55.5 -71t44.5 -80q52 39 118.5 59.5t139.5 20.5q85 0 158.5 -31t127.5 -84.5t85 -125t31 -153.5q0 -81 -28.5 -153t-81 -125t-126.5 -84t-166 -31q-98 0 -185 43.5t-142 124.5q-54 -82 -134 -125t-177 -43q-89 0 -163 31t-126.5 84t-81.5 125t-29 153q0 82 29 153.5
t81.5 125t125 84.5t158.5 31q46 0 96 -12t95 -42q-15 31 -42.5 64t-78.5 61h-473z" />
    <glyph glyph-name="kn_i" unicode="&#xc87;" horiz-adv-x="1590" 
d="M272 349q-116 77 -173.5 161.5t-57.5 184.5q0 77 28.5 138.5t76.5 105t110.5 66.5t130.5 23q67 0 122.5 -16.5t100 -44.5t79 -65.5t59.5 -79.5q25 42 60 79.5t78.5 65.5t94 44.5t106.5 16.5q84 0 152.5 -28t117 -79t75.5 -121.5t27 -154.5q0 -100 -43.5 -207.5
t-125.5 -202.5q15 -34 24 -70t9 -74t-11 -80.5t-30 -85t-46 -82.5t-58 -73l-154 101q22 27 41.5 53.5t34.5 54.5t24 58t9 63q-35 -24 -72.5 -44t-80 -35t-91 -23t-105.5 -8q-77 0 -138.5 19.5t-104.5 53t-66 79t-23 98.5q0 50 18 89t47 68t66 48.5t76 31.5t76 17.5t66 5.5
q108 0 203.5 -31t165.5 -87q41 56 65.5 125t24.5 149q0 46 -13 83.5t-36.5 63t-55.5 39.5t-70 14q-49 0 -88 -28.5t-69 -73t-51 -99t-34 -106.5h-187q-8 44 -28.5 97.5t-54.5 100.5t-80.5 79t-105.5 32q-35 0 -62.5 -14.5t-46.5 -37.5t-29 -52t-10 -59q0 -60 35.5 -106.5
t107.5 -92.5zM798 160q62 0 125 24t126 80q-29 21 -63 34t-67 20.5t-63.5 10t-52.5 2.5q-24 0 -50.5 -6.5t-48.5 -18.5t-36.5 -28.5t-14.5 -37.5q0 -19 13.5 -33.5t35 -25t47 -16t49.5 -5.5z" />
    <glyph glyph-name="kn_ii" unicode="&#xc88;" horiz-adv-x="2035" 
d="M171 848v170h896q69 0 106 32.5t37 83.5q0 16 -6 33.5t-15 34t-20.5 32t-23.5 26.5l119 114q67 -66 100 -130.5t33 -121.5q0 -51 -16.5 -97.5t-51 -83.5t-89 -61.5t-129.5 -30.5q51 -54 85 -118t48 -134h147q-8 8 -19.5 22.5t-22 34.5t-17.5 46t-7 58q0 45 19 89t55 78
t88.5 55t119.5 21q63 0 115 -24t89.5 -63t58 -88.5t20.5 -100.5q0 -89 -29.5 -150t-92.5 -98q52 -44 87 -95t35 -120q0 -58 -16 -106t-48 -82.5t-80.5 -54t-114.5 -19.5q-46 0 -84 12.5t-68 30.5t-52 38.5t-36 37.5l113 153q16 -21 31.5 -39.5t30.5 -32.5t30 -22t29 -8
q23 0 36 10t20 24t8.5 29t1.5 25q0 25 -11.5 46.5t-31.5 41.5t-47 39.5t-59 41.5h-296q-15 -92 -62.5 -171.5t-119 -138.5t-162 -93t-191.5 -34q-102 0 -192.5 34t-161.5 93t-118 138.5t-62 171.5h-131v170h131q13 72 46 134.5t86 116.5h-138zM711 160q55 0 108 19.5
t97.5 54.5t77.5 84t48 109h-663q15 -61 48 -110.5t78 -84t98 -53.5t108 -19zM619 848q-41 -13 -79 -36t-69 -55.5t-54.5 -72.5t-35.5 -87h660q-12 46 -35.5 86.5t-54.5 72.5t-69 55.5t-79 36.5h-184zM1691 725q0 16 -6 34.5t-16.5 34.5t-26.5 26.5t-35 10.5q-42 0 -62.5 -26
t-20.5 -67q0 -44 22 -76.5t54 -60.5q38 6 64.5 35t26.5 89z" />
    <glyph glyph-name="kn_ja" unicode="&#xc9c;" horiz-adv-x="1393" 
d="M379 -10q-54 0 -114 15t-110.5 51t-83 95t-32.5 146q0 62 31.5 110t79 87t103 71.5t103 64t79 64.5t31.5 74q0 22 -9 37t-23.5 24.5t-31.5 14t-33 4.5q-31 0 -54.5 -14t-41 -36t-28.5 -47.5t-17 -48.5l-90 40q-17 8 -33 15t-29 13q-15 7 -29 13q14 49 41 93.5t66.5 78
t92 53.5t118.5 20q106 0 179.5 -43.5t102.5 -124.5q48 -38 101.5 -61.5t105.5 -23.5q30 0 50 18t20 46q0 17 -11 37t-26 35l142 81q42 -39 67.5 -83.5t25.5 -92.5q0 -39 -20 -72t-54.5 -57t-79.5 -38t-96 -14q-56 0 -110 17t-106 47q-15 -51 -51.5 -91t-83 -73.5t-97 -62
t-92 -57t-68.5 -59.5t-27 -68q0 -32 12.5 -56t32.5 -40t45.5 -24t51.5 -8q40 0 73.5 15.5t58 45t40 71t18.5 93.5h195q4 -42 14 -82t29 -72t48.5 -51.5t72.5 -19.5q24 0 49.5 9t46 27t34 45.5t13.5 65.5q0 37 -15 62.5t-36.5 41t-46.5 23.5t-44 10l-20 166q61 0 124.5 -17.5
t116 -54t86 -92.5t33.5 -133q0 -86 -29.5 -147t-77 -100t-106.5 -57.5t-119 -18.5q-44 0 -82 11t-70.5 31.5t-61.5 48.5t-55 62q-52 -79 -125 -116t-164 -37z" />
    <glyph glyph-name="kn_jha" unicode="&#xc9d;" horiz-adv-x="2394" 
d="M50 504q0 99 38 187t105 157h-143v170h781q74 0 109 33t35 83q0 32 -20 62.5t-44 49.5l100 124q39 -29 67 -61t47 -64t28 -63.5t9 -59.5q0 -39 -11 -77t-33 -70.5t-56 -59t-80 -43.5q78 -72 123 -166t45 -202q0 -55 -14.5 -111t-37.5 -106q13 -26 31.5 -49t40.5 -40.5
t45 -27.5t45 -10q55 0 95.5 24.5t67 65t39 93t12.5 108.5q0 53 -14 111t-50 117.5t-99.5 120t-162.5 118.5l89 143q131 -68 215.5 -147.5t133.5 -160.5t68 -159t19 -143q0 -77 -17 -147q10 -30 28 -56.5t40.5 -46t48 -30.5t49.5 -11q55 0 96 24.5t67 65t39 93t13 108.5
q0 53 -14 111t-50 117.5t-99.5 120t-162.5 118.5l88 143q131 -68 215.5 -147.5t133.5 -160.5t68 -159t19 -143q0 -109 -29.5 -194.5t-84 -145t-130.5 -90.5t-169 -31q-77 0 -146.5 34.5t-117.5 89.5q-53 -58 -128.5 -91t-169.5 -33q-41 0 -81 10t-76.5 29t-68 44.5
t-55.5 57.5q-73 -65 -170 -103t-209 -38q-76 0 -146 18.5t-131 52t-111.5 80t-86.5 104t-55.5 123t-19.5 136.5zM249 502q0 -81 30.5 -144.5t80 -107.5t112 -67t127.5 -23q64 0 127 24.5t112.5 69.5t80 108t30.5 140q0 75 -31 138.5t-80.5 109t-112 71.5t-126.5 26
q-63 0 -126 -26t-112.5 -71.5t-80.5 -109t-31 -138.5zM1666 -170q0 -21 -6.5 -41t-20 -35t-33.5 -24.5t-48 -9.5q-27 0 -47 9.5t-33.5 25.5t-20 35.5t-6.5 39.5q0 55 31.5 110t75.5 115q48 -62 78 -114.5t30 -110.5z" />
    <glyph glyph-name="kn_ka" unicode="&#xc95;" horiz-adv-x="1167" 
d="M36 848v170h732q69 0 106 32.5t37 83.5q0 16 -6 33.5t-15 34t-20.5 32t-23.5 26.5l119 114q67 -66 100 -130.5t33 -121.5q0 -54 -19 -103.5t-58.5 -87.5t-102 -60.5t-149.5 -22.5h-126v-66h407v-111h-180q37 -21 70 -51.5t57.5 -67t38.5 -76.5t14 -80q0 -84 -40 -158
t-108.5 -129t-161 -87t-197.5 -32t-197.5 32t-161.5 87t-108.5 129t-39.5 158q0 39 11 77.5t33 74.5t56 67.5t80 55.5h-180v111h408v66h-408zM235 396q0 -49 24 -92t66 -75t98 -50.5t120 -18.5t120 18.5t98 50.5t66 75t24 92t-24 92t-66 75t-98 50.5t-120 18.5t-120 -18.5
t-98 -50.5t-66 -75t-24 -92z" />
    <glyph glyph-name="kn_kha" unicode="&#xc96;" horiz-adv-x="1623" 
d="M357 -10q-56 0 -112.5 14.5t-101.5 44.5t-73.5 75.5t-28.5 107.5q0 58 27 102.5t70.5 74.5t99 45.5t113.5 15.5q42 0 81.5 -9t77 -24.5t72.5 -36t70 -43.5q23 45 35 95.5t12 98.5q0 68 -20 117.5t-60 96.5q-2 -63 -25 -107.5t-58.5 -72t-79 -40t-85.5 -12.5
q-60 0 -110 18.5t-86 50.5t-56.5 75t-20.5 92q0 59 21.5 107t62 81.5t98.5 52t131 18.5q96 0 184 -36.5t155 -100t107 -149.5t40 -185q0 -90 -23 -167t-64 -143q58 -38 110.5 -62.5t106.5 -24.5q70 0 120.5 32t82.5 83t47.5 113.5t15.5 123.5q0 33 -9 83t-41.5 107
t-94.5 116.5t-167 112.5l89 143q73 -36 148 -91t135.5 -127t99 -161t38.5 -192q0 -107 -31.5 -200.5t-91 -163t-145.5 -109.5t-196 -40q-50 0 -93.5 11t-82.5 29t-74.5 42t-69.5 50q-36 -31 -78 -55.5t-87 -41.5t-92 -26t-93 -9zM350 310q-52 0 -81.5 -21t-29.5 -55
q0 -20 11.5 -34t28.5 -23t35.5 -13t33.5 -4q63 0 115.5 20.5t94.5 55.5q-48 32 -99 53t-109 21zM411 858q-29 0 -50.5 -8t-35.5 -21t-21 -29.5t-7 -33.5q0 -32 20.5 -56.5t59.5 -24.5q50 0 80.5 39t30.5 103v9t-1 11q-39 11 -76 11z" />
    <glyph glyph-name="kn_la" unicode="&#xcb2;" horiz-adv-x="1550" 
d="M894 1024q122 0 219.5 -44.5t166 -114t105 -154t36.5 -164.5q0 -99 -28.5 -178t-78 -140t-116 -104.5t-143.5 -71t-160 -40.5t-165 -13q-76 0 -156.5 14t-157 43.5t-145 76t-120 112t-81.5 151.5t-30 193q0 96 30.5 176t83 137t122.5 89t148 32q64 0 110.5 -24.5
t76.5 -63.5t44 -86.5t14 -93.5q0 -51 -17.5 -99t-50.5 -85.5t-80 -60.5t-106 -23q-66 0 -109 22.5t-70 57.5q8 -108 56.5 -183.5t119.5 -123t155 -69.5t163 -22q57 0 115.5 8.5t113.5 26.5t103 47.5t84 71t57 97t21 126.5q0 66 -30.5 122t-78.5 97.5t-106.5 64.5t-114.5 23
v170zM398 854q-38 0 -71 -30t-57 -84q13 -26 30 -42t34.5 -25t33 -12t27.5 -3q17 0 31 10.5t23.5 25.5t15 32t5.5 30q0 18 -5 35.5t-14 31.5t-22.5 22.5t-30.5 8.5z" />
    <glyph glyph-name="kn_lla" unicode="&#xcb3;" horiz-adv-x="1431" 
d="M832 848v170h283q74 0 109 33t35 83q0 32 -20 62.5t-44 49.5l100 124q39 -29 67 -61t47 -64t28 -63.5t9 -59.5q0 -42 -12 -81.5t-37 -73.5t-63 -60.5t-89 -41.5q30 -43 45.5 -88t15.5 -80q0 -60 -19 -106t-51.5 -82t-76.5 -63t-93.5 -48t-102.5 -37t-104 -30
q23 -27 36 -59t13 -74q0 -43 -18 -80.5t-50.5 -66t-76.5 -45t-96 -16.5q-50 0 -94 15t-76 42.5t-50.5 65.5t-18.5 85q0 40 14 72t40 59q-51 14 -103 30t-101 37.5t-92 50t-75.5 67t-51 88.5t-18.5 115q0 67 24 124t65.5 98.5t96 65t115.5 23.5q67 0 117 -21.5t82 -56t48 -78
t16 -87.5q0 -57 -19.5 -100.5t-51.5 -73t-73.5 -44t-84.5 -14.5q-24 0 -47 4t-43 12q25 -22 57 -38.5t67.5 -29.5t73.5 -23t75 -19q30 -7 55 -13t54 -14q28 9 62.5 19t64.5 19q57 16 113 35t100 45t71.5 61.5t27.5 85.5q0 68 -39.5 109.5t-114.5 41.5h-121zM341 858
q-12 0 -27 -4.5t-31 -15t-30 -28.5t-23 -45q12 -14 27 -22.5t29 -13.5t27 -6.5t21 -1.5q36 0 54.5 23t18.5 47q0 32 -18.5 49.5t-47.5 17.5zM606 207q0 -22 17 -43t45 -21q26 0 43.5 19.5t17.5 44.5q0 23 -17.5 43.5t-43.5 29.5q-26 -9 -44 -29.5t-18 -43.5z" />
    <glyph glyph-name="kn_ma" unicode="&#xcae;" horiz-adv-x="2026" 
d="M1322 451q0 -21 -1.5 -45.5t-4.5 -49t-8.5 -47.5t-13.5 -41q14 -27 34.5 -47.5t44 -34t48.5 -20t48 -6.5q55 0 95 24.5t66.5 65t39 93t12.5 108.5q0 53 -14 111t-50 117.5t-99.5 120t-162.5 118.5l88 143q131 -68 215.5 -147.5t133.5 -160.5t68 -159t19 -143
q0 -109 -29.5 -194.5t-83 -145t-129.5 -90.5t-169 -31q-36 0 -72.5 9t-70.5 25t-64.5 38t-54.5 47q-54 -58 -128.5 -88.5t-168.5 -30.5q-85 0 -155.5 34.5t-108.5 103.5q-47 -71 -115 -104.5t-153 -33.5q-60 0 -119 18.5t-106.5 57.5t-77 100t-29.5 147q0 77 33.5 133
t86 92.5t116 54t124.5 17.5l-20 -166q-20 -2 -44.5 -10t-46 -23.5t-36.5 -41t-15 -62.5q0 -38 12 -65.5t31.5 -45.5t44 -27t48.5 -9q41 0 71.5 19.5t51.5 51.5t32.5 72t15.5 82h196q3 -52 18.5 -93.5t38.5 -71t50.5 -45t54.5 -15.5q55 0 95.5 24.5t67 65t39.5 93t13 108.5
q0 52 -19.5 116.5t-59.5 123.5t-101 102.5t-145 54.5h-753v170h946q75 0 109.5 32.5t34.5 83.5q0 32 -19.5 62.5t-43.5 49.5l100 124q39 -29 67 -61t46.5 -64t27.5 -63.5t9 -59.5q0 -40 -12 -78t-36 -70.5t-59.5 -58.5t-82.5 -42q54 -47 90.5 -102.5t58.5 -112t31 -110
t9 -97.5z" />
    <glyph glyph-name="kn_matra_l" 
d="M-582 -746q-63 0 -105.5 13.5t-68.5 34t-37 44t-11 44.5q0 43 26 64t65.5 32t85 16.5t85 17.5t65.5 35.5t26 69.5q0 9 -3 20t-10.5 21t-21 16.5t-33.5 6.5q-24 0 -44 -14t-36 -36.5t-27.5 -50t-18.5 -54.5h-105q-4 22 -13.5 49t-25 50.5t-36.5 39.5t-48 16t-48 -20.5
t-21 -49.5q0 -34 17 -59t50 -46l-76 -70q-45 29 -73 72t-28 97q0 40 17 71t44 52.5t60.5 32.5t66.5 11q66 0 107.5 -29.5t61.5 -75.5q31 58 78 81.5t104 23.5q43 0 75.5 -13.5t54.5 -36t32.5 -51.5t10.5 -60q0 -59 -26 -94.5t-65.5 -56t-85 -30t-85 -16.5t-65.5 -16t-26 -27
q0 -9 10 -16.5t26 -13.5t35.5 -9t39.5 -3q79 0 131.5 27t84 71t44.5 99t13 111q0 13 -1.5 31l-3.5 42h111q3 -22 4 -41t1 -37q0 -41 -7.5 -85.5t-25.5 -87.5t-47 -81.5t-71.5 -68t-100 -46.5t-132.5 -17z" />
    <glyph glyph-name="kn_matra_ll" 
d="M-358 -651q30 35 39.5 75t9.5 68q0 41 -14 76.5t-42 61.5t-70 41t-97 15h-27v-44q0 -62 -18 -130t-61.5 -125.5t-117.5 -95t-186 -37.5q-63 0 -105.5 13.5t-68.5 34t-37 44t-11 44.5q0 43 26 64t65.5 32t85 16.5t85 17.5t65.5 35.5t26 69.5q0 9 -3 20t-10.5 21t-21 16.5
t-33.5 6.5q-24 0 -44 -14t-36 -36.5t-27.5 -50t-18.5 -54.5h-105q-4 22 -13.5 49t-25 50.5t-36.5 39.5t-48 16t-48 -20.5t-21 -49.5q0 -34 17 -59t50 -46l-76 -70q-45 29 -73 72t-28 97q0 40 17 71t44 52.5t60.5 32.5t66.5 11q66 0 107.5 -29.5t61.5 -75.5q31 58 78 81.5
t104 23.5q43 0 75.5 -13.5t54.5 -36t32.5 -51.5t10.5 -60q0 -59 -26 -94.5t-65.5 -56t-85 -30t-85 -16.5t-65.5 -16t-26 -27q0 -9 10 -16.5t26 -13.5t35.5 -9t39.5 -3q85 0 138 27.5t83 73t40.5 104t10.5 120.5v20t-1 20l-3 76h137q82 0 145 -22.5t106 -61.5t65.5 -91
t22.5 -110q0 -55 -15 -100t-43 -77t-67 -49.5t-88 -17.5q-88 0 -137 44.5t-49 116.5q0 27 9 52.5t26.5 45t42.5 31.5t57 12q33 0 55.5 -12t36.5 -31t20.5 -43t6.5 -48q0 -17 -4 -34t-11 -34zM-499 -590q0 -27 12.5 -44t26.5 -24q14 12 20.5 32t6.5 35q0 23 -9.5 37t-20.5 14
q-15 0 -25.5 -13.5t-10.5 -36.5z" />
    <glyph glyph-name="kn_matra_r" unicode="&#xcc3;" horiz-adv-x="466" 
d="M-5 492q118 -95 194 -190t120 -187.5t60.5 -179.5t16.5 -166q0 -38 -7 -86t-24 -96.5t-45 -95t-71 -82.5t-101.5 -58t-135.5 -22q-66 0 -129 24t-111.5 67.5t-78 105.5t-29.5 138q0 59 18 108t49.5 84t75.5 54t97 19q46 0 84.5 -16.5t66 -44.5t42.5 -65.5t15 -79.5
q0 -40 -16 -73t-44 -57.5t-67 -40t-85 -20.5q21 -24 52.5 -32.5t55.5 -8.5q55 0 96 23.5t69 62t42 88.5t14 104q0 95 -25.5 178t-70 155.5t-105.5 135t-132 116.5zM-186 -325q0 -8 3 -23.5t11 -32.5q36 2 60.5 10.5t40.5 21t23 27.5t7 32q0 27 -14.5 47t-40.5 20
q-36 0 -63 -23t-27 -79z" />
    <glyph glyph-name="kn_matra_rr" unicode="&#xcc4;" horiz-adv-x="1145" 
d="M190 302q58 -71 95.5 -141t60 -137.5t31.5 -131.5t9 -123q0 -38 -7 -86t-24 -96.5t-45 -95t-71 -82.5t-101.5 -58t-135.5 -22q-66 0 -129 24t-111.5 67.5t-78 105.5t-29.5 138q0 59 19 108t53 84t79 54t98 19q44 0 84 -13.5t70 -40t47.5 -65t17.5 -87.5q0 -44 -17 -78.5
t-47 -60t-70.5 -40.5t-86.5 -20q21 -15 47 -24t50 -9q55 0 95 26.5t66 67t39 89.5t13 95q0 95 -24 178t-67.5 155.5t-103 135t-130.5 116.5l85 118h577q126 0 219 -33.5t154.5 -91t91.5 -134.5t30 -163q0 -76 -24 -145.5t-68.5 -122t-108.5 -83.5t-144 -31q-52 0 -103 15.5
t-92 47t-66.5 79t-25.5 111.5q0 51 18.5 92t48.5 69.5t68.5 43.5t79.5 15q36 0 65.5 -10.5t50.5 -28t32.5 -39.5t11.5 -45q0 -19 -8 -36.5t-22.5 -31t-34.5 -21.5t-44 -8q-29 0 -54 10t-39 32q-1 -6 -1 -11.5v-12.5q0 -25 9.5 -44t24 -31.5t33 -19t36.5 -6.5q43 0 73.5 17
t49 46.5t27 68.5t8.5 83q0 55 -19 101t-56.5 79t-92.5 51t-128 18h-358zM-186 -325q0 -8 3 -23.5t11 -32.5q36 2 60.5 10.5t40.5 21t23 27.5t7 32q0 27 -14.5 47t-40.5 20q-36 0 -63 -23t-27 -79z" />
    <glyph glyph-name="kn_na" unicode="&#xca8;" horiz-adv-x="1388" 
d="M1263 451q0 -109 -29 -194.5t-81.5 -145t-126.5 -90.5t-163 -31q-60 0 -106 19t-82 49.5t-64 70t-52 80t-46 80t-46.5 70t-53 49.5t-65.5 19q-16 0 -35.5 -5.5t-36 -18t-28 -34t-11.5 -53.5t15 -58.5t40.5 -46t59 -30.5t69.5 -11l-42 -170q-66 0 -127.5 22.5t-109 63.5
t-76 99.5t-28.5 130.5t25.5 124.5t69 87.5t100.5 52t120 17q77 0 133 -32.5t98 -81t74.5 -105t63.5 -105t64 -81t76 -32.5q49 0 87 24.5t64 65t39 93t13 108.5q0 52 -19.5 116.5t-59.5 123.5t-101 102.5t-145 54.5h-702v170h896q74 0 108.5 33t34.5 83q0 32 -19.5 62.5
t-43.5 49.5l100 124q39 -29 67 -61t46.5 -64t27.5 -63.5t9 -59.5q0 -39 -13 -77.5t-37.5 -72t-61 -60.5t-82.5 -42q54 -44 91 -98.5t59.5 -111t32.5 -111t10 -98.5z" />
    <glyph glyph-name="kn_nga" unicode="&#xc99;" horiz-adv-x="1393" 
d="M379 -10q-54 0 -114 15t-110.5 51t-83 95t-32.5 146q0 62 31.5 110t79 87t103 71.5t103 64t79 64.5t31.5 74q0 22 -9 37t-23.5 24.5t-31.5 14t-33 4.5q-31 0 -54.5 -14t-41 -36t-28.5 -47.5t-17 -48.5l-181 81q14 49 41 93.5t66.5 78t92 53.5t118.5 20q81 0 142.5 -25.5
t99.5 -73.5q48 42 109.5 70.5t139.5 28.5q65 0 116.5 -17.5t87 -47.5t54 -69t18.5 -82q0 -15 -4.5 -35t-12.5 -42t-19 -43t-25 -38l-144 68q20 39 20 64q0 20 -9 34.5t-23.5 23.5t-32 13.5t-35.5 4.5t-40.5 -5t-47 -18.5t-49.5 -37t-47 -59.5q-4 -60 -37 -106t-80.5 -83
t-101.5 -68.5t-100 -61.5t-76.5 -62.5t-30.5 -72.5q0 -32 12.5 -56t32.5 -40t45.5 -24t51.5 -8q40 0 73.5 15.5t58 45t40 71t18.5 93.5h195q4 -42 14 -82t29 -72t48.5 -51.5t72.5 -19.5q24 0 49.5 9t46 27t34 45.5t13.5 65.5q0 37 -15 62.5t-36.5 41t-46.5 23.5t-44 10
l-20 166q61 0 124.5 -17.5t116 -54t86 -92.5t33.5 -133q0 -86 -29.5 -147t-77 -100t-106.5 -57.5t-119 -18.5q-44 0 -82 11t-70.5 31.5t-61.5 48.5t-55 62q-52 -79 -125 -116t-164 -37zM659 559q0 -42 30.5 -70.5t75.5 -28.5t75.5 28.5t30.5 70.5t-30.5 71t-75.5 29
t-75.5 -29t-30.5 -71z" />
    <glyph glyph-name="kn_nna" unicode="&#xca3;" horiz-adv-x="1473" 
d="M943 858q-32 0 -60 -21.5t-49.5 -56.5t-36 -79.5t-19.5 -90.5h-190q-11 57 -29 102.5t-43.5 78t-59 50t-75.5 17.5q-18 0 -43 -6t-47 -21t-37.5 -41t-15.5 -66q0 -33 18.5 -57t45.5 -39.5t58 -23t56 -7.5v-170q-32 0 -63.5 -9.5t-57 -27t-41.5 -42t-16 -53.5
q0 -65 37.5 -100t93.5 -35q22 0 47 11t50.5 29t50.5 41.5t46 47.5l105 -151q-21 -25 -49 -51t-65 -47.5t-82.5 -35.5t-100.5 -14q-88 0 -151 27t-103 69.5t-59 95.5t-19 105q0 25 6.5 55.5t21.5 60.5t38.5 58t58.5 49q-65 38 -95 96t-30 117q0 63 24.5 118.5t70 97
t109.5 65.5t143 24q57 0 103 -12t82 -31.5t63 -45t46 -53.5q21 31 49 57t62 45t72 29.5t79 10.5q78 0 151 -29.5t129.5 -97.5t90 -178t33.5 -272q0 -119 -22.5 -206t-65 -143.5t-103 -84t-136.5 -27.5q-63 0 -112 23t-82.5 60.5t-50.5 85t-17 96.5q0 55 18 104.5t51.5 86.5
t81.5 58.5t108 21.5q19 0 39 -6.5t37 -17t31 -24t23 -26.5q1 13 1.5 25.5t0.5 24.5q0 94 -21 161.5t-52 110.5t-66.5 63.5t-65.5 20.5zM1029 356q-18 0 -32 -8.5t-23.5 -22.5t-15 -31.5t-5.5 -35.5q0 -42 19.5 -70t53.5 -28q33 0 60 26t42 77q-9 31 -21 49.5t-25.5 28
t-27.5 12.5t-25 3z" />
    <glyph glyph-name="kn_nya" unicode="&#xc9e;" horiz-adv-x="2126" 
d="M1630 858q-18 0 -37.5 -4t-41.5 -15t-46.5 -30.5t-52.5 -49.5q7 -27 10 -56t3 -58q0 -100 -43.5 -207.5t-124.5 -202.5q15 -34 23.5 -70t8.5 -74t-11 -80.5t-30 -85t-46 -82.5t-58 -73l-154 101q21 25 40.5 52t35 54t24.5 54t9 53v9.5t1 0.5q0 2 -0.5 3t-0.5 3
q-35 -24 -72.5 -44t-80 -35t-90.5 -23t-105 -8q-77 0 -139 19.5t-105 53t-66 79t-23 98.5q0 50 18 89t47 68t66 48.5t76 31.5t76 17.5t66 5.5q109 0 204 -31t166 -87q40 56 64.5 125t24.5 149q0 46 -13 83.5t-36.5 63t-55.5 39.5t-70 14q-49 0 -88 -28.5t-69 -73t-51 -99
t-33 -106.5h-188q-8 44 -28.5 97.5t-54.5 100.5t-80.5 79t-105.5 32q-35 0 -62 -14.5t-46.5 -37.5t-29.5 -52t-10 -59q0 -60 35.5 -106.5t107.5 -92.5l-109 -147q-117 77 -174.5 161.5t-57.5 184.5q0 77 28.5 138.5t76.5 105t110.5 66.5t130.5 23q67 0 122.5 -16.5
t100.5 -44.5t79 -65.5t59 -79.5q25 42 60 79.5t78.5 65.5t94.5 44.5t107 16.5q85 0 154 -29.5t117 -81.5q54 48 119 79.5t145 31.5q68 0 130.5 -23t110.5 -66.5t77 -105t29 -138.5q0 -100 -57.5 -184.5t-173.5 -161.5l-110 147q72 46 107.5 92.5t35.5 106.5q0 30 -10 59
t-29 52t-46.5 37.5t-62.5 14.5zM804 160q62 0 125.5 28.5t126.5 75.5q-30 21 -63.5 34t-66.5 20.5t-63.5 10t-52.5 2.5q-24 0 -51 -6.5t-49 -18.5t-36.5 -28.5t-14.5 -37.5q0 -19 13.5 -33.5t35 -25t47 -16t49.5 -5.5z" />
    <glyph glyph-name="kn_o" unicode="&#xc92;" horiz-adv-x="1393" 
d="M379 -10q-54 0 -114 15t-110.5 51t-83 95t-32.5 146q0 62 31.5 110t79 87t103 71.5t103 64t79 64.5t31.5 74q0 22 -9 37t-23.5 24.5t-31.5 14t-33 4.5q-31 0 -54.5 -14t-41 -36t-28.5 -47.5t-17 -48.5q-51 19 -91 35q-17 7 -33 14t-29 13t-20.5 11t-7.5 8q14 49 41 93.5
t66.5 78t92 53.5t118.5 20q68 0 123.5 -18.5t94.5 -53.5t60 -85.5t21 -114.5q0 -63 -31.5 -111t-79 -86.5t-103 -70.5t-103 -63t-79 -63.5t-31.5 -73.5q0 -32 12.5 -56t32.5 -40t45.5 -24t51.5 -8q40 0 73.5 15.5t58 45t40 71t18.5 93.5h195q4 -42 14 -82t29 -72t48.5 -51.5
t72.5 -19.5q24 0 49.5 9t46 27t34 45.5t13.5 65.5q0 37 -15 62.5t-36.5 41t-46.5 23.5t-44 10l-20 166q61 0 124.5 -17.5t116 -54t86 -92.5t33.5 -133q0 -86 -29.5 -147t-77 -100t-106.5 -57.5t-119 -18.5q-44 0 -82 11t-70.5 31.5t-61.5 48.5t-55 62q-52 -79 -125 -116
t-164 -37z" />
    <glyph glyph-name="kn_oo" unicode="&#xc93;" horiz-adv-x="1393" 
d="M379 -10q-54 0 -114 15t-110.5 51t-83 95t-32.5 146q0 62 31.5 110t79 87t103 71.5t103 64t79 64.5t31.5 74q0 22 -9 37t-23.5 24.5t-31.5 14t-33 4.5q-31 0 -54.5 -14t-41 -36t-28.5 -47.5t-17 -48.5q-51 19 -91 35q-17 7 -33 14t-29 13t-20.5 11t-7.5 8
q12 43 34.5 82.5t54.5 72t74 54.5t95 31q0 55 19.5 103t56 84t88 57t115.5 21q46 0 90 -14t83 -42.5t72 -71t57 -98.5l-149 -105q-37 79 -76 121t-87 42q-37 0 -62.5 -31.5t-27.5 -77.5q85 -27 132.5 -92t47.5 -163q0 -63 -31.5 -111t-79 -86.5t-103 -70.5t-103 -63
t-79 -63.5t-31.5 -73.5q0 -32 12.5 -56t32.5 -40t45.5 -24t51.5 -8q40 0 73.5 15.5t58 45t40 71t18.5 93.5h195q4 -42 14 -82t29 -72t48.5 -51.5t72.5 -19.5q24 0 49.5 9t46 27t34 45.5t13.5 65.5q0 37 -15 62.5t-36.5 41t-46.5 23.5t-44 10l-20 166q61 0 124.5 -17.5
t116 -54t86 -92.5t33.5 -133q0 -86 -29.5 -147t-77 -100t-106.5 -57.5t-119 -18.5q-44 0 -82 11t-70.5 31.5t-61.5 48.5t-55 62q-52 -79 -125 -116t-164 -37z" />
    <glyph glyph-name="kn_pa" unicode="&#xcaa;" horiz-adv-x="1404" 
d="M1025 748q41 -35 86 -77.5t82.5 -92.5t62 -108t24.5 -123q0 -81 -26 -146.5t-74 -112.5t-117 -72.5t-154 -25.5q-86 0 -156 41t-112 107q-45 -69 -114 -108.5t-157 -39.5q-59 0 -118.5 18.5t-106.5 57.5t-76.5 100t-29.5 147q0 77 33.5 133t86 92.5t116 54t124.5 17.5
l-20 -166q-20 -2 -44.5 -10t-46 -23.5t-36.5 -41t-15 -62.5q0 -38 12 -65.5t31.5 -45.5t43.5 -27t48 -9q41 0 71.5 19.5t51.5 51.5t33 72t16 82h195q3 -52 20 -93.5t41.5 -71t54 -45t59.5 -15.5q35 0 65.5 12t53 36t35.5 60t13 84q0 42 -16.5 79t-42 69t-56 58.5t-58.5 47.5
zM39 848v170h867q74 0 109 33t35 83q0 32 -19.5 62.5t-44.5 49.5l100 124q39 -29 67 -61t47 -64t28 -63.5t9 -59.5q0 -54 -19 -103.5t-59 -87.5t-102.5 -60.5t-149.5 -22.5h-868zM510 624q0 26 9.5 49t26.5 40t41.5 27t53.5 10t53.5 -10t42 -27t27 -40t9.5 -49t-9.5 -48.5
t-27 -39.5t-42 -27t-53.5 -10t-53.5 10t-41.5 27t-26.5 39.5t-9.5 48.5z" />
    <glyph glyph-name="kn_pha" unicode="&#xcab;" horiz-adv-x="1404" 
d="M1025 748q41 -35 86 -77.5t82.5 -92.5t62 -108t24.5 -123q0 -81 -26 -146.5t-74 -112.5t-117 -72.5t-154 -25.5q-86 0 -156 41t-112 107q-45 -69 -114 -108.5t-157 -39.5q-59 0 -118.5 18.5t-106.5 57.5t-76.5 100t-29.5 147q0 77 33.5 133t86 92.5t116 54t124.5 17.5
l-20 -166q-20 -2 -44.5 -10t-46 -23.5t-36.5 -41t-15 -62.5q0 -38 12 -65.5t31.5 -45.5t43.5 -27t48 -9q41 0 71.5 19.5t51.5 51.5t33 72t16 82h195q3 -52 20 -93.5t41.5 -71t54 -45t59.5 -15.5q35 0 65.5 12t53 36t35.5 60t13 84q0 42 -16.5 79t-42 69t-56 58.5t-58.5 47.5
zM39 848v170h867q74 0 109 33t35 83q0 32 -19.5 62.5t-44.5 49.5l100 124q39 -29 67 -61t47 -64t28 -63.5t9 -59.5q0 -54 -19 -103.5t-59 -87.5t-102.5 -60.5t-149.5 -22.5h-868zM510 624q0 26 9.5 49t26.5 40t41.5 27t53.5 10t53.5 -10t42 -27t27 -40t9.5 -49t-9.5 -48.5
t-27 -39.5t-42 -27t-53.5 -10t-53.5 10t-41.5 27t-26.5 39.5t-9.5 48.5zM749 -170q0 -21 -6.5 -41t-20 -35t-33.5 -24.5t-48 -9.5q-27 0 -47 9.5t-33.5 25.5t-20 35.5t-6.5 39.5q0 55 31.5 110t75.5 115q48 -62 78 -114.5t30 -110.5z" />
    <glyph glyph-name="kn_ra" unicode="&#xcb0;" horiz-adv-x="1259" 
d="M38 848v170h847q74 0 109 33t35 83q0 32 -19.5 62.5t-44.5 49.5l100 124q39 -29 67 -61t47 -64t28 -63.5t9 -59.5q0 -47 -14 -90t-44 -78.5t-76 -61.5t-110 -37q35 -33 65.5 -73t53 -85t35.5 -94t13 -101q0 -115 -44.5 -209.5t-120.5 -161.5t-175.5 -104t-210.5 -37
q-110 0 -209.5 37t-175 104t-120.5 161.5t-45 209.5q0 108 45 194.5t114 151.5h-159zM238 502q0 -81 30 -144.5t79.5 -107.5t112.5 -67t128 -23q64 0 127 24.5t112.5 69.5t80 108t30.5 140q0 75 -31 138.5t-80.5 109t-112 71.5t-126.5 26t-126.5 -26t-112 -71.5t-80.5 -109
t-31 -138.5z" />
    <glyph glyph-name="kn_rra" unicode="&#xcb1;" horiz-adv-x="1556" 
d="M402 488q-60 0 -99.5 17t-68.5 53q0 -87 22 -160.5t57.5 -126t79 -82t87.5 -29.5q42 0 72 21.5t49.5 54.5t29 72.5t9.5 76.5h187q0 -37 9 -76.5t28.5 -72.5t49.5 -54.5t72 -21.5q43 0 87 29.5t79.5 82t57.5 126t22 160.5q-29 -36 -68.5 -53t-99.5 -17h-662zM355 658
q17 0 31 10.5t23.5 25.5t15 32t5.5 30q0 18 -5 35.5t-14 31.5t-22.5 22.5t-30.5 8.5q-32 0 -58.5 -29.5t-40.5 -88.5q7 -20 19 -34.5t25.5 -24t27 -14.5t24.5 -5zM896 612q-19 22 -30.5 44.5t-18 43t-8.5 38.5t-2 32q0 37 14 81.5t44 83t76.5 64t110.5 25.5q79 0 143 -32
t108.5 -89t68.5 -137t24 -176q0 -108 -20 -194t-54 -152.5t-78 -114.5t-91.5 -79t-95.5 -45.5t-89 -14.5q-81 0 -150 29.5t-115 98.5q-46 -69 -115 -98.5t-150 -29.5q-42 0 -89.5 14.5t-95 45.5t-91.5 79t-78 114.5t-54 153t-20 193.5q0 96 24 176t68.5 137t108 89t143.5 32
q64 0 110.5 -25.5t76.5 -64t44 -83t14 -81.5q0 -14 -2 -32t-8.5 -38.5t-18 -43t-30.5 -44.5h326zM1111 658q11 0 24.5 5t27 14.5t25.5 24t19 34.5q-14 59 -40.5 88.5t-58.5 29.5q-17 0 -30.5 -8.5t-22.5 -22.5t-14 -31.5t-5 -35.5q0 -13 5 -30t15 -32t24 -25.5t31 -10.5z
" />
    <glyph glyph-name="kn_sa" unicode="&#xcb8;" horiz-adv-x="1442" 
d="M1138 820q40 -52 72.5 -106t56 -106.5t36 -102.5t12.5 -94q0 -102 -29.5 -180.5t-81.5 -132t-122.5 -81t-152.5 -27.5q-79 0 -134.5 32.5t-97.5 81t-75 105t-66 105t-71 81t-90 32.5q-17 0 -36 -6.5t-34.5 -20.5t-25.5 -35t-10 -50q0 -32 15.5 -58.5t41 -46t58.5 -30
t69 -10.5l-42 -170q-65 0 -126.5 21t-109 61t-76 97t-28.5 129q0 68 24 122t65.5 91t97 56.5t117.5 19.5q81 0 137 -32.5t97 -81t73 -105t64.5 -105t70.5 -81t93 -32.5q47 0 82 20t58.5 53.5t35 78t11.5 94.5q0 39 -11 78.5t-29.5 77.5t-43 73t-51.5 65zM40 848v170h984
q74 0 109 33t35 83q0 32 -19.5 62.5t-44.5 49.5l100 124q39 -29 67 -61t47 -64t28 -63.5t9 -59.5q0 -54 -19 -103.5t-59 -87.5t-102.5 -60.5t-149.5 -22.5h-985zM688 624q0 -26 9.5 -49t26 -40t39 -26.5t47.5 -9.5t47.5 9.5t39 26.5t26 40t9.5 49t-9.5 49t-26 40t-39 27
t-47.5 10t-47.5 -10t-39 -27t-26 -40t-9.5 -49z" />
    <glyph glyph-name="kn_sha" unicode="&#xcb6;" horiz-adv-x="1242" 
d="M38 848v170h828q74 0 109 33t35 83q0 32 -20 62.5t-44 49.5l100 124q39 -29 67 -62t47 -67.5t28 -68t9 -63.5q0 -46 -15 -90t-47 -79.5t-82 -60t-120 -31.5q43 -31 78 -72.5t60 -88.5t38 -98.5t13 -101.5q0 -134 -48.5 -228.5t-130 -154t-187.5 -87t-221 -27.5
q-57 0 -116 8t-114 24t-103.5 41t-85 59t-57.5 77.5t-21 97.5t22 90.5t58 61.5t81.5 42t93.5 32t93.5 31.5t81.5 40t58 58t22 85.5q0 15 -7 33.5t-20.5 35t-33.5 28.5t-47 13h-6q-23 0 -44 -5.5t-37 -17.5t-26 -30.5t-10 -44.5q0 -10 4.5 -21t11 -21.5t14 -19.5t13.5 -15
l-159 -92q-16 15 -31 37.5t-26 46.5t-18 46.5t-7 36.5q0 26 5 51t18 49h-104zM746 738q0 -66 -22 -113.5t-58 -82.5t-81.5 -59t-93.5 -42t-93.5 -32t-81.5 -29t-58 -33t-22 -44q0 -38 28 -65t71.5 -44.5t96 -25.5t102.5 -8q83 0 154 17.5t123.5 56.5t82.5 101.5t30 151.5
q0 52 -15 101t-40.5 91t-60.5 76.5t-75 58.5q13 -38 13 -76z" />
    <glyph glyph-name="kn_ssa" unicode="&#xcb7;" horiz-adv-x="1477" 
d="M910 -10q-43 0 -82.5 10.5t-74 29t-63 43.5t-48.5 55q-47 -74 -114.5 -106t-155.5 -32q-60 0 -119 18.5t-106.5 57.5t-77 100t-29.5 147q0 77 33.5 133t86 92.5t116 54t124.5 17.5l-20 -166q-20 -2 -44.5 -10t-46 -23.5t-36.5 -41t-15 -62.5q0 -38 12 -65.5t31.5 -45.5
t44 -27t48.5 -9q41 0 71.5 19.5t51.5 51.5t32.5 72t15.5 82h196q3 -52 19.5 -93.5t41 -71t54 -45t59.5 -15.5q78 0 123 53l-271 241l81 90l233 -217q1 7 1.5 13.5t0.5 14.5q0 41 -17 78t-42.5 68.5t-56 58t-58.5 46.5l118 142q41 -35 85.5 -77.5t82 -92.5t62 -108t24.5 -123
q0 -49 -10 -91t-28 -79l125 -115l-70 -80l-121 107q-51 -48 -119 -73.5t-148 -25.5zM40 848v170h867q75 0 109.5 32.5t34.5 83.5q0 32 -19.5 62.5t-44.5 49.5l101 124q77 -58 113.5 -124.5t36.5 -123.5q0 -54 -19 -103.5t-59 -87.5t-102.5 -60.5t-149.5 -22.5h-868zM511 624
q0 26 9.5 49t26.5 40t41.5 27t53.5 10q30 0 54 -10t41.5 -27t27 -40t9.5 -49t-9.5 -48.5t-27 -39.5t-41.5 -27t-54 -10q-29 0 -53.5 10t-41.5 27t-26.5 39.5t-9.5 48.5z" />
    <glyph glyph-name="kn_anusvara" unicode="&#xc82;" horiz-adv-x="896" 
d="M13 512q0 81 32 151.5t86.5 123t126 83t149.5 30.5t151 -30.5t129 -83t89.5 -123t33.5 -151.5t-33 -152.5t-88 -125.5t-127 -85t-150 -31t-150.5 31t-127.5 85t-88 125.5t-33 152.5zM210 512q0 -45 17 -85t44.5 -70t62.5 -47.5t71 -17.5q37 0 72 17.5t62.5 47.5t44.5 70
t17 85t-17 85t-44.5 70t-62.5 47.5t-72 17.5q-36 0 -71 -17.5t-62.5 -47.5t-44.5 -70t-17 -85z" />
    <glyph glyph-name="kn_ta" unicode="&#xca4;" horiz-adv-x="1391" 
d="M742 637q-25 0 -56.5 -4.5t-59 -16t-46 -30t-18.5 -46.5q0 -35 32.5 -57t92.5 -22q32 0 56 13.5t40.5 37t24.5 54.5t8 66q-18 2 -36.5 3.5t-37.5 1.5zM39 848v170h910q74 0 109 33t35 83q0 32 -20 62.5t-44 49.5l100 124q39 -29 67 -61t47 -64t28 -63.5t9 -59.5
q0 -54 -19 -103.5t-59 -87.5t-102.5 -60.5t-149.5 -22.5h-29q17 -18 32.5 -41t26.5 -49q59 -21 111 -53.5t90.5 -74.5t61 -94.5t22.5 -114.5q0 -105 -49 -185.5t-130 -135t-185 -82.5t-214 -28q-73 0 -149 11.5t-148 36t-136 64.5t-111.5 96.5t-75.5 132t-28 171.5
q0 63 21 128.5t63 137.5l176 -78q-62 -103 -62 -207q0 -87 40 -148.5t104.5 -100t145 -56.5t160.5 -18t149.5 19.5t120.5 54.5t80.5 84t29.5 108q0 40 -15.5 72t-42.5 58q-12 -58 -42.5 -105t-74 -80.5t-96.5 -51.5t-109 -18q-62 0 -119 16.5t-100.5 46.5t-69 72.5
t-25.5 94.5q0 62 28.5 111t78.5 82.5t117.5 52t145.5 20.5q-16 15 -33.5 27.5t-35.5 23.5h-635z" />
    <glyph glyph-name="kn_tha" unicode="&#xca5;" horiz-adv-x="1514" 
d="M808 352q8 -26 24 -59.5t39 -63t53 -49.5t68 -20q41 0 76.5 18t61.5 53.5t41 88.5t15 123q0 68 -21 124.5t-56.5 101.5t-82.5 78.5t-99.5 56t-107.5 33.5t-106 11t-106 -11t-107.5 -33.5t-100 -56t-83 -78.5t-56.5 -101.5t-21 -124.5q0 -70 15 -123t41.5 -88.5
t61.5 -53.5t76 -18q38 0 68.5 20t53.5 49.5t38.5 63t23.5 59.5h191zM579 557q0 26 9.5 48.5t26.5 39.5t41.5 27t53.5 10t53.5 -10t42 -27t27 -39.5t9.5 -48.5t-9.5 -49t-27 -40t-42 -27t-53.5 -10t-53.5 10t-41.5 27t-26.5 40t-9.5 49zM41 848v170h1081q74 0 109 33t35 83
q0 32 -20 62.5t-44 49.5l100 124q39 -29 67 -61t46.5 -64t27.5 -63.5t9 -59.5q0 -50 -15.5 -95.5t-48.5 -82.5t-84.5 -61.5t-123.5 -31.5q95 -78 150 -182t55 -227q0 -99 -28.5 -182t-80 -143t-124.5 -93.5t-161 -33.5q-34 0 -69 6t-70 22.5t-70 46.5t-69 78
q-33 -48 -68.5 -78t-71 -46.5t-70.5 -22.5t-69 -6q-89 0 -161 33.5t-124 93.5t-80 143t-28 182q0 122 53.5 225.5t146.5 180.5h-200zM821 -170q0 -21 -6.5 -41t-20 -35t-33.5 -24.5t-48 -9.5q-27 0 -47 9.5t-33.5 25.5t-20 35.5t-6.5 39.5q0 55 31.5 110t75.5 115
q48 -62 78 -114.5t30 -110.5z" />
    <glyph glyph-name="kn_tta" unicode="&#xc9f;" horiz-adv-x="1462" 
d="M788 385q0 -45 14.5 -86t39.5 -72t58 -49t71 -18q32 0 62 12t53 33.5t37 52.5t14 70q0 56 -30 98.5t-74 72.5t-93.5 49.5t-87.5 29.5l40 145q21 1 46.5 5.5t48 13.5t38 24.5t15.5 38.5q0 20 -13.5 34t-34.5 22.5t-46 12t-48 3.5v151q58 0 118.5 -13.5t109.5 -41.5
t80.5 -69.5t31.5 -97.5q0 -59 -25.5 -99.5t-67.5 -65.5q94 -46 142.5 -125t48.5 -191q0 -64 -25 -124.5t-72 -107t-115 -75t-153 -28.5q-99 0 -168.5 37t-114.5 95q-45 -58 -115 -95t-169 -37q-86 0 -153.5 28.5t-114.5 75t-72 107t-25 124.5q0 112 48.5 191t142.5 125
q-42 25 -67.5 65.5t-25.5 99.5q0 56 31.5 97.5t80.5 69.5t109.5 41.5t118.5 13.5v-151q-23 0 -48 -3.5t-46 -12t-34.5 -22.5t-13.5 -34q0 -23 15.5 -38.5t38 -24.5t48.5 -13.5t47 -5.5l39 -145q-38 -10 -87.5 -29.5t-93.5 -49.5t-74 -72.5t-30 -98.5q0 -39 14 -70t37 -52.5
t53 -33.5t62 -12q37 0 70.5 18t59 49t40 72t14.5 86h200z" />
    <glyph glyph-name="kn_ttha" unicode="&#xca0;" horiz-adv-x="1259" 
d="M38 848v170h868q74 0 108.5 33t34.5 83q0 32 -19.5 62.5t-43.5 49.5l100 124q39 -29 67 -61t46.5 -64t27.5 -63.5t9 -59.5q0 -48 -15 -93t-46.5 -81.5t-80.5 -61.5t-118 -34q36 -33 65.5 -72t51.5 -83.5t34 -93t12 -101.5q0 -115 -44.5 -209.5t-120 -161.5t-175.5 -104
t-211 -37q-110 0 -209.5 37t-175 104t-120.5 161.5t-45 209.5q0 108 45 194.5t114 151.5h-159zM238 502q0 -81 30.5 -144.5t80 -107.5t112 -67t127.5 -23q64 0 127 24.5t112.5 69.5t80 108t30.5 140q0 75 -31 138.5t-80.5 109t-112 71.5t-126.5 26t-126.5 -26t-112 -71.5
t-80.5 -109t-31 -138.5zM446 517q0 26 11 50.5t30 43t45 30t55 11.5t55 -11.5t45.5 -30t30.5 -43t11 -50.5t-11 -50.5t-30.5 -43.5t-45.5 -30.5t-55 -11.5t-55 11.5t-45 30.5t-30 43.5t-11 50.5z" />
    <glyph glyph-name="kn_u" unicode="&#xc89;" horiz-adv-x="2042" 
d="M518 -10q-92 0 -177.5 40t-151 116t-104.5 186.5t-39 250.5q0 91 22.5 172t65 142t104.5 96t142 35q64 0 110.5 -24.5t76.5 -63.5t44 -87.5t14 -96.5q0 -54 -18 -102.5t-51 -85t-79 -58.5t-103 -22q-26 0 -48.5 8.5t-40 20.5t-30.5 25.5t-19 23.5q2 -72 22 -144.5
t56.5 -130.5t88 -94.5t116.5 -36.5q52 0 91.5 29.5t66 80t40 117.5t13.5 143q0 50 5 107t17.5 112t35 105.5t57.5 89t85 61.5t117 23q58 0 104.5 -20.5t81.5 -55.5t60 -82t41 -100t23.5 -109t7.5 -110q0 -58 5.5 -126t23.5 -127t51.5 -98.5t89.5 -39.5q40 0 70.5 29t50.5 76
t30.5 105.5t10.5 118.5q0 66 -15.5 127t-42.5 115t-64.5 98.5t-82.5 76.5l120 142q65 -54 117.5 -120t89 -139t56.5 -152t20 -158q0 -54 -8 -111.5t-25.5 -112t-46 -102.5t-69 -84.5t-95 -57.5t-124.5 -21q-73 0 -128.5 22.5t-95.5 62t-66 92t-41.5 112.5t-22 124.5
t-6.5 127.5q0 47 -5 104t-18.5 106.5t-37.5 83t-61 33.5q-28 0 -47 -15.5t-32 -41.5t-20.5 -60t-11.5 -72t-5 -76.5t-1 -73.5q0 -59 -8.5 -121t-27.5 -121t-50.5 -111t-77 -91t-106.5 -62t-140 -23zM351 658q17 0 31 9t23.5 23t15 31.5t5.5 34.5q0 20 -5 38.5t-14 32.5
t-22.5 22.5t-30.5 8.5q-33 0 -56.5 -29t-39.5 -77q9 -30 20.5 -48.5t24 -28.5t25 -13.5t23.5 -3.5z" />
    <glyph glyph-name="kn_uu" unicode="&#xc8a;" horiz-adv-x="2496" 
d="M2028 360q-17 0 -31 -9t-23.5 -23t-15 -31.5t-5.5 -34.5q0 -20 5 -38.5t14.5 -32.5t23 -22.5t30.5 -8.5q32 0 56 29t40 77q-9 30 -20.5 48.5t-24.5 28.5t-25.5 13.5t-23.5 3.5zM980 1028q85 0 143.5 -40.5t94.5 -107t51.5 -152.5t15.5 -177q0 -58 2.5 -126t15 -127
t40 -98.5t77.5 -39.5q36 0 56.5 29.5t31.5 80t14 117.5t3 143q0 50 7 107t23.5 112t43.5 105.5t66.5 89t92.5 61.5t123 23q92 0 174.5 -40t144 -116t97.5 -186.5t36 -250.5q0 -92 -22.5 -172.5t-65 -141.5t-104.5 -96t-141 -35q-65 0 -111 24.5t-76 63.5t-44 87.5t-14 96.5
q0 54 17 102.5t49.5 85t80 58.5t107.5 22q14 0 31.5 -2t36.5 -9t37.5 -21t35.5 -37q-4 42 -13.5 88t-25.5 90t-38.5 84t-51.5 70t-64.5 47.5t-77.5 17.5q-30 0 -53.5 -15.5t-41 -41.5t-29 -60t-19 -72t-10.5 -76.5t-3 -73.5q0 -59 -2.5 -121t-12.5 -121t-29.5 -111
t-53.5 -91t-85.5 -62t-124.5 -23q-71 0 -122.5 22.5t-88 62t-59.5 92t-36 112.5t-17.5 124.5t-4.5 127.5q0 47 -4 104t-16 106.5t-34 83t-58 33.5t-58.5 -29.5t-35 -80t-17 -117.5t-4.5 -143q0 -51 -7 -107.5t-23.5 -111.5t-43.5 -105.5t-66.5 -89t-93 -61.5t-122.5 -23
q-93 0 -175 40t-144 116t-98 186.5t-36 250.5q0 91 22.5 172t65 142t104.5 96t142 35q64 0 110.5 -24.5t76.5 -63.5t44 -87.5t14 -96.5q0 -54 -18 -102.5t-51.5 -85t-81.5 -58.5t-108 -22q-48 0 -79.5 18t-52.5 39q2 -69 20 -138t52 -123.5t82.5 -89t112.5 -34.5
q30 0 53.5 15.5t40.5 41.5t29 60t19 72t10 76.5t3 73.5q0 59 3.5 121t14.5 121t32 111t56.5 91t87.5 62t125 23zM356 658q17 0 31 9t24 23t15.5 31.5t5.5 34.5q0 20 -5 38.5t-14.5 32.5t-23 22.5t-30.5 8.5q-33 0 -56.5 -29t-39.5 -77q9 -30 20.5 -48.5t24 -28.5t25 -13.5
t23.5 -3.5z" />
    <glyph glyph-name="kn_va" unicode="&#xcb5;" horiz-adv-x="1442" 
d="M1316 441q0 -102 -29.5 -185t-83.5 -142.5t-130 -91.5t-169 -32q-86 0 -156.5 34.5t-107.5 103.5q-44 -71 -114 -104.5t-155 -33.5q-59 0 -118.5 17t-107 54.5t-77 97t-29.5 145.5q0 83 33.5 141t86 95t116 53.5t124.5 16.5l-20 -166q-20 -2 -44.5 -9.5t-46 -23.5
t-36.5 -43t-15 -67q0 -35 12 -61t31.5 -44t44 -27t48.5 -9q41 0 73 19.5t53.5 51t33 72t11.5 82.5h196q0 -51 15.5 -93t41 -71t58 -45t67.5 -16q46 0 82.5 24.5t61.5 65t38 93t13 108.5q0 52 -19.5 116.5t-59.5 123.5t-101 102.5t-145 54.5h-75v170h269q74 0 109 33t35 83
q0 32 -20 62.5t-44 49.5l100 124q78 -58 114 -125t36 -135q0 -43 -15.5 -83t-43 -72.5t-65.5 -55t-84 -29.5q70 -50 111 -106.5t62.5 -113.5t28 -111t6.5 -98z" />
    <glyph glyph-name="kn_visarga" unicode="&#xc83;" horiz-adv-x="630" 
d="M20 786q0 49 21 93t57 77t83.5 52.5t99.5 19.5t99.5 -19.5t83.5 -52.5t57.5 -77t21.5 -93t-21.5 -92t-57.5 -75.5t-83.5 -51t-99.5 -18.5t-99.5 18.5t-83.5 51t-57 75.5t-21 92zM20 238q0 49 21 92.5t57 76t83.5 51t99.5 18.5t99.5 -18.5t83.5 -51t57.5 -76t21.5 -92.5
t-21.5 -92t-57.5 -75.5t-83.5 -51t-99.5 -18.5t-99.5 18.5t-83.5 51t-57 75.5t-21 92zM194 786q0 -37 25.5 -62t62.5 -25t63 25t26 62t-26 62.5t-63 25.5t-62.5 -25.5t-25.5 -62.5zM193 238q0 -37 25.5 -62t62.5 -25t63 25t26 62t-26 62.5t-63 25.5t-62.5 -25.5t-25.5 -62.5
z" />
    <glyph glyph-name="kn_vocalic_l" unicode="&#xc8c;" horiz-adv-x="1862" 
d="M957 0q-121 0 -202.5 22.5t-131 58t-70.5 78t-21 82.5q0 80 31.5 125t83 68.5t117 31t134.5 11t134.5 10t117 27.5t83 63.5t31.5 117.5q0 33 -11.5 61.5t-33.5 50.5t-55 34.5t-75 12.5q-48 0 -87.5 -28t-69.5 -72.5t-51.5 -98.5t-34.5 -106h-187q-8 44 -31 97t-58.5 99.5
t-82 77.5t-100.5 31q-28 0 -54 -12.5t-46.5 -34.5t-32.5 -50.5t-12 -61.5q0 -34 8 -60.5t24.5 -48.5t41 -41.5t56.5 -40.5q0 -1 -8.5 -10t-22 -22t-30 -29t-32 -30t-27.5 -24t-17 -13q-94 66 -142.5 147t-48.5 172q0 77 32 138t83.5 103.5t115.5 65t128 22.5q65 0 118.5 -15
t96.5 -42t76 -63.5t58 -79.5q25 42 60.5 78.5t79 63.5t94 42.5t106.5 15.5q83 0 148 -26t110 -70.5t68.5 -104.5t23.5 -128q0 -85 -30.5 -144t-80.5 -98t-114 -62t-131 -37t-131 -23t-114 -19.5t-80.5 -26.5t-30.5 -44q0 -18 17.5 -31.5t47.5 -22.5t71 -13t88 -4
q103 0 185.5 23.5t145.5 65t107.5 98t73 122.5t42 138.5t13.5 146.5q0 27 -2 61.5t-6 76.5h198q6 -38 8.5 -75.5t2.5 -73.5q0 -80 -16.5 -166.5t-53 -170.5t-95.5 -159.5t-144 -132.5t-198 -90.5t-258 -33.5z" />
    <glyph glyph-name="kn_vocalic_ll" unicode="&#xce1;" horiz-adv-x="2581" 
d="M1780 1018q158 0 285 -43.5t216 -118.5t136.5 -176t47.5 -216q0 -106 -30.5 -193.5t-85.5 -149.5t-132.5 -96.5t-170.5 -34.5q-84 0 -152.5 23t-116.5 64t-74.5 98.5t-26.5 126.5q0 57 20 106.5t56.5 86t87.5 58t114 21.5q67 0 116 -23t80.5 -60t46.5 -83t15 -92
q0 -23 -5 -49.5t-16 -52.5q40 38 58 99t18 150q0 82 -33 152t-95 122t-150.5 81.5t-200.5 29.5h-60q2 -22 2.5 -44t0.5 -48q0 -80 -16.5 -167t-53 -171t-95.5 -160t-144 -133t-198 -91t-258 -34q-121 0 -203 22.5t-131.5 58t-70.5 78t-21 82.5q0 82 33.5 128t88.5 70t126 31
t145 11q63 3 124 9.5t109 27.5t77.5 62t29.5 115q0 33 -11.5 61.5t-33.5 50.5t-55 34.5t-75 12.5q-49 0 -88.5 -28t-69.5 -72.5t-51.5 -98.5t-33.5 -106h-188q-8 44 -31 97t-58.5 99.5t-81.5 77.5t-100 31q-29 0 -55 -12.5t-46 -34.5t-32 -50.5t-12 -61.5q0 -34 8 -60.5
t24.5 -48.5t40.5 -41.5t56 -40.5q1 -1 -18 -19.5t-43 -41.5t-46 -43t-29 -24q-95 66 -143.5 147t-48.5 172q0 77 32.5 138t84 103.5t115.5 65t128 22.5t117.5 -15t96.5 -42t76.5 -63.5t58.5 -79.5q25 42 60 78.5t78.5 63.5t94.5 42.5t107 15.5q83 0 151.5 -26t117 -70.5
t75 -104.5t26.5 -128q0 -85 -31.5 -144t-83 -98t-117 -62t-134.5 -37t-134.5 -23t-117 -19.5t-83 -26.5t-31.5 -44q0 -18 17.5 -31.5t47.5 -22.5t71 -13t88 -4q155 0 263 51.5t175.5 136t98 191.5t30.5 218q0 10 -0.5 21t-1 25t-1.5 34t-2 49l-5 122h260zM1874 302
q0 -60 26.5 -94.5t59.5 -43.5q15 12 27 28.5t20 35t12 37.5t4 36q0 46 -21 74.5t-48 28.5q-32 0 -56 -27t-24 -75z" />
    <glyph glyph-name="kn_vocalic_r" unicode="&#xc8b;" horiz-adv-x="2072" 
d="M704 858v170h349q69 0 106.5 32.5t37.5 83.5q0 16 -6 33t-15 34t-21 32t-24 27l119 114q68 -66 101 -131t33 -122q0 -45 -13.5 -87.5t-41.5 -77.5t-71.5 -61t-103.5 -38q53 -48 90.5 -104t61.5 -111.5t35 -107.5t11 -93q0 -32 -3 -64.5t-9 -61.5q7 -34 25 -64t42.5 -52.5
t52.5 -35.5t55 -13q55 0 95 24.5t65.5 65t38 93t12.5 108.5q0 53 -14 111t-50 117.5t-99.5 120t-162.5 118.5l89 143q131 -68 215.5 -147.5t133 -160.5t67.5 -159t19 -143q0 -109 -29 -194.5t-82.5 -145t-129 -90.5t-168.5 -31q-79 0 -151 35t-121 94q-54 -62 -129.5 -95.5
t-172.5 -33.5q-79 0 -150.5 35t-119.5 93q-49 -55 -124.5 -91.5t-184.5 -36.5q-65 0 -122 18t-100.5 52.5t-68.5 84.5t-25 113q0 39 16.5 78t49 70.5t80.5 51.5t111 20q49 0 89.5 -13.5t73 -36t57.5 -51.5t43 -60q9 29 14 63.5t5 73.5q0 21 -3.5 47t-10.5 54.5t-17 58.5
t-23 58q-12 -37 -34.5 -63.5t-51.5 -44t-63 -26t-68 -8.5q-60 0 -109.5 19t-84.5 51.5t-54.5 76t-19.5 92.5q0 59 21.5 107t60 81.5t90.5 52t113 18.5q65 0 123.5 -25.5t108 -69t90 -100.5t68.5 -119.5t43.5 -127.5t15.5 -123q0 -32 -3 -70t-9 -68q7 -34 24.5 -64
t41.5 -52.5t52 -35.5t55 -13q55 0 95 24.5t66 65t39 93t13 108.5q0 52 -13.5 112.5t-48.5 117.5t-95 104t-153 73h-140zM329 858q-22 0 -38 -8.5t-26 -22t-15 -30.5t-5 -34t5 -32.5t15.5 -27.5t26 -19.5t37.5 -7.5q16 0 36 9t37.5 25.5t30 39.5t14.5 52q-31 29 -61 42.5
t-57 13.5zM312 316q-28 0 -47.5 -20t-19.5 -45q0 -24 11 -41t28.5 -28.5t38.5 -16.5t42 -5q20 0 44.5 6t50.5 26q-19 46 -42 71t-44.5 37t-38 14t-23.5 2z" />
    <glyph glyph-name="kn_vocalic_rr" unicode="&#xce0;" horiz-adv-x="2606" 
d="M1522 160q37 0 59 29.5t33 80t14 117.5t3 143q0 50 7 107t23.5 112t43.5 105.5t66.5 89t93 61.5t122.5 23q93 0 175 -40t144 -116t98 -186.5t36 -250.5q0 -92 -22.5 -172.5t-65 -141.5t-105 -96t-141.5 -35q-65 0 -111 24.5t-76 63.5t-44 87.5t-14 96.5q0 54 19.5 102.5
t55.5 85t85.5 58.5t109.5 22q29 0 58 -6t53 -16q-6 63 -23 126t-47.5 112.5t-76.5 80.5t-110 31q-30 0 -53.5 -15.5t-41 -41.5t-29 -60t-19 -72t-10.5 -76.5t-3 -73.5q0 -59 -2.5 -121t-12 -121t-29.5 -111t-54 -91t-85 -62t-124 -23q-80 0 -152 35t-121 94
q-54 -62 -129.5 -95.5t-172.5 -33.5q-79 0 -150.5 35t-119.5 93q-49 -55 -124.5 -91.5t-184.5 -36.5q-64 0 -121.5 18t-100.5 52.5t-68 84.5t-25 113q0 39 16.5 78t48.5 70.5t80 51.5t111 20q49 0 89.5 -13.5t73 -36t57.5 -51.5t43 -60q19 57 19 137q0 42 -9 91.5t-26 95.5
q-41 -55 -103.5 -83t-131.5 -28q-60 0 -109.5 19t-85 51.5t-54.5 76t-19 92.5q0 59 21.5 107t59.5 81.5t90 52t113 18.5q65 0 123.5 -25.5t108.5 -69t90 -100.5t68.5 -119.5t44 -127.5t15.5 -123q0 -32 -3.5 -70t-9.5 -68q7 -34 24.5 -64t41.5 -52.5t52 -35.5t55 -13
q55 0 95 24.5t66.5 65t39 93t12.5 108.5q0 52 -13.5 112.5t-48.5 117.5t-94.5 104t-152.5 73h-141v170h349q69 0 106.5 32.5t37.5 83.5q0 16 -6 33t-15 34t-21 32t-24 27l120 114q67 -66 100 -131t33 -122q0 -45 -13.5 -87.5t-41.5 -77.5t-71.5 -61t-103.5 -38
q53 -48 90.5 -104t61.5 -111.5t35.5 -107.5t11.5 -93q0 -32 -3.5 -64.5t-9.5 -61.5q7 -34 25 -64t42.5 -52.5t53 -35.5t55.5 -13zM335 858q-22 0 -38 -8.5t-26 -22t-15 -30.5t-5 -34q0 -33 20.5 -60t63.5 -27q16 0 37.5 3.5t42 14.5t37.5 33t25 59q-23 27 -43 41.5
t-37.5 21.5t-33 8t-28.5 1zM2163 364q-26 0 -45.5 -9.5t-32.5 -24.5t-19.5 -33t-6.5 -35q0 -20 5 -38.5t14.5 -32.5t23 -22.5t30.5 -8.5q16 0 34 6t34 24.5t28.5 52.5t18.5 91q-17 15 -39.5 22.5t-44.5 7.5zM316 308q-27 0 -46 -16t-19 -41q0 -24 11 -41t28.5 -28.5
t38.5 -16.5t42 -5q20 0 50 9t50 23q-20 42 -42.5 65t-43.5 34.5t-39.5 14t-29.5 2.5z" />
    <glyph glyph-name="kn_ya" unicode="&#xcaf;" horiz-adv-x="2394" 
d="M1673 451q0 -77 -17 -147q10 -30 28.5 -56.5t41 -46t48 -30.5t49.5 -11q55 0 95.5 24.5t66.5 65t39 93t13 108.5q0 53 -14 111t-50 117.5t-99.5 120t-162.5 118.5l88 143q131 -68 215.5 -147.5t133.5 -160.5t68 -159t19 -143q0 -109 -29.5 -194.5t-83.5 -145t-130 -90.5
t-169 -31q-78 0 -147.5 33.5t-117.5 90.5q-52 -58 -127 -91t-169 -33q-41 0 -81.5 10t-77 29t-68.5 44.5t-56 57.5q-73 -65 -170 -103t-209 -38q-76 0 -146 18.5t-131 52t-111.5 80t-86.5 104t-55.5 123t-19.5 136.5q0 106 43.5 199.5t118 163.5t174.5 110t214 40t214 -40
t174.5 -110t118 -163.5t43.5 -199.5q0 -55 -14.5 -111t-37.5 -106q13 -26 32 -49t41 -40.5t45.5 -27.5t45.5 -10q55 0 95 24.5t66 65t38.5 93t12.5 108.5q0 52 -19.5 116.5t-59.5 123.5t-101 102.5t-145 54.5h-75v170h269q74 0 109 33t35 83q0 32 -20 62.5t-44 49.5l100 124
q39 -29 67 -61t47 -64t28 -63.5t9 -59.5q0 -39 -13 -77.5t-38 -72t-61.5 -60.5t-82.5 -42q54 -44 91 -98.5t60 -111t33 -111t10 -98.5zM249 502q0 -81 30.5 -144.5t80 -107.5t112 -67t127.5 -23q64 0 127 24.5t112.5 69.5t80 108t30.5 140q0 75 -31 138.5t-80.5 109
t-112 71.5t-126.5 26q-63 0 -126 -26t-112.5 -71.5t-80.5 -109t-31 -138.5z" />
    <glyph glyph-name="uni2219" unicode="&#x2219;" horiz-adv-x="410" 
d="M358 727v-269h-274v269h274z" />
    <glyph glyph-name="uni25CC" unicode="&#x25cc;" horiz-adv-x="1224" 
d="M1078 781l-102 -72q-51 82 -134 132l72 102q103 -64 164 -162zM740 1021l-21 -123q-23 4 -46 6t-47 2q-47 0 -93 -8l-23 123q61 14 115 14q29 0 57.5 -3.5t57.5 -10.5zM1150 509q0 -57 -12 -115l-125 23q9 43 9 92q0 48 -9 95l125 19q12 -59 12 -114zM1078 238
q-63 -100 -164 -165l-72 104q83 50 134 134zM410 841q-84 -49 -134 -132l-102 72q60 99 163 162zM238 417l-124 -23q-7 28 -10 57t-3 58q0 62 13 114l124 -19q-5 -23 -7.5 -47t-2.5 -48q0 -51 10 -92zM740 -2q-56 -13 -115 -13q-28 0 -57 3t-58 10l23 125q46 -11 93 -11
q46 0 93 11zM410 177l-73 -104q-102 66 -163 165l102 73q50 -86 134 -134z" />
    <glyph glyph-name="kn_llla" unicode="&#xcde;" horiz-adv-x="1558" 
d="M355 658q17 0 31 10.5t23.5 25.5t15 32t5.5 30q0 18 -5 35.5t-14 31.5t-22.5 22.5t-30.5 8.5q-16 0 -33 -8t-31.5 -23t-25.5 -36.5t-15 -48.5q10 -24 23 -39.5t27 -24.5t27.5 -12.5t24.5 -3.5zM1113 658q11 0 24.5 3.5t27.5 12.5t27 24.5t23 39.5q-5 27 -15.5 48.5
t-25 36.5t-31.5 23t-33 8q-17 0 -30.5 -8.5t-22.5 -22.5t-14 -31.5t-5 -35.5q0 -13 5 -30t15 -32t24 -25.5t31 -10.5zM820 385q0 -42 8.5 -80.5t28.5 -68.5t53 -48t81 -18q18 0 43 6.5t51.5 24t52.5 46.5t47.5 74.5t35.5 108t17 146.5q-26 -44 -70 -66t-93 -22
q-52 0 -95.5 23t-74.5 60.5t-48.5 85.5t-17.5 99q0 46 14 93.5t44 86.5t76.5 63.5t110.5 24.5q79 0 143 -32t108.5 -89t68.5 -137t24 -176q0 -108 -20.5 -193.5t-54 -151t-78 -112t-93 -76t-97 -43.5t-91.5 -14q-38 0 -74.5 6t-70 22t-63 43t-52.5 69q-23 -42 -52.5 -69
t-63 -43t-70 -22t-74.5 -6q-43 0 -91.5 14t-97 43.5t-93 76t-78 112t-54 151.5t-20.5 193q0 96 24 176t68.5 137t108 89t143.5 32q64 0 110.5 -24.5t76.5 -63.5t44 -86.5t14 -93.5q0 -51 -17.5 -99t-48.5 -85.5t-74.5 -60.5t-95.5 -23q-49 0 -93 22t-70 66q3 -84 17 -146.5
t35.5 -108t47.5 -74.5t52.5 -46.5t51.5 -24t43 -6.5q48 0 81 18t53 48t28.5 68.5t8.5 80.5h172z" />
    <glyph glyph-name="kn_nukta" unicode="&#xcbc;" horiz-adv-x="1224" 
d="M208 -201q0 26 9.5 48.5t26.5 39.5t40.5 26.5t52.5 9.5q28 0 52 -9.5t40.5 -26.5t26 -39.5t9.5 -48.5t-9.5 -48.5t-26 -39t-40.5 -26.5t-52 -10q-29 0 -52.5 10t-40.5 26.5t-26.5 39t-9.5 48.5zM786 -201q0 26 9.5 48.5t26 39.5t40 26.5t52.5 9.5q28 0 52 -9.5
t40.5 -26.5t26 -39.5t9.5 -48.5t-9.5 -48.5t-26 -39t-40.5 -26.5t-52 -10q-29 0 -52.5 10t-40 26.5t-26 39t-9.5 48.5zM1078 781l-102 -72q-51 82 -134 132l72 102q103 -64 164 -162zM740 1021l-21 -123q-23 4 -46 6t-47 2q-47 0 -93 -8l-23 123q61 14 115 14
q29 0 57.5 -3.5t57.5 -10.5zM1150 509q0 -57 -12 -115l-125 23q9 43 9 92q0 48 -9 95l125 19q12 -59 12 -114zM1078 238q-63 -100 -164 -165l-72 104q83 50 134 134zM410 841q-84 -49 -134 -132l-102 72q60 99 163 162zM238 417l-124 -23q-7 28 -10 57t-3 58q0 62 13 114
l124 -19q-5 -23 -7.5 -47t-2.5 -48q0 -51 10 -92zM740 -2q-56 -13 -115 -13q-28 0 -57 3t-58 10l23 125q46 -11 93 -11q46 0 93 11zM410 177l-73 -104q-102 66 -163 165l102 73q50 -86 134 -134z" />
    <glyph glyph-name="kn_avagraha" unicode="&#xcbd;" horiz-adv-x="904" 
d="M797 1018v-170h-407q-12 0 -27.5 -3t-28.5 -11.5t-22 -24.5t-9 -42q0 -41 18 -73.5t48 -60.5t67.5 -52t77.5 -48.5t77.5 -50.5t67.5 -57t48 -68.5t18 -84.5q0 -53 -17.5 -104t-57 -90.5t-103.5 -63.5t-158 -24q-53 0 -105.5 18t-100.5 49.5t-87.5 74.5t-66.5 94l149 111
q30 -56 59 -90.5t56.5 -53.5t54.5 -26t54 -7q38 0 62.5 12t38 29.5t18.5 36.5t5 33q0 52 -31 91t-78 72.5t-101.5 65.5t-101.5 70.5t-78 87t-31 114.5q0 67 24 114t62.5 76t86.5 42.5t96 13.5h423z" />
    <glyph glyph-name="kn_matra_aa" unicode="&#xcbe;" horiz-adv-x="1224" 
d="M1839 330q0 -49 -12 -83.5t-20 -51.5q53 38 74.5 108.5t21.5 159.5q0 82 -28.5 152t-84.5 122t-140.5 81.5t-195.5 29.5h-415v170h406q159 0 281 -43.5t205.5 -118.5t126.5 -176t43 -216q0 -106 -30.5 -193.5t-85.5 -149.5t-132.5 -96.5t-170.5 -34.5q-84 0 -152.5 23
t-116.5 64t-74.5 98.5t-26.5 126.5q0 57 20 106.5t56.5 86t87.5 58t113 21.5q67 0 114.5 -24t77.5 -60t44 -79t14 -81zM1502 301q0 -32 9.5 -55.5t24.5 -40.5t34.5 -27.5t39.5 -15.5q29 33 42 70.5t13 70.5q0 21 -6.5 40t-17.5 32.5t-26 21.5t-33 8q-13 0 -27 -6.5
t-26 -19.5t-19.5 -32.5t-7.5 -45.5zM1078 781l-102 -72q-51 82 -134 132l72 102q103 -64 164 -162zM740 1021l-21 -123q-23 4 -46 6t-47 2q-47 0 -93 -8l-23 123q61 14 115 14q29 0 57.5 -3.5t57.5 -10.5zM1150 509q0 -57 -12 -115l-125 23q9 43 9 92q0 48 -9 95l125 19
q12 -59 12 -114zM1078 238q-63 -100 -164 -165l-72 104q83 50 134 134zM410 841q-84 -49 -134 -132l-102 72q60 99 163 162zM238 417l-124 -23q-7 28 -10 57t-3 58q0 62 13 114l124 -19q-5 -23 -7.5 -47t-2.5 -48q0 -51 10 -92zM740 -2q-56 -13 -115 -13q-28 0 -57 3t-58 10
l23 125q46 -11 93 -11q46 0 93 11zM410 177l-73 -104q-102 66 -163 165l102 73q50 -86 134 -134z" />
    <glyph glyph-name="kn_matra_i" unicode="&#xcbf;" horiz-adv-x="1231" 
d="M516 1076q-59 0 -102 16t-71.5 44t-42.5 66t-14 83q0 48 19 88.5t53 70t82 46t106 16.5q81 0 141.5 -29.5t101 -76t60.5 -105t20 -115.5q0 -64 -19 -113.5t-50 -86.5t-72 -62.5t-85 -41t-88 -22t-81 -6.5v170q30 0 62.5 5.5t61.5 19t52 36.5t34 57q-49 -37 -94 -48.5
t-74 -11.5zM542 1340q-13 0 -27 -3.5t-25 -11t-18.5 -19t-7.5 -26.5q0 -13 7 -24.5t17.5 -20.5t23.5 -14t26 -5t28 1t31 6.5t32 17t31 33.5q-18 25 -33.5 38.5t-30 19.5t-27.5 7t-27 1zM1028 781l-102 -72q-51 82 -134 132l72 102q103 -64 164 -162zM1100 509
q0 -57 -12 -115l-125 23q9 43 9 92q0 48 -9 95l125 19q12 -59 12 -114zM1028 238q-63 -100 -164 -165l-72 104q83 50 134 134zM360 841q-84 -49 -134 -132l-102 72q60 99 163 162zM188 417l-124 -23q-7 28 -10 57t-3 58q0 62 13 114l124 -19q-5 -23 -7.5 -47t-2.5 -48
q0 -51 10 -92zM690 -2q-56 -13 -115 -13q-28 0 -57 3t-58 10l23 125q46 -11 93 -11q46 0 93 11zM360 177l-73 -104q-102 66 -163 165l102 73q50 -86 134 -134z" />
    <glyph glyph-name="kn_matra_ii" unicode="&#xcc0;" horiz-adv-x="1862" 
d="M1653 -10q-100 0 -192 40t-162.5 116t-113 186.5t-42.5 250.5q0 91 22.5 172t65 142t104.5 96t142 35q64 0 110.5 -24.5t76.5 -63.5t44 -87.5t14 -96.5q0 -54 -16.5 -102.5t-47 -85t-75 -58.5t-101.5 -22q-27 0 -49.5 6.5t-40.5 16t-31.5 20.5t-22.5 20q2 -80 25 -151.5
t64 -124.5t98.5 -84t128.5 -31zM1448 658q17 0 31 9t23.5 23t15 31.5t5.5 34.5q0 20 -5 38.5t-14 32.5t-22.5 22.5t-30.5 8.5q-33 0 -60 -30t-42 -93q9 -23 21.5 -38t26 -23.5t27 -12t24.5 -3.5zM516 1076q-59 0 -102 16t-71.5 44t-42.5 66t-14 83q0 48 19 88.5t53 70t82 46
t106 16.5q81 0 141.5 -29.5t101 -76t60.5 -105t20 -115.5q0 -64 -19 -113.5t-50 -86.5t-72 -62.5t-85 -41t-88 -22t-81 -6.5v170q30 0 62.5 5.5t61.5 19t52 36.5t34 57q-49 -37 -94 -48.5t-74 -11.5zM542 1340q-13 0 -27 -3.5t-25 -11t-18.5 -19t-7.5 -26.5q0 -13 7 -24.5
t17.5 -20.5t23.5 -14t26 -5t28 1t31 6.5t32 17t31 33.5q-18 25 -33.5 38.5t-30 19.5t-27.5 7t-27 1zM1028 781l-102 -72q-51 82 -134 132l72 102q103 -64 164 -162zM1100 509q0 -57 -12 -115l-125 23q9 43 9 92q0 48 -9 95l125 19q12 -59 12 -114zM1028 238
q-63 -100 -164 -165l-72 104q83 50 134 134zM360 841q-84 -49 -134 -132l-102 72q60 99 163 162zM188 417l-124 -23q-7 28 -10 57t-3 58q0 62 13 114l124 -19q-5 -23 -7.5 -47t-2.5 -48q0 -51 10 -92zM690 -2q-56 -13 -115 -13q-28 0 -57 3t-58 10l23 125q46 -11 93 -11
q46 0 93 11zM360 177l-73 -104q-102 66 -163 165l102 73q50 -86 134 -134z" />
    <glyph glyph-name="kn_matra_u" unicode="&#xcc1;" horiz-adv-x="1863" 
d="M1129 338q25 -53 55 -87.5t59.5 -54.5t57 -28t49.5 -8q55 0 96 23t67 61.5t39 89.5t13 107q0 53 -14 112.5t-50.5 121t-100 123.5t-162.5 120l88 143q131 -68 215.5 -149t134 -164t68.5 -162.5t19 -144.5q0 -108 -29.5 -192t-84 -141.5t-130.5 -87.5t-169 -30
q-45 0 -88.5 11t-82.5 32.5t-72 52.5t-57 70zM1078 781l-102 -72q-51 82 -134 132l72 102q103 -64 164 -162zM740 1021l-21 -123q-23 4 -46 6t-47 2q-47 0 -93 -8l-23 123q61 14 115 14q29 0 57.5 -3.5t57.5 -10.5zM1150 509q0 -57 -12 -115l-125 23q9 43 9 92q0 48 -9 95
l125 19q12 -59 12 -114zM1078 238q-63 -100 -164 -165l-72 104q83 50 134 134zM410 841q-84 -49 -134 -132l-102 72q60 99 163 162zM238 417l-124 -23q-7 28 -10 57t-3 58q0 62 13 114l124 -19q-5 -23 -7.5 -47t-2.5 -48q0 -51 10 -92zM740 -2q-56 -13 -115 -13q-28 0 -57 3
t-58 10l23 125q46 -11 93 -11q46 0 93 11zM410 177l-73 -104q-102 66 -163 165l102 73q50 -86 134 -134z" />
    <glyph glyph-name="kn_matra_uu" unicode="&#xcc2;" horiz-adv-x="2352" 
d="M1889 360q-34 0 -59.5 -25.5t-25.5 -70.5q0 -51 24.5 -77.5t58.5 -26.5q16 0 33 7.5t31 23t24.5 39t14.5 55.5q-13 24 -26 39t-26 23t-25.5 10.5t-23.5 2.5zM1281 160q36 0 56.5 29.5t31.5 80t14 117.5t3 143q0 50 7 107t23.5 112t43.5 105.5t66.5 89t92.5 61.5t123 23
q93 0 175 -40t143.5 -116t97.5 -186.5t36 -250.5q0 -92 -22.5 -172.5t-65 -141.5t-104.5 -96t-141 -35q-65 0 -111 24.5t-76 63.5t-44 87.5t-14 96.5q0 54 17.5 102.5t50.5 85t81 58.5t108 22q29 0 64.5 -10.5t65.5 -46.5q-4 73 -22 142t-50.5 123t-80 87t-110.5 33
q-30 0 -53.5 -15.5t-41 -41.5t-29 -60t-19 -72t-10.5 -76.5t-3 -73.5q0 -59 -2.5 -121t-12 -121t-29.5 -111t-54 -91t-85 -62t-124 -23q-91 0 -160 43t-118 122l79 185q17 -50 41 -84.5t51 -55.5t55 -30.5t52 -9.5h4zM1028 781l-102 -72q-51 82 -134 132l72 102
q103 -64 164 -162zM690 1021l-21 -123q-23 4 -46 6t-47 2q-47 0 -93 -8l-23 123q61 14 115 14q29 0 57.5 -3.5t57.5 -10.5zM1100 509q0 -57 -12 -115l-125 23q9 43 9 92q0 48 -9 95l125 19q12 -59 12 -114zM1028 238q-63 -100 -164 -165l-72 104q83 50 134 134zM360 841
q-84 -49 -134 -132l-102 72q60 99 163 162zM188 417l-124 -23q-7 28 -10 57t-3 58q0 62 13 114l124 -19q-5 -23 -7.5 -47t-2.5 -48q0 -51 10 -92zM690 -2q-56 -13 -115 -13q-28 0 -57 3t-58 10l23 125q46 -11 93 -11q46 0 93 11zM360 177l-73 -104q-102 66 -163 165l102 73
q50 -86 134 -134z" />
    <glyph glyph-name="kn_matra_e" unicode="&#xcc6;" horiz-adv-x="1282" 
d="M380 841q-84 -49 -134 -132l-102 72q11 18 23 34.5t26 32.5h-156v170h794q37 0 69 12t55 33.5t36.5 51t13.5 65.5q0 34 -11 63.5t-31.5 51t-49.5 33.5t-64 12q-30 0 -56.5 -6t-46 -18t-30.5 -30.5t-11 -43.5q0 -17 8 -36q18 24 32.5 37.5t27 20t24 8.5t23.5 2
q38 0 61 -27.5t23 -66.5q0 -48 -37.5 -79.5t-103.5 -31.5q-40 0 -73 13t-57 36.5t-37.5 54.5t-13.5 67q0 50 20.5 89t56.5 66t85.5 41t107.5 14q86 0 145.5 -25.5t96 -66.5t53 -91.5t16.5 -101.5q0 -40 -10.5 -82.5t-33 -82.5t-59 -73t-87.5 -54q43 -40 75 -92l-102 -72
q-51 82 -134 132l5 7h-442zM1048 238q-63 -100 -164 -165l-72 104q83 50 134 134zM380 177l-73 -104q-102 66 -163 165l102 73q50 -86 134 -134zM1120 509q0 -57 -12 -115l-125 23q9 43 9 92q0 48 -9 95l125 19q12 -59 12 -114zM710 -2q-56 -13 -115 -13q-28 0 -57 3t-58 10
l23 125q46 -11 93 -11q46 0 93 11zM208 417l-124 -23q-7 28 -10 57t-3 58q0 62 13 114l124 -19q-5 -23 -7.5 -47t-2.5 -48q0 -51 10 -92z" />
    <glyph glyph-name="kn_matra_ee" unicode="&#xcc7;" horiz-adv-x="1843" 
d="M1653 -10q-100 0 -192 40t-162.5 116t-113 186.5t-42.5 250.5q0 91 22.5 172t65 142t104.5 96t142 35q64 0 110.5 -24.5t76.5 -63.5t44 -87.5t14 -96.5q0 -54 -16.5 -102.5t-47 -85t-75 -58.5t-101.5 -22q-27 0 -49.5 6.5t-40.5 16t-31.5 20.5t-22.5 20q2 -80 25 -151.5
t64 -124.5t98.5 -84t128.5 -31zM1448 658q17 0 31 9t23.5 23t15 31.5t5.5 34.5q0 20 -5 38.5t-14 32.5t-22.5 22.5t-30.5 8.5q-33 0 -60 -30t-42 -93q9 -23 21.5 -38t26 -23.5t27 -12t24.5 -3.5zM380 841q-84 -49 -134 -132l-102 72q11 18 23 34.5t26 32.5h-156v170h794
q37 0 69 12t55 33.5t36.5 51t13.5 65.5q0 34 -11 63.5t-31.5 51t-49.5 33.5t-64 12q-30 0 -56.5 -6t-46 -18t-30.5 -30.5t-11 -43.5q0 -17 8 -36q18 24 32.5 37.5t27 20t24 8.5t23.5 2q38 0 61 -27.5t23 -66.5q0 -48 -37.5 -79.5t-103.5 -31.5q-40 0 -73 13t-57 36.5
t-37.5 54.5t-13.5 67q0 50 20.5 89t56.5 66t85.5 41t107.5 14q86 0 145.5 -25.5t96 -66.5t53 -91.5t16.5 -101.5q0 -40 -10.5 -82.5t-33 -82.5t-59 -73t-87.5 -54q43 -40 75 -92l-102 -72q-51 82 -134 132l5 7h-442zM1048 238q-63 -100 -164 -165l-72 104q83 50 134 134z
M380 177l-73 -104q-102 66 -163 165l102 73q50 -86 134 -134zM1120 509q0 -57 -12 -115l-125 23q9 43 9 92q0 48 -9 95l125 19q12 -59 12 -114zM710 -2q-56 -13 -115 -13q-28 0 -57 3t-58 10l23 125q46 -11 93 -11q46 0 93 11zM208 417l-124 -23q-7 28 -10 57t-3 58
q0 62 13 114l124 -19q-5 -23 -7.5 -47t-2.5 -48q0 -51 10 -92z" />
    <glyph glyph-name="kn_ai_length_mark" unicode="&#xcd6;" horiz-adv-x="745" 
d="M335 -243q0 -60 -21 -103.5t-57 -72.5t-84 -43t-102 -14q7 -8 23 -14.5t36 -11t42 -7t43 -2.5q55 0 98.5 19t73.5 54.5t46 85.5t16 112q0 59 -27.5 112.5t-72 94t-100.5 64.5t-114 24v149q33 0 73.5 12t76 36t59.5 59t24 81q0 37 -16 66.5t-44 52t-66 37.5t-82 23l39 139
q74 -15 139 -42t113.5 -67.5t76.5 -94.5t28 -123q0 -51 -12.5 -91t-34 -71t-51.5 -54t-65 -39q59 -20 106 -56.5t80 -85t51 -107t18 -123.5q0 -93 -29 -171.5t-84.5 -135t-135 -88.5t-179.5 -32q-99 0 -177 28t-132 76.5t-82.5 115.5t-28.5 145q0 58 20.5 111.5t57.5 94
t88.5 64.5t113.5 24q57 0 104 -17.5t80.5 -48t52 -73t18.5 -92.5zM-9 -331q16 -10 35.5 -16.5t31.5 -6.5q14 0 28 5.5t25.5 17t18.5 29.5t7 42q0 41 -19.5 59.5t-41.5 18.5q-26 0 -42.5 -11.5t-26.5 -30t-13.5 -40.5t-3.5 -43v-12t1 -12z" />
    <glyph glyph-name="kn_length_mark" unicode="&#xcd5;" horiz-adv-x="684" 
d="M522 -10q-100 0 -192 40t-162.5 116t-113 186.5t-42.5 250.5q0 91 22.5 172t65 142t104.5 96t142 35q64 0 110.5 -24.5t76.5 -63.5t44 -87.5t14 -96.5q0 -54 -16.5 -102.5t-47 -85t-75 -58.5t-101.5 -22q-27 0 -49.5 6.5t-40.5 16t-31.5 20.5t-22.5 20q2 -80 25 -151.5
t64 -124.5t98.5 -84t128.5 -31zM317 658q17 0 31 9t23.5 23t15 31.5t5.5 34.5q0 20 -5 38.5t-14 32.5t-22.5 22.5t-30.5 8.5q-33 0 -60 -30t-42 -93q9 -23 21.5 -38t26 -23.5t27 -12t24.5 -3.5z" />
    <glyph glyph-name="kn_matra_ai" unicode="&#xcc8;" horiz-adv-x="2002" 
d="M1345 -243q0 -60 -21 -103.5t-57 -72.5t-84 -43t-102 -14q7 -8 23 -14.5t36 -11t42 -7t43 -2.5q55 0 98.5 19t73.5 54.5t46 85.5t16 112q0 59 -27.5 112.5t-72 94t-100.5 64.5t-114 24v149q33 0 73.5 12t76 36t59.5 59t24 81q0 37 -16 66.5t-44 52t-66 37.5t-82 23
l39 139q74 -15 139 -42t113.5 -67.5t76.5 -94.5t28 -123q0 -51 -12.5 -91t-34 -71t-51.5 -54t-65 -39q59 -20 106 -56.5t80 -85t51 -107t18 -123.5q0 -93 -29 -171.5t-84.5 -135t-135 -88.5t-179.5 -32q-99 0 -177 28t-132 76.5t-82.5 115.5t-28.5 145q0 58 20.5 111.5
t57.5 94t88.5 64.5t113.5 24q57 0 104 -17.5t80.5 -48t52 -73t18.5 -92.5zM1001 -331q16 -10 35.5 -16.5t31.5 -6.5q14 0 28 5.5t25.5 17t18.5 29.5t7 42q0 41 -19.5 59.5t-41.5 18.5q-26 0 -42.5 -11.5t-26.5 -30t-13.5 -40.5t-3.5 -43v-12t1 -12zM380 841
q-84 -49 -134 -132l-102 72q11 18 23 34.5t26 32.5h-156v170h794q37 0 69 12t55 33.5t36.5 51t13.5 65.5q0 34 -11 63.5t-31.5 51t-49.5 33.5t-64 12q-30 0 -56.5 -6t-46 -18t-30.5 -30.5t-11 -43.5q0 -17 8 -36q18 24 32.5 37.5t27 20t24 8.5t23.5 2q38 0 61 -27.5
t23 -66.5q0 -48 -37.5 -79.5t-103.5 -31.5q-40 0 -73 13t-57 36.5t-37.5 54.5t-13.5 67q0 50 20.5 89t56.5 66t85.5 41t107.5 14q86 0 145.5 -25.5t96 -66.5t53 -91.5t16.5 -101.5q0 -40 -10.5 -82.5t-33 -82.5t-59 -73t-87.5 -54q43 -40 75 -92l-102 -72q-51 82 -134 132
l5 7h-442zM1048 238q-63 -100 -164 -165l-72 104q83 50 134 134zM380 177l-73 -104q-102 66 -163 165l102 73q50 -86 134 -134zM1120 509q0 -57 -12 -115l-125 23q9 43 9 92q0 48 -9 95l125 19q12 -59 12 -114zM710 -2q-56 -13 -115 -13q-28 0 -57 3t-58 10l23 125
q46 -11 93 -11q46 0 93 11zM208 417l-124 -23q-7 28 -10 57t-3 58q0 62 13 114l124 -19q-5 -23 -7.5 -47t-2.5 -48q0 -51 10 -92z" />
    <glyph glyph-name="kn_matra_oo" unicode="&#xccb;" horiz-adv-x="2905" 
d="M1311 160q36 0 56.5 29.5t31.5 80t14 117.5t3 143q0 50 7 107t23.5 112t43.5 105.5t66.5 89t92.5 61.5t123 23q93 0 175 -40t143.5 -116t97.5 -186.5t36 -250.5q0 -92 -22.5 -172.5t-65 -141.5t-104.5 -96t-141 -35q-65 0 -111 24.5t-76 63.5t-44 87.5t-14 96.5
q0 54 17.5 102.5t50.5 85t81 58.5t108 22q29 0 64.5 -10.5t65.5 -46.5q-4 73 -22 142t-50.5 123t-80 87t-110.5 33q-30 0 -53.5 -15.5t-41 -41.5t-29 -60t-19 -72t-10.5 -76.5t-3 -73.5q0 -59 -2.5 -121t-12 -121t-29.5 -111t-54 -91t-85 -62t-124 -23q-91 0 -160 43
t-118 122l79 185q17 -50 41 -84.5t51 -55.5t55 -30.5t52 -9.5h4zM973 873q43 -40 75 -92l-102 -72q-51 82 -134 132l5 7h-442l5 -7q-84 -49 -134 -132l-102 72q21 36 49 67h-156v170h794q37 0 68.5 12t55 33.5t36.5 51t13 65.5q0 34 -11 63.5t-31.5 51t-49.5 33.5t-64 12
q-30 0 -56.5 -6t-46 -18t-30.5 -30.5t-11 -43.5q0 -17 8 -36q18 24 32.5 37.5t27 20t24 8.5t23.5 2q38 0 61 -27.5t23 -66.5q0 -48 -37.5 -79.5t-103.5 -31.5q-40 0 -73 13t-57 36.5t-37.5 54.5t-13.5 67q0 50 20.5 89t56.5 66t85.5 41t107.5 14q86 0 145.5 -25.5t96 -66.5
t53 -91.5t16.5 -101.5q0 -40 -10.5 -83t-33 -82.5t-58.5 -73t-87 -53.5zM1919 360q-34 0 -59.5 -25.5t-25.5 -70.5q0 -51 24.5 -77.5t58.5 -26.5q16 0 33 7.5t31 23t24.5 39t14.5 55.5q-13 24 -26 39t-26 23t-25.5 10.5t-23.5 2.5zM1048 238q-63 -100 -164 -165l-72 104
q83 50 134 134zM1120 509q0 -57 -12 -115l-125 23q9 43 9 92q0 48 -9 95l125 19q12 -59 12 -114zM380 177l-73 -104q-102 66 -163 165l102 73q50 -86 134 -134zM710 -2q-56 -13 -115 -13q-28 0 -57 3t-58 10l23 125q46 -11 93 -11q46 0 93 11zM208 417l-124 -23
q-7 28 -10 57t-3 58q0 62 13 114l124 -19q-5 -23 -7.5 -47t-2.5 -48q0 -51 10 -92zM2772 -10q-100 0 -192 40t-162.5 116t-113 186.5t-42.5 250.5q0 91 22.5 172t65 142t104.5 96t142 35q64 0 110.5 -24.5t76.5 -63.5t44 -87.5t14 -96.5q0 -54 -16.5 -102.5t-47 -85
t-75 -58.5t-101.5 -22q-27 0 -49.5 6.5t-40.5 16t-31.5 20.5t-22.5 20q2 -80 25 -151.5t64 -124.5t98.5 -84t128.5 -31zM2567 658q17 0 31 9t23.5 23t15 31.5t5.5 34.5q0 20 -5 38.5t-14 32.5t-22.5 22.5t-30.5 8.5q-33 0 -60 -30t-42 -93q9 -23 21.5 -38t26 -23.5t27 -12
t24.5 -3.5z" />
    <glyph glyph-name="kn_matra_au" unicode="&#xccc;" horiz-adv-x="1916" 
d="M1048 781l-102 -72q-51 82 -134 132l12 17h-364v150h414q40 0 57.5 14.5t17.5 26.5q0 26 -18 42t-51 30h-835v170h1209q126 0 226.5 -35t171 -94.5t108.5 -138t38 -165.5q0 -76 -22.5 -143.5t-67 -117.5t-110 -79.5t-151.5 -29.5q-60 0 -114 17t-95.5 50.5t-65.5 82.5
t-24 112q0 48 16.5 87t45 66t65 42t77.5 15q39 0 68.5 -10.5t49.5 -27.5t30 -40t10 -47q0 -52 -27 -81t-75 -29q-15 0 -29 3.5t-27 12.5t-22.5 23.5t-15.5 36.5q-11 -12 -15 -27t-4 -32q0 -44 38 -71t98 -27q37 0 69 13t56 39t37.5 66.5t13.5 95.5q0 67 -28.5 117t-75.5 82
t-107 48t-123 16h-207q14 -9 28.5 -21.5t26.5 -28t19.5 -33.5t7.5 -38q0 -54 -40.5 -92t-121.5 -48q17 -18 32.5 -37.5t29.5 -41.5zM1048 238q-63 -100 -164 -165l-72 104q83 50 134 134zM380 177l-73 -104q-102 66 -163 165l102 73q50 -86 134 -134zM1120 509
q0 -57 -12 -115l-125 23q9 43 9 92q0 48 -9 95l125 19q12 -59 12 -114zM710 -2q-56 -13 -115 -13q-28 0 -57 3t-58 10l23 125q46 -11 93 -11q46 0 93 11zM208 417l-124 -23q-7 28 -10 57t-3 58q0 62 13 114l124 -19q-5 -23 -7.5 -47t-2.5 -48q0 -51 10 -92zM380 841
q-84 -49 -134 -132l-102 72q60 99 163 162z" />
    <glyph glyph-name="kn_virama" unicode="&#xccd;" horiz-adv-x="1831" 
d="M1018 781l-102 -72q-51 82 -134 132l5 7h-442l5 -7q-84 -49 -134 -132l-102 72q11 18 23 34.5t26 32.5h-119v170h1042q18 67 49.5 114.5t72.5 77.5t90.5 44t103.5 14q58 0 104.5 -16t82.5 -40t62.5 -53.5t44.5 -56.5l-113 -84q-50 57 -90 79t-84 22q-45 0 -77.5 -26
t-51.5 -75h43q46 0 97 -12.5t94 -41t71.5 -75.5t28.5 -116q0 -62 -23 -105t-59 -69.5t-79 -38.5t-83 -12q-66 0 -118 25t-89 66.5t-59 95.5t-28 113h-108q14 -16 26.5 -32.5t23.5 -34.5zM1018 238q-63 -100 -164 -165l-72 104q83 50 134 134zM350 177l-73 -104
q-102 66 -163 165l102 73q50 -86 134 -134zM1090 509q0 -57 -12 -115l-125 23q9 43 9 92q0 48 -9 95l125 19q12 -59 12 -114zM680 -2q-56 -13 -115 -13q-28 0 -57 3t-58 10l23 125q46 -11 93 -11q46 0 93 11zM178 417l-124 -23q-7 28 -10 57t-3 58q0 62 13 114l124 -19
q-5 -23 -7.5 -47t-2.5 -48q0 -51 10 -92zM1373 685q37 0 58 18.5t21 49.5q0 28 -13.5 46t-34.5 29t-47 15.5t-50 4.5h-35q0 -47 9.5 -78.5t24 -50t32.5 -26.5t35 -8z" />
    <glyph glyph-name="kn_reph" horiz-adv-x="925" 
d="M818 848h-410q-85 0 -131 -33.5t-46 -85.5q0 -31 12 -57.5t32 -45.5t47 -29.5t57 -10.5h194v-169h-195q-68 0 -107.5 -33.5t-39.5 -85.5q0 -35 24.5 -59t61 -39.5t80.5 -22.5t83 -7v-170q-45 0 -96 5t-100.5 18t-95 34.5t-80 53.5t-55 76.5t-20.5 103.5q0 38 11.5 70.5
t30.5 59.5t43 47t49 34q-25 15 -49 37t-43 51t-30.5 65.5t-11.5 80.5q0 56 23.5 107t68.5 90t110 62t148 23h435v-170z" />
    <glyph glyph-name="kn_ka.vattu" horiz-adv-x="404" 
d="M-304 -401q0 49 29 98.5t77 84.5h-106v108h294q8 21 10.5 50t2.5 67q0 89 -53 192l116 59q34 -64 52 -128t18 -122q0 -70 -9 -118h286v-108h-105q61 -39 83 -83.5t22 -95.5q0 -72 -28.5 -126t-77 -89.5t-114 -53.5t-140.5 -18q-74 0 -139 18t-113.5 53t-76.5 88t-28 124z
M-159 -396q0 -38 16.5 -68t45.5 -51t67.5 -32t82.5 -11t83 11t68 32t46 51t17 68q0 33 -17 62t-46 51t-68 34.5t-83 12.5t-82.5 -12.5t-67.5 -34.5t-45.5 -51t-16.5 -62z" />
    <glyph glyph-name="kn_kha.vattu" horiz-adv-x="282" 
d="M-515 -329q-12 40 -12 62q0 42 17.5 75.5t49 57t75 36.5t94.5 13q65 0 122 -22t99.5 -62t67 -96t24.5 -124q0 -48 -12.5 -90t-35.5 -77q22 -11 46 -11q49 0 77 26t42 63.5t17.5 80t3.5 74.5q0 9 -2 33.5t-9.5 59.5t-21 79t-36.5 92t-57 98.5t-82 98.5l92 107
q58 -59 104.5 -128t79.5 -142.5t50.5 -149.5t17.5 -148q0 -184 -70 -272.5t-201 -88.5q-46 0 -79 12t-65 34q-39 -21 -89.5 -33.5t-107.5 -12.5q-39 0 -83 10t-81.5 32t-62 57t-24.5 86q0 46 20 76t48.5 46.5t61 23t58.5 6.5q45 0 80.5 -10.5t65.5 -28t55.5 -39.5t48.5 -44
q15 33 15 82q0 48 -17 83t-42.5 58.5t-56 34.5t-56.5 11q-30 0 -50 -6t-32 -16t-17.5 -22t-5.5 -25q0 -2 0.5 -8.5t2.5 -13.5zM-378 -462q-8 0 -17.5 -1.5t-17.5 -6t-13.5 -13t-5.5 -21.5q0 -20 14 -32t33.5 -19t39 -9.5t31.5 -2.5q25 0 48 3.5t45 11.5q-19 18 -38 34
t-38.5 28.5t-39.5 20t-41 7.5z" />
    <glyph glyph-name="kn_ga.vattu" 
d="M-458 -206q-32 0 -66.5 -10t-63 -34t-47 -62.5t-18.5 -95.5q0 -66 29 -135.5t83 -127.5l-99 -82q-80 96 -114.5 183t-34.5 163q0 82 29 142t76.5 98.5t106.5 57t119 18.5t119 -18.5t106 -57t76 -98.5t29 -142q0 -76 -34.5 -163t-114.5 -183l-99 82q54 58 83 127.5
t29 135.5q0 57 -18.5 95.5t-47 62.5t-62.5 34t-66 10z" />
    <glyph glyph-name="kn_gha.vattu" horiz-adv-x="245" 
d="M124 -418q0 70 -14 132t-38 116t-55 99.5t-65 84.5t-68 71t-63 57l77 94q32 -29 52.5 -38t37.5 -9q14 0 25 12t11 33q0 24 -17.5 45t-34.5 33l71 85q48 -33 78 -76t30 -84q0 -51 -30 -89t-78 -55q49 -52 89 -110.5t68.5 -122.5t44 -134t15.5 -144q0 -62 -16 -111
t-46 -83.5t-74 -53t-99 -18.5q-30 0 -57 8.5t-49.5 23t-40.5 33.5t-31 39q-29 -46 -71 -75t-107 -29q-41 0 -82 12.5t-73.5 39t-52.5 68.5t-20 101q0 54 23.5 94.5t60 67.5t81.5 40.5t87 13.5l-14 -113q-14 -2 -32 -8.5t-33.5 -19t-26 -32t-10.5 -47.5q0 -26 8.5 -45t22 -31
t30 -18t31.5 -6q30 0 50.5 13.5t33.5 36t19.5 51.5t9.5 59h134q2 -37 12.5 -66.5t26 -50.5t34.5 -32t39 -11q19 0 36 9t30.5 27t21.5 46t8 67zM-76 -784q0 -26 -22 -45t-55 -19q-16 0 -29.5 5.5t-23.5 14.5t-16 20.5t-6 23.5q0 16 7 34t17.5 37t23.5 38.5t26 37.5
q14 -18 28 -37.5t25 -38t18 -37t7 -34.5z" />
    <glyph glyph-name="kn_nga.vattu" 
d="M-327 -257q0 42 -17.5 58.5t-43.5 16.5q-29 0 -64 -16t-68 -47q0 -51 -21 -81t-53 -48t-68.5 -27.5t-68.5 -19.5t-53 -25t-21 -43q0 -21 9.5 -36t24.5 -24.5t32.5 -13.5t32.5 -4q50 0 84.5 33t39.5 108h134q6 -60 35.5 -100.5t79.5 -40.5q14 0 30 4.5t29 14t21.5 25
t8.5 38.5q0 25 -9 40.5t-22.5 25t-29.5 14t-30 6.5l-14 113q43 0 86 -10.5t77.5 -34t56 -61.5t21.5 -93q0 -54 -19 -92t-50 -62t-71.5 -34.5t-82.5 -10.5q-63 0 -109.5 30.5t-73.5 81.5q-26 -51 -74.5 -81.5t-117.5 -30.5q-31 0 -71.5 8.5t-76.5 29.5t-60.5 57t-24.5 91
q0 44 21 73t52.5 48t68 31.5t68 25.5t52.5 29.5t21 42.5q0 32 -20 47t-43 15q-22 0 -38.5 -8.5t-28.5 -21.5t-19 -29t-11 -32l-118 39q10 35 28.5 66.5t45 55t61.5 37.5t78 14q51 0 92.5 -15t67.5 -44q31 23 75 41t103 18q46 0 81 -13.5t58 -35.5t34.5 -51.5t11.5 -60.5z
M-500 -330q0 -23 18 -40t44 -17t44 17t18 40t-18 40t-44 17t-44 -17t-18 -40z" />
    <glyph glyph-name="kn_ca.vattu" 
d="M-453 -402v116h117q14 8 28.5 20t26.5 28t20 36.5t8 45.5q0 13 -6.5 25.5t-17 23.5t-23 20t-24.5 15l82 82q11 -8 32 -25t41.5 -40t36 -49t15.5 -52q0 -44 -21.5 -74t-53.5 -56h84v-116h-52q17 -11 34.5 -40.5t17.5 -67.5q0 -51 -18 -84.5t-48 -53.5t-68.5 -28t-79.5 -8
q-36 0 -66 8.5t-54 23.5t-41.5 34.5t-29.5 41.5q-27 -51 -75 -79.5t-118 -28.5q-35 0 -76 9t-76 30t-58 55.5t-23 85.5q0 47 21 76.5t52.5 48.5t68 31t68 25t52.5 29.5t21 45.5q0 32 -20 45.5t-43 13.5q-21 0 -36.5 -10t-26.5 -25t-17.5 -33t-9.5 -33l-125 52
q9 35 27.5 66.5t45.5 55t62 37.5t78 14q93 0 147 -46.5t54 -129.5q0 -49 -21 -80t-53 -51.5t-68.5 -33.5t-68.5 -25t-53 -26.5t-21 -38.5q0 -21 9.5 -35t24.5 -22t32.5 -11t32.5 -3q51 0 85 33t39 108h134q6 -61 35 -101t80 -40q14 0 30 4.5t29 14.5t21.5 25.5t8.5 37.5
q0 24 -6.5 39t-17 24t-22.5 13.5t-23 6.5h-140z" />
    <glyph glyph-name="kn_cha.vattu" 
d="M-107 -393q0 -63 -14 -116.5t-42.5 -92t-71.5 -60.5t-102 -22q-22 0 -44 8t-42 22.5t-35.5 33.5t-23.5 40q-18 -45 -52.5 -74.5t-75.5 -29.5q-62 0 -107.5 28t-75.5 71t-44.5 95.5t-14.5 101.5q0 39 10.5 90.5t33.5 97.5t61 77.5t93 31.5q33 0 61 -12t48 -32.5t31 -48
t11 -57.5q0 -39 -9.5 -68t-26.5 -47.5t-39.5 -27.5t-47.5 -9q-24 0 -50 13.5t-40 42.5q-4 -16 -5 -29t-1 -27q0 -26 6.5 -56.5t19.5 -56.5t33 -43.5t48 -17.5q15 0 27 8t20 20.5t12 28.5t4 32v31h136v-31q0 -17 6 -33t17 -28.5t25.5 -20t32.5 -7.5q28 0 46 17t28.5 43
t14 56.5t3.5 57.5t-7.5 57.5t-23.5 58.5t-41.5 51t-60.5 36l36 105q54 -15 97 -46t73 -72t46.5 -90t16.5 -100zM-639 -235q0 20 -7 28.5t-17 8.5q-17 0 -27 -18t-12 -36q2 -11 10 -19.5t20 -8.5q10 0 21.5 12t11.5 33zM-404 -784q0 -26 -22 -45t-55 -19q-16 0 -29.5 5.5
t-23.5 14.5t-16 20.5t-6 23.5q0 16 7 34t17.5 37t23.5 38.5t26 37.5q14 -18 28 -37.5t25 -38t18 -37t7 -34.5z" />
    <glyph glyph-name="kn_ja.vattu" 
d="M-469 -315q-34 0 -64 6q-4 -27 -25.5 -44.5t-52 -30t-64.5 -22t-63 -20.5t-48 -26t-19 -37q0 -21 9.5 -36t24.5 -24.5t32.5 -13.5t32.5 -4q50 0 84.5 33t39.5 108h134q6 -60 35.5 -100.5t79.5 -40.5q14 0 30 4.5t29 14t21.5 25t8.5 38.5q0 25 -9 40.5t-22.5 25t-29.5 14
t-30 6.5l-11 102q42 -1 84.5 -11t76.5 -32.5t55.5 -59t21.5 -90.5q0 -50 -19 -86.5t-50 -60.5t-71.5 -35.5t-82.5 -11.5q-63 0 -110 31t-73 79q-29 -51 -76 -80.5t-116 -29.5q-31 0 -71.5 8.5t-76.5 29.5t-60.5 57t-24.5 91q0 46 21 75t52.5 47t68 30t68 24t52.5 28.5
t21 45.5q0 32 -20 45.5t-43 13.5q-22 0 -38 -10t-26.5 -25t-17 -33t-10.5 -34q-34 15 -61 26q-23 10 -42.5 18t-19.5 9q10 35 28.5 66.5t45 55t61.5 37.5t78 14q79 0 131.5 -34.5t66.5 -97.5q23 -5 43 -5q18 0 34 4t29 13t20.5 24t7.5 37q0 5 -1.5 15t-3.5 24l140 41
q4 -23 5 -40t1 -31q0 -47 -19 -84t-49.5 -63t-70.5 -39.5t-82 -13.5z" />
    <glyph glyph-name="kn_jha.vattu" 
d="M-1362 -388q0 61 22 115.5t60 94.5t88.5 63.5t108.5 23.5q57 0 108 -23.5t88.5 -63.5t59.5 -94.5t22 -115.5q0 -20 -3 -39t-8 -39q10 -21 24.5 -39t30 -32t32.5 -22t33 -8q20 0 38 10t32 28.5t22 44.5t8 59q0 46 -14 82.5t-35 64.5t-45.5 48t-45.5 33l51 118
q48 -28 89 -62.5t71.5 -77.5t47.5 -94t17 -112q0 -27 -3 -46q20 -42 51.5 -69t64.5 -27q41 0 70.5 38t29.5 104q0 46 -13.5 82.5t-34.5 64.5t-45.5 48t-46.5 33l52 118q48 -28 89 -62.5t71 -77.5t47 -94t17 -112q0 -50 -15.5 -97t-45.5 -83t-74.5 -57.5t-103.5 -21.5
q-55 0 -98 23t-72 58q-29 -37 -73.5 -59t-105.5 -22q-59 0 -105.5 27.5t-75.5 65.5q-38 -43 -90 -68t-113 -25q-58 0 -108.5 23.5t-88.5 63.5t-60 94t-22 115zM-1226 -388q0 -37 11.5 -69.5t31 -57t45.5 -38.5t55 -14t55 14t45.5 38.5t30.5 57t11 69.5t-11 70t-30.5 57.5
t-45.5 38.5t-55 14t-55 -14t-45.5 -38.5t-31 -57.5t-11.5 -70zM-447 -784q0 -26 -22 -45t-55 -19q-16 0 -29.5 5.5t-23.5 14.5t-16 20.5t-6 23.5q0 16 7 34t17.5 37t23.5 38.5t26 37.5q14 -18 28 -37.5t25 -38t18 -37t7 -34.5z" />
    <glyph glyph-name="kn_nya.vattu" 
d="M-677 -684q-40 0 -76.5 11t-64 32t-44 51.5t-16.5 70.5t17 69t45.5 48t64.5 28t75 9q43 0 78.5 -7.5t69.5 -25.5q2 11 3 23.5t1 23.5q0 67 -26.5 105t-71.5 38q-33 0 -55 -27t-22 -80h-136q0 49 -21 78t-54 29q-32 0 -50 -22.5t-18 -54.5q0 -38 21.5 -66.5t53.5 -51.5
l-58 -101q-32 19 -60 42.5t-48.5 51.5t-32.5 58.5t-12 63.5q0 43 15.5 79t43 62t65 41t80.5 15q56 0 90.5 -21.5t53.5 -52.5q21 31 58 52.5t85 21.5t86.5 -16.5t67.5 -43.5q30 32 68.5 46t80.5 14q50 0 89.5 -17t66.5 -45.5t41 -66t14 -79.5q0 -121 -126 -211l-81 103
q32 23 49.5 51t17.5 64q0 14 -4 29t-12.5 27t-22 20t-32.5 8q-28 0 -47 -16.5t-32 -39.5q6 -21 8.5 -43t2.5 -44q0 -33 -7 -68.5t-20 -68.5q28 -36 52 -87.5t35 -108.5h-126q-17 54 -32 84q-36 -39 -84.5 -61.5t-106.5 -22.5zM-677 -482q-25 0 -47.5 -13t-22.5 -36
q0 -20 19.5 -33t50.5 -13q30 0 60.5 17t50.5 53q-22 12 -51 18.5t-60 6.5z" />
    <glyph glyph-name="kn_tta.vattu" horiz-adv-x="166" 
d="M46 -481q0 39 -33 66.5t-96 27.5v121q129 0 129 105q0 27 -8.5 51.5t-20.5 44.5t-25 35t-22 24l107 75q16 -21 34 -49t34 -59.5t26.5 -65t10.5 -66.5q0 -54 -24 -93t-56 -64q18 -13 33 -31t25.5 -38t16 -41.5t5.5 -40.5q0 -42 -13.5 -79.5t-40.5 -65.5t-67.5 -44
t-94.5 -16q-62 0 -113.5 28.5t-77.5 78.5q-26 -50 -69.5 -78.5t-105.5 -28.5q-42 0 -83.5 13t-75 40.5t-54.5 70.5t-21 103q0 54 23.5 94t60 65.5t81.5 38t87 12.5l-14 -113q-14 -2 -32 -7.5t-33.5 -17t-26 -30t-10.5 -45.5q0 -28 9 -48t23.5 -33t31 -19.5t31.5 -6.5
q30 0 49.5 13.5t32 36t19 51.5t9.5 59h134q2 -37 12.5 -66.5t27 -50.5t38 -32t45.5 -11q21 0 36.5 8t25.5 20.5t15 28t5 29.5z" />
    <glyph glyph-name="kn_ttha.vattu" 
d="M-106 -388q0 -65 -26.5 -120.5t-70 -96t-100.5 -63.5t-117 -23q-67 0 -124.5 25.5t-99.5 67.5t-65.5 96.5t-23.5 113.5q0 65 26 121t69.5 96.5t100 63.5t117.5 23q67 0 124.5 -25.5t99.5 -67.5t66 -97t24 -114zM-597 -387q0 -39 14 -73t38.5 -59.5t57 -40t68.5 -14.5
t68.5 14.5t56.5 40t38 59.5t14 73t-14 73t-38 59.5t-56.5 40t-68.5 14.5t-68.5 -14.5t-57 -40t-38.5 -59.5t-14 -73zM-477 -377q0 -23 17.5 -40.5t40.5 -17.5t40 17.5t17 40.5t-17 40t-40 17t-40.5 -17t-17.5 -40z" />
    <glyph glyph-name="kn_dda.vattu" 
d="M-107 -482q0 -46 -20 -83.5t-52 -63.5t-72.5 -40.5t-82.5 -14.5q-43 0 -84.5 18t-64.5 49q-26 -32 -63 -49.5t-85 -17.5q-51 0 -92 19.5t-69 52t-43 75t-15 88.5q0 79 30.5 145t82.5 113.5t121 73.5t146 26q58 0 111 -15.5t93.5 -44.5t64.5 -72.5t25 -98.5
q36 -26 52.5 -66t16.5 -94zM-243 -476q0 13 -1 23.5t-4 19.5q-14 -8 -29.5 -10.5t-27.5 -2.5q-22 0 -42 6.5t-35 18.5t-24 29.5t-9 38.5q0 44 29 69t69 25q-11 16 -29.5 26t-39.5 15.5t-42.5 7.5t-39.5 2q-51 0 -95.5 -17t-78 -47.5t-53 -74t-19.5 -97.5q0 -25 5 -47
t15.5 -39t26 -27t36.5 -10q15 0 29 6t25 17t18 26t7 32v31h136v-31q0 -36 24.5 -58.5t58.5 -22.5q17 0 33 7t29 19.5t20.5 29t7.5 35.5z" />
    <glyph glyph-name="kn_ddha.vattu" 
d="M-243 -476q0 13 -1 23.5t-4 19.5q-14 -8 -29.5 -10.5t-27.5 -2.5q-22 0 -42 6.5t-35 18.5t-24 29.5t-9 38.5q0 44 29 69t69 25q-11 16 -29.5 26t-39.5 15.5t-42.5 7.5t-39.5 2q-51 0 -95.5 -17t-78 -47.5t-53 -74t-19.5 -97.5q0 -25 5 -47t15.5 -39t26 -27t36.5 -10
q15 0 29 6t25 17t18 26t7 32v31h136v-31q0 -36 24.5 -58.5t58.5 -22.5q17 0 33 7t29 19.5t20.5 29t7.5 35.5zM-107 -482q0 -46 -20 -83.5t-52 -63.5t-72.5 -40.5t-82.5 -14.5q-43 0 -84.5 18t-64.5 49q-26 -32 -63 -49.5t-85 -17.5q-51 0 -92 19.5t-69 52t-43 75t-15 88.5
q0 79 30.5 145t82.5 113.5t121 73.5t146 26q58 0 111 -15.5t93.5 -44.5t64.5 -72.5t25 -98.5q36 -26 52.5 -66t16.5 -94zM-406 -784q0 -26 -22 -45t-55 -19q-16 0 -29.5 5.5t-23.5 14.5t-16 20.5t-6 23.5q0 16 7 34t17.5 37t23.5 38.5t26 37.5q14 -18 28 -37.5t25 -38
t18 -37t7 -34.5z" />
    <glyph glyph-name="kn_nna.vattu" 
d="M-107 -392q0 -59 -10 -112t-34 -93t-63 -63.5t-96 -23.5q-33 0 -62 11.5t-50 31t-33 45.5t-12 54q0 30 10.5 57.5t29.5 47.5t45 32t58 12q22 0 42.5 -5t38.5 -17q-1 28 -6.5 64t-18 68t-32.5 53.5t-50 21.5q-35 0 -58 -32t-28 -80h-133q-8 52 -33.5 82t-64.5 30
q-32 0 -53 -18t-21 -53q0 -28 14.5 -41.5t33.5 -13.5h63v-117h-63q-18 0 -33 -17.5t-15 -43.5q0 -24 14.5 -39.5t41.5 -15.5q25 0 44.5 20.5t33.5 55.5l95 -62q-9 -29 -26.5 -53t-41 -41.5t-52 -27t-58.5 -9.5q-36 0 -69.5 10.5t-60 30.5t-42 50.5t-15.5 69.5q0 47 17.5 79
t49.5 52q-31 19 -49 48.5t-18 73.5q0 43 16 76.5t44 56.5t67 34.5t84 11.5q22 0 45 -7t44.5 -20t40 -31.5t32.5 -40.5q12 22 29 40.5t37.5 31.5t43 20t43.5 7q66 0 112.5 -29.5t75.5 -74t42.5 -97.5t13.5 -100zM-313 -574q41 0 57 40q-4 23 -21 38.5t-34 15.5
q-19 0 -34 -10.5t-15 -35.5q0 -13 5 -22t12 -15t15.5 -8.5t14.5 -2.5z" />
    <glyph glyph-name="kn_ta.vattu" 
d="M-481 -367q0 36 16.5 65.5t44.5 51.5t64.5 34t75.5 12q43 0 80 -16t64 -43.5t42.5 -63.5t15.5 -76t-16 -74.5t-44 -59.5t-65 -39.5t-80 -14.5h-711v117h554q-17 20 -29 44t-12 63zM-353 -397q0 -32 20.5 -54.5t49.5 -22.5t49 22.5t20 54.5t-20 54t-49 22t-49.5 -22
t-20.5 -54z" />
    <glyph glyph-name="kn_tha.vattu" 
d="M-411 -481q0 -34 22 -60t57 -26q38 0 63.5 33t25.5 91q0 50 -17.5 93t-48.5 74.5t-74.5 49.5t-95.5 18q-51 0 -94 -18t-74 -49.5t-48.5 -74.5t-17.5 -93q0 -58 24.5 -91t62.5 -33q35 0 57 26t22 60v35h136v-35zM-332 -684q-50 0 -87 25.5t-60 68.5q-26 -45 -61 -69.5
t-86 -24.5q-56 0 -97.5 20.5t-69.5 53.5t-42 75.5t-14 86.5q0 77 27.5 142.5t76.5 113t117 74.5t150 27t150 -27t117 -74.5t76.5 -113t27.5 -142.5q0 -44 -14.5 -86.5t-43 -75.5t-70.5 -53.5t-97 -20.5zM-401 -784q0 -26 -22 -45t-55 -19q-16 0 -29.5 5.5t-23.5 14.5
t-16 20.5t-6 23.5q0 16 7 34t17.5 37t23.5 38.5t26 37.5q14 -18 28 -37.5t25 -38t18 -37t7 -34.5zM-549 -336q0 29 21 49.5t50 20.5t49.5 -20.5t20.5 -49.5t-20.5 -50t-49.5 -21t-50 21t-21 50z" />
    <glyph glyph-name="kn_da.vattu" 
d="M-411 -481q0 -34 22 -60t57 -26q38 0 63.5 33t25.5 91q0 50 -17.5 93t-48.5 74.5t-74.5 49.5t-95.5 18q-51 0 -94 -18t-74 -49.5t-48.5 -74.5t-17.5 -93q0 -58 24.5 -91t62.5 -33q35 0 57 26t22 60v35h136v-35zM-332 -684q-50 0 -87 25.5t-60 68.5q-26 -45 -61 -69.5
t-86 -24.5q-56 0 -97.5 20.5t-69.5 53.5t-42 75.5t-14 86.5q0 77 27.5 142.5t76.5 113t117 74.5t150 27t150 -27t117 -74.5t76.5 -113t27.5 -142.5q0 -44 -14.5 -86.5t-43 -75.5t-70.5 -53.5t-97 -20.5z" />
    <glyph glyph-name="kn_dha.vattu" 
d="M-411 -481q0 -34 22 -60t57 -26q38 0 63.5 33t25.5 91q0 50 -17.5 93t-48.5 74.5t-74.5 49.5t-95.5 18q-51 0 -94 -18t-74 -49.5t-48.5 -74.5t-17.5 -93q0 -58 24.5 -91t62.5 -33q35 0 57 26t22 60v35h136v-35zM-332 -684q-50 0 -87 25.5t-60 68.5q-26 -45 -61 -69.5
t-86 -24.5q-56 0 -97.5 20.5t-69.5 53.5t-42 75.5t-14 86.5q0 77 27.5 142.5t76.5 113t117 74.5t150 27t150 -27t117 -74.5t76.5 -113t27.5 -142.5q0 -44 -14.5 -86.5t-43 -75.5t-70.5 -53.5t-97 -20.5zM-401 -784q0 -26 -22 -45t-55 -19q-16 0 -29.5 5.5t-23.5 14.5
t-16 20.5t-6 23.5q0 16 7 34t17.5 37t23.5 38.5t26 37.5q14 -18 28 -37.5t25 -38t18 -37t7 -34.5z" />
    <glyph glyph-name="kn_na.vattu" 
d="M-41 -814q-13 35 -27.5 74t-30 78t-32 76t-34.5 70q-53 -54 -121.5 -85t-156.5 -31q-51 0 -97 16.5t-80 46.5t-54 71t-20 90q0 54 21 96t56 71.5t80.5 45t95.5 15.5q80 0 145.5 -31t119.5 -82q32 73 46 155t14 167h136q0 -56 -6.5 -113.5t-19 -113.5t-32 -109t-45.5 -99
q30 -45 54.5 -92t45 -93.5t36.5 -90.5t28 -82zM-444 -296q-48 0 -81 -26.5t-33 -80.5q0 -29 12 -50.5t30.5 -35.5t40 -20.5t40.5 -6.5q59 0 108 30t87 80q-42 50 -92.5 80t-111.5 30z" />
    <glyph glyph-name="kn_pa.vattu" horiz-adv-x="215" 
d="M-4 -684q-63 0 -109 29t-68 78q-25 -51 -69.5 -79t-110.5 -28q-41 0 -82 12.5t-73 39t-52 68.5t-20 101q0 54 23.5 94.5t60 67.5t81 40.5t86.5 13.5l-13 -113q-14 -2 -32 -8.5t-33.5 -19t-26 -32t-10.5 -47.5q0 -26 8.5 -45t22 -31t29.5 -18t31 -6q31 0 51.5 13.5
t33.5 36t19.5 51.5t9.5 59h134q2 -37 12.5 -66.5t25.5 -50.5t34 -32t39 -11q19 0 37 8t31.5 25t22 44.5t8.5 65.5q0 65 -21 120.5t-52.5 101.5t-69 82.5t-71.5 64.5l92 84q43 -32 89 -80t83.5 -107t61.5 -126t24 -136q0 -125 -62.5 -194.5t-174.5 -69.5z" />
    <glyph glyph-name="kn_pha.vattu" horiz-adv-x="215" 
d="M-4 -684q-63 0 -109 29t-68 78q-25 -51 -69.5 -79t-110.5 -28q-41 0 -82 12.5t-73 39t-52 68.5t-20 101q0 54 23.5 94.5t60 67.5t81 40.5t86.5 13.5l-13 -113q-14 -2 -32 -8.5t-33.5 -19t-26 -32t-10.5 -47.5q0 -26 8.5 -45t22 -31t29.5 -18t31 -6q31 0 51.5 13.5
t33.5 36t19.5 51.5t9.5 59h134q2 -37 12.5 -66.5t25.5 -50.5t34 -32t39 -11q19 0 37 8t31.5 25t22 44.5t8.5 65.5q0 65 -21 120.5t-52.5 101.5t-69 82.5t-71.5 64.5l92 84q43 -32 89 -80t83.5 -107t61.5 -126t24 -136q0 -125 -62.5 -194.5t-174.5 -69.5zM-103 -784
q0 -26 -22 -45t-55 -19q-16 0 -29.5 5.5t-23.5 14.5t-16 20.5t-6 23.5q0 16 7 34t17.5 37t23.5 38.5t26 37.5q14 -18 28 -37.5t25 -38t18 -37t7 -34.5z" />
    <glyph glyph-name="kn_ba.vattu" horiz-adv-x="213" 
d="M-9 -567q19 0 37 8t32.5 25t23 44.5t8.5 65.5q0 65 -21 120.5t-52.5 101.5t-69 82.5t-71.5 64.5l92 84q43 -32 89 -80t83.5 -107t61.5 -126t24 -136q0 -125 -61.5 -194.5t-173.5 -69.5q-63 0 -108.5 22t-73.5 63q-27 -39 -75.5 -62t-117.5 -23q-31 0 -71 8.5t-76 29.5
t-61 57t-25 91q0 45 21 72.5t52.5 46t68 30.5t68 25t52.5 30t21 46q0 32 -19.5 45.5t-42.5 13.5t-38.5 -10t-26.5 -25t-17.5 -33t-10.5 -34l-62 26q-23 10 -42.5 18.5t-18.5 8.5q10 35 28.5 66.5t45 55t61.5 37.5t79 14q91 0 146 -47t55 -129q0 -47 -21 -75.5t-53 -46.5
t-69 -29.5t-69 -23.5t-53 -28.5t-21 -44.5q0 -21 10 -36t24.5 -24.5t32 -13.5t32.5 -4q50 0 85 33t40 108h134q6 -60 35 -100.5t79 -40.5z" />
    <glyph glyph-name="kn_bha.vattu" horiz-adv-x="213" 
d="M-9 -567q19 0 37 8t32.5 25t23 44.5t8.5 65.5q0 65 -21 120.5t-52.5 101.5t-69 82.5t-71.5 64.5l92 84q43 -32 89 -80t83.5 -107t61.5 -126t24 -136q0 -125 -61.5 -194.5t-173.5 -69.5q-63 0 -108.5 22t-73.5 63q-27 -39 -75.5 -62t-117.5 -23q-31 0 -71 8.5t-76 29.5
t-61 57t-25 91q0 45 21 72.5t52.5 46t68 30.5t68 25t52.5 30t21 46q0 32 -19.5 45.5t-42.5 13.5t-38.5 -10t-26.5 -25t-17.5 -33t-10.5 -34q-34 15 -61 26q-12 5 -23 9.5t-20 8.5q-11 4 -19 9q10 35 28.5 66.5t45 55t61.5 37.5t79 14q91 0 146 -47t55 -129q0 -47 -21 -75.5
t-53 -46.5t-69 -29.5t-69 -23.5t-53 -28.5t-21 -44.5q0 -21 10 -36t24.5 -24.5t32 -13.5t32.5 -4q50 0 85 33t40 108h134q6 -60 35 -100.5t79 -40.5zM-111 -784q0 -26 -22 -45t-55 -19q-16 0 -29.5 5.5t-23.5 14.5t-16 20.5t-6 23.5q0 16 7 34t17.5 37t23.5 38.5t26 37.5
q14 -18 28 -37.5t25 -38t18 -37t7 -34.5z" />
    <glyph glyph-name="kn_ma.vattu" horiz-adv-x="383" 
d="M-148 -334q0 -48 18 -90.5t50 -74t76 -50t97 -18.5q57 0 103 26.5t79 71.5t52.5 104t24.5 123l132 -43q-10 -77 -36.5 -148.5t-73 -127.5t-115.5 -89.5t-164 -33.5q-89 0 -159.5 27.5t-119 75t-74.5 111.5t-26 137q0 46 12 88t34 78t52.5 65.5t66.5 49.5q13 33 20.5 58
t11.5 46t5 39.5t1 37.5q0 18 -3 38t-8 38.5t-10.5 34.5t-9.5 26l130 54q14 -38 25.5 -79t11.5 -73q0 -53 -11 -95t-23 -79q10 1 20 1h21q55 0 102 -15.5t81 -42.5t53.5 -65t19.5 -83t-16.5 -81t-46 -61t-71.5 -38t-93 -13q-33 0 -67 9.5t-62 31.5t-48.5 59t-26.5 92
q-21 -34 -28 -66.5t-7 -55.5zM-15 -168q0 -55 32.5 -87.5t82.5 -32.5q13 0 27.5 5t26.5 15t19.5 24.5t7.5 34.5q0 42 -34 65.5t-85 23.5q-20 0 -38.5 -3.5t-36.5 -9.5q-1 -8 -1.5 -17t-0.5 -18z" />
    <glyph glyph-name="kn_ya.vattu" horiz-adv-x="321" 
d="M-1 -714q-48 0 -101.5 10t-99.5 34t-76 64t-30 100q0 38 15.5 63t38.5 42t49.5 30t49.5 27.5t38.5 34t15.5 49.5q0 31 -14 41.5t-28 10.5q-20 0 -34 -9t-23.5 -23t-15.5 -31t-10 -33q-35 12 -62 23q-23 9 -42 18t-19 12q20 72 74 116t132 44q81 0 129.5 -44t48.5 -119
q0 -39 -15.5 -65t-38.5 -44.5t-49.5 -32t-49.5 -28.5t-38.5 -33.5t-15.5 -47.5q0 -22 13.5 -38t37 -27t55.5 -16.5t68 -5.5q49 0 86 12t62 33t37.5 49.5t12.5 62.5q0 33 -10.5 67.5t-27.5 69.5t-38.5 70.5t-43.5 70.5q-23 36 -45.5 73t-40 73.5t-28.5 71.5t-11 68
q0 52 18.5 91.5t49 66.5t70 41t81.5 14q64 0 124 -34t101 -106l-106 -67q-34 51 -62.5 70.5t-55.5 19.5q-21 0 -36.5 -8t-26 -21.5t-16 -30.5t-5.5 -36q0 -28 9 -57t24 -59.5t34.5 -62t40.5 -64.5q25 -39 49.5 -78.5t44 -79t31.5 -79.5t12 -80q0 -51 -18.5 -102t-59 -91
t-104.5 -65t-155 -25z" />
    <glyph glyph-name="kn_ra.vattu" horiz-adv-x="291" 
d="M202 157q0 -166 -29 -287t-92.5 -199.5t-163.5 -116t-242 -37.5q-85 0 -166.5 16.5t-174.5 51.5l41 112q36 -14 75 -25.5t78.5 -19.5t77 -13t69.5 -5q89 0 152.5 19.5t107 54t70 82t40 104t18 119t4.5 126.5q0 46 -6 136t-27 223l132 43q6 -44 12.5 -95.5t12 -103.5
t8.5 -100t3 -85z" />
    <glyph glyph-name="kn_rra.vattu" 
d="M-653 -396q-12 0 -26 5.5t-28 23.5v-26q0 -26 5.5 -56.5t17.5 -56.5t31 -43.5t47 -17.5q15 0 27 8t20 20.5t12 28.5t4 32v31h136v-31q0 -16 4 -32t12 -28.5t20 -20.5t27 -8q28 0 47 17.5t31 43.5t17.5 56.5t5.5 56.5v26q-14 -18 -28 -23.5t-26 -5.5h-356zM-621 -244
q0 24 -11.5 35t-21.5 11q-17 0 -30.5 -22.5t-16.5 -49.5q5 -14 15.5 -24t21.5 -10q5 0 12.5 2.5t14 9.5t11.5 18.5t5 29.5zM-405 -327q-17 19 -23.5 42t-6.5 45q0 31 8.5 58t25.5 47t42 32t58 12q38 0 67.5 -14.5t51 -39t36 -55.5t23.5 -64t12.5 -65.5t3.5 -58.5
q0 -49 -14.5 -101.5t-44.5 -95.5t-75.5 -71t-107.5 -28q-38 0 -71.5 16t-54.5 41q-21 -25 -54.5 -41t-71.5 -16q-62 0 -107.5 28t-75.5 71t-44.5 95.5t-14.5 101.5q0 26 3.5 58.5t12.5 65.5t23.5 64t36 55.5t51 39t67.5 14.5q33 0 58 -12t42 -32t25.5 -47t8.5 -58
q0 -22 -6.5 -45t-23.5 -42h140zM-329 -244q0 -18 4.5 -29.5t11.5 -18.5t14.5 -9.5t12.5 -2.5q11 0 21.5 10t15.5 24q-3 27 -16.5 49.5t-30.5 22.5q-10 0 -21.5 -11t-11.5 -35z" />
    <glyph glyph-name="kn_la.vattu" 
d="M-563 -346v28q0 32 -9 53t-23.5 34t-31 18t-31.5 5q-17 0 -35.5 -6.5t-35 -21t-27 -38t-10.5 -57.5q0 -62 32 -100.5t78 -60.5l-32 -108q-41 13 -79.5 36.5t-68.5 57t-48 77.5t-18 98q0 49 17 93t48 76.5t75.5 51.5t98.5 19q43 0 87 -22t71 -77q32 54 76.5 76.5
t88.5 22.5q54 0 97 -19t73.5 -51.5t46.5 -76.5t16 -93q0 -54 -18 -98t-48 -77.5t-68.5 -57t-79.5 -36.5l-32 108q46 22 78 60.5t32 100.5q0 34 -11 57.5t-28 38t-36.5 21t-35.5 6.5q-15 0 -31 -5t-30 -18t-23 -34t-9 -53v-28h-116z" />
    <glyph glyph-name="kn_lla.vattu" horiz-adv-x="216" 
d="M-149 -236q0 -42 -26 -72t-64 -47q21 -3 34.5 -5t22.5 -3.5t15 -3t12 -2.5q20 11 40.5 20t42.5 19q32 14 62 28.5t53.5 34t38 45t14.5 60.5q0 49 -21.5 95t-54.5 88t-73 78.5t-77 66.5l77 90q76 -57 130 -115t88.5 -113t50.5 -103.5t16 -86.5q0 -56 -21 -97.5t-54.5 -72
t-75 -52.5t-81.5 -40q27 -20 43 -47.5t16 -66.5q0 -30 -14.5 -56.5t-38.5 -46.5t-54.5 -31.5t-61.5 -11.5q-32 0 -62 10.5t-53.5 30t-38 46t-14.5 59.5q0 26 6 45.5t17 38.5q-46 9 -90.5 22t-80 35t-57 56t-21.5 86q0 40 15 70.5t40.5 51.5t58.5 31.5t69 10.5q40 0 71.5 -13
t54 -33.5t34.5 -46.5t12 -52zM-322 -198q-25 0 -43 -13.5t-18 -39.5q0 -24 15.5 -38.5t41.5 -16.5q28 7 46 25t18 34q0 15 -6 24.5t-15 15t-19.5 7.5t-19.5 2zM-60 -532q0 20 -15.5 36t-44.5 24q-21 -11 -30 -27.5t-9 -32.5q0 -27 17 -44.5t34 -17.5t32.5 16.5t15.5 45.5z
" />
    <glyph glyph-name="kn_va.vattu" horiz-adv-x="119" 
d="M-28 -424q0 37 -13 71.5t-34.5 63.5t-49 50t-55.5 31h-161v117h298q34 0 53 17.5t19 38.5q0 26 -21.5 42t-61.5 31l33 90q27 -8 59.5 -23t60.5 -37t47 -52.5t19 -69.5q0 -34 -11.5 -59.5t-31.5 -43.5t-46.5 -29t-56.5 -17q47 -55 68 -108.5t21 -108.5q0 -62 -16.5 -111
t-47 -83t-74.5 -52t-99 -18q-63 0 -108 26.5t-72 75.5q-32 -48 -72 -75t-106 -27q-41 0 -82 12.5t-73 39t-52 68.5t-20 101q0 54 23.5 94.5t60 67.5t81.5 40.5t87 13.5l-14 -113q-14 -2 -32 -8.5t-33.5 -19t-26 -32t-10.5 -47.5q0 -26 8.5 -45t22 -31t29.5 -18t31 -6
q31 0 51.5 13.5t33.5 36t19.5 51.5t9.5 59h134q2 -37 12.5 -66.5t25.5 -50.5t34.5 -32t39.5 -11q19 0 36.5 8t31.5 25t22.5 44.5t8.5 65.5z" />
    <glyph glyph-name="kn_sha.vattu" horiz-adv-x="173" 
d="M-148 -187q-18 0 -38 -8.5t-36 -23.5t-26.5 -35.5t-10.5 -44.5h-106q0 51 18 90t47.5 65t66.5 39.5t75 13.5q47 0 94 -14q8 35 8 76q0 21 -0.5 39t-2.5 36.5t-6 40t-10 49.5l127 55q14 -66 20.5 -123t6.5 -99q0 -37 -7 -69t-21 -64q65 -48 102.5 -117.5t37.5 -153.5
q0 -56 -23.5 -102t-65.5 -78.5t-100 -50.5t-126 -18q-53 0 -97.5 12t-76.5 35.5t-49.5 59.5t-17.5 84q0 26 11 49t29 44.5t42 42t51 41.5q13 11 30 25t34 30t33.5 32t29.5 31q-6 5 -17.5 8t-25.5 3zM-229 -500q0 -16 8.5 -28.5t22.5 -21t32 -13t37 -4.5q82 0 133 35.5
t51 101.5q0 45 -14 92t-45 77q-15 -19 -33.5 -39t-38 -39t-39 -36.5t-35.5 -32.5q-32 -29 -55.5 -52.5t-23.5 -39.5z" />
    <glyph glyph-name="kn_ssa.vattu" horiz-adv-x="215" 
d="M-78 30q41 -31 91.5 -76t96 -99t79 -115.5t40.5 -125.5l112 -290l-115 -41l-57 103q-30 -34 -73.5 -52t-99.5 -18q-60 0 -106 29t-71 74q-27 -50 -70 -76.5t-109 -26.5q-41 0 -82 12.5t-73.5 39t-52.5 68.5t-20 101q0 54 23.5 94.5t60 67.5t81.5 40.5t87 13.5l-14 -113
q-14 -2 -31.5 -8.5t-33.5 -19t-26.5 -32t-10.5 -47.5q0 -26 8.5 -45t22 -31t30 -18t31.5 -6q30 0 50.5 13.5t33.5 36t19.5 51.5t9.5 59h134q2 -37 12.5 -66.5t26 -50.5t34.5 -32t39 -11q19 0 36.5 8t30.5 25t21 44.5t8 65.5q0 60 -27.5 115t-67 102t-83.5 86t-77 66z" />
    <glyph glyph-name="kn_sa.vattu" horiz-adv-x="170" 
d="M57 63q29 -57 53 -115t41 -113t26 -105.5t9 -92.5q0 -78 -17.5 -138t-50 -100.5t-77 -61.5t-98.5 -21q-45 0 -78.5 20.5t-58 54t-42 76t-32 87.5t-27.5 87.5t-28.5 76t-34.5 54t-46 20.5q-20 0 -38.5 -8.5t-32.5 -27t-22.5 -48t-8.5 -71.5q0 -28 7 -62t20.5 -69.5t33 -70
t43.5 -63.5l-95 -87q-24 27 -49.5 67.5t-47 88t-35 98t-13.5 98.5q0 59 16 109t47 86t75 56.5t100 20.5q48 0 82 -20.5t59 -54t43 -76t32 -87.5t26.5 -87.5t27.5 -76t34 -54t47 -20.5q45 0 74 47.5t29 133.5q0 48 -8.5 97.5t-23.5 97.5t-35 93.5t-43 85.5z" />
    <glyph glyph-name="kn_ha.vattu" 
d="M-988 -344q0 52 20 98t54.5 80.5t81 54.5t98.5 20q56 0 106.5 -30t79.5 -78q31 50 81.5 79t104.5 29q52 0 98.5 -20t81 -54.5t54.5 -80.5t20 -98t-20 -98t-54.5 -80t-81 -54t-98.5 -20q-56 0 -104.5 27t-81.5 75q-33 -48 -81 -75t-105 -27q-52 0 -98.5 20t-81 54
t-54.5 80t-20 98zM-362 -208q-24 0 -45 -10t-36.5 -27.5t-25.5 -41.5t-11 -51v-6q0 -29 9.5 -53.5t25.5 -43t37.5 -29t45.5 -10.5q25 0 46.5 10.5t37.5 29t25 43t9 53.5q0 28 -9 53t-25 43.5t-37.5 29t-46.5 10.5zM-852 -344q0 -29 9.5 -53.5t25.5 -43t37.5 -29t45.5 -10.5
q25 0 46.5 10.5t37.5 29t25 43t9 53.5q0 28 -9 53t-25 43.5t-37.5 29t-46.5 10.5q-24 0 -45.5 -10.5t-37.5 -29t-25.5 -43.5t-9.5 -53z" />
    <glyph glyph-name="kn_llla.vattu" 
d="M-611 -241q0 13 -5 22.5t-12 16t-14.5 10t-12.5 3.5q-17 0 -29 -18t-18 -41q1 -5 6 -12.5t11.5 -14t14 -11t14.5 -4.5q14 0 29.5 10t15.5 39zM-417 -447v-31q0 -16 5.5 -32t15.5 -28.5t23.5 -20.5t28.5 -8q28 0 49 18.5t35.5 46t22 60t7.5 60.5q0 11 -0.5 22.5t-2.5 19.5
q-18 -31 -45 -42t-46 -11q-55 0 -90.5 34.5t-35.5 115.5q0 33 11 61t30.5 48t47 31.5t60.5 11.5q38 0 67.5 -14.5t51 -39t36 -55.5t23.5 -64t12.5 -65.5t3.5 -58.5q0 -49 -14.5 -101.5t-44.5 -95.5t-75.5 -71t-107.5 -28q-38 0 -72 23.5t-54 61.5q-20 -38 -54 -61.5
t-72 -23.5q-62 0 -107.5 28t-75.5 71t-44.5 95.5t-14.5 101.5q0 26 3.5 58.5t12.5 65.5t23.5 64t36 55.5t51 39t67.5 14.5q33 0 60.5 -11.5t47 -31.5t30.5 -48t11 -61q0 -81 -35.5 -115.5t-90.5 -34.5q-19 0 -46 11t-45 42q-2 -8 -2.5 -19.5t-0.5 -22.5q0 -28 7.5 -60.5
t22 -60t35.5 -46t49 -18.5q15 0 28.5 8t23.5 20.5t15.5 28.5t5.5 32v31h116zM-339 -241q0 -29 15.5 -39t29.5 -10q7 0 14.5 4.5t14 11t11 14t6.5 12.5q-6 23 -18 41t-29 18q-5 0 -12.5 -3.5t-14.5 -10t-12 -16t-5 -22.5z" />
    <glyph glyph-name="kn_kssa.vattu" horiz-adv-x="404" 
d="M-303 -397q0 49 21.5 95.5t56.5 83.5h-78v108h294q8 21 10.5 50t2.5 67q0 89 -53 192l116 59q33 -64 51.5 -128t18.5 -122q0 -70 -9 -118h285v-108h-79q38 -38 58.5 -83t20.5 -96q0 -60 -28 -112t-77 -91t-114 -61.5t-140 -22.5q-74 0 -139 22.5t-113.5 61.5t-76.5 91
t-28 112zM-159 -396q0 -33 16.5 -62.5t45.5 -51.5t68 -35t83 -13t83 13t68 35t46 51.5t17 62.5t-17 62t-46 51t-68 34.5t-83 12.5t-83 -12.5t-68 -34.5t-45.5 -51t-16.5 -62zM434 -952l69 24l-80 237l-112 22q13 -32 13 -63q0 -45 -26 -74t-68 -29q-17 0 -37 5t-38 18
t-31.5 36.5t-18.5 60.5h-101q-1 -11 -5 -31.5t-15.5 -40t-32.5 -34t-54 -14.5q-46 0 -75 30t-29 99q0 23 4 39q-27 -8 -48 -13l-18 -4t-16 -4q-8 -2 -15 -4q-2 -12 -3.5 -24t-1.5 -26q0 -51 17.5 -87.5t45.5 -59.5t62 -34t66 -11q63 0 102.5 25t65.5 74q21 -49 63.5 -74
t101.5 -25q60 0 96 25.5t62 73.5z" />
    <glyph glyph-name="kn_ka.vattu.2" horiz-adv-x="325" 
d="M-20 -646q0 39 15.5 75t43.5 66h-59v92h235q10 33 10 91q0 70 -42 153l99 53q59 -109 59 -206q0 -27 -1 -49.5t-5 -41.5h227v-92h-60q29 -31 44.5 -66.5t15.5 -74.5q0 -48 -23 -90.5t-62.5 -74t-92.5 -49.5t-114 -18q-60 0 -113 18t-92.5 49.5t-62 74t-22.5 90.5z
M105 -645q0 -26 13 -49t35.5 -40t52.5 -27t64 -10t64.5 10t53 27t35.5 40t13 49t-13 48.5t-35.5 39.5t-53 27t-64.5 10t-64 -10t-52.5 -27t-35.5 -39.5t-13 -48.5z" />
    <glyph glyph-name="kn_kha.vattu.2" horiz-adv-x="446" 
d="M24 -595q-5 17 -7.5 31t-2.5 22q0 34 14.5 61.5t40 47t61 30t77.5 10.5q53 0 99.5 -18t81 -50t54.5 -77.5t20 -100.5q0 -76 -38 -132q10 -5 16 -6.5t16 -1.5q37 0 58.5 20.5t32 50t13.5 62.5t3 59q0 11 -4.5 48.5t-21.5 89t-50.5 112t-90.5 118.5l79 92q48 -48 86 -104
t65 -116t41.5 -121t14.5 -119q0 -149 -57 -220t-166 -71q-34 0 -62.5 10t-52.5 26q-32 -17 -72 -26.5t-85 -9.5q-32 0 -68 8t-66.5 26t-51 46.5t-20.5 69.5q0 38 16.5 62.5t40.5 38.5t51 19t48 5q35 0 63 -8t51.5 -21t43.5 -30t38 -34q11 25 11 59q0 37 -13 64.5t-33 45.5
t-43.5 26.5t-43.5 8.5q-45 0 -62.5 -16t-17.5 -36q0 -3 1 -8.5t3 -10.5zM137 -701q-11 0 -24.5 -5.5t-13.5 -24.5q0 -15 10.5 -24t25 -14.5t29.5 -7.5t24 -2q37 0 68 11q-29 28 -58.5 47.5t-60.5 19.5z" />
    <glyph glyph-name="kn_ga.vattu.2" horiz-adv-x="252" 
d="M248 -496q-25 0 -51.5 -8t-48.5 -26.5t-36 -49t-14 -75.5q0 -54 24 -108.5t66 -101.5l-85 -71q-67 79 -95.5 150t-28.5 132q0 67 23.5 115t62 79.5t86.5 46.5t97 15t97 -15t86.5 -46.5t62 -79.5t23.5 -115q0 -61 -28.5 -132t-94.5 -150l-85 71q42 47 66 101.5t24 108.5
q0 45 -14.5 75.5t-36.5 49t-48.5 26.5t-51.5 8z" />
    <glyph glyph-name="kn_gha.vattu.2" horiz-adv-x="316" 
d="M526 -662q0 84 -24.5 152.5t-61.5 124t-79 97.5t-78 73l66 81q21 -15 41 -27.5t32 -12.5q9 0 17 8.5t8 24.5q0 19 -15 35.5t-27 25.5l61 74q39 -28 65 -63.5t26 -69.5q0 -42 -23 -72t-62 -44q78 -83 125.5 -185.5t47.5 -221.5q0 -102 -51 -159t-143 -57q-49 0 -84 16.5
t-56 46.5q-23 -32 -56.5 -47.5t-87.5 -15.5q-34 0 -67.5 10t-60 31.5t-43 55.5t-16.5 82q0 44 19.5 77t50.5 55t68.5 33t72.5 11l-12 -96q-11 -2 -25 -7t-26 -14.5t-20.5 -25t-8.5 -36.5q0 -20 6.5 -34.5t16.5 -24t22 -14t23 -4.5q23 0 38 11t25 29t15 41t8 47h117
q3 -60 28 -94t56 -34q29 0 50.5 28t21.5 89zM386 -980q0 -26 -21.5 -45t-53.5 -19q-16 0 -29.5 5.5t-23.5 14.5t-16 20.5t-6 23.5q0 15 7 33.5t18 37.5t24 38t26 36q13 -18 26.5 -36.5t24.5 -37t17.5 -37t6.5 -34.5z" />
    <glyph glyph-name="kn_nga.vattu.2" horiz-adv-x="331" 
d="M470 -538q0 34 -13 47.5t-32 13.5q-23 0 -48.5 -11.5t-51.5 -34.5q0 -36 -14.5 -59.5t-36.5 -39.5t-49.5 -26t-53.5 -17q-27 -8 -50.5 -20t-23.5 -34q0 -17 7.5 -28t18.5 -18.5t24 -10.5t25 -3q37 0 64 26.5t30 86.5h116q5 -48 27.5 -80.5t60.5 -32.5q10 0 22 3t22 10.5
t16.5 19.5t6.5 30q0 19 -7 31t-18 19.5t-24 10.5t-24 5l-12 96q36 0 72.5 -8.5t65.5 -28t47 -50t18 -75.5q0 -44 -16 -75t-41.5 -50.5t-58.5 -28t-67 -8.5q-48 0 -85.5 17.5t-60.5 45.5q-45 -63 -154 -63q-26 0 -59 6.5t-62.5 24t-50 46.5t-20.5 74q0 35 13.5 58t35 38.5
t48.5 25.5t53 19q15 5 29 10t24.5 12t17 16t6.5 22q0 24 -14.5 33.5t-31.5 9.5t-28.5 -8t-20 -20.5t-13.5 -27t-8 -27.5q-30 10 -54 20q-20 8 -36.5 16t-16.5 11q8 28 23 54t37 45t51 30.5t65 11.5q42 0 74 -11t53 -34q25 19 60 32t83 13q38 0 67 -11t48 -29.5t28.5 -42.5
t9.5 -50zM343 -582q0 -17 13 -30t33 -13t33.5 13t13.5 30t-13.5 29.5t-33.5 12.5t-33 -12.5t-13 -29.5z" />
    <glyph glyph-name="kn_ca.vattu.2" horiz-adv-x="331" 
d="M369 -653v99h93q10 6 22 15.5t22 22t16.5 28t6.5 34.5q0 10 -5.5 20t-14 18.5t-18.5 16t-20 12.5l72 72q9 -6 27 -20.5t35 -33.5t30 -41t13 -44q0 -33 -11 -57t-30 -43h58v-99h-39q29 -29 29 -66q0 -43 -16 -73t-41.5 -49t-58.5 -28t-67 -9q-48 0 -85.5 17.5t-60.5 45.5
q-23 -29 -61.5 -46t-92.5 -17q-26 0 -59 6.5t-62.5 24t-50 46.5t-20.5 74q0 35 13.5 58t35 38.5t48.5 25.5t53 19q15 5 29 10t24.5 12t17 16t6.5 22q0 24 -14.5 33.5t-31.5 9.5q-16 0 -28 -8t-20 -20t-13 -26t-8 -27l-108 45q8 28 23 54t37.5 45t51.5 30.5t64 11.5
q76 0 120.5 -37.5t44.5 -105.5q0 -36 -14 -60t-36.5 -40.5t-50 -26.5t-53.5 -17q-27 -8 -50.5 -20t-23.5 -34q0 -17 7.5 -28t18.5 -18.5t24 -10.5t25 -3q38 0 64 26t30 87h116q5 -49 27.5 -81t60.5 -32q10 0 22 3.5t22 11t16.5 19.5t6.5 29q0 35 -17 47.5t-33 15.5h-118z
" />
    <glyph glyph-name="kn_cha.vattu.2" horiz-adv-x="283" 
d="M586 -642q0 -46 -11.5 -88.5t-34.5 -75.5t-59 -52.5t-84 -19.5q-34 0 -65 12.5t-51 32.5q-17 -20 -44 -32.5t-59 -12.5q-50 0 -87.5 22.5t-62 57.5t-36.5 77.5t-12 82.5q0 31 7.5 72.5t25.5 79t49 63t78 25.5q56 0 92 -32.5t36 -86.5q0 -66 -37.5 -98.5t-93.5 -32.5
q-9 0 -18.5 1t-20.5 6q0 -21 4 -45t13 -45t23.5 -34.5t35.5 -13.5q23 0 34.5 22t11.5 46v28h118v-28q0 -26 17 -47t43 -21q22 0 35.5 14t21 34.5t10 44t2.5 43.5t-6 43.5t-19 46t-33.5 41.5t-48.5 30l30 90q45 -12 81 -39t61.5 -61.5t39.5 -73.5t14 -76zM180 -517
q0 9 -6 14.5t-13.5 8.5t-14.5 3.5t-10 0.5q-6 0 -12 -6.5t-11.5 -15.5t-9.5 -19t-5 -17q1 -3 3.5 -8t6 -10t9 -9t11.5 -4q28 0 40 18t12 44zM347 -975q0 -22 -18.5 -38t-47.5 -16q-28 0 -46.5 17t-18.5 37q0 13 6 28t15 31.5t20.5 33.5t22.5 32q25 -32 46 -65.5t21 -59.5z
" />
    <glyph glyph-name="kn_ja.vattu.2" horiz-adv-x="331" 
d="M453 -565q-41 -18 -92 -18q-12 0 -24 1t-24 3q-10 -18 -26 -32t-35 -24t-40 -17t-41 -13q-27 -8 -50.5 -20t-23.5 -34q0 -17 7.5 -28t18.5 -18.5t24 -10.5t25 -3q37 0 64 26.5t30 86.5h116q5 -48 27.5 -80.5t60.5 -32.5q10 0 22 3t22 10.5t16.5 19.5t6.5 30q0 19 -7 31
t-18 19.5t-24 10.5t-24 5zM172 -878q-26 0 -59 6.5t-62.5 24t-50 46.5t-20.5 74q0 35 13.5 58t35 38.5t48.5 25.5t53 19q15 5 29 10t24.5 12t17 16t6.5 22q0 24 -14.5 33.5t-31.5 9.5t-28.5 -8t-20 -20.5t-13.5 -27t-8 -27.5q-30 10 -54 20q-20 8 -36.5 16t-16.5 11
q8 28 23 54t37 45t51 30.5t65 11.5q65 0 108 -27.5t54 -78.5q18 -3 30 -3q26 0 47 13t21 47q0 8 -5 33l120 35q6 -27 7 -39.5t1 -21.5q0 -49 -18.5 -82t-50.5 -53q34 -2 66.5 -12t58 -29.5t41 -49t15.5 -70.5q0 -44 -16 -75t-41.5 -50.5t-58.5 -28t-67 -8.5
q-48 0 -85.5 17.5t-60.5 45.5q-45 -63 -154 -63z" />
    <glyph glyph-name="kn_jha.vattu.2" horiz-adv-x="549" 
d="M-17 -638q0 49 18 93t49 76.5t72.5 51.5t88.5 19t88.5 -19t72 -51.5t48.5 -76.5t18 -93q0 -16 -1.5 -32t-5.5 -32q16 -35 39.5 -56t49.5 -21q31 0 53.5 30t22.5 81q0 36 -11 65t-28 51t-37 38t-37 27l44 101q40 -23 74.5 -52t59.5 -63.5t39 -76t14 -90.5v-19.5t-2 -17.5
q17 -34 39.5 -54t48.5 -20q31 0 53 30t22 81q0 36 -11 65t-28 51t-36.5 38t-36.5 27l44 101q40 -23 74 -52t59 -63.5t39.5 -76t14.5 -90.5q0 -41 -12.5 -79t-37.5 -67t-61.5 -46.5t-84.5 -17.5q-42 0 -77 17t-59 43q-24 -29 -59 -44.5t-85 -15.5q-49 0 -86 19.5t-60 51.5
q-30 -33 -71 -52t-90 -19q-47 0 -88.5 19t-72.5 51.5t-49 76t-18 93.5zM101 -638q0 -29 9 -55t24 -45t35 -30t42 -11t42 11t35 30t23.5 45t8.5 55t-8.5 55t-23.5 45t-35 30t-42 11t-42 -11t-35 -30t-24 -45t-9 -55zM727 -971q0 -22 -18.5 -38t-47.5 -16q-28 0 -46.5 17
t-18.5 37q0 13 6 28t15 31.5t20.5 33.5t22.5 32q25 -32 46 -65.5t21 -59.5z" />
    <glyph glyph-name="kn_nya.vattu.2" horiz-adv-x="385" 
d="M336 -878q-33 0 -63 9t-53 26t-36.5 42t-13.5 58q0 32 14 55.5t37 39t53 23t62 7.5q62 0 115 -24q1 8 1.5 16.5t0.5 16.5q0 52 -19.5 82t-53.5 30q-24 0 -40.5 -22t-16.5 -64h-118q0 39 -16 62.5t-40 23.5q-23 0 -36 -18t-13 -41q0 -29 17 -52.5t43 -41.5l-49 -87
q-56 31 -93 78t-37 99q0 36 13 65.5t35.5 51t53 33.5t66.5 12q44 0 71 -13t44 -33q20 20 50 33t65 13q38 0 68.5 -13t53.5 -33q25 24 55 35t65 11q42 0 74 -14t54.5 -37t34 -54t11.5 -64q0 -98 -107 -173l-69 86q26 19 40 41t14 51q0 10 -3 21.5t-9 21.5t-16 16t-24 6
q-20 0 -34 -12.5t-25 -30.5q5 -17 7.5 -34.5t2.5 -34.5q0 -28 -5.5 -55t-15.5 -54q48 -60 69 -160h-110q-7 19 -13 36t-11 26q-29 -29 -67 -45.5t-83 -16.5zM336 -717q-18 0 -33 -7.5t-15 -24.5q0 -14 13 -22t35 -8q21 0 40.5 12t36.5 32q-36 18 -77 18z" />
    <glyph glyph-name="kn_tta.vattu.2" horiz-adv-x="319" 
d="M524 -713q0 30 -26.5 51.5t-77.5 21.5v102q104 0 104 80q0 22 -7 41.5t-16.5 35.5t-20.5 28t-18 20l93 64q13 -18 28.5 -41t28.5 -48.5t22 -53t9 -53.5q0 -43 -19 -74.5t-44 -51.5q28 -22 45.5 -56t17.5 -64q0 -35 -11.5 -65t-34 -53t-56 -36t-77.5 -13q-51 0 -89 17
t-63 48q-21 -29 -55 -47t-84 -18q-35 0 -69.5 10.5t-62 32.5t-44.5 57t-17 84q0 44 19.5 76.5t50 53.5t68 31t72.5 10l-10 -96q-12 -2 -26 -6t-26 -13t-20.5 -23t-8.5 -35q0 -22 7 -37.5t17.5 -25.5t23 -15t23.5 -5q22 0 37 11t24 29t14 41t8 47h117q4 -60 30 -94t63 -34
q16 0 27.5 6t19 16t11 21.5t3.5 22.5z" />
    <glyph glyph-name="kn_ttha.vattu.2" horiz-adv-x="237" 
d="M490 -638q0 -53 -21.5 -98t-57 -78t-82 -51.5t-95.5 -18.5q-55 0 -101.5 20.5t-80.5 55t-53.5 78.5t-19.5 92q0 53 21.5 98t56.5 78t81 51.5t96 18.5q55 0 101.5 -20.5t81 -55t54 -78.5t19.5 -92zM98 -637q0 -31 11 -58t29.5 -47t43.5 -31.5t53 -11.5t52.5 11.5
t43.5 31.5t30 47t11 58q0 30 -11 56.5t-30 46t-43.5 31t-52.5 11.5t-53 -11.5t-43.5 -31t-29.5 -46t-11 -56.5zM190 -629q0 -19 13 -32.5t32 -13.5t32 13.5t13 32.5t-13 32.5t-32 13.5t-32 -13.5t-13 -32.5z" />
    <glyph glyph-name="kn_dda.vattu.2" horiz-adv-x="281" 
d="M584 -714q0 -38 -16.5 -68t-42.5 -51.5t-60 -33t-68 -11.5q-33 0 -64.5 9.5t-54.5 28.5q-22 -22 -50.5 -30t-67.5 -8q-42 0 -75.5 16t-57 42t-35.5 60.5t-12 71.5q0 64 24.5 117.5t66.5 92t98 59.5t119 21q47 0 90 -12.5t76 -36.5t53 -59t22 -80q55 -43 55 -128z
M465 -709v16t-2 13q-11 -5 -22 -6.5t-21 -1.5q-37 0 -64.5 21t-27.5 57q0 34 21.5 54.5t53.5 22.5q-9 11 -23 18t-29.5 11t-31.5 5.5t-29 1.5q-39 0 -74 -13.5t-61.5 -38t-41.5 -59t-15 -76.5q0 -38 15.5 -66.5t46.5 -28.5q22 0 40 17.5t18 44.5v28h118v-28q0 -28 18 -45
t43 -17q26 0 47 20t21 50z" />
    <glyph glyph-name="kn_ddha.vattu.2" horiz-adv-x="281" 
d="M584 -714q0 -38 -16.5 -68t-42.5 -51.5t-60 -33t-68 -11.5q-33 0 -64.5 9.5t-54.5 28.5q-22 -22 -50.5 -30t-67.5 -8q-42 0 -75.5 16t-57 42t-35.5 60.5t-12 71.5q0 64 24.5 117.5t66.5 92t98 59.5t119 21q47 0 90 -12.5t76 -36.5t53 -59t22 -80q55 -43 55 -128z
M465 -709v16t-2 13q-11 -5 -22 -6.5t-21 -1.5q-37 0 -64.5 21t-27.5 57q0 34 21.5 54.5t53.5 22.5q-9 11 -23 18t-29.5 11t-31.5 5.5t-29 1.5q-39 0 -74 -13.5t-61.5 -38t-41.5 -59t-15 -76.5q0 -38 15.5 -66.5t46.5 -28.5q22 0 40 17.5t18 44.5v28h118v-28q0 -28 18 -45
t43 -17q26 0 47 20t21 50zM343 -981q0 -22 -18.5 -38t-47.5 -16q-28 0 -46.5 17t-18.5 37q0 13 6 28t15 31.5t20.5 33.5t22.5 32q25 -32 46 -65.5t21 -59.5z" />
    <glyph glyph-name="kn_nna.vattu.2" horiz-adv-x="288" 
d="M606 -655q0 -44 -8.5 -84t-28 -71t-52 -49.5t-80.5 -18.5q-27 0 -50.5 9.5t-41 25.5t-27.5 37t-10 44q0 25 8.5 47t24.5 38.5t38 26.5t48 10q16 0 31 -2.5t29 -10.5q-1 22 -5.5 49.5t-14 51t-24.5 39.5t-37 16q-25 0 -42.5 -26t-21.5 -64h-115q-7 42 -26 66t-48 24
q-23 0 -39 -14t-16 -41q0 -20 10 -30.5t24 -10.5h55v-99h-55q-13 0 -23.5 -13t-10.5 -33q0 -18 9.5 -29.5t26.5 -11.5q7 0 16.5 3.5t19 10.5t18.5 18t15 26l77 -49q-14 -48 -55 -78t-91 -30q-30 0 -57.5 8.5t-49 25t-34.5 41.5t-13 57q0 34 14.5 60.5t37.5 43.5
q-24 16 -38 39.5t-14 58.5t14 62.5t37.5 46t55.5 28t68 9.5q40 0 72 -11t56 -38q23 24 56.5 36.5t65.5 12.5q54 0 92 -24.5t62.5 -62t35.5 -83t11 -87.5zM440 -796q4 0 11 1.5t14.5 6.5t14 15.5t8.5 27.5q-11 21 -25 25.5t-26 4.5q-13 0 -23 -11t-10 -28q0 -22 12.5 -32
t23.5 -10z" />
    <glyph glyph-name="kn_ta.vattu.2" horiz-adv-x="488" 
d="M385 -639q0 33 13.5 60.5t36.5 47.5t54 31t66 11t65.5 -12.5t53.5 -34t36 -50t13 -60.5q0 -33 -13 -61.5t-36 -49.5t-53.5 -33.5t-65.5 -12.5h-574v99h423q-10 16 -14.5 33t-4.5 32zM493 -646q0 -24 17.5 -41t42.5 -17t42.5 17t17.5 41t-17.5 41t-42.5 17t-42.5 -17
t-17.5 -41z" />
    <glyph glyph-name="kn_tha.vattu.2" horiz-adv-x="285" 
d="M340 -713q0 -26 16 -46t42 -20q29 0 48 25.5t19 70.5q0 40 -13.5 74t-37.5 59t-58 39t-75 14q-40 0 -73.5 -14t-58 -39t-38 -59t-13.5 -74q0 -45 18.5 -70.5t46.5 -25.5q26 0 42.5 20t16.5 46v31h118v-31zM233 -598q0 25 9.5 37.5t38.5 12.5t39.5 -12.5t10.5 -37.5
q0 -23 -10.5 -36t-39.5 -13t-38.5 13t-9.5 36zM398 -878q-78 0 -117 46q-39 -46 -118 -46q-45 0 -79 16.5t-57.5 43t-35 61t-11.5 70.5q0 63 22.5 116t62.5 91.5t95.5 60t121.5 21.5t121.5 -21.5t95.5 -60t62.5 -91.5t22.5 -116q0 -36 -12 -70.5t-35.5 -61t-58 -43
t-80.5 -16.5zM348 -981q0 -22 -18.5 -38t-47.5 -16q-28 0 -46.5 17t-18.5 37q0 13 6 28t15 31.5t20.5 33.5t22.5 32q25 -32 46 -65.5t21 -59.5z" />
    <glyph glyph-name="kn_da.vattu.2" horiz-adv-x="285" 
d="M340 -713q0 -26 16 -46t42 -20q29 0 48 25.5t19 70.5q0 40 -13.5 74t-37.5 59t-58 39t-75 14q-40 0 -73.5 -14t-58 -39t-38 -59t-13.5 -74q0 -45 18.5 -70.5t46.5 -25.5q26 0 42.5 20t16.5 46v31h118v-31zM398 -878q-78 0 -117 46q-39 -46 -118 -46q-45 0 -79 16.5
t-57.5 43t-35 61t-11.5 70.5q0 63 22.5 116t62.5 91.5t95.5 60t121.5 21.5t121.5 -21.5t95.5 -60t62.5 -91.5t22.5 -116q0 -36 -12 -70.5t-35.5 -61t-58 -43t-80.5 -16.5z" />
    <glyph glyph-name="kn_dha.vattu.2" horiz-adv-x="285" 
d="M340 -713q0 -26 16 -46t42 -20q29 0 48 25.5t19 70.5q0 40 -13.5 74t-37.5 59t-58 39t-75 14q-40 0 -73.5 -14t-58 -39t-38 -59t-13.5 -74q0 -45 18.5 -70.5t46.5 -25.5q26 0 42.5 20t16.5 46v31h118v-31zM398 -878q-78 0 -117 46q-39 -46 -118 -46q-45 0 -79 16.5
t-57.5 43t-35 61t-11.5 70.5q0 63 22.5 116t62.5 91.5t95.5 60t121.5 21.5t121.5 -21.5t95.5 -60t62.5 -91.5t22.5 -116q0 -36 -12 -70.5t-35.5 -61t-58 -43t-80.5 -16.5zM348 -981q0 -22 -18.5 -38t-47.5 -16q-28 0 -46.5 17t-18.5 37q0 13 6 28t15 31.5t20.5 33.5t22.5 32
q25 -32 46 -65.5t21 -59.5z" />
    <glyph glyph-name="kn_na.vattu.2" horiz-adv-x="270" 
d="M504 -983q-22 58 -45.5 120t-52.5 115q-42 -40 -97 -64.5t-123 -24.5q-42 0 -79.5 13.5t-65.5 37.5t-44.5 57.5t-16.5 73.5q0 43 17 77.5t46 58.5t66.5 37t78.5 13q64 0 115 -23t94 -65q23 57 34 123.5t11 131.5h119q0 -44 -6 -90.5t-16.5 -92.5t-26 -89.5t-34.5 -79.5
q24 -35 44 -73t36.5 -75.5t29 -72.5t22.5 -65zM185 -568q-36 0 -61 -20.5t-25 -62.5q0 -23 9 -39t23 -27t30.5 -16t31.5 -5q43 0 82 24.5t68 60.5q-32 39 -71 62t-87 23z" />
    <glyph glyph-name="kn_pa.vattu.2" horiz-adv-x="319" 
d="M452 -878q-48 0 -83.5 17t-57.5 46q-23 -32 -56.5 -47.5t-87.5 -15.5q-34 0 -67.5 10t-60 31.5t-43 55.5t-16.5 82q0 44 19.5 77t50.5 55t68.5 33t72.5 11l-12 -96q-11 -2 -25 -7t-26 -14.5t-20.5 -25t-8.5 -36.5q0 -20 6.5 -34.5t16.5 -24t22 -14t23 -4.5q23 0 38 11
t25 29t15 41t8 47h117q3 -60 28 -94t56 -34q29 0 51.5 26t22.5 86q0 52 -17 96t-42.5 80.5t-55.5 66t-57 51.5l79 73q35 -26 72.5 -65.5t68.5 -87.5t51 -102t20 -109q0 -100 -51.5 -157t-143.5 -57z" />
    <glyph glyph-name="kn_pha.vattu.2" horiz-adv-x="316" 
d="M452 -878q-48 0 -83.5 17t-57.5 46q-23 -32 -56.5 -47.5t-87.5 -15.5q-34 0 -67.5 10t-60 31.5t-43 55.5t-16.5 82q0 44 19.5 77t50.5 55t68.5 33t72.5 11l-12 -96q-11 -2 -25 -7t-26 -14.5t-20.5 -25t-8.5 -36.5q0 -20 6.5 -34.5t16.5 -24t22 -14t23 -4.5q23 0 38 11
t25 29t15 41t8 47h117q3 -60 28 -94t56 -34q29 0 51.5 26t22.5 86q0 52 -17 96t-42.5 80.5t-55.5 66t-57 51.5l79 73q35 -26 72.5 -65.5t68.5 -87.5t51 -102t20 -109q0 -100 -51.5 -157t-143.5 -57zM376 -981q0 -22 -18.5 -38t-47.5 -16q-28 0 -46.5 17t-18.5 37q0 13 6 28
t15 31.5t20.5 33.5t22.5 32q25 -32 46 -65.5t21 -59.5z" />
    <glyph glyph-name="kn_ba.vattu.2" horiz-adv-x="331" 
d="M470 -779q29 0 52.5 26t23.5 86q0 52 -17 96t-42.5 80.5t-55.5 66t-57 51.5l78 73q36 -26 73.5 -65.5t68 -87.5t50.5 -102t20 -109q0 -100 -50.5 -157t-141.5 -57q-50 0 -86.5 16.5t-59.5 46.5q-23 -31 -60 -47t-94 -16q-26 0 -59 6.5t-62.5 24t-50 46.5t-20.5 74
q0 36 17 58.5t42 37t54.5 24.5t54.5 20t42 24t17 37q0 24 -14 33.5t-31 9.5t-28.5 -8t-20 -20.5t-14 -27t-8.5 -27.5q-30 10 -54 20q-20 8 -36.5 16t-16.5 11q8 28 23 54t37 45t51 30.5t65 11.5q75 0 120.5 -38t45.5 -105q0 -37 -17 -60t-42.5 -37.5t-55 -24t-55 -19.5
t-42.5 -23t-17 -34q0 -17 7.5 -28t18.5 -18.5t24 -10.5t25 -3q38 0 64.5 26.5t30.5 86.5h117q4 -48 26 -80.5t60 -32.5z" />
    <glyph glyph-name="kn_bha.vattu.2" horiz-adv-x="330" 
d="M470 -779q29 0 52.5 26t23.5 86q0 52 -17 96t-42.5 80.5t-55.5 66t-57 51.5l78 73q36 -26 73.5 -65.5t68 -87.5t50.5 -102t20 -109q0 -100 -50.5 -157t-141.5 -57q-50 0 -87 21.5t-59 53.5q-22 -32 -59.5 -53.5t-94.5 -21.5q-26 0 -59 6.5t-62.5 24t-50 46.5t-20.5 74
q0 36 17 58.5t42 37t54.5 24.5t54.5 20t42 24t17 37q0 24 -14 33.5t-31 9.5t-28.5 -8t-20 -20.5t-14 -27t-8.5 -27.5q-30 10 -54 20q-20 8 -36.5 16t-16.5 11q8 28 23 54t37 45t51 30.5t65 11.5q75 0 120.5 -38t45.5 -105q0 -37 -17 -60t-42.5 -37.5t-55 -24t-55 -19.5
t-42.5 -23t-17 -34q0 -17 7.5 -28t18.5 -18.5t24 -10.5t25 -3q38 0 64.5 26.5t30.5 86.5h117q4 -48 26 -80.5t60 -32.5zM392 -981q0 -22 -18.5 -38t-47.5 -16q-28 0 -46.5 17t-18.5 37q0 13 6 28t15 31.5t20.5 33.5t22.5 32q25 -32 46 -65.5t21 -59.5z" />
    <glyph glyph-name="kn_ma.vattu.2" horiz-adv-x="267" 
d="M98 -595q0 -38 14 -71.5t39 -58.5t59.5 -39.5t75.5 -14.5q44 0 80 21.5t62 57.5t41.5 83.5t18.5 98.5l117 -37q-8 -62 -29.5 -120t-59.5 -103t-94.5 -72.5t-133.5 -27.5q-72 0 -129.5 22t-97 60.5t-60.5 90.5t-21 111q0 75 33 129.5t90 89.5l6 20t7 20q10 26 18 53t8 57
q0 29 -8.5 61.5t-15.5 48.5l112 46q12 -33 21.5 -66.5t9.5 -58.5q0 -42 -8.5 -74.5t-19.5 -61.5q7 1 14 1h15q45 0 83.5 -12.5t66 -35t43.5 -53t16 -67.5q0 -74 -50.5 -116t-135.5 -42q-26 0 -52.5 6.5t-51 19.5t-45 32.5t-33.5 46.5q-5 -22 -5 -45zM204 -462q0 -44 25 -69
t63 -25q10 0 20.5 4t19.5 11.5t14.5 19t5.5 26.5q0 31 -26 49.5t-64 18.5q-29 0 -57 -9q-1 -9 -1 -15v-11z" />
    <glyph glyph-name="kn_ya.vattu.2" horiz-adv-x="250" 
d="M273 -898q-39 0 -84.5 7.5t-84.5 26t-65 50.5t-26 81q0 26 10 46t25 35t34 26.5t37 20.5q22 11 41 25.5t19 43.5q0 23 -9.5 31t-19.5 8q-14 0 -24.5 -7.5t-18 -19t-12.5 -25.5t-8 -27q-30 11 -54 21q-20 8 -36.5 15.5t-16.5 11.5q16 57 60 93.5t110 36.5t106.5 -36.5
t40.5 -96.5q0 -30 -9.5 -51.5t-25 -37.5t-35 -27.5t-38.5 -21.5q-23 -12 -40.5 -25t-17.5 -38q0 -17 11.5 -29.5t31 -20.5t45 -12t54.5 -4q76 0 111.5 34.5t35.5 87.5q0 27 -8 54t-21.5 54.5t-30.5 55t-35 55.5q-19 30 -37.5 59.5t-32.5 59t-23 58t-9 55.5q0 42 15 74.5
t40 54.5t57.5 33.5t67.5 11.5q53 0 102.5 -28t83.5 -88l-92 -58q-28 42 -50 58t-43 16q-31 0 -47 -22.5t-16 -51.5q0 -45 26.5 -93.5t60.5 -100.5q20 -31 39.5 -62.5t35.5 -63.5t25.5 -64t9.5 -64q0 -42 -13.5 -82t-44.5 -72t-82 -51.5t-125 -19.5z" />
    <glyph glyph-name="kn_ra.vattu.2" horiz-adv-x="243" 
d="M204 -202q0 -134 -23.5 -231.5t-75 -160.5t-132.5 -93.5t-196 -30.5q-68 0 -133.5 13.5t-142.5 42.5l34 95q29 -11 61 -20t63.5 -16.5t61.5 -11.5t56 -4q105 0 166.5 34t93 90t40.5 128t9 149q0 37 -5 109.5t-22 180.5l116 37q5 -36 10 -78t9.5 -83.5t7 -80.5t2.5 -69z
" />
    <glyph glyph-name="kn_rra.vattu.2" horiz-adv-x="283" 
d="M290 -517q0 27 9.5 49t27 37.5t41 24t51.5 8.5q47 0 78 -25.5t49 -63t25.5 -79t7.5 -72.5q0 -40 -12 -82.5t-37 -77.5t-62 -57.5t-88 -22.5q-67 0 -101 43q-17 -20 -43 -31.5t-58 -11.5q-50 0 -87.5 22.5t-62 57.5t-36.5 77.5t-12 82.5q0 31 7.5 72.5t25.5 79t49 63
t78 25.5q56 0 92 -32.5t36 -86.5q0 -6 -6 -17.5t-13.5 -23.5t-15 -23t-10.5 -17h111q-3 6 -10.5 16.5t-15 22.5t-13 23.5t-5.5 18.5zM338 -711q0 -24 12 -46t34 -22q21 0 35.5 13.5t24 34t13.5 44.5t4 44q-11 -2 -21 -3.5t-18 -1.5h-285q-9 0 -18.5 1t-20.5 6q0 -21 4 -45
t13 -45t23.5 -34.5t35.5 -13.5q23 0 34.5 22t11.5 46v28h118v-28zM378 -517q0 -8 7 -17t16 -16.5t17.5 -13t11.5 -5.5q4 0 7.5 4.5t5.5 11t3.5 13t2.5 11.5q-2 12 -8.5 25.5t-17.5 13.5q-3 0 -10.5 -1.5t-15 -4.5t-13.5 -8t-6 -13zM170 -517q0 8 -4 13t-10 8t-11.5 4.5
t-8.5 1.5q-11 0 -18 -13t-9 -27l3 -9t5 -13t5.5 -12t5.5 -5t10 5.5t14 13t12.5 16.5t5.5 17z" />
    <glyph glyph-name="kn_la.vattu.2" horiz-adv-x="307" 
d="M243 -608v25q0 24 -7 40.5t-17.5 26.5t-23 14.5t-24.5 4.5t-25 -5t-23.5 -16.5t-17 -30t-6.5 -45.5q0 -49 25 -78.5t63 -48.5l-26 -92q-35 11 -67.5 30.5t-57.5 47t-40.5 63t-15.5 78.5q0 40 14 76t39.5 62.5t62 42t80.5 15.5q35 0 69.5 -17.5t57.5 -52.5q24 34 58 52
t69 18q44 0 80.5 -15.5t62 -42t39.5 -62.5t14 -76q0 -43 -15.5 -78.5t-40.5 -63t-58 -47t-67 -30.5l-26 91q37 19 63 49t26 79q0 27 -7 45.5t-17.5 30t-23.5 16.5t-25 5q-11 0 -24 -4.5t-24 -14.5t-18 -26.5t-7 -40.5v-25h-119z" />
    <glyph glyph-name="kn_lla.vattu.2" horiz-adv-x="294" 
d="M274 -517q0 -32 -18 -56t-47 -38l24 -4q11 -2 17 -2.5t15 -2.5l12 6q46 21 80.5 38t57.5 34t34.5 37t11.5 47q0 39 -17 75.5t-44 70t-59 63t-62 53.5l66 78q62 -47 106.5 -94.5t73 -92t41.5 -84t13 -69.5q0 -46 -16.5 -79t-42.5 -57t-59 -41.5t-66 -31.5q20 -17 32.5 -39
t12.5 -53q0 -24 -12 -46t-32 -38t-45 -25.5t-51 -9.5q-27 0 -52 8.5t-44.5 24.5t-31 37.5t-11.5 48.5q0 37 17 65q-37 7 -72.5 17.5t-63.5 28.5t-45 46t-17 70q0 33 12.5 58t33.5 42t48.5 25.5t57.5 8.5q33 0 59.5 -10.5t44.5 -27.5t28 -38t10 -43zM131 -480q-13 0 -28 -12
t-15 -41q12 -30 43 -30q12 0 21 4.5t14.5 10.5t8.5 12.5t3 10.5q0 17 -14 31t-33 14zM338 -754q0 14 -14 23t-30 14q-13 -6 -21.5 -16t-8.5 -21t9.5 -26t26.5 -15t27.5 13.5t10.5 27.5z" />
    <glyph glyph-name="kn_va.vattu.2" horiz-adv-x="307" 
d="M529 -668q0 29 -10 56.5t-26.5 50t-37.5 39.5t-43 25h-133v99h244q24 0 38 12.5t14 29.5q0 20 -17 32.5t-49 24.5l27 77q23 -7 50.5 -19.5t51.5 -30.5t40 -43t16 -57q0 -54 -33.5 -82.5t-81.5 -37.5q37 -45 53 -86t16 -86q0 -100 -51.5 -157t-142.5 -57q-47 0 -84.5 22.5
t-58.5 64.5q-21 -42 -55.5 -64.5t-88.5 -22.5q-33 0 -66.5 10t-60 31.5t-43 55.5t-16.5 82q0 44 19.5 77t50.5 55t68 33t73 11l-11 -96q-11 -2 -25.5 -7t-27 -14.5t-21 -25t-8.5 -36.5q0 -20 6.5 -34.5t16.5 -24t22 -14t23 -4.5q23 0 39 11t25.5 29t15 41t7.5 47h116
q4 -60 29.5 -94t55.5 -34q14 0 27.5 6t24 19.5t16.5 34.5t6 51z" />
    <glyph glyph-name="kn_sha.vattu.2" horiz-adv-x="254" 
d="M97 -729q0 -24 23 -37t52 -13q64 0 103 28t39 79q0 67 -47 117q-18 -26 -47 -48t-56.5 -42.5t-47 -41t-19.5 -42.5zM-20 -548q8 72 52.5 111t116.5 39q20 0 36.5 -2t34.5 -7q2 13 3.5 26.5t1.5 28.5q0 16 -0.5 30t-2 29t-4.5 32t-9 41l112 51q11 -57 16.5 -103.5
t5.5 -81.5q0 -26 -6.5 -53t-15.5 -51q47 -40 79 -97.5t32 -120.5q0 -45 -19 -82.5t-53 -64t-81 -41t-103 -14.5q-88 0 -142.5 38.5t-54.5 116.5q0 35 23 65.5t54 57.5t63.5 52t51.5 49q-5 6 -13 8.5t-13 2.5q-19 0 -37.5 -16.5t-23.5 -43.5h-104z" />
    <glyph glyph-name="kn_ssa.vattu.2" horiz-adv-x="316" 
d="M393 -299q34 -26 75 -62.5t78 -80.5t64 -93.5t33 -100.5l-2 3l93 -237l-100 -36l-45 79q-48 -51 -137 -51q-49 0 -84.5 16.5t-56.5 46.5q-22 -32 -56 -47.5t-88 -15.5q-34 0 -67 10t-59.5 31.5t-43 55.5t-16.5 82q0 44 19.5 77t50.5 55t68 33t73 11l-12 -96
q-11 -2 -25 -7t-26.5 -14.5t-21 -25t-8.5 -36.5q0 -20 6.5 -34.5t16.5 -24t22 -14t23 -4.5q23 0 38.5 11t25.5 29t15 41t8 47h116q3 -60 28.5 -94t56.5 -34q29 0 50.5 26t21.5 86q0 47 -22 91t-53.5 81.5t-67 68.5t-62.5 53z" />
    <glyph glyph-name="kn_sa.vattu.2" horiz-adv-x="322" 
d="M547 -271q48 -95 77 -187t29 -161q0 -63 -14.5 -111.5t-41 -81.5t-63.5 -49.5t-81 -16.5q-50 0 -82.5 28t-54 70.5t-36 92t-28.5 92t-31.5 70.5t-44.5 28q-30 0 -53.5 -27.5t-23.5 -94.5q0 -22 6 -49t16.5 -55.5t26 -56t35.5 -51.5l-82 -75q-20 23 -41.5 56.5t-39 72
t-29 79.5t-11.5 79q0 48 13.5 88.5t38.5 70t61.5 46t82.5 16.5q52 0 85.5 -28t55 -70.5t35.5 -92t28 -92t31 -70.5t45 -28q35 0 56.5 37t21.5 105q0 77 -26 156t-62 144z" />
    <glyph glyph-name="kn_ha.vattu.2" horiz-adv-x="346" 
d="M-19 -603q0 42 16.5 79.5t44.5 65t65.5 44t80.5 16.5q47 0 85 -16t65 -44q28 28 65.5 44t83.5 16q43 0 80.5 -16.5t66 -44t45 -65t16.5 -79.5t-16.5 -79.5t-45 -65.5t-66 -44t-80.5 -16q-46 0 -83.5 15.5t-65.5 44.5q-27 -29 -65 -44.5t-85 -15.5q-43 0 -80.5 16
t-65.5 44t-44.5 65.5t-16.5 79.5zM487 -497q-36 0 -62.5 -29.5t-28.5 -72.5v-4q0 -22 7 -41.5t19.5 -33.5t29 -22.5t35.5 -8.5q18 0 34.5 8.5t28.5 22.5t19 33.5t7 41.5t-7 41.5t-19 33.5t-28.5 22.5t-34.5 8.5zM99 -603q0 -22 7 -41.5t19.5 -33.5t28.5 -22.5t34 -8.5
q38 0 64 30.5t26 75.5t-26 75.5t-64 30.5q-18 0 -34 -8.5t-28.5 -22.5t-19.5 -33.5t-7 -41.5z" />
    <glyph glyph-name="kn_llla.vattu.2" horiz-adv-x="283" 
d="M338 -710q0 -24 12 -46t34 -22q21 0 35.5 13.5t24 34.5t13.5 45.5t4 45.5q-22 -8 -39 -8q-57 0 -94.5 32.5t-37.5 98.5q0 27 9.5 49t27 37.5t41 24t51.5 8.5q47 0 78 -25.5t49 -63t25.5 -79t7.5 -72.5q0 -40 -12 -82.5t-37 -77.5t-62 -57.5t-88 -22.5q-32 0 -59 16.5
t-42 43.5q-14 -27 -41.5 -43.5t-59.5 -16.5q-50 0 -87.5 22.5t-62 57.5t-36.5 77.5t-12 82.5q0 31 7.5 72.5t25.5 79t49 63t78 25.5q56 0 92 -32.5t36 -86.5q0 -66 -37.5 -98.5t-93.5 -32.5q-9 0 -18.5 1t-20.5 6q0 -21 4 -45t13 -45t23.5 -34.5t35.5 -13.5q23 0 34.5 22
t11.5 46v28h118v-28zM180 -521q0 16 -11 26t-23 10q-15 0 -28 -18.5t-15 -41.5q0 -6 9.5 -14.5t21.5 -8.5q3 0 11 1.5t15.5 6.5t13.5 14t6 25zM378 -521q0 -16 6 -25t13.5 -14t15.5 -6.5t11 -1.5q12 0 21.5 8.5t9.5 14.5q-2 23 -15 41.5t-28 18.5q-12 0 -23 -10t-11 -26z
" />
    <glyph glyph-name="kn_ka.nukta" horiz-adv-x="1226" 
d="M128 -210q0 -26 10 -48.5t26.5 -39t39 -26.5t48.5 -10q25 0 48 10t39.5 26.5t26.5 39t10 48.5q0 25 -10 48t-26.5 39.5t-39.5 26.5t-48 10q-26 0 -48.5 -10t-39 -26.5t-26.5 -39.5t-10 -48zM708 -210q0 -26 10 -48.5t26.5 -39t39 -26.5t48.5 -10q25 0 48 10t39.5 26.5
t26.5 39t10 48.5q0 25 -10 48t-26.5 39.5t-39.5 26.5t-48 10q-26 0 -48.5 -10t-39 -26.5t-26.5 -39.5t-10 -48zM49 872v170h732q69 0 106 32.5t37 83.5q0 16 -6 33.5t-15 34t-20.5 32t-23.5 26.5l119 114q67 -66 100 -130.5t33 -121.5q0 -54 -19 -103.5t-58.5 -87.5
t-102 -60.5t-149.5 -22.5h-126v-66h407v-111h-180q37 -21 70 -51.5t57.5 -67t38.5 -76.5t14 -80q0 -84 -40 -158t-108.5 -129t-161 -87t-197.5 -32t-197.5 32t-161.5 87t-108.5 129t-39.5 158q0 39 11 77.5t33 74.5t56 67.5t80 55.5h-180v111h408v66h-408zM248 420
q0 -49 24 -92t66 -75t98 -50.5t120 -18.5t120 18.5t98 50.5t66 75t24 92t-24 92t-66 75t-98 50.5t-120 18.5t-120 -18.5t-98 -50.5t-66 -75t-24 -92z" />
    <glyph glyph-name="kn_kha.nukta" horiz-adv-x="1633" 
d="M322 -210q0 -26 10 -48.5t26.5 -39t39 -26.5t48.5 -10q25 0 48 10t39.5 26.5t26.5 39t10 48.5q0 25 -10 48t-26.5 39.5t-39.5 26.5t-48 10q-26 0 -48.5 -10t-39 -26.5t-26.5 -39.5t-10 -48zM902 -210q0 -26 10 -48.5t26.5 -39t39 -26.5t48.5 -10q25 0 48 10t39.5 26.5
t26.5 39t10 48.5q0 25 -10 48t-26.5 39.5t-39.5 26.5t-48 10q-26 0 -48.5 -10t-39 -26.5t-26.5 -39.5t-10 -48zM375 14q-56 0 -112.5 14.5t-101.5 44.5t-73.5 75.5t-28.5 107.5q0 58 27 102.5t70.5 74.5t99 45.5t113.5 15.5q42 0 81.5 -9t77 -24.5t72.5 -36t70 -43.5
q23 45 35 95.5t12 98.5q0 68 -20 117.5t-60 96.5q-2 -63 -25 -107.5t-58.5 -72t-79 -40t-85.5 -12.5q-60 0 -110 18.5t-86 50.5t-56.5 75t-20.5 92q0 59 21.5 107t62 81.5t98.5 52t131 18.5q96 0 184 -36.5t155 -100t107 -149.5t40 -185q0 -90 -23 -167t-64 -143
q58 -38 110.5 -62.5t106.5 -24.5q70 0 120.5 32t82.5 83t47.5 113.5t15.5 123.5q0 33 -9 83t-41.5 107t-94.5 116.5t-167 112.5l89 143q73 -36 148 -91t135.5 -127t99 -161t38.5 -192q0 -107 -31.5 -200.5t-91 -163t-145.5 -109.5t-196 -40q-50 0 -93.5 11t-82.5 29
t-74.5 42t-69.5 50q-36 -31 -78 -55.5t-87 -41.5t-92 -26t-93 -9zM368 334q-52 0 -81.5 -21t-29.5 -55q0 -20 11.5 -34t28.5 -23t35.5 -13t33.5 -4q63 0 115.5 20.5t94.5 55.5q-48 32 -99 53t-109 21zM429 882q-29 0 -50.5 -8t-35.5 -21t-21 -29.5t-7 -33.5
q0 -32 20.5 -56.5t59.5 -24.5q50 0 80.5 39t30.5 103v9t-1 11q-39 11 -76 11z" />
    <glyph glyph-name="kn_ga.nukta" horiz-adv-x="1320" 
d="M145 -210q0 -26 10 -48.5t26.5 -39t39 -26.5t48.5 -10q25 0 48 10t39.5 26.5t26.5 39t10 48.5q0 25 -10 48t-26.5 39.5t-39.5 26.5t-48 10q-26 0 -48.5 -10t-39 -26.5t-26.5 -39.5t-10 -48zM725 -210q0 -26 10 -48.5t26.5 -39t39 -26.5t48.5 -10q25 0 48 10t39.5 26.5
t26.5 39t10 48.5q0 25 -10 48t-26.5 39.5t-39.5 26.5t-48 10q-26 0 -48.5 -10t-39 -26.5t-26.5 -39.5t-10 -48zM52 872v170h820q69 0 106.5 32.5t37.5 83.5q0 16 -6 33.5t-15 34t-21 32t-24 26.5l120 114q67 -66 100 -130.5t33 -121.5q0 -48 -15 -92.5t-46.5 -80.5
t-80.5 -61.5t-116 -34.5q71 -76 111.5 -173.5t40.5 -209.5q0 -107 -49 -230.5t-162 -259.5l-142 121q80 85 117.5 181t37.5 187q0 76 -21.5 145t-63 121t-102 82.5t-138.5 30.5t-138 -30.5t-101.5 -82.5t-63 -121t-21.5 -145q0 -91 37 -186.5t117 -180.5l-140 -123
q-113 137 -162.5 260.5t-49.5 231.5q0 109 40.5 205.5t107.5 171.5h-148z" />
    <glyph glyph-name="kn_gha.nukta" horiz-adv-x="1521" 
d="M245 -210q0 -26 10 -48.5t26.5 -39t39 -26.5t48.5 -10q25 0 48 10t39.5 26.5t26.5 39t10 48.5q0 25 -10 48t-26.5 39.5t-39.5 26.5t-48 10q-26 0 -48.5 -10t-39 -26.5t-26.5 -39.5t-10 -48zM825 -210q0 -26 10 -48.5t26.5 -39t39 -26.5t48.5 -10q25 0 48 10t39.5 26.5
t26.5 39t10 48.5q0 25 -10 48t-26.5 39.5t-39.5 26.5t-48 10q-26 0 -48.5 -10t-39 -26.5t-26.5 -39.5t-10 -48zM1041 768q17 -12 33 -27t31 -28.5t30.5 -23t32.5 -9.5q23 0 41.5 16.5t18.5 49.5q0 21 -9.5 40t-23.5 35t-29 28.5t-27 20.5l104 124q69 -48 113 -107t44 -124
q0 -73 -43.5 -125t-113.5 -75q24 -43 39.5 -91t15.5 -101q0 -81 -27 -146.5t-73 -112.5t-107 -72.5t-130 -25.5q-112 0 -184.5 43t-117.5 115q-45 -80 -113.5 -119t-156.5 -39q-60 0 -119 18.5t-106.5 57.5t-77 100t-29.5 147q0 77 33.5 133t86 92.5t116 54t124.5 17.5
l-20 -166q-20 -2 -44.5 -10t-46 -23.5t-36.5 -41t-15 -62.5q0 -38 12 -65.5t31.5 -45.5t44 -27t48.5 -9q41 0 71.5 19.5t51.5 51.5t32.5 72t15.5 82h196q3 -52 19.5 -93.5t41 -71t54 -45t59.5 -15.5q35 0 66 12t53.5 36t35.5 60t13 84q0 42 -16.5 79t-42 69t-56.5 58.5
t-59 47.5zM57 872v170h867q74 0 109 33t35 83q0 32 -19.5 62.5t-44.5 49.5l100 124q39 -29 67 -61t47 -64t28 -63.5t9 -59.5q0 -54 -19 -103.5t-59 -87.5t-102.5 -60.5t-149.5 -22.5h-868zM767 -146q0 -21 -6.5 -41t-20 -35t-33.5 -24.5t-48 -9.5q-27 0 -47 9.5t-33.5 25.5
t-20 35.5t-6.5 39.5q0 55 31.5 110t75.5 115q48 -62 78 -114.5t30 -110.5zM518 648q0 26 11 49t30 40t45 27t55 10t55 -10t45.5 -27t30.5 -40t11 -49t-11 -48.5t-30.5 -39.5t-45.5 -27t-55 -10t-55 10t-45 27t-30 39.5t-11 48.5z" />
    <glyph glyph-name="kn_nga.nukta" horiz-adv-x="1403" 
d="M269 -210q0 -26 10 -48.5t26.5 -39t39 -26.5t48.5 -10q25 0 48 10t39.5 26.5t26.5 39t10 48.5q0 25 -10 48t-26.5 39.5t-39.5 26.5t-48 10q-26 0 -48.5 -10t-39 -26.5t-26.5 -39.5t-10 -48zM849 -210q0 -26 10 -48.5t26.5 -39t39 -26.5t48.5 -10q25 0 48 10t39.5 26.5
t26.5 39t10 48.5q0 25 -10 48t-26.5 39.5t-39.5 26.5t-48 10q-26 0 -48.5 -10t-39 -26.5t-26.5 -39.5t-10 -48zM394 14q-54 0 -114 15t-110.5 51t-83 95t-32.5 146q0 62 31.5 110t79 87t103 71.5t103 64t79 64.5t31.5 74q0 22 -9 37t-23.5 24.5t-31.5 14t-33 4.5
q-31 0 -54.5 -14t-41 -36t-28.5 -47.5t-17 -48.5l-181 81q14 49 41 93.5t66.5 78t92 53.5t118.5 20q81 0 142.5 -25.5t99.5 -73.5q48 42 109.5 70.5t139.5 28.5q65 0 116.5 -17.5t87 -47.5t54 -69t18.5 -82q0 -15 -4.5 -35t-12.5 -42t-19 -43t-25 -38l-144 68q20 39 20 64
q0 20 -9 34.5t-23.5 23.5t-32 13.5t-35.5 4.5t-40.5 -5t-47 -18.5t-49.5 -37t-47 -59.5q-4 -60 -37 -106t-80.5 -83t-101.5 -68.5t-100 -61.5t-76.5 -62.5t-30.5 -72.5q0 -32 12.5 -56t32.5 -40t45.5 -24t51.5 -8q40 0 73.5 15.5t58 45t40 71t18.5 93.5h195q4 -42 14 -82
t29 -72t48.5 -51.5t72.5 -19.5q24 0 49.5 9t46 27t34 45.5t13.5 65.5q0 37 -15 62.5t-36.5 41t-46.5 23.5t-44 10l-20 166q61 0 124.5 -17.5t116 -54t86 -92.5t33.5 -133q0 -86 -29.5 -147t-77 -100t-106.5 -57.5t-119 -18.5q-44 0 -82 11t-70.5 31.5t-61.5 48.5t-55 62
q-52 -79 -125 -116t-164 -37zM674 583q0 -42 30.5 -70.5t75.5 -28.5t75.5 28.5t30.5 70.5t-30.5 71t-75.5 29t-75.5 -29t-30.5 -71z" />
    <glyph glyph-name="kn_ca.nukta" horiz-adv-x="1470" 
d="M269 -210q0 -26 10 -48.5t26.5 -39t39 -26.5t48.5 -10q25 0 48 10t39.5 26.5t26.5 39t10 48.5q0 25 -10 48t-26.5 39.5t-39.5 26.5t-48 10q-26 0 -48.5 -10t-39 -26.5t-26.5 -39.5t-10 -48zM849 -210q0 -26 10 -48.5t26.5 -39t39 -26.5t48.5 -10q25 0 48 10t39.5 26.5
t26.5 39t10 48.5q0 25 -10 48t-26.5 39.5t-39.5 26.5t-48 10q-26 0 -48.5 -10t-39 -26.5t-26.5 -39.5t-10 -48zM1286 800q0 -38 -26 -69.5t-59 -50.5h106v-169h-104q37 -43 60 -89.5t23 -112.5q0 -70 -27.5 -125t-74 -92.5t-107 -57.5t-127.5 -20q-44 0 -85 13t-75.5 34
t-62 48.5t-43.5 57.5q-20 -31 -44.5 -58.5t-58 -48.5t-77 -33.5t-101.5 -12.5q-54 0 -115.5 14.5t-113 49.5t-85.5 93.5t-34 145.5q0 69 31.5 118.5t79 87t103 67t103 59t79 63.5t31.5 80q0 22 -9 37t-23 24.5t-31 14t-33 4.5q-31 0 -55 -14t-41 -36t-28.5 -47.5
t-16.5 -48.5l-181 81q14 49 41 93.5t66.5 78t92 53.5t117.5 20q68 0 124 -18.5t95.5 -53t61.5 -85t22 -114.5q0 -50 -18.5 -89.5t-48.5 -71.5t-69 -58.5t-79 -49.5t-79 -44.5t-69 -44.5t-48.5 -48t-18.5 -56q0 -38 14.5 -64t36 -42t46 -22.5t44.5 -6.5q40 0 74 15.5t58.5 45
t39.5 71t18 93.5h196q4 -42 16.5 -82t34 -72t53 -51.5t72.5 -19.5q25 0 50 9t45.5 27t33 45.5t12.5 64.5q0 39 -12.5 70t-30 54t-37 37.5t-33.5 19.5h-220v169h261q8 3 20 10t23.5 20t20 30.5t8.5 41.5q0 23 -9 39t-21 26.5t-24.5 16.5t-20.5 8h-258v170h279q22 1 43 10
t38 24t27.5 36t10.5 46q0 32 -20 62.5t-44 49.5l100 124q39 -29 67 -61t47 -64t28 -63.5t9 -59.5q0 -62 -38 -121.5t-107 -100.5q41 -27 61 -59t20 -65z" />
    <glyph glyph-name="kn_cha.nukta" horiz-adv-x="1648" 
d="M398 -210q0 -26 10 -48.5t26.5 -39t39 -26.5t48.5 -10q25 0 48 10t39.5 26.5t26.5 39t10 48.5q0 25 -10 48t-26.5 39.5t-39.5 26.5t-48 10q-26 0 -48.5 -10t-39 -26.5t-26.5 -39.5t-10 -48zM978 -210q0 -26 10 -48.5t26.5 -39t39 -26.5t48.5 -10q25 0 48 10t39.5 26.5
t26.5 39t10 48.5q0 25 -10 48t-26.5 39.5t-39.5 26.5t-48 10q-26 0 -48.5 -10t-39 -26.5t-26.5 -39.5t-10 -48zM1523 475q0 -109 -29.5 -194.5t-83.5 -145t-130 -90.5t-169 -31q-44 0 -84.5 9t-77.5 29.5t-71.5 53.5t-65.5 80q-32 -50 -68.5 -83t-74 -52.5t-76 -28
t-75.5 -8.5q-80 0 -162 29t-148 89t-107.5 152.5t-41.5 219.5q0 114 31 214t83.5 174.5t121.5 117t146 42.5q67 0 115 -26.5t78.5 -66t44.5 -85.5t14 -85q0 -50 -17 -98t-49 -85.5t-78 -60.5t-104 -23q-54 0 -100 27.5t-72 80.5q-5 -15 -8 -33t-4.5 -35.5t-2 -33t-0.5 -24.5
q0 -87 24.5 -147.5t62 -99t82 -56t84.5 -17.5t77.5 21.5t66 54.5t45.5 72.5t17 76.5h198q0 -45 17.5 -85.5t45.5 -71.5t62.5 -49.5t68.5 -18.5q55 0 96 24.5t67 65t39 93t13 108.5q0 52 -19.5 116.5t-59.5 123.5t-101 102.5t-145 54.5h-75v170h269q74 0 109 33t35 83
q0 32 -20 62.5t-44 49.5l100 124q39 -29 67 -61t47 -64t28 -63.5t9 -59.5q0 -39 -13 -77.5t-38 -72t-61.5 -60.5t-82.5 -42q54 -44 91 -98.5t60 -111t33 -111t10 -98.5zM420 691q17 0 31 10.5t23.5 25.5t15 32t5.5 30q0 18 -5 36t-14.5 32t-23 22.5t-29.5 8.5
q-23 0 -48.5 -29.5t-48.5 -74.5q19 -53 46 -73t48 -20zM920 -146q0 -21 -6.5 -41t-20 -35t-33.5 -24.5t-48 -9.5q-27 0 -47 9.5t-33.5 25.5t-20 35.5t-6.5 39.5q0 55 31.5 110t75.5 115q48 -62 78 -114.5t30 -110.5z" />
    <glyph glyph-name="kn_ja.nukta" horiz-adv-x="1403" 
d="M269 -210q0 -26 10 -48.5t26.5 -39t39 -26.5t48.5 -10q25 0 48 10t39.5 26.5t26.5 39t10 48.5q0 25 -10 48t-26.5 39.5t-39.5 26.5t-48 10q-26 0 -48.5 -10t-39 -26.5t-26.5 -39.5t-10 -48zM849 -210q0 -26 10 -48.5t26.5 -39t39 -26.5t48.5 -10q25 0 48 10t39.5 26.5
t26.5 39t10 48.5q0 25 -10 48t-26.5 39.5t-39.5 26.5t-48 10q-26 0 -48.5 -10t-39 -26.5t-26.5 -39.5t-10 -48zM394 14q-54 0 -114 15t-110.5 51t-83 95t-32.5 146q0 62 31.5 110t79 87t103 71.5t103 64t79 64.5t31.5 74q0 22 -9 37t-23.5 24.5t-31.5 14t-33 4.5
q-31 0 -54.5 -14t-41 -36t-28.5 -47.5t-17 -48.5l-90 40q-17 8 -33 15t-29 13q-15 7 -29 13q14 49 41 93.5t66.5 78t92 53.5t118.5 20q106 0 179.5 -43.5t102.5 -124.5q48 -38 101.5 -61.5t105.5 -23.5q30 0 50 18t20 46q0 17 -11 37t-26 35l142 81q42 -39 67.5 -83.5
t25.5 -92.5q0 -39 -20 -72t-54.5 -57t-79.5 -38t-96 -14q-56 0 -110 17t-106 47q-15 -51 -51.5 -91t-83 -73.5t-97 -62t-92 -57t-68.5 -59.5t-27 -68q0 -32 12.5 -56t32.5 -40t45.5 -24t51.5 -8q40 0 73.5 15.5t58 45t40 71t18.5 93.5h195q4 -42 14 -82t29 -72t48.5 -51.5
t72.5 -19.5q24 0 49.5 9t46 27t34 45.5t13.5 65.5q0 37 -15 62.5t-36.5 41t-46.5 23.5t-44 10l-20 166q61 0 124.5 -17.5t116 -54t86 -92.5t33.5 -133q0 -86 -29.5 -147t-77 -100t-106.5 -57.5t-119 -18.5q-44 0 -82 11t-70.5 31.5t-61.5 48.5t-55 62q-52 -79 -125 -116
t-164 -37z" />
    <glyph glyph-name="kn_jha.nukta" horiz-adv-x="2404" 
d="M212 -210q0 -26 10 -48.5t26.5 -39t39 -26.5t48.5 -10q25 0 48 10t39.5 26.5t26.5 39t10 48.5q0 25 -10 48t-26.5 39.5t-39.5 26.5t-48 10q-26 0 -48.5 -10t-39 -26.5t-26.5 -39.5t-10 -48zM792 -210q0 -26 10 -48.5t26.5 -39t39 -26.5t48.5 -10q25 0 48 10t39.5 26.5
t26.5 39t10 48.5q0 25 -10 48t-26.5 39.5t-39.5 26.5t-48 10q-26 0 -48.5 -10t-39 -26.5t-26.5 -39.5t-10 -48zM77 528q0 99 38 187t105 157h-143v170h781q74 0 109 33t35 83q0 32 -20 62.5t-44 49.5l100 124q39 -29 67 -61t47 -64t28 -63.5t9 -59.5q0 -39 -11 -77
t-33 -70.5t-56 -59t-80 -43.5q78 -72 123 -166t45 -202q0 -55 -14.5 -111t-37.5 -106q13 -26 31.5 -49t40.5 -40.5t45 -27.5t45 -10q55 0 95.5 24.5t67 65t39 93t12.5 108.5q0 53 -14 111t-50 117.5t-99.5 120t-162.5 118.5l89 143q131 -68 215.5 -147.5t133.5 -160.5
t68 -159t19 -143q0 -77 -17 -147q10 -30 28 -56.5t40.5 -46t48 -30.5t49.5 -11q55 0 96 24.5t67 65t39 93t13 108.5q0 53 -14 111t-50 117.5t-99.5 120t-162.5 118.5l88 143q131 -68 215.5 -147.5t133.5 -160.5t68 -159t19 -143q0 -109 -29.5 -194.5t-84 -145t-130.5 -90.5
t-169 -31q-77 0 -146.5 34.5t-117.5 89.5q-53 -58 -128.5 -91t-169.5 -33q-41 0 -81 10t-76.5 29t-68 44.5t-55.5 57.5q-73 -65 -170 -103t-209 -38q-76 0 -146 18.5t-131 52t-111.5 80t-86.5 104t-55.5 123t-19.5 136.5zM276 526q0 -81 30.5 -144.5t80 -107.5t112 -67
t127.5 -23q64 0 127 24.5t112.5 69.5t80 108t30.5 140q0 75 -31 138.5t-80.5 109t-112 71.5t-126.5 26q-63 0 -126 -26t-112.5 -71.5t-80.5 -109t-31 -138.5zM1693 -146q0 -21 -6.5 -41t-20 -35t-33.5 -24.5t-48 -9.5q-27 0 -47 9.5t-33.5 25.5t-20 35.5t-6.5 39.5
q0 55 31.5 110t75.5 115q48 -62 78 -114.5t30 -110.5z" />
    <glyph glyph-name="kn_nya.nukta" horiz-adv-x="2136" 
d="M464 -210q0 -26 10 -48.5t26.5 -39t39 -26.5t48.5 -10q25 0 48 10t39.5 26.5t26.5 39t10 48.5q0 25 -10 48t-26.5 39.5t-39.5 26.5t-48 10q-26 0 -48.5 -10t-39 -26.5t-26.5 -39.5t-10 -48zM844 -210q0 -26 10 -48.5t26.5 -39t39 -26.5t48.5 -10q25 0 48 10t39.5 26.5
t26.5 39t10 48.5q0 25 -10 48t-26.5 39.5t-39.5 26.5t-48 10q-26 0 -48.5 -10t-39 -26.5t-26.5 -39.5t-10 -48zM1654 882q-18 0 -37.5 -4t-41.5 -15t-46.5 -30.5t-52.5 -49.5q7 -27 10 -56t3 -58q0 -100 -43.5 -207.5t-124.5 -202.5q15 -34 23.5 -70t8.5 -74t-11 -80.5
t-30 -85t-46 -82.5t-58 -73l-154 101q21 25 40.5 52t35 54t24.5 54t9 53v9.5t1 0.5q0 2 -0.5 3t-0.5 3q-35 -24 -72.5 -44t-80 -35t-90.5 -23t-105 -8q-77 0 -139 19.5t-105 53t-66 79t-23 98.5q0 50 18 89t47 68t66 48.5t76 31.5t76 17.5t66 5.5q109 0 204 -31t166 -87
q40 56 64.5 125t24.5 149q0 46 -13 83.5t-36.5 63t-55.5 39.5t-70 14q-49 0 -88 -28.5t-69 -73t-51 -99t-33 -106.5h-188q-8 44 -28.5 97.5t-54.5 100.5t-80.5 79t-105.5 32q-35 0 -62 -14.5t-46.5 -37.5t-29.5 -52t-10 -59q0 -60 35.5 -106.5t107.5 -92.5l-109 -147
q-117 77 -174.5 161.5t-57.5 184.5q0 77 28.5 138.5t76.5 105t110.5 66.5t130.5 23q67 0 122.5 -16.5t100.5 -44.5t79 -65.5t59 -79.5q25 42 60 79.5t78.5 65.5t94.5 44.5t107 16.5q85 0 154 -29.5t117 -81.5q54 48 119 79.5t145 31.5q68 0 130.5 -23t110.5 -66.5t77 -105
t29 -138.5q0 -100 -57.5 -184.5t-173.5 -161.5l-110 147q72 46 107.5 92.5t35.5 106.5q0 30 -10 59t-29 52t-46.5 37.5t-62.5 14.5zM828 184q62 0 125.5 28.5t126.5 75.5q-30 21 -63.5 34t-66.5 20.5t-63.5 10t-52.5 2.5q-24 0 -51 -6.5t-49 -18.5t-36.5 -28.5t-14.5 -37.5
q0 -19 13.5 -33.5t35 -25t47 -16t49.5 -5.5z" />
    <glyph glyph-name="kn_tta.nukta" horiz-adv-x="1472" 
d="M290 -210q0 -26 10 -48.5t26.5 -39t39 -26.5t48.5 -10q25 0 48 10t39.5 26.5t26.5 39t10 48.5q0 25 -10 48t-26.5 39.5t-39.5 26.5t-48 10q-26 0 -48.5 -10t-39 -26.5t-26.5 -39.5t-10 -48zM870 -210q0 -26 10 -48.5t26.5 -39t39 -26.5t48.5 -10q25 0 48 10t39.5 26.5
t26.5 39t10 48.5q0 25 -10 48t-26.5 39.5t-39.5 26.5t-48 10q-26 0 -48.5 -10t-39 -26.5t-26.5 -39.5t-10 -48zM804 409q0 -45 14.5 -86t39.5 -72t58 -49t71 -18q32 0 62 12t53 33.5t37 52.5t14 70q0 56 -30 98.5t-74 72.5t-93.5 49.5t-87.5 29.5l40 145q21 1 46.5 5.5
t48 13.5t38 24.5t15.5 38.5q0 20 -13.5 34t-34.5 22.5t-46 12t-48 3.5v151q58 0 118.5 -13.5t109.5 -41.5t80.5 -69.5t31.5 -97.5q0 -59 -25.5 -99.5t-67.5 -65.5q94 -46 142.5 -125t48.5 -191q0 -64 -25 -124.5t-72 -107t-115 -75t-153 -28.5q-99 0 -168.5 37t-114.5 95
q-45 -58 -115 -95t-169 -37q-86 0 -153.5 28.5t-114.5 75t-72 107t-25 124.5q0 112 48.5 191t142.5 125q-42 25 -67.5 65.5t-25.5 99.5q0 56 31.5 97.5t80.5 69.5t109.5 41.5t118.5 13.5v-151q-23 0 -48 -3.5t-46 -12t-34.5 -22.5t-13.5 -34q0 -23 15.5 -38.5t38 -24.5
t48.5 -13.5t47 -5.5l39 -145q-38 -10 -87.5 -29.5t-93.5 -49.5t-74 -72.5t-30 -98.5q0 -39 14 -70t37 -52.5t53 -33.5t62 -12q37 0 70.5 18t59 49t40 72t14.5 86h200z" />
    <glyph glyph-name="kn_ttha.nukta" horiz-adv-x="1369" 
d="M187 -210q0 -26 10 -48.5t26.5 -39t39 -26.5t48.5 -10q25 0 48 10t39.5 26.5t26.5 39t10 48.5q0 25 -10 48t-26.5 39.5t-39.5 26.5t-48 10q-26 0 -48.5 -10t-39 -26.5t-26.5 -39.5t-10 -48zM767 -210q0 -26 10 -48.5t26.5 -39t39 -26.5t48.5 -10q25 0 48 10t39.5 26.5
t26.5 39t10 48.5q0 25 -10 48t-26.5 39.5t-39.5 26.5t-48 10q-26 0 -48.5 -10t-39 -26.5t-26.5 -39.5t-10 -48zM53 872v170h868q74 0 108.5 33t34.5 83q0 32 -19.5 62.5t-43.5 49.5l100 124q39 -29 67 -61t46.5 -64t27.5 -63.5t9 -59.5q0 -48 -15 -93t-46.5 -81.5
t-80.5 -61.5t-118 -34q36 -33 65.5 -72t51.5 -83.5t34 -93t12 -101.5q0 -115 -44.5 -209.5t-120 -161.5t-175.5 -104t-211 -37q-110 0 -209.5 37t-175 104t-120.5 161.5t-45 209.5q0 108 45 194.5t114 151.5h-159zM253 526q0 -81 30.5 -144.5t80 -107.5t112 -67t127.5 -23
q64 0 127 24.5t112.5 69.5t80 108t30.5 140q0 75 -31 138.5t-80.5 109t-112 71.5t-126.5 26t-126.5 -26t-112 -71.5t-80.5 -109t-31 -138.5zM461 541q0 26 11 50.5t30 43t45 30t55 11.5t55 -11.5t45.5 -30t30.5 -43t11 -50.5t-11 -50.5t-30.5 -43.5t-45.5 -30.5t-55 -11.5
t-55 11.5t-45 30.5t-30 43.5t-11 50.5z" />
    <glyph glyph-name="kn_dda.nukta" horiz-adv-x="1487" 
d="M275 -210q0 -26 10 -48.5t26.5 -39t39 -26.5t48.5 -10q25 0 48 10t39.5 26.5t26.5 39t10 48.5q0 25 -10 48t-26.5 39.5t-39.5 26.5t-48 10q-26 0 -48.5 -10t-39 -26.5t-26.5 -39.5t-10 -48zM855 -210q0 -26 10 -48.5t26.5 -39t39 -26.5t48.5 -10q25 0 48 10t39.5 26.5
t26.5 39t10 48.5q0 25 -10 48t-26.5 39.5t-39.5 26.5t-48 10q-26 0 -48.5 -10t-39 -26.5t-26.5 -39.5t-10 -48zM691 872q-79 0 -157 -25.5t-140.5 -79.5t-101 -137t-38.5 -197q0 -48 10.5 -93t32.5 -79.5t56 -55.5t81 -21q38 0 66.5 20t48 49.5t31 63t15.5 60.5h194
q3 -35 15 -69t32 -62t48 -45t64 -17q33 0 63 13t52.5 34.5t36 50.5t13.5 61q0 33 -6.5 60t-16.5 47q-46 -38 -120 -38q-35 0 -64.5 10.5t-51.5 30t-34 46.5t-12 60q0 27 11.5 52.5t32.5 45.5t51.5 32.5t69.5 14.5q-13 42 -44 73.5t-71 52.5t-84 31.5t-83 10.5zM56 872v170
h979q75 0 109.5 32.5t34.5 83.5q0 32 -19.5 62.5t-44.5 49.5l101 124q77 -58 113.5 -124.5t36.5 -123.5q0 -51 -16.5 -97.5t-51 -83t-88 -61t-128.5 -30.5q40 -45 62.5 -98t22.5 -113v-15t-1 -11q64 -53 99.5 -131.5t35.5 -161.5q0 -77 -30.5 -138.5t-81 -104t-115.5 -65
t-134 -22.5q-33 0 -67.5 8t-67.5 23t-63 36.5t-53 48.5q-47 -58 -113.5 -87t-141.5 -29q-104 0 -176 40t-117 102t-65 137.5t-20 147.5q0 133 50.5 241.5t140.5 189.5h-191z" />
    <glyph glyph-name="kn_ddha.nukta" horiz-adv-x="1487" 
d="M275 -210q0 -26 10 -48.5t26.5 -39t39 -26.5t48.5 -10q25 0 48 10t39.5 26.5t26.5 39t10 48.5q0 25 -10 48t-26.5 39.5t-39.5 26.5t-48 10q-26 0 -48.5 -10t-39 -26.5t-26.5 -39.5t-10 -48zM855 -210q0 -26 10 -48.5t26.5 -39t39 -26.5t48.5 -10q25 0 48 10t39.5 26.5
t26.5 39t10 48.5q0 25 -10 48t-26.5 39.5t-39.5 26.5t-48 10q-26 0 -48.5 -10t-39 -26.5t-26.5 -39.5t-10 -48zM691 872q-79 0 -157 -25.5t-140.5 -79.5t-101 -137t-38.5 -197q0 -48 10.5 -93t32.5 -79.5t56 -55.5t81 -21q38 0 66.5 20t48 49.5t31 63t15.5 60.5h194
q3 -35 15 -69t32 -62t48 -45t64 -17q33 0 63 13t52.5 34.5t36 50.5t13.5 61q0 33 -6.5 60t-16.5 47q-46 -38 -120 -38q-35 0 -64.5 10.5t-51.5 30t-34 46.5t-12 60q0 27 11.5 52.5t32.5 45.5t51.5 32.5t69.5 14.5q-13 42 -44 73.5t-71 52.5t-84 31.5t-83 10.5zM56 872v170
h979q75 0 109.5 32.5t34.5 83.5q0 32 -19.5 62.5t-44.5 49.5l101 124q77 -58 113.5 -124.5t36.5 -123.5q0 -51 -16.5 -97.5t-51 -83t-88 -61t-128.5 -30.5q40 -45 62.5 -98t22.5 -113v-15t-1 -11q64 -53 99.5 -131.5t35.5 -161.5q0 -77 -30.5 -138.5t-81 -104t-115.5 -65
t-134 -22.5q-33 0 -67.5 8t-67.5 23t-63 36.5t-53 48.5q-47 -58 -113.5 -87t-141.5 -29q-104 0 -176 40t-117 102t-65 137.5t-20 147.5q0 133 50.5 241.5t140.5 189.5h-191zM797 -146q0 -21 -6.5 -41t-20 -35t-33.5 -24.5t-48 -9.5q-27 0 -47 9.5t-33.5 25.5t-20 35.5
t-6.5 39.5q0 55 31.5 110t75.5 115q48 -62 78 -114.5t30 -110.5z" />
    <glyph glyph-name="kn_nna.nukta" horiz-adv-x="1483" 
d="M284 -210q0 -26 10 -48.5t26.5 -39t39 -26.5t48.5 -10q25 0 48 10t39.5 26.5t26.5 39t10 48.5q0 25 -10 48t-26.5 39.5t-39.5 26.5t-48 10q-26 0 -48.5 -10t-39 -26.5t-26.5 -39.5t-10 -48zM864 -210q0 -26 10 -48.5t26.5 -39t39 -26.5t48.5 -10q25 0 48 10t39.5 26.5
t26.5 39t10 48.5q0 25 -10 48t-26.5 39.5t-39.5 26.5t-48 10q-26 0 -48.5 -10t-39 -26.5t-26.5 -39.5t-10 -48zM959 882q-32 0 -60 -21.5t-49.5 -56.5t-36 -79.5t-19.5 -90.5h-190q-11 57 -29 102.5t-43.5 78t-59 50t-75.5 17.5q-18 0 -43 -6t-47 -21t-37.5 -41t-15.5 -66
q0 -33 18.5 -57t45.5 -39.5t58 -23t56 -7.5v-170q-32 0 -63.5 -9.5t-57 -27t-41.5 -42t-16 -53.5q0 -65 37.5 -100t93.5 -35q22 0 47 11t50.5 29t50.5 41.5t46 47.5l105 -151q-21 -25 -49 -51t-65 -47.5t-82.5 -35.5t-100.5 -14q-88 0 -151 27t-103 69.5t-59 95.5t-19 105
q0 25 6.5 55.5t21.5 60.5t38.5 58t58.5 49q-65 38 -95 96t-30 117q0 63 24.5 118.5t70 97t109.5 65.5t143 24q57 0 103 -12t82 -31.5t63 -45t46 -53.5q21 31 49 57t62 45t72 29.5t79 10.5q78 0 151 -29.5t129.5 -97.5t90 -178t33.5 -272q0 -119 -22.5 -206t-65 -143.5
t-103 -84t-136.5 -27.5q-63 0 -112 23t-82.5 60.5t-50.5 85t-17 96.5q0 55 18 104.5t51.5 86.5t81.5 58.5t108 21.5q19 0 39 -6.5t37 -17t31 -24t23 -26.5q1 13 1.5 25.5t0.5 24.5q0 94 -21 161.5t-52 110.5t-66.5 63.5t-65.5 20.5zM1045 380q-18 0 -32 -8.5t-23.5 -22.5
t-15 -31.5t-5.5 -35.5q0 -42 19.5 -70t53.5 -28q33 0 60 26t42 77q-9 31 -21 49.5t-25.5 28t-27.5 12.5t-25 3z" />
    <glyph glyph-name="kn_ta.nukta" horiz-adv-x="1414" 
d="M290 -210q0 -26 10 -48.5t26.5 -39t39 -26.5t48.5 -10q25 0 48 10t39.5 26.5t26.5 39t10 48.5q0 25 -10 48t-26.5 39.5t-39.5 26.5t-48 10q-26 0 -48.5 -10t-39 -26.5t-26.5 -39.5t-10 -48zM870 -210q0 -26 10 -48.5t26.5 -39t39 -26.5t48.5 -10q25 0 48 10t39.5 26.5
t26.5 39t10 48.5q0 25 -10 48t-26.5 39.5t-39.5 26.5t-48 10q-26 0 -48.5 -10t-39 -26.5t-26.5 -39.5t-10 -48zM757 661q-25 0 -56.5 -4.5t-59 -16t-46 -30t-18.5 -46.5q0 -35 32.5 -57t92.5 -22q32 0 56 13.5t40.5 37t24.5 54.5t8 66q-18 2 -36.5 3.5t-37.5 1.5zM54 872
v170h910q74 0 109 33t35 83q0 32 -20 62.5t-44 49.5l100 124q39 -29 67 -61t47 -64t28 -63.5t9 -59.5q0 -54 -19 -103.5t-59 -87.5t-102.5 -60.5t-149.5 -22.5h-29q17 -18 32.5 -41t26.5 -49q59 -21 111 -53.5t90.5 -74.5t61 -94.5t22.5 -114.5q0 -105 -49 -185.5t-130 -135
t-185 -82.5t-214 -28q-73 0 -149 11.5t-148 36t-136 64.5t-111.5 96.5t-75.5 132t-28 171.5q0 63 21 128.5t63 137.5l176 -78q-62 -103 -62 -207q0 -87 40 -148.5t104.5 -100t145 -56.5t160.5 -18t149.5 19.5t120.5 54.5t80.5 84t29.5 108q0 40 -15.5 72t-42.5 58
q-12 -58 -42.5 -105t-74 -80.5t-96.5 -51.5t-109 -18q-62 0 -119 16.5t-100.5 46.5t-69 72.5t-25.5 94.5q0 62 28.5 111t78.5 82.5t117.5 52t145.5 20.5q-16 15 -33.5 27.5t-35.5 23.5h-635z" />
    <glyph glyph-name="kn_tha.nukta" horiz-adv-x="1593" 
d="M316 -210q0 -26 10 -48.5t26.5 -39t39 -26.5t48.5 -10q25 0 48 10t39.5 26.5t26.5 39t10 48.5q0 25 -10 48t-26.5 39.5t-39.5 26.5t-48 10q-26 0 -48.5 -10t-39 -26.5t-26.5 -39.5t-10 -48zM896 -210q0 -26 10 -48.5t26.5 -39t39 -26.5t48.5 -10q25 0 48 10t39.5 26.5
t26.5 39t10 48.5q0 25 -10 48t-26.5 39.5t-39.5 26.5t-48 10q-26 0 -48.5 -10t-39 -26.5t-26.5 -39.5t-10 -48zM825 376q8 -26 24 -59.5t39 -63t53 -49.5t68 -20q41 0 76.5 18t61.5 53.5t41 88.5t15 123q0 68 -21 124.5t-56.5 101.5t-82.5 78.5t-99.5 56t-107.5 33.5
t-106 11t-106 -11t-107.5 -33.5t-100 -56t-83 -78.5t-56.5 -101.5t-21 -124.5q0 -70 15 -123t41.5 -88.5t61.5 -53.5t76 -18q38 0 68.5 20t53.5 49.5t38.5 63t23.5 59.5h191zM596 581q0 26 9.5 48.5t26.5 39.5t41.5 27t53.5 10t53.5 -10t42 -27t27 -39.5t9.5 -48.5t-9.5 -49
t-27 -40t-42 -27t-53.5 -10t-53.5 10t-41.5 27t-26.5 40t-9.5 49zM58 872v170h1081q74 0 109 33t35 83q0 32 -20 62.5t-44 49.5l100 124q39 -29 67 -61t46.5 -64t27.5 -63.5t9 -59.5q0 -50 -15.5 -95.5t-48.5 -82.5t-84.5 -61.5t-123.5 -31.5q95 -78 150 -182t55 -227
q0 -99 -28.5 -182t-80 -143t-124.5 -93.5t-161 -33.5q-34 0 -69 6t-70 22.5t-70 46.5t-69 78q-33 -48 -68.5 -78t-71 -46.5t-70.5 -22.5t-69 -6q-89 0 -161 33.5t-124 93.5t-80 143t-28 182q0 122 53.5 225.5t146.5 180.5h-200zM838 -146q0 -21 -6.5 -41t-20 -35
t-33.5 -24.5t-48 -9.5q-27 0 -47 9.5t-33.5 25.5t-20 35.5t-6.5 39.5q0 55 31.5 110t75.5 115q48 -62 78 -114.5t30 -110.5z" />
    <glyph glyph-name="kn_da.nukta" horiz-adv-x="1593" 
d="M316 -210q0 -26 10 -48.5t26.5 -39t39 -26.5t48.5 -10q25 0 48 10t39.5 26.5t26.5 39t10 48.5q0 25 -10 48t-26.5 39.5t-39.5 26.5t-48 10q-26 0 -48.5 -10t-39 -26.5t-26.5 -39.5t-10 -48zM896 -210q0 -26 10 -48.5t26.5 -39t39 -26.5t48.5 -10q25 0 48 10t39.5 26.5
t26.5 39t10 48.5q0 25 -10 48t-26.5 39.5t-39.5 26.5t-48 10q-26 0 -48.5 -10t-39 -26.5t-26.5 -39.5t-10 -48zM825 376q8 -26 24 -59.5t39 -63t53 -49.5t68 -20q41 0 76.5 18t61.5 53.5t41 88.5t15 123q0 68 -21 124.5t-56.5 101.5t-82.5 78.5t-99.5 56t-107.5 33.5
t-106 11t-106 -11t-107.5 -33.5t-100 -56t-83 -78.5t-56.5 -101.5t-21 -124.5q0 -70 15 -123t41.5 -88.5t61.5 -53.5t76 -18q38 0 68.5 20t53.5 49.5t38.5 63t23.5 59.5h191zM58 872v170h1081q74 0 109 33t35 83q0 32 -20 62.5t-44 49.5l100 124q39 -29 67 -61t46.5 -64
t27.5 -63.5t9 -59.5q0 -50 -15.5 -95.5t-48.5 -82.5t-84.5 -61.5t-123.5 -31.5q95 -78 150 -182t55 -227q0 -99 -28.5 -182t-80 -143t-124.5 -93.5t-161 -33.5q-34 0 -69 6t-70 22.5t-70 46.5t-69 78q-33 -48 -68.5 -78t-71 -46.5t-70.5 -22.5t-69 -6q-89 0 -161 33.5
t-124 93.5t-80 143t-28 182q0 122 53.5 225.5t146.5 180.5h-200z" />
    <glyph glyph-name="kn_dha.nukta" horiz-adv-x="1593" 
d="M316 -210q0 -26 10 -48.5t26.5 -39t39 -26.5t48.5 -10q25 0 48 10t39.5 26.5t26.5 39t10 48.5q0 25 -10 48t-26.5 39.5t-39.5 26.5t-48 10q-26 0 -48.5 -10t-39 -26.5t-26.5 -39.5t-10 -48zM896 -210q0 -26 10 -48.5t26.5 -39t39 -26.5t48.5 -10q25 0 48 10t39.5 26.5
t26.5 39t10 48.5q0 25 -10 48t-26.5 39.5t-39.5 26.5t-48 10q-26 0 -48.5 -10t-39 -26.5t-26.5 -39.5t-10 -48zM825 376q8 -26 24 -59.5t39 -63t53 -49.5t68 -20q41 0 76.5 18t61.5 53.5t41 88.5t15 123q0 68 -21 124.5t-56.5 101.5t-82.5 78.5t-99.5 56t-107.5 33.5
t-106 11t-106 -11t-107.5 -33.5t-100 -56t-83 -78.5t-56.5 -101.5t-21 -124.5q0 -70 15 -123t41.5 -88.5t61.5 -53.5t76 -18q38 0 68.5 20t53.5 49.5t38.5 63t23.5 59.5h191zM58 872v170h1081q74 0 109 33t35 83q0 32 -20 62.5t-44 49.5l100 124q39 -29 67 -61t46.5 -64
t27.5 -63.5t9 -59.5q0 -50 -15.5 -95.5t-48.5 -82.5t-84.5 -61.5t-123.5 -31.5q95 -78 150 -182t55 -227q0 -99 -28.5 -182t-80 -143t-124.5 -93.5t-161 -33.5q-34 0 -69 6t-70 22.5t-70 46.5t-69 78q-33 -48 -68.5 -78t-71 -46.5t-70.5 -22.5t-69 -6q-89 0 -161 33.5
t-124 93.5t-80 143t-28 182q0 122 53.5 225.5t146.5 180.5h-200zM838 -146q0 -21 -6.5 -41t-20 -35t-33.5 -24.5t-48 -9.5q-27 0 -47 9.5t-33.5 25.5t-20 35.5t-6.5 39.5q0 55 31.5 110t75.5 115q48 -62 78 -114.5t30 -110.5z" />
    <glyph glyph-name="kn_na.nukta" horiz-adv-x="1398" 
d="M288 -210q0 -26 10 -48.5t26.5 -39t39 -26.5t48.5 -10q25 0 48 10t39.5 26.5t26.5 39t10 48.5q0 25 -10 48t-26.5 39.5t-39.5 26.5t-48 10q-26 0 -48.5 -10t-39 -26.5t-26.5 -39.5t-10 -48zM868 -210q0 -26 10 -48.5t26.5 -39t39 -26.5t48.5 -10q25 0 48 10t39.5 26.5
t26.5 39t10 48.5q0 25 -10 48t-26.5 39.5t-39.5 26.5t-48 10q-26 0 -48.5 -10t-39 -26.5t-26.5 -39.5t-10 -48zM1278 475q0 -109 -29 -194.5t-81.5 -145t-126.5 -90.5t-163 -31q-60 0 -106 19t-82 49.5t-64 70t-52 80t-46 80t-46.5 70t-53 49.5t-65.5 19q-16 0 -35.5 -5.5
t-36 -18t-28 -34t-11.5 -53.5t15 -58.5t40.5 -46t59 -30.5t69.5 -11l-42 -170q-66 0 -127.5 22.5t-109 63.5t-76 99.5t-28.5 130.5t25.5 124.5t69 87.5t100.5 52t120 17q77 0 133 -32.5t98 -81t74.5 -105t63.5 -105t64 -81t76 -32.5q49 0 87 24.5t64 65t39 93t13 108.5
q0 52 -19.5 116.5t-59.5 123.5t-101 102.5t-145 54.5h-702v170h896q74 0 108.5 33t34.5 83q0 32 -19.5 62.5t-43.5 49.5l100 124q39 -29 67 -61t46.5 -64t27.5 -63.5t9 -59.5q0 -39 -13 -77.5t-37.5 -72t-61 -60.5t-82.5 -42q54 -44 91 -98.5t59.5 -111t32.5 -111t10 -98.5z
" />
    <glyph glyph-name="kn_pa.nukta" horiz-adv-x="1414" 
d="M242 -210q0 -26 10 -48.5t26.5 -39t39 -26.5t48.5 -10q25 0 48 10t39.5 26.5t26.5 39t10 48.5q0 25 -10 48t-26.5 39.5t-39.5 26.5t-48 10q-26 0 -48.5 -10t-39 -26.5t-26.5 -39.5t-10 -48zM822 -210q0 -26 10 -48.5t26.5 -39t39 -26.5t48.5 -10q25 0 48 10t39.5 26.5
t26.5 39t10 48.5q0 25 -10 48t-26.5 39.5t-39.5 26.5t-48 10q-26 0 -48.5 -10t-39 -26.5t-26.5 -39.5t-10 -48zM1040 772q41 -35 86 -77.5t82.5 -92.5t62 -108t24.5 -123q0 -81 -26 -146.5t-74 -112.5t-117 -72.5t-154 -25.5q-86 0 -156 41t-112 107q-45 -69 -114 -108.5
t-157 -39.5q-59 0 -118.5 18.5t-106.5 57.5t-76.5 100t-29.5 147q0 77 33.5 133t86 92.5t116 54t124.5 17.5l-20 -166q-20 -2 -44.5 -10t-46 -23.5t-36.5 -41t-15 -62.5q0 -38 12 -65.5t31.5 -45.5t43.5 -27t48 -9q41 0 71.5 19.5t51.5 51.5t33 72t16 82h195q3 -52 20 -93.5
t41.5 -71t54 -45t59.5 -15.5q35 0 65.5 12t53 36t35.5 60t13 84q0 42 -16.5 79t-42 69t-56 58.5t-58.5 47.5zM54 872v170h867q74 0 109 33t35 83q0 32 -19.5 62.5t-44.5 49.5l100 124q39 -29 67 -61t47 -64t28 -63.5t9 -59.5q0 -54 -19 -103.5t-59 -87.5t-102.5 -60.5
t-149.5 -22.5h-868zM525 648q0 26 9.5 49t26.5 40t41.5 27t53.5 10t53.5 -10t42 -27t27 -40t9.5 -49t-9.5 -48.5t-27 -39.5t-42 -27t-53.5 -10t-53.5 10t-41.5 27t-26.5 39.5t-9.5 48.5z" />
    <glyph glyph-name="kn_pha.nukta" horiz-adv-x="1414" 
d="M242 -210q0 -26 10 -48.5t26.5 -39t39 -26.5t48.5 -10q25 0 48 10t39.5 26.5t26.5 39t10 48.5q0 25 -10 48t-26.5 39.5t-39.5 26.5t-48 10q-26 0 -48.5 -10t-39 -26.5t-26.5 -39.5t-10 -48zM822 -210q0 -26 10 -48.5t26.5 -39t39 -26.5t48.5 -10q25 0 48 10t39.5 26.5
t26.5 39t10 48.5q0 25 -10 48t-26.5 39.5t-39.5 26.5t-48 10q-26 0 -48.5 -10t-39 -26.5t-26.5 -39.5t-10 -48zM1040 772q41 -35 86 -77.5t82.5 -92.5t62 -108t24.5 -123q0 -81 -26 -146.5t-74 -112.5t-117 -72.5t-154 -25.5q-86 0 -156 41t-112 107q-45 -69 -114 -108.5
t-157 -39.5q-59 0 -118.5 18.5t-106.5 57.5t-76.5 100t-29.5 147q0 77 33.5 133t86 92.5t116 54t124.5 17.5l-20 -166q-20 -2 -44.5 -10t-46 -23.5t-36.5 -41t-15 -62.5q0 -38 12 -65.5t31.5 -45.5t43.5 -27t48 -9q41 0 71.5 19.5t51.5 51.5t33 72t16 82h195q3 -52 20 -93.5
t41.5 -71t54 -45t59.5 -15.5q35 0 65.5 12t53 36t35.5 60t13 84q0 42 -16.5 79t-42 69t-56 58.5t-58.5 47.5zM54 872v170h867q74 0 109 33t35 83q0 32 -19.5 62.5t-44.5 49.5l100 124q39 -29 67 -61t47 -64t28 -63.5t9 -59.5q0 -54 -19 -103.5t-59 -87.5t-102.5 -60.5
t-149.5 -22.5h-868zM525 648q0 26 9.5 49t26.5 40t41.5 27t53.5 10t53.5 -10t42 -27t27 -40t9.5 -49t-9.5 -48.5t-27 -39.5t-42 -27t-53.5 -10t-53.5 10t-41.5 27t-26.5 39.5t-9.5 48.5zM764 -146q0 -21 -6.5 -41t-20 -35t-33.5 -24.5t-48 -9.5q-27 0 -47 9.5t-33.5 25.5
t-20 35.5t-6.5 39.5q0 55 31.5 110t75.5 115q48 -62 78 -114.5t30 -110.5z" />
    <glyph glyph-name="kn_ba.nukta" horiz-adv-x="1487" 
d="M271 -210q0 -26 10 -48.5t26.5 -39t39 -26.5t48.5 -10q25 0 48 10t39.5 26.5t26.5 39t10 48.5q0 25 -10 48t-26.5 39.5t-39.5 26.5t-48 10q-26 0 -48.5 -10t-39 -26.5t-26.5 -39.5t-10 -48zM851 -210q0 -26 10 -48.5t26.5 -39t39 -26.5t48.5 -10q25 0 48 10t39.5 26.5
t26.5 39t10 48.5q0 25 -10 48t-26.5 39.5t-39.5 26.5t-48 10q-26 0 -48.5 -10t-39 -26.5t-26.5 -39.5t-10 -48zM951 184q55 0 96 24.5t67.5 65t39.5 93t13 108.5q0 53 -14 111t-50 117.5t-99.5 120t-162.5 118.5l89 143q130 -68 214.5 -147.5t133.5 -160.5t68 -159t19 -143
q0 -109 -29.5 -194.5t-83.5 -145t-130 -90.5t-169 -31q-44 0 -82 11t-70.5 31.5t-61.5 48.5t-55 62q-52 -79 -125 -116t-164 -37q-54 0 -114 15t-110.5 51t-83 95t-32.5 146q0 62 31.5 110t79 87t103 71.5t103 64t79 64.5t31.5 74q0 22 -9 37t-23.5 24.5t-31.5 14t-33 4.5
q-31 0 -54.5 -14t-41 -36t-28.5 -47.5t-17 -48.5l-181 81q14 49 41 93.5t66.5 78t92 53.5t118.5 20q68 0 123.5 -18.5t94.5 -53.5t60 -85.5t21 -114.5q0 -63 -31.5 -111t-79 -86.5t-103 -70.5t-103 -63t-79 -64t-31.5 -73q0 -32 12.5 -56t32.5 -40t45.5 -24t51.5 -8
q40 0 73.5 15.5t58 45t40 71t18.5 93.5h195q4 -42 15 -82t31.5 -72t51 -51.5t73.5 -19.5z" />
    </font>
</defs>
</svg>
