<svg id="Layer_1" data-name="Layer 1" xmlns="http://www.w3.org/2000/svg" xmlns:xlink="http://www.w3.org/1999/xlink" viewBox="0 0 488 117"><defs><style>.cls-1{fill:none;}.cls-2{clip-path:url(#clip-path);}.cls-3{fill:#0da54d;}.cls-13,.cls-14,.cls-17,.cls-4,.cls-8{fill:#fff;}.cls-5{fill:#ffde9d;}.cls-6{fill:#e92829;}.cls-7{fill:#fffffd;}.cls-8{font-size:12.66px;}.cls-13,.cls-8{font-family:MyriadPro-Semibold, Myriad Pro;font-weight:700;}.cls-9{letter-spacing:0.01em;}.cls-10{letter-spacing:-0.06em;}.cls-11{letter-spacing:-0.01em;}.cls-12{letter-spacing:-0.08em;}.cls-13{font-size:18.78px;}.cls-14,.cls-17{font-size:8.51px;font-family:MyriadPro-Regular, Myriad Pro;}.cls-14{letter-spacing:0.18em;}.cls-15{letter-spacing:0.01em;}.cls-16{letter-spacing:-0.06em;}.cls-17{letter-spacing:0.18em;}.cls-18{letter-spacing:-0.01em;}.cls-19{letter-spacing:-0.08em;}</style><clipPath id="clip-path"><rect class="cls-1" x="689.36" y="155.35" width="1199.52" height="180.13"/></clipPath></defs><title>awards_icns</title><g class="cls-2"><image width="8000" height="4500" transform="translate(482.32 71.72) scale(0.2)" xlink:href="../../../../Volumes/MADStudios/Projects/Website/Website-Redo/assets/ThinkstockPhotos-477546542-edit-v3.jpg"/></g><path d="M275.87,54.94a17,17,0,0,0-2.59,4.3c-.06.15-.11.3-.18.45a2.84,2.84,0,0,0,.24,3,16.39,16.39,0,0,1-11.13,24.63A16.08,16.08,0,0,1,246.87,82l-.39-.44-3.62,5.06-3.63-5.07c-.16.15-.25.22-.33.31a16.25,16.25,0,0,1-12.32,5.77,16.44,16.44,0,0,1-16.51-14.23,16.17,16.17,0,0,1,2.79-11.59.92.92,0,0,0,.08-.86,15.84,15.84,0,0,0-2.8-5.54l-.36-.47h10.05a1.22,1.22,0,0,0,.63-.15,35.8,35.8,0,0,1,12.15-4.88,46,46,0,0,1,23.28.81,34.1,34.1,0,0,1,8.65,4,1.56,1.56,0,0,0,.8.23c3.37,0,6.73,0,10.1,0ZM213.15,71.13a13.23,13.23,0,1,0,13.27-13.21A13.24,13.24,0,0,0,213.15,71.13Zm59.37,0A13.24,13.24,0,1,0,259.3,84.37,13.25,13.25,0,0,0,272.52,71.14ZM226.86,54.52c9.11,1.08,14.44,6.1,16,14.72,1.48-8.46,6.68-13.46,15.7-14.65A43.4,43.4,0,0,0,226.86,54.52Z"/><path class="cls-3" d="M242.16,102V95.8h2.23v16.37c-.56,0-1.16,0-1.76,0-.07,0-.16-.21-.18-.33-.06-.36-.08-.72-.13-1.15a1.28,1.28,0,0,0-.22.18,4.43,4.43,0,0,1-7.15-.46c-1.53-2.27-1.39-6.77,1.17-8.72a4.5,4.5,0,0,1,5.71.12Zm.08,4.5h-.08c0-.37,0-.74,0-1.1a2.89,2.89,0,0,0-2.14-2.75,2.77,2.77,0,0,0-3.15,1.36,5.11,5.11,0,0,0-.06,5,2.56,2.56,0,0,0,2.61,1.44,2.69,2.69,0,0,0,2.52-2A11.82,11.82,0,0,0,242.24,106.54Z"/><path class="cls-4" d="M214.21,111.18v5.54h-2.32V101h2l.1,1.43c.07,0,.11,0,.12,0,2.78-3,7-2,8.13,1.87a7.22,7.22,0,0,1-.62,5.85,4.73,4.73,0,0,1-6.26,1.87A10.8,10.8,0,0,1,214.21,111.18Zm-.09-4.48h.09c0,.3,0,.61,0,.91a2.94,2.94,0,0,0,2.09,2.81,2.78,2.78,0,0,0,3.26-1.32,5.07,5.07,0,0,0,.07-4.93,2.58,2.58,0,0,0-2.72-1.5,2.72,2.72,0,0,0-2.46,2A14.12,14.12,0,0,0,214.12,106.7Z"/><path class="cls-3" d="M224.86,103.27l-.52-1.5c.46-.21.91-.46,1.38-.61a7.48,7.48,0,0,1,3.69-.29,3.75,3.75,0,0,1,3.15,3.66c.06,1.62,0,3.24,0,4.86,0,.89.09,1.79.14,2.76-.61,0-1.21,0-1.81,0-.08,0-.19-.19-.22-.31s-.11-.55-.17-.89a3.53,3.53,0,0,0-.3.24,4.34,4.34,0,0,1-4.09,1.13,3,3,0,0,1-2.51-2.47,3.32,3.32,0,0,1,1.27-3.46,7.14,7.14,0,0,1,3.72-1.27A13.09,13.09,0,0,1,230,105c.34,0,.41-.16.39-.45a2.19,2.19,0,0,0-2.14-2.12,5.55,5.55,0,0,0-3.14.7Zm5.56,4.48c0-.26,0-.51,0-.77s-.1-.44-.41-.41a10.67,10.67,0,0,0-1.66.15,6.51,6.51,0,0,0-1.84.73,1.73,1.73,0,0,0-.66,1.88,1.42,1.42,0,0,0,1.1,1.26,3.55,3.55,0,0,0,1.5,0C229.82,110.28,230.42,109.36,230.42,107.75Z"/><path class="cls-3" d="M281.68,106.4a5.73,5.73,0,0,1-1.92,4.74,5.32,5.32,0,0,1-5.46.91A4.88,4.88,0,0,1,271,108a6.08,6.08,0,0,1,1.49-5.62,5.26,5.26,0,0,1,5.86-1.2,5,5,0,0,1,3.29,4.71C281.67,106.07,281.67,106.29,281.68,106.4Zm-8.6.21a4.54,4.54,0,0,0,.84,2.89,2.79,2.79,0,0,0,4.41.31,5.12,5.12,0,0,0,0-6.48,2.89,2.89,0,0,0-4.38.26A4.67,4.67,0,0,0,273.08,106.6Z"/><path class="cls-3" d="M268.68,103.1a5,5,0,0,0-2.63-.67,1.47,1.47,0,0,0-1.54,1.49,1.2,1.2,0,0,0,.65,1.05c.48.26,1,.45,1.48.68a12.7,12.7,0,0,1,1.55.75,3.07,3.07,0,0,1-.06,5.27,4.64,4.64,0,0,1-1.69.62,7,7,0,0,1-4-.5c-.29-.13-.39-.27-.27-.59s.27-.84.37-1.17c.89.23,1.72.51,2.57.65a3.16,3.16,0,0,0,1.36-.15,1.33,1.33,0,0,0,1-1.22,1.43,1.43,0,0,0-.74-1.45c-.43-.24-.9-.41-1.35-.62a14.16,14.16,0,0,1-1.47-.69,2.92,2.92,0,0,1-.28-5,5.38,5.38,0,0,1,5.61-.07Z"/><path class="cls-4" d="M190.87,101h1.67V99l2.28-.68c0,.71,0,1.36,0,2s0,.7.69.7h2.23v1.8h-1.79c-1.13,0-1.13,0-1.13,1.13,0,1.59,0,3.18,0,4.76s.55,1.95,2.14,1.77l.57-.09c0,.53.08,1,.08,1.54a.44.44,0,0,1-.27.3,5,5,0,0,1-2.7.11,2.72,2.72,0,0,1-2-2.45,9.81,9.81,0,0,1-.11-1.58c0-1.64,0-3.27,0-4.91v-.57h-1.69Z"/><path class="cls-3" d="M250.91,112.11l-5.56-11.06c.81,0,1.52,0,2.24,0,.12,0,.28.19.35.33.91,1.87,1.81,3.74,2.71,5.62l.25.5c.42-.9.79-1.7,1.18-2.5.57-1.18,1.15-2.36,1.7-3.55a.63.63,0,0,1,.7-.42c.59,0,1.18,0,1.89,0Z"/><path class="cls-4" d="M205.62,100.8v2.11c-.31,0-.61,0-.91,0a2.72,2.72,0,0,0-2.52,2.58c-.08.83-.06,1.66-.06,2.49,0,1.38,0,2.75,0,4.17H199.8V101c.56,0,1.18,0,1.79,0,.07,0,.18.19.2.3.05.44.07.89.09,1.23a17.6,17.6,0,0,1,1.6-1.41A2.71,2.71,0,0,1,205.62,100.8Z"/><path class="cls-3" d="M285.74,102.82c.4-.48.67-.86,1-1.18a3.12,3.12,0,0,1,2.31-.88c.33,0,.5.11.48.48,0,.54,0,1.08,0,1.62a7.73,7.73,0,0,0-1,0,2.77,2.77,0,0,0-2.45,2.4,10,10,0,0,0-.1,1.48c0,1.78,0,3.55,0,5.37h-2.24c0-.19,0-.37,0-.56,0-3.37,0-6.73,0-10.1,0-.32.09-.44.41-.42a10.15,10.15,0,0,0,1.11,0c.37,0,.47.15.47.49S285.72,102.31,285.74,102.82Z"/><path class="cls-4" d="M207.71,101h2.24v11.13h-2.24Z"/><path class="cls-3" d="M259.78,112.16c-.66,0-1.25,0-1.84,0-.11,0-.23-.18-.31-.3s0-.19,0-.28c0-3.3,0-6.6,0-9.9,0-.49.13-.67.62-.61a5.9,5.9,0,0,0,1.1,0c.38,0,.49.12.49.49,0,1.86,0,3.72,0,5.58q0,2.26,0,4.52C259.81,111.79,259.79,111.94,259.78,112.16Z"/><path class="cls-4" d="M207.37,97.75a1.37,1.37,0,0,1,1.41-1.44,1.39,1.39,0,0,1,1.49,1.41,1.41,1.41,0,0,1-1.47,1.45A1.39,1.39,0,0,1,207.37,97.75Z"/><path class="cls-3" d="M260.1,97.71a1.28,1.28,0,0,1-1.4,1.4,1.27,1.27,0,0,1-1.37-1.38,1.32,1.32,0,0,1,1.35-1.37A1.34,1.34,0,0,1,260.1,97.71Z"/><path d="M281.89,56.59a2,2,0,0,1-4,0,2,2,0,1,1,4,0Zm-.38,0a1.6,1.6,0,1,0-3.21,0,1.64,1.64,0,0,0,1.6,1.6A1.63,1.63,0,0,0,281.51,56.56Z"/><path class="cls-4" d="M213.15,71.13a13.23,13.23,0,1,1,13.24,13.25A13.24,13.24,0,0,1,213.15,71.13Zm21,0a8,8,0,1,0-8.24,8A8,8,0,0,0,234.19,71.12Z"/><path class="cls-4" d="M272.52,71.14A13.24,13.24,0,1,1,259.2,57.92,13.29,13.29,0,0,1,272.52,71.14Zm-5.26-.09a8,8,0,1,0-8,8A8,8,0,0,0,267.26,71.05Z"/><path class="cls-5" d="M226.86,54.52a43.4,43.4,0,0,1,31.67.07c-9,1.19-14.22,6.2-15.7,14.65C241.3,60.62,236,55.6,226.86,54.52Z"/><path d="M234.19,71.12a8,8,0,1,1-7.81-8A8,8,0,0,1,234.19,71.12Zm-8,5.48a5.5,5.5,0,1,0-5.49-5.5A5.52,5.52,0,0,0,226.16,76.6Z"/><path d="M267.26,71.05a8,8,0,1,1-8-8A8,8,0,0,1,267.26,71.05Zm-13.5,0a5.52,5.52,0,1,0,5.51-5.51A5.52,5.52,0,0,0,253.75,71Z"/><path d="M279,55.41h.75c.34,0,.7,0,.86.37a.67.67,0,0,1-.37.88l.45.88c-.81.26-.68-.59-1.13-.85l-.06.85c-.36.13-.52,0-.5-.35C279.06,56.62,279,56,279,55.41Zm.55,1a2.52,2.52,0,0,0,.52-.21.32.32,0,0,0,0-.29,2.33,2.33,0,0,0-.51-.16Z"/><path class="cls-3" d="M295.35,101.92a2,2,0,0,1-4,0,2,2,0,1,1,4,0Zm-.38,0a1.6,1.6,0,1,0-3.21,0,1.64,1.64,0,0,0,1.6,1.6A1.63,1.63,0,0,0,295,101.89Z"/><path class="cls-3" d="M292.5,100.74h.75c.34,0,.7,0,.86.37a.67.67,0,0,1-.37.88l.45.88c-.81.26-.68-.59-1.13-.85l-.06.85c-.36.13-.52,0-.5-.35C292.52,102,292.5,101.38,292.5,100.74Zm.55,1a2.52,2.52,0,0,0,.52-.21.32.32,0,0,0,0-.29,2.33,2.33,0,0,0-.51-.16Z"/><path class="cls-4" d="M226.16,76.6a5.5,5.5,0,1,1,5.56-5.5A5.49,5.49,0,0,1,226.16,76.6Zm2.28-5.5a2.67,2.67,0,1,0-2.64,2.67A2.68,2.68,0,0,0,228.44,71.1Z"/><path class="cls-4" d="M253.75,71a5.52,5.52,0,1,1,5.47,5.54A5.54,5.54,0,0,1,253.75,71Zm5.13,2.64a2.63,2.63,0,1,0-2.67-2.63A2.63,2.63,0,0,0,258.88,73.69Z"/><path class="cls-6" d="M228.44,71.1a2.67,2.67,0,0,1-5.35,0,2.67,2.67,0,1,1,5.35,0Z"/><path class="cls-3" d="M258.88,73.69a2.63,2.63,0,1,1,2.63-2.63A2.62,2.62,0,0,1,258.88,73.69Z"/><path class="cls-4" d="M208.51,84.48c-6.15-2.46-12.35-4.83-18.45-7.42a7.06,7.06,0,0,1-4.4-7.1c.31-3,2.78-4.46,5.54-3.22a4.92,4.92,0,0,1,1.42.89q8.24,8.06,16.44,16.17Z"/><path class="cls-4" d="M276,83.72Q284.1,76,292.17,68.38a7.42,7.42,0,0,1,3.25-2c3-.79,5.42,2.21,4.46,5.72a6.72,6.72,0,0,1-3.46,4.44c-6.39,3.09-13.14,5.31-19.69,8Z"/><path class="cls-4" d="M290.83,53.15q0-8,0-16c0-2.33-.13-4.67,0-7,.14-1.89.77-3.73,3-4.16a4.45,4.45,0,0,1,4.87,2.34,6.58,6.58,0,0,1,.91,5.54c-2.13,6.7-5.53,12.86-8.07,19.39Z"/><path class="cls-4" d="M194.12,53.24c-2.63-6.09-5.35-12.15-7.85-18.3a7,7,0,0,1,1-7.08A4.41,4.41,0,0,1,191.94,26c1.88.39,2.47,2,2.79,3.55a17.21,17.21,0,0,1,.13,3.36q0,10.08,0,20.16Z"/><path class="cls-4" d="M196.75,36.23c0-6.95-.1-13.74,0-20.52a6.91,6.91,0,0,1,4.8-6.33c3.25-.93,5.71,1.23,5.09,4.55a14.13,14.13,0,0,1-1,3q-3.75,8.73-7.57,17.44C197.88,34.95,197.85,35.76,196.75,36.23Z"/><path class="cls-4" d="M288.37,36.2l-1.49-3.39Q283.43,24.89,280,17a18,18,0,0,1-.76-2c-.58-2-.68-3.93,1.26-5.16s4-.66,5.76.77a6.79,6.79,0,0,1,2.65,5.2c.09,6.77,0,13.53,0,20.3Z"/><path class="cls-4" d="M223.91,93.25c-7.11.23-14.12,1-21.13.39a6.37,6.37,0,0,1-6.08-5.8c-.1-2.56,1.17-3.89,3.72-4a7.29,7.29,0,0,1,3,.59l19.7,8.34A6.72,6.72,0,0,1,223.91,93.25Z"/><path class="cls-4" d="M287,70.12l8.05-20c.12-.3.22-.6.37-.89,1.3-2.62,3.33-3.85,5.25-3.19,2.12.73,3.51,3.32,3.13,5.92a8.31,8.31,0,0,1-2.42,4.88Q294.7,63.31,288,69.71A4.41,4.41,0,0,1,287,70.12Z"/><path class="cls-4" d="M197.88,69.92c-4.61-4.46-9.3-8.83-13.79-13.4a6.9,6.9,0,0,1-1.74-7.77c1.37-3.4,4.71-3.85,7-1a1.06,1.06,0,0,1,.14.19c3.41,7.05,6,14.44,9,21.66Z"/><path class="cls-4" d="M261.83,93.13c7.12-3,14.2-6.08,21.38-8.94,1.85-.74,4.12-.82,5.3,1.4s.49,4.08-1,5.74a8.74,8.74,0,0,1-6.75,2.58c-6.25,0-12.49,0-18.74,0Z"/><path class="cls-4" d="M206.15,21.05c2.32-5.78,4.6-11.57,7-17.32.61-1.49,1.15-3.79,3.15-3.31s2,2.78,2,4.53a11.72,11.72,0,0,1-2.64,7.59C212.9,15.82,209.5,18.38,206.15,21.05Z"/><path class="cls-7" d="M278.94,21.18c-2.78-2.64-5.72-5.13-8.29-8a11.49,11.49,0,0,1-2.93-10.46c.22-1.07.59-2.37,1.91-2.48s1.84,1,2.23,1.92c2.58,6.17,5.07,12.38,7.59,18.58Z"/><text class="cls-8" transform="translate(210.48 30.93)">T<tspan class="cls-9" x="6.65" y="0">R</tspan><tspan class="cls-10" x="13.94" y="0">A</tspan><tspan x="21.26" y="0">VLLER</tspan><tspan class="cls-11" x="55.07" y="0">S</tspan><tspan class="cls-12" x="61.47" y="0">’</tspan><tspan x="63.5" y="0"> </tspan></text><text class="cls-13" transform="translate(209.88 45.59)">CHOICE</text><text class="cls-14" transform="translate(230.92 16.73)">2015</text><path d="M459.56,54.94a17,17,0,0,0-2.59,4.3c-.06.15-.11.3-.18.45a2.84,2.84,0,0,0,.24,3,16.39,16.39,0,0,1-11.13,24.63A16.08,16.08,0,0,1,430.56,82l-.39-.44-3.62,5.06-3.63-5.07c-.16.15-.25.22-.33.31a16.25,16.25,0,0,1-12.32,5.77,16.44,16.44,0,0,1-16.51-14.23,16.17,16.17,0,0,1,2.79-11.59.92.92,0,0,0,.08-.86,15.84,15.84,0,0,0-2.8-5.54l-.36-.47h10.05a1.22,1.22,0,0,0,.63-.15,35.8,35.8,0,0,1,12.15-4.88,46,46,0,0,1,23.28.81,34.1,34.1,0,0,1,8.65,4,1.56,1.56,0,0,0,.8.23c3.37,0,6.73,0,10.1,0ZM396.84,71.13a13.23,13.23,0,1,0,13.27-13.21A13.24,13.24,0,0,0,396.84,71.13Zm59.37,0A13.24,13.24,0,1,0,443,84.37,13.25,13.25,0,0,0,456.21,71.14ZM410.55,54.52c9.11,1.08,14.44,6.1,16,14.72,1.48-8.46,6.68-13.46,15.7-14.65A43.4,43.4,0,0,0,410.55,54.52Z"/><path class="cls-3" d="M425.85,102V95.8h2.23v16.37c-.56,0-1.16,0-1.76,0-.07,0-.16-.21-.18-.33-.06-.36-.08-.72-.13-1.15a1.28,1.28,0,0,0-.22.18,4.43,4.43,0,0,1-7.15-.46c-1.53-2.27-1.39-6.77,1.17-8.72a4.5,4.5,0,0,1,5.71.12Zm.08,4.5h-.08c0-.37,0-.74,0-1.1a2.89,2.89,0,0,0-2.14-2.75,2.77,2.77,0,0,0-3.15,1.36,5.11,5.11,0,0,0-.06,5,2.56,2.56,0,0,0,2.61,1.44,2.69,2.69,0,0,0,2.52-2A11.82,11.82,0,0,0,425.93,106.54Z"/><path class="cls-4" d="M397.91,111.18v5.54h-2.32V101h2l.1,1.43c.07,0,.11,0,.12,0,2.78-3,7-2,8.13,1.87a7.22,7.22,0,0,1-.62,5.85A4.73,4.73,0,0,1,399,112,10.8,10.8,0,0,1,397.91,111.18Zm-.09-4.48h.09c0,.3,0,.61,0,.91a2.94,2.94,0,0,0,2.09,2.81,2.78,2.78,0,0,0,3.26-1.32,5.07,5.07,0,0,0,.07-4.93,2.58,2.58,0,0,0-2.72-1.5,2.72,2.72,0,0,0-2.46,2A14.12,14.12,0,0,0,397.82,106.7Z"/><path class="cls-3" d="M408.56,103.27l-.52-1.5c.46-.21.91-.46,1.38-.61a7.48,7.48,0,0,1,3.69-.29,3.75,3.75,0,0,1,3.15,3.66c.06,1.62,0,3.24,0,4.86,0,.89.09,1.79.14,2.76-.61,0-1.21,0-1.81,0-.08,0-.19-.19-.22-.31s-.11-.55-.17-.89a3.53,3.53,0,0,0-.3.24,4.34,4.34,0,0,1-4.09,1.13,3,3,0,0,1-2.51-2.47,3.32,3.32,0,0,1,1.27-3.46,7.14,7.14,0,0,1,3.72-1.27,13.09,13.09,0,0,1,1.39-.09c.34,0,.41-.16.39-.45a2.19,2.19,0,0,0-2.14-2.12,5.55,5.55,0,0,0-3.14.7Zm5.56,4.48c0-.26,0-.51,0-.77s-.1-.44-.41-.41a10.67,10.67,0,0,0-1.66.15,6.51,6.51,0,0,0-1.84.73,1.73,1.73,0,0,0-.66,1.88,1.42,1.42,0,0,0,1.1,1.26,3.55,3.55,0,0,0,1.5,0C413.52,110.28,414.12,109.36,414.12,107.75Z"/><path class="cls-3" d="M465.37,106.4a5.73,5.73,0,0,1-1.92,4.74,5.32,5.32,0,0,1-5.46.91,4.88,4.88,0,0,1-3.27-4.1,6.08,6.08,0,0,1,1.49-5.62,5.26,5.26,0,0,1,5.86-1.2,5,5,0,0,1,3.29,4.71C465.37,106.07,465.37,106.29,465.37,106.4Zm-8.6.21a4.54,4.54,0,0,0,.84,2.89,2.79,2.79,0,0,0,4.41.31,5.12,5.12,0,0,0,0-6.48,2.89,2.89,0,0,0-4.38.26A4.67,4.67,0,0,0,456.77,106.6Z"/><path class="cls-3" d="M452.38,103.1a5,5,0,0,0-2.63-.67,1.47,1.47,0,0,0-1.54,1.49,1.2,1.2,0,0,0,.65,1.05c.48.26,1,.45,1.48.68a12.7,12.7,0,0,1,1.55.75,3.07,3.07,0,0,1-.06,5.27,4.64,4.64,0,0,1-1.69.62,7,7,0,0,1-4-.5c-.29-.13-.39-.27-.27-.59s.27-.84.37-1.17c.89.23,1.72.51,2.57.65a3.16,3.16,0,0,0,1.36-.15,1.33,1.33,0,0,0,1-1.22,1.43,1.43,0,0,0-.74-1.45c-.43-.24-.9-.41-1.35-.62a14.16,14.16,0,0,1-1.47-.69,2.92,2.92,0,0,1-.28-5,5.38,5.38,0,0,1,5.61-.07Z"/><path class="cls-4" d="M374.56,101h1.67V99l2.28-.68c0,.71,0,1.36,0,2s0,.7.69.7h2.23v1.8h-1.79c-1.13,0-1.13,0-1.13,1.13,0,1.59,0,3.18,0,4.76s.55,1.95,2.14,1.77l.57-.09c0,.53.08,1,.08,1.54a.44.44,0,0,1-.27.3,5,5,0,0,1-2.7.11,2.72,2.72,0,0,1-2-2.45,9.81,9.81,0,0,1-.11-1.58c0-1.64,0-3.27,0-4.91v-.57h-1.69Z"/><path class="cls-3" d="M434.6,112.11,429,101.05c.81,0,1.52,0,2.24,0,.12,0,.28.19.35.33.91,1.87,1.81,3.74,2.71,5.62l.25.5c.42-.9.79-1.7,1.18-2.5.57-1.18,1.15-2.36,1.7-3.55a.63.63,0,0,1,.7-.42c.59,0,1.18,0,1.89,0Z"/><path class="cls-4" d="M389.32,100.8v2.11c-.31,0-.61,0-.91,0a2.72,2.72,0,0,0-2.52,2.58c-.08.83-.06,1.66-.06,2.49,0,1.38,0,2.75,0,4.17H383.5V101c.56,0,1.18,0,1.79,0,.07,0,.18.19.2.3.05.44.07.89.09,1.23a17.6,17.6,0,0,1,1.6-1.41A2.71,2.71,0,0,1,389.32,100.8Z"/><path class="cls-3" d="M469.43,102.82c.4-.48.67-.86,1-1.18a3.12,3.12,0,0,1,2.31-.88c.33,0,.5.11.48.48,0,.54,0,1.08,0,1.62a7.73,7.73,0,0,0-1,0,2.77,2.77,0,0,0-2.45,2.4,10,10,0,0,0-.1,1.48c0,1.78,0,3.55,0,5.37h-2.24c0-.19,0-.37,0-.56,0-3.37,0-6.73,0-10.1,0-.32.09-.44.41-.42a10.15,10.15,0,0,0,1.11,0c.37,0,.47.15.47.49S469.41,102.31,469.43,102.82Z"/><path class="cls-4" d="M391.4,101h2.24v11.13H391.4Z"/><path class="cls-3" d="M443.48,112.16c-.66,0-1.25,0-1.84,0-.11,0-.23-.18-.31-.3s0-.19,0-.28c0-3.3,0-6.6,0-9.9,0-.49.13-.67.62-.61a5.9,5.9,0,0,0,1.1,0c.38,0,.49.12.49.49,0,1.86,0,3.72,0,5.58q0,2.26,0,4.52C443.5,111.79,443.49,111.94,443.48,112.16Z"/><path class="cls-4" d="M391.06,97.75a1.37,1.37,0,0,1,1.41-1.44A1.39,1.39,0,0,1,394,97.73a1.41,1.41,0,0,1-1.47,1.45A1.39,1.39,0,0,1,391.06,97.75Z"/><path class="cls-3" d="M443.79,97.71a1.28,1.28,0,0,1-1.4,1.4A1.27,1.27,0,0,1,441,97.72a1.32,1.32,0,0,1,1.35-1.37A1.34,1.34,0,0,1,443.79,97.71Z"/><path d="M465.59,56.59a2,2,0,0,1-4,0,2,2,0,1,1,4,0Zm-.38,0a1.6,1.6,0,1,0-3.21,0,1.64,1.64,0,0,0,1.6,1.6A1.63,1.63,0,0,0,465.2,56.56Z"/><path class="cls-4" d="M396.84,71.13a13.23,13.23,0,1,1,13.24,13.25A13.24,13.24,0,0,1,396.84,71.13Zm21,0a8,8,0,1,0-8.24,8A8,8,0,0,0,417.88,71.12Z"/><path class="cls-4" d="M456.21,71.14a13.24,13.24,0,1,1-13.32-13.22A13.29,13.29,0,0,1,456.21,71.14ZM451,71.05a8,8,0,1,0-8,8A8,8,0,0,0,451,71.05Z"/><path class="cls-5" d="M410.55,54.52a43.4,43.4,0,0,1,31.67.07c-9,1.19-14.22,6.2-15.7,14.65C425,60.62,419.66,55.6,410.55,54.52Z"/><path d="M417.88,71.12a8,8,0,1,1-7.81-8A8,8,0,0,1,417.88,71.12Zm-8,5.48a5.5,5.5,0,1,0-5.49-5.5A5.52,5.52,0,0,0,409.86,76.6Z"/><path d="M451,71.05a8,8,0,1,1-8-8A8,8,0,0,1,451,71.05Zm-13.5,0A5.52,5.52,0,1,0,443,65.54,5.52,5.52,0,0,0,437.45,71Z"/><path d="M462.74,55.41h.75c.34,0,.7,0,.86.37a.67.67,0,0,1-.37.88l.45.88c-.81.26-.68-.59-1.13-.85l-.06.85c-.36.13-.52,0-.5-.35C462.75,56.62,462.74,56,462.74,55.41Zm.55,1a2.52,2.52,0,0,0,.52-.21.32.32,0,0,0,0-.29,2.33,2.33,0,0,0-.51-.16Z"/><path class="cls-3" d="M479,101.92a2,2,0,0,1-4,0,2,2,0,1,1,4,0Zm-.38,0a1.6,1.6,0,1,0-3.21,0,1.64,1.64,0,0,0,1.6,1.6A1.63,1.63,0,0,0,478.66,101.89Z"/><path class="cls-3" d="M476.2,100.74h.75c.34,0,.7,0,.86.37a.67.67,0,0,1-.37.88l.45.88c-.81.26-.68-.59-1.13-.85l-.06.85c-.36.13-.52,0-.5-.35C476.21,102,476.2,101.38,476.2,100.74Zm.55,1a2.52,2.52,0,0,0,.52-.21.32.32,0,0,0,0-.29,2.33,2.33,0,0,0-.51-.16Z"/><path class="cls-4" d="M409.86,76.6a5.5,5.5,0,1,1,5.56-5.5A5.49,5.49,0,0,1,409.86,76.6Zm2.28-5.5a2.67,2.67,0,1,0-2.64,2.67A2.68,2.68,0,0,0,412.14,71.1Z"/><path class="cls-4" d="M437.45,71a5.52,5.52,0,1,1,5.47,5.54A5.54,5.54,0,0,1,437.45,71Zm5.13,2.64a2.63,2.63,0,1,0-2.67-2.63A2.63,2.63,0,0,0,442.58,73.69Z"/><path class="cls-6" d="M412.14,71.1a2.67,2.67,0,0,1-5.35,0,2.67,2.67,0,1,1,5.35,0Z"/><path class="cls-3" d="M442.58,73.69a2.63,2.63,0,1,1,2.63-2.63A2.62,2.62,0,0,1,442.58,73.69Z"/><path class="cls-4" d="M392.21,84.48c-6.15-2.46-12.35-4.83-18.45-7.42a7.06,7.06,0,0,1-4.4-7.1c.31-3,2.78-4.46,5.54-3.22a4.92,4.92,0,0,1,1.42.89q8.24,8.06,16.44,16.17Z"/><path class="cls-4" d="M459.73,83.72Q467.8,76,475.86,68.38a7.42,7.42,0,0,1,3.25-2c3-.79,5.42,2.21,4.46,5.72a6.72,6.72,0,0,1-3.46,4.44c-6.39,3.09-13.14,5.31-19.69,8Z"/><path class="cls-4" d="M474.53,53.15q0-8,0-16c0-2.33-.13-4.67,0-7,.14-1.89.77-3.73,3-4.16a4.45,4.45,0,0,1,4.87,2.34,6.58,6.58,0,0,1,.91,5.54c-2.13,6.7-5.53,12.86-8.07,19.39Z"/><path class="cls-4" d="M377.82,53.24c-2.63-6.09-5.35-12.15-7.85-18.3a7,7,0,0,1,1-7.08A4.41,4.41,0,0,1,375.64,26c1.88.39,2.47,2,2.79,3.55a17.21,17.21,0,0,1,.13,3.36q0,10.08,0,20.16Z"/><path class="cls-4" d="M380.44,36.23c0-6.95-.1-13.74,0-20.52a6.91,6.91,0,0,1,4.8-6.33c3.25-.93,5.71,1.23,5.09,4.55a14.13,14.13,0,0,1-1,3q-3.75,8.73-7.57,17.44C381.57,34.95,381.54,35.76,380.44,36.23Z"/><path class="cls-4" d="M472.06,36.2l-1.49-3.39q-3.45-7.91-6.88-15.83a18,18,0,0,1-.76-2c-.58-2-.68-3.93,1.26-5.16s4-.66,5.76.77a6.79,6.79,0,0,1,2.65,5.2c.09,6.77,0,13.53,0,20.3Z"/><path class="cls-4" d="M407.61,93.25c-7.11.23-14.12,1-21.13.39a6.37,6.37,0,0,1-6.08-5.8c-.1-2.56,1.17-3.89,3.72-4a7.29,7.29,0,0,1,3,.59l19.7,8.34A6.72,6.72,0,0,1,407.61,93.25Z"/><path class="cls-4" d="M470.66,70.12l8.05-20c.12-.3.22-.6.37-.89,1.3-2.62,3.33-3.85,5.25-3.19,2.12.73,3.51,3.32,3.13,5.92A8.31,8.31,0,0,1,485,56.85q-6.65,6.46-13.37,12.86A4.41,4.41,0,0,1,470.66,70.12Z"/><path class="cls-4" d="M381.57,69.92c-4.61-4.46-9.3-8.83-13.79-13.4A6.9,6.9,0,0,1,366,48.76c1.37-3.4,4.71-3.85,7-1a1.06,1.06,0,0,1,.14.19c3.41,7.05,6,14.44,9,21.66Z"/><path class="cls-4" d="M445.52,93.13c7.12-3,14.2-6.08,21.38-8.94,1.85-.74,4.12-.82,5.3,1.4s.49,4.08-1,5.74a8.74,8.74,0,0,1-6.75,2.58c-6.25,0-12.49,0-18.74,0Z"/><path class="cls-4" d="M389.84,21.05c2.32-5.78,4.6-11.57,7-17.32C397.44,2.25,398-.05,400,.43s2,2.78,2,4.53a11.72,11.72,0,0,1-2.64,7.59C396.6,15.82,393.2,18.38,389.84,21.05Z"/><path class="cls-7" d="M462.63,21.18c-2.78-2.64-5.72-5.13-8.29-8a11.49,11.49,0,0,1-2.93-10.46c.22-1.07.59-2.37,1.91-2.48s1.84,1,2.23,1.92c2.58,6.17,5.07,12.38,7.59,18.58Z"/><text class="cls-8" transform="translate(394.18 30.93)">T<tspan class="cls-15" x="6.64" y="0">R</tspan><tspan class="cls-16" x="13.93" y="0">A</tspan><tspan x="21.26" y="0">VLLER</tspan><tspan class="cls-11" x="55.07" y="0">S</tspan><tspan class="cls-12" x="61.47" y="0">’</tspan><tspan x="63.5" y="0"> </tspan></text><text class="cls-13" transform="translate(393.57 45.59)">CHOICE</text><text class="cls-17" transform="translate(414.61 16.73)">2016</text><path d="M94.53,54.94a17,17,0,0,0-2.59,4.3c-.06.15-.11.3-.18.45a2.84,2.84,0,0,0,.24,3A16.39,16.39,0,0,1,80.88,87.32,16.08,16.08,0,0,1,65.54,82l-.39-.44-3.62,5.06L57.9,81.51c-.16.15-.25.22-.33.31A16.25,16.25,0,0,1,45.24,87.6,16.44,16.44,0,0,1,28.74,73.37a16.17,16.17,0,0,1,2.79-11.59.92.92,0,0,0,.08-.86,15.84,15.84,0,0,0-2.8-5.54l-.36-.47H38.49a1.22,1.22,0,0,0,.63-.15,35.8,35.8,0,0,1,12.15-4.88,46,46,0,0,1,23.28.81,34.1,34.1,0,0,1,8.65,4,1.56,1.56,0,0,0,.8.23c3.37,0,6.73,0,10.1,0ZM31.82,71.13A13.23,13.23,0,1,0,45.09,57.92,13.24,13.24,0,0,0,31.82,71.13Zm59.37,0A13.24,13.24,0,1,0,78,84.37,13.25,13.25,0,0,0,91.19,71.14ZM45.53,54.52c9.11,1.08,14.44,6.1,16,14.72C63,60.78,68.17,55.78,77.2,54.58A43.4,43.4,0,0,0,45.53,54.52Z"/><path class="cls-3" d="M60.83,102V95.8h2.23v16.37c-.56,0-1.16,0-1.76,0-.07,0-.16-.21-.18-.33-.06-.36-.08-.72-.13-1.15a1.28,1.28,0,0,0-.22.18,4.43,4.43,0,0,1-7.15-.46c-1.53-2.27-1.39-6.77,1.17-8.72a4.5,4.5,0,0,1,5.71.12Zm.08,4.5h-.08c0-.37,0-.74,0-1.1a2.89,2.89,0,0,0-2.14-2.75A2.77,2.77,0,0,0,55.53,104a5.11,5.11,0,0,0-.06,5,2.56,2.56,0,0,0,2.61,1.44,2.69,2.69,0,0,0,2.52-2A11.82,11.82,0,0,0,60.9,106.54Z"/><path class="cls-4" d="M32.88,111.18v5.54H30.56V101h2l.1,1.43c.07,0,.11,0,.12,0,2.78-3,7-2,8.13,1.87a7.22,7.22,0,0,1-.62,5.85A4.73,4.73,0,0,1,34,112,10.8,10.8,0,0,1,32.88,111.18Zm-.09-4.48h.09c0,.3,0,.61,0,.91A2.94,2.94,0,0,0,35,110.44a2.78,2.78,0,0,0,3.26-1.32,5.07,5.07,0,0,0,.07-4.93,2.58,2.58,0,0,0-2.72-1.5,2.72,2.72,0,0,0-2.46,2A14.12,14.12,0,0,0,32.79,106.7Z"/><path class="cls-3" d="M43.53,103.27l-.52-1.5c.46-.21.91-.46,1.38-.61a7.48,7.48,0,0,1,3.69-.29,3.75,3.75,0,0,1,3.15,3.66c.06,1.62,0,3.24,0,4.86,0,.89.09,1.79.14,2.76-.61,0-1.21,0-1.81,0-.08,0-.19-.19-.22-.31s-.11-.55-.17-.89a3.53,3.53,0,0,0-.3.24,4.34,4.34,0,0,1-4.09,1.13,3,3,0,0,1-2.51-2.47,3.32,3.32,0,0,1,1.27-3.46,7.14,7.14,0,0,1,3.72-1.27,13.09,13.09,0,0,1,1.39-.09c.34,0,.41-.16.39-.45a2.19,2.19,0,0,0-2.14-2.12,5.55,5.55,0,0,0-3.14.7Zm5.56,4.48c0-.26,0-.51,0-.77s-.1-.44-.41-.41a10.67,10.67,0,0,0-1.66.15,6.51,6.51,0,0,0-1.84.73,1.73,1.73,0,0,0-.66,1.88,1.42,1.42,0,0,0,1.1,1.26,3.55,3.55,0,0,0,1.5,0C48.49,110.28,49.09,109.36,49.09,107.75Z"/><path class="cls-3" d="M100.35,106.4a5.73,5.73,0,0,1-1.92,4.74,5.32,5.32,0,0,1-5.46.91,4.88,4.88,0,0,1-3.27-4.1,6.08,6.08,0,0,1,1.49-5.62,5.26,5.26,0,0,1,5.86-1.2,5,5,0,0,1,3.29,4.71C100.34,106.07,100.34,106.29,100.35,106.4Zm-8.6.21a4.54,4.54,0,0,0,.84,2.89,2.79,2.79,0,0,0,4.41.31,5.12,5.12,0,0,0,0-6.48,2.89,2.89,0,0,0-4.38.26A4.67,4.67,0,0,0,91.75,106.6Z"/><path class="cls-3" d="M87.35,103.1a5,5,0,0,0-2.63-.67,1.47,1.47,0,0,0-1.54,1.49,1.2,1.2,0,0,0,.65,1.05c.48.26,1,.45,1.48.68a12.7,12.7,0,0,1,1.55.75,3.07,3.07,0,0,1-.06,5.27,4.64,4.64,0,0,1-1.69.62,7,7,0,0,1-4-.5c-.29-.13-.39-.27-.27-.59s.27-.84.37-1.17c.89.23,1.72.51,2.57.65a3.16,3.16,0,0,0,1.36-.15,1.33,1.33,0,0,0,1-1.22,1.43,1.43,0,0,0-.74-1.45c-.43-.24-.9-.41-1.35-.62a14.16,14.16,0,0,1-1.47-.69,2.92,2.92,0,0,1-.28-5,5.38,5.38,0,0,1,5.61-.07Z"/><path class="cls-4" d="M9.54,101h1.67V99l2.28-.68c0,.71,0,1.36,0,2s0,.7.69.7h2.23v1.8H14.62c-1.13,0-1.13,0-1.13,1.13,0,1.59,0,3.18,0,4.76s.55,1.95,2.14,1.77l.57-.09c0,.53.08,1,.08,1.54a.44.44,0,0,1-.27.3,5,5,0,0,1-2.7.11,2.72,2.72,0,0,1-2-2.45,9.81,9.81,0,0,1-.11-1.58c0-1.64,0-3.27,0-4.91v-.57H9.54Z"/><path class="cls-3" d="M69.58,112.11,64,101.05c.81,0,1.52,0,2.24,0,.12,0,.28.19.35.33.91,1.87,1.81,3.74,2.71,5.62l.25.5c.42-.9.79-1.7,1.18-2.5.57-1.18,1.15-2.36,1.7-3.55a.63.63,0,0,1,.7-.42c.59,0,1.18,0,1.89,0Z"/><path class="cls-4" d="M24.29,100.8v2.11c-.31,0-.61,0-.91,0a2.72,2.72,0,0,0-2.52,2.58c-.08.83-.06,1.66-.06,2.49,0,1.38,0,2.75,0,4.17H18.47V101c.56,0,1.18,0,1.79,0,.07,0,.18.19.2.3.05.44.07.89.09,1.23a17.6,17.6,0,0,1,1.6-1.41A2.71,2.71,0,0,1,24.29,100.8Z"/><path class="cls-3" d="M104.41,102.82c.4-.48.67-.86,1-1.18a3.12,3.12,0,0,1,2.31-.88c.33,0,.5.11.48.48,0,.54,0,1.08,0,1.62a7.73,7.73,0,0,0-1,0,2.77,2.77,0,0,0-2.45,2.4,10,10,0,0,0-.1,1.48c0,1.78,0,3.55,0,5.37H102.4c0-.19,0-.37,0-.56,0-3.37,0-6.73,0-10.1,0-.32.09-.44.41-.42a10.15,10.15,0,0,0,1.11,0c.37,0,.47.15.47.49S104.39,102.31,104.41,102.82Z"/><path class="cls-4" d="M26.37,101h2.24v11.13H26.37Z"/><path class="cls-3" d="M78.45,112.16c-.66,0-1.25,0-1.84,0-.11,0-.23-.18-.31-.3s0-.19,0-.28c0-3.3,0-6.6,0-9.9,0-.49.13-.67.62-.61a5.9,5.9,0,0,0,1.1,0c.38,0,.49.12.49.49,0,1.86,0,3.72,0,5.58q0,2.26,0,4.52C78.48,111.79,78.46,111.94,78.45,112.16Z"/><path class="cls-4" d="M26,97.75a1.37,1.37,0,0,1,1.41-1.44,1.39,1.39,0,0,1,1.49,1.41,1.41,1.41,0,0,1-1.47,1.45A1.39,1.39,0,0,1,26,97.75Z"/><path class="cls-3" d="M78.77,97.71a1.28,1.28,0,0,1-1.4,1.4A1.27,1.27,0,0,1,76,97.72a1.32,1.32,0,0,1,1.35-1.37A1.34,1.34,0,0,1,78.77,97.71Z"/><path d="M100.56,56.59a2,2,0,0,1-4,0,2,2,0,1,1,4,0Zm-.38,0a1.6,1.6,0,1,0-3.21,0,1.64,1.64,0,0,0,1.6,1.6A1.63,1.63,0,0,0,100.18,56.56Z"/><path class="cls-4" d="M31.82,71.13A13.23,13.23,0,1,1,45.05,84.37,13.24,13.24,0,0,1,31.82,71.13Zm21,0a8,8,0,1,0-8.24,8A8,8,0,0,0,52.86,71.12Z"/><path class="cls-4" d="M91.19,71.14A13.24,13.24,0,1,1,77.87,57.92,13.29,13.29,0,0,1,91.19,71.14Zm-5.26-.09a8,8,0,1,0-8,8A8,8,0,0,0,85.93,71.05Z"/><path class="cls-5" d="M45.53,54.52a43.4,43.4,0,0,1,31.67.07c-9,1.19-14.22,6.2-15.7,14.65C60,60.62,54.63,55.6,45.53,54.52Z"/><path d="M52.86,71.12a8,8,0,1,1-7.81-8A8,8,0,0,1,52.86,71.12Zm-8,5.48a5.5,5.5,0,1,0-5.49-5.5A5.52,5.52,0,0,0,44.83,76.6Z"/><path d="M85.93,71.05a8,8,0,1,1-8-8A8,8,0,0,1,85.93,71.05Zm-13.5,0a5.52,5.52,0,1,0,5.51-5.51A5.52,5.52,0,0,0,72.42,71Z"/><path d="M97.71,55.41h.75c.34,0,.7,0,.86.37a.67.67,0,0,1-.37.88l.45.88c-.81.26-.68-.59-1.13-.85l-.06.85c-.36.13-.52,0-.5-.35C97.73,56.62,97.71,56,97.71,55.41Zm.55,1a2.52,2.52,0,0,0,.52-.21.32.32,0,0,0,0-.29,2.33,2.33,0,0,0-.51-.16Z"/><path class="cls-3" d="M114,101.92a2,2,0,0,1-4,0,2,2,0,1,1,4,0Zm-.38,0a1.6,1.6,0,1,0-3.21,0,1.64,1.64,0,0,0,1.6,1.6A1.63,1.63,0,0,0,113.63,101.89Z"/><path class="cls-3" d="M111.17,100.74h.75c.34,0,.7,0,.86.37a.67.67,0,0,1-.37.88l.45.88c-.81.26-.68-.59-1.13-.85l-.06.85c-.36.13-.52,0-.5-.35C111.19,102,111.17,101.38,111.17,100.74Zm.55,1a2.52,2.52,0,0,0,.52-.21.32.32,0,0,0,0-.29,2.33,2.33,0,0,0-.51-.16Z"/><path class="cls-4" d="M44.83,76.6a5.5,5.5,0,1,1,5.56-5.5A5.49,5.49,0,0,1,44.83,76.6Zm2.28-5.5a2.67,2.67,0,1,0-2.64,2.67A2.68,2.68,0,0,0,47.11,71.1Z"/><path class="cls-4" d="M72.42,71a5.52,5.52,0,1,1,5.47,5.54A5.54,5.54,0,0,1,72.42,71Zm5.13,2.64a2.63,2.63,0,1,0-2.67-2.63A2.63,2.63,0,0,0,77.55,73.69Z"/><path class="cls-6" d="M47.11,71.1a2.67,2.67,0,0,1-5.35,0,2.67,2.67,0,1,1,5.35,0Z"/><path class="cls-3" d="M77.55,73.69a2.63,2.63,0,1,1,2.63-2.63A2.62,2.62,0,0,1,77.55,73.69Z"/><path class="cls-4" d="M27.18,84.48C21,82,14.83,79.65,8.73,77.06A7.06,7.06,0,0,1,4.33,70c.31-3,2.78-4.46,5.54-3.22a4.92,4.92,0,0,1,1.42.89q8.24,8.06,16.44,16.17Z"/><path class="cls-4" d="M94.71,83.72q8.07-7.67,16.13-15.34a7.42,7.42,0,0,1,3.25-2c3-.79,5.42,2.21,4.46,5.72a6.72,6.72,0,0,1-3.46,4.44c-6.39,3.09-13.14,5.31-19.69,8Z"/><path class="cls-4" d="M109.5,53.15q0-8,0-16c0-2.33-.13-4.67,0-7,.14-1.89.77-3.73,3-4.16a4.45,4.45,0,0,1,4.87,2.34,6.58,6.58,0,0,1,.91,5.54c-2.13,6.7-5.53,12.86-8.07,19.39Z"/><path class="cls-4" d="M12.79,53.24c-2.63-6.09-5.35-12.15-7.85-18.3a7,7,0,0,1,1-7.08A4.41,4.41,0,0,1,10.61,26c1.88.39,2.47,2,2.79,3.55a17.21,17.21,0,0,1,.13,3.36q0,10.08,0,20.16Z"/><path class="cls-4" d="M15.42,36.23c0-6.95-.1-13.74,0-20.52a6.91,6.91,0,0,1,4.8-6.33c3.25-.93,5.71,1.23,5.09,4.55a14.13,14.13,0,0,1-1,3q-3.75,8.73-7.57,17.44C16.55,34.95,16.52,35.76,15.42,36.23Z"/><path class="cls-4" d="M107,36.2l-1.49-3.39Q102.1,24.89,98.67,17a18,18,0,0,1-.76-2c-.58-2-.68-3.93,1.26-5.16s4-.66,5.76.77a6.79,6.79,0,0,1,2.65,5.2c.09,6.77,0,13.53,0,20.3Z"/><path class="cls-4" d="M42.58,93.25c-7.11.23-14.12,1-21.13.39a6.37,6.37,0,0,1-6.08-5.8c-.1-2.56,1.17-3.89,3.72-4a7.29,7.29,0,0,1,3,.59l19.7,8.34A6.72,6.72,0,0,1,42.58,93.25Z"/><path class="cls-4" d="M105.63,70.12l8.05-20c.12-.3.22-.6.37-.89,1.3-2.62,3.33-3.85,5.25-3.19,2.12.73,3.51,3.32,3.13,5.92A8.31,8.31,0,0,1,120,56.85q-6.65,6.46-13.37,12.86A4.41,4.41,0,0,1,105.63,70.12Z"/><path class="cls-4" d="M16.55,69.92c-4.61-4.46-9.3-8.83-13.79-13.4A6.9,6.9,0,0,1,1,48.76c1.37-3.4,4.71-3.85,7-1a1.06,1.06,0,0,1,.14.19c3.41,7.05,6,14.44,9,21.66Z"/><path class="cls-4" d="M80.5,93.13c7.12-3,14.2-6.08,21.38-8.94,1.85-.74,4.12-.82,5.3,1.4s.49,4.08-1,5.74a8.74,8.74,0,0,1-6.75,2.58c-6.25,0-12.49,0-18.74,0Z"/><path class="cls-4" d="M24.82,21.05c2.32-5.78,4.6-11.57,7-17.32C32.41,2.25,32.94-.05,35,.43s2,2.78,2,4.53a11.72,11.72,0,0,1-2.64,7.59C31.57,15.82,28.17,18.38,24.82,21.05Z"/><path class="cls-7" d="M97.61,21.18c-2.78-2.64-5.72-5.13-8.29-8A11.49,11.49,0,0,1,86.38,2.77C86.61,1.71,87,.41,88.29.29s1.84,1,2.23,1.92c2.58,6.17,5.07,12.38,7.59,18.58Z"/><text class="cls-8" transform="translate(29.15 30.93)">T<tspan class="cls-9" x="6.65" y="0">R</tspan><tspan class="cls-10" x="13.94" y="0">A</tspan><tspan x="21.26" y="0">VLLER</tspan><tspan class="cls-18" x="55.07" y="0">S</tspan><tspan class="cls-19" x="61.47" y="0">’</tspan><tspan x="63.5" y="0"> </tspan></text><text class="cls-13" transform="translate(28.54 45.59)">CHOICE</text><text class="cls-14" transform="translate(49.59 16.73)">2014</text></svg>