<svg id="Layer_1" data-name="Layer 1" xmlns="http://www.w3.org/2000/svg" viewBox="0 0 130 91"><defs><style>.cls-1{fill:#1760aa;fill-rule:evenodd;}</style></defs><title>icn_boat_shadow</title><path class="cls-1" d="M121.3,83.22a33.77,33.77,0,0,1-7,3.47c-25.82,9.64-55,.86-77.16-13.69l-.06,0A119.68,119.68,0,0,1,16.48,56.34c-6.79-7-12.36-15.54-15-25-2.19-8-.23-13.88,4.7-20.06L9.11.26A178.34,178.34,0,0,1,29.4,3.82L35.92.26C51.39,2,60.14,7.87,74.75,13.2c13.53,4.93,26.63,12.25,37.12,22.19,7.22,6.83,13.27,15.46,16.24,25,1.44,4.62,1.85,9.71.24,14.27A17.36,17.36,0,0,1,121.3,83.22Z"/></svg>