<svg id="Layer_1" data-name="Layer 1" xmlns="http://www.w3.org/2000/svg" xmlns:xlink="http://www.w3.org/1999/xlink"
     viewBox="0 0 120 113" height="64px">
    <defs>
        <style>
            .cls-1{fill:#eae3dc;}.cls-1,.cls-10,.cls-12,.cls-13,.cls-14,.cls-15,.cls-16,.cls-17,.cls-18,.cls-19,.cls-2,.cls-20,.cls-21,.cls-22,.cls-23,.cls-24,.cls-25,.cls-26,.cls-27,.cls-28,.cls-29,.cls-3,.cls-30,.cls-31,.cls-32,.cls-33,.cls-34,.cls-35,.cls-36,.cls-37,.cls-38,.cls-39,.cls-4,.cls-40,.cls-41,.cls-42,.cls-43,.cls-44,.cls-45,.cls-46,.cls-47,.cls-48,.cls-49,.cls-5,.cls-50,.cls-51,.cls-52,.cls-53,.cls-54,.cls-55,.cls-56,.cls-57,.cls-58,.cls-6,.cls-60,.cls-61,.cls-7,.cls-8,.cls-9{fill-rule:evenodd;}.cls-2{fill:#05572e;}.cls-11,.cls-3{fill:#da9b28;}.cls-4{fill:#aa7f38;}.cls-5{fill:#fff;}.cls-6{fill:#f9b418;}.cls-7{fill:#bc7f2b;}.cls-8{fill:url(#GradientFill_8);}.cls-9{fill:#056737;}.cls-10{fill:#040404;}.cls-12{fill:#04834a;}.cls-13{fill:#efeae7;}.cls-14{fill:#705f61;}.cls-15{fill:#ec5a3a;}.cls-16{fill:#afada8;}.cls-17{fill:url(#GradientFill_57);}.cls-18{fill:url(#linear-gradient);}.cls-19{fill:url(#linear-gradient-2);}.cls-20{fill:url(#linear-gradient-3);}.cls-21{fill:url(#linear-gradient-4);}.cls-22{fill:url(#linear-gradient-5);}.cls-23{fill:url(#linear-gradient-6);}.cls-24{fill:url(#linear-gradient-7);}.cls-25{fill:url(#linear-gradient-8);}.cls-26{fill:url(#linear-gradient-9);}.cls-27{fill:url(#linear-gradient-10);}.cls-28{fill:url(#linear-gradient-11);}.cls-29{fill:url(#linear-gradient-12);}.cls-30{fill:url(#linear-gradient-13);}.cls-31{fill:url(#linear-gradient-14);}.cls-32{fill:url(#linear-gradient-15);}.cls-33{fill:url(#linear-gradient-16);}.cls-34{fill:url(#linear-gradient-17);}.cls-35{fill:url(#linear-gradient-18);}.cls-36{fill:url(#linear-gradient-19);}.cls-37{fill:url(#linear-gradient-20);}.cls-38{fill:url(#GradientFill_78);}.cls-39{fill:url(#linear-gradient-21);}.cls-40{fill:url(#linear-gradient-22);}.cls-41{fill:url(#linear-gradient-23);}.cls-42{fill:url(#linear-gradient-24);}.cls-43{fill:url(#linear-gradient-25);}.cls-44{fill:url(#linear-gradient-26);}.cls-45{fill:url(#linear-gradient-27);}.cls-46{fill:url(#linear-gradient-28);}.cls-47{fill:url(#linear-gradient-29);}.cls-48{fill:url(#linear-gradient-30);}.cls-49{fill:url(#linear-gradient-31);}.cls-50{fill:url(#linear-gradient-32);}.cls-51{fill:url(#linear-gradient-33);}.cls-52{fill:url(#linear-gradient-34);}.cls-53{fill:url(#linear-gradient-35);}.cls-54{fill:url(#linear-gradient-36);}.cls-55{fill:url(#linear-gradient-37);}.cls-56{fill:url(#linear-gradient-38);}.cls-57{fill:url(#linear-gradient-39);}.cls-58{fill:url(#linear-gradient-40);}.cls-59,.cls-60{fill:#473a3d;}.cls-61{fill:url(#GradientFill_14);}
        </style>
        <linearGradient id="GradientFill_8" x1="44.2" y1="90.52" x2="93.72" y2="91.38" gradientUnits="userSpaceOnUse">
            <stop offset="0" stop-color="#eae3dc"/>
            <stop offset="1" stop-color="#beb9b1"/>
        </linearGradient>
        <linearGradient id="GradientFill_57" x1="25.67" y1="44.61" x2="29.08" y2="50.75" gradientUnits="userSpaceOnUse">
            <stop offset="0" stop-color="#afada8"/>
            <stop offset="1" stop-color="#eae3dc"/>
        </linearGradient>
        <linearGradient id="linear-gradient" x1="25.68" y1="44.62" x2="29.08" y2="50.75" gradientUnits="userSpaceOnUse">
            <stop offset="0" stop-color="#b1aea9"/>
            <stop offset="1" stop-color="#eae3dc"/>
        </linearGradient>
        <linearGradient id="linear-gradient-2" x1="25.68" y1="44.63" x2="29.08" y2="50.75"
                        gradientUnits="userSpaceOnUse">
            <stop offset="0" stop-color="#b2b0ab"/>
            <stop offset="1" stop-color="#eae3dc"/>
        </linearGradient>
        <linearGradient id="linear-gradient-3" x1="25.69" y1="44.65" x2="29.09" y2="50.74"
                        gradientUnits="userSpaceOnUse">
            <stop offset="0" stop-color="#b4b2ac"/>
            <stop offset="1" stop-color="#eae3dc"/>
        </linearGradient>
        <linearGradient id="linear-gradient-4" x1="25.69" y1="44.66" x2="29.09" y2="50.74"
                        gradientUnits="userSpaceOnUse">
            <stop offset="0" stop-color="#b6b3ae"/>
            <stop offset="1" stop-color="#eae3dc"/>
        </linearGradient>
        <linearGradient id="linear-gradient-5" x1="25.7" y1="44.67" x2="29.09" y2="50.74"
                        gradientUnits="userSpaceOnUse">
            <stop offset="0" stop-color="#b8b5b0"/>
            <stop offset="1" stop-color="#eae3dc"/>
        </linearGradient>
        <linearGradient id="linear-gradient-6" x1="25.7" y1="44.69" x2="29.1" y2="50.74" gradientUnits="userSpaceOnUse">
            <stop offset="0" stop-color="#bab7b1"/>
            <stop offset="1" stop-color="#eae3dc"/>
        </linearGradient>
        <linearGradient id="linear-gradient-7" x1="25.71" y1="44.7" x2="29.1" y2="50.74" gradientUnits="userSpaceOnUse">
            <stop offset="0" stop-color="#bcb8b3"/>
            <stop offset="1" stop-color="#eae3dc"/>
        </linearGradient>
        <linearGradient id="linear-gradient-8" x1="25.71" y1="44.71" x2="29.1" y2="50.74"
                        gradientUnits="userSpaceOnUse">
            <stop offset="0" stop-color="#bebab4"/>
            <stop offset="1" stop-color="#eae3dc"/>
        </linearGradient>
        <linearGradient id="linear-gradient-9" x1="25.72" y1="44.73" x2="29.1" y2="50.73"
                        gradientUnits="userSpaceOnUse">
            <stop offset="0" stop-color="#bfbbb6"/>
            <stop offset="1" stop-color="#eae3dc"/>
        </linearGradient>
        <linearGradient id="linear-gradient-10" x1="25.72" y1="44.74" x2="29.11" y2="50.73"
                        gradientUnits="userSpaceOnUse">
            <stop offset="0" stop-color="#c1bdb7"/>
            <stop offset="1" stop-color="#eae3dc"/>
        </linearGradient>
        <linearGradient id="linear-gradient-11" x1="25.73" y1="44.75" x2="29.11" y2="50.73"
                        gradientUnits="userSpaceOnUse">
            <stop offset="0" stop-color="#c3bfb9"/>
            <stop offset="1" stop-color="#eae3dc"/>
        </linearGradient>
        <linearGradient id="linear-gradient-12" x1="25.73" y1="44.77" x2="29.11" y2="50.73"
                        gradientUnits="userSpaceOnUse">
            <stop offset="0" stop-color="#c5c0bb"/>
            <stop offset="1" stop-color="#eae3dc"/>
        </linearGradient>
        <linearGradient id="linear-gradient-13" x1="25.74" y1="44.78" x2="29.12" y2="50.73"
                        gradientUnits="userSpaceOnUse">
            <stop offset="0" stop-color="#c7c2bc"/>
            <stop offset="1" stop-color="#eae3dc"/>
        </linearGradient>
        <linearGradient id="linear-gradient-14" x1="25.74" y1="44.79" x2="29.12" y2="50.73"
                        gradientUnits="userSpaceOnUse">
            <stop offset="0" stop-color="#c9c4be"/>
            <stop offset="1" stop-color="#eae3dc"/>
        </linearGradient>
        <linearGradient id="linear-gradient-15" x1="25.75" y1="44.81" x2="29.12" y2="50.72"
                        gradientUnits="userSpaceOnUse">
            <stop offset="0" stop-color="#cbc6c0"/>
            <stop offset="1" stop-color="#eae3dc"/>
        </linearGradient>
        <linearGradient id="linear-gradient-16" x1="25.75" y1="44.82" x2="29.13" y2="50.72"
                        gradientUnits="userSpaceOnUse">
            <stop offset="0" stop-color="#cdc7c1"/>
            <stop offset="1" stop-color="#eae3dc"/>
        </linearGradient>
        <linearGradient id="linear-gradient-17" x1="25.76" y1="44.83" x2="29.13" y2="50.72"
                        gradientUnits="userSpaceOnUse">
            <stop offset="0" stop-color="#cfc9c3"/>
            <stop offset="1" stop-color="#eae3dc"/>
        </linearGradient>
        <linearGradient id="linear-gradient-18" x1="25.76" y1="44.85" x2="29.13" y2="50.72"
                        gradientUnits="userSpaceOnUse">
            <stop offset="0" stop-color="#d1cbc5"/>
            <stop offset="1" stop-color="#eae3dc"/>
        </linearGradient>
        <linearGradient id="linear-gradient-19" x1="25.77" y1="44.86" x2="29.14" y2="50.72"
                        gradientUnits="userSpaceOnUse">
            <stop offset="0" stop-color="#d3cdc6"/>
            <stop offset="1" stop-color="#eae3dc"/>
        </linearGradient>
        <linearGradient id="linear-gradient-20" x1="25.77" y1="44.87" x2="29.14" y2="50.72"
                        gradientUnits="userSpaceOnUse">
            <stop offset="0" stop-color="#d5cec8"/>
            <stop offset="1" stop-color="#eae3dc"/>
        </linearGradient>
        <linearGradient id="GradientFill_78" x1="25.78" y1="44.89" x2="29.14" y2="50.71" gradientUnits="userSpaceOnUse">
            <stop offset="0" stop-color="#d6d0ca"/>
            <stop offset="1" stop-color="#eae3dc"/>
        </linearGradient>
        <linearGradient id="linear-gradient-21" x1="25.79" y1="44.91" x2="29.14" y2="50.71"
                        gradientUnits="userSpaceOnUse">
            <stop offset="0" stop-color="#d7d1cb"/>
            <stop offset="1" stop-color="#eae3dc"/>
        </linearGradient>
        <linearGradient id="linear-gradient-22" x1="25.81" y1="44.93" x2="29.14" y2="50.71"
                        gradientUnits="userSpaceOnUse">
            <stop offset="0" stop-color="#d8d2cb"/>
            <stop offset="1" stop-color="#eae3dc"/>
        </linearGradient>
        <linearGradient id="linear-gradient-23" x1="25.82" y1="44.96" x2="29.15" y2="50.71"
                        gradientUnits="userSpaceOnUse">
            <stop offset="0" stop-color="#d9d3cc"/>
            <stop offset="1" stop-color="#eae3dc"/>
        </linearGradient>
        <linearGradient id="linear-gradient-24" x1="25.84" y1="44.98" x2="29.15" y2="50.71"
                        gradientUnits="userSpaceOnUse">
            <stop offset="0" stop-color="#dad4cd"/>
            <stop offset="1" stop-color="#eae3dc"/>
        </linearGradient>
        <linearGradient id="linear-gradient-25" x1="25.85" y1="45" x2="29.15" y2="50.71" gradientUnits="userSpaceOnUse">
            <stop offset="0" stop-color="#dbd4ce"/>
            <stop offset="1" stop-color="#eae3dc"/>
        </linearGradient>
        <linearGradient id="linear-gradient-26" x1="25.87" y1="45.02" x2="29.15" y2="50.71"
                        gradientUnits="userSpaceOnUse">
            <stop offset="0" stop-color="#dcd5cf"/>
            <stop offset="1" stop-color="#eae3dc"/>
        </linearGradient>
        <linearGradient id="linear-gradient-27" x1="25.88" y1="45.05" x2="29.15" y2="50.71"
                        gradientUnits="userSpaceOnUse">
            <stop offset="0" stop-color="#ddd6d0"/>
            <stop offset="1" stop-color="#eae3dc"/>
        </linearGradient>
        <linearGradient id="linear-gradient-28" x1="25.9" y1="45.07" x2="29.15" y2="50.71"
                        gradientUnits="userSpaceOnUse">
            <stop offset="0" stop-color="#ded7d1"/>
            <stop offset="1" stop-color="#eae3dc"/>
        </linearGradient>
        <linearGradient id="linear-gradient-29" x1="25.91" y1="45.09" x2="29.15" y2="50.71"
                        gradientUnits="userSpaceOnUse">
            <stop offset="0" stop-color="#dfd8d2"/>
            <stop offset="1" stop-color="#eae3dc"/>
        </linearGradient>
        <linearGradient id="linear-gradient-30" x1="25.93" y1="45.12" x2="29.15" y2="50.7"
                        gradientUnits="userSpaceOnUse">
            <stop offset="0" stop-color="#e0d9d2"/>
            <stop offset="1" stop-color="#eae3dc"/>
        </linearGradient>
        <linearGradient id="linear-gradient-31" x1="25.94" y1="45.14" x2="29.15" y2="50.7"
                        gradientUnits="userSpaceOnUse">
            <stop offset="0" stop-color="#e0dad3"/>
            <stop offset="1" stop-color="#eae3dc"/>
        </linearGradient>
        <linearGradient id="linear-gradient-32" x1="25.96" y1="45.16" x2="29.15" y2="50.7"
                        gradientUnits="userSpaceOnUse">
            <stop offset="0" stop-color="#e1dbd4"/>
            <stop offset="1" stop-color="#eae3dc"/>
        </linearGradient>
        <linearGradient id="linear-gradient-33" x1="25.97" y1="45.19" x2="29.16" y2="50.7"
                        gradientUnits="userSpaceOnUse">
            <stop offset="0" stop-color="#e2dcd5"/>
            <stop offset="1" stop-color="#eae3dc"/>
        </linearGradient>
        <linearGradient id="linear-gradient-34" x1="25.99" y1="45.21" x2="29.16" y2="50.7"
                        gradientUnits="userSpaceOnUse">
            <stop offset="0" stop-color="#e3dcd6"/>
            <stop offset="1" stop-color="#eae3dc"/>
        </linearGradient>
        <linearGradient id="linear-gradient-35" x1="26" y1="45.23" x2="29.16" y2="50.7" gradientUnits="userSpaceOnUse">
            <stop offset="0" stop-color="#e4ddd7"/>
            <stop offset="1" stop-color="#eae3dc"/>
        </linearGradient>
        <linearGradient id="linear-gradient-36" x1="26.02" y1="45.26" x2="29.16" y2="50.7"
                        gradientUnits="userSpaceOnUse">
            <stop offset="0" stop-color="#e5ded8"/>
            <stop offset="1" stop-color="#eae3dc"/>
        </linearGradient>
        <linearGradient id="linear-gradient-37" x1="26.03" y1="45.28" x2="29.16" y2="50.7"
                        gradientUnits="userSpaceOnUse">
            <stop offset="0" stop-color="#e6dfd9"/>
            <stop offset="1" stop-color="#eae3dc"/>
        </linearGradient>
        <linearGradient id="linear-gradient-38" x1="26.05" y1="45.3" x2="29.16" y2="50.7"
                        gradientUnits="userSpaceOnUse">
            <stop offset="0" stop-color="#e7e0da"/>
            <stop offset="1" stop-color="#eae3dc"/>
        </linearGradient>
        <linearGradient id="linear-gradient-39" x1="26.06" y1="45.33" x2="29.16" y2="50.7"
                        gradientUnits="userSpaceOnUse">
            <stop offset="0" stop-color="#e8e1db"/>
            <stop offset="1" stop-color="#eae3dc"/>
        </linearGradient>
        <linearGradient id="linear-gradient-40" x1="26.08" y1="45.35" x2="29.16" y2="50.7"
                        gradientUnits="userSpaceOnUse">
            <stop offset="0" stop-color="#e9e2db"/>
            <stop offset="1" stop-color="#eae3dc"/>
        </linearGradient>
        <linearGradient id="GradientFill_14" x1="82.19" y1="91.12" x2="79.7" y2="86.02" gradientUnits="userSpaceOnUse">
            <stop offset="0" stop-color="#fff"/>
            <stop offset="0.35" stop-color="#ddd8d2"/>
            <stop offset="0.61" stop-color="#d0cac3"/>
            <stop offset="1" stop-color="#beb9b1"/>
        </linearGradient>
    </defs>
    <title>icn_boat</title>
    <path class="cls-1"
          d="M29.6,7.3l4,2.32c2.16,1.25,6,1.09,8.46-.35h0c2.49-1.44,2.77-3.64.61-4.88l-4-2.32c-2.16-1.25-6-1.09-8.46.35h0C27.71,3.86,27.44,6.05,29.6,7.3Z"/>
    <path class="cls-2"
          d="M23.61,22.2l-9.19,5.44L5,32.94c3.31,8,10.76,15.71,19.44,22.51a159.49,159.49,0,0,0,24.8,15.79l.09,0,.08,0a107.29,107.29,0,0,0,28.1,10.81A136.53,136.53,0,0,0,103,85.86a16.17,16.17,0,0,0,8.88-2c2.32-1.34,3.71-3.07,3.44-5.13a23.65,23.65,0,0,0-.58-2.89l1.42-.6a22.65,22.65,0,0,1-.11-8.17c.69-5.23-10.47-16.25-10.47-16.25l-4.64-2.17-5,2.85q-2.7-1.91-5.74-3.68l-.08,0-.08,0A184.5,184.5,0,0,0,62.61,33.42,156,156,0,0,0,23.61,22.2Z"/>
    <path class="cls-3"
          d="M101.52,92.07c-14-.62-36.19-4.45-53.83-14.61C35.12,71,9.88,55.51,3.56,38.5l10.15-5.72,9.9-5.86c29.46,3.65,56.24,18.22,67.48,25.48,17.61,10.18,24.23,23,25.31,31.08.31,2.35-1.1,4.5-4.09,6.23A19.78,19.78,0,0,1,101.52,92.07Z"/>
    <path class="cls-4"
          d="M101.52,92.07c-14-.62-36.19-4.45-53.83-14.61C35.12,71,9.88,55.51,3.56,38.5l10.15-5.72,9.9-5.86q2.53.31,5,.73L20,32.79,9.84,38.5C16.16,55.51,41.4,71,54,77.46,70.62,87.06,91.31,91,105.37,91.94A23.5,23.5,0,0,1,101.52,92.07Z"/>
    <path class="cls-5"
          d="M54.24,76.26l7.4-3.71c2.48.93,5,1.78,7.49,2.54s5,1.44,7.47,2,4.91,1.12,7.3,1.57,4.72.83,7,1.14,4.42.56,6.48.76,4,.32,5.84.41q.79,0,1.57,0t1.53-.07q.76-.06,1.49-.17t1.44-.26q.71-.15,1.39-.36t1.33-.45c1.75-.66,5.51-4.17,6.13-4.57,0,8.15-4.58,25.13-11.4,30.7-4.17,3.4-12.15,2.32-17.07,1.82-28.94-2.94-75.17-21.15-86-50.36C2.43,53.64,2.19,36.47,1.31,32.1,7.88,49.79,34.13,65.87,47.2,72.62,49.48,73.93,51.84,75.15,54.24,76.26Z"/>
    <path class="cls-5"
          d="M101.52,86.4c-1.75-.08-3.63-.21-5.61-.39s-4.07-.42-6.23-.73-4.4-.67-6.7-1.1-4.64-.93-7-1.51-4.78-1.23-7.19-2S64,79.17,61.57,78.27l-2.25-.87,41.48-23.95q.78.65,1.51,1.3a55.56,55.56,0,0,1,4.23,4.16,48.66,48.66,0,0,1,3.39,4.15,42.34,42.34,0,0,1,2.62,4.05A36.55,36.55,0,0,1,114.46,71a30.42,30.42,0,0,1,1.26,3.6,23.9,23.9,0,0,1,.68,3.24,4.7,4.7,0,0,1,0,.87,4.61,4.61,0,0,1-.12.85,4.89,4.89,0,0,1-.28.83,5.58,5.58,0,0,1-.44.8,6.72,6.72,0,0,1-.59.77,8.48,8.48,0,0,1-.75.74,10.71,10.71,0,0,1-.9.7q-.49.34-1,.67t-1.16.6c-.4.19-.8.36-1.22.52s-.84.3-1.28.43-.88.24-1.34.34-.92.18-1.39.25-.95.12-1.43.16-1,.06-1.47.07S102,86.42,101.52,86.4Z"/>
    <path class="cls-6"
          d="M54.24,76.26l7.4-3.71c2.48.93,5,1.78,7.49,2.54s5,1.44,7.47,2,4.91,1.12,7.3,1.57,4.72.83,7,1.14,4.42.56,6.48.76,4,.32,5.84.41q.79,0,1.57,0t1.53-.07q.76-.06,1.49-.17t1.44-.26q.71-.15,1.39-.36t1.33-.45c1.75-.66,5.51-4.17,6.13-4.57,0,8.15-4.58,25.13-11.4,30.7-4.17,3.4-12.15,2.32-17.07,1.82-28.94-2.94-75.17-21.15-86-50.36C2.43,53.64,2.19,36.47,1.31,32.1,7.88,49.79,34.13,65.87,47.2,72.62,49.48,73.93,51.84,75.15,54.24,76.26Z"/>
    <path class="cls-3"
          d="M113.25,95.86s-15.78,12.6-99-22c0,0,21.13,23.44,63.28,31.91,0,0,22.13,5.65,29.15.1C106.65,105.85,112.28,101,113.25,95.86Z"/>
    <path class="cls-7"
          d="M83.66,106.88l-.37-.06-.1-1.19-.16,0-.16,0,.1,1.13-.37-.06-.1-1.18a.52.52,0,0,1,0-.06l-.06-.05a.9.9,0,0,1-.29-.58l-.08-1a.76.76,0,0,1,.19-.58l.05-.05v0l-.13-1.59a.54.54,0,0,1,0-.06l-.06-.05a.9.9,0,0,1-.29-.58l-.08-1a.76.76,0,0,1,.19-.58l.05-.05v0l-.13-1.59a.54.54,0,0,1,0-.06l-.06-.05a.9.9,0,0,1-.29-.58l-.08-1a.76.76,0,0,1,.19-.58l.05-.05v0l-.13-1.59a.56.56,0,0,1,0-.06l-.06-.05a.9.9,0,0,1-.29-.58l-.08-1a.76.76,0,0,1,.19-.58l.05-.05v0l-.13-1.59a.52.52,0,0,1,0-.06l-.06-.05a.9.9,0,0,1-.29-.58l-.08-1a.75.75,0,0,1,.75-.82.91.91,0,0,1,.89.82l.08,1a.76.76,0,0,1-.19.58l-.05.05v.06l.13,1.59s0,0,0,0l.06.05a.9.9,0,0,1,.29.58l.08,1a.76.76,0,0,1-.19.58l-.05.05v.06l.13,1.59a.46.46,0,0,1,0,0l.06.05a.9.9,0,0,1,.29.58l.08,1a.76.76,0,0,1-.19.58l-.05.05v.06L83,99.2s0,0,0,0l.06.05a.9.9,0,0,1,.29.58l.08,1a.76.76,0,0,1-.19.58l-.05.05v.06l.13,1.59s0,0,0,0l.06.05a.9.9,0,0,1,.29.58l.08,1a.76.76,0,0,1-.19.58l-.05.05v.06l.11,1.36Zm-1.82-19.2a.5.5,0,0,0-.34-.14.42.42,0,0,0-.42.46l.08,1a.5.5,0,0,0,.14.3.48.48,0,0,1,.33-.13.57.57,0,0,1,.36.13.42.42,0,0,0,.09-.3L82,88a.5.5,0,0,0-.16-.32Zm0,2.12-.16,0-.16,0,.11,1.35.16,0,.16,0-.11-1.35ZM82.34,92a.5.5,0,0,0-.13-.29.48.48,0,0,1-.34.14.57.57,0,0,1-.37-.14.42.42,0,0,0-.08.29l.08,1a.5.5,0,0,0,.14.3.48.48,0,0,1,.33-.13.57.57,0,0,1,.36.13.42.42,0,0,0,.09-.3l-.08-1Zm-.15,1.8-.16,0-.16,0L82,95.12l.16,0,.16,0-.11-1.35Zm.48,2.16a.5.5,0,0,0-.13-.29.48.48,0,0,1-.34.14.57.57,0,0,1-.37-.14.43.43,0,0,0-.08.29l.08,1a.5.5,0,0,0,.14.3.48.48,0,0,1,.33-.13.57.57,0,0,1,.36.13.43.43,0,0,0,.09-.3l-.08-1Zm-.15,1.8-.16,0-.16,0,.11,1.35.16,0,.16,0-.11-1.35ZM83,99.88a.5.5,0,0,0-.13-.29.48.48,0,0,1-.34.14.57.57,0,0,1-.37-.14.43.43,0,0,0-.08.29l.08,1a.5.5,0,0,0,.14.3.48.48,0,0,1,.33-.13.57.57,0,0,1,.36.13.43.43,0,0,0,.09-.3l-.08-1Zm-.15,1.8-.16,0-.16,0,.11,1.35.16,0,.16,0-.11-1.35Zm.48,2.16a.5.5,0,0,0-.13-.29.48.48,0,0,1-.34.14.57.57,0,0,1-.37-.14.43.43,0,0,0-.08.29l.08,1a.5.5,0,0,0,.14.3A.48.48,0,0,1,83,105a.57.57,0,0,1,.36.13.43.43,0,0,0,.09-.3Z"/>
    <path class="cls-5"
          d="M54.24,76.26l7.4-3.71c2.48.93,5,1.78,7.49,2.54s5,1.44,7.47,2,4.91,1.12,7.3,1.57,4.72.83,7,1.14,4.42.56,6.48.76,4,.32,5.84.41q.79,0,1.57,0t1.53-.07q.76-.06,1.49-.17t1.44-.26q.71-.15,1.39-.36t1.33-.45c1.75-.66,5.51-4.17,6.13-4.57,0,5-1.69,13.17-4.55,20.1-4.45,3.62-12.95,2.47-18.19,1.93C64.48,94,13.8,74.2,2.23,43.08,2,38.43,1.69,34,1.31,32.1,7.88,49.79,34.13,65.87,47.2,72.62,49.48,73.93,51.84,75.15,54.24,76.26Z"/>
    <path class="cls-8"
          d="M82.68,95.18l-.37-.08-.11-1.34-.16,0-.16,0L82,95l-.37-.08-.11-1.3a.56.56,0,0,1,0-.06l-.06-.05a.9.9,0,0,1-.29-.58l-.08-1a.76.76,0,0,1,.19-.58l.05-.05v0l-.13-1.59a.52.52,0,0,1,0-.06l-.06-.05a.9.9,0,0,1-.29-.58l-.08-1a.75.75,0,0,1,.75-.82.91.91,0,0,1,.89.82l.08,1a.76.76,0,0,1-.19.58l-.05.05v.06l.13,1.59s0,0,0,0l.06.05a.9.9,0,0,1,.29.58l.08,1a.76.76,0,0,1-.19.58l-.05.05v.06l.13,1.52Zm-.83-7.5a.5.5,0,0,0-.34-.14.42.42,0,0,0-.42.46l.08,1a.5.5,0,0,0,.14.3.48.48,0,0,1,.33-.13.57.57,0,0,1,.36.13.42.42,0,0,0,.09-.3L82,88a.5.5,0,0,0-.16-.32Zm0,2.12-.16,0-.16,0,.11,1.35.16,0,.16,0-.11-1.35ZM82.34,92a.5.5,0,0,0-.13-.29.48.48,0,0,1-.34.14.57.57,0,0,1-.37-.14.42.42,0,0,0-.08.29l.08,1a.5.5,0,0,0,.14.3.48.48,0,0,1,.33-.13.57.57,0,0,1,.36.13.42.42,0,0,0,.09-.3Z"/>
    <path class="cls-9"
          d="M103.18,81c-1.82-.08-3.78-.21-5.84-.41s-4.23-.44-6.48-.76-4.58-.69-7-1.14-4.83-1-7.3-1.57-5-1.28-7.47-2-5-1.61-7.49-2.54l-7.36,3.73c-2.41-1.12-4.68-2-7-3.32-1.63-.84-3.57-2.17-5.56-3.29s-4.11-2.37-6.31-3.74S31,63.08,28.67,61.5s-4.6-3.27-6.85-5-4.46-3.62-6.55-5.55a78.39,78.39,0,0,1-5.86-6,53,53,0,0,1-4.78-6.3A34.58,34.58,0,0,1,1.31,32.1l1.32-.74,1.32-.74,1.32-.74,1.32-.74,1.32-.74,1.32-.74,1.32-.74,1.32-.74,1.29-.76,1.29-.76,1.29-.76L17,23.11l1.29-.76,1.29-.76,1.29-.76,1.29-.76c3.83.47,7.62,1.13,11.33,1.92s7.36,1.73,10.91,2.76,7,2.18,10.34,3.38,6.54,2.48,9.61,3.78,6,2.63,8.72,4,5.31,2.64,7.67,3.91,4.53,2.5,6.47,3.64,3.65,2.21,5.11,3.15c2.14,1.24,3.93,2.4,5.77,3.7l2.79-1.59,3.12-.58a57.81,57.81,0,0,1,4.4,4.33,50.59,50.59,0,0,1,3.53,4.31,44.2,44.2,0,0,1,2.72,4.21,38,38,0,0,1,2,4,31.67,31.67,0,0,1,1.31,3.74,24.87,24.87,0,0,1,.7,3.37,5,5,0,0,1,0,.91,4.76,4.76,0,0,1-.13.88,5,5,0,0,1-.29.86,5.77,5.77,0,0,1-.46.83,7,7,0,0,1-.62.8,8.74,8.74,0,0,1-.78.77,11.2,11.2,0,0,1-.93.73q-.51.36-1.09.69t-1.2.63q-.62.29-1.27.54t-1.33.45q-.68.2-1.39.36t-1.44.26q-.73.11-1.49.17t-1.53.07q-.78,0-1.57,0ZM23.61,22.2l-1.15.68-1.15.68-1.15.68L19,24.92l-1.15.68-1.15.68L15.57,27l-1.15.68-1.18.66L12.07,29l-1.18.66-1.18.66L8.53,31l-1.18.66-1.18.66L5,32.94a31.6,31.6,0,0,0,1.43,3q.81,1.48,1.78,2.95t2.1,2.91q1.13,1.44,2.39,2.86t2.64,2.81q1.38,1.39,2.86,2.75t3,2.67q1.56,1.32,3.19,2.6,1.34,1.05,2.75,2.1t2.87,2.08q1.47,1,3,2.05t3.09,2q1.57,1,3.18,2t3.25,1.92q1.64.95,3.31,1.86t3.36,1.79h.17q1.52.88,3.12,1.71t3.25,1.61l6.86-3.9q1.77.68,3.59,1.3t3.68,1.2q1.86.57,3.76,1.1t3.84,1q1.52.37,3.07.71t3.14.65q1.58.31,3.18.58t3.21.51q1.61.24,3.23.44t3.23.36q1.61.16,3.21.28t3.17.19q.67,0,1.31,0t1.26-.07q.61-.06,1.2-.15t1.14-.23q.56-.13,1.08-.3t1-.36q.5-.2,1-.42t.9-.48q.43-.25.82-.52t.73-.56a7.41,7.41,0,0,0,.62-.59,5.8,5.8,0,0,0,.51-.63,4.7,4.7,0,0,0,.39-.66,4,4,0,0,0,.26-.69,3.72,3.72,0,0,0,.12-.73,3.83,3.83,0,0,0,0-.76q-.12-.91-.32-1.83t-.48-1.85q-.28-.93-.62-1.86t-.76-1.86q-.41-.93-.89-1.85t-1-1.84q-.53-.91-1.12-1.81t-1.23-1.77Q108,56.14,107.12,55t-1.9-2.17q-1-1.08-2.08-2.13l-2.25-2.07-5,2.85q-1.35-1-2.78-1.88t-3-1.8h-.16q-1.51-1-3.09-1.94t-3.22-1.91Q82,42.94,80.31,42t-3.42-1.83q-1.73-.9-3.5-1.78t-3.56-1.72Q68,35.82,66.24,35t-3.63-1.59q-2.21-.94-4.5-1.84t-4.63-1.76q-2.35-.85-4.76-1.65t-4.86-1.52q-2.46-.73-5-1.38t-5-1.21q-2.54-.56-5.1-1T23.61,22.2Z"/>
    <path class="cls-5"
          d="M72.16,32.43V54.91l0,.26,0,.26-.07.26-.09.25-.11.25-.13.24-.15.24-.18.23-.2.23-.22.22-.24.21-.27.21-.29.2-.31.19-12.16,7-.33.18-.35.17-.36.15-.37.14-.38.13-.4.11-.41.1-.41.09-.42.08-.43.06-.44.05-.44,0-.45,0H51.12l-.46,0-.46,0-.46-.05-.46-.06-.46-.08-.45-.09-.45-.1L47.47,66,47,65.84l-.44-.14-.43-.15-.42-.16-.41-.17-.4-.19-.39-.2-.38-.21L16.72,48.79l-1.19-1.17v-22L44.16,42.15l.38.21.39.2.4.19.41.17.42.16.43.15.44.14.44.12.45.11.45.1.45.09.46.08.46.06.46.05.46,0,.46,0h1.37l.45,0,.44,0,.44-.05.43-.06.42-.08.41-.09.41-.1.4-.11.38-.13.37-.14.36-.15.35-.17.33-.18,12.16-7,.31-.19.29-.2.27-.21.24-.21.22-.22.2-.23.18-.23L71.7,34l.13-.24.11-.25.09-.25.07-.26,0-.26Z"/>
    <path class="cls-5"
          d="M69.83,35.69l-12.16,7c-3.45,2-9.53,1.74-13.51-.56L15.53,25.62l24.7-14.26L68.86,27.89C72.85,30.19,73.28,33.7,69.83,35.69Z"/>
    <path class="cls-10"
          d="M72.16,35.65v9.09l0,.26,0,.26-.07.26-.09.25-.11.25-.13.24-.15.24-.18.23-.2.23-.22.22-.24.21-.27.21-.29.2-.31.19-3.3,1.91-1.48.85a.51.51,0,0,1-.77-.45V41.88A1.34,1.34,0,0,1,65,40.7l4.1-2.37.76-.44.31-.19.29-.2.27-.21.24-.21.22-.22.2-.23.18-.23.15-.24.13-.24.11-.25h.22Z"/>
    <path class="cls-10"
          d="M62.11,52.46,57.68,55l-.33.18-.35.17-.36.15-.37.14-.38.13-.4.11-.41.1-.41.09-.42.08-.43.06-.44.05-.44,0-.45,0H52c-.59,0-1.15,0-1.72-.07a.86.86,0,0,1-.78-.85V47a.86.86,0,0,1,.92-.86c.37,0,.74,0,1.13.06h.91l.45,0,.44,0,.44-.05.43-.06.42-.08.41-.09.41-.1.4-.11.38-.13.37-.14.36-.15.35-.17.33-.18,3.84-2.22a.86.86,0,0,1,1.29.74v7.84A1.34,1.34,0,0,1,62.11,52.46Z"/>
    <path class="cls-1"
          d="M69.83,35.69l-12.16,7c-3.45,2-9.53,1.74-13.51-.56L15.53,25.62l24.7-14.26L68.86,27.89C72.85,30.19,73.28,33.7,69.83,35.69Z"/>
    <polygon class="cls-11"
             points="73.84 27.98 73.94 27.84 74.1 27.61 74.23 27.36 74.34 27.11 74.43 26.86 74.49 26.6 74.53 26.34 74.56 26.08 73.84 27.98"/>
    <polygon class="cls-11"
             points="73.57 28.31 73.34 28.53 73.1 28.74 72.83 28.95 72.54 29.15 72.23 29.34 60.08 36.36 59.74 36.54 59.4 36.71 59.04 36.86 58.67 37 58.28 37.13 57.89 37.24 57.48 37.35 57.07 37.44 56.65 37.51 56.21 37.58 55.78 37.63 55.33 37.66 54.88 37.69 54.43 37.7 53.98 37.7 53.52 37.69 53.06 37.66 52.6 37.63 52.14 37.58 51.68 37.51 51.22 37.44 50.77 37.35 50.31 37.25 49.87 37.14 49.43 37.01 48.99 36.88 48.56 36.73 48.14 36.57 47.73 36.39 47.33 36.21 46.94 36.01 46.56 35.8 29.84 26.15 29.84 33.88 44.16 42.15 44.54 42.36 44.93 42.55 45.33 42.74 45.74 42.91 46.16 43.08 46.59 43.22 47.03 43.36 47.47 43.49 47.91 43.6 48.37 43.7 48.82 43.79 49.28 43.86 49.74 43.92 50.2 43.97 50.66 44.01 51.12 44.04 51.58 44.05 52.03 44.05 52.49 44.04 52.93 44.01 53.38 43.98 53.81 43.92 54.25 43.86 54.67 43.78 55.08 43.7 55.49 43.59 55.88 43.48 56.27 43.35 56.64 43.21 57 43.05 57.34 42.89 57.68 42.71 69.83 35.69 70.14 35.5 70.43 35.3 70.7 35.09 70.94 34.88 71.17 34.66 71.37 34.43 71.54 34.19 71.7 33.95 71.83 33.71 71.94 33.46 72.03 33.21 72.09 32.95 72.14 32.69 72.16 32.43 73.84 27.98 73.77 28.08 73.57 28.31"/>
    <polygon class="cls-9"
             points="42.9 62.86 43.73 62.38 43.89 62.28 44.02 62.13 44.09 61.92 44.12 61.67 44.12 42.77 44.11 42.63 44.09 42.49 44.06 42.35 44.02 42.2 43.96 42.05 43.89 41.9 43.82 41.76 43.73 41.61 43.64 41.47 43.53 41.34 43.42 41.21 43.31 41.09 43.19 40.97 43.06 40.86 42.93 40.77 42.8 40.68 37.39 37.56 37.13 37.44 36.88 37.37 36.65 37.36 36.45 37.41 35.63 37.89 35.83 37.84 36.05 37.85 36.3 37.91 36.56 38.04 41.97 41.16 42.1 41.25 42.23 41.34 42.36 41.45 42.48 41.56 42.6 41.69 42.71 41.81 42.81 41.95 42.9 42.09 42.99 42.23 43.07 42.38 43.13 42.53 43.19 42.68 43.23 42.82 43.27 42.97 43.29 43.11 43.29 43.25 43.29 62.15 43.27 62.4 43.19 62.61 43.07 62.76 42.9 62.86"/>
    <path class="cls-12"
          d="M35.24,38.6V57.5a2.76,2.76,0,0,0,1.33,2.09L42,62.71c.73.42,1.33.17,1.33-.56V43.25A2.76,2.76,0,0,0,42,41.16L36.56,38C35.84,37.62,35.24,37.87,35.24,38.6Z"/>
    <path class="cls-9"
          d="M40.65,43.81a7.76,7.76,0,0,1,1.82,6.78,2.47,2.47,0,0,1-1.58,1.93,2.47,2.47,0,0,1-2.33-.88,7.76,7.76,0,0,1-1.82-6.78,2.47,2.47,0,0,1,1.58-1.93A2.47,2.47,0,0,1,40.65,43.81Z"/>
    <path class="cls-9"
          d="M40.63,43.81a7.7,7.7,0,0,1,1.8,6.73,2.45,2.45,0,0,1-1.57,1.92,2.45,2.45,0,0,1-2.32-.87,7.7,7.7,0,0,1-1.8-6.73,2.45,2.45,0,0,1,1.57-1.92A2.45,2.45,0,0,1,40.63,43.81Z"/>
    <path class="cls-9"
          d="M40.61,43.81a7.65,7.65,0,0,1,1.79,6.69,2.43,2.43,0,0,1-1.56,1.9,2.43,2.43,0,0,1-2.3-.87,7.65,7.65,0,0,1-1.79-6.69,2.43,2.43,0,0,1,1.56-1.9A2.43,2.43,0,0,1,40.61,43.81Z"/>
    <path class="cls-9"
          d="M40.6,43.81a7.59,7.59,0,0,1,1.78,6.64,2.41,2.41,0,0,1-1.55,1.89,2.41,2.41,0,0,1-2.28-.86,7.59,7.59,0,0,1-1.78-6.64,2.41,2.41,0,0,1,1.55-1.89A2.41,2.41,0,0,1,40.6,43.81Z"/>
    <path class="cls-9"
          d="M40.58,43.81a7.54,7.54,0,0,1,1.77,6.59,2.4,2.4,0,0,1-1.54,1.87,2.4,2.4,0,0,1-2.27-.86,7.54,7.54,0,0,1-1.77-6.59A2.4,2.4,0,0,1,38.31,43,2.4,2.4,0,0,1,40.58,43.81Z"/>
    <path class="cls-9"
          d="M40.56,43.81a7.49,7.49,0,0,1,1.75,6.54,2.38,2.38,0,0,1-1.53,1.86,2.38,2.38,0,0,1-2.25-.85,7.49,7.49,0,0,1-1.75-6.54A2.38,2.38,0,0,1,38.31,43,2.38,2.38,0,0,1,40.56,43.81Z"/>
    <path class="cls-9"
          d="M40.54,43.81a7.43,7.43,0,0,1,1.74,6.49,2.36,2.36,0,0,1-1.51,1.85,2.36,2.36,0,0,1-2.24-.84,7.43,7.43,0,0,1-1.74-6.49A2.36,2.36,0,0,1,38.31,43,2.36,2.36,0,0,1,40.54,43.81Z"/>
    <path class="cls-9"
          d="M40.52,43.81a7.38,7.38,0,0,1,1.73,6.45,2.34,2.34,0,0,1-1.5,1.83,2.35,2.35,0,0,1-2.22-.84A7.38,7.38,0,0,1,36.8,44.8,2.35,2.35,0,0,1,38.31,43,2.35,2.35,0,0,1,40.52,43.81Z"/>
    <path class="cls-9"
          d="M40.51,43.81a7.32,7.32,0,0,1,1.71,6.4A2.33,2.33,0,0,1,40.73,52a2.33,2.33,0,0,1-2.2-.83,7.32,7.32,0,0,1-1.71-6.4A2.33,2.33,0,0,1,38.3,43,2.33,2.33,0,0,1,40.51,43.81Z"/>
    <path class="cls-9"
          d="M40.49,43.81a7.27,7.27,0,0,1,1.7,6.35A2.31,2.31,0,0,1,40.71,52a2.31,2.31,0,0,1-2.19-.82,7.27,7.27,0,0,1-1.7-6.35A2.31,2.31,0,0,1,38.3,43,2.31,2.31,0,0,1,40.49,43.81Z"/>
    <path class="cls-9"
          d="M40.47,43.81a7.21,7.21,0,0,1,1.69,6.3,2.29,2.29,0,0,1-1.47,1.79,2.29,2.29,0,0,1-2.17-.82,7.21,7.21,0,0,1-1.69-6.3A2.29,2.29,0,0,1,38.3,43,2.29,2.29,0,0,1,40.47,43.81Z"/>
    <path class="cls-9"
          d="M40.45,43.81a7.16,7.16,0,0,1,1.68,6.26,2.28,2.28,0,0,1-1.46,1.78A2.28,2.28,0,0,1,38.52,51a7.16,7.16,0,0,1-1.68-6.26A2.28,2.28,0,0,1,38.3,43,2.28,2.28,0,0,1,40.45,43.81Z"/>
    <path class="cls-9"
          d="M40.43,43.81A7.1,7.1,0,0,1,42.1,50a2.26,2.26,0,0,1-1.45,1.77A2.26,2.26,0,0,1,38.51,51a7.1,7.1,0,0,1-1.66-6.21A2.26,2.26,0,0,1,38.3,43,2.26,2.26,0,0,1,40.43,43.81Z"/>
    <path class="cls-9"
          d="M40.42,43.81A7,7,0,0,1,42.07,50a1.94,1.94,0,0,1-3.56,1,7,7,0,0,1-1.65-6.16A2.24,2.24,0,0,1,38.3,43,2.24,2.24,0,0,1,40.42,43.81Z"/>
    <path class="cls-9"
          d="M40.4,43.81A7,7,0,0,1,42,49.92a1.93,1.93,0,0,1-3.53.95,7,7,0,0,1-1.64-6.11A2.22,2.22,0,0,1,38.29,43,2.22,2.22,0,0,1,40.4,43.81Z"/>
    <path class="cls-9"
          d="M40.38,43.81A6.94,6.94,0,0,1,42,49.87a1.91,1.91,0,0,1-3.5.94,6.94,6.94,0,0,1-1.63-6.07A2.21,2.21,0,0,1,38.29,43,2.21,2.21,0,0,1,40.38,43.81Z"/>
    <path class="cls-9"
          d="M40.36,43.81a6.89,6.89,0,0,1,1.61,6,1.9,1.9,0,0,1-3.47.93,6.89,6.89,0,0,1-1.61-6A2.19,2.19,0,0,1,38.29,43,2.19,2.19,0,0,1,40.36,43.81Z"/>
    <path class="cls-9"
          d="M40.34,43.81a6.83,6.83,0,0,1,1.6,6,1.88,1.88,0,0,1-3.45.92,6.83,6.83,0,0,1-1.6-6,1.88,1.88,0,0,1,3.45-.92Z"/>
    <path class="cls-9"
          d="M40.33,43.81a6.78,6.78,0,0,1,1.59,5.92,1.87,1.87,0,0,1-3.42.92,6.78,6.78,0,0,1-1.59-5.92,1.87,1.87,0,0,1,3.42-.92Z"/>
    <path class="cls-9"
          d="M40.31,43.81a6.72,6.72,0,0,1,1.57,5.88,1.85,1.85,0,0,1-3.39.91,6.72,6.72,0,0,1-1.57-5.88,1.85,1.85,0,0,1,3.39-.91Z"/>
    <path class="cls-9"
          d="M40.29,43.81a6.67,6.67,0,0,1,1.56,5.83,1.84,1.84,0,0,1-3.36.9,6.67,6.67,0,0,1-1.56-5.83,1.84,1.84,0,0,1,3.36-.9Z"/>
    <path class="cls-9"
          d="M40.27,43.81a6.61,6.61,0,0,1,1.55,5.78,1.82,1.82,0,0,1-3.34.89,6.61,6.61,0,0,1-1.55-5.78,1.82,1.82,0,0,1,3.34-.89Z"/>
    <path class="cls-9"
          d="M40.26,43.81a6.59,6.59,0,0,1,1.54,5.76,1.82,1.82,0,0,1-3.32.89,6.59,6.59,0,0,1-1.54-5.76,1.82,1.82,0,0,1,3.32-.89Z"/>
    <path class="cls-9"
          d="M40.25,43.81a6.56,6.56,0,0,1,1.54,5.73,1.81,1.81,0,0,1-3.31.89,6.56,6.56,0,0,1-1.54-5.73,1.81,1.81,0,0,1,3.31-.89Z"/>
    <path class="cls-9"
          d="M40.25,43.81a6.53,6.53,0,0,1,1.53,5.71,1.8,1.8,0,0,1-3.3.88,6.53,6.53,0,0,1-1.53-5.71,1.8,1.8,0,0,1,3.3-.88Z"/>
    <path class="cls-9"
          d="M40.24,43.81a6.5,6.5,0,0,1,1.52,5.68,1.79,1.79,0,0,1-3.28.88A6.51,6.51,0,0,1,37,44.69a1.79,1.79,0,0,1,3.28-.88Z"/>
    <path class="cls-9"
          d="M40.23,43.81a6.48,6.48,0,0,1,1.52,5.66,1.79,1.79,0,0,1-3.27.88A6.48,6.48,0,0,1,37,44.69a1.79,1.79,0,0,1,3.27-.88Z"/>
    <path class="cls-9"
          d="M40.22,43.81a6.45,6.45,0,0,1,1.51,5.64,1.78,1.78,0,0,1-3.25.87A6.45,6.45,0,0,1,37,44.68a1.78,1.78,0,0,1,3.25-.87Z"/>
    <path class="cls-9"
          d="M40.21,43.81a6.42,6.42,0,0,1,1.5,5.61,1.77,1.77,0,0,1-3.24.87A6.42,6.42,0,0,1,37,44.68a1.77,1.77,0,0,1,3.24-.87Z"/>
    <path class="cls-9"
          d="M40.2,43.81a6.4,6.4,0,0,1,1.5,5.59,1.76,1.76,0,0,1-3.23.86A6.4,6.4,0,0,1,37,44.67a1.76,1.76,0,0,1,3.23-.86Z"/>
    <path class="cls-9"
          d="M40.19,43.81a6.37,6.37,0,0,1,1.49,5.57,1.76,1.76,0,0,1-3.21.86A6.37,6.37,0,0,1,37,44.67a1.76,1.76,0,0,1,3.21-.86Z"/>
    <path class="cls-9"
          d="M40.18,43.81a6.34,6.34,0,0,1,1.48,5.54,1.75,1.75,0,0,1-3.2.86A6.34,6.34,0,0,1,37,44.67a1.75,1.75,0,0,1,3.2-.86Z"/>
    <path class="cls-9"
          d="M40.17,43.81a6.31,6.31,0,0,1,1.48,5.52,1.74,1.74,0,0,1-3.19.85A6.31,6.31,0,0,1,37,44.66a1.74,1.74,0,0,1,3.19-.85Z"/>
    <path class="cls-9"
          d="M40.16,43.81a6.29,6.29,0,0,1,1.47,5.49,1.73,1.73,0,0,1-3.17.85A6.29,6.29,0,0,1,37,44.66a1.73,1.73,0,0,1,3.17-.85Z"/>
    <path class="cls-9"
          d="M40.16,43.81a6.26,6.26,0,0,1,1.47,5.47,1.73,1.73,0,0,1-3.16.85A6.26,6.26,0,0,1,37,44.66a1.73,1.73,0,0,1,3.16-.85Z"/>
    <path class="cls-9"
          d="M40.15,43.81a6.23,6.23,0,0,1,1.46,5.45,1.72,1.72,0,0,1-3.14.84A6.23,6.23,0,0,1,37,44.65a1.72,1.72,0,0,1,3.14-.84Z"/>
    <path class="cls-9"
          d="M40.14,43.81a6.2,6.2,0,0,1,1.45,5.42,1.71,1.71,0,0,1-3.13.84A6.21,6.21,0,0,1,37,44.65a1.71,1.71,0,0,1,3.13-.84Z"/>
    <path class="cls-9"
          d="M40.13,43.81a6.18,6.18,0,0,1,1.45,5.4,1.7,1.7,0,0,1-3.12.84A6.18,6.18,0,0,1,37,44.65a1.7,1.7,0,0,1,3.12-.84Z"/>
    <path class="cls-9"
          d="M40.12,43.81a6.15,6.15,0,0,1,1.44,5.37,1.7,1.7,0,0,1-3.1.83A6.15,6.15,0,0,1,37,44.64a1.7,1.7,0,0,1,3.1-.83Z"/>
    <path class="cls-9"
          d="M40.11,43.81a6.12,6.12,0,0,1,1.43,5.35,1.69,1.69,0,0,1-3.09.83A6.12,6.12,0,0,1,37,44.64a1.69,1.69,0,0,1,3.09-.83Z"/>
    <path class="cls-9"
          d="M40.1,43.81a6.1,6.1,0,0,1,1.43,5.33,1.68,1.68,0,0,1-3.08.82A6.1,6.1,0,0,1,37,44.64a1.68,1.68,0,0,1,3.08-.82Z"/>
    <path class="cls-9"
          d="M40.09,43.81a6.07,6.07,0,0,1,1.42,5.3,1.67,1.67,0,0,1-3.06.82A6.07,6.07,0,0,1,37,44.63a1.67,1.67,0,0,1,3.06-.82Z"/>
    <path class="cls-9"
          d="M40.08,43.81a6,6,0,0,1,1.41,5.28,1.67,1.67,0,0,1-3,.82A6,6,0,0,1,37,44.63a1.67,1.67,0,0,1,3-.82Z"/>
    <polygon class="cls-13"
             points="37.55 43.03 38.2 42.86 38.31 42.83 38.42 42.82 38.54 42.81 38.66 42.81 38.77 42.83 38.9 42.85 39.02 42.88 39.14 42.92 39.27 42.97 39.39 43.03 39.52 43.1 39.64 43.18 39.77 43.27 39.89 43.37 40.02 43.47 40.14 43.59 40.26 43.72 40.38 43.85 40.5 43.99 40.61 44.14 40.71 44.29 40.81 44.45 40.91 44.61 41 44.78 41.09 44.95 41.18 45.13 41.26 45.31 41.33 45.49 41.4 45.67 41.46 45.86 41.52 46.05 41.58 46.24 41.63 46.43 41.67 46.63 41.71 46.82 41.74 47.02 41.77 47.21 41.79 47.41 41.8 47.6 41.81 47.79 41.81 47.98 41.81 48.17 41.8 48.36 41.79 48.54 41.76 48.73 41.73 48.9 41.7 49.08 41.66 49.25 41.56 49.57 41.43 49.86 41.29 50.11 41.13 50.33 40.95 50.52 40.76 50.67 40.55 50.78 40.34 50.86 39.7 51.03 39.91 50.95 40.12 50.84 40.31 50.69 40.49 50.51 40.65 50.29 40.79 50.03 40.91 49.74 41.02 49.42 41.06 49.25 41.09 49.08 41.12 48.9 41.15 48.72 41.16 48.53 41.17 48.34 41.17 48.15 41.17 47.96 41.16 47.77 41.15 47.58 41.13 47.38 41.1 47.19 41.07 46.99 41.03 46.8 40.98 46.6 40.94 46.41 40.88 46.22 40.82 46.03 40.76 45.84 40.69 45.66 40.61 45.48 40.53 45.3 40.45 45.12 40.36 44.95 40.27 44.78 40.17 44.62 40.07 44.47 39.97 44.31 39.85 44.17 39.74 44.03 39.62 43.89 39.5 43.77 39.38 43.65 39.25 43.54 39.13 43.44 39 43.35 38.88 43.27 38.75 43.2 38.63 43.14 38.5 43.09 38.38 43.05 38.26 43.02 38.13 43 38.02 42.99 37.9 42.98 37.78 42.99 37.67 43.01 37.55 43.03"/>
    <path class="cls-5"
          d="M39.5,43.76A6.47,6.47,0,0,1,41,49.42a1.78,1.78,0,0,1-3.27.88,6.47,6.47,0,0,1-1.52-5.66,1.78,1.78,0,0,1,3.27-.88Z"/>
    <path class="cls-14"
          d="M39.23,44.78a4.45,4.45,0,0,1,1,3.89,1.23,1.23,0,0,1-2.25.6,4.45,4.45,0,0,1-1-3.89,1.23,1.23,0,0,1,2.25-.6Z"/>
    <path class="cls-10"
          d="M39.23,44.78a4.46,4.46,0,0,1,1,3.89,1.87,1.87,0,0,1-.41.79,1.46,1.46,0,0,1-1.27-.52,4.45,4.45,0,0,1-1-3.89,1.88,1.88,0,0,1,.41-.79A1.46,1.46,0,0,1,39.23,44.78Z"/>
    <path class="cls-10"
          d="M39.23,44.78a4.46,4.46,0,0,1,1,3.89,2.22,2.22,0,0,1-.19.49,2,2,0,0,1-.64-.44,4.45,4.45,0,0,1-1-3.89,2.23,2.23,0,0,1,.19-.49A2,2,0,0,1,39.23,44.78Z"/>
    <path class="cls-1"
          d="M21.71,35.3a7.76,7.76,0,0,1,1.82,6.78A2.47,2.47,0,0,1,21.94,44a2.47,2.47,0,0,1-2.33-.88,7.76,7.76,0,0,1-1.82-6.78,2.47,2.47,0,0,1,1.58-1.93A2.47,2.47,0,0,1,21.71,35.3Z"/>
    <path class="cls-1"
          d="M21.69,35.3A7.7,7.7,0,0,1,23.49,42a2.45,2.45,0,0,1-1.57,1.92,2.45,2.45,0,0,1-2.32-.87,7.7,7.7,0,0,1-1.8-6.73,2.45,2.45,0,0,1,1.57-1.92A2.45,2.45,0,0,1,21.69,35.3Z"/>
    <path class="cls-1"
          d="M21.67,35.3A7.65,7.65,0,0,1,23.46,42a2.43,2.43,0,0,1-1.56,1.9A2.43,2.43,0,0,1,19.6,43a7.65,7.65,0,0,1-1.79-6.69,2.43,2.43,0,0,1,1.56-1.9A2.43,2.43,0,0,1,21.67,35.3Z"/>
    <path class="cls-1"
          d="M21.65,35.3a7.59,7.59,0,0,1,1.78,6.64,2.41,2.41,0,0,1-1.55,1.89A2.41,2.41,0,0,1,19.6,43a7.59,7.59,0,0,1-1.78-6.64,2.41,2.41,0,0,1,1.55-1.89A2.41,2.41,0,0,1,21.65,35.3Z"/>
    <path class="cls-1"
          d="M21.63,35.3a7.54,7.54,0,0,1,1.77,6.59,2.4,2.4,0,0,1-1.54,1.87,2.4,2.4,0,0,1-2.27-.86,7.54,7.54,0,0,1-1.77-6.59,2.4,2.4,0,0,1,1.54-1.87A2.4,2.4,0,0,1,21.63,35.3Z"/>
    <path class="cls-1"
          d="M21.62,35.3a7.49,7.49,0,0,1,1.75,6.54,2.38,2.38,0,0,1-1.53,1.86,2.38,2.38,0,0,1-2.25-.85,7.49,7.49,0,0,1-1.75-6.54,2.38,2.38,0,0,1,1.53-1.86A2.38,2.38,0,0,1,21.62,35.3Z"/>
    <path class="cls-1"
          d="M21.6,35.3a7.43,7.43,0,0,1,1.74,6.49,2.36,2.36,0,0,1-1.51,1.85,2.36,2.36,0,0,1-2.24-.84,7.43,7.43,0,0,1-1.74-6.49,2.36,2.36,0,0,1,1.51-1.85A2.36,2.36,0,0,1,21.6,35.3Z"/>
    <path class="cls-1"
          d="M21.58,35.3a7.38,7.38,0,0,1,1.73,6.45,2.34,2.34,0,0,1-1.5,1.83,2.35,2.35,0,0,1-2.22-.84,7.38,7.38,0,0,1-1.73-6.45,2.35,2.35,0,0,1,1.5-1.83A2.35,2.35,0,0,1,21.58,35.3Z"/>
    <path class="cls-1"
          d="M21.56,35.3a7.32,7.32,0,0,1,1.71,6.4,2.33,2.33,0,0,1-1.49,1.82,2.33,2.33,0,0,1-2.2-.83,7.32,7.32,0,0,1-1.71-6.4,2.33,2.33,0,0,1,1.49-1.82A2.33,2.33,0,0,1,21.56,35.3Z"/>
    <path class="cls-1"
          d="M21.54,35.3a7.27,7.27,0,0,1,1.7,6.35,2.31,2.31,0,0,1-1.48,1.81,2.31,2.31,0,0,1-2.19-.82,7.27,7.27,0,0,1-1.7-6.35,2.31,2.31,0,0,1,1.48-1.81A2.31,2.31,0,0,1,21.54,35.3Z"/>
    <path class="cls-1"
          d="M21.52,35.3a7.21,7.21,0,0,1,1.69,6.3,2.29,2.29,0,0,1-1.47,1.79,2.29,2.29,0,0,1-2.17-.82,7.21,7.21,0,0,1-1.69-6.3,2.29,2.29,0,0,1,1.47-1.79A2.29,2.29,0,0,1,21.52,35.3Z"/>
    <path class="cls-1"
          d="M21.51,35.3a7.16,7.16,0,0,1,1.68,6.26,2.28,2.28,0,0,1-1.46,1.78,2.28,2.28,0,0,1-2.15-.81,7.16,7.16,0,0,1-1.68-6.26,2.28,2.28,0,0,1,1.46-1.78A2.28,2.28,0,0,1,21.51,35.3Z"/>
    <path class="cls-1"
          d="M21.49,35.3a7.1,7.1,0,0,1,1.66,6.21,2.26,2.26,0,0,1-1.45,1.77,2.26,2.26,0,0,1-2.14-.81,7.1,7.1,0,0,1-1.66-6.21,2.26,2.26,0,0,1,1.45-1.77A2.26,2.26,0,0,1,21.49,35.3Z"/>
    <path class="cls-1"
          d="M21.47,35.3a7,7,0,0,1,1.65,6.16,2.24,2.24,0,0,1-1.44,1.75,2.24,2.24,0,0,1-2.12-.8,7,7,0,0,1-1.65-6.16,2.24,2.24,0,0,1,1.44-1.75A2.24,2.24,0,0,1,21.47,35.3Z"/>
    <path class="cls-1"
          d="M21.45,35.3a7,7,0,0,1,1.64,6.11,2.22,2.22,0,0,1-1.43,1.74,2.22,2.22,0,0,1-2.1-.79,7,7,0,0,1-1.64-6.11,2.22,2.22,0,0,1,1.43-1.74A2.22,2.22,0,0,1,21.45,35.3Z"/>
    <path class="cls-1"
          d="M21.43,35.3a6.94,6.94,0,0,1,1.63,6.07,2.21,2.21,0,0,1-1.41,1.73,2.21,2.21,0,0,1-2.09-.79,6.94,6.94,0,0,1-1.63-6.07,2.21,2.21,0,0,1,1.41-1.73A2.21,2.21,0,0,1,21.43,35.3Z"/>
    <path class="cls-1"
          d="M21.42,35.3a6.89,6.89,0,0,1,1.61,6A2.19,2.19,0,0,1,21.63,43a2.19,2.19,0,0,1-2.07-.78,6.89,6.89,0,0,1-1.61-6,2.19,2.19,0,0,1,1.4-1.71A2.19,2.19,0,0,1,21.42,35.3Z"/>
    <path class="cls-1"
          d="M21.4,35.3a6.83,6.83,0,0,1,1.6,6A2.17,2.17,0,0,1,21.61,43a2.17,2.17,0,0,1-2.06-.77,6.83,6.83,0,0,1-1.6-6,2.17,2.17,0,0,1,1.39-1.7A2.17,2.17,0,0,1,21.4,35.3Z"/>
    <path class="cls-1"
          d="M21.38,35.3A6.78,6.78,0,0,1,23,41.22a2.15,2.15,0,0,1-1.38,1.68,2.15,2.15,0,0,1-2-.77A6.78,6.78,0,0,1,18,36.22a2.15,2.15,0,0,1,1.38-1.68A2.15,2.15,0,0,1,21.38,35.3Z"/>
    <path class="cls-1"
          d="M21.36,35.3a6.72,6.72,0,0,1,1.57,5.88,2.14,2.14,0,0,1-1.37,1.67,2.14,2.14,0,0,1-2-.76A6.72,6.72,0,0,1,18,36.21a2.14,2.14,0,0,1,1.37-1.67A2.14,2.14,0,0,1,21.36,35.3Z"/>
    <path class="cls-1"
          d="M21.34,35.3a6.67,6.67,0,0,1,1.56,5.83,2.12,2.12,0,0,1-1.36,1.66,2.12,2.12,0,0,1-2-.76A6.67,6.67,0,0,1,18,36.2a2.12,2.12,0,0,1,1.36-1.66A2.12,2.12,0,0,1,21.34,35.3Z"/>
    <path class="cls-1"
          d="M21.33,35.3a6.61,6.61,0,0,1,1.55,5.78,2.1,2.1,0,0,1-1.35,1.64,2.1,2.1,0,0,1-2-.75A6.61,6.61,0,0,1,18,36.19a2.1,2.1,0,0,1,1.35-1.64A2.1,2.1,0,0,1,21.33,35.3Z"/>
    <path class="cls-1"
          d="M21.32,35.3a6.59,6.59,0,0,1,1.54,5.76,2.09,2.09,0,0,1-1.34,1.64,2.09,2.09,0,0,1-2-.75A6.59,6.59,0,0,1,18,36.19a2.09,2.09,0,0,1,1.34-1.64A2.09,2.09,0,0,1,21.32,35.3Z"/>
    <path class="cls-1"
          d="M21.31,35.3A6.56,6.56,0,0,1,22.84,41a2.08,2.08,0,0,1-1.34,1.63,2.09,2.09,0,0,1-2-.74A6.56,6.56,0,0,1,18,36.19a2.08,2.08,0,0,1,1.34-1.63A2.09,2.09,0,0,1,21.31,35.3Z"/>
    <path class="cls-1"
          d="M21.3,35.3A6.53,6.53,0,0,1,22.83,41a2.08,2.08,0,0,1-1.33,1.62,2.08,2.08,0,0,1-2-.74A6.53,6.53,0,0,1,18,36.18a2.08,2.08,0,0,1,1.33-1.62A2.08,2.08,0,0,1,21.3,35.3Z"/>
    <path class="cls-1"
          d="M21.29,35.3A6.5,6.5,0,0,1,22.81,41a2.07,2.07,0,0,1-1.33,1.62,2.07,2.07,0,0,1-2-.74A6.5,6.5,0,0,1,18,36.18a2.07,2.07,0,0,1,1.33-1.62A2.07,2.07,0,0,1,21.29,35.3Z"/>
    <path class="cls-1"
          d="M21.28,35.3A6.48,6.48,0,0,1,22.8,41a2.06,2.06,0,0,1-1.32,1.61,2.06,2.06,0,0,1-1.95-.73A6.48,6.48,0,0,1,18,36.18a2.06,2.06,0,0,1,1.32-1.61A2.06,2.06,0,0,1,21.28,35.3Z"/>
    <path class="cls-1"
          d="M21.27,35.3a6.45,6.45,0,0,1,1.51,5.64,2.05,2.05,0,0,1-1.31,1.6,2.05,2.05,0,0,1-1.94-.73A6.45,6.45,0,0,1,18,36.17a2.05,2.05,0,0,1,1.31-1.6A2.05,2.05,0,0,1,21.27,35.3Z"/>
    <path class="cls-1"
          d="M21.26,35.3a6.42,6.42,0,0,1,1.5,5.61,2,2,0,0,1-1.31,1.6,2,2,0,0,1-1.93-.73A6.42,6.42,0,0,1,18,36.17a2,2,0,0,1,1.31-1.6A2,2,0,0,1,21.26,35.3Z"/>
    <path class="cls-1"
          d="M21.25,35.3a6.4,6.4,0,0,1,1.5,5.59,2,2,0,0,1-1.3,1.59,2,2,0,0,1-1.92-.73A6.4,6.4,0,0,1,18,36.17a2,2,0,0,1,1.3-1.59A2,2,0,0,1,21.25,35.3Z"/>
    <path class="cls-1"
          d="M21.25,35.3a6.37,6.37,0,0,1,1.49,5.57,2,2,0,0,1-1.3,1.58,2,2,0,0,1-1.92-.72A6.37,6.37,0,0,1,18,36.16a2,2,0,0,1,1.3-1.58A2,2,0,0,1,21.25,35.3Z"/>
    <path class="cls-1"
          d="M21.24,35.3a6.34,6.34,0,0,1,1.48,5.54,2,2,0,0,1-1.29,1.58,2,2,0,0,1-1.91-.72A6.34,6.34,0,0,1,18,36.16a2,2,0,0,1,1.29-1.58A2,2,0,0,1,21.24,35.3Z"/>
    <path class="cls-1"
          d="M21.23,35.3a6.31,6.31,0,0,1,1.48,5.52,2,2,0,0,1-1.29,1.57,2,2,0,0,1-1.9-.72A6.31,6.31,0,0,1,18,36.16a2,2,0,0,1,1.29-1.57A2,2,0,0,1,21.23,35.3Z"/>
    <path class="cls-1"
          d="M21.22,35.3a6.29,6.29,0,0,1,1.47,5.49,2,2,0,0,1-1.28,1.56,2,2,0,0,1-1.89-.71A6.29,6.29,0,0,1,18,36.15a2,2,0,0,1,1.28-1.56A2,2,0,0,1,21.22,35.3Z"/>
    <path class="cls-1"
          d="M21.21,35.3a6.26,6.26,0,0,1,1.47,5.47,2,2,0,0,1-1.28,1.56,2,2,0,0,1-1.88-.71,6.26,6.26,0,0,1-1.47-5.47,2,2,0,0,1,1.28-1.56A2,2,0,0,1,21.21,35.3Z"/>
    <path class="cls-1"
          d="M21.2,35.3a6.23,6.23,0,0,1,1.46,5.45,2,2,0,0,1-1.27,1.55,2,2,0,0,1-1.87-.71,6.23,6.23,0,0,1-1.46-5.45,2,2,0,0,1,1.27-1.55A2,2,0,0,1,21.2,35.3Z"/>
    <path class="cls-1"
          d="M21.19,35.3a6.2,6.2,0,0,1,1.45,5.42,2,2,0,0,1-1.26,1.54,2,2,0,0,1-1.87-.7,6.2,6.2,0,0,1-1.45-5.42,2,2,0,0,1,1.26-1.54A2,2,0,0,1,21.19,35.3Z"/>
    <path class="cls-1"
          d="M21.18,35.3a6.18,6.18,0,0,1,1.45,5.4,2,2,0,0,1-1.26,1.54,2,2,0,0,1-1.86-.7,6.18,6.18,0,0,1-1.45-5.4,2,2,0,0,1,1.26-1.54A2,2,0,0,1,21.18,35.3Z"/>
    <path class="cls-1"
          d="M21.17,35.3a6.15,6.15,0,0,1,1.44,5.38,2,2,0,0,1-1.25,1.53,2,2,0,0,1-1.85-.7,6.15,6.15,0,0,1-1.44-5.37,2,2,0,0,1,1.25-1.53A2,2,0,0,1,21.17,35.3Z"/>
    <path class="cls-1"
          d="M21.16,35.3a6.12,6.12,0,0,1,1.43,5.35,2,2,0,0,1-1.25,1.52,2,2,0,0,1-1.84-.69,6.12,6.12,0,0,1-1.43-5.35,2,2,0,0,1,1.25-1.52A2,2,0,0,1,21.16,35.3Z"/>
    <path class="cls-1"
          d="M21.16,35.3a6.1,6.1,0,0,1,1.43,5.33,1.94,1.94,0,0,1-1.24,1.52,1.94,1.94,0,0,1-1.83-.69,6.09,6.09,0,0,1-1.43-5.33,1.94,1.94,0,0,1,1.24-1.52A1.94,1.94,0,0,1,21.16,35.3Z"/>
    <path class="cls-1"
          d="M21.15,35.3a6.07,6.07,0,0,1,1.42,5.3,1.93,1.93,0,0,1-1.24,1.51,1.93,1.93,0,0,1-1.83-.69,6.07,6.07,0,0,1-1.42-5.3,1.93,1.93,0,0,1,1.24-1.51A1.93,1.93,0,0,1,21.15,35.3Z"/>
    <path class="cls-1"
          d="M21.14,35.3a6,6,0,0,1,1.41,5.28,1.92,1.92,0,0,1-1.23,1.5,1.92,1.92,0,0,1-1.82-.69,6,6,0,0,1-1.41-5.28,1.92,1.92,0,0,1,1.23-1.5A1.92,1.92,0,0,1,21.14,35.3Z"/>
    <polygon class="cls-13"
             points="18.61 34.52 19.25 34.35 19.36 34.33 19.48 34.31 19.59 34.3 19.71 34.3 19.83 34.32 19.95 34.34 20.07 34.37 20.2 34.41 20.32 34.46 20.45 34.52 20.57 34.59 20.7 34.67 20.82 34.76 20.95 34.86 21.07 34.97 21.2 35.08 21.32 35.21 21.44 35.35 21.55 35.49 21.66 35.63 21.77 35.78 21.87 35.94 21.96 36.1 22.06 36.27 22.15 36.44 22.23 36.62 22.31 36.8 22.38 36.98 22.45 37.16 22.52 37.35 22.58 37.54 22.63 37.73 22.68 37.92 22.72 38.12 22.76 38.31 22.79 38.51 22.82 38.7 22.84 38.9 22.86 39.09 22.86 39.28 22.87 39.47 22.86 39.66 22.86 39.85 22.84 40.03 22.82 40.22 22.79 40.4 22.75 40.57 22.71 40.74 22.61 41.06 22.49 41.35 22.34 41.61 22.18 41.83 22.01 42.01 21.81 42.16 21.61 42.27 21.39 42.35 20.75 42.52 20.97 42.45 21.17 42.33 21.36 42.18 21.54 42 21.7 41.78 21.85 41.52 21.97 41.24 22.07 40.91 22.11 40.74 22.15 40.57 22.18 40.39 22.2 40.21 22.21 40.02 22.22 39.84 22.23 39.65 22.22 39.45 22.21 39.26 22.2 39.07 22.18 38.87 22.15 38.68 22.12 38.48 22.08 38.29 22.04 38.1 21.99 37.9 21.94 37.71 21.88 37.52 21.81 37.34 21.74 37.15 21.67 36.97 21.59 36.79 21.51 36.62 21.42 36.44 21.32 36.28 21.23 36.11 21.13 35.96 21.02 35.8 20.91 35.66 20.8 35.52 20.68 35.38 20.55 35.26 20.43 35.14 20.31 35.03 20.18 34.93 20.05 34.84 19.93 34.76 19.8 34.69 19.68 34.63 19.56 34.58 19.43 34.54 19.31 34.51 19.19 34.49 19.07 34.48 18.95 34.47 18.83 34.48 18.72 34.5 18.61 34.52"/>
    <path class="cls-5"
          d="M20.56,35.26a6.47,6.47,0,0,1,1.52,5.66,2.06,2.06,0,0,1-1.32,1.61,2.06,2.06,0,0,1-1.95-.73,6.47,6.47,0,0,1-1.52-5.66,2.06,2.06,0,0,1,1.32-1.61A2.06,2.06,0,0,1,20.56,35.26Z"/>
    <path class="cls-14"
          d="M20.28,36.27a4.46,4.46,0,0,1,1,3.89,1.42,1.42,0,0,1-.91,1.11,1.42,1.42,0,0,1-1.34-.51,4.46,4.46,0,0,1-1-3.89,1.42,1.42,0,0,1,.91-1.11A1.42,1.42,0,0,1,20.28,36.27Z"/>
    <path class="cls-10"
          d="M20.28,36.27a4.46,4.46,0,0,1,1,3.89,1.87,1.87,0,0,1-.41.79,1.46,1.46,0,0,1-1.27-.52,4.45,4.45,0,0,1-1-3.89,1.88,1.88,0,0,1,.41-.79A1.46,1.46,0,0,1,20.28,36.27Z"/>
    <path class="cls-10"
          d="M20.28,36.27a4.46,4.46,0,0,1,1,3.89,2.22,2.22,0,0,1-.19.49,2,2,0,0,1-.64-.44,4.45,4.45,0,0,1-1-3.89,2.22,2.22,0,0,1,.19-.49A2,2,0,0,1,20.28,36.27Z"/>
    <path class="cls-1"
          d="M28.25,42.59a11,11,0,0,1,5,8.61c0,3.17-2.23,4.46-5,2.87a11,11,0,0,1-5-8.61C23.28,42.29,25.51,41,28.25,42.59Z"/>
    <path class="cls-1"
          d="M28.24,42.6a10.92,10.92,0,0,1,4.94,8.55c0,3.15-2.21,4.43-4.94,2.85a10.92,10.92,0,0,1-4.94-8.55C23.3,42.3,25.51,41,28.24,42.6Z"/>
    <path class="cls-1"
          d="M28.23,42.6a10.84,10.84,0,0,1,4.91,8.5c0,3.13-2.2,4.4-4.91,2.83a10.84,10.84,0,0,1-4.91-8.5C23.32,42.31,25.52,41,28.23,42.6Z"/>
    <path class="cls-1"
          d="M28.22,42.61a10.77,10.77,0,0,1,4.87,8.44c0,3.11-2.18,4.37-4.87,2.81a10.77,10.77,0,0,1-4.87-8.44C23.34,42.32,25.53,41.06,28.22,42.61Z"/>
    <path class="cls-1"
          d="M28.21,42.62A10.7,10.7,0,0,1,33,51c0,3.09-2.17,4.34-4.84,2.8a10.7,10.7,0,0,1-4.84-8.39C23.37,42.32,25.53,41.07,28.21,42.62Z"/>
    <path class="cls-1"
          d="M28.2,42.62A10.63,10.63,0,0,1,33,51c0,3.07-2.15,4.31-4.81,2.78a10.63,10.63,0,0,1-4.81-8.33C23.39,42.33,25.54,41.09,28.2,42.62Z"/>
    <path class="cls-1"
          d="M28.19,42.63A10.56,10.56,0,0,1,33,50.9c0,3-2.14,4.28-4.78,2.76a10.56,10.56,0,0,1-4.78-8.27C23.41,42.34,25.55,41.11,28.19,42.63Z"/>
    <path class="cls-1"
          d="M28.17,42.64a10.48,10.48,0,0,1,4.74,8.22c0,3-2.12,4.25-4.74,2.74a10.48,10.48,0,0,1-4.74-8.22C23.43,42.35,25.55,41.12,28.17,42.64Z"/>
    <path class="cls-1"
          d="M28.16,42.64a10.41,10.41,0,0,1,4.71,8.16c0,3-2.11,4.22-4.71,2.72a10.41,10.41,0,0,1-4.71-8.16C23.45,42.36,25.56,41.14,28.16,42.64Z"/>
    <path class="cls-1"
          d="M28.15,42.65a10.34,10.34,0,0,1,4.68,8.1c0,3-2.09,4.19-4.68,2.7a10.34,10.34,0,0,1-4.68-8.1C23.47,42.37,25.57,41.16,28.15,42.65Z"/>
    <path class="cls-1"
          d="M28.14,42.66a10.27,10.27,0,0,1,4.65,8c0,3-2.08,4.16-4.65,2.68a10.27,10.27,0,0,1-4.65-8C23.5,42.38,25.58,41.17,28.14,42.66Z"/>
    <path class="cls-1"
          d="M28.13,42.66a10.2,10.2,0,0,1,4.61,8c0,2.94-2.07,4.13-4.61,2.66a10.2,10.2,0,0,1-4.61-8C23.52,42.38,25.58,41.19,28.13,42.66Z"/>
    <path class="cls-1"
          d="M28.12,42.67A10.12,10.12,0,0,1,32.7,50.6c0,2.92-2.05,4.11-4.58,2.64a10.12,10.12,0,0,1-4.58-7.93C23.54,42.39,25.59,41.21,28.12,42.67Z"/>
    <path class="cls-1"
          d="M28.11,42.68a10.05,10.05,0,0,1,4.55,7.88c0,2.9-2,4.08-4.55,2.63a10.05,10.05,0,0,1-4.55-7.88C23.56,42.4,25.6,41.23,28.11,42.68Z"/>
    <path class="cls-1"
          d="M28.1,42.68a10,10,0,0,1,4.52,7.82c0,2.88-2,4-4.52,2.61a10,10,0,0,1-4.52-7.82C23.58,42.41,25.6,41.24,28.1,42.68Z"/>
    <path class="cls-1"
          d="M28.09,42.69a9.91,9.91,0,0,1,4.48,7.76c0,2.86-2,4-4.48,2.59a9.91,9.91,0,0,1-4.48-7.76C23.6,42.42,25.61,41.26,28.09,42.69Z"/>
    <path class="cls-1"
          d="M28.07,42.7a9.84,9.84,0,0,1,4.45,7.71c0,2.84-2,4-4.45,2.57a9.84,9.84,0,0,1-4.45-7.71C23.62,42.43,25.62,41.28,28.07,42.7Z"/>
    <path class="cls-1"
          d="M28.06,42.7a9.76,9.76,0,0,1,4.42,7.65c0,2.82-2,4-4.42,2.55a9.76,9.76,0,0,1-4.42-7.65C23.65,42.43,25.62,41.29,28.06,42.7Z"/>
    <path class="cls-1"
          d="M28.05,42.71a9.69,9.69,0,0,1,4.39,7.6c0,2.8-2,3.93-4.39,2.53a9.69,9.69,0,0,1-4.39-7.6C23.67,42.44,25.63,41.31,28.05,42.71Z"/>
    <path class="cls-1"
          d="M28,42.71a9.62,9.62,0,0,1,4.35,7.54c0,2.78-1.95,3.9-4.35,2.51a9.62,9.62,0,0,1-4.35-7.54C23.69,42.45,25.64,41.33,28,42.71Z"/>
    <path class="cls-1"
          d="M28,42.72a9.55,9.55,0,0,1,4.32,7.48c0,2.76-1.93,3.87-4.32,2.49a9.55,9.55,0,0,1-4.32-7.48C23.71,42.46,25.64,41.34,28,42.72Z"/>
    <path class="cls-1"
          d="M28,42.73a9.48,9.48,0,0,1,4.29,7.43c0,2.73-1.92,3.84-4.29,2.48a9.48,9.48,0,0,1-4.29-7.43C23.73,42.47,25.65,41.36,28,42.73Z"/>
    <path class="cls-1"
          d="M28,42.73a9.44,9.44,0,0,1,4.27,7.4c0,2.72-1.91,3.83-4.27,2.47a9.44,9.44,0,0,1-4.27-7.4C23.74,42.47,25.65,41.37,28,42.73Z"/>
    <path class="cls-1"
          d="M28,42.73a9.4,9.4,0,0,1,4.25,7.37c0,2.71-1.9,3.81-4.25,2.46a9.4,9.4,0,0,1-4.26-7.37C23.75,42.48,25.66,41.38,28,42.73Z"/>
    <path class="cls-1"
          d="M28,42.74a9.37,9.37,0,0,1,4.24,7.34c0,2.7-1.9,3.8-4.24,2.45a9.37,9.37,0,0,1-4.24-7.34C23.76,42.48,25.66,41.39,28,42.74Z"/>
    <path class="cls-1"
          d="M28,42.74a9.33,9.33,0,0,1,4.22,7.31c0,2.69-1.89,3.78-4.22,2.44a9.33,9.33,0,0,1-4.22-7.31C23.77,42.49,25.67,41.39,28,42.74Z"/>
    <path class="cls-1"
          d="M28,42.74A9.3,9.3,0,0,1,32.2,50c0,2.68-1.88,3.77-4.21,2.43a9.3,9.3,0,0,1-4.21-7.29C23.79,42.49,25.67,41.4,28,42.74Z"/>
    <path class="cls-1"
          d="M28,42.75A9.26,9.26,0,0,1,32.18,50c0,2.67-1.88,3.76-4.19,2.42a9.26,9.26,0,0,1-4.19-7.26C23.8,42.49,25.67,41.41,28,42.75Z"/>
    <path class="cls-1"
          d="M28,42.75A9.22,9.22,0,0,1,32.15,50c0,2.66-1.87,3.74-4.17,2.41a9.22,9.22,0,0,1-4.17-7.23C23.81,42.5,25.68,41.42,28,42.75Z"/>
    <path class="cls-1"
          d="M28,42.75A9.19,9.19,0,0,1,32.13,50c0,2.65-1.86,3.73-4.16,2.4a9.19,9.19,0,0,1-4.16-7.2C23.82,42.5,25.68,41.43,28,42.75Z"/>
    <path class="cls-1"
          d="M28,42.76a9.15,9.15,0,0,1,4.14,7.17c0,2.64-1.85,3.71-4.14,2.39a9.15,9.15,0,0,1-4.14-7.17C23.83,42.51,25.68,41.44,28,42.76Z"/>
    <path class="cls-1"
          d="M28,42.76a9.12,9.12,0,0,1,4.12,7.14c0,2.63-1.85,3.7-4.12,2.38a9.12,9.12,0,0,1-4.12-7.14C23.84,42.51,25.69,41.44,28,42.76Z"/>
    <path class="cls-1"
          d="M28,42.76a9.08,9.08,0,0,1,4.11,7.12c0,2.62-1.84,3.68-4.11,2.37a9.08,9.08,0,0,1-4.11-7.12C23.85,42.52,25.69,41.45,28,42.76Z"/>
    <path class="cls-1"
          d="M28,42.77A9,9,0,0,1,32,49.85c0,2.61-1.83,3.67-4.09,2.36a9,9,0,0,1-4.09-7.09C23.86,42.52,25.69,41.46,28,42.77Z"/>
    <path class="cls-1"
          d="M27.95,42.77A9,9,0,0,1,32,49.83c0,2.6-1.82,3.65-4.08,2.35a9,9,0,0,1-4.08-7.06C23.87,42.52,25.7,41.47,27.95,42.77Z"/>
    <path class="cls-1"
          d="M27.94,42.77a9,9,0,0,1,4.06,7c0,2.59-1.82,3.64-4.06,2.34a9,9,0,0,1-4.06-7C23.88,42.53,25.7,41.48,27.94,42.77Z"/>
    <path class="cls-1"
          d="M27.94,42.78a8.94,8.94,0,0,1,4,7c0,2.58-1.81,3.62-4,2.33a8.94,8.94,0,0,1-4-7C23.89,42.53,25.7,41.49,27.94,42.78Z"/>
    <path class="cls-1"
          d="M27.93,42.78a8.9,8.9,0,0,1,4,7c0,2.57-1.8,3.61-4,2.33a8.9,8.9,0,0,1-4-7C23.9,42.54,25.71,41.5,27.93,42.78Z"/>
    <path class="cls-1"
          d="M27.93,42.78a8.87,8.87,0,0,1,4,6.95c0,2.56-1.8,3.59-4,2.32a8.87,8.87,0,0,1-4-6.95C23.91,42.54,25.71,41.5,27.93,42.78Z"/>
    <path class="cls-1"
          d="M27.92,42.79a8.83,8.83,0,0,1,4,6.92c0,2.55-1.79,3.58-4,2.31a8.83,8.83,0,0,1-4-6.92C23.93,42.55,25.71,41.51,27.92,42.79Z"/>
    <path class="cls-1"
          d="M27.91,42.79a8.79,8.79,0,0,1,4,6.89c0,2.54-1.78,3.57-4,2.3a8.79,8.79,0,0,1-4-6.89C23.94,42.55,25.72,41.52,27.91,42.79Z"/>
    <path class="cls-1"
          d="M27.91,42.79a8.76,8.76,0,0,1,4,6.86c0,2.53-1.77,3.55-4,2.29a8.76,8.76,0,0,1-4-6.86C23.95,42.55,25.72,41.53,27.91,42.79Z"/>
    <path class="cls-1"
          d="M27.9,42.8a8.72,8.72,0,0,1,3.95,6.83c0,2.52-1.77,3.54-3.95,2.28A8.72,8.72,0,0,1,24,45.07C24,42.56,25.72,41.54,27.9,42.8Z"/>
    <path class="cls-3"
          d="M24.24,43a3.21,3.21,0,0,1,2.87-.6l.39.16.4.21.2.12.2.13.2.14.19.15.19.16.19.17.18.18.18.19.17.19.17.2.17.21.16.21.15.22.15.22.14.23.14.23.13.23.12.24.12.24.11.24.1.24.1.25.09.25.08.25.07.25.06.25.05.25,0,.25,0,.24,0,.24,0,.24a3.14,3.14,0,0,1-2,3.3Z"/>
    <path class="cls-15"
          d="M27,44.06a7.18,7.18,0,0,1,3.25,5.62c0,2.07-1.45,2.91-3.25,1.87a7.18,7.18,0,0,1-3.25-5.62C23.78,43.86,25.24,43,27,44.06Z"/>
    <path class="cls-6"
          d="M27,43.25A8.72,8.72,0,0,1,31,50.09c0,2.52-1.77,3.54-3.95,2.28a8.72,8.72,0,0,1-3.95-6.83C23.09,43,24.85,42,27,43.25Z"/>
    <path class="cls-6"
          d="M27,43.29a8.66,8.66,0,0,1,3.92,6.78c0,2.5-1.75,3.51-3.92,2.26a8.65,8.65,0,0,1-3.92-6.78C23.12,43.05,24.87,42,27,43.29Z"/>
    <path class="cls-6"
          d="M27,43.32a8.59,8.59,0,0,1,3.89,6.73c0,2.48-1.74,3.48-3.89,2.24a8.59,8.59,0,0,1-3.89-6.73C23.15,43.09,24.89,42.08,27,43.32Z"/>
    <path class="cls-6"
          d="M27,43.36A8.52,8.52,0,0,1,30.89,50c0,2.46-1.73,3.46-3.86,2.23a8.52,8.52,0,0,1-3.86-6.68C23.18,43.12,24.9,42.13,27,43.36Z"/>
    <path class="cls-6"
          d="M27,43.39A8.46,8.46,0,0,1,30.86,50c0,2.44-1.71,3.43-3.83,2.21A8.46,8.46,0,0,1,23.2,45.6C23.2,43.16,24.92,42.17,27,43.39Z"/>
    <path class="cls-6"
          d="M27,43.43A8.39,8.39,0,0,1,30.83,50c0,2.42-1.7,3.4-3.8,2.19a8.39,8.39,0,0,1-3.8-6.58C23.23,43.2,24.93,42.21,27,43.43Z"/>
    <path class="cls-6"
          d="M27,43.46A8.33,8.33,0,0,1,30.8,50c0,2.4-1.69,3.38-3.77,2.17a8.33,8.33,0,0,1-3.77-6.52C23.26,43.23,25,42.26,27,43.46Z"/>
    <path class="cls-6"
          d="M27,43.49A8.26,8.26,0,0,1,30.77,50c0,2.38-1.67,3.35-3.74,2.16a8.26,8.26,0,0,1-3.74-6.47C23.29,43.27,25,42.3,27,43.49Z"/>
    <path class="cls-6"
          d="M27,43.53a8.19,8.19,0,0,1,3.71,6.42c0,2.36-1.66,3.32-3.71,2.14a8.19,8.19,0,0,1-3.71-6.42C23.32,43.3,25,42.35,27,43.53Z"/>
    <path class="cls-6"
          d="M27,43.56a8.13,8.13,0,0,1,3.68,6.37c0,2.35-1.65,3.3-3.68,2.12a8.13,8.13,0,0,1-3.68-6.37C23.35,43.34,25,42.39,27,43.56Z"/>
    <path class="cls-6"
          d="M27,43.6a8.06,8.06,0,0,1,3.65,6.32C30.68,52.24,29,53.18,27,52a8.06,8.06,0,0,1-3.65-6.32C23.38,43.38,25,42.43,27,43.6Z"/>
    <path class="cls-6"
          d="M27,43.63a8,8,0,0,1,3.62,6.27C30.65,52.21,29,53.14,27,52a8,8,0,0,1-3.62-6.27C23.41,43.41,25,42.48,27,43.63Z"/>
    <path class="cls-6"
          d="M27,43.67a7.93,7.93,0,0,1,3.59,6.21C30.62,52.17,29,53.1,27,52a7.93,7.93,0,0,1-3.59-6.21C23.44,43.45,25,42.52,27,43.67Z"/>
    <path class="cls-6"
          d="M27,43.7a7.87,7.87,0,0,1,3.56,6.16c0,2.27-1.59,3.19-3.56,2.05a7.87,7.87,0,0,1-3.56-6.16C23.47,43.49,25.07,42.57,27,43.7Z"/>
    <path class="cls-6"
          d="M27,43.74a7.8,7.8,0,0,1,3.53,6.11c0,2.25-1.58,3.16-3.53,2a7.8,7.8,0,0,1-3.53-6.11C23.5,43.52,25.08,42.61,27,43.74Z"/>
    <path class="cls-6"
          d="M27,43.77a7.73,7.73,0,0,1,3.5,6.06c0,2.23-1.57,3.14-3.5,2a7.73,7.73,0,0,1-3.5-6.06C23.53,43.56,25.1,42.65,27,43.77Z"/>
    <path class="cls-6"
          d="M27,43.8a7.67,7.67,0,0,1,3.47,6c0,2.21-1.55,3.11-3.47,2a7.67,7.67,0,0,1-3.47-6C23.56,43.59,25.12,42.7,27,43.8Z"/>
    <path class="cls-6"
          d="M27,43.84a7.6,7.6,0,0,1,3.44,6c0,2.19-1.54,3.08-3.44,2a7.6,7.6,0,0,1-3.44-6C23.59,43.63,25.13,42.74,27,43.84Z"/>
    <path class="cls-6"
          d="M27,43.87a7.54,7.54,0,0,1,3.41,5.91c0,2.17-1.53,3.06-3.41,2a7.54,7.54,0,0,1-3.41-5.91C23.62,43.67,25.15,42.79,27,43.87Z"/>
    <path class="cls-6"
          d="M27,43.91a7.47,7.47,0,0,1,3.38,5.85c0,2.16-1.51,3-3.38,2a7.47,7.47,0,0,1-3.38-5.85C23.65,43.7,25.16,42.83,27,43.91Z"/>
    <path class="cls-6"
          d="M27,43.94a7.4,7.4,0,0,1,3.35,5.8c0,2.14-1.5,3-3.35,1.93a7.4,7.4,0,0,1-3.35-5.8C23.68,43.74,25.18,42.87,27,43.94Z"/>
    <path class="cls-6"
          d="M27,44a7.34,7.34,0,0,1,3.32,5.75c0,2.12-1.49,3-3.32,1.92a7.34,7.34,0,0,1-3.32-5.75C23.71,43.78,25.2,42.92,27,44Z"/>
    <path class="cls-6"
          d="M27,44a7.29,7.29,0,0,1,3.3,5.72c0,2.1-1.48,3-3.3,1.91a7.29,7.29,0,0,1-3.3-5.72C23.73,43.8,25.21,42.95,27,44Z"/>
    <path class="cls-6"
          d="M27,44a7.25,7.25,0,0,1,3.28,5.68c0,2.09-1.47,2.94-3.28,1.89a7.25,7.25,0,0,1-3.28-5.68C23.75,43.82,25.22,43,27,44Z"/>
    <path class="cls-6"
          d="M27,44a7.2,7.2,0,0,1,3.26,5.64c0,2.08-1.46,2.92-3.26,1.88a7.2,7.2,0,0,1-3.26-5.65C23.77,43.84,25.23,43,27,44Z"/>
    <path class="cls-6"
          d="M27,44.06a7.16,7.16,0,0,1,3.24,5.61c0,2.07-1.45,2.9-3.24,1.87a7.16,7.16,0,0,1-3.24-5.61C23.79,43.87,25.24,43,27,44.06Z"/>
    <path class="cls-6"
          d="M27,44.08a7.11,7.11,0,0,1,3.22,5.57c0,2.05-1.44,2.88-3.22,1.86a7.11,7.11,0,0,1-3.22-5.57C23.81,43.89,25.25,43.06,27,44.08Z"/>
    <path class="cls-6"
          d="M27,44.11a7.07,7.07,0,0,1,3.2,5.54c0,2-1.43,2.87-3.2,1.85A7.07,7.07,0,0,1,23.83,46C23.83,43.91,25.26,43.09,27,44.11Z"/>
    <path class="cls-6"
          d="M27,44.13a7,7,0,0,1,3.18,5.5c0,2-1.42,2.85-3.18,1.83A7,7,0,0,1,23.85,46C23.85,43.94,25.27,43.11,27,44.13Z"/>
    <path class="cls-6"
          d="M27,44.15a7,7,0,0,1,3.16,5.47c0,2-1.41,2.83-3.16,1.82A7,7,0,0,1,23.87,46C23.87,44,25.28,43.14,27,44.15Z"/>
    <path class="cls-6"
          d="M27,44.17a6.93,6.93,0,0,1,3.14,5.43c0,2-1.4,2.81-3.14,1.81A6.93,6.93,0,0,1,23.89,46C23.89,44,25.3,43.17,27,44.17Z"/>
    <path class="cls-6"
          d="M27,44.19a6.89,6.89,0,0,1,3.12,5.4c0,2-1.4,2.79-3.12,1.8A6.89,6.89,0,0,1,23.91,46C23.91,44,25.31,43.2,27,44.19Z"/>
    <path class="cls-6"
          d="M27,44.21a6.84,6.84,0,0,1,3.1,5.36c0,2-1.39,2.78-3.1,1.79A6.84,6.84,0,0,1,23.93,46C23.93,44,25.32,43.23,27,44.21Z"/>
    <path class="cls-6"
          d="M27,44.24a6.8,6.8,0,0,1,3.08,5.33c0,2-1.38,2.76-3.08,1.78A6.8,6.8,0,0,1,24,46C24,44,25.33,43.25,27,44.24Z"/>
    <path class="cls-6"
          d="M27,44.26a6.75,6.75,0,0,1,3.06,5.29c0,1.95-1.37,2.74-3.06,1.76A6.75,6.75,0,0,1,24,46C24,44.07,25.34,43.28,27,44.26Z"/>
    <path class="cls-6"
          d="M27,44.28a6.71,6.71,0,0,1,3,5.26c0,1.94-1.36,2.72-3,1.75A6.71,6.71,0,0,1,24,46C24,44.1,25.35,43.31,27,44.28Z"/>
    <path class="cls-6"
          d="M27,44.3a6.66,6.66,0,0,1,3,5.22c0,1.92-1.35,2.7-3,1.74A6.66,6.66,0,0,1,24,46C24,44.12,25.36,43.34,27,44.3Z"/>
    <path class="cls-6"
          d="M27,44.32a6.62,6.62,0,0,1,3,5.19c0,1.91-1.34,2.68-3,1.73a6.62,6.62,0,0,1-3-5.19C24,44.14,25.37,43.37,27,44.32Z"/>
    <path class="cls-6"
          d="M27,44.34a6.57,6.57,0,0,1,3,5.15c0,1.9-1.33,2.67-3,1.72a6.57,6.57,0,0,1-3-5.15C24,44.16,25.38,43.4,27,44.34Z"/>
    <path class="cls-6"
          d="M27,44.37a6.53,6.53,0,0,1,3,5.12c0,1.88-1.32,2.65-3,1.71a6.53,6.53,0,0,1-3-5.12C24.07,44.19,25.39,43.42,27,44.37Z"/>
    <path class="cls-6"
          d="M27,44.39A6.49,6.49,0,0,1,30,49.47c0,1.87-1.31,2.63-2.93,1.69a6.48,6.48,0,0,1-2.93-5.08C24.09,44.21,25.4,43.45,27,44.39Z"/>
    <path class="cls-6"
          d="M27,44.41a6.44,6.44,0,0,1,2.91,5c0,1.86-1.3,2.61-2.91,1.68a6.44,6.44,0,0,1-2.91-5C24.11,44.23,25.41,43.48,27,44.41Z"/>
    <path class="cls-6"
          d="M27,44.43c-1.6-.92-2.89-.17-2.89,1.67a6.39,6.39,0,0,0,2.89,5c1.6.92,2.89.17,2.89-1.67A6.4,6.4,0,0,0,27,44.43Z"/>
    <path class="cls-6"
          d="M27,44.46c-1.58-.91-2.87-.17-2.87,1.66a6.34,6.34,0,0,0,2.87,5c1.58.91,2.87.17,2.87-1.66A6.34,6.34,0,0,0,27,44.46Z"/>
    <path class="cls-6"
          d="M27,44.49c-1.57-.91-2.84-.17-2.84,1.64A6.29,6.29,0,0,0,27,51.06c1.57.91,2.84.17,2.84-1.64A6.29,6.29,0,0,0,27,44.49Z"/>
    <path class="cls-6"
          d="M27,44.51c-1.56-.9-2.82-.17-2.82,1.63A6.23,6.23,0,0,0,27,51c1.56.9,2.82.17,2.82-1.63A6.23,6.23,0,0,0,27,44.51Z"/>
    <path class="cls-6"
          d="M27,44.54c-1.54-.89-2.8-.17-2.8,1.61A6.18,6.18,0,0,0,27,51c1.54.89,2.8.17,2.8-1.61A6.18,6.18,0,0,0,27,44.54Z"/>
    <path class="cls-6"
          d="M27,44.57c-1.53-.88-2.77-.17-2.77,1.6A6.13,6.13,0,0,0,27,51c1.53.88,2.77.17,2.77-1.6A6.13,6.13,0,0,0,27,44.57Z"/>
    <path class="cls-6"
          d="M27,44.6c-1.52-.88-2.75-.17-2.75,1.59A6.07,6.07,0,0,0,27,50.94c1.52.88,2.75.17,2.75-1.59A6.07,6.07,0,0,0,27,44.6Z"/>
    <path class="cls-6"
          d="M27,44.63c-1.5-.87-2.72-.16-2.72,1.57A6,6,0,0,0,27,50.92c1.5.87,2.72.16,2.72-1.57A6,6,0,0,0,27,44.63Z"/>
    <path class="cls-6"
          d="M27,44.65c-1.49-.86-2.7-.16-2.7,1.56A6,6,0,0,0,27,50.89c1.49.86,2.7.16,2.7-1.56A6,6,0,0,0,27,44.65Z"/>
    <path class="cls-6"
          d="M27,44.68c-1.48-.85-2.68-.16-2.68,1.54A5.91,5.91,0,0,0,27,50.86c1.48.85,2.68.16,2.68-1.54A5.91,5.91,0,0,0,27,44.68Z"/>
    <path class="cls-6"
          d="M27,44.71c-1.46-.85-2.65-.16-2.65,1.53A5.86,5.86,0,0,0,27,50.83c1.46.85,2.65.16,2.65-1.53A5.86,5.86,0,0,0,27,44.71Z"/>
    <path class="cls-6"
          d="M27,44.74c-1.45-.84-2.63-.16-2.63,1.52A5.81,5.81,0,0,0,27,50.81c1.45.84,2.63.16,2.63-1.52A5.81,5.81,0,0,0,27,44.74Z"/>
    <path class="cls-6"
          d="M27,44.77c-1.44-.83-2.6-.16-2.6,1.5A5.75,5.75,0,0,0,27,50.78c1.44.83,2.6.16,2.6-1.5A5.75,5.75,0,0,0,27,44.77Z"/>
    <path class="cls-6"
          d="M27,44.79c-1.42-.82-2.58-.16-2.58,1.49A5.7,5.7,0,0,0,27,50.75c1.42.82,2.58.16,2.58-1.49A5.7,5.7,0,0,0,27,44.79Z"/>
    <path class="cls-6"
          d="M27,44.82c-1.41-.81-2.55-.15-2.55,1.47A5.65,5.65,0,0,0,27,50.72c1.41.81,2.55.15,2.55-1.47A5.65,5.65,0,0,0,27,44.82Z"/>
    <path class="cls-6"
          d="M27,44.85c-1.4-.81-2.53-.15-2.53,1.46A5.59,5.59,0,0,0,27,50.69c1.4.81,2.53.15,2.53-1.46A5.59,5.59,0,0,0,27,44.85Z"/>
    <path class="cls-6"
          d="M27,44.88c-1.38-.8-2.51-.15-2.51,1.45A5.54,5.54,0,0,0,27,50.67c1.38.8,2.51.15,2.51-1.45A5.54,5.54,0,0,0,27,44.88Z"/>
    <path class="cls-6"
          d="M27,44.91c-1.37-.79-2.48-.15-2.48,1.43A5.49,5.49,0,0,0,27,50.64c1.37.79,2.48.15,2.48-1.43A5.49,5.49,0,0,0,27,44.91Z"/>
    <path class="cls-6"
          d="M27,44.93c-1.36-.78-2.46-.15-2.46,1.42A5.43,5.43,0,0,0,27,50.61c1.36.78,2.46.15,2.46-1.42A5.43,5.43,0,0,0,27,44.93Z"/>
    <path class="cls-6"
          d="M27,45c-1.34-.78-2.43-.15-2.43,1.4A5.38,5.38,0,0,0,27,50.58c1.34.78,2.43.15,2.43-1.4A5.38,5.38,0,0,0,27,45Z"/>
    <path class="cls-6"
          d="M27,45c-1.33-.77-2.41-.15-2.41,1.39A5.33,5.33,0,0,0,27,50.55c1.33.77,2.41.15,2.41-1.39A5.32,5.32,0,0,0,27,45Z"/>
    <path class="cls-6"
          d="M27,45c-1.32-.76-2.38-.14-2.38,1.38A5.27,5.27,0,0,0,27,50.53c1.32.76,2.39.14,2.39-1.38A5.27,5.27,0,0,0,27,45Z"/>
    <path class="cls-6"
          d="M27,45c-1.31-.76-2.37-.14-2.37,1.37A5.24,5.24,0,0,0,27,50.49c1.31.76,2.37.14,2.37-1.37A5.24,5.24,0,0,0,27,45Z"/>
    <path class="cls-6"
          d="M27,45c-1.3-.75-2.36-.14-2.36,1.36A5.21,5.21,0,0,0,27,50.45c1.3.75,2.36.14,2.36-1.36A5.21,5.21,0,0,0,27,45Z"/>
    <path class="cls-6"
          d="M27,45c-1.29-.75-2.34-.14-2.34,1.35A5.17,5.17,0,0,0,27,50.42c1.29.75,2.34.14,2.34-1.35A5.17,5.17,0,0,0,27,45Z"/>
    <path class="cls-6"
          d="M27,45c-1.28-.74-2.33-.14-2.33,1.34a5.14,5.14,0,0,0,2.33,4c1.28.74,2.33.14,2.33-1.34A5.14,5.14,0,0,0,27,45Z"/>
    <path class="cls-6"
          d="M27,45c-1.28-.74-2.31-.14-2.31,1.33a5.11,5.11,0,0,0,2.31,4c1.28.74,2.31.14,2.31-1.33A5.11,5.11,0,0,0,27,45Z"/>
    <path class="cls-6"
          d="M27,45c-1.27-.73-2.3-.14-2.3,1.33a5.08,5.08,0,0,0,2.3,4c1.27.73,2.3.14,2.3-1.33A5.08,5.08,0,0,0,27,45Z"/>
    <path class="cls-6"
          d="M27,45c-1.26-.73-2.28-.14-2.28,1.32a5,5,0,0,0,2.28,4c1.26.73,2.28.14,2.28-1.32A5,5,0,0,0,27,45Z"/>
    <path class="cls-6"
          d="M27,45c-1.25-.72-2.27-.14-2.27,1.31A5,5,0,0,0,27,50.24c1.25.72,2.27.14,2.27-1.31A5,5,0,0,0,27,45Z"/>
    <path class="cls-6"
          d="M27,45c-1.24-.72-2.25-.14-2.25,1.3A5,5,0,0,0,27,50.2c1.24.72,2.25.14,2.25-1.3A5,5,0,0,0,27,45Z"/>
    <path class="cls-6"
          d="M26.95,45c-1.24-.71-2.24-.14-2.24,1.29a4.94,4.94,0,0,0,2.24,3.88c1.24.71,2.24.14,2.24-1.29A4.94,4.94,0,0,0,26.95,45Z"/>
    <path class="cls-6"
          d="M26.94,45c-1.23-.71-2.22-.13-2.22,1.28a4.91,4.91,0,0,0,2.22,3.85c1.23.71,2.22.13,2.22-1.28A4.91,4.91,0,0,0,26.94,45Z"/>
    <path class="cls-6"
          d="M26.93,45c-1.22-.7-2.21-.13-2.21,1.27a4.88,4.88,0,0,0,2.21,3.82c1.22.7,2.21.13,2.21-1.27A4.88,4.88,0,0,0,26.93,45Z"/>
    <path class="cls-6"
          d="M26.93,45c-1.21-.7-2.19-.13-2.19,1.27a4.85,4.85,0,0,0,2.19,3.8c1.21.7,2.19.13,2.19-1.27A4.85,4.85,0,0,0,26.93,45Z"/>
    <path class="cls-6"
          d="M26.92,45c-1.2-.69-2.18-.13-2.18,1.26A4.81,4.81,0,0,0,26.92,50c1.2.69,2.18.13,2.18-1.26A4.81,4.81,0,0,0,26.92,45Z"/>
    <path class="cls-6"
          d="M26.91,45c-1.19-.69-2.16-.13-2.16,1.25A4.78,4.78,0,0,0,26.91,50c1.19.69,2.16.13,2.16-1.25A4.78,4.78,0,0,0,26.91,45Z"/>
    <path class="cls-6"
          d="M26.9,45c-1.19-.69-2.15-.13-2.15,1.24a4.75,4.75,0,0,0,2.15,3.72c1.19.69,2.15.13,2.15-1.24A4.75,4.75,0,0,0,26.9,45Z"/>
    <path class="cls-6"
          d="M26.9,45c-1.18-.68-2.13-.13-2.13,1.23a4.72,4.72,0,0,0,2.13,3.7c1.18.68,2.13.13,2.13-1.23A4.72,4.72,0,0,0,26.9,45Z"/>
    <path class="cls-6"
          d="M26.89,45c-1.17-.68-2.12-.13-2.12,1.22a4.68,4.68,0,0,0,2.12,3.67c1.17.68,2.12.13,2.12-1.22A4.68,4.68,0,0,0,26.89,45Z"/>
    <path class="cls-6"
          d="M26.88,45c-1.16-.67-2.1-.13-2.1,1.21a4.65,4.65,0,0,0,2.1,3.64C28,50.51,29,50,29,48.62A4.65,4.65,0,0,0,26.88,45Z"/>
    <path class="cls-6"
          d="M26.87,45c-1.15-.67-2.09-.13-2.09,1.21a4.62,4.62,0,0,0,2.09,3.62c1.15.67,2.09.13,2.09-1.21A4.62,4.62,0,0,0,26.87,45Z"/>
    <path class="cls-6"
          d="M26.87,45c-1.15-.66-2.07-.13-2.07,1.2a4.59,4.59,0,0,0,2.07,3.59c1.15.66,2.07.13,2.07-1.2A4.58,4.58,0,0,0,26.87,45Z"/>
    <path class="cls-12"
          d="M25.36,45.37a2.6,2.6,0,0,0-.08.66,3.84,3.84,0,0,0,.09.8L25,47a.55.55,0,0,1-.56,0l-1.31-.75a5.94,5.94,0,0,1-.05-.76,4.66,4.66,0,0,1,.05-.7l1.3.75a.55.55,0,0,0,.56,0Z"/>
    <path class="cls-12"
          d="M30.64,50.63l-1.33-.77a2.54,2.54,0,0,0,.09-.71,3.82,3.82,0,0,0-.08-.75l1.31.76a.55.55,0,0,0,.56,0l.59-.34v0l0,.24,0,.24a4.94,4.94,0,0,1-.06,1l-.58.33A.55.55,0,0,1,30.64,50.63Z"/>
    <path class="cls-12"
          d="M26.68,49.91,27,49.7a3.82,3.82,0,0,0,.63.46,2.56,2.56,0,0,0,.64.27l-.36.21a.55.55,0,0,0-.28.49v1.55a4.65,4.65,0,0,1-.64-.31,6,6,0,0,1-.64-.43V50.39A.55.55,0,0,1,26.68,49.91Z"/>
    <path class="cls-12"
          d="M27.67,44v1.49A3.84,3.84,0,0,0,27,45a2.58,2.58,0,0,0-.63-.27V43.27a.55.55,0,0,1,.28-.49l.59-.34.24.1.4.21.2.12.2.13.2.14,0,0-.59.34A.55.55,0,0,0,27.67,44Z"/>
    <path class="cls-16"
          d="M27,45a1.94,1.94,0,0,0-1.33-.3,1.94,1.94,0,0,0-.41,1.3,5.27,5.27,0,0,0,2.39,4.13,1.94,1.94,0,0,0,1.33.3,1.94,1.94,0,0,0,.41-1.3A5.27,5.27,0,0,0,27,45Z"/>
    <path class="cls-17"
          d="M27,45c-1.12-.64-1.74-.33-1.74,1a5.27,5.27,0,0,0,2.39,4.13,1.94,1.94,0,0,0,1.33.3,1.94,1.94,0,0,0,.41-1.3A5.65,5.65,0,0,0,27,45Z"/>
    <path class="cls-18"
          d="M27,45c-1.11-.64-1.74-.33-1.74,1a5.27,5.27,0,0,0,2.38,4.12,1.93,1.93,0,0,0,1.33.3,1.92,1.92,0,0,0,.41-1.3A5.64,5.64,0,0,0,27,45Z"/>
    <path class="cls-19"
          d="M27,45c-1.11-.64-1.73-.33-1.73,1a5.26,5.26,0,0,0,2.37,4.11,1.92,1.92,0,0,0,1.33.3,1.9,1.9,0,0,0,.41-1.3A5.64,5.64,0,0,0,27,45Z"/>
    <path class="cls-20"
          d="M27,45.05c-1.11-.63-1.73-.33-1.73,1a5.26,5.26,0,0,0,2.36,4.1,1.91,1.91,0,0,0,1.33.3,1.89,1.89,0,0,0,.4-1.3A5.63,5.63,0,0,0,27,45.05Z"/>
    <path class="cls-21"
          d="M27,45.06c-1.11-.63-1.73-.33-1.73,1a5.25,5.25,0,0,0,2.36,4.09,1.9,1.9,0,0,0,1.33.3,1.87,1.87,0,0,0,.4-1.29A5.63,5.63,0,0,0,27,45.06Z"/>
    <path class="cls-22"
          d="M27,45.07c-1.11-.63-1.72-.33-1.72,1a5.25,5.25,0,0,0,2.35,4.08,1.9,1.9,0,0,0,1.33.3,1.86,1.86,0,0,0,.4-1.29A5.62,5.62,0,0,0,27,45.07Z"/>
    <path class="cls-23"
          d="M27.05,45.08c-1.11-.63-1.72-.33-1.72,1a5.24,5.24,0,0,0,2.34,4.07,1.89,1.89,0,0,0,1.33.3,1.84,1.84,0,0,0,.4-1.29A5.62,5.62,0,0,0,27.05,45.08Z"/>
    <path class="cls-24"
          d="M27.06,45.09c-1.1-.63-1.72-.33-1.72,1a5.24,5.24,0,0,0,2.33,4.06,1.88,1.88,0,0,0,1.33.3,1.83,1.83,0,0,0,.4-1.29A5.61,5.61,0,0,0,27.06,45.09Z"/>
    <path class="cls-25"
          d="M27.06,45.11c-1.1-.63-1.71-.33-1.71,1a5.23,5.23,0,0,0,2.33,4.06,1.87,1.87,0,0,0,1.33.3,1.81,1.81,0,0,0,.4-1.28A5.61,5.61,0,0,0,27.06,45.11Z"/>
    <path class="cls-26"
          d="M27.07,45.12c-1.1-.63-1.71-.33-1.71,1a5.23,5.23,0,0,0,2.32,4,1.87,1.87,0,0,0,1.33.3,1.8,1.8,0,0,0,.4-1.28A5.6,5.6,0,0,0,27.07,45.12Z"/>
    <path class="cls-27"
          d="M27.07,45.13c-1.1-.63-1.7-.33-1.7,1a5.22,5.22,0,0,0,2.31,4,1.86,1.86,0,0,0,1.33.31,1.78,1.78,0,0,0,.4-1.28A5.6,5.6,0,0,0,27.07,45.13Z"/>
    <path class="cls-28"
          d="M27.08,45.14c-1.1-.63-1.7-.32-1.7,1a5.22,5.22,0,0,0,2.31,4,1.85,1.85,0,0,0,1.33.31,1.77,1.77,0,0,0,.4-1.28A5.6,5.6,0,0,0,27.08,45.14Z"/>
    <path class="cls-29"
          d="M27.08,45.15c-1.1-.63-1.7-.32-1.7,1a5.21,5.21,0,0,0,2.3,4,1.84,1.84,0,0,0,1.33.31,1.75,1.75,0,0,0,.4-1.27A5.59,5.59,0,0,0,27.08,45.15Z"/>
    <path class="cls-30"
          d="M27.09,45.16c-1.09-.63-1.69-.32-1.69,1a5.21,5.21,0,0,0,2.29,4,1.83,1.83,0,0,0,1.33.31,1.74,1.74,0,0,0,.4-1.27A5.59,5.59,0,0,0,27.09,45.16Z"/>
    <path class="cls-31"
          d="M27.09,45.17c-1.09-.63-1.69-.32-1.69,1a5.2,5.2,0,0,0,2.28,4,1.83,1.83,0,0,0,1.33.31,1.72,1.72,0,0,0,.4-1.27A5.58,5.58,0,0,0,27.09,45.17Z"/>
    <path class="cls-32"
          d="M27.1,45.18c-1.09-.62-1.69-.32-1.69,1a5.2,5.2,0,0,0,2.28,4,1.82,1.82,0,0,0,1.33.31,1.71,1.71,0,0,0,.39-1.26A5.58,5.58,0,0,0,27.1,45.18Z"/>
    <path class="cls-33"
          d="M27.1,45.19c-1.09-.62-1.68-.32-1.68,1a5.19,5.19,0,0,0,2.27,4,1.81,1.81,0,0,0,1.33.31,1.69,1.69,0,0,0,.39-1.26A5.57,5.57,0,0,0,27.1,45.19Z"/>
    <path class="cls-34"
          d="M27.1,45.2c-1.09-.62-1.68-.32-1.68,1a5.19,5.19,0,0,0,2.26,4,1.8,1.8,0,0,0,1.33.31,1.68,1.68,0,0,0,.39-1.26A5.57,5.57,0,0,0,27.1,45.2Z"/>
    <path class="cls-35"
          d="M27.11,45.22c-1.09-.62-1.68-.32-1.68,1a5.18,5.18,0,0,0,2.25,4,1.8,1.8,0,0,0,1.33.31,1.67,1.67,0,0,0,.39-1.26A5.56,5.56,0,0,0,27.11,45.22Z"/>
    <path class="cls-36"
          d="M27.11,45.23c-1.08-.62-1.67-.32-1.67,1a5.18,5.18,0,0,0,2.25,4,1.79,1.79,0,0,0,1.33.31,1.65,1.65,0,0,0,.39-1.25A5.56,5.56,0,0,0,27.11,45.23Z"/>
    <path class="cls-37"
          d="M27.12,45.24c-1.08-.62-1.67-.32-1.67,1a5.18,5.18,0,0,0,2.24,3.94,1.78,1.78,0,0,0,1.33.31,1.64,1.64,0,0,0,.39-1.25A5.55,5.55,0,0,0,27.12,45.24Z"/>
    <path class="cls-38"
          d="M27.12,45.25c-1.08-.62-1.67-.32-1.67,1a5.17,5.17,0,0,0,2.23,3.93,1.78,1.78,0,0,0,1.33.31,1.62,1.62,0,0,0,.39-1.25A5.55,5.55,0,0,0,27.12,45.25Z"/>
    <path class="cls-39"
          d="M27.13,45.27c-1.08-.62-1.66-.32-1.66,1a5.16,5.16,0,0,0,2.22,3.91,1.76,1.76,0,0,0,1.33.31,1.6,1.6,0,0,0,.39-1.24A5.54,5.54,0,0,0,27.13,45.27Z"/>
    <path class="cls-40"
          d="M27.14,45.29c-1.07-.62-1.65-.32-1.65,1a5.15,5.15,0,0,0,2.2,3.89,1.75,1.75,0,0,0,1.33.31,1.57,1.57,0,0,0,.39-1.24A5.53,5.53,0,0,0,27.14,45.29Z"/>
    <path class="cls-41"
          d="M27.15,45.31c-1.07-.61-1.65-.31-1.65.95a5.15,5.15,0,0,0,2.19,3.87,1.73,1.73,0,0,0,1.33.32,1.54,1.54,0,0,0,.38-1.23A5.52,5.52,0,0,0,27.15,45.31Z"/>
    <path class="cls-42"
          d="M27.16,45.34c-1.07-.61-1.64-.31-1.64.95a5.14,5.14,0,0,0,2.17,3.86,1.72,1.72,0,0,0,1.33.32,1.51,1.51,0,0,0,.38-1.23A5.51,5.51,0,0,0,27.16,45.34Z"/>
    <path class="cls-43"
          d="M27.17,45.36c-1.06-.61-1.63-.31-1.63.94a5.13,5.13,0,0,0,2.16,3.84,1.7,1.7,0,0,0,1.33.32,1.49,1.49,0,0,0,.38-1.22A5.5,5.5,0,0,0,27.17,45.36Z"/>
    <path class="cls-44"
          d="M27.18,45.38c-1.06-.61-1.62-.31-1.62.94a5.12,5.12,0,0,0,2.15,3.82,1.69,1.69,0,0,0,1.33.32,1.46,1.46,0,0,0,.38-1.22A5.49,5.49,0,0,0,27.18,45.38Z"/>
    <path class="cls-45"
          d="M27.19,45.4c-1.06-.61-1.62-.31-1.62.93a5.12,5.12,0,0,0,2.13,3.8,1.68,1.68,0,0,0,1.33.32,1.44,1.44,0,0,0,.38-1.21A5.48,5.48,0,0,0,27.19,45.4Z"/>
    <path class="cls-46"
          d="M27.2,45.43c-1.05-.61-1.61-.31-1.61.93a5.11,5.11,0,0,0,2.12,3.78,1.66,1.66,0,0,0,1.32.32c.24-.27.38-.44.38-1.21A5.47,5.47,0,0,0,27.2,45.43Z"/>
    <path class="cls-47"
          d="M27.21,45.45c-1.05-.6-1.6-.31-1.6.93a5.1,5.1,0,0,0,2.1,3.76,1.65,1.65,0,0,0,1.32.32c.24-.27.37-.42.37-1.2A5.46,5.46,0,0,0,27.21,45.45Z"/>
    <path class="cls-48"
          d="M27.22,45.47c-1-.6-1.6-.3-1.6.92a5.1,5.1,0,0,0,2.09,3.74,1.64,1.64,0,0,0,1.32.32c.24-.27.37-.4.37-1.2A5.45,5.45,0,0,0,27.22,45.47Z"/>
    <path class="cls-49"
          d="M27.23,45.49c-1-.6-1.59-.3-1.59.92a5.09,5.09,0,0,0,2.07,3.72,1.62,1.62,0,0,0,1.32.32c.23-.27.37-.39.37-1.19A5.44,5.44,0,0,0,27.23,45.49Z"/>
    <path class="cls-50"
          d="M27.24,45.51c-1-.6-1.58-.3-1.58.91a5.08,5.08,0,0,0,2.06,3.7,1.61,1.61,0,0,0,1.32.33c.23-.26.37-.37.37-1.19A5.44,5.44,0,0,0,27.24,45.51Z"/>
    <path class="cls-51"
          d="M27.25,45.54c-1-.6-1.58-.3-1.58.91a5.08,5.08,0,0,0,2,3.68c.72.41,1,.4,1.32.33.23-.26.37-.36.37-1.18A5.43,5.43,0,0,0,27.25,45.54Z"/>
    <path class="cls-52"
          d="M27.26,45.56c-1-.6-1.57-.3-1.57.91a5.07,5.07,0,0,0,2,3.67c.72.42,1,.4,1.32.33.23-.26.37-.34.37-1.18A5.42,5.42,0,0,0,27.26,45.56Z"/>
    <path class="cls-53"
          d="M27.27,45.58c-1-.59-1.56-.3-1.56.9a5.07,5.07,0,0,0,2,3.65c.73.42,1,.4,1.32.33.23-.26.37-.32.37-1.17A5.41,5.41,0,0,0,27.27,45.58Z"/>
    <path class="cls-54"
          d="M27.28,45.6c-1-.59-1.55-.3-1.55.9a5.06,5.06,0,0,0,2,3.63c.74.43,1,.4,1.32.33.23-.26.36-.31.36-1.16A5.4,5.4,0,0,0,27.28,45.6Z"/>
    <path class="cls-55"
          d="M27.29,45.62c-1-.59-1.55-.3-1.55.89a5.06,5.06,0,0,0,2,3.61c.75.43,1,.4,1.32.33.23-.26.36-.29.36-1.16A5.39,5.39,0,0,0,27.29,45.62Z"/>
    <path class="cls-56"
          d="M27.3,45.65c-1-.59-1.54-.29-1.54.89a5.05,5.05,0,0,0,2,3.59c.76.44,1,.4,1.32.33.23-.26.36-.27.36-1.15A5.38,5.38,0,0,0,27.3,45.65Z"/>
    <path class="cls-57"
          d="M27.31,45.67c-1-.59-1.53-.29-1.53.88a5,5,0,0,0,2,3.57c.77.45,1,.4,1.32.33.23-.26.36-.26.36-1.15A5.37,5.37,0,0,0,27.31,45.67Z"/>
    <path class="cls-58"
          d="M27.32,45.69c-1-.58-1.53-.29-1.53.88a5,5,0,0,0,1.94,3.55c.78.45,1,.4,1.32.33.23-.26.36-.24.36-1.14A5.36,5.36,0,0,0,27.32,45.69Z"/>
    <path class="cls-1"
          d="M27.33,45.71c-1-.58-1.52-.29-1.52.88a5,5,0,0,0,1.93,3.53c.79.46,1,.4,1.32.34.22-.25.36-.23.36-1.14A5.35,5.35,0,0,0,27.33,45.71Z"/>
    <path class="cls-59"
          d="M30.22,45.42a.16.16,0,0,1-.14-.09l-2.32-4.76-2.25,2a.16.16,0,1,1-.21-.23L27.7,40.2a.16.16,0,0,1,.25,0l2.41,4.95a.16.16,0,0,1-.07.21Z"/>
    <path class="cls-60" d="M27.93,40a.82.82,0,0,1,.19.72.23.23,0,0,1-.41.11.82.82,0,0,1-.19-.72.23.23,0,0,1,.41-.11Z"/>
    <polygon class="cls-5"
             points="29.6 24.67 33.62 27 33.83 27.11 34.05 27.21 34.27 27.31 34.51 27.4 34.74 27.48 34.99 27.55 35.25 27.61 35.51 27.67 35.77 27.72 36.04 27.76 36.31 27.79 36.59 27.81 36.87 27.83 37.16 27.84 37.44 27.84 37.73 27.83 38.02 27.81 38.3 27.79 38.59 27.76 38.88 27.72 39.17 27.67 39.45 27.62 39.73 27.55 40.01 27.48 40.29 27.41 40.56 27.32 40.83 27.23 41.09 27.13 41.35 27.02 41.6 26.9 41.85 26.78 42.08 26.64 42.52 26.37 42.91 26.07 43.25 25.77 43.53 25.45 43.76 25.13 43.94 24.8 44.06 24.46 44.13 24.13 44.15 23.8 44.15 6.43 44.13 6.76 44.06 7.09 43.94 7.42 43.76 7.75 43.53 8.08 43.25 8.39 42.91 8.7 42.52 8.99 42.08 9.27 41.85 9.4 41.6 9.53 41.35 9.64 41.09 9.75 40.83 9.85 40.56 9.95 40.29 10.03 40.01 10.11 39.73 10.18 39.45 10.24 39.17 10.3 38.88 10.35 38.59 10.38 38.3 10.42 38.02 10.44 37.73 10.46 37.44 10.46 37.16 10.46 36.87 10.46 36.59 10.44 36.31 10.42 36.04 10.38 35.77 10.35 35.51 10.3 35.25 10.24 34.99 10.18 34.74 10.11 34.51 10.03 34.27 9.94 34.05 9.84 33.83 9.74 33.62 9.62 29.6 7.3 29.22 7.06 28.91 6.79 28.64 6.51 28.43 6.21 28.28 5.91 28.19 5.59 28.15 5.26 28.15 22.63 28.19 22.96 28.28 23.28 28.43 23.59 28.64 23.88 28.91 24.16 29.22 24.43 29.6 24.67"/>
    <polygon class="cls-6"
             points="29.6 11.75 33.62 14.07 33.83 14.19 34.05 14.29 34.27 14.39 34.51 14.48 34.74 14.56 34.99 14.63 35.25 14.69 35.51 14.75 35.77 14.8 36.04 14.84 36.31 14.87 36.59 14.89 36.87 14.91 37.16 14.91 37.44 14.91 37.73 14.91 38.02 14.89 38.3 14.87 38.59 14.84 38.88 14.8 39.17 14.75 39.45 14.7 39.73 14.63 40.01 14.56 40.29 14.48 40.56 14.4 40.83 14.3 41.09 14.2 41.35 14.1 41.6 13.98 41.85 13.86 42.08 13.72 42.52 13.45 42.91 13.15 43.25 12.85 43.53 12.53 43.76 12.21 43.94 11.88 44.06 11.54 44.13 11.21 44.15 10.88 44.15 7.97 44.13 8.3 44.06 8.63 43.94 8.97 43.76 9.3 43.53 9.62 43.25 9.94 42.91 10.24 42.52 10.54 42.08 10.82 41.85 10.95 41.6 11.07 41.35 11.19 41.09 11.3 40.83 11.4 40.56 11.49 40.29 11.58 40.01 11.65 39.73 11.72 39.45 11.79 39.17 11.84 38.88 11.89 38.59 11.93 38.3 11.96 38.02 11.98 37.73 12 37.44 12.01 37.16 12.01 36.87 12 36.59 11.98 36.31 11.96 36.04 11.93 35.77 11.89 35.51 11.84 35.25 11.79 34.99 11.72 34.74 11.65 34.51 11.57 34.27 11.48 34.05 11.38 33.83 11.28 33.62 11.17 29.6 8.85 29.22 8.6 28.91 8.34 28.64 8.05 28.43 7.76 28.28 7.45 28.19 7.13 28.15 6.8 28.15 9.71 28.19 10.04 28.28 10.36 28.43 10.67 28.64 10.96 28.91 11.24 29.22 11.51 29.6 11.75"/>
    <path class="cls-6"
          d="M72.23,29.34l-12.16,7c-3.45,2-9.53,1.74-13.52-.56L29.84,26.15l24.7-14.26,16.72,9.65C75.24,23.84,75.68,27.35,72.23,29.34Z"/>
    <path class="cls-3"
          d="M39.92,20.33l11.26-6.5.83.48a2.42,2.42,0,0,1,1.44,2.37,3.68,3.68,0,0,1-2,2.51h0A9.71,9.71,0,0,1,47,20.38C45,20.47,42.62,20.32,39.92,20.33Z"/>
    <path class="cls-10"
          d="M32.67,6.62,34.8,7.85a5,5,0,0,0,4.5-.19h0c1.33-.77,1.47-1.93.32-2.6L37.49,3.84A5,5,0,0,0,33,4h0C31.66,4.79,31.52,6,32.67,6.62Z"/>
    <path class="cls-12"
          d="M1.9,37.84A7.39,7.39,0,0,0,3,40c1.08,1.94,2.27,3.81,3.54,5.63a89.13,89.13,0,0,0,28.15,26C46.93,78.74,60.5,82.33,74.19,85.5a162,162,0,0,0,17.08,3.22,74.54,74.54,0,0,0,12.31.54c3.76-.17,7.69-.42,11.18-1.94a3.83,3.83,0,0,0,2.32-3.44,60.55,60.55,0,0,0,1-8.73s-3.21,7.72-22.54,5.27a144.58,144.58,0,0,1-33.88-7.86l-7.36,3.73S10.46,55.91,1.31,32.1Z"/>
    <path class="cls-61"
          d="M81.38,85.24A3.52,3.52,0,0,1,82.79,87a3.16,3.16,0,0,1,.08,2.16,2,2,0,0,1-1.3,1.31,2.33,2.33,0,0,1-1.92-.31,3.52,3.52,0,0,1-1.41-1.74,3.16,3.16,0,0,1-.08-2.16,2,2,0,0,1,1.3-1.31A2.33,2.33,0,0,1,81.38,85.24Z"/>
    <path class="cls-60"
          d="M81.38,85.24A3.52,3.52,0,0,1,82.79,87a3.16,3.16,0,0,1,.08,2.16,2.31,2.31,0,0,1-.26.52,1.9,1.9,0,0,1-.48.23,2.33,2.33,0,0,1-1.92-.31,3.52,3.52,0,0,1-1.41-1.74,3.16,3.16,0,0,1-.08-2.16,2.33,2.33,0,0,1,.26-.52,1.91,1.91,0,0,1,.48-.23A2.33,2.33,0,0,1,81.38,85.24Z"/>
    <path class="cls-60"
          d="M80.8,86.62a.82.82,0,0,1,.82.82v1a.82.82,0,0,1-.24.58l-.06.05a.52.52,0,0,1,0,.06v1.59s0,0,0,0l.06.05a.82.82,0,0,1,.24.58v1a.82.82,0,0,1-.24.58l-.06.05a.53.53,0,0,1,0,.06v1.59s0,0,0,0l.06.05a.82.82,0,0,1,.24.58v1a.82.82,0,0,1-.24.58l-.06.05a.53.53,0,0,1,0,.06v1.59s0,0,0,0l.06.05a.82.82,0,0,1,.24.58v1a.82.82,0,0,1-.24.58l-.06.05a.53.53,0,0,1,0,.06v1.59s0,0,0,0l.06.05a.82.82,0,0,1,.24.58v1a.82.82,0,0,1-.24.58l-.06.05a.53.53,0,0,1,0,.06v1.59s0,0,0,0l.06.05a.82.82,0,0,1,.24.58v1a.82.82,0,0,1-.24.58l-.06.05a.53.53,0,0,1,0,.06v1.59s0,0,0,0l.06.05a.82.82,0,0,1,.24.58v.59h-.36v-.59a.46.46,0,0,0-.11-.29.52.52,0,0,1-.71,0,.46.46,0,0,0-.11.29v.59H80v-.59a.82.82,0,0,1,.24-.58l.06-.05a.46.46,0,0,1,0,0v-1.59a.55.55,0,0,1,0-.06l-.06-.05a.82.82,0,0,1-.24-.58v-1a.82.82,0,0,1,.24-.58l.06-.05a.46.46,0,0,1,0,0V105a.55.55,0,0,1,0-.06l-.06-.05a.82.82,0,0,1-.24-.58v-1a.82.82,0,0,1,.24-.58l.06-.05a.46.46,0,0,1,0,0V101a.55.55,0,0,1,0-.06l-.06-.05a.82.82,0,0,1-.24-.58v-1a.82.82,0,0,1,.24-.58l.06-.05a.46.46,0,0,1,0,0V97a.55.55,0,0,1,0-.06l-.06-.05a.82.82,0,0,1-.24-.58v-1a.82.82,0,0,1,.24-.58l.06-.05a.46.46,0,0,1,0,0V93.09a.55.55,0,0,1,0-.06L80.22,93a.82.82,0,0,1-.24-.58v-1a.82.82,0,0,1,.24-.58l.06-.05a.46.46,0,0,1,0,0V89.13a.55.55,0,0,1,0-.06L80.22,89a.82.82,0,0,1-.24-.58v-1a.82.82,0,0,1,.82-.82Zm.32.5a.46.46,0,0,0-.78.32v1a.46.46,0,0,0,.11.3.52.52,0,0,1,.69,0,.46.46,0,0,0,.11-.3v-1a.46.46,0,0,0-.14-.32ZM81,89.24l-.16,0-.16,0v1.35l.16,0,.16,0V89.24Zm.3,2.16a.46.46,0,0,0-.11-.29.52.52,0,0,1-.71,0,.46.46,0,0,0-.11.29v1a.46.46,0,0,0,.11.3.52.52,0,0,1,.69,0,.46.46,0,0,0,.11-.3v-1ZM81,93.2l-.16,0-.16,0v1.35l.16,0,.16,0V93.2Zm.3,2.16a.46.46,0,0,0-.11-.29.52.52,0,0,1-.71,0,.46.46,0,0,0-.11.29v1a.46.46,0,0,0,.11.3.52.52,0,0,1,.69,0,.46.46,0,0,0,.11-.3v-1Zm-.3,1.8-.16,0-.16,0v1.35l.16,0,.16,0V97.15Zm.3,2.16a.46.46,0,0,0-.11-.29.52.52,0,0,1-.71,0,.46.46,0,0,0-.11.29v1a.46.46,0,0,0,.11.3.52.52,0,0,1,.69,0,.46.46,0,0,0,.11-.3v-1Zm-.3,1.8-.16,0-.16,0v1.35l.16,0,.16,0v-1.35Zm.3,2.16a.46.46,0,0,0-.11-.29.52.52,0,0,1-.71,0,.46.46,0,0,0-.11.29v1a.46.46,0,0,0,.11.3.52.52,0,0,1,.69,0,.46.46,0,0,0,.11-.3v-1Zm-.3,1.8-.16,0-.16,0v1.35l.16,0,.16,0v-1.35Zm.3,2.16a.46.46,0,0,0-.11-.29.52.52,0,0,1-.71,0,.46.46,0,0,0-.11.29v1a.46.46,0,0,0,.11.3.52.52,0,0,1,.69,0,.46.46,0,0,0,.11-.3v-1ZM81,109l-.16,0-.16,0v1.35l.16,0,.16,0Z"/>
    <polygon class="cls-12"
             points="32.31 24.73 55.78 37.63 56.64 43.21 58.48 42.26 59.04 36.86 34.77 23.31 32.31 24.73"/>
    <polygon class="cls-12" points="38.29 21.21 62.9 34.74 63.2 39.54 65.04 38.45 65.38 33.31 40.75 19.79 38.29 21.21"/>
    <polygon class="cls-12"
             points="44.15 17.97 68.64 31.43 68.75 36.33 70.7 35.09 71.14 29.98 46.61 16.55 44.15 17.97"/>
    <polygon class="cls-12" points="49.3 14.9 73.77 28.08 73.67 27.7 73.69 27.55 74.56 25.96 51.76 13.48 49.3 14.9"/>
    <path class="cls-12" d="M74.56,26a2.87,2.87,0,0,1-.79,2.12l-.7-.38Z"/>
</svg>