<svg id="Layer_1" data-name="Layer 1" xmlns="http://www.w3.org/2000/svg" xmlns:xlink="http://www.w3.org/1999/xlink" viewBox="0 0 314 46"><defs><style>.cls-1{fill:none;}.cls-2{clip-path:url(#clip-path);}.cls-3{fill:#fbb715;}.cls-4{fill:#03854a;}.cls-5{fill:#040404;}.cls-6{font-size:6.75px;fill:#010101;font-family:ArialMT, Arial;letter-spacing:0.05em;}.cls-7{fill:#070606;}.cls-8{fill:#04834a;}</style><clipPath id="clip-path"><rect class="cls-1" x="-633.71" y="-520.69" width="1200" height="379.81"/></clipPath></defs><title>icn_logo</title><g class="cls-2"><image width="5730" height="3611" transform="translate(-643.56 -715.89) scale(0.21)" xlink:href="../ThinkstockPhotos-542325850 copy.jpg"/></g><path class="cls-3" d="M26.85,41.73c-2.61-3.75-4-8-5.24-12.44,2.74,0,5.27,1,7.92,1a2,2,0,0,1,1.58-.18c3.47.27,6.94.58,10.42.6,4.32,0,8.63,0,12.95,0,5.35,0,10.68-.39,16-.7,2.19-.13,4.39-.17,6.59-.26a223.67,223.67,0,0,0,30-3.24,6.77,6.77,0,0,1,1.75-.08l0,.12c2.21.05,4.3-.7,6.45-1,.79-.12,1.75-.84,2.31-.21.41.46-.35,1.35-.62,2a49.57,49.57,0,0,1-8.74,14.47c-.92.21-1.44-.45-2-1a7.71,7.71,0,0,1-1.7-2.3,5.4,5.4,0,0,1-9.34.36A6.19,6.19,0,0,1,92.37,41a5.36,5.36,0,0,1-6-1.63c-.41-.45-.65-.73-1.25-.15-3,2.8-5.94,2.64-8.69-.39-.18,0-.25.2-.35.33-2.23,3-5.58,3.22-8.24.6-.59-.58-1-.67-1.62-.07a5.76,5.76,0,0,1-7.91.39c-.5-.38-.83-.51-1.38-.06a6.19,6.19,0,0,1-8.19,0c-.63-.52-1-.44-1.58,0-2.52,1.92-4.41,2-7.09.31-.53-.33-.9-.45-1.41,0-1.89,1.73-4,1.69-6.27.81a8.17,8.17,0,0,1-1.23-.59,1.67,1.67,0,0,0-2.15.18C28.41,41.28,27.8,41.93,26.85,41.73Z"/><path class="cls-4" d="M96.21,7c0,4.64.06,9.29.05,13.93,0,.87,0,1.25,1.17,1.07,6-.89,11.95-2.1,17.9-3.26a16.34,16.34,0,0,1,2.23-.13c1.05-.06,1.5.56,1.61,1.49s-.52,1.27-1.34,1.43c-3,.59-6,1.22-9,1.82-.24,0-.5,0-.65.29a2.09,2.09,0,0,1-1.42.59c-7.11,1.25-14.23,2.44-21.44,3.05-6.45.55-12.9.89-19.36,1.26-6.85.39-13.7.25-20.54.14a131.62,131.62,0,0,1-14-.71c-.61,0-1.26.07-1.66-.57-2.35-.44-4.74-.56-7.12-.8-1.68-.17-1.84-.4-1.67-1.94.12-1.05.74-1,1.48-1,1.52.14,3,.28,4.56.45.78.09,1.06-.14,1-1-.05-2.4,0-4.8,0-7.2a.21.21,0,0,1,.35.08c.43,1.55.11,3.13.2,4.69,0,.33,0,.66,0,1,0,2,0,2,2,2.24a8.08,8.08,0,0,0,1.59.25c8,.17,16,.49,24,.2,4.06-.15,8.12,0,12.18-.21s8.27-.48,12.4-.82Q86.41,22.9,92,22.25a13.57,13.57,0,0,0,1.71-.31c2-.31,2-.31,2-2.32q0-6.15,0-12.3C95.71,7,95.78,6.7,96.21,7Z"/><path class="cls-3" d="M43.34,10.7c4.22-.2,8.42-.59,12.63-1a4.2,4.2,0,0,1,.85.09c.57.3.53.89.64,1.38.2.92.45,1.83.64,2.75.1.48.2,1-.26,1.37-1.81.75-3.75.48-5.61.63-2.29.17-4.59.35-6.9.35A2.92,2.92,0,0,1,43.76,16,8.07,8.07,0,0,1,43.34,10.7Z"/><path class="cls-4" d="M57.94,15.09,56.82,9.78c2-.61,4.09-.49,6.14-.76a67.37,67.37,0,0,1,7.09-1,8.12,8.12,0,0,1,1.28,5.25,3.59,3.59,0,0,1-1.74.58c-3.4.65-6.84,1-10.27,1.5C58.83,15.46,58.32,15.55,57.94,15.09Z"/><path class="cls-4" d="M80.38,5.71,93.29,2.14a9.17,9.17,0,0,1,1.4,5.25,1.28,1.28,0,0,1-.84.59c-3.55,1-7.13,1.88-10.71,2.76a2.08,2.08,0,0,1-1.57,0A8.59,8.59,0,0,1,80.38,5.71Z"/><path class="cls-4" d="M43.34,10.7l.38,5.13a1.35,1.35,0,0,1-1.23.43c-2.84,0-5.67.1-8.5.25A6.86,6.86,0,0,1,30.84,16a.69.69,0,0,1-.32-.5,9.44,9.44,0,0,1,.69-4.77C35.25,10.62,39.29,10.56,43.34,10.7Z"/><path class="cls-3" d="M80.38,5.71l1.25,5c-.16.53-.65.59-1.07.72-2.64.8-5.35,1.33-8.06,1.88-.4.08-.82.16-1.14-.22L70,8.06C73.44,7.08,76.92,6.44,80.38,5.71Z"/><path class="cls-3" d="M31.21,10.76l-.56,5.11a.37.37,0,0,1-.18.34A4.13,4.13,0,0,1,28.28,16a.37.37,0,0,0-.19,0c-1-.11-2-.19-2.95-.34a2.85,2.85,0,0,1-2.37-1.38c-1.06-2.09-.5-3.32,1.8-3.5A31.64,31.64,0,0,1,31.21,10.76Z"/><path class="cls-3" d="M94.65,7.37,93.29,2.14a14.41,14.41,0,0,1,6-1.66c1.09-.06,2.28.08,2.67,1.32s-.32,2-1.32,2.8C99.29,5.63,97.61,6,96.21,7l-.36.13A.81.81,0,0,1,94.65,7.37Z"/><path class="cls-5" d="M94.07,22.19q0-7.25-.06-14.5l.91-.31,1.27-.28c.39.38.25.86.25,1.29q0,5.81,0,11.62C96.44,22.16,96.44,22.16,94.07,22.19Z"/><path class="cls-5" d="M30.27,16q0,4.11,0,8.23c-2.07.25-2.22.13-2.21-1.88s0-4.21,0-6.32Z"/><g id="ySpcnM.tif"><path d="M104.24,41.68c-2.75,2.1-5.57,2-8.5.49a1.48,1.48,0,0,0-1.2.05,8.11,8.11,0,0,1-8.26-.13,1.85,1.85,0,0,0-1.51,0,7.74,7.74,0,0,1-7.59.21,1.67,1.67,0,0,0-1.33-.05,8,8,0,0,1-8.26-.13,1.68,1.68,0,0,0-1.37,0,8,8,0,0,1-8.26.1,1.52,1.52,0,0,0-1.22,0,7.64,7.64,0,0,1-7.79-.26,1.42,1.42,0,0,0-1.21,0,8,8,0,0,1-8.58.17,1.63,1.63,0,0,0-1.32.15,7.84,7.84,0,0,1-6.36.53,10,10,0,0,1-1.91-1.12c-.47.35-1,.77-1.59,1.16a7.32,7.32,0,0,1-8.49.06,1.56,1.56,0,0,0-2,0c-2.39,1.42-4.85,1.59-7.2-.14-.64-.47-1-.18-1.51.19a6,6,0,0,1-7.68-.24c-.69-.59-1.21-1.26-.85-2.08a27.26,27.26,0,0,0,5.19,1c1.89,0,3.12-1.51,4.26-3C10.83,40,12,41.25,14,41.22s3-1.33,4.31-2.59c1.51,2,3.41,3.34,6,3s3.92-2.23,5.23-4.32a4.55,4.55,0,0,0,4.8,3.15,4.11,4.11,0,0,0,4.3-3,5.15,5.15,0,0,0,4.77,3,4.88,4.88,0,0,0,4.77-3,5.72,5.72,0,0,0,4.77,2.89,4.68,4.68,0,0,0,4.62-2.77c2.91,4.05,6.25,4.22,9.35.4a5.79,5.79,0,0,0,4.85,2.72c2.18,0,3.48-1.32,4.44-3.14,2.22,4,7.26,3.43,9.43,0a5.31,5.31,0,0,0,9.52-.06,4.31,4.31,0,0,0,4.62,3,4.48,4.48,0,0,0,4.5-3.06c4.24,5.42,7.25,5.74,11.26,1.23,1.26,1.16,2.37,2.56,4.34,2.56s3.1-1.18,4.27-2.69c2.46,3.75,5.64,4,9.27,1.73a1.79,1.79,0,0,1-.6,2.39,6,6,0,0,1-7.67.36,1.28,1.28,0,0,0-1.82-.08c-2.35,1.59-4.75,1.28-7.14,0a1.78,1.78,0,0,0-1.51-.12,7.7,7.7,0,0,1-10-.84A2.23,2.23,0,0,0,104.24,41.68Z"/></g><text class="cls-6" transform="translate(10.41 37.82)">TM</text><circle class="cls-7" cx="108.15" cy="25.04" r="1.5"/><circle class="cls-7" cx="30.5" cy="28.86" r="1.5"/><g id="UTckQz"><path class="cls-8" d="M313.88,28.06c-.69,0-.89-.32-.85-1s0-1.57,0-2.35l-.33,0c-.19.81-.33,1.62-.58,2.41a3.41,3.41,0,0,1-.64.88,3.6,3.6,0,0,1-.54-.85c-.25-.85-.43-1.72-.64-2.58l-.26,0c0,.92,0,1.85,0,2.77,0,.21-.22.41-.34.61-.13-.2-.37-.39-.38-.59,0-1.32,0-2.64,0-3.94.94-.37,1.37-.1,1.52.8s.39,1.65.6,2.47h.28a18.26,18.26,0,0,0,.43-1.94c.12-1.08.55-1.73,1.76-1.56Z"/><path class="cls-8" d="M195.34,38.74a19.45,19.45,0,0,0-1.5,1.44,4.12,4.12,0,0,1-6.93-1.06c-.15-.35-.34-.68-.6-1.18-.35.39-.65.7-.93,1A6.31,6.31,0,0,1,181,41.28a3,3,0,0,1-3.38-2.22,10.23,10.23,0,0,1-.85.68,19.48,19.48,0,0,1-2.85,1.73c-2.59,1.07-4.84-.08-5.62-2.78a14.12,14.12,0,0,1,.23-7.45c.93-3.77,2.69-7.05,6-9.28a10.42,10.42,0,0,1,6.37-2,7.25,7.25,0,0,1,1.71.42c.59.18,1.15.45,1.75.61a1.35,1.35,0,0,1,1.08,1.89c-1,3.15-2.09,6.28-3.12,9.42-.39,1.2-.73,2.41-1.1,3.62l.34.22a6.68,6.68,0,0,0,1.14-.75c1.09-1.09,2.13-2.21,3.19-3.33a1.13,1.13,0,0,0,.25-.45c.69-2.37,1.37-4.75,2-7a6.48,6.48,0,0,1-1.33-1.17,2.09,2.09,0,0,1,1.66-3.2A1.41,1.41,0,0,0,189.92,19c.44-1.29,1-2.55,1.46-3.81a3.19,3.19,0,0,1,4-1.77,1.37,1.37,0,0,1,.83,1.72c-.15.82-.31,1.64-.54,2.45s-.51,1.51-.68,2c.74.6,1.62,1,1.92,1.62a2,2,0,0,1-2,3c-.61,0-1,.14-1.16.75-1,3.13-2,6.25-2.88,9.38A4.5,4.5,0,0,0,191,35.8l.34.1c.3-.35.6-.7.91-1,.92-1,1.87-2,2.76-3.08a2.63,2.63,0,0,0,.41-.93A19.61,19.61,0,0,1,201.66,21,4.93,4.93,0,0,1,205,19.74c2.18.11,3.59,2.26,3.16,4.65-.66,3.69-3,6.11-5.91,8.18a3,3,0,0,1-.7.45c-2,.69-2.18,2.37-2.36,4.09-.09.81.31,1.24,1,1a6,6,0,0,0,2.71-1.39,48.55,48.55,0,0,0,4.86-6.66c1.74-3,3.13-6.22,4.65-9.35.32-.66.8-1.09,1.48-.66,1.91,1.19,4.07,1.13,6.18,1.3,1.24.1,1.64.42,1.56,1.69a7.08,7.08,0,0,1-.48,2c-1.38,3.62-2.8,7.21-4.18,10.83a11.87,11.87,0,0,0-.36,1.46l.26.19a12.44,12.44,0,0,0,1.48-1.19c1.47-1.59,2.89-3.23,4.33-4.85a7,7,0,0,1,.84-.94,5.54,5.54,0,0,1,1.06-.52,5.07,5.07,0,0,1,.34,1.21c.11,4.71-3.24,7.36-6.36,9.89-2.43,2-4.86-.22-5.58-2.72a9.68,9.68,0,0,1,.56-6.25c.74-1.92,1.62-3.78,2.39-5.68.2-.48.81-1.09,0-1.52s-1.11.19-1.48.82c-2.24,3.89-3.72,8.24-6.77,11.64A28.91,28.91,0,0,1,203.73,41a6.13,6.13,0,0,1-4.59,1.06,3.92,3.92,0,0,1-2.78-1.68C196,39.91,195.74,39.39,195.34,38.74ZM180.43,24.31c-3.29.59-9.05,9.92-7.75,12.82a10.74,10.74,0,0,0,2-1.85c1.51-2.42,2.93-4.89,4.29-7.4A36.61,36.61,0,0,0,180.43,24.31Zm20,4.09a8.72,8.72,0,0,0,3.78-3c.17-.27.08-.7.11-1.05a3,3,0,0,0-1,.2A7.78,7.78,0,0,0,200.41,28.4Z"/><path class="cls-8" d="M293.36,39.28c-1.39,1-2.54,2.41-4.34,2.12a4.35,4.35,0,0,1-3.42-3.1c-.77.71-1.49,1.4-2.23,2.06s-1.74,1.62-2.7,2.32c-1.2.88-2,.53-1.94-.93a5.75,5.75,0,0,1,.72-2.76c1.69-2.77,3.55-5.44,5.3-8.17a10.39,10.39,0,0,0,.74-1.82l-.41-.24a13.66,13.66,0,0,0-1.2,1.44c-1.53,2.42-2.94,4.92-4.56,7.27a10.86,10.86,0,0,1-3.1,3.18c-1.92,1.15-4.43,1.67-6-1.3-.7.51-1.38,1.07-2.11,1.52a8.93,8.93,0,0,1-2,1,3.83,3.83,0,0,1-5-2.54c-1-2.66-.57-5.31.09-7.92,1.09-4.37,3.27-8,7.47-10.09a9.18,9.18,0,0,1,5-1.12,8,8,0,0,1,1.6.41c.56.18,1.09.45,1.65.6,1.07.28,1.5.86,1.16,1.91-1,3.08-2,6.14-3.07,9.22-.42,1.26-.8,2.53-1.19,3.8l.41.25c.53-.41,1.09-.79,1.58-1.24a28.93,28.93,0,0,0,5.65-7.88q1.46-2.66,3-5.26a3,3,0,0,1,3.48-1.14,1.33,1.33,0,0,1,.54,1,20.7,20.7,0,0,1,0,2.24l.37.18c.56-.61,1.08-1.27,1.69-1.82a9,9,0,0,1,2.11-1.63c1.08-.51,2,.16,2,1.36a3,3,0,0,1-.4,1.48c-1.38,2.26-2.74,4.55-4.27,6.71-1.25,1.77-1,3.72-1,5.65,0,.74.61.84,1.1.35a21.18,21.18,0,0,0,2-2.27c1.72-2.29,2.6-5,3.63-7.62.38-1,.79-1.94,1.25-2.88a5.1,5.1,0,0,1,1-1.35,2,2,0,0,1,2.51-.38,1.82,1.82,0,0,1,.93,2.24c-.61,1.92-1.38,3.79-2.08,5.68-.82,2.19-1.66,4.36-2.44,6.56a6.79,6.79,0,0,0-.17,1.59l.32.18c.66-.63,1.37-1.21,2-1.89,1.35-1.51,2.62-3.1,4-4.59a6.49,6.49,0,0,1,1.53-.94,9.07,9.07,0,0,1,.48,1.8c.15,2.44-1.48,4.08-2.89,5.73a20.91,20.91,0,0,1-3.83,3.54c-2.24,1.57-4.06.79-4.84-1.85C293.52,39.67,293.45,39.52,293.36,39.28ZM273.18,24.43c-3.36.79-8.86,9.72-7.84,12.64a4.86,4.86,0,0,0,2.59-2.29A44.58,44.58,0,0,0,273.18,24.43Z"/><path class="cls-8" d="M157,37.25a12.27,12.27,0,0,0,.75-1.1c2.69-5,5.43-10,8-15.06A25.08,25.08,0,0,0,168.13,10a9.63,9.63,0,0,0-.7-2.36c-.11-.44-.31-1.09-.1-1.32a1.8,1.8,0,0,1,1.39-.43A3.87,3.87,0,0,1,172,8.68a13.92,13.92,0,0,1,.33,7.65A59.75,59.75,0,0,1,161,40.63c-1.25,1.67-3,3-5.22,2.38s-3.35-2.61-3.65-4.8a62.34,62.34,0,0,1-.26-6.38,2,2,0,0,0-.22-1.06l-.58.92-6,9.5a7.43,7.43,0,0,1-.66.94c-1.05,1.21-2.7,1.16-3.37-.28a10.1,10.1,0,0,1-.92-3.71,35.73,35.73,0,0,1,1.72-11.64c.65-2.28,1.27-4.56,1.91-6.84.14-.5.21-.88-.45-1.17a1.41,1.41,0,0,1-.7-2,24.37,24.37,0,0,1,4.8-7.8c1.14-1.15,2.19-1.41,3.28-.87a3,3,0,0,1,1.5,3.29,26.67,26.67,0,0,1-1,3.19q-2.13,6.45-4.27,12.91c-.07.22-.1.45-.21,1,.36-.46.53-.65.68-.87,2.49-3.71,5-7.45,7.48-11.14a15.36,15.36,0,0,1,2.16-2.41,1.51,1.51,0,0,1,2.51.23,3.51,3.51,0,0,1,.64,3.27c-.92,3.29-1.81,6.59-2.84,9.84a24.51,24.51,0,0,0-1,9.3,4.32,4.32,0,0,0,.23.83Z"/><path class="cls-8" d="M257.73,17.55c-2.84.31-5.63.7-8.43.9a22.48,22.48,0,0,1-10.21-1.16,6.42,6.42,0,0,1-4.17-4.62,4,4,0,0,1,2.25-4.51,3.73,3.73,0,0,1,2-.18c1,.18,1.23.67.83,1.67-.56,1.42-.25,2.51,1.2,2.92a21.89,21.89,0,0,0,5.73,1,46.27,46.27,0,0,0,8.54-.67,24.71,24.71,0,0,0,5.41-2.16c.37-.16.56-.68.87-1a17,17,0,0,1,2.18-2.21,2.34,2.34,0,0,1,3.21.45,2.08,2.08,0,0,1,.17,3,12.43,12.43,0,0,1-2.38,2.47,6.11,6.11,0,0,0-2.32,3.61c-1.18,4.76-2.27,9.56-3.59,14.28-1,3.67-2.47,7.24-5.2,10a21.09,21.09,0,0,1-4.37,3.37,6.75,6.75,0,0,1-8.61-2.05c-2.24-2.85-2.74-6.21-2.42-9.71a1.9,1.9,0,0,1,1.09-1.39,9.54,9.54,0,0,1,3.45,0c.82.16.92,1.07.29,1.7a4.42,4.42,0,0,0-1.11,4.27c.3,1.55,2.37,2.5,4.28,2a8.24,8.24,0,0,0,5.07-4.1c2.74-4.54,4.19-9.55,5.35-14.67C257.09,19.66,257.44,18.58,257.73,17.55Z"/><path class="cls-8" d="M301.53,12.54a2.57,2.57,0,0,1,2.67,2.71,2.6,2.6,0,0,1-2.72,2.69,2.64,2.64,0,0,1-2.74-2.78A2.6,2.6,0,0,1,301.53,12.54Z"/><path class="cls-8" d="M307.22,24.06c-.12,1.36-.23,2.61-.36,3.87a3,3,0,0,1-.55.06V24.18l-.45-.15-1-.42a5.94,5.94,0,0,1,1.1-.29,11.46,11.46,0,0,1,1.88,0c.24,0,.46.25.7.38a5,5,0,0,1-.67.3A3.49,3.49,0,0,1,307.22,24.06Z"/></g></svg>