<?xml version="1.0" encoding="utf-8"?>
<!-- Generator: Adobe Illustrator 16.0.2, SVG Export Plug-In . SVG Version: 6.00 Build 0)  -->
<!DOCTYPE svg PUBLIC "-//W3C//DTD SVG 1.1//EN" "http://www.w3.org/Graphics/SVG/1.1/DTD/svg11.dtd">
<svg version="1.1" id="Layer_1" xmlns="http://www.w3.org/2000/svg" xmlns:xlink="http://www.w3.org/1999/xlink" height="64px" viewBox="0 0 37.084 63.205" enable-background="new 0 0 37.084 63.205" xml:space="preserve">
<path fill="#E93B00" d="M18.543,0C8.303,0,0,8.302,0,18.542c0,4.689,1.745,8.969,4.616,12.234l7.298,9.406L26.317,1.709
	C23.952,0.615,21.319,0,18.543,0"/>
<path fill="#E21E00" d="M18.533,48.649L32.886,30.29c2.623-3.198,4.198-7.289,4.198-11.748c0-7.463-4.411-13.893-10.766-16.833
	L11.915,40.183l6.594,8.5L18.533,48.649z"/>
<defs>
	<filter id="Adobe_OpacityMaskFilter" filterUnits="userSpaceOnUse" x="1.424" y="50.372" width="34.238" height="12.833">

			<feColorMatrix  type="matrix" values="-1 0 0 0 1  0 -1 0 0 1  0 0 -1 0 1  0 0 0 1 0" color-interpolation-filters="sRGB" result="source"/>
	</filter>
</defs>
<mask maskUnits="userSpaceOnUse" x="1.424" y="50.372" width="34.238" height="12.833" id="SVGID_1_">
	<g filter="url(#Adobe_OpacityMaskFilter)">
		<g enable-background="new    ">
			<g>
				<defs>
					<path id="SVGID_2_" d="M35.662,56.787c0,7.832-7.666,14.181-17.119,14.181c-9.455,0-17.119-6.349-17.119-14.181
						c0-7.831,7.664-14.18,17.119-14.18C27.996,42.607,35.662,48.956,35.662,56.787"/>
				</defs>
				<clipPath id="SVGID_3_">
					<use xlink:href="#SVGID_2_"  overflow="visible"/>
				</clipPath>

					<radialGradient id="SVGID_4_" cx="-636.1792" cy="2230.4463" r="1" gradientTransform="matrix(19.4242 0 0 -6.4143 12375.7783 14363.625)" gradientUnits="userSpaceOnUse">
					<stop  offset="0" style="stop-color:#000000"/>
					<stop  offset="0.0574" style="stop-color:#000000"/>
					<stop  offset="0.8771" style="stop-color:#FFFFFF"/>
					<stop  offset="1" style="stop-color:#FFFFFF"/>
				</radialGradient>
				<rect x="1.424" y="42.607" clip-path="url(#SVGID_3_)" fill="url(#SVGID_4_)" width="34.238" height="28.36"/>
			</g>
		</g>
	</g>
</mask>
<g opacity="0.2" mask="url(#SVGID_1_)">
	<g>
		<defs>
			<rect id="SVGID_5_" x="1.424" y="50.375" width="34.238" height="12.83"/>
		</defs>
		<clipPath id="SVGID_6_">
			<use xlink:href="#SVGID_5_"  overflow="visible"/>
		</clipPath>
		<path clip-path="url(#SVGID_6_)" fill="#120F0F" fill-opacity="0.4" d="M35.662,56.787c0,3.543-7.664,6.415-17.119,6.415S1.424,60.33,1.424,56.787
			s7.664-6.415,17.119-6.415S35.662,53.244,35.662,56.787"/>
	</g>
</g>
<text transform="matrix(1 0 0 1 4.917 23.9707)" fill="#FFFFFF" font-family="'Gotham-Bold'" font-size="12.1965">MAP</text>
</svg>
