<svg id="Layer_1" data-name="Layer 1" xmlns="http://www.w3.org/2000/svg" viewBox="0 0 338 94"><defs><style>.cls-1{fill:#bcbec0;}.cls-2{fill:#fff;}</style></defs><title>social_icns</title><rect class="cls-1" x="244.8" y="1.1" width="91.79" height="91.79" rx="45.68" ry="45.68"/><path class="cls-2" d="M285.8,18.73h-3.2L280.44,27l-2.25-8.3h-3.33c.67,2,1.36,3.93,2,5.89a51.93,51.93,0,0,1,1.93,6.69v8.56H282V31.31Zm8.46,16V29.25a6.19,6.19,0,0,0-.89-3.71,4.23,4.23,0,0,0-6.65,0,6.12,6.12,0,0,0-.89,3.71v5.52a6.1,6.1,0,0,0,.89,3.71,4.24,4.24,0,0,0,6.65,0A6.18,6.18,0,0,0,294.26,34.77Zm-2.86.54c0,1.46-.44,2.19-1.36,2.19s-1.36-.73-1.36-2.19V28.68c0-1.46.44-2.18,1.36-2.18s1.36.73,1.36,2.18Zm13.41,4.56V24.12H302v12c-.63.89-1.23,1.34-1.8,1.34-.38,0-.61-.23-.67-.67a6.49,6.49,0,0,1,0-1.11V24.12h-2.85V36.57a7.94,7.94,0,0,0,.25,2.34,1.75,1.75,0,0,0,1.84,1.17A4.59,4.59,0,0,0,302,38.15v1.72Z"/><path class="cls-2" d="M295.87,55.86a2,2,0,0,0-1.41.69V66a2,2,0,0,0,1.41.69c.81,0,1.23-.69,1.23-2.1V58C297.1,56.58,296.68,55.86,295.87,55.86Z"/><path class="cls-2" d="M306.35,55.86q-1.42,0-1.42,2.16v1.44h2.82V58C307.76,56.58,307.28,55.86,306.35,55.86Z"/><path class="cls-2" d="M313.25,47.93a5.9,5.9,0,0,0-5.05-4.59,157.07,157.07,0,0,0-17.5-.65,157.06,157.06,0,0,0-17.5.65,5.9,5.9,0,0,0-5.05,4.59,50,50,0,0,0-.82,11,50.09,50.09,0,0,0,.81,11,5.9,5.9,0,0,0,5.05,4.59,157,157,0,0,0,17.5.65,157.07,157.07,0,0,0,17.5-.65A5.9,5.9,0,0,0,313.24,70a49.91,49.91,0,0,0,.82-11A50.1,50.1,0,0,0,313.25,47.93Zm-32.59,3.19h-3.39v18h-3.14v-18h-3.32V48.17h9.85Zm8.53,18h-2.83v-1.7a4.52,4.52,0,0,1-3.23,1.92,1.73,1.73,0,0,1-1.82-1.16,7.89,7.89,0,0,1-.25-2.32V53.51h2.82V65a8.67,8.67,0,0,0,0,1.1c.07.44.28.66.66.66.57,0,1.16-.44,1.79-1.32V53.51h2.83Zm10.73-4.68a12.48,12.48,0,0,1-.28,3.14,2.24,2.24,0,0,1-2.26,1.75,3.85,3.85,0,0,1-2.92-1.73v1.51h-2.82V48.17h2.82V55a3.83,3.83,0,0,1,2.92-1.69,2.23,2.23,0,0,1,2.26,1.76,12.08,12.08,0,0,1,.28,3.13Zm10.66-2.6h-5.65v2.76c0,1.44.47,2.16,1.44,2.16a1.22,1.22,0,0,0,1.26-1.13,18.32,18.32,0,0,0,.06-1.91h2.88v.41c0,.91,0,1.54-.06,1.82a4.06,4.06,0,0,1-.66,1.69,3.91,3.91,0,0,1-3.42,1.69,4,4,0,0,1-3.42-1.6,6,6,0,0,1-.91-3.66V58.59a6.06,6.06,0,0,1,.87-3.67,4,4,0,0,1,3.38-1.6,3.92,3.92,0,0,1,3.33,1.6,6.13,6.13,0,0,1,.88,3.67Z"/><rect class="cls-1" x="1.41" y="1.32" width="91.35" height="91.35" rx="45.68" ry="45.68"/><path class="cls-2" d="M33.1,37.84h6V32.41c0-2.4.06-6.09,1.93-8.38s4.66-4.07,9.31-4.07c7.56,0,10.75,1,10.75,1l-1.5,8.29a21.57,21.57,0,0,0-4.83-.67c-2.33,0-4.42.78-4.42,3v6.32h9.56l-.67,8.09H50.33V74.05H39.09V45.93h-6Z"/><rect class="cls-1" x="122.88" y="1.1" width="91.79" height="91.79" rx="45.68" ry="45.68"/><path class="cls-2" d="M192.2,32.47A19.19,19.19,0,0,1,186.68,34a9.63,9.63,0,0,0,4.23-5.32,19.21,19.21,0,0,1-6.1,2.33,9.62,9.62,0,0,0-16.38,8.76,27.28,27.28,0,0,1-19.81-10,9.63,9.63,0,0,0,3,12.83,9.57,9.57,0,0,1-4.35-1.2v.12a9.62,9.62,0,0,0,7.71,9.42,9.67,9.67,0,0,1-2.53.34,9.54,9.54,0,0,1-1.81-.17,9.62,9.62,0,0,0,9,6.68,19.28,19.28,0,0,1-11.94,4.11,19.83,19.83,0,0,1-2.29-.13A27.22,27.22,0,0,0,160.09,66c17.68,0,27.34-14.64,27.34-27.34,0-.42,0-.83,0-1.25A19.57,19.57,0,0,0,192.2,32.47Z"/></svg>