<svg xmlns="http://www.w3.org/2000/svg" viewBox="0 0 136.25 222.3" widht="64" height="64px"><defs><style>.cls-1{isolation:isolate;}.cls-2{mix-blend-mode:multiply;}.cls-3{fill-opacity: 0.4; fill:#e6e7e8;}.cls-4{fill:#61439a;}.cls-5{fill:#662d91;}.cls-6{fill:#fff;}</style></defs><title>icn_gift</title><g class="cls-1"><g id="Слой_2" data-name="Слой 2"><g id="Layer_1" data-name="Layer 1"><g class="cls-2"><path class="cls-3" d="M89.81,192.27c-13.75-7.94-27.94-7.94-41.7,0h0c-6.88,4-10.31,8-10.31,12s3.44,8.07,10.31,12c13.75,7.94,27.94,7.94,41.7,0,6.88-4,10.31-8,10.31-12S96.69,196.24,89.81,192.27Z"/></g><path class="cls-4" d="M68.12,0A68.11,68.11,0,0,0,17,113.07l26.82,34.56L96.69,6.28A67.84,67.84,0,0,0,68.12,0Z"/><path class="cls-5" d="M68.09,178.74l52.73-67.46a68.12,68.12,0,0,0-24.13-105L43.77,147.64,68,178.86Z"/><path class="cls-6" d="M66.1,63.78h-31a1.43,1.43,0,0,1-1.44-1.43V50.9a1.43,1.43,0,0,1,1.43-1.44h31a1.44,1.44,0,0,1,1.44,1.43V62.35a1.43,1.43,0,0,1-1.43,1.43Z"/><path class="cls-6" d="M103.59,63.79h-31a1.44,1.44,0,0,1-1.43-1.43V50.91a1.43,1.43,0,0,1,1.43-1.44h31A1.44,1.44,0,0,1,105,50.91V62.35a1.43,1.43,0,0,1-1.43,1.44Z"/><path class="cls-6" d="M66.1,109.7H36.55a1.43,1.43,0,0,1-1.43-1.43V69.56a1.44,1.44,0,0,1,1.43-1.44H66.1a1.44,1.44,0,0,1,1.44,1.43v38.71a1.43,1.43,0,0,1-1.43,1.43Z"/><path class="cls-6" d="M102.16,109.71H72.6a1.43,1.43,0,0,1-1.43-1.43V69.56a1.43,1.43,0,0,1,1.43-1.44h29.55a1.43,1.43,0,0,1,1.43,1.44v38.71a1.44,1.44,0,0,1-1.43,1.43Z"/><path class="cls-6" d="M50.57,44.5a49.13,49.13,0,0,0,5.76,5H81.62a49.18,49.18,0,0,0,5.76-4.95c6.92-6.92,12-15.76,7.9-19.91a5.37,5.37,0,0,0-3.93-1.5c-4.05,0-10.18,3.61-16,9.41A45.74,45.74,0,0,0,69,40.38a46.26,46.26,0,0,0-6.41-7.89c-5.81-5.8-11.93-9.41-16-9.41a5.34,5.34,0,0,0-3.92,1.5c-1.44,1.43-2.58,4.27.15,9.67A42.34,42.34,0,0,0,50.57,44.5Zm29.06-7.75c4.71-4.72,9-7.11,11.09-7.57-.45,1.83-2.63,6.11-7.59,11.06-4.64,4.63-8.88,7-11.05,7.54C72.56,45.69,75,41.42,79.63,36.75Zm-21.31,0c5,5,7.14,9.24,7.59,11.07-2.07-.46-6.37-2.85-11.09-7.57a36.32,36.32,0,0,1-6.64-8.69,10.66,10.66,0,0,1-.91-2.36C49.36,29.67,53.64,32.06,58.32,36.74Z"/><path class="cls-6" d="M75.55,49.47a7.86,7.86,0,1,0-13.18,0Z"/></g></g></g></svg>