<svg xmlns="http://www.w3.org/2000/svg" viewBox="0 0 251.75 181.2" widht="64" height="64px"><defs><style>.cls-1{isolation:isolate;}.cls-2{mix-blend-mode:multiply;}.cls-3{fill-opacity: 0.4; fill:#e6e7e8;}.cls-4{fill:#f99b1c;}.cls-5{fill:#da9b28;}.cls-6{fill:#f9b418;}.cls-7{fill:#d74527;}.cls-8{fill:#de5f25;}.cls-9{fill:#b4b4b4;}.cls-10{fill:#194c6d;}.cls-11{fill:#fff;}.cls-12{fill:#e9e8e8;}.cls-13{fill:#9e9e9e;}.cls-14{fill:#d2d2d2;}.cls-15{fill:#004b75;}.cls-16{fill:#959494;}.cls-17{fill:#dcdcdc;}.cls-18{fill:#ccc;}.cls-19{fill:#c3c3c3;}.cls-20{fill:#f1f0f0;}.cls-21{fill:#dcdbdb;}.cls-22{fill:#9b9c9c;}.cls-23{fill:#c8c7c6;}.cls-24{fill:#acabab;}.cls-25{fill:#d4d4d4;}</style></defs><title>icn_transfer_boat_pad</title><g class="cls-1"><g id="Слой_2" data-name="Слой 2"><g id="Layer_1" data-name="Layer 1"><g class="cls-2"><path class="cls-3" d="M210.27,60.43C155,28.5,97.88,28.5,42.58,60.43h0C14.92,76.4,1.09,92.62,1.09,108.84s13.83,32.44,41.48,48.41c55.31,31.93,112.39,31.93,167.7,0,27.65-16,41.48-32.19,41.48-48.41S237.92,76.4,210.27,60.43Z"/></g><path class="cls-4" d="M193,51.61c-51-29.46-103.69-29.46-154.72,0h0C12.76,66.35,0,81.31,0,96.28s12.76,29.93,38.27,44.66c51,29.46,103.69,29.46,154.72,0,25.51-14.73,38.27-29.7,38.27-44.66S218.5,66.35,193,51.61Z"/><path class="cls-5" d="M0,74V96.28c0,15,12.76,29.93,38.27,44.66V118.65C12.76,103.92,0,89,0,74Z"/><path class="cls-6" d="M38.27,118.65l155.31-89-.59-.35C142-.13,89.3-.13,38.27,29.33,12.76,44.06,0,59,0,74S12.76,103.92,38.27,118.65Z"/><path class="cls-7" d="M193,140.94c25.51-14.73,38.27-29.7,38.27-44.66V74c0,15-12.76,29.93-38.27,44.66-51,29.46-103.69,29.46-154.72,0v22.29C89.3,170.4,142,170.4,193,140.94Z"/><path class="cls-8" d="M193,118.66C218.5,103.92,231.26,89,231.26,74s-12.56-29.7-37.68-44.32l-155.31,89C89.3,148.12,142,148.12,193,118.66Z"/><path class="cls-5" d="M83.87,42.93a35.46,35.46,0,0,0-19.64,4.39c-4.8,2.57-14.69,5.82-15.29,12.41a5.51,5.51,0,0,0,0,.91c.61,8.25,14.85,18.77,20.52,23.95Q75,89.64,81,94.16l58.47-33.5C121.63,52,100.94,44.34,83.87,42.93Z"/><path class="cls-7" d="M166.61,111.47c12.81-5.19,23.71-17.2,10-28.58-6.63-5.5-20.67-14.27-37.11-22.23L81,94.16A124.08,124.08,0,0,0,98.12,105C118.58,115.64,144.65,120.36,166.61,111.47Z"/><path class="cls-9" d="M182.87,87.91c-.24.23-20.9,17.23-23.07,18.35-13.6,7-27.94-.54-27.94-.54L59,62.93s-8.61-5-11-8.8a19.27,19.27,0,0,1-2.8-7.79l-5-19.16S183.11,87.68,182.87,87.91Z"/><path class="cls-10" d="M136.09,101s13.29,7.13,27.29,2.61a40.63,40.63,0,0,1-3.58,2.6c-13.6,7-27.94-.54-27.94-.54L59,62.93s-8.61-5-11-8.8a19.27,19.27,0,0,1-2.8-7.79l-.1-.4A70.4,70.4,0,0,0,53.84,52Z"/><path class="cls-11" d="M157.48,42.41c24.63,14.86,25.39,45.51,25.39,45.51h-.12l-44.82-33.7Z"/><path class="cls-11" d="M137.92,54.21l44.82,33.7c-2.64-.18-47.29-3.37-71.18-17.79Z"/><polygon class="cls-11" points="157.48 42.41 111.57 70.11 40.3 27.18 40.3 27.18 85.77 0 157.48 42.41"/><polygon class="cls-12" points="152.74 41.97 110.63 67.39 44.25 27.41 44.25 27.41 85.96 2.48 152.74 41.97"/><polygon class="cls-9" points="152.74 41.97 148.94 44.27 85.96 7.02 85.96 2.48 152.74 41.97"/><polygon class="cls-13" points="85.96 2.48 85.96 2.48 85.96 7.02 85.96 7.02 48.03 29.7 44.25 27.41 85.96 2.48"/><path class="cls-14" d="M91.81,35.63l66.34,9.31a40,40,0,0,1,3.35,2.32l1.91-3.69,5.32,11.84a16.79,16.79,0,0,1,.93,2.08h0c2.2,6,.14,12-6.55,16-11.56,7-32.58,5.57-47.16-3.1L91.81,56.05Z"/><path class="cls-15" d="M96.59,38.6l61.56,6.34a40,40,0,0,1,3.35,2.32l1.91-3.69,5.32,11.84a16.79,16.79,0,0,1,.93,2.08h0c2.2,6,.14,12-6.55,16-11.56,7-32.58,5.57-47.16-3.1L96.59,58.87Z"/><path class="cls-11" d="M91.81,35.63l26.07,15.57c12.16,7.24,29.71,8.41,39.35,2.58S165,37.33,153.1,29.94L127.2,14.21Z"/><path class="cls-11" d="M47.79,41.22a9.69,9.69,0,0,0,4.15,7.52h0c2.29,1.38,4.15.26,4.15-2.51v-.31a9.69,9.69,0,0,0-4.15-7.52h0c-2.29-1.38-4.15-.26-4.15,2.51Z"/><path class="cls-15" d="M48.3,41.51a8.52,8.52,0,0,0,3.65,6.61h0c2,1.22,3.65.23,3.65-2.2v-.27A8.52,8.52,0,0,0,51.95,39h0c-2-1.22-3.65-.23-3.65,2.2Z"/><path class="cls-11" d="M60,48.67a9.69,9.69,0,0,0,4.15,7.52h0c2.29,1.38,4.15.26,4.15-2.51v-.31a9.69,9.69,0,0,0-4.15-7.52h0C61.89,44.47,60,45.6,60,48.36Z"/><path class="cls-15" d="M60.62,49a8.33,8.33,0,0,0,3.57,6.46h0c2,1.19,3.57.23,3.57-2.15V53a8.33,8.33,0,0,0-3.57-6.46h0c-2-1.19-3.57-.23-3.57,2.15Z"/><g class="cls-1"><g class="cls-1"><g class="cls-1"><path class="cls-16" d="M149.36,41.65l0,7.16a.52.52,0,0,0,0,.2l0-7.16a.53.53,0,0,1,0-.2Z"/><path class="cls-9" d="M149.4,41.84l0,7.16a.85.85,0,0,0,.36.39,1.93,1.93,0,0,0,1,.25l0-7.16a1.93,1.93,0,0,1-1-.25.84.84,0,0,1-.36-.39Z"/><path class="cls-17" d="M150.77,42.48l0,7.16a1.92,1.92,0,0,0,1-.25.72.72,0,0,0,.41-.6l0-7.16a.72.72,0,0,1-.41.6,1.92,1.92,0,0,1-1,.25Z"/></g></g><path class="cls-18" d="M149.77,41a.64.64,0,0,0,0,1.19,2.07,2.07,0,0,0,2,0,.64.64,0,0,0,0-1.19A2.07,2.07,0,0,0,149.77,41Z"/></g><g class="cls-1"><g class="cls-1"><path class="cls-19" d="M145.12,41.2v.62a2.93,2.93,0,0,0,1.64,2.4,8.45,8.45,0,0,0,8,0,3,3,0,0,0,1.66-2.43v-.62a3,3,0,0,1-1.66,2.43,8.45,8.45,0,0,1-8,0,2.93,2.93,0,0,1-1.64-2.4Z"/></g><path class="cls-11" d="M146.79,38.77c-2.21,1.33-2.22,3.5,0,4.83a8.45,8.45,0,0,0,8,0c2.21-1.33,2.22-3.5,0-4.83A8.45,8.45,0,0,0,146.79,38.77Z"/></g><g class="cls-1"><g class="cls-1"><g class="cls-1"><path class="cls-16" d="M149.36,33.77l0,7.16a.52.52,0,0,0,0,.2l0-7.16a.53.53,0,0,1,0-.2Z"/><path class="cls-9" d="M149.4,34l0,7.16a.85.85,0,0,0,.36.39,1.93,1.93,0,0,0,1,.25l0-7.16a1.93,1.93,0,0,1-1-.25.84.84,0,0,1-.36-.39Z"/><path class="cls-17" d="M150.77,34.6l0,7.16a1.93,1.93,0,0,0,1-.25.72.72,0,0,0,.41-.6l0-7.16a.72.72,0,0,1-.41.6,1.92,1.92,0,0,1-1,.25Z"/></g></g><path class="cls-18" d="M149.77,33.17a.64.64,0,0,0,0,1.19,2.08,2.08,0,0,0,2,0,.64.64,0,0,0,0-1.19A2.07,2.07,0,0,0,149.77,33.17Z"/></g><g class="cls-1"><g class="cls-1"><path class="cls-19" d="M146,32.92v.52a2.45,2.45,0,0,0,1.37,2,7.07,7.07,0,0,0,6.67,0,2.47,2.47,0,0,0,1.39-2v-.52a2.47,2.47,0,0,1-1.39,2,7.07,7.07,0,0,1-6.67,0,2.45,2.45,0,0,1-1.37-2Z"/></g><path class="cls-11" d="M147.44,30.88c-1.85,1.12-1.86,2.93,0,4a7.07,7.07,0,0,0,6.67,0c1.85-1.12,1.86-2.92,0-4A7.07,7.07,0,0,0,147.44,30.88Z"/></g><g class="cls-1"><g class="cls-1"><g class="cls-1"><path class="cls-16" d="M149.36,25.52l0,7.16a.52.52,0,0,0,0,.2l0-7.16a.53.53,0,0,1,0-.2Z"/><path class="cls-9" d="M149.4,25.71l0,7.16a.85.85,0,0,0,.36.39,1.93,1.93,0,0,0,1,.25l0-7.16a1.93,1.93,0,0,1-1-.25.84.84,0,0,1-.36-.39Z"/><path class="cls-17" d="M150.77,26.35l0,7.16a1.92,1.92,0,0,0,1-.25.72.72,0,0,0,.41-.6l0-7.16a.72.72,0,0,1-.41.6,1.92,1.92,0,0,1-1,.25Z"/></g></g><path class="cls-18" d="M149.77,24.92a.64.64,0,0,0,0,1.19,2.08,2.08,0,0,0,2,0,.64.64,0,0,0,0-1.19A2.07,2.07,0,0,0,149.77,24.92Z"/></g><g class="cls-1"><g class="cls-1"><path class="cls-19" d="M146.76,24.9v.44a2.08,2.08,0,0,0,1.16,1.7,6,6,0,0,0,5.67,0,2.1,2.1,0,0,0,1.18-1.73v-.44a2.1,2.1,0,0,1-1.18,1.73,6,6,0,0,1-5.67,0,2.08,2.08,0,0,1-1.16-1.7Z"/></g><path class="cls-11" d="M147.94,23.17c-1.57.95-1.58,2.48,0,3.43a6,6,0,0,0,5.67,0c1.57-.95,1.58-2.48,0-3.43A6,6,0,0,0,147.94,23.17Z"/></g><g class="cls-1"><g class="cls-1"><g class="cls-1"><path class="cls-16" d="M150,16l-.47,9a.49.49,0,0,0,0,.18l.45-9.1a.29.29,0,0,1,0-.11Z"/><path class="cls-19" d="M150,16.06l-.45,9.1a.76.76,0,0,0,.33.35,1.73,1.73,0,0,0,.9.22l0-9.33a1,1,0,0,1-.54-.13.45.45,0,0,1-.2-.21Z"/><path class="cls-17" d="M150.75,16.4l0,9.33a1.73,1.73,0,0,0,.86-.22A.65.65,0,0,0,152,25l-.53-9a.39.39,0,0,1-.22.32,1,1,0,0,1-.51.13Z"/></g></g><path class="cls-11" d="M150.21,15.63a.34.34,0,0,0,0,.64,1.12,1.12,0,0,0,1.06,0,.34.34,0,0,0,0-.64A1.12,1.12,0,0,0,150.21,15.63Z"/></g><polygon class="cls-20" points="119.26 11.91 125.11 8.36 131.83 32.73 125.99 36.28 119.26 11.91"/><polygon class="cls-11" points="109.32 6.03 115.16 2.48 125.11 8.36 119.26 11.91 109.32 6.03"/><polygon class="cls-17" points="119.26 11.91 125.99 36.28 112.43 28.21 109.32 6.03 119.26 11.91"/><g class="cls-1"><polygon class="cls-11" points="117.84 85.37 72.28 57.44 75.34 55.49 120.9 83.42 117.84 85.37"/><polygon class="cls-21" points="117.85 86.62 72.28 58.69 72.28 57.44 117.84 85.37 117.85 86.62"/></g><polygon class="cls-22" points="117.84 85.37 117.85 86.62 120.9 84.67 120.9 83.42 117.84 85.37"/><g class="cls-1"><polygon class="cls-11" points="90.14 19.49 79.3 12.91 85.21 9.34 96.05 15.93 90.14 19.49"/><polygon class="cls-22" points="90.16 21.73 79.32 15.15 79.3 12.91 90.14 19.49 90.16 21.73"/></g><polygon class="cls-23" points="90.14 19.49 90.16 21.73 96.05 18.18 96.05 15.93 90.14 19.49"/><g class="cls-1"><g class="cls-1"><g class="cls-1"><path class="cls-24" d="M73.09,38.64v1.64a4.16,4.16,0,0,0,2.33,3.41L76,44V42.35q-.29-.15-.56-.31a4.16,4.16,0,0,1-2.33-3.41Z"/><path class="cls-25" d="M76,42.35V44a11.69,11.69,0,0,0,5.46,1.11V43.46A11.69,11.69,0,0,1,76,42.35Z"/><path class="cls-24" d="M81.44,43.46v1.64a11,11,0,0,0,5.3-1.42,4.19,4.19,0,0,0,2.36-3.45V38.59A4.19,4.19,0,0,1,86.75,42a11,11,0,0,1-5.3,1.42Z"/></g></g><path class="cls-11" d="M75.45,35.18c-3.14,1.9-3.15,5,0,6.86a12,12,0,0,0,11.33,0c3.14-1.89,3.15-5,0-6.86A12,12,0,0,0,75.45,35.18Z"/></g></g></g></g></svg>