<svg xmlns="http://www.w3.org/2000/svg" viewBox="0 0 136.51 222.3" widht="64" height="64px"><defs><style>.cls-1{isolation:isolate;}.cls-2{mix-blend-mode:multiply;}.cls-3{fill:#e6e7e8; fill-opacity: 0.4;}.cls-4{fill:#f9b418;}.cls-5{fill:#da9b28;}.cls-6{fill:#fff;}</style></defs><title>icn_family</title><g class="cls-1"><g id="Слой_2" data-name="Слой 2"><g id="Layer_1" data-name="Layer 1"><g class="cls-2"><path class="cls-3" d="M91.39,192.27c-13.75-7.94-27.94-7.94-41.7,0h0c-6.88,4-10.31,8-10.31,12s3.44,8.07,10.31,12c13.75,7.94,27.94,7.94,41.7,0,6.88-4,10.31-8,10.31-12S98.26,196.24,91.39,192.27Z"/></g><path class="cls-4" d="M68.26,0A68.24,68.24,0,0,0,17,113.29l26.87,34.63,53-141.63A68,68,0,0,0,68.26,0Z"/><path class="cls-5" d="M68.23,179.09l52.83-67.59A68.25,68.25,0,0,0,96.88,6.29l-53,141.63,24.27,31.29Z"/><path class="cls-6" d="M53,39.63a9.14,9.14,0,1,0-9.14-9.14A9.14,9.14,0,0,0,53,39.63Zm25.15,81.24a6,6,0,0,1-.68,2.75,4.1,4.1,0,0,0,4.9-4v-21H78.1ZM84,46.33a8,8,0,1,0-8-8A8,8,0,0,0,84,46.33Zm1.67,73.26a4.11,4.11,0,0,0,8.21,0v-21H85.67Zm22.84-42L94.94,51.93a4.11,4.11,0,0,0-3.63-2.19H76.51a4.11,4.11,0,0,0-3.64,2.21l-2.43,4.66-3.09-9.91a5,5,0,0,0-4.79-3.53H43.41a5,5,0,0,0-4.79,3.53L29.41,76.24a5,5,0,0,0,9.59,3l2-6.46-.23,7v38.91a5,5,0,1,0,10,0V88.11a2.16,2.16,0,0,1,4.33,0h0v30.54a5,5,0,0,0,5,5,6,6,0,0,1-.72-2.82L59.37,87.2,49.57,75a6.11,6.11,0,1,1,9.52-7.67l2.5,3.1a8.11,8.11,0,0,1,14.27,0l2.51-3.11A6.11,6.11,0,1,1,87.88,75L78.09,87.19V96.5H99.75L95.61,70.76l5.64,10.67a4.11,4.11,0,0,0,7.26-3.84Z"/><path class="cls-6" d="M84.89,69a2.83,2.83,0,0,0-4,.43L71.71,80.85h-6L56.53,69.43A2.83,2.83,0,1,0,52.12,73L62.18,85.45a2.81,2.81,0,0,0,.47.46l.06,35a2.83,2.83,0,1,0,5.66,0V103.56a.42.42,0,0,1,.41-.39.41.41,0,0,1,.39.35l0,17.36a2.83,2.83,0,1,0,5.66,0l0-35a2.82,2.82,0,0,0,.47-.46L85.32,73A2.83,2.83,0,0,0,84.89,69ZM68.72,79.16a4.82,4.82,0,1,0-4.82-4.82A4.82,4.82,0,0,0,68.72,79.16Z"/></g></g></g></svg>