<svg id="Layer_1" data-name="Layer 1" xmlns="http://www.w3.org/2000/svg" viewBox="0 0 224 153" widht="64" height="64px"><defs><style>.cls-1{fill:#f99b1c;}.cls-2{fill:#1760aa;}.cls-3{fill:#0079bd;}.cls-4{fill:#de5f25;}.cls-5{fill:#d74527;}.cls-6{fill:#be2926;}.cls-7{fill:#231f20;}.cls-8{isolation:isolate;}</style></defs><title>icn_sunnies_pad</title><path class="cls-1" d="M186.6,44.17c-49.21-28.41-100-28.41-149.21,0h0C12.79,58.38.49,72.81.49,87.25s12.3,28.87,36.91,43.07c49.21,28.41,100,28.41,149.21,0,24.61-14.21,36.91-28.64,36.91-43.07S211.21,58.38,186.6,44.17Z"/><path class="cls-2" d="M186.6,108.83c-49.21,28.41-100,28.41-149.21,0C12.79,94.62.49,80.19.49,65.75V87.25c0,14.43,12.3,28.87,36.91,43.07,49.21,28.41,100,28.41,149.21,0,24.61-14.21,36.91-28.64,36.91-43.07V65.75C223.51,80.19,211.21,94.62,186.6,108.83Z"/><path class="cls-3" d="M186.6,22.68c-49.21-28.41-100-28.41-149.21,0h0C12.79,36.89.49,51.32.49,65.75s12.3,28.87,36.91,43.07c49.21,28.41,100,28.41,149.21,0,24.61-14.21,36.91-28.64,36.91-43.07S211.21,36.89,186.6,22.68Z"/><path class="cls-2" d="M34.2,82s41.66,24.25,41.93,24.33c1.81.54,4.24-.08,6.22.37,3.46.78,5.19,3.23,7.74,5.08a40.37,40.37,0,0,0,6.45,3.85c11.63,5.46,24,1.4,34-5l1.25-.81C142,103,145.59,94.78,137.67,87c-2-2-5.26-4.54-4.95-6.95a1.8,1.8,0,0,1,1-1.31,4.49,4.49,0,0,1,2.35-.6,13.1,13.1,0,0,1,4.16.79c.45.16.9.33,1.34.51,3,1.89,5.86,4.12,9.08,5.65q.69.33,1.4.61a16.09,16.09,0,0,0,1.47.85,13.11,13.11,0,0,0,1.62.57c.55.15,1.1.27,1.65.37a22.1,22.1,0,0,0,14.94-2.65c.44-.28.88-.57,1.31-.86,1.29-.88,2.54-1.83,3.82-2.73q.73-.52,1.48-1c3.87-3,9-6.32,9.15-11.87a9.56,9.56,0,0,0-.21-1.78,11.56,11.56,0,0,0-3.33-5.85c-.33-.32-.69-.61-1-.9a65.23,65.23,0,0,0-7.74-5.72c-2.21-1.49-.51-3.27-1.77-4.52-.41-.18-2.73-1.94-3.13-2.12l-1.66-1L131.31,24.61a4.63,4.63,0,0,0-4.56.26c-1.42,1-1.51,2.45-.11,3.27l37.72,22a69.75,69.75,0,0,0-14.51,5.91q-1.85,1-3.65,2.13c-7.15,4.44-13.59,9.53-21.39,14.31-8.87,4.39-18.71,8.15-28.14,12.72q-2.46,1.19-4.79,2.46A75.34,75.34,0,0,0,75.17,99.77L38.86,78.45a4.63,4.63,0,0,0-4.56.26C32.89,79.66,32.8,81.15,34.2,82ZM142.62,64.8A47.89,47.89,0,0,1,149.68,60a37.62,37.62,0,0,1,6.47-2.83,21.82,21.82,0,0,1,14.37-.1,35.4,35.4,0,0,1,5.92,2.7c.47.27.93.55,1.37.84a9.06,9.06,0,0,1,4.48,5.32,8.51,8.51,0,0,1,.35,1.71c.37,4-2.61,7.15-5.6,9.52q-.7.51-1.43,1-1.63,1.08-3.31,2.08l-1.13.66c-1.59.52-2.91,2-4.74,2.09-3.14,1.75-6.62,1.08-9.86.22-.47-.12-.93-.24-1.38-.38s-1-.47-1.55-.72-.88-.36-1.32-.56a42.59,42.59,0,0,1-8.48-5.62q-.55-.39-1-.78a18,18,0,0,1-2.49-2.31C137.81,69.87,139.71,67.18,142.62,64.8Zm-50,27.59a40.29,40.29,0,0,1,6.71-4.57,80.1,80.1,0,0,1,10.08-4.57c4.61-1.77,9.5-2.79,14.12-.9,7.95,3.26,17.61,12.49,11.29,19.52a37.6,37.6,0,0,1-7.95,6.63c-7.11,4.46-16.22,7-25,4.42a23.33,23.33,0,0,1-12.51-9.4C87,99.56,88.62,95.83,92.63,92.4Z"/><path class="cls-4" d="M35.19,81.59l2.07-1.22a1.34,1.34,0,0,0,.5-.7c1.63-4.13,3.44-11.34,6.92-13.36L41,68.43c-3.48,2-3.72,8.34-5.35,12.46A1.34,1.34,0,0,1,35.19,81.59Z"/><path class="cls-4" d="M39.47,61.19l-3,1.78c2.46-1.43,5.24-1.19,8.74,0,4.24,1.43,10.47,4.68,17,8.46l3-1.77a96.34,96.34,0,0,0-16.81-7.76C44.91,60.7,41.73,60.3,39.47,61.19Z"/><path class="cls-4" d="M92.29,90.41l3.64-2.11c-.79-.54-16.44-10.42-30.7-18.66l-3,1.77C76.52,79.65,91.5,89.87,92.29,90.41Z"/><path class="cls-5" d="M62.26,71.41c-6.55-3.78-12.79-7-17-8.46C38.94,60.84,35,61.76,31,70,29.5,73,32.8,80.54,34.56,81.56c.43.25.83.08,1.12-.67C38,75,38.48,64.11,47.06,69.06c2.51,1.45,6.36,5.65,9,8.72a20.9,20.9,0,0,0,5.3,4.57q.5.29,1,.52L92.51,95.32l-.22-4.91C91.5,89.87,76.52,79.65,62.26,71.41Z"/><path class="cls-4" d="M128.29,27.55l2.07-1.22a1.34,1.34,0,0,0,.5-.7c1.63-4.13,3.44-11.34,6.92-13.36l-3.64,2.11c-3.48,2-3.72,8.34-5.35,12.46A1.34,1.34,0,0,1,128.29,27.55Z"/><path class="cls-4" d="M185.39,36.36,189,34.25c-.79-.54-16.44-10.42-30.7-18.66l-3,1.77C169.63,25.6,184.61,35.82,185.39,36.36Z"/><path class="cls-5" d="M155.37,17.37c-6.55-3.78-12.79-7-17-8.46-6.3-2.12-10.25-1.19-14.25,7-1.49,3.06,1.8,10.58,3.57,11.6.43.25.83.08,1.12-.67,2.33-5.91,2.8-16.78,11.38-11.83,2.51,1.45,6.36,5.65,9,8.72a20.9,20.9,0,0,0,5.3,4.57q.5.29,1,.52l30.18,12.45-.22-4.91C184.61,35.82,169.63,25.6,155.37,17.37Z"/><path class="cls-6" d="M156,84.56a30.81,30.81,0,0,0,7.75-3.21,33.39,33.39,0,0,0,14.59-16.91A31.47,31.47,0,0,0,180,49.2c-.38-2.14-1.23-3.49-2.46-4.21l4.05,2.36c1.23.71,2.08,2.07,2.46,4.21a31.47,31.47,0,0,1-1.65,15.24,33.39,33.39,0,0,1-14.59,16.91,30.8,30.8,0,0,1-7.75,3.21,5,5,0,0,1-3.89-.42l-4.05-2.36A5,5,0,0,0,156,84.56Z"/><path class="cls-6" d="M134.35,74.92l-4.05-2.36a4.32,4.32,0,0,1,1.9,2.7c1.88,6.46.43,20.35-7.16,27.21a46.67,46.67,0,0,1-7.74,5.74c-4.67,2.69-9.25,3.87-12.47,2l4.05,2.36c3.21,1.87,7.8.69,12.47-2a46.68,46.68,0,0,0,7.74-5.74c7.6-6.86,9-20.74,7.16-27.21A4.32,4.32,0,0,0,134.35,74.92Z"/><path class="cls-6" d="M146.26,74.86l-4-2.3c1.89,1.1,2.09,5,2.49,7.66.59,3.85,2,6.26,4.13,7.47l4,2.3c-2.09-1.21-3.55-3.63-4.13-7.47C148.34,79.9,148.14,76,146.26,74.86Z"/><path class="cls-7" d="M159.36,55.83c-3.78,3-7.2,6.77-8.31,12a33.22,33.22,0,0,0-.7,6.85c0,7,2.29,13.45,8,12a30.8,30.8,0,0,0,7.75-3.21,33.39,33.39,0,0,0,14.59-16.91,32.49,32.49,0,0,0,2-11.32,23.42,23.42,0,0,0-.32-3.93c-.8-4.54-3.75-5.57-7.91-4.37a29.51,29.51,0,0,0-6.48,2.88A71.11,71.11,0,0,0,159.36,55.83Z"/><path class="cls-7" d="M103.23,97a30.42,30.42,0,0,0-.3,4.28c0,3.55.64,7,2,9,3,4.41,8.78,3.42,14.63,0a46.68,46.68,0,0,0,7.74-5.74c5.7-5.14,7.93-14.24,7.9-21.19a22.56,22.56,0,0,0-.74-6c-1.14-3.92-4.57-3.71-8.35-2.36a51.86,51.86,0,0,0-8.59,3.9,41.52,41.52,0,0,0-6.48,4.61C106.94,87.11,104,91.53,103.23,97Z"/><path class="cls-6" d="M99.18,99.09l-4.05-2.36a2,2,0,0,1,.51.41c1.46,1.65,1.18,4.84,1.62,7.43A26.46,26.46,0,0,0,98.71,110a8.27,8.27,0,0,0,3.42,4.24l4.05,2.36a8.27,8.27,0,0,1-3.42-4.24,26.46,26.46,0,0,1-1.45-5.44c-.44-2.59-.17-5.78-1.62-7.43A2,2,0,0,0,99.18,99.09Z"/><path class="cls-5" d="M97.51,91,96.1,92.51a80.24,80.24,0,0,1,19.12-15.45q2.1-1.21,4.24-2.29c8.38-4.21,16.63-7.19,25-11.49,8.39-5.39,16.63-11.94,25-17.4q2.14-1.4,4.24-2.61c6.6-3.81,12.9-6.19,19.15-6.65l-1.42.1,1.48-.1c1-.06-.09,4.72-.47,5.7-.71,1.86-2.3,3.49-3.14,5.41-1.44,3.32-1.15,6.19-1.58,9.28a56.3,56.3,0,0,1-1.42,7.09c-3.08,11.29-11,18.54-19.08,23.23l-1,.59c-8.87,4.88-16,4.37-17.48-5.41-.41-2.66-.61-6.7-2.59-7.72a1.74,1.74,0,0,0-1.73.25,4.57,4.57,0,0,0-1.53,1.63c-2,3.29-2.14,7.55-2.54,10.68-1.44,11.47-8.52,20.18-17.4,25.55l-1,.62c-8.13,4.69-16,6.54-19.15-1.16a26.46,26.46,0,0,1-1.45-5.44c-.44-2.59-.17-5.78-1.62-7.43-.84-.95-2.44-.74-3.16-1.77-.38-.55-.49-5.15-.49-5.15Zm62.57-4.05a30.8,30.8,0,0,0,7.75-3.21,33.39,33.39,0,0,0,14.59-16.91,31.47,31.47,0,0,0,1.65-15.24c-.81-4.54-3.75-5.57-7.91-4.37a29.52,29.52,0,0,0-6.49,2.88,71.12,71.12,0,0,0-8.58,6c-3.78,3-7.2,6.77-8.31,12-1.83,8.61-.32,20.78,7.29,18.86Zm-53.38,23.59c3,4.41,8.78,3.42,14.63,0a46.68,46.68,0,0,0,7.74-5.74c7.6-6.86,9-20.74,7.16-27.21-1.14-3.92-4.57-3.71-8.35-2.36a51.9,51.9,0,0,0-8.59,3.9,41.53,41.53,0,0,0-6.48,4.61c-4.15,3.6-7.08,8-7.86,13.47-.68,4.79-.23,10.46,1.73,13.28Z"/><path class="cls-4" d="M111.17,74.7q2.1-1.21,4.24-2.29c8.38-4.21,16.56-6.71,25-11C148.76,56,157.07,49,165.45,43.52q2.14-1.4,4.24-2.61c6.12-3.54,12-5.84,17.78-6.52l-.05,0,1.41-.1h.07a.28.28,0,0,1,.16,0l4.05,2.36a.28.28,0,0,0-.16,0l-1.53-.89,1.53.89h-.07c-6.24.45-12.54,2.84-19.14,6.65q-2.1,1.21-4.24,2.61c-8.38,5.46-16.62,12-25,17.4-8.4,4.3-16.65,7.28-25,11.49q-2.15,1.08-4.24,2.29A80.84,80.84,0,0,0,96,92.58L92,90.21A80.85,80.85,0,0,1,111.17,74.7Z"/><path class="cls-6" d="M93.07,95.9l4.05,2.36a1.81,1.81,0,0,1-.59-.53c-.38-.55-.49-5.15-.49-5.15L92,90.21s.11,4.6.49,5.15A1.81,1.81,0,0,0,93.07,95.9Z"/><g class="cls-8"><path class="cls-6" d="M99.35,92.74c.72-.41,1.3-.08,1.3.74a2.85,2.85,0,0,1-1.29,2.24c-.72.41-1.3.08-1.3-.74a2.85,2.85,0,0,1,1.29-2.24Z"/></g><g class="cls-8"><path class="cls-6" d="M190.33,39.45c.72-.41,1.3-.08,1.3.74a2.85,2.85,0,0,1-1.29,2.24c-.72.41-1.3.08-1.3-.74a2.85,2.85,0,0,1,1.29-2.24Z"/></g><polygon class="cls-6" points="91.44 89.83 92.54 90.52 92.52 95.42 91.43 94.88 91.44 89.89 91.44 89.83"/></svg>