<svg xmlns="http://www.w3.org/2000/svg" viewBox="0 0 251.75 265.08" widht="64" height="64px"><defs><style>.cls-1{isolation:isolate;}.cls-2{mix-blend-mode:multiply;}.cls-3{fill:#e6e7e8; fill-opacity: 0.4;}.cls-4{fill:#f99b1c;}.cls-5{fill:#da9b28;}.cls-6{fill:#f9b418;}.cls-7{fill:#d1e7ef;}.cls-8{fill:#ebf3f4;}.cls-9{fill:#84b1bb;}.cls-10{fill:#a3cad5;}.cls-11{fill:#fff;}.cls-12{fill:#f15a29;}.cls-13{fill:#f58461;}.cls-14{fill:#ded4bc;}.cls-15{fill:#ef4823;}.cls-16{fill:#ece5d1;}.cls-17{fill:#cec1a5;}.cls-18{fill:#ed2224;}.cls-19{fill:#e87479;}.cls-20{fill:#de3a26;}.cls-21{fill:#231f20;}</style></defs><title>icn_cocktail_pad</title><g class="cls-1"><g id="Слой_2" data-name="Слой 2"><g id="Layer_1" data-name="Layer 1"><g class="cls-2"><path class="cls-3" d="M210.27,144.31c-55.31-31.93-112.39-31.93-167.69,0h0c-27.65,16-41.48,32.19-41.48,48.41s13.83,32.44,41.48,48.41c55.31,31.93,112.39,31.93,167.7,0,27.65-16,41.48-32.19,41.48-48.41S237.92,160.28,210.27,144.31Z"/></g><path class="cls-4" d="M193,135.5C142,106,89.3,106,38.27,135.5h0C12.76,150.23,0,165.19,0,180.16s12.76,29.93,38.27,44.66c51,29.46,103.69,29.46,154.72,0,25.51-14.73,38.27-29.7,38.27-44.66S218.5,150.23,193,135.5Z"/><path class="cls-5" d="M193,202.54C142,232,89.3,232,38.27,202.54,12.76,187.81,0,172.84,0,157.87v22.29c0,15,12.76,29.93,38.27,44.66,51,29.46,103.69,29.46,154.72,0,25.51-14.73,38.27-29.7,38.27-44.66V157.87C231.26,172.84,218.5,187.81,193,202.54Z"/><path class="cls-6" d="M193,113.21c-51-29.46-103.69-29.46-154.72,0h0C12.76,127.94,0,142.91,0,157.87s12.76,29.93,38.27,44.66C89.3,232,142,232,193,202.54c25.51-14.73,38.27-29.7,38.27-44.66S218.5,127.94,193,113.21Z"/><path class="cls-5" d="M150.66,165.43c17.58,11.16,19,26.79,3.18,34.91S111,206,93.38,194.84s-19-26.79-3.18-34.91S133.09,154.27,150.66,165.43Z"/><g class="cls-1"><path class="cls-7" d="M139.38,168.66a11.19,11.19,0,0,0-.36-2.75,12,12,0,0,0-1.42-3.27,15.27,15.27,0,0,0-1.77-2.32,20.27,20.27,0,0,0-3.09-2.71,28.49,28.49,0,0,0-7.12-3.68,43.38,43.38,0,0,0-8.27-2.06c-1.52-.24-3.84-.42-4.34-.43-.66,0-1.53-.08-2.19-.07-1.31,0-3.05.08-4.36.15,0,0-1.95.13-4.3.54-1.23.21-2.86.59-4.07.9-1.4.36-8.58,2.4-13,7.22a12,12,0,0,0-3.59,8.33c0-4.36,2.94-8.71,8.77-12,11.46-6.43,29.78-6.25,40.92.41C136.67,160.21,139.4,164.44,139.38,168.66Z"/><path class="cls-7" d="M139.38,169.06c0-4.22-2.71-8.45-8.19-11.72-11.14-6.66-29.46-6.85-40.92-.41-5.83,3.27-8.76,7.62-8.77,12,0-.13,0-.27,0-.4,0-4.36,2.94-8.71,8.77-12,11.46-6.43,29.78-6.25,40.92.41,5.48,3.27,8.2,7.51,8.19,11.73Z"/><path class="cls-7" d="M139.38,169.06c0,4.36-2.94,8.71-8.77,12a.55.55,0,0,1-.23.5A23.64,23.64,0,0,0,134.1,179a16.64,16.64,0,0,0,3.14-3.41,12.89,12.89,0,0,0,1.7-3.55A11.08,11.08,0,0,0,139.38,169.06Z"/><path class="cls-7" d="M130.39,181.54a26.52,26.52,0,0,0,3.12-2.06c.62-.51,1.43-1.22,2-1.78a12.28,12.28,0,0,0,1.2-1.38,13.62,13.62,0,0,0,1.91-3.31,10.9,10.9,0,0,0,.76-4c0-4.22-2.71-8.45-8.19-11.72-11.14-6.66-29.46-6.85-40.92-.41-5.82,3.27-8.76,7.62-8.77,12a10.53,10.53,0,0,0,.37,2.82,11.79,11.79,0,0,0,.81,2.15,15.63,15.63,0,0,0,4,5,22.63,22.63,0,0,0,3.21,2.28c.92.57,2.23,1.19,3.21,1.66a34.66,34.66,0,0,0,6.17,2.09,45.61,45.61,0,0,0,8.56,1.26,51,51,0,0,0,8.7-.3s1.94-.22,4.21-.73a36.35,36.35,0,0,0,4-1.11,33,33,0,0,0,5.63-2.46.54.54,0,0,1-.54-.07c-11,6.19-28.66,6-39.38-.4S80,164.45,91,158.26s28.66-6,39.38.4,10.47,16.62-.56,22.81A.54.54,0,0,0,130.39,181.54Z"/><path class="cls-7" d="M129.85,181.47c-11,6.19-28.66,6-39.38-.4S80,164.45,91,158.26s28.66-6,39.38.4S140.88,175.28,129.85,181.47Z"/><path class="cls-7" d="M115.54,160.38c-.37-.69-2.45-1.46-4.83-1.47-2.89,0-4.71.86-5,1.44-1.12,2.36-8.71,4.07-22,3,1.28-2.68,3.77-5.21,7.46-7.28,11.07-6.21,28.77-6,39.53.4a17,17,0,0,1,6.93,7C124.23,164.49,116.65,162.75,115.54,160.38Z"/><path class="cls-7" d="M114.82,159.86a9.72,9.72,0,0,0-4.81-.94,10.42,10.42,0,0,0-2.92.49,3.21,3.21,0,0,0-1.55.94A3.17,3.17,0,0,1,106.9,159a8,8,0,0,1,7.23.07,3.11,3.11,0,0,1,1.27,1.29A1.61,1.61,0,0,0,114.82,159.86Z"/><path class="cls-7" d="M115.4,160.38c1.11,2.37,8.69,4.12,22,3.1,2.58,5.5.06,11.62-7.49,15.86-9.63-6.82-15.1-13-15.9-16.06C115.41,162.5,115.87,161.38,115.4,160.38Z"/><path class="cls-8" d="M83.5,163.32c13.32,1.09,20.91-.61,22-3-.47,1,0,2.07,1.26,2.85a8,8,0,0,0,7.23.07c.8,3,6.27,9.24,15.9,16.06-11.07,6.21-28.77,6-39.53-.4C83.23,174.65,81,168.67,83.5,163.32Z"/><path class="cls-7" d="M131,156.43A20.16,20.16,0,0,1,137.2,162a11.41,11.41,0,0,1,2.19,6.66c0,4.36-2.94,8.71-8.77,12a1.77,1.77,0,0,0-.69-1.3c7.55-4.24,10.07-10.35,7.49-15.86a17,17,0,0,0-6.93-7C119.73,150,102,149.83,91,156c-3.7,2.07-6.19,4.6-7.46,7.28-2.55,5.35-.26,11.33,6.9,15.61,10.76,6.43,28.46,6.61,39.53.4a1.77,1.77,0,0,1,.69,1.3c-11.46,6.43-29.78,6.25-40.93-.41-5.48-3.27-8.2-7.51-8.19-11.72a10.82,10.82,0,0,1,.37-2.76A11.92,11.92,0,0,1,83,162.93a14.6,14.6,0,0,1,1.51-2.16,18.46,18.46,0,0,1,2.51-2.44,26.2,26.2,0,0,1,5-3.15,35,35,0,0,1,8-2.72,45.31,45.31,0,0,1,8.61-1.08,50.36,50.36,0,0,1,8.67.47A38.54,38.54,0,0,1,131,156.43Z"/><path class="cls-7" d="M115.46,162.85a3.49,3.49,0,0,1-1.43.43c2-1.14,2.07-3,.1-4.19a8,8,0,0,0-7.23-.07c-2,1.14-2.07,3-.1,4.19a8,8,0,0,0,7.23.07,3.49,3.49,0,0,0,1.43-.43,10.17,10.17,0,0,1-14.67-12,10.06,10.06,0,0,1,3.36-4.86,10.16,10.16,0,0,1,5.9-2.21c.32,0,.63,0,.95,0a10.17,10.17,0,0,1,4.47,19Z"/><path class="cls-7" d="M139.38,168.66v.4c0,4.36-2.94,8.71-8.77,12v-.4C136.44,177.37,139.37,173,139.38,168.66Z"/><path class="cls-9" d="M120.67,154a10,10,0,0,1-1.4,5.11,10.17,10.17,0,0,1-3.81,3.74c1.33-.74,2.12-2.38,2.12-4.63a15.75,15.75,0,0,0-3-8.56c2.33-1.3,2.38-3.46.12-4.81a8.15,8.15,0,0,0-3.73-1,10.09,10.09,0,0,1,3.51.81,10.4,10.4,0,0,1,3.4,2.38A10.16,10.16,0,0,1,120.67,154Z"/><path class="cls-10" d="M105.27,162.71a10.17,10.17,0,0,1,2.82-18.61,9.84,9.84,0,0,1,2-.28,8.28,8.28,0,0,0-3.63.94c-2.33,1.3-2.38,3.46-.12,4.81a9.15,9.15,0,0,0,8.31.08,15.75,15.75,0,0,1,3,8.56c0,2.25-.8,3.89-2.12,4.63a10.24,10.24,0,0,1-5.07,1.3A10.07,10.07,0,0,1,105.27,162.71Z"/><path class="cls-7" d="M115.6,149.29a3.28,3.28,0,0,1-1,.36c2.33-1.3,2.38-3.46.12-4.81a9.15,9.15,0,0,0-8.31-.08c-2.33,1.3-2.38,3.46-.12,4.81a9.15,9.15,0,0,0,8.31.08,3.28,3.28,0,0,0,1-.36,10.48,10.48,0,0,1-6.65,1.2,10.21,10.21,0,0,1-6-3.12c-1.77-1.9-1.24-4.32,1.56-5.89a13.3,13.3,0,0,1,12.07.12c2.67,1.6,3.12,4,1.38,5.81A10,10,0,0,1,115.6,149.29Z"/><path class="cls-7" d="M118,147.42a10,10,0,0,1-2.41,1.88,3.2,3.2,0,0,0,.86-.7A6.42,6.42,0,0,0,118,147.42Z"/><path class="cls-7" d="M105.2,149.15a10.15,10.15,0,0,1-2.2-1.78,6.35,6.35,0,0,0,1.39,1.1,13.3,13.3,0,0,0,12.07.12,3.2,3.2,0,0,1-.86.7A10.41,10.41,0,0,1,105.2,149.15Z"/><path class="cls-7" d="M89.91,181.12a34.28,34.28,0,0,0,9.46,3.77A47,47,0,0,0,110,186.2a47.55,47.55,0,0,0,10.79-1.11,39.92,39.92,0,0,0,5.94-1.83,31.09,31.09,0,0,0,3.62-1.73.55.55,0,0,0,.23-.5c-11.46,6.43-29.78,6.25-40.93-.41-5.48-3.27-8.2-7.51-8.19-11.72a10.83,10.83,0,0,0,.5,3.27,12.42,12.42,0,0,0,1.49,3.11A19.38,19.38,0,0,0,89.91,181.12Z"/><path class="cls-7" d="M81.5,168.9c0-.13,0-.27,0-.4,0,4.22,2.71,8.45,8.19,11.72,11.14,6.66,29.46,6.85,40.93.41v.4c-11.46,6.43-29.78,6.25-40.93-.41C84.21,177.35,81.49,173.12,81.5,168.9Z"/><path class="cls-7" d="M126.68,148.92c-3.13,1.76-7.09.93-10.22-.32,3.38-1.9,3.46-5,.17-7a13.3,13.3,0,0,0-12.07-.12c-3.38,1.9-3.46,5-.17,7a13.3,13.3,0,0,0,12.07.12c3.13,1.25,7.09,2.08,10.22.32a31.41,31.41,0,0,1-3.85,1.82,32.09,32.09,0,0,1-4.76,1.44,37.49,37.49,0,0,1-4.72.7,36.12,36.12,0,0,1-6.3-.07,36.66,36.66,0,0,1-4.82-.84A32.47,32.47,0,0,1,96.7,150a29,29,0,0,1-8.47-5.86,27.64,27.64,0,0,1-5.08-7.08,31,31,0,0,1-2.94-9.63,42.57,42.57,0,0,1-.12-10.54A63.47,63.47,0,0,1,82.29,106c.39-1.31,1-3,1.4-4.33,1.07-3,3.66-5.88,7.77-8.19,10.89-6.11,28.29-5.93,38.88.39,3.82,2.28,6.22,5,7.23,7.94a65.7,65.7,0,0,1,3.54,15.45,41.14,41.14,0,0,1-.61,12.59,31.94,31.94,0,0,1-1.82,5.72,28.72,28.72,0,0,1-2.58,4.71c-.63.86-1.49,2-2.19,2.8a25.55,25.55,0,0,1-1.91,1.94A28.78,28.78,0,0,1,126.68,148.92Z"/><path class="cls-7" d="M133.92,143.13a27.74,27.74,0,0,1-7.24,5.79,7.64,7.64,0,0,0,2.19-1.86c3.86-4.69,4.16-15,.91-30.64a22.64,22.64,0,0,0,3.68-2.54c4.16-3.58,5.54-7.93,4.11-12,.75,2.26,1.35,4,2,6.6a64.49,64.49,0,0,1,1.27,6.43,47.29,47.29,0,0,1,.34,10.58C140.39,134.27,136.8,139.93,133.92,143.13Z"/><path class="cls-7" d="M93.76,148.5a27.53,27.53,0,0,1-11.37-13,31.33,31.33,0,0,1-1.78-5.73,41.61,41.61,0,0,1-.54-12.59A65.73,65.73,0,0,1,83.7,101.7c-1.45,4.08-.11,8.44,4,12.05A22,22,0,0,0,90.91,116c10.58,6.33,28,6.5,38.88.39,3.25,15.63,2.94,25.95-.91,30.64a7.64,7.64,0,0,1-2.19,1.86,32.48,32.48,0,0,1-3.54,1.7,32.94,32.94,0,0,1-4.93,1.54,34.9,34.9,0,0,1-8,.84A32.64,32.64,0,0,1,93.76,148.5Z"/><path class="cls-7" d="M137.57,101.85c-1-2.89-3.42-5.66-7.23-7.94-10.58-6.33-28-6.5-38.88-.39-4.1,2.3-6.7,5.17-7.77,8.19,14.32-40.37-.19-57.44-.33-57.6,1.09-3.07,3.73-6,7.91-8.34,11.09-6.22,28.81-6,39.58.4,3.88,2.32,6.34,5.14,7.36,8.09C138.08,44.41,123.47,61.4,137.57,101.85Z"/><path class="cls-7" d="M83.7,101.7c1-3,2.22-7,3.07-10,.43-1.53.86-3.6,1.19-5.15s.66-3.38.85-4.85c.28-2.22.6-5.19.71-7.43a57.71,57.71,0,0,0-.08-6.65,45.08,45.08,0,0,0-.68-5.22,32.2,32.2,0,0,0-1.1-4.13A15.1,15.1,0,0,0,86.14,55a11.75,11.75,0,0,0,1.34,1.34c.12.11,12.45,10.66.25,57.39C83.58,110.14,82.25,105.78,83.7,101.7Z"/><path class="cls-7" d="M87.48,56.36c-4.22-3.67-5.59-8.11-4.11-12.27.14.17,14.65,17.24.33,57.6a109.84,109.84,0,0,0,4.39-15.79c.3-1.45.64-3.39.81-4.86.26-2.19.53-5.13.64-7.33a54.7,54.7,0,0,0-.14-6.59A43.13,43.13,0,0,0,88.66,62a22.29,22.29,0,0,0-2.53-7A10.89,10.89,0,0,0,87.48,56.36Z"/><path class="cls-7" d="M137.57,101.85c-14.1-40.45.51-57.44.65-57.6,1.46,4.18.05,8.61-4.18,12.25a11.57,11.57,0,0,0,1.35-1.33,15.18,15.18,0,0,0-1.53,3.25,32.11,32.11,0,0,0-1.12,4.13,45.21,45.21,0,0,0-.71,5.22,59.71,59.71,0,0,0-.12,6.65c.1,2.24.4,5.21.67,7.43.18,1.47.52,3.41.82,4.85s.74,3.63,1.16,5.16C135.39,94.87,136.6,98.87,137.57,101.85Z"/><path class="cls-7" d="M134,56.5a10.9,10.9,0,0,0,1.35-1.34,22.29,22.29,0,0,0-2.57,7,43,43,0,0,0-.76,5.14,54.59,54.59,0,0,0-.18,6.59c.1,2.21.35,5.14.6,7.33.17,1.47.49,3.42.78,4.86a109.57,109.57,0,0,0,4.3,15.81c1.43,4.1.05,8.45-4.11,12C121.53,67.09,133.92,56.6,134,56.5Z"/><path class="cls-7" d="M132.7,57.56a18.38,18.38,0,0,0,3.94-3.81,12.26,12.26,0,0,0,2.1-4.36,10.24,10.24,0,0,0,.11-4.47,12,12,0,0,0-1.88-4.4,18.79,18.79,0,0,0-6-5.38c-10.83-6.47-28.65-6.65-39.79-.4a19.16,19.16,0,0,0-6.53,5.63,12.19,12.19,0,0,0-1.87,4.18,10.15,10.15,0,0,0,0,4.49,12.14,12.14,0,0,0,1.81,4.12,17.18,17.18,0,0,0,4.23,4.27C80,51,80.88,41.59,91.28,35.76c11.09-6.22,28.81-6,39.58.4C140.79,42.1,141.36,51.28,132.7,57.56Z"/><path class="cls-7" d="M137,40.52c4,5.94,1.83,13-6.56,17.67a.8.8,0,0,1-.1.89,24.53,24.53,0,0,0,2.4-1.53,17.18,17.18,0,0,0,4.25-4.25,11.83,11.83,0,0,0,1.83-4.11,10.15,10.15,0,0,0,0-4.49A12.22,12.22,0,0,0,137,40.52Z"/><path class="cls-7" d="M88.82,57.43A18.39,18.39,0,0,1,84.9,53.6a12.24,12.24,0,0,1-2.08-4.37,10.37,10.37,0,0,1-.09-4.47,11.81,11.81,0,0,1,1.91-4.39c-4,5.78-2,12.64,6,17.41,10.83,6.47,28.65,6.65,39.79.4a.8.8,0,0,1-.1.89c-11.08,6.22-28.81,6-39.58-.4Q89.7,58.08,88.82,57.43Z"/><path class="cls-7" d="M137.47,41.33a16.1,16.1,0,0,0-4.14-4.64,26.43,26.43,0,0,0-6-3.48,45.06,45.06,0,0,0-32.5-.33,26.37,26.37,0,0,0-7,4,18.27,18.27,0,0,0-2.09,2,14.3,14.3,0,0,0-1.68,2.3,18.29,18.29,0,0,1,7-6.44c11.14-6.25,29-6.07,39.79.4A17.92,17.92,0,0,1,137.47,41.33Z"/><path class="cls-7" d="M134,56.5c-.12.1-12.51,10.59-.58,57.38a22.64,22.64,0,0,1-3.68,2.54c-10-48.14.41-57.25.51-57.34A22.85,22.85,0,0,0,134,56.5Z"/><path class="cls-7" d="M87.73,113.75C99.93,67,87.6,56.47,87.48,56.36a22.35,22.35,0,0,0,3.23,2.32c10.78,6.44,28.5,6.62,39.58.4-.1.09-10.5,9.2-.51,57.34-10.89,6.11-28.29,5.93-38.88-.39A22,22,0,0,1,87.73,113.75Z"/><path class="cls-10" d="M129.52,57.26c-10.75,6-27.94,5.86-38.39-.39s-10.21-16.2.55-22.24,27.94-5.86,38.39.39S140.28,51.23,129.52,57.26Z"/><path class="cls-11" d="M130.81,35a35.49,35.49,0,0,0-11.27-4.12,45.43,45.43,0,0,0-8.36-.83,51.34,51.34,0,0,0-6.39.36,43,43,0,0,0-6.39,1.29,34.5,34.5,0,0,0-5.59,2.12,24.43,24.43,0,0,0-5.49,3.59,17,17,0,0,0-1.94,2,14.81,14.81,0,0,0-1.25,1.79c-3.28,5.6-1.14,12.06,6.48,16.61,10.83,6.47,28.65,6.65,39.79.4a1.7,1.7,0,0,0-.69-.93c-10.75,6-27.94,5.86-38.39-.39s-10.21-16.2.55-22.24,27.94-5.86,38.39.39,10.21,16.2-.55,22.24a1.7,1.7,0,0,1,.69.93c8-4.5,10.4-11.1,7.07-16.86C136.83,40.25,135.31,37.71,130.81,35Z"/></g><path class="cls-12" d="M85,103.4a61.41,61.41,0,0,0-2.71,12.51,39.27,39.27,0,0,0,.5,11.89,29.29,29.29,0,0,0,1.67,5.35,25.34,25.34,0,0,0,10.49,12,30.41,30.41,0,0,0,15.36,4.17h.37a32.73,32.73,0,0,0,7.07-.78,29.47,29.47,0,0,0,8-3,25.5,25.5,0,0,0,6.64-5.32c2.65-2.95,6-8.18,6.7-16.39a44.85,44.85,0,0,0-.33-10.05,62.67,62.67,0,0,0-1.23-6.23c-.4-1.58-.78-2.87-1.18-4.12Z"/><path class="cls-13" d="M110.34,89.49C103.46,89.49,97,91,92.1,93.74c-4.66,2.62-7.25,6-7.3,9.51s2.37,6.8,6.8,9.45c4.91,2.93,11.81,4.61,18.94,4.61,6.89,0,13.37-1.51,18.25-4.25,4.66-2.62,7.25-6,7.3-9.51s-2.37-6.79-6.8-9.44C124.38,91.17,117.48,89.49,110.34,89.49Z"/><path class="cls-14" d="M91.68,34.64c-.32.18-.6.37-.9.56L103.54,61.1c1.14.18,2.3.32,3.47.41L93.35,33.79C92.78,34.06,92.22,34.34,91.68,34.64Z"/><g class="cls-1"><path class="cls-15" d="M84.71,19,61.28,36.16c0-.22,0-.44,0-.67A20.87,20.87,0,0,0,57.91,25a45.08,45.08,0,0,0,11.37-8.55Z"/><path class="cls-15" d="M104,0a22.92,22.92,0,0,0,8.2,7.82L84.72,19,89.56,5.17,90,5.09,90.39,5A47.49,47.49,0,0,0,104,0Z"/><path class="cls-16" d="M124.23,11.66A26.07,26.07,0,0,0,122,22.58L84.72,19,112.22,7.82A31.24,31.24,0,0,0,124.23,11.66Z"/><path class="cls-16" d="M76.54,5.54a41,41,0,0,0,13-.37L84.72,19,71,50.92a31.24,31.24,0,0,0-12-3.84,25.84,25.84,0,0,0,2.27-10.92L84.71,19,69.28,16.47A35.38,35.38,0,0,0,76.54,5.54Z"/><path class="cls-15" d="M122,22.58c0,.16,0,.33,0,.49s0,.11,0,.17a20.74,20.74,0,0,0,3.35,10.46,44.93,44.93,0,0,0-11.38,8.56L84.72,19Z"/><path class="cls-15" d="M84.72,19l8.94,34.54-.82.16-.66.14-.25.05-.45.1-.09,0-.81.2-.45.11-.09,0-.35.09-.09,0-.35.1-.27.08-.17.05-.36.11a47.82,47.82,0,0,0-9.18,3.88,23.48,23.48,0,0,0-7.59-7.4L71,50.92Z"/></g><path class="cls-16" d="M89,54.67l-.17.05Z"/><path class="cls-16" d="M84.72,19l29.23,23.24a35.15,35.15,0,0,0-7.25,10.93,41.12,41.12,0,0,0-13,.37Z"/><path class="cls-16" d="M79.21,58.74h0Z"/><path class="cls-16" d="M90.39,5,90,5.09Z"/><ellipse class="cls-15" cx="84.45" cy="19.02" rx="2.47" ry="1.68" transform="translate(5.98 55.58) rotate(-37.68)"/><path class="cls-17" d="M108,63.54c-1.15-.07-2.29-.18-3.43-.33l21.35,43.35a.52.52,0,0,1-.1-.3.73.73,0,0,0,.43.59,2.59,2.59,0,0,0,2.34,0,.75.75,0,0,0,.46-.6.58.58,0,0,0-.18-.38Z"/><path class="cls-18" d="M141.49,14.63l-.42,1c-5.19,12.1-12.33,28.85-19,44.62a34.29,34.29,0,0,0,5.51-1.95l17.16-40,47.2-12.73c.55-1-.19-3.69-1.14-4.24Z"/><path class="cls-19" d="M121,62.53c-9.47,22.24-17.84,41.92-18.27,42.84h0a.72.72,0,0,0-.12.32,1,1,0,0,0,.58.81,3.53,3.53,0,0,0,3.18,0A1.19,1.19,0,0,0,107,106c.47-1,9.66-22.31,19.44-45.08A37.86,37.86,0,0,1,121,62.53Z"/><path class="cls-15" d="M110.4,101.68a14.67,14.67,0,0,0-7.05,1.64c-1.8,1-2.8,2.32-2.82,3.68s.91,2.63,2.63,3.65a15.94,15.94,0,0,0,14.37.14c1.8-1,2.8-2.32,2.82-3.68s-.91-2.63-2.63-3.65A14.7,14.7,0,0,0,110.4,101.68Z"/><path class="cls-15" d="M120.35,107.05a9.91,9.91,0,0,0-19.82,0C100.53,112.53,120.35,112.53,120.35,107.05Z"/><path class="cls-20" d="M110.44,101.38a7,7,0,0,1-3.82-1.33,6.14,6.14,0,0,1,7.64,0A7,7,0,0,1,110.44,101.38Z"/><polygon class="cls-21" points="110.82 100.04 109.94 100.04 109.11 95.78 110.82 95.78 110.82 100.04"/></g></g></g></svg>