<svg xmlns="http://www.w3.org/2000/svg" viewBox="0 0 251.75 278.25" widht="64" height="64px"><defs><style>.cls-1{isolation:isolate;}.cls-2{mix-blend-mode:multiply;}.cls-3{fill:#e6e7e8; fill-opacity: 0.4;}.cls-4{fill:#f99b1c;}.cls-5{fill:#d74527;}.cls-6{fill:#de5f25;}.cls-7{fill:#f3ec8f;}.cls-8{fill:#956a33;}.cls-9{fill:#755221;}.cls-10{fill:#60bb46;}.cls-11,.cls-12{fill:#04834a;}.cls-12{opacity:0.55;}</style></defs><title>icn_palm_pad</title><g class="cls-1"><g id="Слой_2" data-name="Слой 2"><g id="Layer_1" data-name="Layer 1"><g class="cls-2"><path class="cls-3" d="M210.27,157.48c-55.31-31.93-112.39-31.93-167.69,0h0c-27.65,16-41.48,32.19-41.48,48.41s13.83,32.44,41.48,48.41c55.31,31.93,112.39,31.93,167.7,0,27.65-16,41.48-32.19,41.48-48.41S237.92,173.45,210.27,157.48Z"/></g><path class="cls-4" d="M193,148.67c-51-29.46-103.69-29.46-154.72,0h0C12.76,163.4,0,178.37,0,193.33S12.76,223.26,38.27,238C89.3,267.46,142,267.46,193,238c25.51-14.73,38.27-29.7,38.27-44.66S218.5,163.4,193,148.67Z"/><path class="cls-5" d="M193,215.71c-51,29.46-103.69,29.46-154.72,0C12.76,201,0,186,0,171v22.29c0,15,12.76,29.93,38.27,44.66C89.3,267.46,142,267.46,193,238c25.51-14.73,38.27-29.7,38.27-44.66V171C231.26,186,218.5,201,193,215.71Z"/><path class="cls-6" d="M193,126.38c-51-29.46-103.69-29.46-154.72,0h0C12.76,141.11,0,156.08,0,171S12.76,201,38.27,215.71c51,29.46,103.69,29.46,154.72,0C218.5,201,231.26,186,231.26,171S218.5,141.11,193,126.38Z"/><path class="cls-5" d="M80.82,185.54s37.35,37.11,70,17.1-15-43.84-15-43.84l-46.25.79Z"/><path class="cls-7" d="M84,38.74a8.83,8.83,0,0,0-7.63,2.39C74.67,43,75.28,45,77.77,45.53a8.83,8.83,0,0,0,7.63-2.39C87.12,41.27,86.51,39.3,84,38.74Z"/><path class="cls-8" d="M116.53,143c-.4-2.47-1.21-6.91-1.72-9.59-.1-.53-.83-1.31-.93-1.85-.58-3-1.31-6.56-2-9.79-.08-.35-.74-1.61-.82-2-.43-2-1.18-5.35-1.64-7.4a8.38,8.38,0,0,0-1-2.16c-.65-2.87-1.62-6.64-2.29-9.49-.11-.48-.63-.57-.85-1.57q-.87-3.66-1.75-7.23c-.11-.46-.54-1-.65-1.43q-1.13-4.61-2.24-9c-.09-.34-.67-1-.75-1.29L98,72.84c-.11-.42-.69-.89-.8-1.3l-1-3.93c-.14-.54-.87-1.24-1-1.77q-1.27-5-2.58-9.19c-.13-.43-1.11-1.41-1.24-1.83-2.11-6.62-3.4-11.19-5.37-15L75.61,44.08c1.43,2.88,3,5,4.22,7.7.24.51.32,1.51.55,2,.93,2,1.81,4,2.61,6.17.17.44,0,1.53.13,2,.74,2,1.46,4,2.2,6,.16.45.15,1.67.31,2.12q.71,2,1.35,4.08c.13.41,0,1.25.11,1.66q1.09,3.64,2,7.36c.13.52-.1,1.48,0,2q.75,3.24,1.36,6.52c.08.43,0,1.67,0,2.1q.71,3.91,1.25,7.83c.26,1-.41,1.66-.28,2.39.4,3,.66,5.36.95,8.27,0,.29-.19,1.93-.17,2.21.23,2.45.63,5.26.78,7.59,0,.46-.42,1.36-.39,1.82.21,3.43.35,6.72.42,9.81,0,.48-.5,1.35-.49,1.83.08,3.91.08,7.47,0,10.59,0,.82-.67,1.11-1,3.32-.16,6.75-.46,11.31-.46,11.31,0,2.07,1.37,4.14,4.1,5.71,5.47,3.16,14.33,3.16,19.79,0,2.73-1.58,4.1-3.65,4.1-5.71A79.79,79.79,0,0,0,118,147.35,18,18,0,0,0,116.53,143Z"/><path class="cls-9" d="M92.49,146.69c2.69,2,5.8,4.17,12.74,3.66s11.44-6.9,11.44-6.9-6.94,4.25-11.58,5S92.49,146.69,92.49,146.69Z"/><path class="cls-9" d="M93,134a17,17,0,0,0,20.84-2.39C105,136.67,93,134,93,134Z"/><path class="cls-9" d="M93,122.43s3.23,3.38,9.32,2.16,8.75-4.73,8.75-4.73S101,124.43,93,122.43Z"/><path class="cls-9" d="M92.42,112.29a11,11,0,0,0,8.71,1.44c5.43-1.14,7.27-3.43,7.27-3.43S97.55,114.65,92.42,112.29Z"/><path class="cls-9" d="M91.81,102.13c5,2.39,11.61.08,13.72-2.19C100.07,103.08,91.81,102.13,91.81,102.13Z"/><path class="cls-9" d="M90.49,91.88a8.8,8.8,0,0,0,6.57,1.25,11.46,11.46,0,0,0,5.81-2.55S92.94,92.9,90.49,91.88Z"/><path class="cls-9" d="M89.11,83.35a10.89,10.89,0,0,0,5.7.7c3.1-.5,5.19-3.51,5.19-3.51C97.24,83.52,89.11,83.35,89.11,83.35Z"/><path class="cls-9" d="M87,74.51s3.3,1.1,5.65.47,4.5-3.44,4.5-3.44C93.05,74.77,87,74.51,87,74.51Z"/><path class="cls-9" d="M85.41,68.38c4.66,2.18,9.65-1.68,9.85-2.32l-4.49,1.72A13.5,13.5,0,0,1,85.41,68.38Z"/><path class="cls-9" d="M83,60.16s1.25,1.3,4.49,0S91.41,55,91.41,55C88.21,60.54,83,60.16,83,60.16Z"/><path class="cls-9" d="M80,52.18a5.18,5.18,0,0,0,4.81-.38c2.69-1.52,3.85-5.46,3.85-5.46S84.46,52.34,80,52.18Z"/><path class="cls-10" d="M81.66,30.52,69.87,44.43c20.16.79,26,42.84,26,42.84s13.58-19.3,6.75-42S81.66,30.52,81.66,30.52Z"/><path class="cls-11" d="M120.21,13.95C98.58,3.45,81.39,30.67,81.39,30.67l1.76,9.6c26.56-27.21,53.78-2.39,53.78-2.39S136.7,23.1,120.21,13.95Z"/><path class="cls-11" d="M50.11,34.5c-14.19,14.92-6.2,42.66-6.2,42.66S57.2,34.44,81.32,39.87l1.29-13.71S64.3,19.58,50.11,34.5Z"/><path class="cls-10" d="M78,15.56c-10.25,24.58.7,27.76.7,27.76l3.68-7.47c8.83-17,17.74-24.91,36.23-33C118.62,2.89,88.27-9,78,15.56Z"/><path class="cls-10" d="M82,32.49S56.18,38.31,53.17,63.26C51.28,85,58.23,92.5,58.23,92.5s2.26-36.16,28.21-54.17C100.2,19.84,82,32.49,82,32.49Z"/><path class="cls-10" d="M89.77,23.42c-19.81,4.83-9.48,19.9-9.48,19.9L92,43.22c13.9-2,23.69.21,42.18,17C134.2,60.22,119.89,19,89.77,23.42Z"/><path class="cls-10" d="M49.13,17.14C34,21.27,28.19,35.85,28.19,35.85s30.73-13.08,52.71,6.9l7.8-7.6S64.27,13,49.13,17.14Z"/><path class="cls-7" d="M74.57,114.46a4.92,4.92,0,0,0-4.24,1.33,1.36,1.36,0,0,0,.77,2.45,4.92,4.92,0,0,0,4.24-1.33A1.36,1.36,0,0,0,74.57,114.46Z"/><path class="cls-8" d="M92.66,172.5c-.22-1.38-.67-3.85-1-5.34-.06-.3-.46-.73-.52-1-.32-1.66-.73-3.65-1.11-5.45,0-.2-.41-.89-.45-1.09-.24-1.12-.66-3-.91-4.12a4.66,4.66,0,0,0-.57-1.2c-.36-1.6-.9-3.7-1.27-5.28-.06-.27-.35-.32-.47-.87q-.49-2-1-4c-.06-.26-.3-.54-.36-.8q-.63-2.56-1.25-5c0-.19-.37-.53-.42-.72l-1.05-4.15c-.06-.23-.39-.49-.44-.73l-.56-2.19c-.08-.3-.49-.69-.56-1q-.71-2.77-1.44-5.11c-.07-.24-.62-.79-.69-1a55.67,55.67,0,0,0-3-8.33l-5.77,2.35c.79,1.6,1.64,2.81,2.35,4.28.13.28.18.84.31,1.12.52,1.12,1,2.25,1.45,3.44.09.25,0,.85.07,1.1.41,1.1.81,2.21,1.22,3.34.09.25.08.93.17,1.18q.4,1.12.75,2.27c.07.23,0,.7.06.92q.61,2,1.11,4.1c.07.29-.06.82,0,1.11q.41,1.8.76,3.63c0,.24,0,.93,0,1.17q.39,2.18.69,4.36c.14.55-.23.92-.16,1.33.22,1.65.37,3,.53,4.6,0,.16-.11,1.07-.09,1.23.13,1.36.35,2.93.43,4.22,0,.26-.23.76-.22,1,.12,1.91.19,3.74.24,5.46,0,.27-.28.75-.27,1,0,2.17,0,4.16,0,5.9,0,.46-.37.62-.55,1.85-.09,3.76-.26,6.29-.26,6.29a3.87,3.87,0,0,0,2.28,3.18,12.17,12.17,0,0,0,11,0,3.87,3.87,0,0,0,2.28-3.18,44.4,44.4,0,0,0-.64-7.46A10,10,0,0,0,92.66,172.5Z"/><path class="cls-9" d="M79.29,174.53a9.08,9.08,0,0,0,7.09,2c3.86-.29,6.37-3.84,6.37-3.84s-3.86,2.36-6.44,2.77S79.29,174.53,79.29,174.53Z"/><path class="cls-9" d="M79.59,167.46a9.49,9.49,0,0,0,11.6-1.33C86.25,169,79.59,167.46,79.59,167.46Z"/><path class="cls-9" d="M79.57,161a5.71,5.71,0,0,0,5.19,1.2,8.33,8.33,0,0,0,4.87-2.63S84,162.15,79.57,161Z"/><path class="cls-9" d="M79.25,155.39a6.1,6.1,0,0,0,4.85.8c3-.64,4-1.91,4-1.91S82.1,156.7,79.25,155.39Z"/><path class="cls-9" d="M78.91,149.73a7.51,7.51,0,0,0,7.63-1.22C83.51,150.27,78.91,149.73,78.91,149.73Z"/><path class="cls-9" d="M78.17,144a4.89,4.89,0,0,0,3.65.7,6.37,6.37,0,0,0,3.24-1.42S79.54,144.6,78.17,144Z"/><path class="cls-9" d="M77.4,139.29a6.06,6.06,0,0,0,3.17.39,5,5,0,0,0,2.89-2C81.93,139.38,77.4,139.29,77.4,139.29Z"/><path class="cls-9" d="M76.25,134.36a6.64,6.64,0,0,0,3.14.26,6,6,0,0,0,2.51-1.91A9.67,9.67,0,0,1,76.25,134.36Z"/><path class="cls-9" d="M75.35,131c2.59,1.21,5.37-.94,5.48-1.29l-2.5,1A7.51,7.51,0,0,1,75.35,131Z"/><path class="cls-9" d="M74,126.38s.7.72,2.5,0a4,4,0,0,0,2.16-2.9A5.26,5.26,0,0,1,74,126.38Z"/><path class="cls-9" d="M72.32,121.94a2.88,2.88,0,0,0,2.68-.21,5.83,5.83,0,0,0,2.14-3S74.82,122,72.32,121.94Z"/><path class="cls-10" d="M73.26,109.89l-6.56,7.74c11.22.44,14.49,23.84,14.49,23.84s7.56-10.74,3.76-23.38S73.26,109.89,73.26,109.89Z"/><path class="cls-11" d="M94.71,100.66c-12-5.84-21.6,9.31-21.6,9.31l1,5.34C88.87,100.17,104,114,104,114S103.89,105.76,94.71,100.66Z"/><path class="cls-11" d="M55.7,112.1c-7.9,8.3-3.45,23.74-3.45,23.74s7.39-23.77,20.82-20.75l.72-7.63S63.6,103.8,55.7,112.1Z"/><path class="cls-10" d="M71.24,101.56c-5.7,13.68.39,15.45.39,15.45l2-4.16c4.91-9.44,9.87-13.86,20.16-18.34C93.83,94.51,76.94,87.88,71.24,101.56Z"/><path class="cls-10" d="M73.46,111S59.08,114.22,57.4,128.1c-1,12.08,2.82,16.27,2.82,16.27s1.26-20.12,15.7-30.14C83.58,103.94,73.46,111,73.46,111Z"/><path class="cls-10" d="M77.77,105.93C66.75,108.62,72.5,117,72.5,117L79,117c7.73-1.09,13.18.11,23.47,9.46C102.5,126.41,94.53,103.5,77.77,105.93Z"/><path class="cls-10" d="M55.16,102.44c-8.42,2.3-11.66,10.42-11.66,10.42s17.1-7.28,29.33,3.84l4.34-4.23S63.59,100.14,55.16,102.44Z"/><path class="cls-7" d="M141.48,87.32a5.85,5.85,0,0,1,5.05,1.58c1.14,1.24.73,2.55-.91,2.92a5.85,5.85,0,0,1-5.05-1.58C139.42,89,139.83,87.68,141.48,87.32Z"/><path class="cls-8" d="M120,156.39c.26-1.64.8-4.58,1.14-6.35.07-.35.55-.87.62-1.23.38-2,.87-4.34,1.32-6.48.05-.23.49-1.06.54-1.29.29-1.34.78-3.54,1.09-4.9a5.55,5.55,0,0,1,.67-1.43c.43-1.9,1.07-4.4,1.52-6.28.08-.32.42-.38.56-1q.58-2.42,1.16-4.79c.07-.3.36-.64.43-.95q.75-3,1.48-6c.06-.22.44-.63.5-.86l1.26-4.93c.07-.28.46-.59.53-.86l.66-2.6c.09-.36.58-.82.67-1.17q.84-3.3,1.71-6.08c.09-.28.73-.94.82-1.21,1.4-4.39,2.25-7.41,3.56-9.92l6.87,2.8c-.94,1.91-2,3.34-2.8,5.1-.16.33-.21,1-.36,1.34-.62,1.33-1.2,2.67-1.73,4.09-.11.29,0,1-.09,1.31-.49,1.31-1,2.63-1.45,4-.11.3-.1,1.1-.2,1.4q-.47,1.34-.9,2.7c-.08.27,0,.83-.07,1.1q-.72,2.41-1.32,4.88c-.08.35.07,1,0,1.33q-.49,2.14-.9,4.32c-.05.28,0,1.1,0,1.39q-.47,2.59-.83,5.19c-.17.66.27,1.1.19,1.58-.26,2-.44,3.55-.63,5.48,0,.19.13,1.28.11,1.46-.15,1.62-.41,3.48-.52,5,0,.31.28.9.26,1.2-.14,2.27-.23,4.45-.28,6.5,0,.32.33.9.33,1.21-.05,2.59-.06,4.95,0,7,0,.54.45.73.66,2.2.1,4.47.31,7.49.31,7.49,0,1.37-.9,2.74-2.71,3.78a14.49,14.49,0,0,1-13.11,0c-1.81-1-2.71-2.41-2.71-3.78a52.84,52.84,0,0,1,.76-8.88A11.93,11.93,0,0,1,120,156.39Z"/><path class="cls-9" d="M135.87,158.81c-1.78,1.34-3.84,2.76-8.43,2.42s-7.58-4.57-7.58-4.57,4.6,2.81,7.67,3.3S135.87,158.81,135.87,158.81Z"/><path class="cls-9" d="M135.51,150.39a11.29,11.29,0,0,1-13.8-1.58C127.58,152.17,135.51,150.39,135.51,150.39Z"/><path class="cls-9" d="M135.54,142.74a6.8,6.8,0,0,1-6.17,1.43,9.92,9.92,0,0,1-5.79-3.13S130.23,144.07,135.54,142.74Z"/><path class="cls-9" d="M135.91,136a7.26,7.26,0,0,1-5.77,1c-3.59-.76-4.82-2.27-4.82-2.27S132.52,137.59,135.91,136Z"/><path class="cls-9" d="M136.32,129.3a8.94,8.94,0,0,1-9.08-1.45C130.85,129.93,136.32,129.3,136.32,129.3Z"/><path class="cls-9" d="M137.2,122.51a5.83,5.83,0,0,1-4.35.83,7.59,7.59,0,0,1-3.85-1.69S135.57,123.19,137.2,122.51Z"/><path class="cls-9" d="M138.11,116.86a7.21,7.21,0,0,1-3.78.46A6,6,0,0,1,130.9,115C132.72,117,138.11,116.86,138.11,116.86Z"/><path class="cls-9" d="M139.49,111a7.9,7.9,0,0,1-3.74.31,7.14,7.14,0,0,1-3-2.28C135.5,111.18,139.49,111,139.49,111Z"/><path class="cls-9" d="M140.56,106.94c-3.09,1.44-6.39-1.11-6.52-1.54l3,1.14A8.94,8.94,0,0,0,140.56,106.94Z"/><path class="cls-9" d="M142.13,101.5s-.83.86-3,0a4.8,4.8,0,0,1-2.57-3.45A6.27,6.27,0,0,0,142.13,101.5Z"/><path class="cls-9" d="M144.16,96.22A3.43,3.43,0,0,1,141,96c-1.78-1-2.55-3.62-2.55-3.62S141.19,96.32,144.16,96.22Z"/><path class="cls-11" d="M117.51,70.9C131.84,63.95,143.22,82,143.22,82l-1.17,6.36c-17.59-18-35.62-1.58-35.62-1.58S106.59,77,117.51,70.9Z"/><path class="cls-11" d="M163.94,84.51c9.4,9.88,4.11,28.25,4.11,28.25s-8.8-28.29-24.77-24.7L142.41,79S154.54,74.63,163.94,84.51Z"/><path class="cls-10" d="M145.45,72c6.79,16.28-.46,18.38-.46,18.38l-2.44-4.95c-5.85-11.23-11.75-16.5-24-21.83C118.56,63.57,138.66,55.68,145.45,72Z"/><path class="cls-10" d="M142.8,83.18s17.11,3.86,19.11,20.38c1.25,14.38-3.35,19.37-3.35,19.37S157.07,99,139.88,87C130.76,74.8,142.8,83.18,142.8,83.18Z"/><path class="cls-10" d="M137.67,77.17c13.12,3.2,6.28,13.18,6.28,13.18l-7.77-.06c-9.21-1.3-15.69.14-27.93,11.25C108.25,101.54,117.73,74.27,137.67,77.17Z"/><path class="cls-10" d="M164.58,73c10,2.74,13.87,12.4,13.87,12.4S158.11,76.74,143.55,90l-5.17-5S154.56,70.27,164.58,73Z"/><path class="cls-12" d="M142.06,88.33a60.36,60.36,0,0,0-33.81,13.21S116.72,80.7,143,81.87Z"/><path class="cls-10" d="M143,81.87l7.81,9.21c-13.35.52-17.25,28.37-17.25,28.37s-9-12.78-4.47-27.83S143,81.87,143,81.87Z"/><path class="cls-12" d="M147,84.17s-25.12,9.14-13.45,35.28a38.43,38.43,0,0,1,12-27.64Z"/><path class="cls-12" d="M76.36,38.59S105.62,66,95.92,87.27c0,0,23-46.65-10.53-57.58Z"/><path class="cls-12" d="M72,116.4s16.3,15.25,10.89,27.11c0,0,12.82-26-5.86-32.07Z"/></g></g></g></svg>