<?xml version="1.0" encoding="utf-8"?>

<svg version="1.1" id="Layer_1" xmlns="http://www.w3.org/2000/svg" xmlns:xlink="http://www.w3.org/1999/xlink" x="0px" y="0px"
	 widht="64" height="64px" viewBox="0 0 242.733 173.831" enable-background="new 0 0 242.733 173.831"
	 xml:space="preserve">
<path fill="#e6e7e8" fill-opacity= "0.4" d="M202.736,57.386c-53.326-30.788-108.359-30.788-161.686,0C14.388,72.779,1.056,88.419,1.056,104.061
	c0,15.64,13.332,31.28,39.995,46.675c53.326,30.789,108.359,30.789,161.687,0c26.664-15.393,39.995-31.035,39.995-46.675
	C242.731,88.421,229.399,72.78,202.736,57.386"/>
<polyline fill="none" points="242.733,34.292 1.055,34.292 1.055,173.831 "/>
<line fill="none" x1="242.733" y1="173.831" x2="242.733" y2="34.292"/>
<polyline fill="none" points="242.733,34.292 1.055,34.292 1.055,173.831 "/>
<line fill="none" x1="242.733" y1="173.831" x2="242.733" y2="34.292"/>
<path fill="#d74527" d="M186.075,113.524c-49.2,28.406-99.976,28.406-149.175,0C12.3,99.321,0,84.892,0,70.461V91.95
	c0,14.429,12.3,28.859,36.9,43.063c49.199,28.406,99.975,28.406,149.175,0c24.6-14.201,36.899-28.631,36.899-43.063V70.462
	C222.975,84.892,210.675,99.321,186.075,113.524"/>
<path fill="#de5f25" d="M186.075,27.398c-49.201-28.405-99.976-28.405-149.176,0C12.299,41.601-0.001,56.03,0,70.46
	c0,14.432,12.3,28.861,36.9,43.063c49.199,28.406,99.975,28.406,149.175,0.001c24.6-14.203,36.899-28.633,36.899-43.063
	S210.675,41.601,186.075,27.398"/>
<path fill="#d74527" d="M176.117,37.257c32.21,18.598,32.21,48.748,0,67.346s-84.434,18.598-116.644,0
	c-32.211-18.598-32.211-48.748,0-67.346C91.684,18.661,143.907,18.661,176.117,37.257"/>
<path fill="#95a9a7" d="M160.45,13.341c-30.81-17.787-80.762-17.787-111.571,0c-15.036,8.682-22.727,19.995-23.081,31.371
	c-0.203,6.469-0.203,12.945,0,19.414c0.354,11.377,8.045,22.689,23.081,31.371c30.81,17.789,80.762,17.789,111.571,0
	c15.037-8.682,22.727-19.995,23.082-31.371c0.202-6.469,0.202-12.945,0-19.413C183.177,33.336,175.487,22.022,160.45,13.341"/>
<g opacity="0.5">
	<g>
		<defs>
			<rect id="SVGID_1_" x="25.646" y="6.261" width="39.327" height="96.311"/>
		</defs>
		<clipPath id="SVGID_2_">
			<use xlink:href="#SVGID_1_"  overflow="visible"/>
		</clipPath>
		<path clip-path="url(#SVGID_2_)" fill="#dde7e7" d="M64.973,6.263c-5.735,1.918-11.179,4.24-16.094,7.078
			c-15.037,8.682-22.726,19.994-23.082,31.371c-0.202,6.469-0.202,12.945,0,19.414c0.356,11.377,8.045,22.689,23.082,31.371
			c4.915,2.838,10.358,5.16,16.094,7.079V6.263z"/>
	</g>
</g>
<path fill="#dde7e7" d="M160.45,13.341c30.811,17.788,30.811,46.629,0,64.418c-30.81,17.787-80.762,17.787-111.57,0
	c-30.811-17.789-30.811-46.63,0-64.418C79.688-4.446,129.641-4.446,160.45,13.341"/>
<path fill="#a9bab8" d="M154.033,17.046c27.266,15.742,27.266,41.266,0,57.006c-27.266,15.742-71.471,15.742-98.736,0
	c-27.266-15.74-27.266-41.264,0-57.006S126.768,1.304,154.033,17.046"/>
<path fill="#2a2529" d="M148.85,19.997c-24.198-14.018-63.433-14.018-87.631,0c-24.199,14.019-24.199,36.746,0,50.765
	c24.198,14.019,63.433,14.019,87.631,0C173.049,56.743,173.049,34.016,148.85,19.997"/>
<path fill="#fff" d="M105.185,45.474l-0.001,24.537h-0.49l-0.001-24.537l-42.5-0.001v-0.283h42.5l0.001-24.538h0.49l0.001,24.538
	h42.499v0.283L105.185,45.474z M134.99,27.595l-30.052,17.352L74.887,27.595l-0.668,0.386l30.052,17.351L74.219,62.682l0.668,0.386
	l30.052-17.35l30.052,17.35l0.667-0.386l-30.051-17.351l30.051-17.351L134.99,27.595z M71.976,28.173l-2.944-1.699
	c-1.144-0.661-1.992-1.128-2.912-1.6l0.021-0.023c1.093,0.23,2.341,0.419,3.587,0.584l5.682,0.756l0.899-0.52l-6.888-3.978
	l-0.839,0.483l2.884,1.664c1.071,0.619,1.93,1.092,2.932,1.576l-0.01,0.018c-1.032-0.219-2.156-0.407-3.476-0.578l-5.691-0.738
	l-0.973,0.562l6.89,3.977L71.976,28.173z M71.658,68.849l-2.606-2.639c-0.633-0.66-1.154-1.138-1.716-1.604l0.02-0.011
	c0.788,0.348,1.605,0.654,2.698,1.039l4.456,1.568l0.93-0.537l-4.936-5.104l-0.91,0.525l2.565,2.531
	c0.645,0.619,1.216,1.174,1.829,1.693l-0.02,0.012c-0.828-0.359-1.83-0.726-2.841-1.086l-4.334-1.535l-0.931,0.539l2.556,2.536
	c0.653,0.649,1.257,1.245,1.829,1.705l-0.02,0.013c-0.788-0.313-1.831-0.703-2.893-1.08l-4.304-1.541l-0.939,0.543l8.636,2.969
	L71.658,68.849z M142.23,69.032c0.612-0.07,1.533-0.377,2.197-0.761c1.625-0.938,1.493-1.923,0.429-2.537
	c-1.012-0.584-2.167-0.565-3.781-0.153c-1.318,0.336-2.055,0.396-2.698,0.024c-0.471-0.272-0.675-0.804,0.266-1.345
	c0.624-0.361,1.288-0.508,1.636-0.567l-0.479-0.56c-0.481,0.076-1.156,0.275-1.861,0.683c-1.339,0.774-1.431,1.747-0.357,2.366
	c0.972,0.561,2.248,0.496,3.771,0.078c1.287-0.331,2.023-0.332,2.667,0.041c0.695,0.4,0.644,0.984-0.265,1.51
	c-0.614,0.354-1.401,0.572-2.045,0.661L142.23,69.032z M140.345,24.427l-2.679,1.547l-2.176-1.258l2.831-1.633l-0.747-0.432
	l-3.72,2.148l6.888,3.977l3.874-2.236l-0.747-0.431l-2.983,1.722l-2.483-1.433l2.678-1.546L140.345,24.427z"/>
<g opacity="0.3">
	<g>
		<defs>
			<rect id="SVGID_3_" x="43.226" y="9.591" width="123.617" height="71.371"/>
		</defs>
		<clipPath id="SVGID_4_">
			<use xlink:href="#SVGID_3_"  overflow="visible"/>
		</clipPath>
		<path clip-path="url(#SVGID_4_)" fill="#6f626c" d="M148.739,20.046c24.138,13.936,24.138,36.531,0,50.467s-63.273,13.936-87.41,0
			c-24.138-13.936-24.138-36.531,0-50.467C85.466,6.11,124.602,6.11,148.739,20.046"/>
	</g>
</g>
<path fill="#e5e3e3" d="M60.603,19.626c-24.497,14.145-24.499,37.16,0.001,51.305c24.498,14.145,64.362,14.145,88.859,0
	c24.498-14.145,24.498-37.159,0-51.303C124.963,5.482,85.1,5.482,60.603,19.626 M147.95,70.058
	c-23.665,13.662-62.168,13.662-85.833,0c-23.665-13.663-23.666-35.895-0.001-49.557c23.665-13.664,62.169-13.662,85.834,0
	C171.615,34.165,171.615,56.395,147.95,70.058"/>
<path fill="#4866b0" d="M88.924,69.661l12.378-7.617c0.742-0.457,1.286-1.008,1.589-1.609l20.009-39.799
	c0.191-0.383-0.734-0.6-1.058-0.248L88.215,57.001c-0.508,0.553-0.782,1.167-0.8,1.794l-0.299,10.442
	C87.1,69.79,88.27,70.063,88.924,69.661"/>
<path fill="#f04c4d" d="M109.314,47.657l13.584-27.021c0.192-0.383-0.733-0.6-1.057-0.248l-20.708,22.547L109.314,47.657z"/>
<path fill="#673923" d="M103.76,44.907c0.285-0.406,1.086-0.602,1.789-0.437c0.703,0.163,1.042,0.626,0.757,1.032
	c-0.284,0.406-1.086,0.602-1.789,0.438C103.814,45.775,103.475,45.313,103.76,44.907"/>
</svg>
