<svg xmlns="http://www.w3.org/2000/svg" viewBox="0 0 251.75 212.66" widht="64" height="64px"><defs><style>.cls-1{isolation:isolate;}.cls-2,.cls-23,.cls-9{mix-blend-mode:multiply;}.cls-3{fill:#e6e7e8; fill-opacity: 0.4;}.cls-4{fill:#f99b1c;}.cls-5{fill:#da9b28;}.cls-6{fill:#f9b418;}.cls-7{fill:#dc8c4a;}.cls-8{fill:#964e22;}.cls-9{fill:#825333;opacity:0.4;}.cls-10{fill:#bb6b2d;}.cls-11{fill:#f7fcfe;}.cls-11,.cls-12,.cls-13,.cls-14,.cls-15,.cls-16,.cls-17,.cls-18,.cls-21,.cls-22{fill-rule:evenodd;}.cls-12{fill:#7ec5ed;}.cls-13{fill:#f99d3c;}.cls-14{fill:#f05555;}.cls-15{fill:#81421d;}.cls-16{fill:#d78148;}.cls-17{fill:#874a20;}.cls-18{fill:#fbb272;}.cls-19,.cls-20,.cls-21,.cls-22{fill:#c7cedf;}.cls-20,.cls-22{opacity:0.6;mix-blend-mode:screen;}.cls-23{fill:#825f46;opacity:0.7;}.cls-24{fill:#2b2c2b;}.cls-25{fill:#b6b7b7;}.cls-26{fill:#454545;}</style></defs><title>icn_case_pad</title><g class="cls-1"><g id="Слой_2" data-name="Слой 2"><g id="Layer_1" data-name="Layer 1"><g class="cls-2"><path class="cls-3" d="M210.27,91.9C155,60,97.88,60,42.58,91.9h0c-27.65,16-41.48,32.19-41.48,48.41s13.83,32.44,41.48,48.41c55.31,31.93,112.39,31.93,167.7,0,27.65-16,41.48-32.19,41.48-48.41S237.92,107.86,210.27,91.9Z"/></g><path class="cls-4" d="M193,83.08c-51-29.46-103.69-29.46-154.72,0h0C12.76,97.81,0,112.78,0,127.74s12.76,29.93,38.27,44.66c51,29.46,103.69,29.46,154.72,0,25.51-14.73,38.27-29.7,38.27-44.66S218.5,97.81,193,83.08Z"/><path class="cls-5" d="M193,150.12c-51,29.46-103.69,29.46-154.72,0C12.76,135.39,0,120.42,0,105.46v22.29c0,15,12.76,29.93,38.27,44.66,51,29.46,103.69,29.46,154.72,0,25.51-14.73,38.27-29.7,38.27-44.66V105.46C231.26,120.42,218.5,135.39,193,150.12Z"/><path class="cls-6" d="M193,60.79c-51-29.46-103.69-29.46-154.72,0h0C12.76,75.52,0,90.49,0,105.46s12.76,29.93,38.27,44.66c51,29.46,103.69,29.46,154.72,0,25.51-14.73,38.27-29.7,38.27-44.66S218.5,75.52,193,60.79Z"/><polygon class="cls-5" points="195.66 88.95 75.99 156.78 38.66 133.1 148.09 68.85 195.66 88.95"/><polygon class="cls-7" points="155.28 0 51.06 60.17 51.06 127.22 79.48 143.75 183.7 83.58 183.7 16.53 155.28 0"/><polygon class="cls-8" points="79.48 76.7 51.06 60.17 51.06 127.22 79.48 143.75 79.48 76.7"/><polygon class="cls-9" points="168.25 7.55 64.28 67.53 64 67.69 64 134.74 65.11 135.39 65.11 68.32 169.35 8.19 168.25 7.55"/><polygon class="cls-10" points="183.7 83.58 79.48 143.75 79.48 76.7 183.7 16.53 183.7 83.58"/><path class="cls-11" d="M113.48,69.7a.88.88,0,0,1-.36.17.76.76,0,0,0-.43.33,1.47,1.47,0,0,1-.32.34.88.88,0,0,1-.36.17.76.76,0,0,0-.43.33,1.47,1.47,0,0,1-.32.34.88.88,0,0,1-.36.17.76.76,0,0,0-.43.33,1.47,1.47,0,0,1-.32.34.88.88,0,0,1-.36.17.76.76,0,0,0-.43.33,1.47,1.47,0,0,1-.32.34.88.88,0,0,1-.36.17.76.76,0,0,0-.43.33,1.47,1.47,0,0,1-.32.34.88.88,0,0,1-.36.17.76.76,0,0,0-.43.33,1.47,1.47,0,0,1-.32.34.88.88,0,0,1-.36.17.76.76,0,0,0-.43.33,1.47,1.47,0,0,1-.32.34.88.88,0,0,1-.36.17.76.76,0,0,0-.43.33,1.48,1.48,0,0,1-.32.34.88.88,0,0,1-.36.17.76.76,0,0,0-.43.33,1.46,1.46,0,0,1-.32.34.88.88,0,0,1-.36.17.76.76,0,0,0-.43.33,1.47,1.47,0,0,1-.32.34.88.88,0,0,1-.36.17.76.76,0,0,0-.43.33,1.47,1.47,0,0,1-.32.34.88.88,0,0,1-.36.17.76.76,0,0,0-.43.33,1.47,1.47,0,0,1-.32.34.88.88,0,0,1-.36.17.76.76,0,0,0-.43.33,1.47,1.47,0,0,1-.32.34.88.88,0,0,1-.36.17.76.76,0,0,0-.43.33,1.47,1.47,0,0,1-.32.34.88.88,0,0,1-.36.17.76.76,0,0,0-.43.33,1.46,1.46,0,0,1-.32.34.88.88,0,0,1-.36.17A.76.76,0,0,0,96,83a1.47,1.47,0,0,1-.32.34.88.88,0,0,1-.36.17.76.76,0,0,0-.43.33,1.47,1.47,0,0,1-.32.34.88.88,0,0,1-.36.17.76.76,0,0,0-.43.33,1.46,1.46,0,0,1-.32.34l0,0a.86.86,0,0,0-.39.76l0,.15,2.08,9.86,0,.15c0,.23.3.26.56,0l0,0a.88.88,0,0,1,.36-.17.76.76,0,0,0,.43-.33,1.47,1.47,0,0,1,.32-.34.88.88,0,0,1,.36-.17.76.76,0,0,0,.43-.33,1.47,1.47,0,0,1,.32-.34.88.88,0,0,1,.36-.17.76.76,0,0,0,.43-.33,1.47,1.47,0,0,1,.32-.34.88.88,0,0,1,.36-.17.76.76,0,0,0,.43-.33,1.47,1.47,0,0,1,.32-.34.88.88,0,0,1,.36-.17.76.76,0,0,0,.43-.33,1.46,1.46,0,0,1,.32-.34.88.88,0,0,1,.36-.17.76.76,0,0,0,.43-.33,1.47,1.47,0,0,1,.32-.34.88.88,0,0,1,.36-.17.76.76,0,0,0,.43-.33,1.47,1.47,0,0,1,.32-.34.88.88,0,0,1,.36-.17.76.76,0,0,0,.43-.33,1.47,1.47,0,0,1,.32-.34A.88.88,0,0,1,105,89a.76.76,0,0,0,.43-.33,1.47,1.47,0,0,1,.32-.34.88.88,0,0,1,.36-.17.76.76,0,0,0,.43-.33,1.47,1.47,0,0,1,.32-.34.88.88,0,0,1,.36-.17.76.76,0,0,0,.43-.33,1.47,1.47,0,0,1,.32-.34.88.88,0,0,1,.36-.17.76.76,0,0,0,.43-.33,1.46,1.46,0,0,1,.32-.34.88.88,0,0,1,.36-.17.76.76,0,0,0,.43-.33,1.47,1.47,0,0,1,.32-.34.88.88,0,0,1,.36-.17.76.76,0,0,0,.43-.33,1.47,1.47,0,0,1,.32-.34.88.88,0,0,1,.36-.17.76.76,0,0,0,.43-.33,1.47,1.47,0,0,1,.32-.34.88.88,0,0,1,.36-.17.76.76,0,0,0,.43-.33,1.47,1.47,0,0,1,.32-.34.88.88,0,0,1,.36-.17.76.76,0,0,0,.43-.33,1.47,1.47,0,0,1,.32-.34.88.88,0,0,1,.36-.17.76.76,0,0,0,.43-.33,1.47,1.47,0,0,1,.32-.34h0a.89.89,0,0,0,.39-.77l0-.15-2.08-9.86,0-.15c0-.24-.3-.24-.56,0Z"/><path class="cls-12" d="M113.34,81.36,97.9,93.17c-.77.59-1.51.51-1.65-.17l-1.38-6.54A2.69,2.69,0,0,1,96,84.15l15.43-11.82c.77-.59,1.51-.51,1.65.17l1.38,6.54A2.69,2.69,0,0,1,113.34,81.36Z"/><path class="cls-11" d="M127.93,107a1.34,1.34,0,0,1,.28-.32.83.83,0,0,0,.28-.45,1.15,1.15,0,0,1,.16-.38,1.34,1.34,0,0,1,.28-.32.83.83,0,0,0,.28-.45,1.14,1.14,0,0,1,.16-.38,1.34,1.34,0,0,1,.28-.32.83.83,0,0,0,.28-.45,1.14,1.14,0,0,1,.16-.38,1.34,1.34,0,0,1,.28-.32.83.83,0,0,0,.28-.45,1.15,1.15,0,0,1,.16-.38,1.35,1.35,0,0,1,.28-.32.83.83,0,0,0,.28-.45,1.14,1.14,0,0,1,.16-.38,1.34,1.34,0,0,1,.28-.32.83.83,0,0,0,.28-.45,1.14,1.14,0,0,1,.16-.38,1.34,1.34,0,0,1,.28-.32.83.83,0,0,0,.28-.45A1.13,1.13,0,0,1,133,99a1.34,1.34,0,0,1,.28-.32.83.83,0,0,0,.28-.45,1.14,1.14,0,0,1,.16-.38,1.34,1.34,0,0,1,.28-.32.83.83,0,0,0,.28-.45,1.14,1.14,0,0,1,.16-.38,1.35,1.35,0,0,1,.28-.32.83.83,0,0,0,.28-.45,1.13,1.13,0,0,1,.16-.38,1.34,1.34,0,0,1,.28-.32.83.83,0,0,0,.28-.45,1.14,1.14,0,0,1,.16-.38,1.34,1.34,0,0,1,.28-.32.83.83,0,0,0,.28-.45,1.13,1.13,0,0,1,.16-.38,1.34,1.34,0,0,1,.28-.32.83.83,0,0,0,.28-.45,1.14,1.14,0,0,1,.16-.38,1.34,1.34,0,0,1,.28-.32.83.83,0,0,0,.28-.45,1.14,1.14,0,0,1,.16-.38,1.35,1.35,0,0,1,.28-.32.83.83,0,0,0,.28-.45,1.13,1.13,0,0,1,.16-.38,1.34,1.34,0,0,1,.28-.32.83.83,0,0,0,.28-.45,1.14,1.14,0,0,1,.16-.38,1.34,1.34,0,0,1,.28-.32.83.83,0,0,0,.28-.45,1.13,1.13,0,0,1,.16-.38,1.34,1.34,0,0,1,.28-.32.83.83,0,0,0,.28-.45,1.14,1.14,0,0,1,.16-.38l0,0c.18-.26.18-.54,0-.61l-.11,0-7.33-3.06-.11,0c-.17-.07-.45.09-.61.36l0,.05a1.34,1.34,0,0,1-.28.32.83.83,0,0,0-.28.45,1.14,1.14,0,0,1-.16.38,1.35,1.35,0,0,1-.28.32.83.83,0,0,0-.28.45,1.13,1.13,0,0,1-.16.38,1.34,1.34,0,0,1-.28.32.83.83,0,0,0-.28.45,1.14,1.14,0,0,1-.16.38,1.34,1.34,0,0,1-.28.32.83.83,0,0,0-.28.45,1.14,1.14,0,0,1-.16.38,1.34,1.34,0,0,1-.28.32.83.83,0,0,0-.28.45,1.14,1.14,0,0,1-.16.38,1.34,1.34,0,0,1-.28.32.83.83,0,0,0-.28.45,1.14,1.14,0,0,1-.16.38,1.35,1.35,0,0,1-.28.32.83.83,0,0,0-.28.45,1.13,1.13,0,0,1-.16.38,1.34,1.34,0,0,1-.28.32.83.83,0,0,0-.28.45,1.14,1.14,0,0,1-.16.38,1.34,1.34,0,0,1-.28.32.83.83,0,0,0-.28.45,1.14,1.14,0,0,1-.16.38,1.34,1.34,0,0,1-.28.32.83.83,0,0,0-.28.45,1.14,1.14,0,0,1-.16.38,1.34,1.34,0,0,1-.28.32.83.83,0,0,0-.28.45,1.14,1.14,0,0,1-.16.38,1.35,1.35,0,0,1-.28.32.83.83,0,0,0-.28.45,1.14,1.14,0,0,1-.16.38,1.34,1.34,0,0,1-.28.32.83.83,0,0,0-.28.45,1.15,1.15,0,0,1-.16.38,1.34,1.34,0,0,1-.28.32.83.83,0,0,0-.28.45,1.14,1.14,0,0,1-.16.38,1.34,1.34,0,0,1-.28.32.83.83,0,0,0-.28.45,1.14,1.14,0,0,1-.16.38,1.34,1.34,0,0,1-.28.32.83.83,0,0,0-.28.45,1.14,1.14,0,0,1-.16.38,1.35,1.35,0,0,1-.28.32.83.83,0,0,0-.28.45,1.14,1.14,0,0,1-.16.38,1.34,1.34,0,0,1-.28.32.83.83,0,0,0-.28.45,1.15,1.15,0,0,1-.16.38h0c-.17.27-.18.54,0,.62l.11,0,7.33,3.06.11,0c.17.07.44-.1.61-.36Z"/><path class="cls-13" d="M122,101.67l10.25-16.21c.49-.77,1.28-1.23,1.76-1l4.93,2.06c.49.2.49,1,0,1.76l-10.25,16.21c-.49.77-1.28,1.23-1.76,1L122,103.43C121.47,103.23,121.47,102.44,122,101.67Z"/><path class="cls-11" d="M151.87,61.86a.27.27,0,0,1,.22.09c.07.08.2.08.34,0a.63.63,0,0,1,.31-.11.27.27,0,0,1,.22.09c.07.08.2.08.34,0a.63.63,0,0,1,.31-.11.27.27,0,0,1,.22.09c.07.08.2.08.34,0a.63.63,0,0,1,.31-.11.27.27,0,0,1,.22.09c.07.08.2.08.34,0a.63.63,0,0,1,.31-.11.27.27,0,0,1,.22.09c.07.08.2.08.34,0a.63.63,0,0,1,.31-.11.27.27,0,0,1,.22.09c.07.08.2.08.34,0a.63.63,0,0,1,.31-.11.27.27,0,0,1,.22.09c.07.08.2.08.34,0a.63.63,0,0,1,.31-.11.27.27,0,0,1,.22.09c.07.08.2.08.34,0a.63.63,0,0,1,.31-.11.27.27,0,0,1,.23.09c.07.08.2.08.34,0a.63.63,0,0,1,.31-.11.27.27,0,0,1,.22.09c.07.08.2.08.34,0a.63.63,0,0,1,.31-.11.27.27,0,0,1,.22.09c.07.08.2.08.34,0a.63.63,0,0,1,.31-.11.27.27,0,0,1,.22.09c.07.08.2.08.34,0a.63.63,0,0,1,.31-.11.27.27,0,0,1,.22.09c.07.08.2.08.34,0a.63.63,0,0,1,.31-.11.27.27,0,0,1,.22.09c.07.08.2.08.34,0a.63.63,0,0,1,.31-.11.27.27,0,0,1,.22.09c.07.08.2.08.34,0a.63.63,0,0,1,.31-.11.27.27,0,0,1,.23.09c.07.08.2.08.34,0a.63.63,0,0,1,.31-.11.27.27,0,0,1,.22.09c.07.08.2.08.34,0a.63.63,0,0,1,.31-.11.27.27,0,0,1,.22.09c.07.08.2.08.34,0a.63.63,0,0,1,.31-.11h0c.19,0,.45-.21.57-.49l.07-.18L173,49.08l.07-.18c.11-.28,0-.49-.18-.46h0a.27.27,0,0,1-.22-.09c-.07-.08-.2-.08-.34,0a.63.63,0,0,1-.31.11.27.27,0,0,1-.22-.09c-.07-.08-.2-.08-.34,0a.63.63,0,0,1-.31.11.27.27,0,0,1-.22-.09c-.07-.08-.2-.08-.34,0a.63.63,0,0,1-.31.11.27.27,0,0,1-.22-.09c-.07-.08-.2-.08-.34,0a.63.63,0,0,1-.31.11.27.27,0,0,1-.22-.09c-.07-.08-.2-.08-.34,0a.63.63,0,0,1-.31.11.27.27,0,0,1-.23-.09c-.07-.08-.2-.08-.34,0a.63.63,0,0,1-.31.11.27.27,0,0,1-.22-.09c-.07-.08-.2-.08-.34,0a.63.63,0,0,1-.31.11.27.27,0,0,1-.22-.09c-.07-.08-.2-.08-.34,0a.63.63,0,0,1-.31.11.27.27,0,0,1-.22-.09c-.07-.08-.2-.08-.34,0a.63.63,0,0,1-.31.11.27.27,0,0,1-.22-.09c-.07-.08-.2-.08-.34,0a.63.63,0,0,1-.31.11.27.27,0,0,1-.22-.09c-.07-.08-.2-.08-.34,0a.63.63,0,0,1-.31.11.27.27,0,0,1-.22-.09c-.07-.08-.2-.08-.34,0a.63.63,0,0,1-.31.11.27.27,0,0,1-.22-.09c-.07-.08-.2-.08-.34,0a.63.63,0,0,1-.31.11.27.27,0,0,1-.22-.09c-.07-.08-.2-.08-.34,0a.63.63,0,0,1-.31.11.27.27,0,0,1-.22-.09c-.07-.08-.2-.08-.34,0a.63.63,0,0,1-.31.11.27.27,0,0,1-.23-.09c-.07-.08-.2-.08-.34,0a.63.63,0,0,1-.31.11.27.27,0,0,1-.22-.09c-.07-.08-.2-.08-.34,0a.63.63,0,0,1-.31.11.27.27,0,0,1-.22-.09c-.07-.08-.2-.08-.34,0a.63.63,0,0,1-.31.11h0a.75.75,0,0,0-.57.49l-.07.18-4.78,11.57-.07.18c-.11.28,0,.47.18.46Z"/><path class="cls-14" d="M158.35,50.15l12.32-.43c.6,0,.82.6.5,1.39L168,58.83a2.31,2.31,0,0,1-1.68,1.47L154,60.73c-.6,0-.83-.6-.5-1.39l3.19-7.72A2.31,2.31,0,0,1,158.35,50.15Z"/><polygon class="cls-15" points="68.06 48.17 68.06 50.37 68.94 49.85 97.24 66.45 97.24 133.51 97.92 133.89 99.24 130.81 101.56 115.44 100.04 66.06 98.38 62.67 76.16 48.23 68.06 48.17"/><polygon class="cls-15" points="124.77 15.45 124.77 17.65 125.64 17.13 153.94 33.73 153.94 100.79 154.62 101.16 155.95 98.09 158.26 82.71 156.74 33.33 155.09 29.95 132.87 15.5 124.77 15.45"/><path class="cls-16" d="M165.27,95l-10.65,6.15V32.65l10.65-6.15Z"/><path class="cls-17" d="M161,43.52a2.27,2.27,0,0,1-1.09,1.72c-.6.35-1.09.14-1.09-.46a2.27,2.27,0,0,1,1.09-1.72C160.53,42.71,161,42.92,161,43.52Z"/><path class="cls-17" d="M161,52.17a2.27,2.27,0,0,1-1.09,1.72c-.6.35-1.09.14-1.09-.46a2.27,2.27,0,0,1,1.09-1.72C160.53,51.36,161,51.57,161,52.17Z"/><path class="cls-17" d="M161,60.83a2.27,2.27,0,0,1-1.09,1.72c-.6.35-1.09.14-1.09-.46a2.27,2.27,0,0,1,1.09-1.72C160.53,60,161,60.22,161,60.83Z"/><path class="cls-17" d="M161,69.48a2.27,2.27,0,0,1-1.09,1.72c-.6.35-1.09.14-1.09-.46A2.27,2.27,0,0,1,159.93,69C160.53,68.67,161,68.87,161,69.48Z"/><path class="cls-17" d="M161,78.13a2.27,2.27,0,0,1-1.09,1.72c-.6.35-1.09.14-1.09-.46a2.27,2.27,0,0,1,1.09-1.72C160.53,77.32,161,77.53,161,78.13Z"/><path class="cls-16" d="M108.57,127.74l-10.65,6.15V65.39l10.65-6.15Z"/><path class="cls-17" d="M104.31,76.26A2.27,2.27,0,0,1,103.22,78c-.6.35-1.09.14-1.09-.46a2.27,2.27,0,0,1,1.09-1.72C103.82,75.45,104.31,75.66,104.31,76.26Z"/><path class="cls-17" d="M104.31,84.91a2.27,2.27,0,0,1-1.09,1.72c-.6.35-1.09.14-1.09-.46a2.27,2.27,0,0,1,1.09-1.72C103.82,84.1,104.31,84.31,104.31,84.91Z"/><path class="cls-17" d="M104.31,93.57a2.27,2.27,0,0,1-1.09,1.72c-.6.35-1.09.14-1.09-.46a2.27,2.27,0,0,1,1.09-1.72C103.82,92.76,104.31,93,104.31,93.57Z"/><path class="cls-17" d="M104.31,102.22a2.27,2.27,0,0,1-1.09,1.72c-.6.35-1.09.14-1.09-.46a2.27,2.27,0,0,1,1.09-1.72C103.82,101.41,104.31,101.61,104.31,102.22Z"/><path class="cls-17" d="M104.31,110.87a2.27,2.27,0,0,1-1.09,1.72c-.6.35-1.09.14-1.09-.46a2.27,2.27,0,0,1,1.09-1.72C103.82,110.06,104.31,110.27,104.31,110.87Z"/><path class="cls-18" d="M108.57,59.25,97.92,65.39,68.06,48.17,78.71,42Z"/><path class="cls-18" d="M165.27,26.52l-10.65,6.15L124.77,15.44l10.65-6.15Z"/><path class="cls-19" d="M165.06,33.36l-10.23,5.91a3.33,3.33,0,0,0-1.6,2.53v7.77c0,.88.72,1.19,1.6.68l10.23-5.91a3.33,3.33,0,0,0,1.6-2.53V34C166.66,33.15,165.94,32.85,165.06,33.36Zm.12,9.3a.26.26,0,0,1-.12.19l-10.23,5.91c-.07,0-.12,0-.12-.05V40.94a.26.26,0,0,1,.12-.19l10.23-5.91c.07,0,.12,0,.12.05Z"/><path class="cls-20" d="M154.16,45.37V41.25a1.39,1.39,0,0,1,.67-1.06l10.23-5.91c.37-.21.67-.09.67.28v4.11l.39-.22V34.35c0-.58-.47-.78-1.06-.45l-10.23,5.91a2.19,2.19,0,0,0-1.06,1.67v4.11Z"/><path class="cls-21" d="M159.95,44.71h0c-.48.28-.86.11-.86-.36V38.76a1.79,1.79,0,0,1,.86-1.36h0c.48-.28.86-.11.86.36v5.58A1.79,1.79,0,0,1,159.95,44.71Z"/><path class="cls-22" d="M160.81,40.82V37.77c0-.48-.39-.64-.86-.36a1.79,1.79,0,0,0-.86,1.36v3.06Z"/><path class="cls-19" d="M108.35,66.1,98.12,72a3.33,3.33,0,0,0-1.6,2.53V82.3c0,.88.72,1.19,1.6.68l10.23-5.91a3.33,3.33,0,0,0,1.6-2.53V66.77C110,65.89,109.24,65.59,108.35,66.1Zm.12,9.3a.26.26,0,0,1-.12.19L98.12,81.49c-.07,0-.12,0-.12-.05V73.68a.26.26,0,0,1,.12-.19l10.23-5.91c.07,0,.12,0,.12.05Z"/><path class="cls-20" d="M97.45,78.11V74a1.39,1.39,0,0,1,.67-1.06L108.35,67c.37-.21.67-.09.67.28v4.11l.39-.22V67.09c0-.58-.47-.78-1.06-.45L98.12,72.55a2.19,2.19,0,0,0-1.06,1.67v4.11Z"/><path class="cls-21" d="M103.24,77.45h0c-.48.28-.86.11-.86-.36V71.5a1.79,1.79,0,0,1,.86-1.36h0c.48-.28.86-.11.86.36v5.58A1.79,1.79,0,0,1,103.24,77.45Z"/><path class="cls-22" d="M104.11,73.56V70.51c0-.48-.39-.64-.86-.36a1.79,1.79,0,0,0-.86,1.36v3.06Z"/><polygon class="cls-23" points="139.44 28.7 101 50.95 93.94 46.88 132.39 24.62 139.44 28.7"/><polygon class="cls-24" points="103.56 37.63 100.92 50.67 94.35 46.93 99.93 35.53 103.56 37.63"/><polygon class="cls-24" points="137.32 29.68 131.18 26.07 127.59 19.56 132.79 23.57 137.32 29.68"/><polygon class="cls-25" points="131.23 21.66 103.56 37.63 99.93 35.53 127.59 19.56 131.23 21.66"/><polygon class="cls-26" points="131.23 21.66 103.56 37.63 100.92 50.67 103.29 49.33 105.4 38.95 130.98 24.19 137.32 29.68 139.21 28.59 131.23 21.66"/></g></g></g></svg>