<svg xmlns="http://www.w3.org/2000/svg" viewBox="0 0 250.76 173.28" widht="64" height="64px"><defs><style>.cls-1{isolation:isolate;}.cls-2{mix-blend-mode:multiply;}.cls-3{fill-opacity: 0.4; fill:#e6e7e8;}.cls-4{fill:#f99b1c;}.cls-5{fill:#da9b28;}.cls-6{fill:#0079bd;}.cls-7{fill:#f9b418;}.cls-10,.cls-8{fill:#e9f2f2;}.cls-9{fill:#db2a26;}.cls-10{mix-blend-mode:overlay;}</style></defs><title>icn_lifebuoy_pad</title><g class="cls-1"><g id="Слой_2" data-name="Слой 2"><g id="Layer_1" data-name="Layer 1"><g class="cls-2"><path class="cls-3" d="M209.44,53c-55.09-31.81-111.94-31.81-167,0h0C14.86,68.89,1.09,85,1.09,101.21s13.77,32.31,41.32,48.22c55.09,31.81,111.94,31.81,167,0,27.55-15.9,41.32-32.06,41.32-48.22S237,68.89,209.44,53Z"/></g><path class="cls-4" d="M192.23,44.21c-50.83-29.35-103.28-29.35-154.11,0h0C12.71,58.88,0,73.79,0,88.7s12.71,29.81,38.12,44.49c50.83,29.35,103.28,29.35,154.11,0,25.41-14.67,38.12-29.58,38.12-44.49S217.64,58.88,192.23,44.21Z"/><path class="cls-5" d="M192.23,111c-50.83,29.34-103.28,29.34-154.11,0C12.71,96.31,0,81.4,0,66.5V88.7c0,14.91,12.71,29.81,38.12,44.49,50.83,29.35,103.28,29.35,154.11,0,25.41-14.67,38.12-29.58,38.12-44.49V66.5C230.35,81.4,217.64,96.31,192.23,111Z"/><path class="cls-6" d="M192.23,22C141.4-7.34,88.95-7.34,38.12,22h0C12.71,36.68,0,51.59,0,66.5S12.71,96.31,38.12,111c50.83,29.35,103.28,29.35,154.11,0,25.41-14.67,38.12-29.58,38.12-44.49S217.64,36.68,192.23,22Z"/><path class="cls-7" d="M192.23,22C141.4-7.34,88.95-7.34,38.12,22h0C12.71,36.68,0,51.59,0,66.5S12.71,96.31,38.12,111c50.83,29.35,103.28,29.35,154.11,0,25.41-14.67,38.12-29.58,38.12-44.49S217.64,36.68,192.23,22Z"/><path class="cls-5" d="M70.12,46.9c-28.73,16.58-28.73,43.47,0,60.06s75.3,16.59,104,0,28.73-43.47,0-60.06S98.84,30.32,70.12,46.9Zm75.07,43.34c-12.73,7.35-33.38,7.35-46.11,0S86.34,71,99.07,63.62s33.38-7.35,46.11,0S157.92,82.89,145.19,90.24Z"/><path class="cls-8" d="M185.47,55.33c0-23.05-32.37-41.74-72.29-41.74S40.88,32.28,40.88,55.33v7.46c0,23.05,32.37,41.74,72.29,41.74s72.29-18.69,72.29-41.74Zm-72.29,21.6c-18.45,0-33.75-7.72-36.82-17.87,3.07-10.15,18.36-17.87,36.82-17.87S146.93,48.92,150,59.06C146.93,69.21,131.63,76.93,113.17,76.93Z"/><path class="cls-9" d="M54.56,30.92h0q1.7-1.36,3.57-2.63h0a68.46,68.46,0,0,1,8.17-4.71h0q2.2-1.08,4.55-2.06h0A92.86,92.86,0,0,1,80.83,18c12.58-3,24.65,1.33,26.27,23.49C93.23,42.8,82,48.52,77.68,56.08c.53-20.74-17.92-26.94-29.16-19.42A46,46,0,0,1,54.56,30.92Zm21.82,28.2c-2.71-2.48-8.32-3.42-13.7-1.54-9.24,3.22-17.15,12.22-14.5,23.5C54.6,88.68,64.92,95,77.62,99.13l1.71.55,1.08.32C76,83.42,89.76,73.25,99.77,75.49,87.72,72.81,78.68,66.64,76.38,59.11ZM170.67,59c-5.75-3.13-13.82-4-20.39-.88-.07.33-.19.63-.29.94v0c0,.08-.06.16-.08.23-.08.23-.16.45-.26.67C146.9,67.22,137.88,73.11,126,75.62c11.11-1,20.21,10.2,15.83,25.5,16.62-4.15,30-11.8,37.37-21.33C180.56,72.62,178.12,63,170.67,59Zm-22.16-3.19c-.51-18.92,20.85-25.38,29.32-19.13a45.94,45.94,0,0,0-6-5.74h0q-1.7-1.36-3.57-2.63h0A68.44,68.44,0,0,0,160,23.56h0q-2.2-1.08-4.55-2.06h0A92.92,92.92,0,0,0,145.52,18C137,15,120,22.48,122.34,41.87,134.61,43.66,144.44,48.94,148.51,55.79ZM122.81,76.2h0Z"/><path class="cls-10" d="M113.17,15.09c-35,0-63.46,15.59-63.46,34.83s28.41,34.83,63.46,34.83,63.46-15.59,63.46-34.83S148.22,15.09,113.17,15.09ZM112.72,79C88.59,79,69,67.31,69,52.91s19.56-26.06,43.69-26.06S156.4,38.52,156.4,52.91,136.84,79,112.72,79Z"/></g></g></g></svg>