<svg xmlns="http://www.w3.org/2000/svg" viewBox="0 0 251.75 217.65" widht="64" height="64px"><defs><style>.cls-1{isolation:isolate;}.cls-2,.cls-7{mix-blend-mode:multiply;}.cls-3{fill-opacity: 0.4; fill:#e6e7e8;}.cls-4{fill:#f99b1c;}.cls-5{fill:#da9b28;}.cls-6{fill:#f9b418;}.cls-7{fill:#e2e2e2;}.cls-8{fill:#d74f27;}.cls-9{fill:#c93f27;}.cls-10{fill:#efe1ad;}.cls-11{fill:#fef0be;}.cls-12{fill:#e0d29d;}.cls-13{fill:#e8ad22;}.cls-14{fill:#fedf25;}.cls-15{fill:#ffc417;}</style></defs><title>icn_present_pad</title><g class="cls-1"><g id="Слой_2" data-name="Слой 2"><g id="Layer_1" data-name="Layer 1"><g class="cls-2"><path class="cls-3" d="M210.27,96.88C155,64.95,97.88,64.95,42.58,96.88h0c-27.65,16-41.48,32.19-41.48,48.41s13.83,32.44,41.48,48.41c55.31,31.93,112.39,31.93,167.7,0,27.65-16,41.48-32.19,41.48-48.41S237.92,112.85,210.27,96.88Z"/></g><path class="cls-4" d="M193,88.07c-51-29.46-103.69-29.46-154.72,0h0C12.76,102.8,0,117.76,0,132.73s12.76,29.93,38.27,44.66c51,29.46,103.69,29.46,154.72,0,25.51-14.73,38.27-29.7,38.27-44.66S218.5,102.8,193,88.07Z"/><path class="cls-5" d="M193,155.11c-51,29.46-103.69,29.46-154.72,0C12.76,140.38,0,125.41,0,110.44v22.29c0,15,12.76,29.93,38.27,44.66,51,29.46,103.69,29.46,154.72,0,25.51-14.73,38.27-29.7,38.27-44.66V110.44C231.26,125.41,218.5,140.38,193,155.11Z"/><path class="cls-6" d="M193,65.78c-51-29.46-103.69-29.46-154.72,0h0C12.76,80.51,0,95.48,0,110.44s12.76,29.93,38.27,44.66c51,29.46,103.69,29.46,154.72,0,25.51-14.73,38.27-29.7,38.27-44.66S218.5,80.51,193,65.78Z"/><path class="cls-5" d="M163.33,97.23c25.79,14.69,25.51,39-.62,54.29s-68.23,15.77-94,1.07-25.52-39,.62-54.29S137.53,82.54,163.33,97.23Z"/><path class="cls-7" d="M171.37,147.76c-1.43.06-2.86.08-4.29.07-1.18,0-2.35,0-3.52-.07Z"/><path class="cls-7" d="M120,147.76h0Z"/><path class="cls-8" d="M180.87,59.68v50.77A25,25,0,0,1,175,126.1a40.57,40.57,0,0,1-7.83,7.41,54.58,54.58,0,0,1-5.21,3.4l-.7.4a69.57,69.57,0,0,1-7.83,3.75c-1.91.78-3.89,1.49-5.91,2.13q-3.81,1.22-7.82,2.11c-1.95.44-3.92.82-5.92,1.15-1.25.2-2.5.38-3.76.54s-2.69.32-4.06.43q-2.95.26-5.92.35-2.15.09-4.3.07c-1.17,0-2.35,0-3.52-.07q-3-.09-5.91-.35c-2.63-.23-5.25-.56-7.83-1-2-.33-4-.71-5.91-1.15-2.67-.6-5.28-1.3-7.83-2.11-2-.64-4-1.35-5.91-2.13A69.49,69.49,0,0,1,71,137.3l-.71-.4a54.58,54.58,0,0,1-5.21-3.4,46.39,46.39,0,0,1-3.7-3,37.66,37.66,0,0,1-4.12-4.38,25,25,0,0,1-5.92-15.64V59.68A25,25,0,0,1,57.26,44a37.54,37.54,0,0,1,4.12-4.38,45.94,45.94,0,0,1,3.7-3,54.72,54.72,0,0,1,5.21-3.4l.71-.4a69.61,69.61,0,0,1,7.82-3.75c1.91-.78,3.89-1.49,5.91-2.13,2.54-.81,5.15-1.52,7.83-2.11,1.94-.44,3.92-.82,5.91-1.15,2.58-.41,5.19-.74,7.83-1q2.95-.26,5.91-.35c1.17,0,2.35-.07,3.52-.07,1.44,0,2.87,0,4.3.07q3,.09,5.92.35c1.36.12,2.71.27,4.06.43s2.51.34,3.76.54c2,.33,4,.71,5.92,1.15q4,.89,7.82,2.11c2,.64,4,1.35,5.91,2.13a69.69,69.69,0,0,1,7.83,3.75l.7.4a54.72,54.72,0,0,1,5.21,3.4A40.53,40.53,0,0,1,175,44,25,25,0,0,1,180.87,59.68Z"/><path class="cls-9" d="M180.87,59.68v50.77A25,25,0,0,1,175,126.1a40.57,40.57,0,0,1-7.83,7.41,54.58,54.58,0,0,1-5.21,3.4l-.7.4a69.57,69.57,0,0,1-7.83,3.75c-1.91.78-3.89,1.49-5.91,2.13q-3.81,1.22-7.82,2.11c-1.95.44-3.92.82-5.92,1.15-1.25.2-2.5.38-3.76.54V23.16c1.26.16,2.51.34,3.76.54,2,.33,4,.71,5.92,1.15q4,.89,7.82,2.11c2,.64,4,1.35,5.91,2.13a69.69,69.69,0,0,1,7.83,3.75l.7.4a54.72,54.72,0,0,1,5.21,3.4A40.53,40.53,0,0,1,175,44,25,25,0,0,1,180.87,59.68Z"/><path class="cls-10" d="M185.92,40.31V59.68c0,8.86-5,17.73-15.09,25a58.79,58.79,0,0,1-5.22,3.39l-.36.2q-2.79,1.6-5.8,3a87.07,87.07,0,0,1-12,4.42c-26.16,7.61-58.9,5.1-80.75-7.52-7.05-4.08-12.28-8.8-15.68-13.85a26.33,26.33,0,0,1-4.73-13.4c0-.42,0-.84,0-1.26V40.31c0,.44,0,.89,0,1.33a24.82,24.82,0,0,0,2,8.36,29.64,29.64,0,0,0,2.73,5c3.4,5,8.63,9.78,15.68,13.85,21.86,12.6,54.58,15.11,80.75,7.5a86.43,86.43,0,0,0,12-4.42q3.12-1.41,6-3.09a62.27,62.27,0,0,0,5.35-3.46c6.36-4.63,10.72-9.88,13.05-15.35A24.55,24.55,0,0,0,185.92,40.31Z"/><path class="cls-11" d="M185.92,40.31a24.58,24.58,0,0,1-2,9.68c-2.34,5.48-6.69,10.73-13.06,15.35a61,61,0,0,1-5.35,3.47q-2.89,1.68-6,3.1C132,84.47,92.08,83.43,66.74,68.81,57.41,63.43,51.27,56.9,48.32,50a24.59,24.59,0,0,1-2-9.69c0-8.86,5-17.72,15.09-25a57.13,57.13,0,0,1,5.21-3.39l.28-.16q2.82-1.63,5.88-3c27.4-12.57,67.38-11.54,92.72,3.1C179.11,19.68,185.92,30,185.92,40.31Z"/><path class="cls-12" d="M185.92,40.31V59.68c0,8.86-5,17.73-15.09,25a58.79,58.79,0,0,1-5.22,3.39l-.36.2q-2.79,1.6-5.8,3a87.07,87.07,0,0,1-12,4.42V76.32a86.43,86.43,0,0,0,12-4.42q3.12-1.41,6-3.09a62.27,62.27,0,0,0,5.35-3.46c6.36-4.63,10.72-9.88,13.05-15.35A24.55,24.55,0,0,0,185.92,40.31Z"/><path class="cls-13" d="M170.83,65.34V84.71a59,59,0,0,1-5.21,3.39l-.36.2c-1.86,1.07-3.79,2.06-5.8,3h0V71.9q3.13-1.42,6-3.1A61,61,0,0,0,170.83,65.34Z"/><path class="cls-14" d="M170.83,65.34a61,61,0,0,1-5.35,3.47q-2.89,1.68-6,3.1L128.66,54.12h0l-16.46-9.5-1.3-.75-6.58-3.8h0l-3.77-2.18-1.36-.79,14.19,8.17a57.13,57.13,0,0,1,5.21-3.39l.28-.16q2.82-1.63,5.88-3l-14.19-8.17,1.35.79,3.89,2.25h0l6.47,3.74,1.27.73L142.4,48.92Z"/><path class="cls-15" d="M61.38,65.34V84.71A58.89,58.89,0,0,0,66.6,88.1l.36.2c1.86,1.07,3.79,2.06,5.8,3h0V71.9q-3.13-1.42-6-3.1A61,61,0,0,1,61.38,65.34Z"/><path class="cls-14" d="M61.38,65.34a61,61,0,0,0,5.35,3.47q2.9,1.68,6,3.1l30.79-17.78h0L120,44.62l1.3-.75,6.58-3.8h0l3.77-2.18,1.35-.79-10.19,5.17a57.21,57.21,0,0,0-5.21-3.39l-.28-.16q-2.82-1.63-5.88-3l10.19-5.17-1.36.79-3.89,2.25h0l-6.47,3.74-1.27.73L89.81,48.92Z"/><path class="cls-15" d="M103.27,79.92l-.84,18s-.06.46-.22,1.22a22,22,0,0,1-3,7.4A13.35,13.35,0,0,1,95.94,110a8.38,8.38,0,0,1-8.25.84h0c-.32-.13-.64-.27-.94-.41l-.05,0a9.82,9.82,0,0,1-3.77-3l-4-2a7.76,7.76,0,0,0,2.13-.76,14.09,14.09,0,0,0,4.47-3.79,21.14,21.14,0,0,0,2.58-4.19,20.31,20.31,0,0,0,1.16-3L91,77.93A112.77,112.77,0,0,0,103.27,79.92Z"/><path class="cls-14" d="M118.52,41.61,103.27,79.92a112.77,112.77,0,0,1-12.25-2l22.45-37.68Z"/><path class="cls-15" d="M86.69,110.41l-12.5-5.53h0l-.71-.31,0,0a11,11,0,0,1-4.86-4.47l10.37,5.28,4,2A9.82,9.82,0,0,0,86.69,110.41Z"/><path class="cls-14" d="M99.18,106.59A13.35,13.35,0,0,1,95.94,110a8.38,8.38,0,0,1-8.25.84h0c-.32-.13-.64-.27-.94-.41l-.05,0a9.82,9.82,0,0,1-3.77-3l-4-2a7.76,7.76,0,0,0,2.13-.76,14.09,14.09,0,0,0,4.47-3.79Z"/><path class="cls-13" d="M139.36,78.31h0c2.76-.56,5.48-1.23,8.13-2q2.86-.83,5.61-1.83h0l.25,19.29.11,8-14.09,3.42Z"/><path class="cls-14" d="M153.09,74.48q-2.74,1-5.61,1.83c-2.65.77-5.36,1.44-8.13,2L113.94,43.86l4.58-3.9Z"/><path class="cls-15" d="M139.36,105.25a8,8,0,0,0,3.18,5.21L156.63,107a8,8,0,0,1-3.18-5.2Z"/><path class="cls-13" d="M116.17,40.25a79.17,79.17,0,0,0,30.13-.2c16.12-3.57,24.93-13.79,23.85-18.7a6.39,6.39,0,0,0-.45-1.31l-.5-.94v0a14.79,14.79,0,0,0-7.07-5.41C160,19.17,154.39,26.23,145,31.46,136.16,36.36,125.54,39.21,116.17,40.25Z"/><path class="cls-15" d="M169.18,19.09a14.81,14.81,0,0,0-7-5.4h0a15.84,15.84,0,0,0-4.79-1.1,12.14,12.14,0,0,0-3.47.23l-.35.08a33.79,33.79,0,0,0-8.07,3.31c-.52.28-1,.58-1.56.88q-1.05.62-2.12,1.3c-9.4,6-19.35,15.24-25.58,21.87,4.54-9,12.51-22.48,20.69-30.92.61-.63,1.22-1.24,1.84-1.8.46-.43.91-.84,1.37-1.23a26.7,26.7,0,0,1,4.37-3.12A12.22,12.22,0,0,1,147.6,2a15.36,15.36,0,0,1,3.79-.39,17.19,17.19,0,0,1,4.59.68c2.87.82,5.29,2.35,6.46,4.32l.19.35V7Z"/><path class="cls-13" d="M116.16,40.25A79.17,79.17,0,0,1,86,39.44c-16-3.9-24.65-14.3-23.46-19.18a6.32,6.32,0,0,1,.48-1.3l.52-.92,0,0a14.79,14.79,0,0,1,7.18-5.27c2,5.53,7.46,12.7,16.76,18.12C96.25,36,106.81,39,116.16,40.25Z"/><path class="cls-15" d="M116.16,40.25c-6.37-7-16.7-17-26.32-23.16a37.68,37.68,0,0,0-10.79-5l-.53-.12a12.62,12.62,0,0,0-3.37-.17,16.21,16.21,0,0,0-4.38,1l-.58.22a14.53,14.53,0,0,0-6.6,5L70.4,6V6l.19-.34a10.56,10.56,0,0,1,6-4A17.29,17.29,0,0,1,81.32.88a15.88,15.88,0,0,1,3.31.28,12.65,12.65,0,0,1,4,1.46,31.77,31.77,0,0,1,6.42,5.23C103.44,16.36,111.63,30.74,116.16,40.25Z"/><path class="cls-13" d="M116.17,40.25A78.1,78.1,0,0,1,91.09,55.32C75.9,60.59,63.4,56.77,61.79,52.25A6,6,0,0,1,61.5,51l-.06-1v0a14,14,0,0,1,3.11-8c4.53,3.39,12.78,6.25,23.25,5.73A78.7,78.7,0,0,0,116.17,40.25Z"/><path class="cls-15" d="M116.16,40.25c-9.62-2.48-24.82-5.29-36.3-4.67a43.22,43.22,0,0,0-4.32.43,28,28,0,0,0-3,.6c-.57.15-1.11.31-1.63.49A14.2,14.2,0,0,0,64.55,42a16.88,16.88,0,0,0-1.25,1.88,12.77,12.77,0,0,0-1.85,6.07L60.7,36.81v0l0-.38a8.58,8.58,0,0,1,1.51-4.63,16.45,16.45,0,0,1,9.33-6.86,11.67,11.67,0,0,1,2.34-.36l.65,0a27,27,0,0,1,4.38.3C90.57,26.5,106.67,34.55,116.16,40.25Z"/><path class="cls-13" d="M116.16,40.25a78.06,78.06,0,0,0,23.44,17.51c14.58,6.75,27.41,4.21,29.45-.13a5.9,5.9,0,0,0,.42-1.25l.16-1v0a14,14,0,0,0-2.29-8.22c-4.85,2.91-13.35,4.94-23.7,3.37A78.68,78.68,0,0,1,116.16,40.25Z"/><path class="cls-15" d="M169.64,55.36a14,14,0,0,0-2.29-8.22,16.54,16.54,0,0,0-2.14-2.78,12.73,12.73,0,0,0-3.74-2.72,31.71,31.71,0,0,0-8-2.29c-11.42-1.93-27.26-.64-37.29.9,10.12-4.77,27.17-11.24,39-11.61a25.66,25.66,0,0,1,4.69.23,14.36,14.36,0,0,1,7.25,3.65c3.05,2.74,5,6.49,4.68,9.46l-.06.37v0Z"/></g></g></g></svg>