<svg xmlns="http://www.w3.org/2000/svg" viewBox="0 0 251.75 173.97" widht="64" height="64px"><defs><style>.cls-1{isolation:isolate;}.cls-2{mix-blend-mode:multiply;}.cls-33{fill-opacity: 0.4; fill:#e6e7e8;}.cls-3{fill:#e6e7e8;}.cls-4{fill:#f99b1c;}.cls-5{fill:#da9b28;}.cls-6{fill:#f9b418;}.cls-7{fill:#ef372f;}.cls-8{fill:#ef453f;}.cls-9{fill:#d1d3d4;}</style></defs><title>icn_hat_pad</title><g class="cls-1"><g id="Слой_2" data-name="Слой 2"><g id="Layer_1" data-name="Layer 1"><g class="cls-2"><path class="cls-3" d="M210.27,53.2C155,21.27,97.88,21.27,42.58,53.2h0c-27.65,16-41.48,32.19-41.48,48.41S14.92,134,42.58,150c55.31,31.93,112.39,31.93,167.7,0,27.65-16,41.48-32.19,41.48-48.41S237.92,69.16,210.27,53.2Z"/></g><path class="cls-4" d="M193,44.38c-51-29.46-103.69-29.46-154.72,0h0C12.76,59.11,0,74.08,0,89S12.76,119,38.27,133.71c51,29.46,103.69,29.46,154.72,0C218.5,119,231.26,104,231.26,89S218.5,59.11,193,44.38Z"/><path class="cls-5" d="M193,111.42c-51,29.46-103.69,29.46-154.72,0C12.76,96.69,0,81.73,0,66.76V89C0,104,12.76,119,38.27,133.71c51,29.46,103.69,29.46,154.72,0C218.5,119,231.26,104,231.26,89V66.76C231.26,81.73,218.5,96.69,193,111.42Z"/><path class="cls-6" d="M193,22.1C142-7.37,89.3-7.37,38.27,22.1h0C12.76,36.83,0,51.79,0,66.76s12.76,29.93,38.27,44.66c51,29.46,103.69,29.46,154.72,0,25.51-14.73,38.27-29.7,38.27-44.66S218.5,36.83,193,22.1Z"/><path class="cls-5" d="M56.85,35.82c-33.3,17.26-33.3,45.24,0,62.5s87.28,17.26,120.58,0,33.3-45.24,0-62.5S90.14,18.57,56.85,35.82Z"/><path class="cls-3" d="M56.7,22.58c-34,12.87-42.2,49,0,62.6,34.62,11.13,84.21,23.89,115.7,5.7s39.2-51.88,0-65C137.93,14.25,88.2,10.66,56.7,22.58Z"/><path class="cls-7" d="M41.42,47.62c6.1-1.74,5.23-4.58,16-9.37S81.1,41.61,81.1,41.61v8.62s-12.87-8.16-23.66-3.36-9.92,7.63-16,9.37S24.19,53.63,18.53,61V52.42C24.19,45,35.31,49.37,41.42,47.62Z"/><path class="cls-8" d="M42.68,56.76c12.91-4.28,7.79-9.67,15.44-13.65C67.9,38,79.4,44.62,79.4,44.62V55s-11.5-6.6-21.28-1.51c-7.64,4-2.53,9.36-15.44,13.65-6.91,2.29-29-3.38-31.95,13.73V70.48C13.64,53.37,35.77,59,42.68,56.76Z"/><path class="cls-9" d="M77.58,52.47l5.2-31.32c0-4.57,3-9.14,9.06-12.63h43.76c6,3.49,9.06,8.06,9.06,12.63l5.24,32.29c0,5.35-3.53,10.69-10.6,14.77-14.13,8.16-37,8.16-51.17,0C80.66,63.88,77.13,58.13,77.58,52.47Z"/><path class="cls-3" d="M91.85,8.52c-12.08,7-12.08,18.29,0,25.27,6,3.46,13.82,2.87,21.67,2.9s16,.62,22.09-2.9c12.09-7,12.09-18.29,0-25.27C129.72,5.11,122,5.07,114.32,5,106.2,4.9,98,4.94,91.85,8.52Z"/><path class="cls-8" d="M78.75,45.48c1.58,3.45,4.71,6.72,9.4,9.43,14.13,8.16,37,8.16,51.17,0,4.63-2.67,7.73-5.89,9.33-9.3l1.27,7.83c0,5.35-3.53,10.69-10.6,14.77-14.13,8.16-37,8.16-51.17,0-7.49-4.32-11-10.07-10.56-15.74Z"/></g></g></g></svg>