<?xml version="1.0" encoding="utf-8"?>

<svg version="1.1" id="Layer_1" xmlns="http://www.w3.org/2000/svg" xmlns:xlink="http://www.w3.org/1999/xlink" x="0px" y="0px"
	 widht="64" height="64px" viewBox="0 0 129.488 133.877" enable-background="new 0 0 129.488 133.877"
	 xml:space="preserve">
<path fill="#e6e7e8" fill-opacity="0.4" d="M108.152,71.76c-28.448-16.424-57.806-16.424-86.254,0C7.675,79.972,0.563,88.315,0.563,96.659
	s7.112,16.687,21.335,24.9c28.448,16.424,57.806,16.424,86.255,0c14.224-8.213,21.335-16.557,21.335-24.9
	C129.488,88.316,122.376,79.973,108.152,71.76"/>
<polyline fill="none" points="129.488,133.877 129.488,59.441 0.563,59.441 0.563,133.877 129.488,133.877 "/>
<polyline fill="none" points="129.488,133.877 129.488,59.441 0.563,59.441 0.563,133.877 129.488,133.877 "/>
<path fill="#FF8A00" d="M99.264,67.226c-26.247-15.153-53.334-15.153-79.58,0C6.561,74.802-0.001,82.501,0,90.199
	c0,7.697,6.561,15.395,19.685,22.972c26.246,15.154,53.333,15.154,79.579,0c13.123-7.576,19.685-15.273,19.685-22.972
	S112.387,74.803,99.264,67.226"/>
<path fill="#203994" d="M99.264,101.708c-26.246,15.153-53.333,15.153-79.579-0.001C6.561,94.132,0,86.434,0,78.735v11.463
	c0,7.698,6.561,15.396,19.685,22.973c26.246,15.154,53.333,15.154,79.579,0c13.123-7.575,19.685-15.273,19.685-22.973V78.735
	C118.949,86.434,112.387,94.132,99.264,101.708"/>
<path fill="#1D5CA5" d="M99.264,55.763c-26.247-15.153-53.334-15.153-79.58,0C6.561,63.339-0.001,71.037,0,78.735
	c0,7.697,6.561,15.396,19.685,22.973c26.246,15.153,53.333,15.153,79.579,0c13.123-7.577,19.685-15.275,19.685-22.972
	C118.949,71.038,112.387,63.339,99.264,55.763"/>
<path fill="#203994" d="M41.574,95.811c0,0,19.289,19.165,36.161,8.832c16.871-10.334-7.737-22.64-7.737-22.64l-23.88,0.41
	L41.574,95.811z"/>
<path fill="#F0F672" d="M43.225,20.004c-1.284-0.287-3.048,0.265-3.939,1.233c-0.891,0.969-0.572,1.986,0.712,2.274
	c1.285,0.287,3.048-0.265,3.939-1.234C44.828,21.31,44.509,20.291,43.225,20.004"/>
<path fill="#884F14" d="M60.01,73.86c-0.205-1.277-0.626-3.568-0.887-4.952c-0.051-0.275-0.427-0.679-0.481-0.956
	c-0.297-1.541-0.676-3.388-1.031-5.055c-0.039-0.183-0.384-0.829-0.422-1.007c-0.224-1.044-0.608-2.763-0.846-3.819
	c-0.087-0.546-0.484-0.935-0.526-1.117c-0.336-1.483-0.834-3.43-1.182-4.898c-0.059-0.249-0.326-0.295-0.44-0.809
	c-0.301-1.26-0.602-2.504-0.902-3.732c-0.058-0.238-0.277-0.502-0.335-0.739c-0.39-1.585-0.775-3.138-1.156-4.649
	c-0.044-0.175-0.344-0.494-0.388-0.667c-0.278-1.099-0.712-2.802-0.979-3.847c-0.055-0.218-0.357-0.459-0.412-0.674
	c-0.178-0.694-0.351-1.371-0.519-2.028c-0.071-0.28-0.451-0.642-0.52-0.914c-0.438-1.715-0.884-3.295-1.333-4.744
	c-0.068-0.221-0.572-0.73-0.64-0.945c-1.091-3.421-1.756-5.78-2.775-7.73l-5.353,2.185c0.736,1.489,1.526,2.604,2.181,3.973
	c0.125,0.263,0.163,0.782,0.284,1.045c0.482,1.037,0.933,2.084,1.346,3.188c0.085,0.227-0.018,0.792,0.066,1.02
	c0.38,1.024,0.754,2.056,1.135,3.098c0.084,0.231,0.077,0.86,0.159,1.095c0.245,0.695,0.478,1.397,0.698,2.107
	c0.065,0.21-0.006,0.646,0.058,0.856c0.376,1.253,0.72,2.52,1.029,3.803c0.065,0.271-0.052,0.764,0.01,1.034
	c0.257,1.115,0.492,2.238,0.704,3.369c0.042,0.222-0.017,0.86,0.023,1.083c0.244,1.348,0.458,2.696,0.645,4.044
	c0.133,0.516-0.21,0.858-0.145,1.236c0.206,1.534,0.343,2.77,0.488,4.271c0.015,0.148-0.1,0.995-0.086,1.142
	c0.118,1.263,0.322,2.715,0.401,3.92c0.016,0.24-0.216,0.703-0.201,0.938c0.107,1.774,0.178,3.471,0.219,5.065
	c0.007,0.25-0.26,0.699-0.255,0.944c0.043,2.018,0.043,3.857,0.017,5.47c-0.007,0.423-0.348,0.572-0.513,1.713
	c-0.081,3.486-0.238,5.841-0.238,5.841c0,1.068,0.705,2.135,2.116,2.95c2.822,1.629,7.398,1.629,10.22,0
	c1.411-0.815,2.116-1.882,2.116-2.95c0-2.112-0.121-3.814-0.595-6.926C60.62,74.928,60.059,74.162,60.01,73.86"/>
<path fill="#633606" d="M47.601,75.746c1.391,1.046,2.993,2.155,6.576,1.889c3.584-0.267,5.91-3.566,5.91-3.566
	s-3.584,2.194-5.979,2.575C51.714,77.024,47.601,75.746,47.601,75.746"/>
<path fill="#633606" d="M47.879,69.186c0,0,2.363,1.606,5.593,1.234c3.231-0.371,5.17-2.468,5.17-2.468
	C54.063,70.571,47.879,69.186,47.879,69.186"/>
<path fill="#633606" d="M47.859,63.22c0,0,1.667,1.744,4.812,1.112c3.145-0.631,4.517-2.441,4.517-2.441S51.997,64.253,47.859,63.22
	"/>
<path fill="#633606" d="M47.564,57.983c0,0,1.696,1.334,4.498,0.743c2.802-0.59,3.755-1.772,3.755-1.772
	S50.213,59.203,47.564,57.983"/>
<path fill="#633606" d="M47.25,52.736c2.594,1.233,5.994,0.044,7.083-1.132C51.515,53.23,47.25,52.736,47.25,52.736"/>
<path fill="#633606" d="M46.564,47.445c0,0,1.333,1.019,3.391,0.646c2.059-0.372,3.002-1.315,3.002-1.315
	S47.833,47.972,46.564,47.445"/>
<path fill="#633606" d="M45.852,43.041c0,0,1.345,0.619,2.946,0.362c1.601-0.259,2.678-1.812,2.678-1.812
	C50.052,43.127,45.852,43.041,45.852,43.041"/>
<path fill="#633606" d="M44.779,38.473c0,0,1.703,0.57,2.918,0.241c1.215-0.329,2.325-1.775,2.325-1.775
	C47.888,38.608,44.779,38.473,44.779,38.473"/>
<path fill="#633606" d="M43.942,35.309c2.406,1.127,4.984-0.869,5.085-1.198c0,0-1.087,0.415-2.317,0.887
	C45.481,35.469,43.942,35.309,43.942,35.309"/>
<path fill="#633606" d="M42.717,31.065c0,0,0.648,0.672,2.321,0c1.672-0.672,2.005-2.689,2.005-2.689
	C45.389,31.262,42.717,31.065,42.717,31.065"/>
<path fill="#633606" d="M41.137,26.945c0,0,1.099,0.589,2.486-0.197c1.386-0.785,1.987-2.818,1.987-2.818
	S43.454,27.028,41.137,26.945"/>
<path fill="#58B124" d="M42.006,15.761l-6.088,7.183c10.411,0.407,13.45,22.119,13.45,22.119s7.011-9.966,3.488-21.698
	C49.333,11.633,42.006,15.761,42.006,15.761"/>
<path fill="#1E672C" d="M61.913,7.201c-11.17-5.419-20.046,8.635-20.046,8.635l0.909,4.956c13.715-14.048,27.772-1.234,27.772-1.234
	S70.426,11.929,61.913,7.201"/>
<path fill="#1E672C" d="M25.715,17.815c-7.326,7.705-3.202,22.028-3.202,22.028s6.862-22.06,19.316-19.256l0.668-7.081
	C42.498,13.507,33.042,10.11,25.715,17.815"/>
<path fill="#58B124" d="M40.129,8.032c-5.293,12.694,0.36,14.333,0.36,14.333l1.899-3.857C46.947,9.751,51.551,5.645,61.094,1.49
	C61.094,1.49,45.422-4.661,40.129,8.032"/>
<path fill="#58B124" d="M42.194,16.775c0,0-13.343,3.009-14.9,15.888c-0.973,11.214,2.612,15.101,2.612,15.101
	s1.166-18.673,14.565-27.972C51.582,10.245,42.194,16.775,42.194,16.775"/>
<path fill="#58B124" d="M46.193,12.092c-10.227,2.496-4.895,10.273-4.895,10.273l6.058-0.047c7.177-1.012,12.232,0.106,21.778,8.776
	C69.134,31.095,61.746,9.829,46.193,12.092"/>
<path fill="#58B124" d="M25.21,8.849c-7.818,2.133-10.817,9.665-10.817,9.665s15.868-6.752,27.218,3.561l4.031-3.927
	C45.643,18.147,33.028,6.716,25.21,8.849"/>
<path fill="#F0F672" d="M38.347,59.104c-0.715-0.16-1.696,0.146-2.192,0.686s-0.318,1.106,0.396,1.266
	c0.715,0.16,1.696-0.147,2.192-0.687C39.239,59.831,39.062,59.264,38.347,59.104"/>
<path fill="#884F14" d="M47.688,89.074c-0.114-0.711-0.349-1.986-0.493-2.756c-0.029-0.153-0.238-0.377-0.268-0.532
	c-0.165-0.857-0.376-1.885-0.574-2.812c-0.022-0.103-0.213-0.462-0.235-0.562c-0.125-0.581-0.338-1.538-0.471-2.126
	c-0.048-0.303-0.269-0.519-0.292-0.621c-0.187-0.826-0.464-1.909-0.658-2.726c-0.033-0.139-0.182-0.164-0.245-0.45
	c-0.167-0.701-0.335-1.394-0.502-2.077c-0.032-0.132-0.154-0.279-0.186-0.411c-0.217-0.882-0.432-1.746-0.644-2.588
	c-0.024-0.097-0.191-0.274-0.215-0.371c-0.155-0.61-0.396-1.559-0.545-2.141c-0.031-0.121-0.199-0.255-0.23-0.374
	c-0.099-0.387-0.195-0.763-0.288-1.13c-0.04-0.155-0.251-0.356-0.29-0.508c-0.243-0.954-0.492-1.834-0.741-2.641
	c-0.039-0.123-0.319-0.405-0.357-0.525c-0.607-1.903-0.977-3.217-1.544-4.303l-2.979,1.217c0.41,0.828,0.85,1.448,1.214,2.211
	c0.07,0.146,0.091,0.435,0.158,0.581c0.268,0.576,0.519,1.159,0.749,1.773c0.047,0.126-0.01,0.441,0.037,0.568
	c0.211,0.569,0.42,1.143,0.631,1.723c0.047,0.129,0.043,0.479,0.089,0.609c0.136,0.387,0.266,0.777,0.389,1.173
	c0.036,0.117-0.004,0.36,0.031,0.477c0.21,0.697,0.401,1.401,0.573,2.116c0.036,0.15-0.029,0.425,0.006,0.575
	c0.143,0.621,0.273,1.246,0.392,1.875c0.023,0.124-0.01,0.479,0.012,0.603c0.136,0.749,0.255,1.5,0.359,2.25
	c0.074,0.287-0.117,0.479-0.08,0.688c0.114,0.854,0.19,1.541,0.271,2.378c0.008,0.081-0.056,0.553-0.048,0.634
	c0.066,0.703,0.18,1.511,0.223,2.183c0.009,0.133-0.12,0.391-0.112,0.521c0.06,0.987,0.1,1.931,0.123,2.819
	c0.003,0.139-0.145,0.389-0.142,0.524c0.023,1.123,0.024,2.147,0.009,3.044c-0.004,0.235-0.193,0.318-0.286,0.953
	c-0.045,1.94-0.132,3.25-0.132,3.25c0,0.596,0.392,1.189,1.178,1.643c1.57,0.906,4.116,0.906,5.687,0
	c0.785-0.453,1.178-1.047,1.178-1.643c0-1.175-0.068-2.123-0.332-3.854C48.026,89.668,47.714,89.241,47.688,89.074"/>
<path fill="#633606" d="M40.782,90.123c0.774,0.582,1.665,1.2,3.66,1.051c1.994-0.147,3.288-1.983,3.288-1.983
	s-1.994,1.22-3.327,1.433C43.071,90.835,40.782,90.123,40.782,90.123"/>
<path fill="#633606" d="M40.937,86.473c0,0,1.315,0.895,3.112,0.688c1.798-0.207,2.877-1.374,2.877-1.374
	C44.378,87.244,40.937,86.473,40.937,86.473"/>
<path fill="#633606" d="M40.926,83.152c0,0,0.928,0.97,2.678,0.619s2.514-1.358,2.514-1.358S43.228,83.728,40.926,83.152"/>
<path fill="#633606" d="M40.762,80.239c0,0,0.944,0.741,2.503,0.413s2.09-0.986,2.09-0.986S42.236,80.918,40.762,80.239"/>
<path fill="#633606" d="M40.586,77.319c1.444,0.686,3.335,0.023,3.942-0.63C42.959,77.594,40.586,77.319,40.586,77.319"/>
<path fill="#633606" d="M40.205,74.375c0,0,0.742,0.565,1.887,0.358c1.146-0.206,1.671-0.73,1.671-0.73S40.911,74.668,40.205,74.375
	"/>
<path fill="#633606" d="M39.809,71.924c0,0,0.748,0.344,1.639,0.201c0.891-0.144,1.491-1.007,1.491-1.007
	C42.146,71.972,39.809,71.924,39.809,71.924"/>
<path fill="#633606" d="M39.212,69.382c0,0,0.947,0.316,1.624,0.134c0.676-0.183,1.294-0.988,1.294-0.988
	C40.942,69.458,39.212,69.382,39.212,69.382"/>
<path fill="#633606" d="M38.746,67.621c1.339,0.627,2.774-0.484,2.83-0.667c0,0-0.605,0.23-1.289,0.494
	C39.602,67.71,38.746,67.621,38.746,67.621"/>
<path fill="#633606" d="M38.064,65.26c0,0,0.361,0.374,1.291,0c0.931-0.374,1.116-1.497,1.116-1.497
	C39.552,65.369,38.064,65.26,38.064,65.26"/>
<path fill="#633606" d="M37.185,62.967c0,0,0.612,0.328,1.383-0.109c0.772-0.438,1.106-1.568,1.106-1.568
	S38.475,63.013,37.185,62.967"/>
<path fill="#58B124" d="M37.669,56.743l-3.388,3.997c5.794,0.226,7.485,12.308,7.485,12.308s3.901-5.546,1.941-12.073
	C41.746,54.446,37.669,56.743,37.669,56.743"/>
<path fill="#1E672C" d="M48.746,51.979c-6.216-3.015-11.155,4.806-11.155,4.806l0.506,2.758c7.632-7.817,15.454-0.688,15.454-0.688
	S53.484,54.61,48.746,51.979"/>
<path fill="#1E672C" d="M28.604,57.886c-4.077,4.288-1.782,12.26-1.782,12.26s3.819-12.276,10.749-10.717l0.372-3.94
	C37.942,55.488,32.681,53.599,28.604,57.886"/>
<path fill="#58B124" d="M36.624,52.442c-2.945,7.064,0.2,7.977,0.2,7.977l1.057-2.147c2.537-4.873,5.099-7.158,10.41-9.47
	C48.291,48.802,39.569,45.379,36.624,52.442"/>
<path fill="#58B124" d="M37.773,57.308c0,0-7.425,1.674-8.292,8.841c-0.541,6.24,1.454,8.403,1.454,8.403s0.649-10.392,8.105-15.565
	C42.997,53.674,37.773,57.308,37.773,57.308"/>
<path fill="#58B124" d="M39.999,54.701c-5.691,1.389-2.724,5.717-2.724,5.717l3.371-0.025c3.994-0.563,6.807,0.059,12.119,4.883
	C52.765,65.275,48.653,53.442,39.999,54.701"/>
<path fill="#58B124" d="M28.322,52.896c-4.35,1.188-6.019,5.378-6.019,5.378s8.83-3.757,15.146,1.982l2.243-2.186
	C39.692,58.071,32.672,51.71,28.322,52.896"/>
<path fill="#F0F672" d="M72.896,45.088c0.851-0.19,2.018,0.175,2.609,0.816c0.59,0.642,0.378,1.316-0.472,1.506
	c-0.851,0.19-2.019-0.176-2.609-0.816C71.833,45.952,72.044,45.277,72.896,45.088"/>
<path fill="#884F14" d="M61.78,80.755c0.136-0.846,0.415-2.363,0.587-3.279c0.034-0.183,0.283-0.449,0.319-0.635
	c0.197-1.02,0.448-2.242,0.683-3.346c0.026-0.121,0.254-0.549,0.279-0.667c0.149-0.691,0.403-1.83,0.561-2.53
	c0.057-0.36,0.32-0.618,0.348-0.74c0.222-0.981,0.552-2.271,0.783-3.243c0.039-0.165,0.216-0.195,0.291-0.536
	c0.199-0.833,0.399-1.658,0.597-2.472c0.039-0.156,0.184-0.333,0.222-0.488c0.258-1.05,0.514-2.079,0.766-3.08
	c0.029-0.116,0.228-0.327,0.257-0.442c0.184-0.727,0.471-1.855,0.648-2.548c0.037-0.143,0.237-0.303,0.273-0.445
	c0.118-0.46,0.232-0.907,0.343-1.344c0.048-0.185,0.299-0.424,0.345-0.604c0.29-1.137,0.586-2.183,0.883-3.143
	c0.045-0.146,0.378-0.483,0.424-0.626c0.722-2.265,1.163-3.828,1.838-5.12l3.545,1.447c-0.488,0.986-1.011,1.725-1.445,2.632
	c-0.083,0.173-0.108,0.519-0.188,0.691c-0.319,0.687-0.617,1.381-0.891,2.11c-0.057,0.151,0.012,0.525-0.044,0.677
	c-0.252,0.678-0.5,1.359-0.751,2.051c-0.056,0.153-0.052,0.57-0.106,0.725c-0.162,0.46-0.317,0.925-0.462,1.396
	c-0.043,0.139,0.004,0.429-0.038,0.567c-0.25,0.83-0.477,1.668-0.682,2.52c-0.043,0.178,0.034,0.505-0.007,0.684
	c-0.17,0.739-0.325,1.482-0.466,2.232c-0.028,0.146,0.012,0.569-0.015,0.716c-0.161,0.893-0.304,1.786-0.427,2.679
	c-0.088,0.341,0.139,0.568,0.096,0.818c-0.137,1.016-0.227,1.835-0.324,2.83c-0.009,0.097,0.067,0.659,0.058,0.756
	c-0.078,0.836-0.214,1.797-0.266,2.595c-0.011,0.159,0.143,0.466,0.133,0.622c-0.071,1.175-0.118,2.298-0.145,3.355
	c-0.004,0.165,0.172,0.462,0.169,0.624c-0.028,1.337-0.029,2.555-0.011,3.623c0.004,0.279,0.23,0.379,0.34,1.135
	c0.053,2.309,0.157,3.868,0.157,3.868c0,0.707-0.467,1.414-1.401,1.954c-1.869,1.078-4.9,1.078-6.769,0
	c-0.934-0.54-1.401-1.247-1.401-1.954c0-1.399,0.08-2.527,0.394-4.587C61.376,81.462,61.748,80.954,61.78,80.755"/>
<path fill="#633606" d="M69.998,82.003c-0.921,0.693-1.982,1.429-4.355,1.252c-2.373-0.178-3.914-2.361-3.914-2.361
	s2.374,1.452,3.959,1.705C67.273,82.851,69.998,82.003,69.998,82.003"/>
<path fill="#633606" d="M69.813,77.659c0,0-1.565,1.063-3.704,0.818c-2.14-0.247-3.424-1.637-3.424-1.637
	C65.719,78.577,69.813,77.659,69.813,77.659"/>
<path fill="#633606" d="M69.826,73.708c0,0-1.104,1.154-3.187,0.736s-2.991-1.616-2.991-1.616S67.086,74.392,69.826,73.708"/>
<path fill="#633606" d="M70.022,70.24c0,0-1.123,0.884-2.979,0.491c-1.856-0.391-2.487-1.174-2.487-1.174
	S68.267,71.048,70.022,70.24"/>
<path fill="#633606" d="M70.23,66.766c-1.718,0.816-3.969,0.028-4.691-0.75C67.405,67.093,70.23,66.766,70.23,66.766"/>
<path fill="#633606" d="M70.684,63.261c0,0-0.883,0.675-2.246,0.429c-1.363-0.246-1.988-0.871-1.988-0.871
	S69.844,63.609,70.684,63.261"/>
<path fill="#633606" d="M71.156,60.345c0,0-0.891,0.409-1.951,0.238c-1.06-0.17-1.774-1.199-1.774-1.199
	C68.375,60.401,71.156,60.345,71.156,60.345"/>
<path fill="#633606" d="M71.866,57.319c0,0-1.128,0.377-1.932,0.159c-0.805-0.218-1.541-1.176-1.541-1.176
	C69.808,57.409,71.866,57.319,71.866,57.319"/>
<path fill="#633606" d="M72.421,55.224c-1.594,0.746-3.301-0.576-3.368-0.794c0,0,0.72,0.274,1.535,0.588
	C71.402,55.329,72.421,55.224,72.421,55.224"/>
<path fill="#633606" d="M73.232,52.413c0,0-0.429,0.445-1.537,0c-1.107-0.444-1.328-1.78-1.328-1.78
	C71.463,52.544,73.232,52.413,73.232,52.413"/>
<path fill="#633606" d="M74.279,49.685c0,0-0.728,0.391-1.646-0.13c-0.919-0.521-1.316-1.867-1.316-1.867
	S72.744,49.74,74.279,49.685"/>
<path fill="#1E672C" d="M60.52,36.609c7.397-3.59,13.276,5.718,13.276,5.718l-0.602,3.283c-9.083-9.304-18.393-0.818-18.393-0.818
	S54.881,39.739,60.52,36.609"/>
<path fill="#1E672C" d="M84.492,43.638c4.852,5.104,2.121,14.59,2.121,14.59S82.067,43.618,73.82,45.476l-0.442-4.69
	C73.377,40.785,79.64,38.535,84.492,43.638"/>
<path fill="#58B124" d="M74.946,37.159c3.505,8.407-0.238,9.492-0.238,9.492l-1.258-2.555c-3.019-5.799-6.068-8.52-12.388-11.271
	C61.062,32.826,71.441,28.753,74.946,37.159"/>
<path fill="#58B124" d="M73.579,42.949c0,0,8.836,1.993,9.868,10.522c0.644,7.426-1.73,10.001-1.73,10.001
	s-0.772-12.367-9.646-18.525C67.362,38.626,73.579,42.949,73.579,42.949"/>
<path fill="#58B124" d="M70.93,39.848c6.773,1.653,3.242,6.804,3.242,6.804L70.16,46.62c-4.754-0.67-8.101,0.071-14.423,5.813
	C55.737,52.433,60.63,38.35,70.93,39.848"/>
<path fill="#58B124" d="M84.826,37.7c5.177,1.413,7.163,6.4,7.163,6.4s-10.508-4.472-18.025,2.358l-2.669-2.601
	C71.295,43.858,79.648,36.287,84.826,37.7"/>
<g opacity="0.55">
	<g>
		<defs>
			<rect id="SVGID_1_" x="55.737" y="42.253" width="17.965" height="10.18"/>
		</defs>
		<clipPath id="SVGID_2_">
			<use xlink:href="#SVGID_1_"  overflow="visible"/>
		</clipPath>
		<path clip-path="url(#SVGID_2_)" fill="#1E672C" d="M73.193,45.61c0,0-9.197,0.13-17.456,6.821c0,0,4.374-10.761,17.965-10.153
			L73.193,45.61z"/>
	</g>
</g>
<path fill="#58B124" d="M73.703,42.278l4.032,4.756c-6.895,0.27-8.907,14.648-8.907,14.648s-4.643-6.6-2.31-14.37
	C68.851,39.544,73.703,42.278,73.703,42.278"/>
<g opacity="0.55">
	<g>
		<defs>
			<rect id="SVGID_3_" x="67.229" y="43.465" width="8.542" height="18.218"/>
		</defs>
		<clipPath id="SVGID_4_">
			<use xlink:href="#SVGID_3_"  overflow="visible"/>
		</clipPath>
		<path clip-path="url(#SVGID_4_)" fill="#1E672C" d="M75.771,43.465c0,0-12.973,4.717-6.944,18.218c0,0-0.369-8.171,6.205-14.272
			L75.771,43.465z"/>
	</g>
</g>
<g opacity="0.55">
	<g>
		<defs>
			<rect id="SVGID_5_" x="39.27" y="15.329" width="14.077" height="29.733"/>
		</defs>
		<clipPath id="SVGID_6_">
			<use xlink:href="#SVGID_5_"  overflow="visible"/>
		</clipPath>
		<path clip-path="url(#SVGID_6_)" fill="#1E672C" d="M39.269,19.928c0,0,15.11,14.139,10.098,25.135
			c0,0,11.889-24.088-5.436-29.734L39.269,19.928z"/>
	</g>
</g>
<g opacity="0.55">
	<g>
		<defs>
			<rect id="SVGID_7_" x="37.024" y="57.546" width="7.84" height="16.561"/>
		</defs>
		<clipPath id="SVGID_8_">
			<use xlink:href="#SVGID_7_"  overflow="visible"/>
		</clipPath>
		<path clip-path="url(#SVGID_8_)" fill="#1E672C" d="M37.024,60.107c0,0,8.416,7.875,5.625,13.999c0,0,6.621-13.416-3.028-16.561
			L37.024,60.107z"/>
	</g>
</g>
</svg>
