<svg xmlns="http://www.w3.org/2000/svg" viewBox="0 0 136.89 222.3" widht="64" height="64px"><defs><style>.cls-1{isolation:isolate;}.cls-2{mix-blend-mode:multiply;}.cls-3{fill-opacity: 0.4; fill:#e6e7e8;}.cls-4{fill:#de5f25;}.cls-5{fill:#d74527;}.cls-6{fill:#fff;}</style></defs><title>icn_food</title><g class="cls-1"><g id="Слой_2" data-name="Слой 2"><g id="Layer_1" data-name="Layer 1"><g class="cls-2"><path class="cls-3" d="M88.59,192.27c-13.75-7.94-27.94-7.94-41.7,0h0c-6.88,4-10.31,8-10.31,12s3.44,8.07,10.31,12c13.75,7.94,27.94,7.94,41.7,0,6.88-4,10.31-8,10.31-12S95.46,196.24,88.59,192.27Z"/></g><path class="cls-4" d="M68.45,0A68.43,68.43,0,0,0,17,113.61L44,148.34l53.17-142A68.16,68.16,0,0,0,68.45,0Z"/><path class="cls-5" d="M68.42,179.59l53-67.77A68.44,68.44,0,0,0,97.15,6.31L44,148.34l24.34,31.37Z"/><path class="cls-6" d="M65,63.82h0c-1.47-14.92-2.95-36.6-3.8-36.6S61,48.9,61,63.82H58.51c-1-14.92-1.76-36.6-2.61-36.6S55,48.9,54.47,63.82H52c-.51-14.92-.59-36.6-1.44-36.6s-1.63,21.68-2.62,36.6H45.46c0-14.92.6-36.6-.26-36.6S42.86,49.1,41.38,64h0c.07,7.78,3.5,14.54,9.56,16.16q-.88,24.56-1.76,49.11a66.05,66.05,0,0,0,8.1,1.88q-.92-25.49-1.83-51C61.53,78.57,65,71.81,65,64h0a1.32,1.32,0,0,0,0-.16S65,63.83,65,63.82Z"/><path class="cls-6" d="M81.39,24.16C77.24,27.93,72,34.73,72.3,54.7c.39,10.61-.17,31,1.48,45.09,1,8.88,3,5.64,4.67,10.48q-.38,10.62-.76,21.24a67.12,67.12,0,0,0,8.13-1.61q-.35-9.68-.69-19.35A231.68,231.68,0,0,0,88.8,73.3C89.06,38.39,88.26,17.93,81.39,24.16Z"/></g></g></g></svg>