<svg xmlns="http://www.w3.org/2000/svg" viewBox="0 0 250.76 245.32" widht="64" height="64px"><defs><style>.cls-1{isolation:isolate;}.cls-2{mix-blend-mode:multiply;}.cls-3{fill:#e6e7e8; fill-opacity: 0.4;}.cls-4{fill:#f99b1c;}.cls-5{fill:#da9b28;}.cls-6{fill:#f9b418;}.cls-7{fill:#fff;}.cls-8{fill:#5a301f;}.cls-9{fill:#7b4431;}.cls-10{fill:#cfcfce;}.cls-11{fill:#eaeaea;}.cls-12{fill:#ffc656;}.cls-13{fill:#e54d33;}.cls-14{fill:#e99c90;}.cls-15{fill:#f5d8a0;}.cls-16{fill:#ef4823;}.cls-17{fill:#ffe0a9;}.cls-18{fill:#ece5d1;}.cls-19{fill:#598f3f;}.cls-20{fill:#fcb017;}.cls-21{fill:#ffe527;}</style></defs><title>icn_cocount_cocktail_pad</title><g class="cls-1"><g id="Слой_2" data-name="Слой 2"><g id="Layer_1" data-name="Layer 1"><g class="cls-2"><path class="cls-3" d="M209.44,125c-55.09-31.81-111.94-31.81-167,0h0c-27.55,15.9-41.32,32.06-41.32,48.22s13.77,32.31,41.32,48.22c55.09,31.81,111.94,31.81,167,0,27.55-15.9,41.32-32.06,41.32-48.22S237,140.93,209.44,125Z"/></g><path class="cls-4" d="M192.23,116.24C141.4,86.9,88.95,86.9,38.12,116.24h0C12.71,130.91,0,145.82,0,160.73s12.71,29.81,38.12,44.49c50.83,29.35,103.28,29.35,154.11,0,25.41-14.67,38.12-29.58,38.12-44.49S217.64,130.92,192.23,116.24Z"/><path class="cls-5" d="M192.23,183c-50.83,29.34-103.28,29.34-154.11,0C12.71,168.35,0,153.44,0,138.53v22.2c0,14.91,12.71,29.81,38.12,44.49,50.83,29.35,103.28,29.35,154.11,0,25.41-14.67,38.12-29.58,38.12-44.49v-22.2C230.35,153.44,217.64,168.35,192.23,183Z"/><path class="cls-6" d="M192.23,94C141.4,64.7,88.95,64.7,38.12,94h0C12.71,108.72,0,123.62,0,138.53S12.71,168.35,38.12,183c50.83,29.35,103.28,29.35,154.11,0,25.41-14.67,38.12-29.58,38.12-44.49S217.64,108.72,192.23,94Z"/><path class="cls-5" d="M170.35,120.3c27.06,15.62,27.06,41,0,56.58s-70.93,15.62-98,0-27.06-41,0-56.58S143.29,104.67,170.35,120.3Z"/><g class="cls-1"><path class="cls-7" d="M177.38,79.41a66.56,66.56,0,0,1,1.52,10.27c.09,1.29.15,3.16.14,4.46,0,1.54-.06,3.6-.22,5.13a72.77,72.77,0,0,1-1.62,10c-.59,2.23-1.51,5.17-2.28,7.35-.49,1.39-1.31,3.17-1.9,4.51a62.49,62.49,0,0,1-5,8.79,58,58,0,0,1-5.29,6.76,64.79,64.79,0,0,1-8.32,7.77,69.31,69.31,0,0,1-8.11,5.39c-8.1,4.55-19.23,3.7-31.49-3.62,12.25,7.32,23.38,8.17,31.49,3.62a62.23,62.23,0,0,1-7.48,3.59,65.27,65.27,0,0,1-9.8,3.05,67.14,67.14,0,0,1-9,1.36,62.86,62.86,0,0,1-11.42-.12,67.58,67.58,0,0,1-8.94-1.53,64.28,64.28,0,0,1-17.57-7.23c-2.18-1.3-4.94-3.28-7-4.81A61.63,61.63,0,0,1,67.5,137a71.61,71.61,0,0,1-5.56-7,70.44,70.44,0,0,1-4.78-8.3A73.53,73.53,0,0,1,54.1,114a64,64,0,0,1-3.17-17.62,64.68,64.68,0,0,1,1.7-17.37c1.83-7.78,8-15.27,18.49-21.16,24.93-14,64.77-13.58,89,.9C169.91,64.66,175.65,71.92,177.38,79.41Z"/><path class="cls-8" d="M188.3,86.39a75,75,0,0,0-1.48-8.49c3,12.76-4.14,26.14-21.3,35.77-28.71,16.11-74.6,15.65-102.51-1-16.23-9.7-22.8-22.75-19.81-35.14a75.18,75.18,0,0,0-1.92,12.77c-.19,2.94-.14,5.51-.11,6.48,0,1.77.26,4.12.39,5.89a74.45,74.45,0,0,0,5,19.81c1.08,2.58,2.73,5.92,4,8.39.77,1.46,2,3.29,2.87,4.69a73.79,73.79,0,0,0,6.25,8.12c1,1.19,2.47,2.72,3.62,3.8,1.68,1.59,4,3.63,5.79,5.1a78,78,0,0,0,8,5.55,74.55,74.55,0,0,0,16.7,7.37,73.68,73.68,0,0,0,20.42,3.09,79.44,79.44,0,0,0,10-.57,72.36,72.36,0,0,0,10.51-2.11,70.61,70.61,0,0,0,8.49-2.93c2.43-1,5.56-2.62,7.89-3.84a75,75,0,0,0,9.34-6.2,64,64,0,0,0,6-5.22A72.69,72.69,0,0,0,179,131.53a74.49,74.49,0,0,0,6.85-16.09,83.88,83.88,0,0,0,2-8.75,108.21,108.21,0,0,0,1-11.73A71.44,71.44,0,0,0,188.3,86.39Z"/><path class="cls-9" d="M165.52,113.67l-6.66-1.62c24.93-14,25.49-37.07,1.26-51.55s-64.08-14.89-89-.9-25.49,37.07-1.26,51.55,64.08,14.89,89,.9l6.66,1.62c-28.71,16.11-74.6,15.65-102.51-1S35.76,69.38,64.47,53.27s74.6-15.65,102.51,1S194.22,97.57,165.52,113.67Z"/><path class="cls-10" d="M151.79,63.48C132,51.67,99.54,51.34,79.22,62.75s-20.78,30.22-1,42,52.25,12.14,72.57.73S171.55,75.29,151.79,63.48Z"/><path class="cls-11" d="M79.22,85.85A35.49,35.49,0,0,0,67.7,95.59a34.93,34.93,0,0,0,10.49,9.2c19.76,11.81,52.25,12.14,72.57.73a35.56,35.56,0,0,0,11.53-9.74,34.88,34.88,0,0,0-10.49-9.2C132,74.77,99.55,74.44,79.22,85.85Z"/></g><polygon class="cls-12" points="126.4 113.14 126.41 113.14 161.47 4.87 157.03 3.44 121.34 113.64 126.4 113.14"/><path class="cls-13" d="M117.33,0V113.82q-2.33.07-4.67,0V0Z"/><path class="cls-11" d="M151.79,86.58a60.1,60.1,0,0,0-14.69-6.1l-5.25,16.28c-1.07.54-4-.49-4.54-1.57l5.13-15.85a85,85,0,0,0-15.12-1.77V95.19c-.82.83-3.84.83-4.67,0V77.56c-12.11.29-24.07,3-33.44,8.29A35.49,35.49,0,0,0,67.7,95.59a34.93,34.93,0,0,0,10.49,9.2c19.76,11.81,52.25,12.14,72.57.73a35.56,35.56,0,0,0,11.53-9.74A34.88,34.88,0,0,0,151.79,86.58Z"/><path class="cls-12" d="M131.69,96.82l-5.28,16.32h-.07l-.24,0-4.26.41a3.33,3.33,0,0,1-.39,0,.2.2,0,0,1-.09,0l6-18.44C127.86,96.23,130.5,97.19,131.69,96.82Z"/><path class="cls-13" d="M117.34,95.18v18.64c-1.56,0-3.1,0-4.66,0V95.18C113.49,96,116.5,96,117.34,95.18Z"/><path class="cls-14" d="M117.34,95.18v18.64c-1.56,0-3.1,0-4.66,0V95.18C113.49,96,116.5,96,117.34,95.18Z"/><path class="cls-15" d="M131.69,96.82l-5.28,16.32h-.07l-.24,0c-1.41.19-2.83.34-4.26.41a3.33,3.33,0,0,1-.39,0,.2.2,0,0,1-.09,0l6-18.44C127.86,96.23,130.5,97.19,131.69,96.82Z"/><g class="cls-1"><path class="cls-16" d="M178.27,61.51l24.9,18.21c0-.23,0-.47,0-.71a22.2,22.2,0,0,1,3.55-11.11,47.91,47.91,0,0,1-12.08-9.09Z"/><path class="cls-16" d="M157.75,41.3a24.33,24.33,0,0,1-8.71,8.3l29.23,11.91-5.15-14.72-.44-.08-.44-.09A50.45,50.45,0,0,1,157.75,41.3Z"/><path class="cls-17" d="M136.28,53.68a27.72,27.72,0,0,1,2.41,11.61l39.57-3.79L149,49.61A33.17,33.17,0,0,1,136.28,53.68Z"/><path class="cls-17" d="M186.94,47.19a43.56,43.56,0,0,1-13.83-.4l5.15,14.72L192.82,95.4a33.17,33.17,0,0,1,12.76-4.08,27.46,27.46,0,0,1-2.41-11.6l-24.9-18.21,16.39-2.7A37.68,37.68,0,0,1,186.94,47.19Z"/><path class="cls-16" d="M138.69,65.3c0,.17,0,.35,0,.52s0,.12,0,.18a22,22,0,0,1-3.56,11.12,47.74,47.74,0,0,1,12.1,9.09l31.05-24.69Z"/><path class="cls-16" d="M178.26,61.51l-9.5,36.7.88.17.71.15.26.05.48.11.1,0,.86.21.47.12.1,0,.37.1.1,0,.37.1.28.08.18.05.38.11a50.92,50.92,0,0,1,9.76,4.13,24.94,24.94,0,0,1,8.06-7.86l.7-.42Z"/></g><path class="cls-18" d="M173.73,99.39l.18.05Z"/><path class="cls-17" d="M178.26,61.51,147.21,86.21a37.39,37.39,0,0,1,7.7,11.61,43.8,43.8,0,0,1,13.85.39Z"/><path class="cls-18" d="M184.11,103.71h0Z"/><path class="cls-18" d="M172.23,46.62l.44.09Z"/><ellipse class="cls-16" cx="178.55" cy="61.51" rx="1.78" ry="2.62" transform="translate(20.73 165.23) rotate(-52.32)"/><path class="cls-19" d="M50.16,94c-5,2.05-19.71,17.33-19.71,17.33s16.71,1.28,21.75-.78c6.14-2.5,11.42-6.12,14.44-9.6a16.77,16.77,0,0,0-.18,5.07c.61,5,9.45,19.92,9.45,19.92s1.29-19.06.68-24a12.74,12.74,0,0,0-1.36-4.44l-9.75-6C61.93,90.67,56.3,91.48,50.16,94Z"/><path class="cls-20" d="M87.61,89a31.1,31.1,0,0,0-5.26-1.88,26.92,26.92,0,0,1-6.41,5.47,19.74,19.74,0,0,1-1.86,7.91A28.7,28.7,0,0,0,78.5,103c8.06,3.74,18.58-.05,19.13-.26C97.54,102.27,95.67,92.72,87.61,89Z"/><path class="cls-20" d="M88,64.93c-.56.16-11.29,3.18-16.46,11.15a33.85,33.85,0,0,0-2.76,5.12,17.81,17.81,0,0,1,5.16,5.21,22.49,22.49,0,0,1,8.42.7,38.13,38.13,0,0,0,3.37-4.44C90.89,74.69,88.13,65.42,88,64.93Z"/><path class="cls-21" d="M71.49,85.78a2,2,0,0,0-2.43.78,1.43,1.43,0,0,0,.53,2.15A2,2,0,0,0,72,87.93,1.43,1.43,0,0,0,71.49,85.78Z"/><path class="cls-21" d="M76.43,88.07a2,2,0,0,0-2.43.78A1.43,1.43,0,0,0,74.53,91,2,2,0,0,0,77,90.22,1.43,1.43,0,0,0,76.43,88.07Z"/><g class="cls-1"><path class="cls-20" d="M64.33,78.65c-8.06-3.74-18.58.05-19.14.25.1.5,2,10,10,13.79a30.77,30.77,0,0,0,5.25,1.88A27.29,27.29,0,0,1,66.9,89.1a19.39,19.39,0,0,1,1.87-7.9A28,28,0,0,0,64.33,78.65Z"/><path class="cls-21" d="M68.32,90.66a2,2,0,0,0-2.44.78,1.43,1.43,0,0,0,.53,2.16,2,2,0,0,0,2.44-.78A1.43,1.43,0,0,0,68.32,90.66Z"/><path class="cls-21" d="M73.26,93a2,2,0,0,0-2.44.78,1.43,1.43,0,0,0,.53,2.16,2,2,0,0,0,2.43-.78A1.43,1.43,0,0,0,73.26,93Z"/><path class="cls-16" d="M73.93,86.41a22.49,22.49,0,0,1,8.42.7,26.92,26.92,0,0,1-6.41,5.47,19.74,19.74,0,0,1-1.86,7.91,17.91,17.91,0,0,1-5.17-5.22,22.48,22.48,0,0,1-8.43-.7A27.29,27.29,0,0,1,66.9,89.1a19.39,19.39,0,0,1,1.87-7.9A17.81,17.81,0,0,1,73.93,86.41ZM66.42,93.6a2,2,0,0,0,2.44-.78,1.43,1.43,0,0,0-.53-2.15,2,2,0,0,0-2.44.78,1.43,1.43,0,0,0,.53,2.16Zm3.17-4.89A2,2,0,0,0,72,87.93a1.43,1.43,0,0,0-.53-2.16,2,2,0,0,0-2.44.78,1.43,1.43,0,0,0,.53,2.15ZM74.53,91A2,2,0,0,0,77,90.22a1.43,1.43,0,0,0-.53-2.16,2,2,0,0,0-2.43.78A1.43,1.43,0,0,0,74.53,91Zm-3.17,4.89a2,2,0,0,0,2.43-.78A1.43,1.43,0,0,0,73.26,93a2,2,0,0,0-2.44.78,1.43,1.43,0,0,0,.53,2.16Z"/><path class="cls-20" d="M68.91,95.27a22.48,22.48,0,0,1-8.43-.7A38.3,38.3,0,0,0,57.12,99c-5.17,8-2.4,17.25-2.26,17.73.57-.16,11.3-3.17,16.47-11.14a35.38,35.38,0,0,0,2.76-5.12A17.91,17.91,0,0,1,68.91,95.27Z"/></g></g></g></g></svg>