<svg xmlns="http://www.w3.org/2000/svg" xmlns:xlink="http://www.w3.org/1999/xlink" viewBox="0 0 251.75 225.8" widht="64" height="64px"><defs><style>.cls-1{isolation:isolate;}.cls-2{mix-blend-mode:multiply;}.cls-3{fill:#e6e7e8; fill-opacity: 0.4;}.cls-4{fill:#f99b1c;}.cls-5{fill:#d74527;}.cls-6{fill:#de5f25;}.cls-7{fill:#fdf050;}.cls-8{fill:#e8ad22;}.cls-9{fill:#fedf25;}.cls-10{fill:#f9ed32;}.cls-11{fill:#ffc417;}.cls-12{fill:#fedc34;}.cls-13{fill:url(#radial-gradient);}.cls-14{fill:url(#radial-gradient-2);}.cls-15{fill:url(#radial-gradient-3);}.cls-16{fill:url(#radial-gradient-4);}.cls-17{fill:url(#radial-gradient-5);}.cls-18{fill:url(#radial-gradient-6);}</style><radialGradient id="radial-gradient" cx="66.8" cy="62.7" r="10.09" gradientTransform="translate(2.47 1.65)" gradientUnits="userSpaceOnUse"><stop offset="0" stop-color="#faed26"/><stop offset="0.22" stop-color="#fae625"/><stop offset="0.54" stop-color="#fad221"/><stop offset="0.93" stop-color="#fbb11a"/><stop offset="1" stop-color="#fbaa19"/></radialGradient><radialGradient id="radial-gradient-2" cx="127.84" cy="72.14" r="10.09" xlink:href="#radial-gradient"/><radialGradient id="radial-gradient-3" cx="172.76" cy="45.37" r="10.09" xlink:href="#radial-gradient"/><radialGradient id="radial-gradient-4" cx="156.16" cy="11.12" r="10.09" xlink:href="#radial-gradient"/><radialGradient id="radial-gradient-5" cx="95.13" cy="1.68" r="10.09" xlink:href="#radial-gradient"/><radialGradient id="radial-gradient-6" cx="50.46" cy="27.46" r="10.09" xlink:href="#radial-gradient"/></defs><title>icn_crown_pad</title><g class="cls-1"><g id="Слой_2" data-name="Слой 2"><g id="Layer_1" data-name="Layer 1"><g class="cls-2"><path class="cls-3" d="M210.27,105C155,73.1,97.88,73.1,42.58,105h0C14.92,121,1.09,137.22,1.09,153.44s13.83,32.44,41.48,48.41c55.31,31.93,112.39,31.93,167.7,0,27.65-16,41.48-32.19,41.48-48.41S237.92,121,210.27,105Z"/></g><path class="cls-4" d="M193,96.21c-51-29.46-103.69-29.46-154.72,0h0C12.76,110.94,0,125.91,0,140.88s12.76,29.93,38.27,44.66C89.3,215,142,215,193,185.54c25.51-14.73,38.27-29.7,38.27-44.66S218.5,110.95,193,96.21Z"/><path class="cls-5" d="M193,163.26c-51,29.46-103.69,29.46-154.72,0C12.76,148.52,0,133.56,0,118.59v22.29c0,15,12.76,29.93,38.27,44.66C89.3,215,142,215,193,185.54c25.51-14.73,38.27-29.7,38.27-44.66V118.59C231.26,133.56,218.5,148.52,193,163.26Z"/><path class="cls-6" d="M193,73.93c-51-29.46-103.69-29.46-154.72,0h0C12.76,88.66,0,103.62,0,118.59s12.76,29.93,38.27,44.66c51,29.46,103.69,29.46,154.72,0,25.51-14.73,38.27-29.7,38.27-44.66S218.5,88.66,193,73.93Z"/><path class="cls-5" d="M177.25,92.49c30.29,17.49,30.29,45.84,0,63.33s-79.39,17.49-109.68,0-30.29-45.84,0-63.33S147,75,177.25,92.49Z"/><polygon class="cls-7" points="73.28 65.72 70.59 65.72 100.24 4.69 100.24 6.53 73.28 65.72"/><polygon class="cls-8" points="134.59 56.74 132.94 59.25 100.24 6.53 100.24 4.69 134.59 56.74"/><polygon class="cls-8" points="174.93 64.04 173.59 67.55 161.27 15.97 161.63 14.47 174.93 64.04"/><path class="cls-9" d="M174.5,71.33,161.27,16,132.94,59.25,100.25,6.52,72.34,67.78l-.15.35.15.33.62-.35c.3-.16.61-.31.91-.47q-2,1-3.79,2.19c.38-.24.74-.49,1.13-.72l.44-1-.44-1L55.57,32.31V85c.13-.28.29-.56.43-.84a22.55,22.55,0,0,0-2.56,10.28v19.35c0-20.14,28.28-36.46,63.16-36.46s63.16,16.32,63.16,36.46V94.49C179.75,87.8,174.5,71.33,174.5,71.33Z"/><path class="cls-10" d="M179.75,49.1c-.13.57-18.13,69.7-18.48,71.17h0L132.94,77l-32.71,52.72h0L72.34,68.46l-.15-.33-.26-.58-.26.57-.44,1L55.58,103.9h0V32.31L53.44,94.45v0h0v6.91c0,20.14,28.28,36.46,63.16,36.46s63.16-16.32,63.16-36.46V49.1Z"/><path class="cls-8" d="M116.72,143.45c-38.29,0-69.33-17.92-69.33-40V116c0,22.11,31,40,69.33,40S186,138.16,186,116V103.42C186,125.53,155,143.45,116.72,143.45Z"/><path class="cls-11" d="M179.88,86.92V101.4c0,20.14-28.28,36.46-63.16,36.46S53.57,121.54,53.57,101.4V94.49h0v0c0-.46,0-.91,0-1.36l.22-6.52C49.71,91.7,47.4,97.4,47.4,103.42c0,22.11,31,40,69.33,40s69.32-17.92,69.32-40C186,97.54,183.83,92,179.88,86.92Z"/><polygon class="cls-12" points="59.02 96.25 55.57 103.89 55.57 32.31 57.35 31.13 59.02 96.25"/><polygon class="cls-8" points="100.94 123.92 100.24 129.71 71.91 67.55 73.28 65.72 100.94 123.92"/><polygon class="cls-9" points="100.94 123.92 100.24 129.71 132.94 76.99 132.33 75.53 100.94 123.92"/><polygon class="cls-9" points="179.75 49.1 177.87 48.23 157.83 115.01 161.27 120.27 179.75 49.1"/><circle class="cls-13" cx="71.91" cy="67.54" r="6.52"/><circle class="cls-14" cx="132.94" cy="76.99" r="6.52"/><circle class="cls-15" cx="177.87" cy="50.22" r="6.53"/><circle class="cls-16" cx="161.27" cy="15.97" r="6.52"/><circle class="cls-17" cx="100.24" cy="6.52" r="6.52"/><circle class="cls-18" cx="55.57" cy="32.31" r="6.53"/></g></g></g></svg>