<svg xmlns="http://www.w3.org/2000/svg" xmlns:xlink="http://www.w3.org/1999/xlink" viewBox="0 0 250.76 258.54" widht="64" height="64px"><defs><style>.cls-1{isolation:isolate;}.cls-14,.cls-15,.cls-2{mix-blend-mode:multiply;}.cls-3{fill:#e6e7e8; fill-opacity: 0.4;}.cls-4{fill:#f99b1c;}.cls-5{fill:#d74527;}.cls-6{fill:#de5f25;}.cls-10,.cls-7,.cls-8{fill:#f1f2f2;}.cls-26,.cls-8{stroke:#fff;}.cls-10,.cls-26,.cls-8{stroke-miterlimit:10;stroke-width:0.08px;}.cls-9{fill:#ceeae4;}.cls-10{stroke:#d2d3d4;}.cls-11{fill:#e6e7e7;}.cls-12{fill:#0079bd;}.cls-13{fill:#3f4da1;}.cls-14{fill:#d2d3d4;}.cls-15,.cls-16{fill:#bcbec0;}.cls-17{fill:#313a5c;}.cls-18{fill:url(#linear-gradient);}.cls-19{fill:url(#linear-gradient-2);}.cls-20{fill:url(#linear-gradient-3);}.cls-21{fill:url(#linear-gradient-4);}.cls-22{fill:url(#linear-gradient-5);}.cls-23{fill:url(#linear-gradient-6);}.cls-24{fill:url(#linear-gradient-7);}.cls-25{fill:url(#linear-gradient-8);}.cls-26{fill:#fff;}.cls-27{fill:url(#linear-gradient-9);}.cls-28{fill:url(#linear-gradient-10);}.cls-29{fill:url(#linear-gradient-11);}.cls-30{fill:url(#linear-gradient-12);}.cls-31{fill:url(#linear-gradient-13);}.cls-32{fill:url(#linear-gradient-14);}.cls-33{fill:url(#linear-gradient-15);}.cls-34{fill:url(#linear-gradient-16);}.cls-35{fill:url(#linear-gradient-17);}.cls-36{fill:url(#linear-gradient-18);}.cls-37{fill:url(#linear-gradient-19);}.cls-38{fill:url(#linear-gradient-20);}.cls-39{fill:url(#linear-gradient-21);}.cls-40{fill:url(#linear-gradient-22);}.cls-41{fill:url(#linear-gradient-23);}.cls-42{fill:url(#linear-gradient-24);}.cls-43{fill:url(#linear-gradient-25);}.cls-44{fill:url(#linear-gradient-26);}.cls-45{fill:url(#linear-gradient-27);}.cls-46{fill:url(#linear-gradient-28);}.cls-47{fill:url(#linear-gradient-29);}.cls-48{fill:url(#linear-gradient-30);}.cls-49{fill:url(#linear-gradient-31);}.cls-50{fill:url(#linear-gradient-32);}</style><linearGradient id="linear-gradient" x1="82.32" y1="34.33" x2="82.32" y2="39.51" gradientUnits="userSpaceOnUse"><stop offset="0" stop-color="#d4d7d9"/><stop offset="0.22" stop-color="#ced1d3"/><stop offset="0.51" stop-color="#bec1c3"/><stop offset="0.84" stop-color="#a3a5a8"/><stop offset="1" stop-color="#939598"/></linearGradient><linearGradient id="linear-gradient-2" x1="82.32" y1="45.56" x2="82.32" y2="50.74" xlink:href="#linear-gradient"/><linearGradient id="linear-gradient-3" x1="82.32" y1="56.78" x2="82.32" y2="61.97" xlink:href="#linear-gradient"/><linearGradient id="linear-gradient-4" x1="82.32" y1="68.01" x2="82.32" y2="73.19" xlink:href="#linear-gradient"/><linearGradient id="linear-gradient-5" x1="82.32" y1="79.23" x2="82.32" y2="84.42" xlink:href="#linear-gradient"/><linearGradient id="linear-gradient-6" x1="82.32" y1="90.46" x2="82.32" y2="95.64" xlink:href="#linear-gradient"/><linearGradient id="linear-gradient-7" x1="82.32" y1="101.69" x2="82.32" y2="106.87" xlink:href="#linear-gradient"/><linearGradient id="linear-gradient-8" x1="82.32" y1="112.91" x2="82.32" y2="118.1" xlink:href="#linear-gradient"/><linearGradient id="linear-gradient-9" x1="155.98" y1="34.33" x2="155.98" y2="39.51" gradientUnits="userSpaceOnUse"><stop offset="0" stop-color="#f2f2f2"/><stop offset="0.35" stop-color="#eee"/><stop offset="0.71" stop-color="#e2e2e3"/><stop offset="1" stop-color="#d2d3d4"/></linearGradient><linearGradient id="linear-gradient-10" x1="155.98" y1="45.56" x2="155.98" y2="50.74" xlink:href="#linear-gradient-9"/><linearGradient id="linear-gradient-11" x1="155.98" y1="56.78" x2="155.98" y2="61.97" xlink:href="#linear-gradient-9"/><linearGradient id="linear-gradient-12" x1="155.98" y1="68.01" x2="155.98" y2="73.19" xlink:href="#linear-gradient-9"/><linearGradient id="linear-gradient-13" x1="155.98" y1="79.23" x2="155.98" y2="84.42" xlink:href="#linear-gradient-9"/><linearGradient id="linear-gradient-14" x1="155.98" y1="90.46" x2="155.98" y2="95.64" xlink:href="#linear-gradient-9"/><linearGradient id="linear-gradient-15" x1="155.98" y1="101.69" x2="155.98" y2="106.87" xlink:href="#linear-gradient-9"/><linearGradient id="linear-gradient-16" x1="155.98" y1="112.91" x2="155.98" y2="118.1" xlink:href="#linear-gradient-9"/><linearGradient id="linear-gradient-17" x1="68.03" y1="80.03" x2="68.03" y2="85.21" xlink:href="#linear-gradient"/><linearGradient id="linear-gradient-18" x1="68.03" y1="91.25" x2="68.03" y2="96.44" xlink:href="#linear-gradient"/><linearGradient id="linear-gradient-19" x1="68.03" y1="102.48" x2="68.03" y2="107.66" xlink:href="#linear-gradient"/><linearGradient id="linear-gradient-20" x1="68.03" y1="113.7" x2="68.03" y2="118.89" xlink:href="#linear-gradient"/><linearGradient id="linear-gradient-21" x1="68.03" y1="124.93" x2="68.03" y2="130.11" xlink:href="#linear-gradient"/><linearGradient id="linear-gradient-22" x1="68.03" y1="136.16" x2="68.03" y2="141.34" xlink:href="#linear-gradient"/><linearGradient id="linear-gradient-23" x1="68.03" y1="147.38" x2="68.03" y2="152.57" xlink:href="#linear-gradient"/><linearGradient id="linear-gradient-24" x1="68.03" y1="158.61" x2="68.03" y2="163.79" xlink:href="#linear-gradient"/><linearGradient id="linear-gradient-25" x1="141.68" y1="80.03" x2="141.68" y2="85.21" xlink:href="#linear-gradient-9"/><linearGradient id="linear-gradient-26" x1="141.68" y1="91.25" x2="141.68" y2="96.44" xlink:href="#linear-gradient-9"/><linearGradient id="linear-gradient-27" x1="141.68" y1="102.48" x2="141.68" y2="107.66" xlink:href="#linear-gradient-9"/><linearGradient id="linear-gradient-28" x1="141.68" y1="113.7" x2="141.68" y2="118.89" xlink:href="#linear-gradient-9"/><linearGradient id="linear-gradient-29" x1="141.68" y1="124.93" x2="141.68" y2="130.11" xlink:href="#linear-gradient-9"/><linearGradient id="linear-gradient-30" x1="141.68" y1="136.16" x2="141.68" y2="141.34" xlink:href="#linear-gradient-9"/><linearGradient id="linear-gradient-31" x1="141.68" y1="147.38" x2="141.68" y2="152.57" xlink:href="#linear-gradient-9"/><linearGradient id="linear-gradient-32" x1="141.68" y1="158.61" x2="141.68" y2="163.79" xlink:href="#linear-gradient-9"/></defs><title>icn_tower_pad</title><g class="cls-1"><g id="Слой_2" data-name="Слой 2"><g id="Layer_1" data-name="Layer 1"><g class="cls-2"><path class="cls-3" d="M209.44,138.24c-55.09-31.81-111.94-31.81-167,0h0C14.86,154.14,1.09,170.3,1.09,186.46s13.77,32.31,41.32,48.22c55.09,31.81,111.94,31.81,167,0,27.55-15.9,41.32-32.06,41.32-48.22S237,154.15,209.44,138.24Z"/></g><path class="cls-4" d="M192.23,129.46c-50.83-29.35-103.28-29.35-154.11,0h0C12.71,144.13,0,159,0,173.95s12.71,29.81,38.12,44.49c50.83,29.35,103.28,29.35,154.11,0,25.41-14.67,38.12-29.58,38.12-44.49S217.64,144.14,192.23,129.46Z"/><path class="cls-5" d="M192.23,196.24c-50.83,29.34-103.28,29.34-154.11,0C12.71,181.56,0,166.66,0,151.75v22.2c0,14.91,12.71,29.81,38.12,44.49,50.83,29.35,103.28,29.35,154.11,0,25.41-14.67,38.12-29.58,38.12-44.49v-22.2C230.35,166.66,217.64,181.56,192.23,196.24Z"/><path class="cls-6" d="M192.23,107.26c-50.83-29.35-103.28-29.35-154.11,0h0C12.71,121.93,0,136.84,0,151.75s12.71,29.82,38.12,44.49c50.83,29.35,103.28,29.35,154.11,0,25.41-14.67,38.12-29.58,38.12-44.49S217.64,121.93,192.23,107.26Z"/><polygon class="cls-5" points="77.01 127.07 64.13 134.89 120.06 166.38 171.62 134.89 160.17 127.06 77.01 127.07"/><polygon class="cls-7" points="77.57 26.42 77.57 127.64 119.14 151.64 119.15 50.42 77.57 26.42"/><polygon class="cls-8" points="77.57 26.42 119.15 2.42 160.72 26.42 119.15 50.42 77.57 26.42"/><polygon class="cls-9" points="152.76 25.64 119.14 45.05 85.53 25.64 119.16 6.24 152.76 25.64"/><polygon class="cls-10" points="143.34 14.01 119.14 27.98 94.95 14.01 119.16 0.05 143.34 14.01"/><polygon class="cls-7" points="119.15 31.18 119.15 27.98 94.95 14.01 94.95 25.54 119.15 39.51 119.15 31.18 119.15 31.18"/><polygon class="cls-11" points="143.34 14.05 143.34 14.05 143.34 14.01 119.15 27.98 119.15 39.51 143.34 25.54 143.34 17.21 143.34 17.21 143.34 14.05"/><polygon class="cls-12" points="97.02 18.4 97.02 26.73 101.64 29.4 101.64 21.07 97.02 18.4"/><polygon class="cls-12" points="102.41 21.52 102.41 29.85 107.03 32.52 107.03 24.18 102.41 21.52"/><polygon class="cls-12" points="107.8 24.63 107.8 32.96 112.42 35.63 112.42 27.3 107.8 24.63"/><polygon class="cls-12" points="113.19 27.75 113.19 36.08 117.81 38.75 117.81 30.41 113.19 27.75"/><polygon class="cls-13" points="141.41 18.32 141.41 26.65 136.79 29.32 136.79 20.99 141.41 18.32"/><polygon class="cls-13" points="136.02 21.44 136.02 29.77 131.4 32.44 131.4 24.1 136.02 21.44"/><polygon class="cls-13" points="130.63 24.55 130.63 32.88 126.01 35.55 126.01 27.22 130.63 24.55"/><polygon class="cls-13" points="125.24 27.66 125.24 36 120.62 38.66 120.62 30.34 125.24 27.66"/><polygon class="cls-14" points="119.15 39.51 132.02 39.51 156.44 25.64 143.34 18.02 143.34 20.2 143.34 25.54 119.15 39.51"/><polygon class="cls-15" points="143.34 14.01 119.15 27.98 119.15 39.51 143.34 25.54 143.34 14.01"/><polygon class="cls-16" points="160.72 26.42 119.15 50.42 119.14 151.64 160.72 127.64 160.72 32.07 160.72 26.42"/><polygon class="cls-17" points="116.3 54.59 81.2 34.33 81.2 39.51 116.3 59.77 116.3 54.59"/><polygon class="cls-17" points="116.3 65.82 81.2 45.56 81.2 50.74 116.3 71 116.3 65.82"/><polygon class="cls-17" points="116.3 77.04 81.2 56.78 81.2 61.97 116.3 82.23 116.3 77.04"/><polygon class="cls-17" points="116.3 88.27 81.2 68.01 81.2 73.19 116.3 93.45 116.3 88.27"/><polygon class="cls-17" points="116.3 99.5 81.2 79.23 81.2 84.42 116.3 104.68 116.3 99.5"/><polygon class="cls-17" points="116.3 110.72 81.2 90.46 81.2 95.64 116.3 115.91 116.3 110.72"/><polygon class="cls-17" points="116.3 121.95 81.2 101.69 81.2 106.87 116.3 127.13 116.3 121.95"/><polygon class="cls-17" points="116.3 133.18 81.2 112.91 81.2 118.09 116.3 138.36 116.3 133.18"/><polygon class="cls-18" points="81.2 39.51 83.44 38.22 83.44 35.63 81.2 34.33 81.2 39.51"/><polygon class="cls-19" points="81.2 50.74 83.44 49.44 83.44 46.85 81.2 45.56 81.2 50.74"/><polygon class="cls-20" points="81.2 61.97 83.44 60.67 83.44 58.08 81.2 56.78 81.2 61.97"/><polygon class="cls-21" points="81.2 73.19 83.44 71.89 83.44 69.31 81.2 68.01 81.2 73.19"/><polygon class="cls-22" points="81.2 84.42 83.44 83.12 83.44 80.53 81.2 79.23 81.2 84.42"/><polygon class="cls-23" points="81.2 95.64 83.44 94.35 83.44 91.75 81.2 90.46 81.2 95.64"/><polygon class="cls-24" points="81.2 106.87 83.44 105.57 83.44 102.98 81.2 101.69 81.2 106.87"/><polygon class="cls-25" points="81.2 118.09 83.44 116.8 83.44 114.21 81.2 112.91 81.2 118.09"/><polygon class="cls-26" points="83.44 38.22 116.3 57.28 116.3 59.77 81.2 39.51 83.44 38.22"/><polygon class="cls-26" points="83.44 49.44 116.3 68.51 116.3 71 81.2 50.74 83.44 49.44"/><polygon class="cls-26" points="83.44 60.67 116.3 79.73 116.3 82.23 81.2 61.97 83.44 60.67"/><polygon class="cls-26" points="83.44 71.89 116.3 90.96 116.3 93.45 81.2 73.19 83.44 71.89"/><polygon class="cls-26" points="83.44 83.12 116.3 102.19 116.3 104.68 81.2 84.42 83.44 83.12"/><polygon class="cls-26" points="83.44 94.35 116.3 113.41 116.3 115.91 81.2 95.64 83.44 94.35"/><polygon class="cls-26" points="83.44 105.57 116.3 124.64 116.3 127.13 81.2 106.87 83.44 105.57"/><polygon class="cls-26" points="83.44 116.8 116.3 135.86 116.3 138.36 81.2 118.09 83.44 116.8"/><polygon class="cls-17" points="122 54.59 157.1 34.33 157.1 39.51 122 59.77 122 54.59"/><polygon class="cls-26" points="154.86 38.22 122 57.28 122 59.77 157.1 39.51 154.86 38.22"/><polygon class="cls-17" points="122 65.82 157.1 45.56 157.1 50.74 122 71 122 65.82"/><polygon class="cls-17" points="122 77.04 157.1 56.78 157.1 61.97 122 82.23 122 77.04"/><polygon class="cls-17" points="122 88.27 157.1 68.01 157.1 73.19 122 93.45 122 88.27"/><polygon class="cls-17" points="122 99.5 157.1 79.23 157.1 84.42 122 104.68 122 99.5"/><polygon class="cls-17" points="122 110.72 157.1 90.46 157.1 95.64 122 115.91 122 110.72"/><polygon class="cls-17" points="122 121.95 157.1 101.69 157.1 106.87 122 127.13 122 121.95"/><polygon class="cls-17" points="122 133.18 157.1 112.91 157.1 118.09 122 138.36 122 133.18"/><polygon class="cls-27" points="157.1 39.51 154.86 38.22 154.86 35.63 157.1 34.33 157.1 39.51"/><polygon class="cls-28" points="157.1 50.74 154.86 49.44 154.86 46.85 157.1 45.56 157.1 50.74"/><polygon class="cls-29" points="157.1 61.97 154.86 60.67 154.86 58.08 157.1 56.78 157.1 61.97"/><polygon class="cls-30" points="157.1 73.19 154.86 71.89 154.86 69.31 157.1 68.01 157.1 73.19"/><polygon class="cls-31" points="157.1 84.42 154.86 83.12 154.86 80.53 157.1 79.23 157.1 84.42"/><polygon class="cls-32" points="157.1 95.64 154.86 94.35 154.86 91.75 157.1 90.46 157.1 95.64"/><polygon class="cls-33" points="157.1 106.87 154.86 105.57 154.86 102.98 157.1 101.69 157.1 106.87"/><polygon class="cls-34" points="157.1 118.09 154.86 116.8 154.86 114.21 157.1 112.91 157.1 118.09"/><polygon class="cls-26" points="154.86 49.44 122 68.51 122 71 157.1 50.74 154.86 49.44"/><polygon class="cls-26" points="154.86 60.67 122 79.73 122 82.23 157.1 61.97 154.86 60.67"/><polygon class="cls-26" points="154.86 71.89 122 90.96 122 93.45 157.1 73.19 154.86 71.89"/><polygon class="cls-26" points="154.86 83.12 122 102.19 122 104.68 157.1 84.42 154.86 83.12"/><polygon class="cls-26" points="154.86 94.35 122 113.41 122 115.91 157.1 95.64 154.86 94.35"/><polygon class="cls-26" points="154.86 105.57 122 124.64 122 127.13 157.1 106.87 154.86 105.57"/><polygon class="cls-26" points="154.86 116.8 122 135.86 122 138.36 157.1 118.09 154.86 116.8"/><polygon class="cls-14" points="81.2 39.51 85.68 39.51 85.68 36.91 81.2 34.33 81.2 39.51"/><polygon class="cls-14" points="81.21 50.74 85.69 50.74 85.69 48.13 81.21 45.55 81.21 50.74"/><polygon class="cls-14" points="81.2 61.96 85.68 61.96 85.68 59.37 81.2 56.78 81.2 61.96"/><polygon class="cls-14" points="81.2 73.19 85.68 73.19 85.68 70.59 81.2 68 81.2 73.19"/><polygon class="cls-14" points="81.21 84.41 85.69 84.41 85.69 81.82 81.21 79.23 81.21 84.41"/><polygon class="cls-14" points="81.21 95.64 85.69 95.64 85.69 93.04 81.21 90.46 81.21 95.64"/><polygon class="cls-14" points="81.21 106.87 85.69 106.87 85.69 104.27 81.21 101.68 81.21 106.87"/><polygon class="cls-14" points="81.21 118.09 85.69 118.09 85.69 115.5 81.21 112.91 81.21 118.09"/><polygon class="cls-5" points="63.28 173.34 50.39 181.16 106.33 212.65 157.89 181.16 146.43 173.33 63.28 173.34"/><polygon class="cls-7" points="63.28 72.12 63.28 173.34 104.85 197.34 104.85 96.12 63.28 72.12"/><polygon class="cls-8" points="63.28 72.12 104.85 48.12 146.43 72.12 104.85 96.12 63.28 72.12"/><polygon class="cls-9" points="138.47 71.33 104.84 90.75 71.24 71.33 104.86 51.93 138.47 71.33"/><polygon class="cls-10" points="129.05 59.71 104.85 73.68 80.66 59.71 104.86 45.74 129.05 59.71"/><polygon class="cls-7" points="104.85 76.87 104.85 73.68 80.66 59.71 80.66 71.24 104.85 85.21 104.85 76.87 104.85 76.87"/><polygon class="cls-11" points="129.05 59.75 129.05 59.75 129.05 59.71 104.85 73.68 104.85 85.21 129.05 71.24 129.05 62.91 129.05 62.91 129.05 59.75"/><polygon class="cls-12" points="82.73 64.1 82.73 72.43 87.35 75.1 87.35 66.76 82.73 64.1"/><polygon class="cls-12" points="88.12 67.22 88.12 75.54 92.74 78.21 92.74 69.88 88.12 67.22"/><polygon class="cls-12" points="93.51 70.33 93.51 78.66 98.13 81.33 98.13 73 93.51 70.33"/><polygon class="cls-12" points="98.9 73.44 98.9 81.77 103.52 84.44 103.52 76.11 98.9 73.44"/><polygon class="cls-13" points="127.12 64.02 127.12 72.35 122.5 75.02 122.5 66.69 127.12 64.02"/><polygon class="cls-13" points="121.73 67.13 121.73 75.47 117.11 78.13 117.11 69.8 121.73 67.13"/><polygon class="cls-13" points="116.34 70.25 116.34 78.58 111.72 81.25 111.72 72.92 116.34 70.25"/><polygon class="cls-13" points="110.95 73.36 110.95 81.69 106.33 84.36 106.33 76.03 110.95 73.36"/><polygon class="cls-14" points="104.85 85.21 117.72 85.21 142.15 71.34 129.05 63.71 129.05 65.89 129.05 71.24 104.85 85.21"/><polygon class="cls-15" points="129.05 59.71 104.85 73.68 104.85 85.21 129.05 71.24 129.05 59.71"/><polygon class="cls-16" points="146.43 72.12 104.85 96.12 104.85 197.34 146.43 173.33 146.43 77.76 146.43 72.12"/><polygon class="cls-17" points="102 100.29 66.91 80.03 66.91 85.21 102 105.47 102 100.29"/><polygon class="cls-17" points="102 111.52 66.91 91.25 66.91 96.44 102 116.7 102 111.52"/><polygon class="cls-17" points="102 122.74 66.91 102.48 66.91 107.66 102 127.92 102 122.74"/><polygon class="cls-17" points="102 133.97 66.91 113.7 66.91 118.89 102 139.15 102 133.97"/><polygon class="cls-17" points="102 145.19 66.91 124.93 66.91 130.11 102 150.38 102 145.19"/><polygon class="cls-17" points="102 156.42 66.91 136.16 66.91 141.34 102 161.6 102 156.42"/><polygon class="cls-17" points="102 167.65 66.91 147.38 66.91 152.57 102 172.83 102 167.65"/><polygon class="cls-17" points="102 178.87 66.91 158.61 66.91 163.79 102 184.05 102 178.87"/><polygon class="cls-35" points="66.91 85.21 69.15 83.92 69.15 81.32 66.91 80.03 66.91 85.21"/><polygon class="cls-36" points="66.91 96.44 69.15 95.14 69.15 92.55 66.91 91.25 66.91 96.44"/><polygon class="cls-37" points="66.91 107.66 69.15 106.37 69.15 103.77 66.91 102.48 66.91 107.66"/><polygon class="cls-38" points="66.91 118.89 69.15 117.59 69.15 115 66.91 113.7 66.91 118.89"/><polygon class="cls-39" points="66.91 130.11 69.15 128.82 69.15 126.22 66.91 124.93 66.91 130.11"/><polygon class="cls-40" points="66.91 141.34 69.15 140.04 69.15 137.45 66.91 136.16 66.91 141.34"/><polygon class="cls-41" points="66.91 152.57 69.15 151.27 69.15 148.68 66.91 147.38 66.91 152.57"/><polygon class="cls-42" points="66.91 163.79 69.15 162.49 69.15 159.9 66.91 158.61 66.91 163.79"/><polygon class="cls-26" points="69.15 83.92 102 102.98 102 105.47 66.91 85.21 69.15 83.92"/><polygon class="cls-26" points="69.15 95.14 102 114.2 102 116.7 66.91 96.44 69.15 95.14"/><polygon class="cls-26" points="69.15 106.37 102 125.43 102 127.92 66.91 107.66 69.15 106.37"/><polygon class="cls-26" points="69.15 117.59 102 136.66 102 139.15 66.91 118.89 69.15 117.59"/><polygon class="cls-26" points="69.15 128.82 102 147.88 102 150.38 66.91 130.11 69.15 128.82"/><polygon class="cls-26" points="69.15 140.04 102 159.11 102 161.6 66.91 141.34 69.15 140.04"/><polygon class="cls-26" points="69.15 151.27 102 170.33 102 172.83 66.91 152.57 69.15 151.27"/><polygon class="cls-26" points="69.15 162.49 102 181.56 102 184.05 66.91 163.79 69.15 162.49"/><polygon class="cls-17" points="107.71 100.29 142.81 80.03 142.81 85.21 107.71 105.47 107.71 100.29"/><polygon class="cls-26" points="140.56 83.92 107.71 102.98 107.71 105.47 142.81 85.21 140.56 83.92"/><polygon class="cls-17" points="107.71 111.52 142.81 91.25 142.81 96.44 107.71 116.7 107.71 111.52"/><polygon class="cls-17" points="107.71 122.74 142.81 102.48 142.81 107.66 107.71 127.92 107.71 122.74"/><polygon class="cls-17" points="107.71 133.97 142.81 113.7 142.81 118.89 107.71 139.15 107.71 133.97"/><polygon class="cls-17" points="107.71 145.19 142.81 124.93 142.81 130.11 107.71 150.38 107.71 145.19"/><polygon class="cls-17" points="107.71 156.42 142.81 136.16 142.81 141.34 107.71 161.6 107.71 156.42"/><polygon class="cls-17" points="107.71 167.65 142.81 147.38 142.81 152.57 107.71 172.83 107.71 167.65"/><polygon class="cls-17" points="107.71 178.87 142.81 158.61 142.81 163.79 107.71 184.05 107.71 178.87"/><polygon class="cls-43" points="142.81 85.21 140.56 83.92 140.56 81.32 142.81 80.03 142.81 85.21"/><polygon class="cls-44" points="142.81 96.44 140.56 95.14 140.56 92.55 142.81 91.25 142.81 96.44"/><polygon class="cls-45" points="142.81 107.66 140.56 106.37 140.56 103.77 142.81 102.48 142.81 107.66"/><polygon class="cls-46" points="142.81 118.89 140.56 117.59 140.56 115 142.81 113.7 142.81 118.89"/><polygon class="cls-47" points="142.81 130.11 140.56 128.82 140.56 126.22 142.81 124.93 142.81 130.11"/><polygon class="cls-48" points="142.81 141.34 140.56 140.04 140.56 137.45 142.81 136.16 142.81 141.34"/><polygon class="cls-49" points="142.81 152.57 140.56 151.27 140.56 148.68 142.81 147.38 142.81 152.57"/><polygon class="cls-50" points="142.81 163.79 140.56 162.49 140.56 159.9 142.81 158.61 142.81 163.79"/><polygon class="cls-26" points="140.56 95.14 107.71 114.2 107.71 116.7 142.81 96.44 140.56 95.14"/><polygon class="cls-26" points="140.56 106.37 107.71 125.43 107.71 127.92 142.81 107.66 140.56 106.37"/><polygon class="cls-26" points="140.56 117.59 107.71 136.66 107.71 139.15 142.81 118.89 140.56 117.59"/><polygon class="cls-26" points="140.56 128.82 107.71 147.88 107.71 150.38 142.81 130.11 140.56 128.82"/><polygon class="cls-26" points="140.56 140.04 107.71 159.11 107.71 161.6 142.81 141.34 140.56 140.04"/><polygon class="cls-26" points="140.56 151.27 107.71 170.33 107.71 172.83 142.81 152.57 140.56 151.27"/><polygon class="cls-26" points="140.56 162.49 107.71 181.56 107.71 184.05 142.81 163.79 140.56 162.49"/><polygon class="cls-14" points="66.91 85.21 71.39 85.21 71.39 82.61 66.91 80.02 66.91 85.21"/><polygon class="cls-14" points="66.92 96.43 71.39 96.43 71.39 93.83 66.92 91.25 66.92 96.43"/><polygon class="cls-14" points="66.91 107.66 71.39 107.66 71.39 105.06 66.91 102.47 66.91 107.66"/><polygon class="cls-14" points="66.91 118.88 71.39 118.88 71.39 116.28 66.91 113.7 66.91 118.88"/><polygon class="cls-14" points="66.92 130.11 71.39 130.11 71.39 127.51 66.92 124.92 66.92 130.11"/><polygon class="cls-14" points="66.92 141.34 71.39 141.34 71.39 138.74 66.92 136.16 66.92 141.34"/><polygon class="cls-14" points="66.92 152.56 71.39 152.56 71.39 149.97 66.92 147.38 66.92 152.56"/><polygon class="cls-14" points="66.92 163.79 71.39 163.79 71.39 161.19 66.92 158.61 66.92 163.79"/></g></g></g></svg>