<svg xmlns="http://www.w3.org/2000/svg" viewBox="0 0 250.76 267.77" widht="64" height="64px"><defs><style>.cls-1{isolation:isolate;}.cls-2{mix-blend-mode:multiply;}.cls-3{fill:#e6e7e8; fill-opacity: 0.4;}.cls-4{fill:#f99b1c;}.cls-5,.cls-7{fill:#da9b28;}.cls-6{fill:#f9b418;}.cls-7{fill-rule:evenodd;}.cls-8{fill:#292f3d;}.cls-9{fill:#2b1b18;}.cls-10{fill:#a5794a;}.cls-11{fill:#8f6a45;}.cls-12{fill:#c06534;}.cls-13{fill:#6e4f21;}.cls-14{fill:#644a30;}.cls-15{fill:#5a3d2b;}.cls-16{fill:#a0764d;}.cls-17{fill:#823a2b;}.cls-18{fill:#a14f31;}.cls-19{fill:#e0af82;}.cls-20{fill:#493028;}.cls-21{fill:#8ea0b6;}.cls-22{fill:#727f8f;}.cls-23{fill:#32485b;}.cls-24{fill:#d6e3ec;}.cls-25{fill:#835e2d;}.cls-26{fill:#181c28;}.cls-27{fill:#fecf0a;}.cls-28{fill:#fde681;}.cls-29{fill:#c38d5b;}.cls-30{fill:#d6cfc2;}.cls-31{fill:#f4f5ee;}</style></defs><title>icn_pirate_ship_pad</title><g class="cls-1"><g id="Слой_2" data-name="Слой 2"><g id="Layer_1" data-name="Layer 1"><g class="cls-2"><path class="cls-3" d="M209.44,147.48c-55.09-31.81-111.94-31.81-167,0h0C14.86,163.38,1.09,179.54,1.09,195.7S14.86,228,42.41,243.92c55.09,31.81,111.94,31.81,167,0C237,228,250.76,211.86,250.76,195.7S237,163.39,209.44,147.48Z"/></g><path class="cls-4" d="M192.23,138.7c-50.83-29.35-103.28-29.35-154.11,0h0C12.71,153.37,0,168.28,0,183.19S12.71,213,38.12,227.68C88.95,257,141.4,257,192.23,227.68c25.41-14.67,38.12-29.58,38.12-44.49S217.64,153.37,192.23,138.7Z"/><path class="cls-5" d="M192.23,205.48c-50.83,29.34-103.28,29.34-154.11,0C12.71,190.8,0,175.9,0,161v22.2C0,198.1,12.71,213,38.12,227.68,88.95,257,141.4,257,192.23,227.68c25.41-14.67,38.12-29.58,38.12-44.49V161C230.35,175.9,217.64,190.8,192.23,205.48Z"/><path class="cls-6" d="M192.23,116.5c-50.83-29.35-103.28-29.35-154.11,0h0C12.71,131.17,0,146.08,0,161s12.71,29.82,38.12,44.49c50.83,29.35,103.28,29.35,154.11,0,25.41-14.67,38.12-29.58,38.12-44.49S217.64,131.17,192.23,116.5Z"/><path class="cls-7" d="M176.75,199.62a36.53,36.53,0,0,1-7.28,4.21c-27.23,12.12-59.34,4.58-84.21-9.66l-.06,0a129.45,129.45,0,0,1-23.39-16.57c-7.79-7.16-14.37-16-17.83-26-2.9-8.45-1.17-15,3.74-22l2.41-12.06A192.9,192.9,0,0,1,72.27,120l6.81-4.28c16.82.88,26.65,6.61,42.78,11.39,14.93,4.43,29.56,11.46,41.55,21.49,8.25,6.9,15.35,15.81,19.2,25.94,1.86,4.9,2.64,10.36,1.21,15.39A18.78,18.78,0,0,1,176.75,199.62Z"/><path class="cls-8" d="M124,27.27A5,5,0,0,0,121.86,29c-.86,1.28-2.19,1.77-4.12.67l-3.51-2,2.4,5.76-2.9,1.67,3.76,2c2.08,1.09,3.81.11,5.21-1.39.74-.79,1.82-1.18,3.37-.3a32.44,32.44,0,0,1,5.76,3.93l1.44-8.19S126.11,26.31,124,27.27Z"/><g class="cls-1"><path class="cls-9" d="M40.91,130.38l64.37,37.41c27,15.69,61.23,10.1,63,9.81,0,0-13,8-22.43,9.86a75.7,75.7,0,0,1-41.65-3.86c-12.09-4.85-26-11.75-47.53-29.18-6.56-5.3-18.67-21-18.69-28.09C38,127.79,39,129.25,40.91,130.38Z"/></g><path class="cls-10" d="M40.95,122.2c-3.91,2.26-3.93,5.91,0,8.17l64.37,37.41c27,15.69,61.23,10.1,63,9.81.51-1,10.29-20.85-16.72-36.55L87.22,103.64a15.55,15.55,0,0,0-14.11,0Z"/><path class="cls-11" d="M164,151.06l-10-4.76-24.45,8.75,2.14-9.69,12.58-4.71-10.08-6.84L136,132,151.59,141A46.38,46.38,0,0,1,164,151.06Z"/><polygon class="cls-12" points="118.33 110.71 156.58 132.94 150.56 136.41 112.31 114.19 118.33 110.71"/><path class="cls-9" d="M38,126.49V110.25L85.13,84.81l24,13.79-.46,17.48L61.4,143.14l-20.81-13a6.47,6.47,0,0,1-2-1.92A4.31,4.31,0,0,1,38,126.49Z"/><polygon class="cls-10" points="38.01 110.25 85.13 84.81 109.1 98.61 111.59 115.22 65.5 140.84 60.86 126.68 40.16 117.36 38.01 110.25"/><polygon class="cls-11" points="72.9 99.11 82.84 95.13 74.78 90.4 82.39 82.7 112.31 99.82 104.4 107.8 89.99 99.33 71.29 106.43 72.9 99.11"/><polygon class="cls-13" points="107.95 99.82 111.59 115.22 65.5 140.84 60.26 127.1 107.95 99.82"/><g class="cls-1"><path class="cls-9" d="M90.34,115.54a1.87,1.87,0,0,1,.78,1.71l0,11.88-2-1.16,0-11.88a1.88,1.88,0,0,0-.78-1.71Z"/><path class="cls-14" d="M85.18,131.7l5.16-3,0-11.88a1.87,1.87,0,0,0-.78-1.71l-2.8,1.06-1.56,2.42Z"/><polygon class="cls-9" points="83.76 121.51 83.79 133.38 81.79 132.22 81.76 120.34 83.76 121.51"/><path class="cls-15" d="M83.76,121.51a10.3,10.3,0,0,1,4.67-8.09c2.59-1.49,4.7-.29,4.71,2.68l0,11.88-2,1.17,0-11.88c0-1.69-1.21-2.38-2.68-1.53a5.89,5.89,0,0,0-2.66,4.62l0,11.88-2,1.16Z"/></g><path class="cls-16" d="M86.43,112.25a3.31,3.31,0,0,1,3.34-.32l2,1.16a3.31,3.31,0,0,0-3.34.33,10.3,10.3,0,0,0-4.67,8.09l-2-1.16A10.32,10.32,0,0,1,86.43,112.25Z"/><g class="cls-1"><polygon class="cls-11" points="72.9 138.94 72.92 143.89 78.83 147.33 78.81 142.38 72.9 138.94"/><polygon class="cls-14" points="78.81 142.38 78.83 147.33 89.15 141.45 89.14 136.5 78.81 142.38"/><polygon class="cls-16" points="72.9 138.94 78.81 142.38 89.14 136.5 83.22 133.07 72.9 138.94"/></g><g class="cls-1"><polygon class="cls-11" points="68.86 131.69 68.88 136.63 74.79 140.07 74.77 135.12 68.86 131.69"/><polygon class="cls-14" points="74.77 135.12 74.79 140.07 85.11 134.19 85.09 129.25 74.77 135.12"/><polygon class="cls-16" points="68.86 131.69 74.77 135.12 85.09 129.25 79.18 125.81 68.86 131.69"/></g><g class="cls-1"><polygon class="cls-11" points="64.81 124.43 64.82 129.37 70.73 132.81 70.72 127.86 64.81 124.43"/><polygon class="cls-14" points="70.72 127.86 70.73 132.81 81.06 126.93 81.04 121.99 70.72 127.86"/><polygon class="cls-16" points="64.81 124.43 70.72 127.86 81.04 121.99 75.13 118.55 64.81 124.43"/></g><g class="cls-1"><polygon class="cls-17" points="109.1 98.61 112.32 114.19 118.34 110.71 115.12 95.13 109.1 98.61"/><polygon class="cls-18" points="112.34 119.51 108.56 117.29 104.94 101.5 109.1 98.61 112.32 114.19 112.98 117.12 112.34 119.51"/><path class="cls-18" d="M45.92,103.87,78.09,85.3a8.94,8.94,0,0,1,8.1,0l22.9,13.31,0,5.32L86.21,90.62a8.94,8.94,0,0,0-8.1,0L45.94,109.19a2.86,2.86,0,0,0-1.69,2.36q0-2.66,0-5.32A2.87,2.87,0,0,1,45.92,103.87Z"/><path class="cls-12" d="M39.94,100.39c-5.56,3.21-5.59,8.43-.07,11.65l22.9,13.31,6-3.48L45.9,108.56c-2.23-1.3-2.21-3.4,0-4.69L78.09,85.3a8.94,8.94,0,0,1,8.1,0l22.9,13.31,6-3.48L92.21,81.82c-5.52-3.21-14.54-3.21-20.1,0Z"/><path class="cls-19" d="M44.24,106.43a3.81,3.81,0,0,1,1.59-3.06L78.19,84.81a9.8,9.8,0,0,1,8.53.16L109.65,98.3l-.55.31L86.19,85.3a8.94,8.94,0,0,0-8.1,0L45.92,103.87A3.82,3.82,0,0,0,44.24,106.43Z"/><path class="cls-19" d="M38.5,101.38c-3.58,3.21-3,7.54,1.86,10.35l22.92,13.32-.5.29L39.88,112C34.89,109.14,34.44,104.6,38.5,101.38Z"/><polygon class="cls-17" points="62.78 125.34 66 140.93 72.02 137.45 68.8 121.87 62.78 125.34"/></g><g class="cls-1"><path class="cls-18" d="M150.56,136.42c10.38,6,16.18,13.57,17.24,22.41a23.55,23.55,0,0,1,.17,2.73q0,2.66,0,5.32a23.27,23.27,0,0,0-.17-2.73c-1.05-8.84-6.86-16.38-17.24-22.41l-38.25-22.23,0-5.32Z"/><path class="cls-17" d="M174.37,171.89a25.05,25.05,0,0,0,2.13-10.42l0,5.32a25,25,0,0,1-2.14,10.42l-.66,1.32,0-5.32Z"/><path class="cls-12" d="M72,137.45l38.25,22.23c10.38,6,23.38,9.42,38.64,10.06a120.31,120.31,0,0,0,17.85-.57,24,24,0,0,0,1-10.34c-1.06-8.84-6.86-16.38-17.24-22.41l6-3.48c28.43,16.52,18.24,38,17.8,39l-.66,1.32-2.28.37c-1.57.25-38.76,6.09-67.19-10.44L66,140.93Z"/></g><path class="cls-20" d="M86,164.53a511.21,511.21,0,0,0,46.33,24.25,74.85,74.85,0,0,1-28.06-5.19c-12.09-4.85-26-11.75-47.53-29.18-4-3.2-9.93-10.18-14.06-16.77C54.42,146.4,73.57,157.33,86,164.53Z"/><path class="cls-18" d="M39.88,112l22.9,13.31L66,140.93l38.25,22.23c28.43,16.52,65.62,10.69,67.19,10.44l2.28-.37,0,5.32-2.28.37c-1.57.25-38.76,6.09-67.19-10.44L66,146.25,62.24,144l-3.62-15.79h0L39.89,117.36c-2.74-1.59-4.12-3.69-4.13-5.78q0-2.66,0-5.32C35.76,108.35,37.13,110.44,39.88,112Z"/><g class="cls-1"><polygon class="cls-11" points="102.71 121.93 102.73 126.88 108.64 130.31 108.63 125.37 102.71 121.93"/><polygon class="cls-14" points="108.63 125.37 108.64 130.31 118.96 124.44 118.95 119.49 108.63 125.37"/><polygon class="cls-16" points="102.71 121.93 108.63 125.37 118.95 119.49 113.03 116.06 102.71 121.93"/></g><g class="cls-1"><polygon class="cls-11" points="98.67 114.67 98.69 119.62 104.6 123.05 104.59 118.11 98.67 114.67"/><polygon class="cls-14" points="104.59 118.11 104.6 123.05 114.92 117.18 114.91 112.23 104.59 118.11"/><polygon class="cls-16" points="98.67 114.67 104.59 118.11 114.91 112.23 109 108.8 98.67 114.67"/></g><g class="cls-1"><polygon class="cls-11" points="94.62 107.41 94.64 112.36 100.55 115.8 100.53 110.85 94.62 107.41"/><polygon class="cls-14" points="100.53 110.85 100.55 115.8 110.87 109.92 110.85 104.97 100.53 110.85"/><polygon class="cls-16" points="94.62 107.41 100.53 110.85 110.85 104.97 104.94 101.54 94.62 107.41"/></g><g class="cls-1"><polygon class="cls-17" points="82.72 166.48 84.59 165.4 80.91 163.28 79.04 164.36 82.72 166.48"/><polygon class="cls-17" points="79.04 164.36 80.91 163.28 80.93 159.05 79.05 160.14 79.04 164.36"/><polygon class="cls-17" points="84.6 169.74 86.47 168.65 86.5 160.09 84.62 161.18 84.6 169.74"/><polygon class="cls-12" points="84.62 161.18 86.5 160.09 79.05 155.79 77.18 156.88 84.62 161.18"/><path class="cls-18" d="M84.6,169.74l-7.45-4.3,0-8.56,7.45,4.3ZM79,164.36l3.68,2.12v-4.22l-3.68-2.12v4.22Z"/></g><g class="cls-1"><path class="cls-21" d="M81,160.36l-5.81,3.38a1.35,1.35,0,0,1,1.37.13l5.81-3.38A1.36,1.36,0,0,0,81,160.36Z"/><path class="cls-22" d="M77.93,168.42,83.75,165a1.35,1.35,0,0,0,.56-1.23,4.23,4.23,0,0,0-1.92-3.32l-5.81,3.38a4.22,4.22,0,0,1,1.92,3.32A1.34,1.34,0,0,1,77.93,168.42Z"/></g><g class="cls-1"><path class="cls-23" d="M74.44,166l1.39-.81a.6.6,0,0,0-.25.55,1.88,1.88,0,0,0,.85,1.48.61.61,0,0,0,.61.06l-1.39.81A.61.61,0,0,1,75,168a1.88,1.88,0,0,1-.85-1.48A.6.6,0,0,1,74.44,166Z"/><path class="cls-24" d="M74.84,163.48l-1.39.81a1.59,1.59,0,0,1,1.6.15l1.39-.81A1.59,1.59,0,0,0,74.84,163.48Z"/><path class="cls-21" d="M76.64,169.78,78,169a1.58,1.58,0,0,0,.66-1.44,5,5,0,0,0-2.25-3.89l-1.39.81a5,5,0,0,1,2.25,3.89A1.58,1.58,0,0,1,76.64,169.78Z"/><path class="cls-22" d="M77.3,168.33c0,1.43-1,2-2.26,1.29a5,5,0,0,1-2.25-3.89c0-1.43,1-2,2.26-1.29A5,5,0,0,1,77.3,168.33ZM75,168c.47.27.86.05.86-.49a1.88,1.88,0,0,0-.85-1.48c-.47-.27-.86-.06-.86.49A1.88,1.88,0,0,0,75,168Z"/></g><polygon class="cls-18" points="77.18 156.88 84.62 161.18 84.6 169.74 82.72 166.48 82.73 162.26 79.05 160.14 77.18 156.88"/><g class="cls-1"><polygon class="cls-17" points="67.51 157.58 69.38 156.49 65.71 154.37 63.84 155.46 67.51 157.58"/><polygon class="cls-17" points="63.84 155.46 65.71 154.37 65.72 150.15 63.85 151.24 63.84 155.46"/><polygon class="cls-17" points="69.39 160.84 71.27 159.75 71.29 151.19 69.42 152.28 69.39 160.84"/><polygon class="cls-12" points="69.42 152.28 71.29 151.19 63.84 146.89 61.97 147.98 69.42 152.28"/><path class="cls-18" d="M69.39,160.84l-7.45-4.3L62,148l7.45,4.3Zm-5.56-5.38,3.68,2.12v-4.23l-3.68-2.12v4.22Z"/></g><g class="cls-1"><path class="cls-21" d="M65.82,151.46,60,154.84a1.35,1.35,0,0,1,1.37.13l5.81-3.38A1.36,1.36,0,0,0,65.82,151.46Z"/><path class="cls-22" d="M62.72,159.52l5.82-3.38a1.35,1.35,0,0,0,.56-1.23,4.23,4.23,0,0,0-1.92-3.32L61.37,155a4.23,4.23,0,0,1,1.92,3.32A1.34,1.34,0,0,1,62.72,159.52Z"/></g><g class="cls-1"><path class="cls-23" d="M59.23,157.09l1.39-.81a.6.6,0,0,0-.25.55,1.88,1.88,0,0,0,.85,1.48.6.6,0,0,0,.61.06l-1.39.81a.6.6,0,0,1-.61-.06,1.89,1.89,0,0,1-.85-1.48A.6.6,0,0,1,59.23,157.09Z"/><path class="cls-24" d="M59.63,154.57l-1.39.81a1.59,1.59,0,0,1,1.6.16l1.39-.81A1.59,1.59,0,0,0,59.63,154.57Z"/><path class="cls-21" d="M61.43,160.88l1.39-.81a1.58,1.58,0,0,0,.66-1.44,5,5,0,0,0-2.25-3.89l-1.39.81a5,5,0,0,1,2.25,3.89A1.58,1.58,0,0,1,61.43,160.88Z"/><path class="cls-22" d="M62.09,159.43c0,1.43-1,2-2.26,1.29a5,5,0,0,1-2.25-3.89c0-1.43,1-2,2.26-1.29A5,5,0,0,1,62.09,159.43Zm-2.26-.32c.47.27.86.05.86-.49a1.88,1.88,0,0,0-.85-1.48c-.47-.27-.86-.05-.86.49a1.89,1.89,0,0,0,.85,1.48Z"/></g><polygon class="cls-18" points="61.97 147.98 69.42 152.28 69.39 160.84 67.51 157.58 67.52 153.36 63.85 151.24 61.97 147.98"/><g class="cls-1"><polygon class="cls-17" points="97.92 175.38 99.8 174.3 96.12 172.18 94.25 173.26 97.92 175.38"/><polygon class="cls-17" points="94.25 173.26 96.12 172.18 96.13 167.95 94.26 169.04 94.25 173.26"/><polygon class="cls-17" points="99.81 178.64 101.68 177.55 101.7 169 99.83 170.08 99.81 178.64"/><polygon class="cls-12" points="99.83 170.08 101.7 169 94.25 164.69 92.38 165.78 99.83 170.08"/><path class="cls-18" d="M99.81,178.64l-7.45-4.3,0-8.56,7.45,4.3Zm-5.56-5.38,3.67,2.12v-4.23L94.26,169v4.22Z"/></g><g class="cls-1"><path class="cls-21" d="M96.23,169.26l-5.81,3.38a1.36,1.36,0,0,1,1.37.13l5.81-3.38A1.35,1.35,0,0,0,96.23,169.26Z"/><path class="cls-22" d="M93.14,177.32,99,173.95a1.35,1.35,0,0,0,.56-1.23,4.23,4.23,0,0,0-1.92-3.32l-5.81,3.38a4.22,4.22,0,0,1,1.92,3.32A1.35,1.35,0,0,1,93.14,177.32Z"/></g><g class="cls-1"><path class="cls-23" d="M89.64,174.89l1.39-.81a.6.6,0,0,0-.25.55,1.88,1.88,0,0,0,.85,1.48.6.6,0,0,0,.61.06l-1.39.81a.6.6,0,0,1-.61-.06,1.88,1.88,0,0,1-.85-1.48A.6.6,0,0,1,89.64,174.89Z"/><path class="cls-24" d="M90,172.38l-1.39.81a1.59,1.59,0,0,1,1.6.16l1.39-.81A1.59,1.59,0,0,0,90,172.38Z"/><path class="cls-21" d="M91.85,178.68l1.39-.81a1.58,1.58,0,0,0,.66-1.45,5,5,0,0,0-2.25-3.89l-1.39.81a5,5,0,0,1,2.25,3.89A1.58,1.58,0,0,1,91.85,178.68Z"/><path class="cls-22" d="M92.51,177.23c0,1.43-1,2-2.26,1.29A5,5,0,0,1,88,174.63c0-1.43,1-2,2.26-1.29A5,5,0,0,1,92.51,177.23Zm-2.26-.32c.47.27.86.05.86-.49a1.88,1.88,0,0,0-.85-1.48c-.47-.27-.86-.05-.86.49a1.88,1.88,0,0,0,.85,1.48Z"/></g><polygon class="cls-18" points="92.38 165.78 99.83 170.08 99.81 178.64 97.92 175.38 97.94 171.16 94.26 169.04 92.38 165.78"/><g class="cls-1"><path class="cls-13" d="M126.22,149.06v3.41a3.58,3.58,0,0,0,2.1,2.93,11.26,11.26,0,0,0,10.21,0,3.61,3.61,0,0,0,2.13-3V149a3.61,3.61,0,0,1-2.13,3,11.26,11.26,0,0,1-10.21,0A3.58,3.58,0,0,1,126.22,149.06Z"/><path class="cls-10" d="M128,152.56a11,11,0,0,0,5.42,1.31V156a9.66,9.66,0,0,1-4.77-1.14,3,3,0,0,1-1.77-2.37v-.71A6.3,6.3,0,0,0,128,152.56Z"/><path class="cls-25" d="M128.35,146.08c-2.83,1.63-2.84,4.28,0,5.91a11.26,11.26,0,0,0,10.21,0c2.83-1.63,2.84-4.28,0-5.91A11.25,11.25,0,0,0,128.35,146.08Z"/></g><g class="cls-1"><path class="cls-13" d="M128.69,144v4.75a2.36,2.36,0,0,0,1.38,1.93,7.4,7.4,0,0,0,6.72,0,2.38,2.38,0,0,0,1.4-2V144a2.37,2.37,0,0,1-1.4,2,7.4,7.4,0,0,1-6.72,0A2.35,2.35,0,0,1,128.69,144Z"/><path class="cls-10" d="M129.74,146.5l-.4-.26v2.5a1.76,1.76,0,0,0,1.05,1.37,5.76,5.76,0,0,0,2.38.69v-3.44A7.14,7.14,0,0,1,129.74,146.5Z"/><path class="cls-25" d="M130.09,142c-1.86,1.07-1.87,2.82,0,3.89a7.4,7.4,0,0,0,6.72,0c1.86-1.07,1.87-2.82,0-3.89A7.41,7.41,0,0,0,130.09,142Z"/></g><g class="cls-1"><path class="cls-13" d="M130.83,28.36l-.65,114.56a1.62,1.62,0,0,0,.95,1.32,5.07,5.07,0,0,0,4.61,0,1.62,1.62,0,0,0,1-1.34L136,28.35a1.31,1.31,0,0,1-.77,1.08,4.07,4.07,0,0,1-3.69,0A1.3,1.3,0,0,1,130.83,28.36Z"/><path class="cls-10" d="M131.47,41.2l-.64,101.72c0,.26.23.53.62.76a3.67,3.67,0,0,0,1.36.43V41.58A4.24,4.24,0,0,1,131.47,41.2Z"/><path class="cls-25" d="M131.6,27.28a1.13,1.13,0,0,0,0,2.14,4.07,4.07,0,0,0,3.69,0,1.13,1.13,0,0,0,0-2.14A4.06,4.06,0,0,0,131.6,27.28Z"/></g><g class="cls-1"><path class="cls-26" d="M130.57,30.12v8.24a1.42,1.42,0,0,0,.83,1.17,4.47,4.47,0,0,0,4.06,0,1.44,1.44,0,0,0,.85-1.18V30.1a1.43,1.43,0,0,1-.85,1.18,4.46,4.46,0,0,1-4.06,0A1.42,1.42,0,0,1,130.57,30.12Z"/><path class="cls-8" d="M132.82,39.31a3.79,3.79,0,0,1-1.39-.43l0-6.91a3.8,3.8,0,0,0,1.35.42Z"/><path class="cls-13" d="M129.64,25.82v3.8a1.89,1.89,0,0,0,1.1,1.55,5.92,5.92,0,0,0,5.37,0,1.9,1.9,0,0,0,1.12-1.57V25.8a1.9,1.9,0,0,1-1.12,1.57,5.92,5.92,0,0,1-5.37,0A1.89,1.89,0,0,1,129.64,25.82Z"/><path class="cls-10" d="M130.41,27.93a6,6,0,0,0,2.85.72v2.46a4.76,4.76,0,0,1-2.19-.52c-.49-.29-.78-.65-.78-1V27.85Z"/><path class="cls-25" d="M130.76,24.25c-1.49.86-1.49,2.25,0,3.11a5.92,5.92,0,0,0,5.37,0c1.49-.86,1.5-2.25,0-3.11A5.93,5.93,0,0,0,130.76,24.25Z"/></g><circle class="cls-27" cx="133.44" cy="23.32" r="4.87"/><path class="cls-28" d="M133.49,20.3a2.51,2.51,0,0,0-3.29,1.25,2.52,2.52,0,0,0,.58,3.47,2.5,2.5,0,0,0,3.29-1.24A2.53,2.53,0,0,0,133.49,20.3Z"/><path class="cls-26" d="M112.43,130.55s6.72-13.72,5.7-25.54c-1.58-18.45-15.34-37.62-16-38.91,0,0,36.49-8.72,42.89-13,18.11-12,18.06-21.73,18.06-21.73.68,1.28,14.44,20.46,16,38.91,1,11.82-5.7,25.54-5.7,25.54s-6.61,14.13-18.06,21.73C139.27,128.23,112.43,130.55,112.43,130.55Z"/><path class="cls-8" d="M118.13,105c-1.58-18.45-15.34-37.62-16-38.91,0,0,36.49-8.72,42.89-13,18.11-12,18.06-21.73,18.06-21.73s19.23,54.78-50.64,99.15C112.43,130.55,119.15,116.83,118.13,105Z"/><g class="cls-1"><path class="cls-13" d="M65.26,101.23v3.41a3.58,3.58,0,0,0,2.1,2.94,11.24,11.24,0,0,0,10.21,0,3.61,3.61,0,0,0,2.13-3v-3.4a3.61,3.61,0,0,1-2.13,3,11.26,11.26,0,0,1-10.21,0A3.58,3.58,0,0,1,65.26,101.23Z"/><path class="cls-10" d="M67,104.73A11,11,0,0,0,72.45,106v2.1A9.65,9.65,0,0,1,67.69,107a3,3,0,0,1-1.77-2.37v-.71A6.37,6.37,0,0,0,67,104.73Z"/><path class="cls-25" d="M67.39,98.25c-2.83,1.63-2.84,4.28,0,5.91a11.26,11.26,0,0,0,10.21,0c2.83-1.63,2.84-4.28,0-5.91A11.26,11.26,0,0,0,67.39,98.25Z"/></g><g class="cls-1"><path class="cls-13" d="M67.73,96.17v4.75a2.36,2.36,0,0,0,1.38,1.93,7.41,7.41,0,0,0,6.72,0,2.38,2.38,0,0,0,1.4-2V96.15a2.38,2.38,0,0,1-1.4,2,7.41,7.41,0,0,1-6.72,0A2.36,2.36,0,0,1,67.73,96.17Z"/><path class="cls-10" d="M68.78,98.67l-.39-.26v2.5a1.76,1.76,0,0,0,1.05,1.37,5.74,5.74,0,0,0,2.38.69V99.54A7.15,7.15,0,0,1,68.78,98.67Z"/><path class="cls-25" d="M69.13,94.21c-1.86,1.08-1.87,2.82,0,3.89a7.41,7.41,0,0,0,6.72,0c1.86-1.08,1.87-2.82,0-3.89A7.41,7.41,0,0,0,69.13,94.21Z"/></g><g class="cls-1"><path class="cls-13" d="M69.87,9.92l-.65,85.18a1.61,1.61,0,0,0,.95,1.32,5.07,5.07,0,0,0,4.61,0,1.63,1.63,0,0,0,1-1.34L75.09,9.9A1.31,1.31,0,0,1,74.32,11a4.07,4.07,0,0,1-3.69,0A1.3,1.3,0,0,1,69.87,9.92Z"/><path class="cls-10" d="M70.52,22.1l-.64,73c0,.26.23.53.62.76a3.68,3.68,0,0,0,1.36.43V22.48A4.25,4.25,0,0,1,70.52,22.1Z"/><path class="cls-8" d="M63,8.52a5,5,0,0,0-2.15,1.73c-.86,1.28-2.18,1.77-4.12.67l-3.51-2,2.4,5.76-2.9,1.67,3.76,2c2.08,1.09,3.82.11,5.21-1.39.74-.79,1.81-1.18,3.37-.3a32.45,32.45,0,0,1,5.76,3.93l1.44-8.19S65.13,7.57,63,8.52Z"/><path class="cls-26" d="M69.59,11.37V19.6a1.42,1.42,0,0,0,.83,1.17,4.47,4.47,0,0,0,4.06,0,1.43,1.43,0,0,0,.85-1.18V11.35a1.43,1.43,0,0,1-.85,1.18,4.46,4.46,0,0,1-4.06,0A1.42,1.42,0,0,1,69.59,11.37Z"/><path class="cls-8" d="M71.84,20.56a3.79,3.79,0,0,1-1.39-.43l0-6.91a3.79,3.79,0,0,0,1.35.42Z"/><path class="cls-26" d="M67.22,10.05s-3.11.46-3.11,2.78,2.31,4.05,2.31,4.05-4-2.93-5.42,0v-4.6S60.9,7.34,67.22,10.05Z"/><path class="cls-25" d="M70.64,8.84a1.13,1.13,0,0,0,0,2.14,4.07,4.07,0,0,0,3.69,0,1.13,1.13,0,0,0,0-2.14A4.06,4.06,0,0,0,70.64,8.84Z"/></g><g class="cls-1"><path class="cls-13" d="M68.68,7.37v3.8a1.89,1.89,0,0,0,1.1,1.55,5.93,5.93,0,0,0,5.37,0,1.9,1.9,0,0,0,1.12-1.57V7.35a1.9,1.9,0,0,1-1.12,1.57,5.92,5.92,0,0,1-5.37,0A1.88,1.88,0,0,1,68.68,7.37Z"/><path class="cls-10" d="M69.46,9.48a6.09,6.09,0,0,0,3,.73v2.46a4.88,4.88,0,0,1-2.34-.53c-.49-.29-.78-.65-.78-1V9.41Z"/><path class="cls-25" d="M69.8,5.8c-1.49.86-1.5,2.25,0,3.11a5.92,5.92,0,0,0,5.37,0c1.49-.86,1.5-2.25,0-3.11A5.93,5.93,0,0,0,69.8,5.8Z"/></g><circle class="cls-27" cx="72.48" cy="4.87" r="4.87"/><path class="cls-28" d="M72.53,1.86a2.51,2.51,0,0,0-3.29,1.25,2.52,2.52,0,0,0,.58,3.47,2.5,2.5,0,0,0,3.29-1.24A2.52,2.52,0,0,0,72.53,1.86Z"/><path class="cls-26" d="M56.15,80.28s5-10.18,4.23-18.95C59.21,47.65,49,33.43,48.5,32.47c0,0,27.07-6.47,31.82-9.62,13.43-8.9,13.4-16.12,13.4-16.12.51,1,10.71,15.18,11.89,28.86.75,8.77-4.23,18.95-4.23,18.95S96.47,65,88,70.66C76.06,78.56,56.15,80.28,56.15,80.28Z"/><path class="cls-8" d="M60.38,61.34C59.21,47.65,49,33.43,48.5,32.47c0,0,27.07-6.47,31.82-9.62,13.43-8.9,13.4-16.12,13.4-16.12S108,47.37,56.15,80.28C56.15,80.28,61.14,70.1,60.38,61.34Z"/><circle class="cls-27" cx="163.25" cy="31.26" r="3.26"/><path class="cls-10" d="M102.06,68.48a2,2,0,0,0,1-.26l60.47-34.91a2,2,0,1,0-2-3.39L101.08,64.83a2,2,0,0,0,1,3.66Z"/><path class="cls-29" d="M101.08,64.83l60.47-34.91a2,2,0,0,1,2.68.72L100.36,67.5A2,2,0,0,1,101.08,64.83Z"/><circle class="cls-27" cx="100.63" cy="67.25" r="3.26"/><path class="cls-28" d="M100.66,65.23a1.86,1.86,0,1,0,.39,2.33A1.68,1.68,0,0,0,100.66,65.23Z"/><circle class="cls-27" cx="94.37" cy="5.97" r="2.36"/><path class="cls-10" d="M50.16,32.86a1.4,1.4,0,0,0,.71-.19L94.56,7.45A1.42,1.42,0,1,0,93.14,5L49.45,30.22a1.42,1.42,0,0,0,.71,2.64Z"/><path class="cls-29" d="M49.45,30.22,93.14,5a1.42,1.42,0,0,1,1.93.52L48.93,32.16A1.42,1.42,0,0,1,49.45,30.22Z"/><circle class="cls-27" cx="49.13" cy="31.97" r="2.36"/><ellipse class="cls-28" cx="48.5" cy="31.66" rx="1.32" ry="1.08" transform="matrix(0.5, -0.87, 0.87, 0.5, -3.09, 57.97)"/><polygon class="cls-19" points="79.71 121.99 74.17 118.55 94.74 106.6 100.53 109.94 110.16 104.57 110.85 104.97 100.53 110.85 94.62 107.41 75.43 118.55 81.04 121.99 70.72 127.86 69.94 127.4 79.71 121.99"/><path class="cls-19" d="M173.72,173.22s-33.57,6.19-66.31-8.34L66.54,140.61l-.54.31s41.85,24.75,42,24.86S139,180.12,173.72,173.22Z"/><path class="cls-9" d="M87.76,118.24a2,2,0,0,0-.93,1.61c0,.59.42.83.94.53a2,2,0,0,0,.93-1.61C88.69,118.18,88.27,117.94,87.76,118.24Z"/><g class="cls-1"><path class="cls-30" d="M162.25,83.19c1.82-1.13,3.54-.23,3.72,2q.08,1,.12,2a5.59,5.59,0,0,1-.2,1.66,7.94,7.94,0,0,1-1.34,2.69,6.86,6.86,0,0,1-2,1.82l-2.42,1.37c-2,1.14-3.53.22-3.43-2q0-1,0-2a8.05,8.05,0,0,1,3.3-6.18Zm-3.86,8.61c0,1.19.78,1.68,1.83,1.08l2.38-1.37a4,4,0,0,0,1.85-3.26q0-1-.09-2c-.07-1.2-1-1.68-1.94-1.08l-2.25,1.37a4.16,4.16,0,0,0-1.76,3.26q0,1,0,2Z"/><path class="cls-30" d="M162.21,72.11a1.41,1.41,0,0,0-.46,1.43q.41,1.62.73,3.25c.6,3.08,2.7,4.54,5.14,3.55a5.34,5.34,0,0,0,.85-.44,1.52,1.52,0,0,0,.62-1.2,1.21,1.21,0,0,0,0-.25,1,1,0,0,0,0-.14.56.56,0,0,0-.89-.33,3.41,3.41,0,0,1-.78.38c-1.59.52-3-.48-3.41-2.53q-.35-1.63-.78-3.24C163,72.05,162.6,71.84,162.21,72.11Z"/><path class="cls-31" d="M146,101.86a3.19,3.19,0,0,0,2-.45l2.56-1.36a8.36,8.36,0,0,0,4.14-6.16q.05-1,.08-2c0-2.27-1.6-3.19-3.52-2l-2.35,1.37A9.08,9.08,0,0,0,145,97.35q-.11,1-.24,2a3.42,3.42,0,0,0,.06,1.36A9,9,0,0,1,143.07,95c2.72-2,4.77-5.75,4.56-8.88q-.1-1.65-.28-3.3c-.06-.54-.46-.75-.89-.48a1.67,1.67,0,0,0-.68,1.46q.16,1.65.23,3.3a7.92,7.92,0,0,1-2.9,6c.68-8,4.47-17.64,10.09-21.49s12.5-.93,14.17,6.78c-1.59.53-3-.48-3.41-2.53q-.35-1.63-.78-3.24c-.14-.53-.57-.73-1-.47a1.41,1.41,0,0,0-.46,1.43q.41,1.62.73,3.25c.6,3.08,2.7,4.54,5.14,3.55a18.65,18.65,0,0,1-1.72,8.6,5.59,5.59,0,0,0,.2-1.66q0-1-.12-2c-.18-2.27-1.9-3.17-3.72-2L160,84.55a8.05,8.05,0,0,0-3.3,6.18q0,1,0,2c-.09,2.27,1.39,3.18,3.43,2l2.42-1.37a7,7,0,0,0,2-1.75l1.56-.71c1.33-.61,2.34.1,2.29,1.66a6.05,6.05,0,0,1-2.92,4.55,1.74,1.74,0,0,1-2,.08l-1.93-1.67q.18,1.67.28,3.33a9.84,9.84,0,0,1-.4,3.72,5.89,5.89,0,0,1-2.11,1.18,5.85,5.85,0,0,0,.07-.77c0-.11,0-.28,0-.33l-1.86,1c0,.06-.07.25-.11.38s-.19.58-.26.87a8.09,8.09,0,0,1-1.15.7,5.38,5.38,0,0,1-1.09.44,5.3,5.3,0,0,0,.11-.78c0-.11,0-.27,0-.33l-1.89,1c0,.05-.08.25-.13.37s-.21.58-.29.86a8.43,8.43,0,0,1-1.17.7,5.62,5.62,0,0,1-1.11.43,5.45,5.45,0,0,0,.13-.77c0-.11,0-.27,0-.32l-1.92,1c0,.05-.09.25-.14.37s-.23.56-.31.84a8.49,8.49,0,0,1-1.05.61,2.78,2.78,0,0,1-1.13.37,16.82,16.82,0,0,1,1.22-3.85q.79-2,1.46-4-1.41,2-2.94,4a7.66,7.66,0,0,1-2.58,2.21c-1.68.82-2.64.16-2.22-1.47a8.12,8.12,0,0,1,3.28-4.3Zm5.81.28c.11.21.39.23.71.06l1.3-.68a2.22,2.22,0,0,0,1.06-1.45q.17-1.19.3-2.39c0-.44-.19-.67-.56-.57a1,1,0,0,0-.22.09,2.17,2.17,0,0,0-.83.91q-.77,1.54-1.6,3.08a1.11,1.11,0,0,0-.16,1Zm3.49-2.3c-.07.53.26.75.77.48l1.28-.69a2.2,2.2,0,0,0,.84-.9,1.09,1.09,0,0,0,.11-1q-.5-.86-1-1.71c-.13-.22-.41-.24-.72-.07a1.54,1.54,0,0,0-.23.16,2.14,2.14,0,0,0-.74,1.3q-.12,1.2-.29,2.4Z"/></g><g class="cls-1"><path class="cls-30" d="M142.93,102.33a13.76,13.76,0,0,0-3.82,5.89c-.74,2.67.79,3.73,3.59,2.4a10.71,10.71,0,0,0,1.91-1.21c-.44,1.26-.77,2.45-.44,2.83s1.71-.06,2.45-.41a12.13,12.13,0,0,0,2.26-1.4,6.59,6.59,0,0,0,2.16-.69,11.77,11.77,0,0,0,2.37-1.51,6.38,6.38,0,0,0,2.13-.7,11.32,11.32,0,0,0,2.33-1.53,6.09,6.09,0,0,0,2-.66,7.77,7.77,0,0,0,2.78-2.24,7.07,7.07,0,0,0,1-3.42,4.77,4.77,0,0,0,1.63-.57c2.56-1.37,4.8-4.72,4.84-7.46,0-2-1-3.16-2.52-3.07a19.71,19.71,0,0,0,1.53-9.91,1.52,1.52,0,0,1-.62,1.2,5.29,5.29,0,0,1-.85.44,18.65,18.65,0,0,1-1.72,8.6,7.91,7.91,0,0,1-1.34,2.69l1.52-.64c1.33-.61,2.34.11,2.29,1.66a6.06,6.06,0,0,1-2.92,4.55,1.74,1.74,0,0,1-2,.08l-1.93-1.67q.18,1.67.28,3.33a9.84,9.84,0,0,1-.4,3.72,4.94,4.94,0,0,1-1.17.79,4.86,4.86,0,0,1-.95.39,5.85,5.85,0,0,0,.07-.77c0-.11,0-.27,0-.33l-1.86,1c0,.06-.07.25-.11.38-.09.28-.19.58-.26.87a8,8,0,0,1-1.15.7,5.31,5.31,0,0,1-1.09.44,5.3,5.3,0,0,0,.11-.78c0-.11,0-.27,0-.33l-1.89,1c0,.05-.08.25-.13.37-.1.28-.21.58-.29.86a8.43,8.43,0,0,1-1.17.7,5.56,5.56,0,0,1-1.11.43,5.43,5.43,0,0,0,.13-.77c0-.11,0-.27,0-.32l-1.92,1c0,.05-.09.25-.14.37s-.23.56-.31.84a8.54,8.54,0,0,1-1.05.61,2.8,2.8,0,0,1-1.13.37,16.85,16.85,0,0,1,1.22-3.85q.79-2,1.46-4-1.41,2-2.94,4a7.67,7.67,0,0,1-2.58,2.21c-1.68.82-2.64.16-2.22-1.47a8.12,8.12,0,0,1,3.28-4.3l1.74-1.08a1.53,1.53,0,0,1-1.19-1.15A9,9,0,0,1,143.07,95a8.7,8.7,0,0,1-1,.62c-.41.23-.73.11-.79-.26C141.25,98.29,141.74,100.71,142.93,102.33Z"/><path class="cls-30" d="M151.29,89.8c1.93-1.14,3.56-.22,3.52,2q0,1-.08,2a8.36,8.36,0,0,1-4.14,6.16L148,101.41a3.19,3.19,0,0,1-2,.45,1.45,1.45,0,0,1-1.15-1.12,3.42,3.42,0,0,1-.06-1.36q.13-1,.24-2a9.08,9.08,0,0,1,3.89-6.17Zm-4.69,8.61c-.14,1.19.62,1.67,1.73,1.07l2.52-1.36A4.51,4.51,0,0,0,153,94.87q.07-1,.11-2c0-1.2-.8-1.68-1.84-1.08l-2.39,1.37a4.68,4.68,0,0,0-2.08,3.26q-.09,1-.21,2Z"/><path class="cls-30" d="M168.14,78a.56.56,0,0,1,.89.33c0-.18-.06-.35-.09-.53-1.86-9-10.05-12.5-16.31-8.09s-10.49,15.56-11.27,24.76c0,.18,0,.35,0,.52a2.07,2.07,0,0,1,.9-1.3,6,6,0,0,0,.87-.6c.68-8,4.47-17.64,10.09-21.49s12.5-.93,14.17,6.78A3.37,3.37,0,0,0,168.14,78Z"/><path class="cls-30" d="M146.45,82.32a1.67,1.67,0,0,0-.68,1.46q.16,1.65.23,3.3a7.92,7.92,0,0,1-2.9,6,6.08,6.08,0,0,1-.87.6,2.08,2.08,0,0,0-.9,1.3c0,.05,0,.11,0,.16a1,1,0,0,0,0,.22c.06.37.38.49.79.26a8.7,8.7,0,0,0,1-.62c2.72-2,4.77-5.75,4.56-8.88q-.1-1.65-.28-3.3C147.28,82.27,146.88,82.05,146.45,82.32Z"/></g><g class="cls-1"><path class="cls-30" d="M91.2,44.36c1.24-.77,2.41-.15,2.53,1.39q.05.69.08,1.39a3.78,3.78,0,0,1-.13,1.13,5.37,5.37,0,0,1-.91,1.83,4.66,4.66,0,0,1-1.37,1.24l-1.65.93c-1.39.77-2.4.15-2.34-1.39q0-.7,0-1.39a5.48,5.48,0,0,1,2.24-4.2Zm-2.63,5.86c0,.81.53,1.14,1.25.73L91.44,50A2.74,2.74,0,0,0,92.7,47.8c0-.46,0-.93-.06-1.39-.05-.82-.65-1.14-1.32-.73l-1.53.93a2.83,2.83,0,0,0-1.2,2.22q0,.69,0,1.39Z"/><path class="cls-30" d="M91.17,36.83a1,1,0,0,0-.31,1q.27,1.1.5,2.21c.41,2.1,1.83,3.09,3.49,2.41a3.53,3.53,0,0,0,.57-.3,1,1,0,0,0,.42-.82.8.8,0,0,0,0-.17.62.62,0,0,0,0-.1.38.38,0,0,0-.6-.23,2.28,2.28,0,0,1-.53.26c-1.08.36-2-.33-2.32-1.72q-.24-1.11-.53-2.2C91.73,36.79,91.43,36.65,91.17,36.83Z"/><path class="cls-31" d="M80.15,57.06a2.16,2.16,0,0,0,1.38-.31l1.74-.92a5.69,5.69,0,0,0,2.81-4.19q0-.69.05-1.39c0-1.54-1.08-2.17-2.39-1.39l-1.6.93A6.18,6.18,0,0,0,79.49,54q-.07.69-.16,1.38a2.34,2.34,0,0,0,0,.93,6.14,6.14,0,0,1-1.22-3.92,7.62,7.62,0,0,0,3.1-6q-.07-1.12-.19-2.24c0-.37-.31-.51-.61-.33a1.14,1.14,0,0,0-.46,1q.1,1.12.16,2.24a5.38,5.38,0,0,1-2,4.06c.46-5.47,3-12,6.86-14.61s8.5-.63,9.64,4.61c-1.08.36-2-.33-2.32-1.72q-.24-1.11-.53-2.2c-.1-.36-.39-.5-.66-.32a1,1,0,0,0-.31,1q.27,1.1.5,2.21c.41,2.1,1.83,3.09,3.49,2.41a12.69,12.69,0,0,1-1.17,5.85,3.78,3.78,0,0,0,.13-1.13q0-.69-.08-1.39c-.12-1.54-1.29-2.16-2.53-1.39l-1.51.93a5.48,5.48,0,0,0-2.24,4.2q0,.69,0,1.39c-.06,1.54.95,2.16,2.34,1.39l1.65-.93a4.8,4.8,0,0,0,1.34-1.19l1.06-.48c.91-.42,1.59.07,1.56,1.13a4.12,4.12,0,0,1-2,3.1,1.18,1.18,0,0,1-1.37.05l-1.31-1.14q.12,1.13.19,2.27a6.72,6.72,0,0,1-.27,2.53,3.38,3.38,0,0,1-.79.54,3.31,3.31,0,0,1-.64.26,3.71,3.71,0,0,0,0-.52c0-.07,0-.19,0-.22L88,58.31s0,.17-.08.26-.13.39-.18.59a5.42,5.42,0,0,1-.78.48,3.67,3.67,0,0,1-.75.3,3.59,3.59,0,0,0,.07-.53c0-.07,0-.18,0-.22L85,59.83s-.05.17-.09.25-.14.39-.19.59a5.79,5.79,0,0,1-.8.47,3.77,3.77,0,0,1-.75.29,3.56,3.56,0,0,0,.09-.53c0-.07,0-.18,0-.22l-1.3.65-.1.25c-.07.18-.16.38-.21.57a5.46,5.46,0,0,1-.72.41,1.89,1.89,0,0,1-.77.25A11.42,11.42,0,0,1,81,60.21q.54-1.35,1-2.72-1,1.38-2,2.75a5.2,5.2,0,0,1-1.75,1.5c-1.14.56-1.79.11-1.51-1A5.53,5.53,0,0,1,79,57.82Zm4,.19c.08.14.26.16.48,0l.88-.46a1.51,1.51,0,0,0,.72-1q.12-.81.2-1.63c0-.3-.13-.46-.38-.39l-.15.06a1.47,1.47,0,0,0-.56.62q-.52,1-1.09,2.09a.76.76,0,0,0-.11.65Zm2.37-1.56c-.05.36.18.51.52.33l.87-.47a1.49,1.49,0,0,0,.57-.61.74.74,0,0,0,.08-.66l-.69-1.16c-.09-.15-.28-.16-.49,0l-.15.11a1.45,1.45,0,0,0-.51.88q-.09.82-.2,1.63Z"/></g><g class="cls-1"><path class="cls-30" d="M78.06,57.38a9.35,9.35,0,0,0-2.6,4C75,63.21,76,63.93,77.9,63a7.2,7.2,0,0,0,1.3-.82c-.3.86-.53,1.67-.3,1.93s1.16,0,1.67-.28a8.28,8.28,0,0,0,1.54-1,4.49,4.49,0,0,0,1.47-.47,8.08,8.08,0,0,0,1.61-1,4.38,4.38,0,0,0,1.45-.47,7.74,7.74,0,0,0,1.58-1,4.16,4.16,0,0,0,1.34-.45,5.28,5.28,0,0,0,1.89-1.53,4.8,4.8,0,0,0,.68-2.32,3.24,3.24,0,0,0,1.11-.39,6.63,6.63,0,0,0,3.29-5.08c0-1.36-.7-2.15-1.71-2.09a13.39,13.39,0,0,0,1-6.74,1,1,0,0,1-.42.82,3.5,3.5,0,0,1-.57.3,12.69,12.69,0,0,1-1.17,5.85,5.37,5.37,0,0,1-.91,1.83l1-.43c.91-.42,1.59.07,1.56,1.13a4.12,4.12,0,0,1-2,3.1,1.18,1.18,0,0,1-1.37.05l-1.31-1.14q.12,1.13.19,2.27a6.72,6.72,0,0,1-.27,2.53,3.38,3.38,0,0,1-.79.54,3.24,3.24,0,0,1-.64.26,3.71,3.71,0,0,0,0-.52c0-.07,0-.19,0-.22L88,58.31s0,.17-.08.26-.13.39-.18.59a5.45,5.45,0,0,1-.78.48,3.62,3.62,0,0,1-.75.3,3.61,3.61,0,0,0,.07-.53c0-.07,0-.19,0-.22L85,59.83s-.05.17-.09.25-.14.39-.19.59a5.79,5.79,0,0,1-.8.47,3.77,3.77,0,0,1-.75.29,3.56,3.56,0,0,0,.09-.53c0-.07,0-.18,0-.22l-1.3.65-.1.25c-.07.18-.16.38-.21.57a5.5,5.5,0,0,1-.72.41,1.91,1.91,0,0,1-.77.25A11.47,11.47,0,0,1,81,60.21q.54-1.35,1-2.72-1,1.38-2,2.75a5.2,5.2,0,0,1-1.75,1.5c-1.14.56-1.79.11-1.51-1A5.52,5.52,0,0,1,79,57.82l1.18-.74a1,1,0,0,1-.81-.78,6.14,6.14,0,0,1-1.22-3.92,6.08,6.08,0,0,1-.65.42c-.28.15-.5.07-.54-.18A7.76,7.76,0,0,0,78.06,57.38Z"/><path class="cls-30" d="M83.74,48.86c1.31-.77,2.42-.15,2.39,1.39q0,.7-.05,1.39a5.69,5.69,0,0,1-2.81,4.19l-1.74.92a2.16,2.16,0,0,1-1.38.31,1,1,0,0,1-.78-.76,2.34,2.34,0,0,1,0-.93q.09-.69.16-1.38a6.18,6.18,0,0,1,2.65-4.2Zm-3.19,5.85c-.1.81.42,1.13,1.18.73l1.71-.93a3.07,3.07,0,0,0,1.47-2.21q0-.69.07-1.39c0-.81-.54-1.14-1.25-.73l-1.62.93a3.18,3.18,0,0,0-1.41,2.21q-.06.69-.14,1.39Z"/><path class="cls-30" d="M95.2,40.81a.38.38,0,0,1,.6.23c0-.12,0-.24-.06-.36-1.26-6.15-6.83-8.5-11.09-5.5S77.52,45.76,77,52c0,.12,0,.24,0,.36a1.41,1.41,0,0,1,.61-.89,4.12,4.12,0,0,0,.59-.41c.46-5.47,3-12,6.86-14.61s8.5-.63,9.64,4.61A2.24,2.24,0,0,0,95.2,40.81Z"/><path class="cls-30" d="M80.45,43.78a1.14,1.14,0,0,0-.46,1q.1,1.12.16,2.24a5.39,5.39,0,0,1-2,4.06,4.18,4.18,0,0,1-.59.41,1.41,1.41,0,0,0-.61.89s0,.07,0,.11a.7.7,0,0,0,0,.15c0,.25.26.33.54.18a6.08,6.08,0,0,0,.65-.42,7.62,7.62,0,0,0,3.1-6q-.07-1.12-.19-2.24C81,43.74,80.74,43.59,80.45,43.78Z"/></g><polygon class="cls-11" points="99.06 104.66 104.4 107.8 110.16 104.57 104.74 101.39 99.06 104.66"/><path class="cls-26" d="M128.2,28.8s-3.11.46-3.11,2.78,2.31,4.05,2.31,4.05-4-2.93-5.42,0V31S121.88,26.09,128.2,28.8Z"/></g></g></g></svg>