<svg xmlns="http://www.w3.org/2000/svg" viewBox="0 0 251.15 173.55" widht="64" height="64px"><defs><style>.cls-1{isolation:isolate;}.cls-2{mix-blend-mode:multiply;}.cls-3{fill-opacity: 0.4; fill:#e6e7e8;}.cls-4{fill:#d74527;}.cls-5{fill:#de5f25;}.cls-6{fill:#394592;}.cls-7{fill:#f2f2f2;}.cls-8{fill:#57a0d7;opacity:0.6;}.cls-10,.cls-9{fill:#3f4da1;}.cls-10{mix-blend-mode:screen;}</style></defs><title>icn_sandal_pad</title><g class="cls-1"><g id="Слой_2" data-name="Слой 2"><g id="Layer_1" data-name="Layer 1"><g class="cls-2"><path class="cls-3" d="M209.77,53.07c-55.18-31.86-112.12-31.86-167.29,0h0C14.89,69,1.09,85.18,1.09,101.36s13.79,32.36,41.38,48.29c55.18,31.86,112.12,31.86,167.29,0,27.59-15.93,41.38-32.11,41.38-48.29S237.35,69,209.77,53.07Z"/></g><path class="cls-4" d="M192.53,111.16c-50.91,29.39-103.44,29.39-154.35,0C12.73,96.46,0,81.53,0,66.6V88.83c0,14.93,12.73,29.86,38.18,44.56,50.91,29.39,103.44,29.39,154.35,0,25.45-14.69,38.18-29.63,38.18-44.56V66.6C230.71,81.53,218,96.46,192.53,111.16Z"/><path class="cls-5" d="M192.53,22C141.62-7.35,89.08-7.35,38.18,22h0C12.73,36.74,0,51.67,0,66.6s12.73,29.86,38.18,44.56c50.91,29.39,103.44,29.39,154.35,0C218,96.46,230.71,81.53,230.71,66.6S218,36.74,192.53,22Z"/><path class="cls-4" d="M119.19,15c12.48,3.33,20.4,10.65,27.54,17.45s13.35,14,22.34,20c3.69,2.48,45.34,22.63,10.78,34-5.27,1.74-16.85,5.26-27.13-1.73-13-8.86-22.88-19.28-37.09-27.73C101.93,48.87,93.41,50.66,71,34.86,67.08,32.1,59.61,22.2,77.16,16.23A73.75,73.75,0,0,1,119.19,15Zm-78,64.41c6.22,7.08,19.17,11.39,31.19,15.26s24.69,7.19,35.45,12.16c4.42,2,40.8,25.34,59.25,5,2.81-3.11,8.47-9.92-4-15.6-15.81-7.2-34.19-12.5-49.33-20.39-14.58-7.61-11.8-12.6-40-25-4.91-2.15-22.31-6.1-32,4.25C36.26,61,32.82,69.9,41.15,79.39Z"/><path class="cls-6" d="M158.3,46c-8.05-5.4-13.61-11.84-20-17.93s-13.48-12.64-24.66-15.62A66,66,0,0,0,76,13.52c-7.62,2.59-10,6-10,9.13,0,.72,0,3.47,0,4.14,0,3.28,2.65,6.22,4.44,7.49,20.07,14.15,27.7,12.55,40,19.84C123.18,61.68,132,71,143.66,78.95c9.2,6.26,19.57,3.11,24.29,1.55,9-3,12.23-6.6,12.2-10.31,0-.68,0-3.37,0-4C180.16,57.1,160.65,47.53,158.3,46Z"/><path class="cls-6" d="M152.9,85.11c-14.16-6.44-30.62-11.19-44.17-18.26C95.68,60,98.17,55.57,73,44.51c-4.4-1.93-20-5.46-28.64,3.81-2.83,3-5,7-5,11.36,0,.63,0,3.16,0,3.8,0,3.34,1.18,7,4.45,10.69,5.57,6.34,17.17,10.2,27.93,13.66s22.11,6.44,31.74,10.89c4,1.83,36.53,22.69,53,4.45,1.33-1.47,3.37-3.86,3.35-6.54,0-.64,0-3.36,0-4.1C159.82,90.12,158.16,87.5,152.9,85.11Z"/><path class="cls-7" d="M76,13.52C60.3,18.87,67,27.73,70.49,30.2c20.07,14.15,27.7,12.55,40,19.84C123.18,57.6,132,66.93,143.66,74.87c9.2,6.26,19.57,3.11,24.29,1.55C198.9,66.21,161.61,48.17,158.3,46c-8.05-5.4-13.61-11.84-20-17.93s-13.48-12.64-24.66-15.62A66,66,0,0,0,76,13.52Z"/><path class="cls-7" d="M44.31,48.31C53,39,68.56,42.58,73,44.51,98.17,55.57,95.68,60,108.74,66.85c13.55,7.07,30,11.82,44.17,18.26,11.17,5.08,6.1,11.19,3.58,14-16.51,18.24-49.09-2.62-53-4.45-9.63-4.45-21-7.42-31.74-10.89S49.33,76.42,43.77,70.08C36.31,61.58,39.38,53.58,44.31,48.31Z"/><path class="cls-8" d="M84.86,38.94q-1.39-.7-2.89-1.52l42.34-20.56c.91.53,1.77,1.08,2.62,1.65Zm48.77-15.23c-.71-.63-1.45-1.24-2.2-1.86L90.72,41.62c1.15.47,2.25.91,3.32,1.31Zm-15-9.61c-1.12-.45-2.29-.85-3.5-1.22L74.21,32.74c.9.59,1.75,1.13,2.6,1.66Zm-15.94-3.63-34.92,17a12.45,12.45,0,0,0,1.83,2l37.83-18.37C105.81,10.83,104.23,10.61,102.68,10.47ZM180.11,65.8,154,78.49a27.85,27.85,0,0,0,6.46-.21l18.95-9.2A6.18,6.18,0,0,0,180.11,65.8ZM143.33,33,109.4,49.45c.35.2.69.38,1,.59.56.34,1.08.69,1.63,1l33.23-16.14C144.66,34.28,144,33.63,143.33,33Zm-52-22.53a66.4,66.4,0,0,0-8.6,1.25L67,19.33a6.15,6.15,0,0,0-1,3.4Zm48.23,18.83c-.42-.41-.83-.83-1.27-1.24l-.75-.7-37.07,18c1.09.42,2.19.85,3.29,1.33Zm26.2,21.07c-.94-.59-1.84-1.13-2.68-1.62L130.31,64.64l2.26,1.83Zm12.6,10.78A19.3,19.3,0,0,0,176.71,59L143.85,75a21.11,21.11,0,0,0,2.82,1.56Zm-5.51-5.77q-1.13-.93-2.32-1.8L136.89,69.89c.77.6,1.54,1.2,2.33,1.79ZM151.28,40.48q-1.08-.94-2.12-1.9L116.9,54.25c.82.58,1.66,1.14,2.46,1.73ZM158,45.69c-.84-.57-1.58-1.18-2.37-1.78L123.78,59.36l2.27,1.82Zm-72,5.2q-1.23-.7-2.64-1.44L51.52,75.88c.87.48,1.79.93,2.72,1.37Zm7.14,4.58q-1.09-.8-2.38-1.66l-31,25.79c1,.39,2,.75,3,1.12ZM78.11,46.87c-.88-.42-1.84-.86-2.82-1.3L44.73,71a22.67,22.67,0,0,0,2.13,1.87ZM106.3,65.5c-.91-.53-1.72-1.05-2.49-1.57L77.74,85.62l3.19,1Zm-9-6.67L68.57,82.73l3.12,1h0L99.47,60.66ZM69.6,43.43c-1-.28-2.22-.51-3.51-.72L40.2,64.24a15.91,15.91,0,0,0,1.22,2.63ZM58.23,42.36a25.56,25.56,0,0,0-5.54,1L40.94,53.1A14.82,14.82,0,0,0,39.39,58Zm90,40.82c-1-.41-1.93-.82-2.91-1.22l-25,20.77c1,.38,2,.73,3.09,1.07Zm-34-13.77c-.94-.43-1.89-.85-2.81-1.3L86.94,88.49c1.06.34,2.08.69,3.13,1ZM156.31,87a20.14,20.14,0,0,0-2.58-1.49l-24,20c1.2.25,2.4.48,3.61.64Zm-16.52-7.3-3-1.14L112.08,99.14c.89.43,1.81.87,2.8,1.31Zm19.47,15.36a5.75,5.75,0,0,0,.36-3.95l-18.29,15.22a25.58,25.58,0,0,0,5.93-1.3ZM131.12,76.42c-1-.38-2-.78-3-1.17L104.31,95.08,107,96.51ZM122.54,73c-1-.4-2-.77-3-1.17L95.92,91.54c1,.37,1.94.81,2.93,1.21Z"/><path class="cls-9" d="M97,26.57c6.29,11,21.89,31.8,25.39,31,1.88-.45,2.18-.85-.85-5-7.46-10.12-11.43-12.72-20.19-28.9-2.31-4.27-4.59-9.59-1.69-9.43,7.89.44,26.2,8.95,35,14.27,3,1.85,14.91,12,15.72,11,.89-.73-5-8-8.36-10.61-11.79-9.22-26.62-15.51-33.29-17.18-4.92-1.24-12.8-3.32-18.85-1.15C85.14,12.31,84.35,18,84.47,23c0,1.68,4.31,2.89,5.55,1,0,0,.88-5.4,2.27-7.39C93,19.19,94.49,22.22,97,26.57Z"/><path class="cls-9" d="M114.53,67.92c-3.3-4.22-23-17.51-27.77-20.15-5.62-3.1-8.63-5.48-16.79-6.07-6-.43-11.25,7.17-13.43,12-1,2.34,5.13,4.62,6.53,2.18l.62-1.11c11.67,20,25.76,33.56,35.25,37.7,1.27.56,3.34-1.55,2-2.5-8.9-6.53-17.62-13.85-24.12-22.81C73.84,63,68,53.92,70.56,48.4c.74-1.58,3.15-2.61,6.67-1.33,8.1,3,33.65,20.56,37.25,22.78C116.14,70.88,115.47,69.13,114.53,67.92Z"/><path class="cls-10" d="M93.69,10.61c-2.66,1.45,5.68,14.63,8.36,18.78,5.52,8.54,10.58,15.8,19,24.1-3.14-3.39-9.44-12.05-10.24-13.14-.61-.84-11.12-16.44-13.44-22.63-.48-1.28-1-3-.08-4.2,1.39-1.75,5.34-.78,7.35-.45A57.74,57.74,0,0,1,112.52,15a97.73,97.73,0,0,1,10.84,4.17c2.32,1,4.61,2.15,6.87,3.31a60,60,0,0,1,7.71,4.18,96.6,96.6,0,0,0-27-13.46C100.9,10.16,94.54,10.14,93.69,10.61Z"/><path class="cls-10" d="M68,43.56c-4.92,3.89,2.24,17,4.72,20.68C75.34,68.09,89.32,84.49,96,88.05c-2.84-2.78-25.88-22.37-26.73-36.3-.23-3.77,1.06-7,5.45-6.44,6.31.78,16,4.84,34.94,18.86-4.49-3.94-22.89-17.23-30.17-19.71C71.12,41.62,69,42.76,68,43.56Z"/></g></g></g></svg>