<svg xmlns="http://www.w3.org/2000/svg" viewBox="0 0 136.25 222.3" widht="64" height="64px"><defs><style>.cls-1{isolation:isolate;}.cls-2{mix-blend-mode:multiply;}.cls-3{fill:#e6e7e8; fill-opacity: 0.4;}.cls-4{fill:#00a79d;}.cls-5{fill:#00978e;}.cls-6{fill:#fff;}</style></defs><title>icn_card</title><g class="cls-1"><g id="Слой_2" data-name="Слой 2"><g id="Layer_1" data-name="Layer 1"><g class="cls-2"><path class="cls-3" d="M89,192.27c-13.75-7.94-27.94-7.94-41.7,0h0c-6.88,4-10.31,8-10.31,12s3.44,8.07,10.31,12c13.75,7.94,27.94,7.94,41.7,0,6.88-4,10.31-8,10.31-12S95.85,196.24,89,192.27Z"/></g><path class="cls-4" d="M68.12,0A68.11,68.11,0,0,0,17,113.07l26.82,34.56L96.69,6.28A67.84,67.84,0,0,0,68.12,0Z"/><path class="cls-5" d="M68.09,178.74l52.73-67.46a68.12,68.12,0,0,0-24.13-105L43.77,147.64,68,178.86Z"/><path class="cls-6" d="M48.76,56.11c.56,0,2.69-.3,3-.83L63.84,29.65a1.58,1.58,0,1,0-2.79-1.49L47.37,53.79A1.58,1.58,0,0,0,48,55.93,1.55,1.55,0,0,0,48.76,56.11Z"/><path class="cls-6" d="M89.85,56.11a1.58,1.58,0,0,0,1.39-2.33L77.56,28.17a1.58,1.58,0,1,0-2.79,1.49L86.88,55.28C87.16,55.81,89.29,56.11,89.85,56.11Z"/><path class="cls-6" d="M112.41,52.95H26.2c-.87,0-1.58,1.26-1.58,2.81s.71,2.81,1.58,2.81h2.45l11,45.51a3.5,3.5,0,0,0,3.49,3.28H95.43a3.5,3.5,0,0,0,3.49-3.28l11-45.51h2.45c.87,0,1.58-1.25,1.58-2.81S113.28,52.95,112.41,52.95Zm-72.13,6.5h4.89L47,78.17H42.46Zm4.54,39.11L43,83.11h4.45L49,98.56Zm8.74-39.11h4.91l.81,18.72H54.74ZM56,98.56l-1-15.45H59.5l.67,15.45Zm15.35,0H67.24l-.15-15.45h4.44Zm.2-20.39H67l-.18-18.72h4.91Zm11,20.39H78.45l.67-15.45h4.44Zm1.28-20.39H79.33l.81-18.72h4.91Zm9.92,20.39H89.66l1.49-15.45h4.44Zm2.37-20.39H91.62l1.81-18.72h4.9Z"/></g></g></g></svg>