<svg xmlns="http://www.w3.org/2000/svg" viewBox="0 0 251.75 227.21" widht="64" height="64px"><defs><style>.cls-1{isolation:isolate;}.cls-2{mix-blend-mode:multiply;}.cls-3{fill-opacity: 0.4; fill:#e6e7e8;}.cls-4{fill:#f99b1c;}.cls-5{fill:#d74527;}.cls-6{fill:#de5f25;}.cls-7{fill:#39b54a;}.cls-8{fill:#8dc63f;}.cls-9{fill:#fafae6;}</style></defs><title>icn_lime_pad</title><g class="cls-1"><g id="Слой_2" data-name="Слой 2"><g id="Layer_1" data-name="Layer 1"><g class="cls-2"><path class="cls-3" d="M210.27,106.44C155,74.5,97.88,74.5,42.58,106.44h0c-27.65,16-41.48,32.19-41.48,48.41s13.83,32.44,41.48,48.41c55.31,31.93,112.39,31.93,167.7,0,27.65-16,41.48-32.19,41.48-48.41S237.92,122.4,210.27,106.44Z"/></g><path class="cls-4" d="M193,97.62c-51-29.46-103.69-29.46-154.72,0h0C12.76,112.35,0,127.32,0,142.29s12.76,29.93,38.27,44.66c51,29.46,103.69,29.46,154.72,0,25.51-14.73,38.27-29.7,38.27-44.66S218.5,112.35,193,97.62Z"/><path class="cls-5" d="M193,164.66c-51,29.46-103.69,29.46-154.72,0C12.76,149.93,0,135,0,120v22.29c0,15,12.76,29.93,38.27,44.66,51,29.46,103.69,29.46,154.72,0,25.51-14.73,38.27-29.7,38.27-44.66V120C231.26,135,218.5,149.93,193,164.66Z"/><path class="cls-6" d="M193,75.34c-51-29.46-103.69-29.46-154.72,0h0C12.76,90.07,0,105,0,120s12.76,29.93,38.27,44.66c51,29.46,103.69,29.46,154.72,0C218.5,149.93,231.26,135,231.26,120S218.5,90.07,193,75.34Z"/><path class="cls-5" d="M162.77,118.88c20.07,11.59,20.07,30.38,0,42s-52.62,11.59-72.7,0-20.07-30.38,0-42S142.7,107.29,162.77,118.88Z"/><path class="cls-7" d="M173.11,10.42A77.7,77.7,0,0,0,95.41,145h0c21.45,12.39,56.24-7.7,77.7-44.86s21.46-77.33,0-89.72h0Z"/><path class="cls-8" d="M79.32,109.43c0,35,24.59,49.24,54.94,31.72S189.2,81,189.2,46s-24.6-49.24-54.94-31.72S79.32,74.39,79.32,109.43Z"/><path class="cls-9" d="M83.1,107.24c0,32.62,22.9,45.85,51.16,29.54s51.16-56,51.16-88.61S162.51,2.32,134.26,18.63,83.1,74.61,83.1,107.24Z"/><path class="cls-7" d="M160.63,29.45c2.21-3.82,1.87-7.3-.76-7.73l-18.49,1.83c-3,1-5.54,4.75-5.54,8.36V65.84c0,3.61,1.81,3.43,4-.4Z"/><path class="cls-8" d="M132.68,33.73c0-3.61-2.5-4.48-5.54-2L108.65,51.29c-2.63,3.47-3,7.34-.76,8.61l20.78,12c2.21,1.27,4-.63,4-4.24Z"/><path class="cls-8" d="M173.13,53.44c3.12-1.8,5.14-5.85,4.47-9l-7.66-16.93c-1.69-2.06-4.87-.61-7.09,3.21l-20.78,36c-2.21,3.82-1.46,5.48,1.66,3.68Z"/><path class="cls-7" d="M124.77,81.36c3.12-1.8,3.88-4.33,1.66-5.6l-20.78-12c-2.2-1.27-5.4,1-7.08,5L90.92,94.5c-.67,3.91,1.34,5.63,4.47,3.83Z"/><path class="cls-7" d="M132.68,89.57c0-3.61-1.81-3.43-4,.4l-20.78,36c-2.2,3.82-1.87,7.3.76,7.73l18.49-1.83c3-1,5.54-4.75,5.54-8.36Z"/><path class="cls-7" d="M162.86,91.65c2.21,1.27,5.4-1,7.09-5l7.66-25.77c.66-3.91-1.35-5.62-4.47-3.82l-29.38,17c-3.12,1.8-3.88,4.32-1.66,5.59Z"/><path class="cls-8" d="M126.43,88.68c2.21-3.82,1.46-5.47-1.66-3.67L95.39,102c-3.12,1.8-5.13,5.84-4.47,9l7.66,16.93c1.68,2.06,4.87.62,7.08-3.2Z"/><path class="cls-8" d="M135.84,121.69c0,3.61,2.5,4.48,5.54,2l18.49-19.52c2.63-3.47,3-7.34.76-8.62l-20.78-12c-2.21-1.27-4,.63-4,4.24Z"/></g></g></g></svg>