<svg xmlns="http://www.w3.org/2000/svg" viewBox="0 0 136.25 222.3" widht="64" height="64px"><defs><style>.cls-1{isolation:isolate;}.cls-2{fill:#498ebc;}.cls-3{fill:#417ea6;}.cls-4{fill:#fff;}.cls-5{mix-blend-mode:multiply;}.cls-6{fill:#e6e7e8; fill-opacity: 0.4;}</style></defs><title>icn_mask</title><g class="cls-1"><g id="Слой_2" data-name="Слой 2"><g id="Layer_1" data-name="Layer 1"><path class="cls-2" d="M68.12,0A68.11,68.11,0,0,0,17,113.07l26.82,34.56L96.69,6.28A67.84,67.84,0,0,0,68.12,0Z"/><path class="cls-3" d="M68.09,178.74l52.73-67.46a68.12,68.12,0,0,0-24.13-105L43.77,147.64,68,178.86Z"/><path class="cls-4" d="M122.28,81.26A4.57,4.57,0,0,1,119,78.63c-.72-1.92.51-4.09,1.66-5.57,1.78-2.3,2.17-4.26,1.15-5.85-1.74-2.72-6.86-2.13-10.13-1.42l5.24-21.32A46,46,0,0,1,72.62,33.59L70.24,43.3,72.13,53.4c1.55-2.77,4.5-4.74,7.42-4.52,3.52,0,6.92,3.1,7.76,6.85a9.64,9.64,0,0,0-15-1.66Q73.63,61.44,75,68.8a36.46,36.46,0,0,1,.72,5.12C79,71.3,83.2,70,86.89,71.1c4.63.94,8.39,5.36,9.47,10.38a15.44,15.44,0,0,0-10.09-7.87,15.05,15.05,0,0,0-10.49,1.12,38.43,38.43,0,0,1-1.31,12.09,16.17,16.17,0,0,0,7.59,3.93C92.81,93.94,106.76,84,110.62,70a2.19,2.19,0,0,0,1.49.21,19.39,19.39,0,0,1,5.59-.55,8.1,8.1,0,0,1-.51.73c-3.33,4.28-3.09,7.69-2.3,9.8a8.89,8.89,0,0,0,6.53,5.41,2.15,2.15,0,0,0,.43,0,2.2,2.2,0,0,0,.43-4.35ZM107.15,64a9.62,9.62,0,0,0-14.39-6.91c2.48-2.93,6.94-4.12,10-2.47C106,56,107.89,60.22,107.15,64Z"/><path class="cls-4" d="M68,47a46,46,0,0,1-44.83,8.4l4.25,22.67a4.48,4.48,0,0,1-3.9-.08c-1.77-1-2.2-3.49-2.25-5.36-.07-2.9-1-4.67-2.82-5.26-3.24-1.05-7.1,3.17-9.1,5.78a2.2,2.2,0,0,0,3.49,2.67,19.37,19.37,0,0,1,4-4,7.83,7.83,0,0,1,.07.88c.14,5.42,2.48,7.91,4.43,9a8.39,8.39,0,0,0,4.22,1.1,9.14,9.14,0,0,0,2.78-.45C31.9,96,44.84,106.09,55.43,103.57,67,102,75.84,85.95,72.55,71.11Q70.3,59.07,68,47ZM37.57,68.18a9.08,9.08,0,0,0-6.85,5.48C31,70,33.78,66.46,37.16,66c3.32-.77,7.2,1.47,8.78,4.85A9.08,9.08,0,0,0,37.57,68.18ZM53.56,95c-5.92,1.61-12.67-2.15-16.6-8.43,4.44,4,10.48,6,16,4.57,5.59-1,10.6-5.44,13.51-11.1C64.71,87.53,59.57,93.92,53.56,95Zm5.72-30.84a9.08,9.08,0,0,0-6.85,5.48c.25-3.71,3.06-7.2,6.44-7.69,3.32-.77,7.2,1.48,8.78,4.85A9.08,9.08,0,0,0,59.27,64.12Z"/><g class="cls-5"><path class="cls-6" d="M88.49,192.27c-13.75-7.94-27.94-7.94-41.7,0h0c-6.88,4-10.31,8-10.31,12s3.44,8.07,10.31,12c13.75,7.94,27.94,7.94,41.7,0,6.88-4,10.31-8,10.31-12S95.37,196.24,88.49,192.27Z"/></g></g></g></g></svg>