<svg xmlns="http://www.w3.org/2000/svg" viewBox="0 0 251.75 218.09" widht="64" height="64px"><defs><style>.cls-1{isolation:isolate;}.cls-2{mix-blend-mode:multiply;}.cls-3{fill:#e6e7e8; fill-opacity: 0.4;}.cls-4{fill:#f99b1c;}.cls-5{fill:#da9b28;}.cls-6{fill:#f9b418;}.cls-7{fill:#008980;}.cls-8{fill:#00978e;}.cls-9{fill:#00a79d;}.cls-10{fill:#d0b5d7;}.cls-11{fill:url(#radial-gradient);}.cls-12{fill:#010101;}</style><radialGradient id="radial-gradient" cx="-5490.28" cy="1808.34" r="27.25" gradientTransform="matrix(-0.3, -0.52, 0.52, -0.3, -2457.02, -2229.1)" gradientUnits="userSpaceOnUse"><stop offset="0" stop-color="#f0f7f7"/><stop offset="0.26" stop-color="#ecf4f6"/><stop offset="0.54" stop-color="#dfedf3"/><stop offset="0.82" stop-color="#c9e0ee"/><stop offset="1" stop-color="#b8d6ea"/></radialGradient></defs><title>icn_fish_pad</title><g class="cls-1"><g id="Слой_2" data-name="Слой 2"><g id="Layer_1" data-name="Layer 1"><g class="cls-2"><path class="cls-3" d="M210.27,97.32C155,65.39,97.88,65.39,42.58,97.32h0c-27.65,16-41.48,32.19-41.48,48.41s13.83,32.44,41.48,48.41c55.31,31.93,112.39,31.93,167.7,0,27.65-16,41.48-32.19,41.48-48.41S237.92,113.29,210.27,97.32Z"/></g><path class="cls-4" d="M193,88.5C142,59,89.3,59,38.27,88.5h0C12.76,103.23,0,118.2,0,133.17s12.76,29.93,38.27,44.66c51,29.46,103.69,29.46,154.72,0,25.51-14.73,38.27-29.7,38.27-44.66S218.5,103.24,193,88.5Z"/><path class="cls-5" d="M193,155.54C142,185,89.3,185,38.27,155.54,12.76,140.81,0,125.85,0,110.88v22.29c0,15,12.76,29.93,38.27,44.66,51,29.46,103.69,29.46,154.72,0,25.51-14.73,38.27-29.7,38.27-44.66V110.88C231.26,125.85,218.5,140.81,193,155.54Z"/><path class="cls-6" d="M193,66.22c-51-29.46-103.69-29.46-154.72,0h0C12.76,80.95,0,95.91,0,110.88s12.76,29.93,38.27,44.66C89.3,185,142,185,193,155.54c25.51-14.73,38.27-29.7,38.27-44.66S218.5,80.95,193,66.22Z"/><path class="cls-5" d="M169.57,120.11c17.58,11.16,19,26.79,3.18,34.91s-42.89,5.65-60.47-5.51-19-26.79-3.18-34.91S152,108.95,169.57,120.11Z"/><path class="cls-5" d="M78.66,105.62c5.38,5.77,4.4,11.64-2.17,13.1s-16.27-2-21.64-7.8S50.45,99.28,57,97.82,73.29,99.85,78.66,105.62Z"/><path class="cls-7" d="M80.88,63.75l-8.51,4.92A45.35,45.35,0,0,1,71,89.77c-2,7.19-2.79,12.33-4.23,20,0,.15.14-.08,0,0h0c.14-.08,0,.15,0,0C68.19,102.1,77.48,92,79.49,84.85A45.34,45.34,0,0,0,80.88,63.75Z"/><path class="cls-8" d="M159.59,68.89a97.32,97.32,0,0,0-11.43-12A69.48,69.48,0,0,0,136.35,48a38.92,38.92,0,0,0-4.5-2.23l-8.51,4.92a38.74,38.74,0,0,1,4.5,2.23,69.42,69.42,0,0,1,11.82,8.82,97.32,97.32,0,0,1,11.43,12c10.84,13.87,16.6,31.87,16.11,46-.32,9.35-3.48,16.94-9.19,20.24l8.51-4.92c5.71-3.3,8.86-10.89,9.19-20.24C176.19,100.76,170.43,82.76,159.59,68.89Z"/><path class="cls-8" d="M87.33,52a27,27,0,0,1-6.6-1.16l-8.51,4.92a27,27,0,0,0,6.6,1.16c8,.34,14.38-3.27,21.15-5.89l8.51-4.92C101.71,48.7,95.37,52.31,87.33,52Z"/><path class="cls-7" d="M125.47,40c-10.76-8.37-31.16-8.08-39.73-4.71h0c9.49,0,20.47,1.25,31.22,9.62a59.35,59.35,0,0,1,6.38,5.79l8.51-4.92A59.46,59.46,0,0,0,125.47,40Z"/><path class="cls-7" d="M47.15.13c-3.49,11.89,0,13.73,2.44,19.94a91.92,91.92,0,0,0,9.84,18c3.77,5.51,10,11.4,12.8,17.68l8.51-4.92C69,33.39,53.87,24.71,47.15.13Z"/><path class="cls-9" d="M85.74,35.31c9.49,0,20.47,1.25,31.22,9.62a59.33,59.33,0,0,1,6.38,5.79,39,39,0,0,1,4.5,2.23,69.51,69.51,0,0,1,11.82,8.82,97.31,97.31,0,0,1,11.43,12c10.84,13.87,16.6,31.87,16.11,46-.32,9.35-3.48,16.94-9.19,20.24a14.39,14.39,0,0,1-9.74,1.54,24.22,24.22,0,0,1-7.94-2.53c-4.82,4.34-14.9,5.33-22.75-1a.66.66,0,0,1,0-.9h0c3-2.46,6.54-5.6,8-8.11-.63-.52.62.56,0,0-8-7.14-15.07-16.23-21.77-25.56-6-8.38-11.84-17.37-18.55-24.85a43.6,43.6,0,0,0-9.06-8,20.54,20.54,0,0,0-3.82-1.87A45.35,45.35,0,0,1,71,89.77c-2,7.18-2.79,12.33-4.23,20,0,.15.14-.08,0,0s.15.32,0,0C62.89,101.36,61,95.8,61.5,89a52.32,52.32,0,0,0-2.85-21.48C54.24,54.85,45,43.2,41.48,30.45a52.33,52.33,0,0,1-1.55-16.91c.29-5.16,4-11.25,7.22-13.41h0c.14-.08,0-.25,0,0-1.2,6.63,0,13.73,2.44,19.94a92,92,0,0,0,9.84,18c3.77,5.51,10,11.4,12.8,17.68a27,27,0,0,0,6.6,1.16c8,.34,14.38-3.26,21.15-5.89-4.53-5.57-9.33-10.76-14.23-15.68-.16-.16-.11.06,0,0S85.72,35.31,85.74,35.31Zm59,61a3.48,3.48,0,0,0,3.47.37,3,3,0,0,0,1.28-2.76,10.19,10.19,0,0,0-4.75-7.87,3.47,3.47,0,0,0-3.47-.37A3,3,0,0,0,140,88.44,10.19,10.19,0,0,0,144.78,96.31Z"/><path class="cls-8" d="M151,80.07a100.41,100.41,0,0,0-10.82-10.26,79.55,79.55,0,0,0-11.1-7.89h0A46.52,46.52,0,0,0,125,59.79l-.67-.3c-9-3.85-12-3.81-18.64-2.69l-2.79.5c-1.33.23-2.66.51-4,.78a58,58,0,0,1-12.8,1.61,55.7,55.7,0,0,0,11.53-3.9c1.3-.54,2.63-1.11,4-1.62l2.79-1.09-3.17-3.9c-3-3.63-6.13-7.25-9.63-11A44.77,44.77,0,0,1,111.33,44a46.21,46.21,0,0,1,5.19,3.5,55.15,55.15,0,0,1,5.87,5.33l.63.65.67.28a34.84,34.84,0,0,1,4.15,2.05h0A65.62,65.62,0,0,1,139,64.16a91.45,91.45,0,0,1,10.82,11.38A72.11,72.11,0,0,1,159,91.09,67,67,0,0,0,151,80.07Z"/><path class="cls-8" d="M129.65,72.94c-17-9-27.2,1.23-26,.9.65-.18.82-.57,2.35-1.33,2.21-1.09,6.92-3.63,17,.5,15.37,6.33,19.6,18.76,21.71,17,1.39-1.2-2-5.67-3.34-7.31A43.8,43.8,0,0,0,129.65,72.94Z"/><path class="cls-8" d="M129.3,81.4c-11.53-4.3-17.25,4.46-16.53,4.07.4-.22.48-.52,1.4-1.27,1.33-1.09,4.12-3.56,10.85-1.86,10.3,2.6,14,11.1,15.17,9.51.8-1-1.74-3.86-2.7-4.88A25.64,25.64,0,0,0,129.3,81.4Z"/><path class="cls-8" d="M129.73,88.7c-6.82.55-8.08,8.92-7.78,8.4.16-.29.15-.54.47-1.4a7,7,0,0,1,5.27-4.91c5.85-1.41,9.41,3.72,9.72,2.14.21-1-1.65-2.3-2.35-2.75A10,10,0,0,0,129.73,88.7Z"/><path class="cls-10" d="M152.74,97.94c0-5.79-4.07-12.83-9.08-15.72s-9.08-.55-9.08,5.24,4.07,12.84,9.08,15.73S152.74,103.73,152.74,97.94Z"/><path class="cls-11" d="M137.23,81.57a12.84,12.84,0,0,0,12.84,22.24h0c3.55-2,3.55-8.69,0-14.83s-9.29-9.46-12.84-7.41h0Z"/><path class="cls-12" d="M140,98.91a7.84,7.84,0,0,0-3.55-6.14c-2-1.13-3.55-.22-3.55,2a7.84,7.84,0,0,0,3.55,6.14C138.39,102.09,140,101.17,140,98.91Z"/></g></g></g></svg>