<svg xmlns="http://www.w3.org/2000/svg" viewBox="0 0 251.75 209.13" widht="64" height="64px"><defs><style>.cls-1{isolation:isolate;}.cls-2{mix-blend-mode:multiply;}.cls-3{fill:#e6e7e8; fill-opacity: 0.4;}.cls-4{fill:#f99b1c;}.cls-5{fill:#da9b28;}.cls-6{fill:#f9b418;}.cls-7{fill:#f1f2f2;}.cls-8{fill:#3f4da1;}</style></defs><title>icn_ball_pad</title><g class="cls-1"><g id="Слой_2" data-name="Слой 2"><g id="Layer_1" data-name="Layer 1"><g class="cls-2"><path class="cls-3" d="M210.27,88.36C155,56.43,97.88,56.43,42.58,88.36h0c-27.65,16-41.48,32.19-41.48,48.41s13.83,32.44,41.48,48.41c55.31,31.93,112.39,31.93,167.7,0,27.65-16,41.48-32.19,41.48-48.41S237.92,104.33,210.27,88.36Z"/></g><path class="cls-4" d="M193,79.55c-51-29.46-103.69-29.46-154.72,0h0C12.76,94.28,0,109.24,0,124.21s12.76,29.93,38.27,44.66c51,29.46,103.69,29.46,154.72,0,25.51-14.73,38.27-29.7,38.27-44.66S218.5,94.28,193,79.55Z"/><path class="cls-5" d="M193,146.59C142,176,89.3,176,38.27,146.59,12.76,131.86,0,116.89,0,101.92v22.29c0,15,12.76,29.93,38.27,44.66,51,29.46,103.69,29.46,154.72,0,25.51-14.73,38.27-29.7,38.27-44.66V101.92C231.26,116.89,218.5,131.86,193,146.59Z"/><path class="cls-6" d="M193,57.26C142,27.8,89.3,27.8,38.27,57.26h0C12.76,72,0,87,0,101.92s12.76,29.93,38.27,44.66C89.3,176,142,176,193,146.59c25.51-14.73,38.27-29.7,38.27-44.66S218.5,72,193,57.26Z"/><path class="cls-5" d="M167.3,92.34c21.78,12.58,21.78,33,0,45.55s-57.1,12.58-78.89,0-21.78-33,0-45.55S145.52,79.76,167.3,92.34Z"/><circle class="cls-7" cx="116.42" cy="67.4" r="67.4"/><path class="cls-8" d="M183.83,67.4a67.3,67.3,0,0,1-2.19,16.77C169.58,55.39,123,28.59,93.45,32.51,97,71,122.2,109,154.2,123.22a67.35,67.35,0,0,1-64.62,6c-16.35-24-12.74-74.85,3.1-96.7C69.86,47.81,54.4,76.09,56.75,98.69A67,67,0,0,1,52.56,46c7.86-8.86,27.18-15.41,40.29-14.22-8-13-9.29-21-9.46-23.06a67,67,0,0,1,33-8.68c2,0,4,.13,6,.3-8,3-23.16,10.48-28.91,31.27,9-7.49,48.68-18.81,73.7-8.34l.09.07A67.07,67.07,0,0,1,183.83,67.4Z"/></g></g></g></svg>