<svg xmlns="http://www.w3.org/2000/svg" viewBox="0 0 136.25 222.3" widht="64" height="64px"><defs><style>.cls-1{isolation:isolate;}.cls-2{mix-blend-mode:multiply;}.cls-3{fill:#e6e7e8; fill-opacity: 0.4;}.cls-4{fill:#95d0e9;}.cls-5{fill:#87bdd3;}.cls-6{fill:#fff;}</style></defs><title>icn_bed</title><g class="cls-1"><g id="Слой_2" data-name="Слой 2"><g id="Layer_1" data-name="Layer 1"><g class="cls-2"><path class="cls-3" d="M89,192.27c-13.75-7.94-27.94-7.94-41.7,0h0c-6.88,4-10.31,8-10.31,12s3.44,8.07,10.31,12c13.75,7.94,27.94,7.94,41.7,0,6.88-4,10.31-8,10.31-12S95.9,196.24,89,192.27Z"/></g><path class="cls-4" d="M68.12,0A68.11,68.11,0,0,0,17,113.07l26.82,34.56L96.69,6.28A67.84,67.84,0,0,0,68.12,0Z"/><path class="cls-5" d="M68.09,178.74l52.73-67.46a68.12,68.12,0,0,0-24.13-105L43.77,147.64,68,178.86Z"/><rect class="cls-6" x="55.11" y="63.05" width="48.65" height="17.58"/><path class="cls-6" d="M44.07,68.77a7.33,7.33,0,1,0-7.33-7.33A7.33,7.33,0,0,0,44.07,68.77Z"/><path class="cls-6" d="M36.42,80.62H49.86a4,4,0,0,0,4-4V74.4a4,4,0,0,0-4-3.95H36.42a4,4,0,0,0-4,3.95v2.27A4,4,0,0,0,36.42,80.62Z"/><path class="cls-6" d="M112.8,61.45h-2.28a4,4,0,0,0-3.95,4v18H31v-18a4,4,0,0,0-4-4H24.75a4,4,0,0,0-4,4V100a4,4,0,0,0,4,4H27a4,4,0,0,0,4-4v-2.2h75.59V100a4,4,0,0,0,3.95,4h2.28a4,4,0,0,0,4-4V65.4A4,4,0,0,0,112.8,61.45Z"/><polygon class="cls-6" points="68.78 18.32 71.33 23.48 77.03 24.31 72.91 28.34 73.88 34.02 68.78 31.34 63.67 34.02 64.65 28.34 60.52 24.31 66.22 23.48 68.78 18.32"/><polygon class="cls-6" points="90.39 24.77 92.94 29.94 98.65 30.77 94.52 34.79 95.5 40.47 90.39 37.79 85.29 40.47 86.27 34.79 82.14 30.77 87.84 29.94 90.39 24.77"/><polygon class="cls-6" points="47.16 24.77 49.71 29.94 55.42 30.77 51.29 34.79 52.26 40.47 47.16 37.79 42.06 40.47 43.03 34.79 38.9 30.77 44.61 29.94 47.16 24.77"/><polygon class="cls-6" points="29.74 36.38 32.29 41.55 37.99 42.38 33.86 46.41 34.84 52.09 29.74 49.41 24.63 52.09 25.61 46.41 21.48 42.38 27.18 41.55 29.74 36.38"/><polygon class="cls-6" points="107.82 36.06 110.37 41.23 116.07 42.06 111.95 46.09 112.92 51.77 107.82 49.09 102.71 51.77 103.69 46.09 99.56 42.06 105.27 41.23 107.82 36.06"/></g></g></g></svg>