<svg xmlns="http://www.w3.org/2000/svg" viewBox="0 0 136.25 222.3" widht="64" height="64px"><defs><style>.cls-1{isolation:isolate;}.cls-2{mix-blend-mode:multiply;}.cls-3{fill-opacity: 0.4; fill:#e6e7e8;}.cls-4{fill:#04834a;}.cls-5{fill:#056737;}.cls-6{fill:#fff;}</style></defs><title>icn_museum</title><g class="cls-1"><g id="Слой_2" data-name="Слой 2"><g id="Layer_1" data-name="Layer 1"><g class="cls-2"><path class="cls-3" d="M88.8,192.27c-13.75-7.94-27.94-7.94-41.7,0h0c-6.88,4-10.31,8-10.31,12s3.44,8.07,10.31,12c13.75,7.94,27.94,7.94,41.7,0,6.88-4,10.31-8,10.31-12S95.68,196.24,88.8,192.27Z"/></g><path class="cls-4" d="M68.12,0A68.11,68.11,0,0,0,17,113.07l26.82,34.56L96.69,6.28A67.84,67.84,0,0,0,68.12,0Z"/><path class="cls-5" d="M68.09,178.74l52.73-67.46a68.12,68.12,0,0,0-24.13-105L43.77,147.64,68,178.86Z"/><path class="cls-6" d="M109.88,92.18h-5.11V63.09h5.11V57.27H28.42v5.82h5.11V92.18H28.42v5.5h-4.5v6.46h90.45V97.68h-4.49Zm-45.57,0V63.09H74V92.18Zm29.92,0H84.54V63.09h9.69ZM44.07,63.09h9.69V92.18H44.07Z"/><polygon class="cls-6" points="69.14 22.48 23.92 52.85 23.92 55.58 114.37 55.58 114.37 52.85 69.14 22.48"/></g></g></g></svg>