<svg xmlns="http://www.w3.org/2000/svg" viewBox="0 0 251.15 188.12" widht="64" height="64px"><defs><style>.cls-1{isolation:isolate;}.cls-2{mix-blend-mode:multiply;}.cls-3{fill:#ededed;}.cls-33{fill:#ededed; fill-opacity: 0.4;}.cls-4{fill:#d43a16;}.cls-5{fill:#dc5612;}.cls-6{fill:#c6c6c6;}.cls-7{fill:#b2b2b2;}.cls-8{fill:#f6f6f6;}.cls-9{fill:#dadada;}</style></defs><title>icn_dish_pad</title><g class="cls-1"><g id="Слой_2" data-name="Слой 2"><g id="Layer_1" data-name="Layer 1"><g class="cls-2"><path class="cls-3" d="M209.77,67.64c-55.18-31.86-112.12-31.86-167.29,0h0C14.89,83.56,1.09,99.75,1.09,115.93s13.79,32.36,41.38,48.29c55.18,31.86,112.12,31.86,167.29,0,27.59-15.93,41.38-32.11,41.38-48.29S237.35,83.57,209.77,67.64Z"/></g><path class="cls-4" d="M192.53,125.72c-50.91,29.39-103.44,29.39-154.35,0C12.73,111,0,96.1,0,81.17V103.4C0,118.33,12.73,133.26,38.18,148c50.91,29.39,103.44,29.39,154.35,0,25.45-14.69,38.18-29.63,38.18-44.56V81.17C230.71,96.1,218,111,192.53,125.72Z"/><path class="cls-5" d="M192.53,36.61C141.62,7.22,89.08,7.22,38.18,36.61h0C12.73,51.31,0,66.24,0,81.17S12.73,111,38.18,125.72c50.91,29.39,103.44,29.39,154.35,0C218,111,230.71,96.1,230.71,81.17S218,51.31,192.53,36.61Z"/><path class="cls-4" d="M179,54.4c31.46,18.16,31.46,47.61,0,65.78s-82.47,18.16-113.93,0-31.46-47.61,0-65.78S147.55,36.23,179,54.4Z"/><path class="cls-6" d="M160.56,103.74C174.17,95.89,181,85.59,181,75.3V67.86c0,10.3-6.8,20.59-20.41,28.45C133.35,112,89.23,112,62,96.31c-13.6-7.85-20.41-18.15-20.41-28.44V75.3c0,10.29,6.8,20.59,20.41,28.44C89.23,119.46,133.35,119.45,160.56,103.74Z"/><path class="cls-7" d="M160.55,96.31c13.16-7.6,20.4-17.7,20.4-28.44S173.7,47,160.55,39.43,129.9,27.65,111.29,27.65,75.19,31.83,62,39.43s-20.4,17.69-20.4,28.44S48.88,88.71,62,96.3s30.65,11.78,49.25,11.78S147.39,103.9,160.55,96.31Z"/><path class="cls-3" d="M54,67.91a57.28,57.28,0,0,1,114.56,0h0c0,18.26-25.64,33.07-57.28,33.07S54,86.17,54,67.91h0Z"/><circle class="cls-8" cx="111.41" cy="10.63" r="10.63"/><path class="cls-9" d="M126.85,12.77s4.29,66.83-43,84.15c0,0,32.2,11.13,59.1-1.45,0,0,29.66-9.21,25.66-31.36C168.57,64.11,167.22,25.31,126.85,12.77Z"/><path class="cls-9" d="M111.41,0s10.88,14.67-3.86,20.54c0,0,12.06,3.66,14.49-9.9C122,10.63,122.35,1.43,111.41,0Z"/></g></g></g></svg>