<?xml version="1.0" encoding="utf-8"?>

<svg version="1.1" id="Layer_1" xmlns="http://www.w3.org/2000/svg" xmlns:xlink="http://www.w3.org/1999/xlink" x="0px" y="0px"
	 widht="64" height="64px" viewBox="0 0 242.733 167.732" enable-background="new 0 0 242.733 167.732"
	 xml:space="preserve">
<title>icn_sandals_pad</title>
<path fill="#e6e7e8" fill-opacity="0.4" d="M202.737,51.292c-53.326-30.789-108.36-30.789-161.687,0C14.387,66.686,1.056,82.325,1.056,97.967
	c0,15.64,13.331,31.28,39.995,46.675c53.326,30.788,108.36,30.788,161.688,0c26.664-15.393,39.995-31.035,39.995-46.675
	C242.732,82.327,229.4,66.687,202.737,51.292"/>
<polyline fill="none" points="1.056,167.729 242.733,167.729 242.733,28.199 1.056,28.199 1.056,167.729 "/>
<polyline fill="none" points="1.056,167.729 242.733,167.729 242.733,28.199 1.056,28.199 1.056,167.729 "/>
<path fill="#0a6d38" d="M186.075,107.431c-49.2,28.405-99.975,28.405-149.175-0.001C12.301,93.228,0,78.798,0,64.366v21.49
	c0,14.43,12.301,28.859,36.9,43.063c49.2,28.406,99.975,28.406,149.175,0c24.601-14.202,36.9-28.632,36.9-43.063V64.368
	C222.976,78.798,210.676,93.228,186.075,107.431"/>
<path fill="#04834a" d="M186.075,21.304c-49.201-28.405-99.976-28.405-149.176,0C12.3,35.507-0.001,49.937,0,64.366
	c0,14.432,12.301,28.861,36.9,43.063c49.2,28.406,99.975,28.406,149.175,0.002c24.601-14.203,36.9-28.633,36.9-43.063
	C222.976,49.938,210.676,35.507,186.075,21.304"/>
<g opacity="0.6">
	<g>
		<defs>
			<rect id="SVGID_1_" x="34.947" y="12.099" width="152.039" height="103.951"/>
		</defs>
		<clipPath id="SVGID_2_">
			<use xlink:href="#SVGID_1_"  overflow="visible"/>
		</clipPath>
		<path clip-path="url(#SVGID_2_)" fill="#d09c2a" d="M115.197,14.478c12.064,3.218,19.719,10.293,26.615,16.863
			c6.895,6.57,12.899,13.521,21.589,19.35c3.568,2.393,43.818,21.867,10.416,32.884c-5.092,1.681-16.285,5.082-26.219-1.677
			c-12.595-8.567-22.108-18.637-35.848-26.799c-13.237-7.867-21.476-6.138-43.139-21.412c-3.777-2.662-10.998-12.231,5.965-18.002
			C84.225,12.403,99.034,10.167,115.197,14.478 M39.771,76.733c6.01,6.847,18.53,11.006,30.147,14.744
			c11.618,3.74,23.862,6.951,34.263,11.752c4.269,1.973,39.436,24.494,57.261,4.803c2.717-3.001,8.188-9.589-3.866-15.075
			c-15.282-6.956-33.048-12.077-47.675-19.71c-14.092-7.354-11.404-12.174-38.622-24.119c-4.744-2.082-21.562-5.898-30.917,4.107
			C35.04,58.927,31.719,67.56,39.771,76.733"/>
	</g>
</g>
<path fill="#a92123" d="M152.997,44.414c-7.78-5.218-13.157-11.442-19.33-17.325c-6.174-5.883-13.028-12.218-23.831-15.099
	c-14.472-3.86-27.732-1.858-36.371,1.08c-7.368,2.507-9.639,5.815-9.638,8.828c0,0.696-0.001,3.354,0.005,4.004
	c0.028,3.174,2.563,6.015,4.292,7.233c19.398,13.677,26.774,12.129,38.627,19.172c12.303,7.31,20.821,16.324,32.097,23.996
	c8.896,6.051,18.917,3.004,23.477,1.5c8.697-2.867,11.816-6.377,11.789-9.965c-0.005-0.66-0.005-3.252-0.004-3.891
	C174.123,55.185,155.268,45.937,152.997,44.414"/>
<path fill="#a92123" d="M147.78,82.259c-13.683-6.229-29.59-10.814-42.686-17.648c-12.619-6.583-10.212-10.9-34.582-21.595
	c-4.248-1.865-19.307-5.281-27.684,3.677c-2.734,2.926-4.864,6.725-4.826,10.98c0.005,0.609,0.004,3.058-0.007,3.676
	c-0.047,3.23,1.146,6.732,4.305,10.33c5.381,6.131,16.592,9.855,26.994,13.203c10.401,3.348,21.365,6.223,30.677,10.523
	c3.823,1.764,35.311,21.93,51.271,4.299c1.285-1.418,3.255-3.732,3.242-6.324c-0.003-0.617,0.005-3.248-0.001-3.965
	C154.466,87.104,152.863,84.573,147.78,82.259"/>
<path fill="#f2f2f2" d="M73.466,13.07c-15.188,5.167-8.723,13.735-5.341,16.119c19.396,13.677,26.772,12.128,38.626,19.171
	c12.302,7.309,20.821,16.325,32.097,23.996c8.896,6.051,18.917,3.005,23.476,1.501c29.908-9.864-6.132-27.302-9.325-29.442
	c-7.781-5.22-13.157-11.443-19.331-17.326s-13.028-12.219-23.83-15.098C95.363,8.13,82.103,10.132,73.466,13.07"/>
<path fill="#f2f2f2" d="M42.83,46.692c8.377-8.957,23.434-5.542,27.683-3.677C94.882,53.71,92.476,58.026,105.094,64.61
	c13.097,6.834,29.003,11.42,42.688,17.648c10.794,4.912,5.894,10.811,3.461,13.498c-15.96,17.632-47.447-2.534-51.271-4.299
	c-9.312-4.301-20.275-7.176-30.678-10.523C58.893,77.587,47.682,73.862,42.3,67.732C35.09,59.519,38.065,51.788,42.83,46.692"/>
<g opacity="0.6">
	<g>
		<defs>
			<rect id="SVGID_3_" x="38.074" y="10.099" width="136.014" height="92.69"/>
		</defs>
		<clipPath id="SVGID_4_">
			<use xlink:href="#SVGID_3_"  overflow="visible"/>
		</clipPath>
		<path clip-path="url(#SVGID_4_)" fill="#f04a33" d="M82.016,37.637c-0.898-0.45-1.83-0.94-2.795-1.47l40.923-19.873
			c0.877,0.509,1.713,1.047,2.533,1.597L82.016,37.637z M129.146,22.915c-0.688-0.607-1.403-1.203-2.126-1.795L87.676,40.228
			c1.107,0.457,2.175,0.876,3.212,1.268L129.146,22.915z M114.645,13.624c-1.081-0.435-2.216-0.823-3.387-1.182L71.723,31.644
			c0.868,0.572,1.695,1.094,2.514,1.605L114.645,13.624z M99.234,10.116l-33.75,16.39c0.55,0.772,1.167,1.437,1.765,1.971
			l36.562-17.757C102.267,10.467,100.733,10.251,99.234,10.116 M174.078,63.598l-25.253,12.265c2.198,0.194,4.311,0.074,6.245-0.207
			l18.312-8.893C173.93,65.723,174.137,64.663,174.078,63.598 M138.524,31.866L105.737,47.79c0.339,0.19,0.668,0.365,1.014,0.57
			c0.545,0.324,1.046,0.668,1.576,0.998l32.121-15.6C139.81,33.126,139.158,32.499,138.524,31.866 M88.279,10.096
			c-2.965,0.239-5.75,0.657-8.308,1.209l-15.187,7.374c-0.689,1.102-0.954,2.211-0.942,3.285L88.279,10.096z M134.89,28.292
			c-0.41-0.399-0.807-0.805-1.223-1.203c-0.237-0.225-0.483-0.453-0.722-0.68L97.121,43.807c1.058,0.403,2.115,0.822,3.183,1.281
			L134.89,28.292z M160.211,48.659c-0.906-0.566-1.78-1.094-2.59-1.569l-31.677,15.385c0.725,0.59,1.454,1.179,2.183,1.767
			L160.211,48.659z M172.386,59.079c-0.461-0.691-0.993-1.377-1.594-2.051l-31.767,15.426c0.899,0.599,1.811,1.078,2.725,1.504
			L172.386,59.079z M167.059,53.501c-0.73-0.598-1.479-1.178-2.244-1.737l-32.51,15.789c0.747,0.579,1.489,1.161,2.253,1.733
			L167.059,53.501z M146.215,39.124c-0.695-0.604-1.377-1.217-2.046-1.832l-31.183,15.144c0.794,0.556,1.605,1.104,2.375,1.673
			L146.215,39.124z M152.66,44.161c-0.811-0.553-1.524-1.146-2.286-1.717L119.63,57.376c0.739,0.582,1.467,1.172,2.196,1.76
			L152.66,44.161z M83.034,49.188c-0.795-0.451-1.646-0.917-2.553-1.396L49.79,73.333c0.844,0.459,1.727,0.898,2.632,1.328
			L83.034,49.188z M89.938,53.614c-0.704-0.518-1.47-1.054-2.299-1.607L57.683,76.933c0.961,0.372,1.946,0.729,2.931,1.082
			L89.938,53.614z M75.493,45.295c-0.855-0.406-1.782-0.83-2.722-1.257L43.227,68.622c0.633,0.627,1.307,1.233,2.056,1.81
			L75.493,45.295z M102.736,63.304c-0.88-0.516-1.666-1.02-2.406-1.518L75.132,82.753c1.03,0.316,2.048,0.644,3.079,0.959
			L102.736,63.304z M94.029,56.858L66.276,79.952c1.008,0.332,2.019,0.66,3.019,0.982c0.007,0.003,0.015,0.005,0.022,0.008
			l26.819-22.316C95.436,58.046,94.741,57.458,94.029,56.858 M67.265,41.971c-1.013-0.267-2.144-0.495-3.396-0.694L38.854,62.091
			c0.311,0.838,0.674,1.682,1.18,2.539L67.265,41.971z M56.281,40.94c-1.79,0.124-3.587,0.409-5.354,0.936l-11.355,9.447
			c-0.751,1.489-1.299,3.08-1.499,4.768L56.281,40.94z M143.309,80.393c-0.936-0.394-1.867-0.792-2.817-1.176L116.368,99.29
			c0.976,0.363,1.973,0.703,2.988,1.033L143.309,80.393z M110.42,67.081c-0.909-0.418-1.828-0.826-2.717-1.26L84.025,85.522
			c1.021,0.324,2.015,0.67,3.023,1.006L110.42,67.081z M151.071,84.104c-0.69-0.487-1.543-0.969-2.496-1.444l-23.202,19.308
			c1.155,0.247,2.32,0.46,3.489,0.616L151.071,84.104z M135.109,77.046c-0.964-0.37-1.935-0.737-2.904-1.104l-23.886,19.875
			c0.861,0.42,1.754,0.84,2.705,1.27L135.109,77.046z M153.931,91.895c0.508-1.177,0.739-2.471,0.352-3.813l-17.676,14.707
			c1.969-0.18,3.879-0.618,5.736-1.252L153.931,91.895z M126.724,73.854c-0.969-0.367-1.91-0.758-2.875-1.129l-23.035,19.167
			c0.629,0.336,1.502,0.813,2.563,1.388L126.724,73.854z M118.43,70.585c-0.951-0.381-1.93-0.739-2.869-1.131L92.708,88.468
			c0.975,0.361,1.879,0.783,2.831,1.165L118.43,70.585z"/>
	</g>
</g>
<path fill="#ef4524" d="M93.742,25.679c6.078,10.588,21.152,30.734,24.541,29.916c1.818-0.438,2.107-0.822-0.817-4.791
	c-7.206-9.777-11.044-12.29-19.517-27.93c-2.233-4.125-4.439-9.271-1.636-9.115c7.627,0.424,25.32,8.647,33.813,13.789
	c2.946,1.785,14.413,11.608,15.19,10.674c0.857-0.701-4.866-7.74-8.078-10.252c-11.397-8.913-25.732-14.99-32.173-16.609
	c-4.752-1.195-12.375-3.211-18.218-1.107c-4.564,1.644-5.325,7.158-5.212,12.008c0.032,1.625,4.161,2.795,5.36,0.98
	c0,0,0.846-5.217,2.189-7.145C89.887,18.55,91.327,21.472,93.742,25.679"/>
<path fill="#ef4524" d="M110.688,65.646c-3.186-4.081-22.217-16.924-26.839-19.479c-5.431-3-8.336-5.297-16.23-5.867
	c-5.77-0.416-10.876,6.932-12.984,11.633c-1.013,2.26,4.962,4.464,6.311,2.104c0.056-0.098,0.534-0.954,0.604-1.071
	c11.277,19.349,24.893,32.433,34.065,36.44c1.23,0.538,3.232-1.497,1.98-2.417c-8.601-6.314-17.034-13.387-23.308-22.046
	c-2.923-4.031-8.564-12.83-6.087-18.161c0.711-1.529,3.049-2.523,6.443-1.285c7.831,2.855,32.523,19.869,36.006,22.018
	C112.252,68.503,111.603,66.816,110.688,65.646"/>
<g>
	<g>
		<defs>
			<rect id="SVGID_5_" x="90.049" y="10.039" width="43.271" height="41.66"/>
		</defs>
		<clipPath id="SVGID_6_">
			<use xlink:href="#SVGID_5_"  overflow="visible"/>
		</clipPath>
		<path clip-path="url(#SVGID_6_)" fill="#ef4524" d="M90.549,10.253c-2.571,1.402,5.489,14.141,8.083,18.152
			c5.337,8.255,10.226,15.27,18.327,23.294c-3.038-3.272-9.125-11.647-9.894-12.698c-0.591-0.808-10.751-15.893-12.988-21.873
			c-0.463-1.234-0.994-2.904-0.079-4.058c1.339-1.688,5.157-0.752,7.101-0.437c2.592,0.422,5.144,1.07,7.648,1.851
			c3.576,1.116,7.063,2.503,10.48,4.034c2.242,1.004,4.453,2.076,6.64,3.195c2.451,1.256,5.216,2.434,7.452,4.043
			c-7.531-5.42-17.202-10.324-26.099-13.011C97.518,9.816,91.375,9.802,90.549,10.253"/>
	</g>
</g>
<g>
	<g>
		<defs>
			<rect id="SVGID_7_" x="64.122" y="41.22" width="41.833" height="43.879"/>
		</defs>
		<clipPath id="SVGID_8_">
			<use xlink:href="#SVGID_7_"  overflow="visible"/>
		</clipPath>
		<path clip-path="url(#SVGID_8_)" fill="#ef4524" d="M65.755,42.097c-4.758,3.762,2.162,16.42,4.558,19.984
			c2.508,3.729,16.01,19.574,22.437,23.021c-2.745-2.688-25.007-21.62-25.83-35.086c-0.222-3.641,1.025-6.747,5.263-6.225
			c6.101,0.752,15.427,4.674,33.773,18.23c-4.341-3.807-22.12-16.652-29.157-19.049C68.735,40.228,66.73,41.326,65.755,42.097"/>
	</g>
</g>
</svg>
