<svg xmlns="http://www.w3.org/2000/svg" xmlns:xlink="http://www.w3.org/1999/xlink" viewBox="0 0 250.76 202.78" widht="64" height="64px"><defs><style>.cls-1{isolation:isolate;}.cls-2{mix-blend-mode:multiply;}.cls-3{fill:#e6e7e8; fill-opacity: 0.4;}.cls-4{fill:#f99b1c;}.cls-5{fill:#da9b28;}.cls-6{fill:#f9b418;}.cls-7{fill:#754c29;}.cls-8{fill:url(#radial-gradient);}.cls-9{fill:url(#radial-gradient-2);}.cls-10{fill:url(#radial-gradient-3);}.cls-11{fill:#603913;}.cls-12{fill:#c7c4c4;}.cls-13{fill:url(#radial-gradient-4);}.cls-14{fill:url(#radial-gradient-5);}.cls-15{fill:url(#radial-gradient-6);}.cls-16{fill:url(#radial-gradient-7);}.cls-17{fill:url(#radial-gradient-8);}.cls-18{fill:url(#radial-gradient-9);}.cls-19{fill:url(#radial-gradient-10);}.cls-20{fill:url(#radial-gradient-11);}</style><radialGradient id="radial-gradient" cx="-2762.2" cy="-2329.77" r="27.43" gradientTransform="translate(10561.07 8887.9) scale(3.8)" gradientUnits="userSpaceOnUse"><stop offset="0" stop-color="#fffcfd"/><stop offset="0.24" stop-color="#fcf9fa"/><stop offset="0.43" stop-color="#f2eff0"/><stop offset="0.6" stop-color="#e2dfe0"/><stop offset="0.75" stop-color="#cac8c9"/><stop offset="0.9" stop-color="#adabab"/><stop offset="1" stop-color="#959494"/></radialGradient><radialGradient id="radial-gradient-2" cx="-2736.9" cy="-2331.28" r="7.67" gradientTransform="translate(10561.07 8887.9) scale(3.8)" gradientUnits="userSpaceOnUse"><stop offset="0" stop-color="#72431a"/><stop offset="0.1" stop-color="#78461c"/><stop offset="0.3" stop-color="#7b471d"/><stop offset="0.3" stop-color="#7b471d"/><stop offset="0.55" stop-color="#6a3815"/><stop offset="0.74" stop-color="#643312"/><stop offset="1" stop-color="#37140f"/></radialGradient><radialGradient id="radial-gradient-3" cx="-2743.35" cy="-2336.41" r="18.13" xlink:href="#radial-gradient"/><radialGradient id="radial-gradient-4" cx="-2744.74" cy="-2314.12" r="3.92" xlink:href="#radial-gradient"/><radialGradient id="radial-gradient-5" cx="-2742.54" cy="-2314.62" r="3.98" xlink:href="#radial-gradient"/><radialGradient id="radial-gradient-6" cx="-2740.71" cy="-2315.23" r="3.63" xlink:href="#radial-gradient"/><radialGradient id="radial-gradient-7" cx="-2739.05" cy="-2316.37" r="3.84" xlink:href="#radial-gradient"/><radialGradient id="radial-gradient-8" cx="-2737.45" cy="-2317.17" r="2.87" xlink:href="#radial-gradient"/><radialGradient id="radial-gradient-9" cx="-2736.68" cy="-2318.19" r="2.85" xlink:href="#radial-gradient"/><radialGradient id="radial-gradient-10" cx="-2735.41" cy="-2319.13" r="2.61" xlink:href="#radial-gradient"/><radialGradient id="radial-gradient-11" cx="-2734.25" cy="-2320.34" r="2.24" xlink:href="#radial-gradient"/></defs><title>icn_ball_rugby_pad</title><g class="cls-1"><g id="Слой_2" data-name="Слой 2"><g id="Layer_1" data-name="Layer 1"><g class="cls-2"><path class="cls-3" d="M209.44,82.49c-55.09-31.81-111.94-31.81-167,0h0C14.86,98.39,1.09,114.55,1.09,130.71S14.86,163,42.41,178.93c55.09,31.81,111.94,31.81,167,0,27.55-15.9,41.32-32.06,41.32-48.22S237,98.4,209.44,82.49Z"/></g><path class="cls-4" d="M192.23,73.71c-50.83-29.35-103.28-29.35-154.11,0h0C12.71,88.38,0,103.29,0,118.2S12.71,148,38.12,162.69C88.95,192,141.4,192,192.23,162.69c25.41-14.67,38.12-29.58,38.12-44.49S217.64,88.38,192.23,73.71Z"/><path class="cls-5" d="M192.23,140.49c-50.83,29.34-103.28,29.34-154.11,0C12.71,125.81,0,110.91,0,96v22.2C0,133.11,12.71,148,38.12,162.69,88.95,192,141.4,192,192.23,162.69c25.41-14.67,38.12-29.58,38.12-44.49V96C230.35,110.91,217.64,125.81,192.23,140.49Z"/><path class="cls-6" d="M192.23,51.51c-50.83-29.35-103.28-29.35-154.11,0h0C12.71,66.18,0,81.09,0,96s12.71,29.82,38.12,44.49c50.83,29.35,103.28,29.35,154.11,0,25.41-14.67,38.12-29.58,38.12-44.49S217.64,66.18,192.23,51.51Z"/><path class="cls-5" d="M171.68,73.77c28.47,16.44,28.47,43.08,0,59.52s-74.62,16.44-103.09,0-28.47-43.08,0-59.52S143.21,57.34,171.68,73.77Z"/><path class="cls-7" d="M180.83,63.44a34,34,0,0,1-2,12.09c0,.09-.09.22-.13.31-12.53,32-46.89,54.46-82.75,50.83,10-.88,16.82-9.56,16.82-23.91,0-10.71-3.76-22.58-9.83-33.12S88.43,49.89,79.13,44.54c-14.3-8.28-26.52-5-31.39,6.77C60.49,18.41,96.49-4.21,133.37.66a.26.26,0,0,1,.18,0c1.95.27,3.85.58,5.71,1a.17.17,0,0,1,.13,0,37.19,37.19,0,0,1,7.84,3.45q1.26.73,2.52,1.59C158,12.26,165.46,20.76,171,30.32s9.16,20.37,9.7,30.28C180.78,61.58,180.83,62.51,180.83,63.44Z"/><path class="cls-8" d="M112.78,102.76c0,14.35-6.77,23-16.82,23.91,0,0,0,0-.09,0h0c-.75,0-1.55-.13-2.3-.22A61.35,61.35,0,0,1,83,124.14a.61.61,0,0,0-.27-.09,53.75,53.75,0,0,1-9.87-4.43,20.51,20.51,0,0,0,3.76,1,0,0,0,0,0,0,0c9.34,1.5,16-5,16-17.13,0-7.75-2.7-16.29-7.08-23.91S75.15,65.39,68.46,61.49c-10.49-6-19.39-3.5-22.8,5.27a24.45,24.45,0,0,0-1.46,8.72A55.38,55.38,0,0,1,47.47,52c.09-.22.18-.49.27-.71,4.87-11.78,17.09-15.05,31.39-6.77,9.3,5.36,17.71,14.57,23.82,25.1S112.78,92,112.78,102.76Z"/><path class="cls-9" d="M181.63,45.64A54.6,54.6,0,0,0,175.07,28,53.1,53.1,0,0,0,161.52,12.3,157.67,157.67,0,0,1,178,26.25,153.37,153.37,0,0,1,181.63,45.64Z"/><path class="cls-7" d="M92.72,103.51c0,12.18-6.69,18.64-16,17.13a0,0,0,0,1,0,0,20.51,20.51,0,0,1-3.76-1s-.09,0-.13,0a77.31,77.31,0,0,1-7.44-4.78c-1.86-1.33-3.85-2.83-5.89-4.52-3.36-2.75-7-5.93-10.58-9.43a132.55,132.55,0,0,1-3.94-18.28v-.09c-.35-2.43-.58-4.74-.71-7v0a24.45,24.45,0,0,1,1.46-8.72C49.07,58,58,55.47,68.46,61.49,75.15,65.39,81.26,72,85.64,79.6S92.72,95.76,92.72,103.51Z"/><path class="cls-10" d="M178.84,75.53a34,34,0,0,0,2-12.09c0-.93,0-1.86-.13-2.83-.53-9.92-4.16-20.68-9.7-30.28S158,12.26,149.75,6.81q-1.26-.86-2.52-1.59a37.19,37.19,0,0,0-7.84-3.45,55.38,55.38,0,0,1,18.51,8.1c.35.22.75.44,1.11.71.71.44,1.37.93,2.08,1.42l.44.31A53.1,53.1,0,0,1,175.07,28a54.6,54.6,0,0,1,6.55,17.67,1.81,1.81,0,0,1,0,.49,26.1,26.1,0,0,1,.35,3.19C183.13,59.5,182.16,67,178.84,75.53Z"/><path class="cls-11" d="M128.33,0s25.89,73.22-14.55,126.7c0,0,50-2.81,67.46-56.33,0,0,3.87-48.35-40.85-68.6Z"/><g id="_Группа_" data-name="&lt;Группа&gt;"><path class="cls-12" d="M127.49,97l2.29-.62c1.44-.41,3.56-.93,6-1.66,2.26-.93,5-1.71,7.79-3.08l4.31-2.11c1.42-.8,2.81-1.72,4.23-2.59a36.81,36.81,0,0,0,4.06-2.87,41.71,41.71,0,0,0,3.76-3l3.38-3L166.16,75c1.81-1.79,3.15-3.46,4.15-4.56l1.55-1.76,0,0a1.56,1.56,0,0,1,2.39,2l-1.48,1.88c-1,1.18-2.22,2.95-4,4.9l-2.78,3.21L162.7,84a45,45,0,0,1-3.79,3.43,40.63,40.63,0,0,1-4.15,3.3c-1.46,1-2.9,2.08-4.38,3l-4.49,2.53C143,98,139.94,99,137.48,100.19c-4.92,1.71-8.18,2.76-8.18,2.76h0A3.12,3.12,0,1,1,127.35,97Z"/></g><path class="cls-13" d="M134.13,105.53a2.21,2.21,0,0,1-1.29-4c.1-.73-1.4-4.88-3-6.07a2.21,2.21,0,0,1,2.61-3.57c2.39,1.74,4.63,6.42,4.61,9.62a4.21,4.21,0,0,1-1.63,3.62A2.23,2.23,0,0,1,134.13,105.53Z"/><path class="cls-14" d="M142.32,102.44a2.09,2.09,0,0,1-1.23-3.77c.09-.69-1.37-4.59-2.91-5.69a2.09,2.09,0,0,1,2.42-3.4c2.27,1.62,4.44,6,4.45,9a3.94,3.94,0,0,1-1.5,3.43A2.08,2.08,0,0,1,142.32,102.44Z"/><path class="cls-15" d="M148.68,99.15a2,2,0,0,1-1.18-3.53c.07-.65-1.34-4.29-2.8-5.31a2,2,0,1,1,2.24-3.23c2.15,1.49,4.24,5.58,4.29,8.42a3.71,3.71,0,0,1-1.37,3.25A2,2,0,0,1,148.68,99.15Z"/><path class="cls-16" d="M154.43,94.77a1.84,1.84,0,0,1-1.12-3.29c.06-.61-1.32-4-2.69-4.92a1.84,1.84,0,1,1,2-3.05c2,1.37,4,5.18,4.13,7.83a3.47,3.47,0,0,1-1.24,3.06A1.83,1.83,0,0,1,154.43,94.77Z"/><path class="cls-17" d="M159.79,90.2a1.71,1.71,0,0,1-1.07-3c0-.57-1.29-3.71-2.59-4.54A1.72,1.72,0,1,1,158,79.73,10.89,10.89,0,0,1,162,87a3.23,3.23,0,0,1-1.1,2.87A1.7,1.7,0,0,1,159.79,90.2Z"/><path class="cls-18" d="M164.19,85.73a1.59,1.59,0,0,1-1-2.81,8.26,8.26,0,0,0-2.48-4.17,1.59,1.59,0,1,1,1.68-2.7,10.1,10.1,0,0,1,3.81,6.63,3,3,0,0,1-1,2.68A1.61,1.61,0,0,1,164.19,85.73Z"/><path class="cls-19" d="M168.27,81.36a1.47,1.47,0,0,1-1-2.57A7.6,7.6,0,0,0,164.93,75a1.47,1.47,0,1,1,1.49-2.53,9.32,9.32,0,0,1,3.65,6,2.77,2.77,0,0,1-.84,2.49A1.46,1.46,0,0,1,168.27,81.36Z"/><path class="cls-20" d="M171.92,76.15a1.34,1.34,0,0,1-.91-2.33,7,7,0,0,0-2.27-3.41,1.34,1.34,0,0,1-.52-1.82,1.36,1.36,0,0,1,1.82-.52,8.51,8.51,0,0,1,3.49,5.43,2.54,2.54,0,0,1-.71,2.29A1.34,1.34,0,0,1,171.92,76.15Z"/></g></g></g></svg>