<svg xmlns="http://www.w3.org/2000/svg" widht="64" height="64px" viewBox="0 0 29.95 51.05"><defs><style>.cls-1{fill:url(#radial-gradient);filter:url(#luminosity-invert);}.cls-2{fill:#04834a;}.cls-3{fill:#056737;}.cls-4{mask:url(#mask);}.cls-5{fill:#1d1d1b;opacity:0.2;}.cls-6{fill:#fff;}</style><radialGradient id="radial-gradient" cx="79.24" cy="511082.47" r="12.09" gradientTransform="translate(-87.84 -218952.97) scale(1.3 0.43)" gradientUnits="userSpaceOnUse"><stop offset="0.06"/><stop offset="0.88" stop-color="#fff"/></radialGradient><filter id="luminosity-invert" filterUnits="userSpaceOnUse" color-interpolation-filters="sRGB"><feColorMatrix values="-1 0 0 0 1 0 -1 0 0 1 0 0 -1 0 1 0 0 0 1 0"/></filter><mask id="mask" x="1.15" y="34.41" width="27.65" height="22.91" maskUnits="userSpaceOnUse"><ellipse class="cls-1" cx="14.98" cy="45.87" rx="13.83" ry="11.45"/></mask></defs><title>museum</title><g id="Слой_2" data-name="Слой 2"><g id="Layer_1" data-name="Layer 1"><path class="cls-2" d="M15,0A15,15,0,0,0,3.73,24.86l5.9,7.6L21.26,1.38A14.91,14.91,0,0,0,15,0Z"/><path class="cls-3" d="M15,39.29,26.56,24.47A15,15,0,0,0,21.26,1.38L9.62,32.46l5.33,6.86Z"/><g class="cls-4"><ellipse class="cls-5" cx="14.98" cy="45.87" rx="13.83" ry="5.18"/></g><path class="cls-6" d="M5.63,9.68V11h1v1.29H7v8H6.6v1.29h-1v1.29H24.95V21.58H24V20.29h-.43v-8H24V11h1V9.68L15.29,5.14ZM16.16,20.29h-.56v-8h.56Zm-1.74-8H15v8h-.56Zm-5,8H8.85v-8H9.4Zm-1.74-8h.56v8H7.66Zm2.8,9.32V20.29H10v-8h.43V11h2.9v1.29h.43v8h-.43v1.29Zm10.72-9.32h.56v8h-.56Zm1.74,8h-.56v-8h.56ZM20.12,11v1.29h.43v8h-.43v1.29h-2.9V20.29h-.43v-8h.43V11ZM16.2,8.32a.91.91,0,1,1-.91-.91A.91.91,0,0,1,16.2,8.32Z"/></g></g></svg>