<svg xmlns="http://www.w3.org/2000/svg" widht="64" height="64px" viewBox="0 0 30.01 51.15"><defs><style>.cls-1{fill:url(#radial-gradient);filter:url(#luminosity-invert);}.cls-2{fill:#f9b600;}.cls-3{fill:#dd9c00;}.cls-4{mask:url(#mask);}.cls-5{fill:#26231e;opacity:0.2;}.cls-6{fill:#fff;}</style><radialGradient id="radial-gradient" cx="67.92" cy="511060.23" r="12.11" gradientTransform="translate(-73.13 -218943.35) scale(1.3 0.43)" gradientUnits="userSpaceOnUse"><stop offset="0.06"/><stop offset="0.88" stop-color="#fff"/></radialGradient><filter id="luminosity-invert" filterUnits="userSpaceOnUse" color-interpolation-filters="sRGB"><feColorMatrix values="-1 0 0 0 1 0 -1 0 0 1 0 0 -1 0 1 0 0 0 1 0"/></filter><mask id="mask" x="1.15" y="34.48" width="27.71" height="22.95" maskUnits="userSpaceOnUse"><ellipse class="cls-1" cx="15.01" cy="45.96" rx="13.85" ry="11.48"/></mask></defs><title>people</title><g id="Слой_2" data-name="Слой 2"><g id="Layer_1" data-name="Layer 1"><path class="cls-2" d="M15,0A15,15,0,0,0,3.74,24.91l5.91,7.61L21.3,1.38A14.94,14.94,0,0,0,15,0Z"/><path class="cls-3" d="M15,39.37,26.61,24.51A15,15,0,0,0,21.3,1.38L9.64,32.52,15,39.4Z"/><g class="cls-4"><ellipse class="cls-5" cx="15.01" cy="45.96" rx="13.85" ry="5.19"/></g><circle class="cls-6" cx="16.81" cy="8.82" r="1.61"/><circle class="cls-6" cx="11.63" cy="7.08" r="1.71"/><path class="cls-6" d="M13.87,21.14H12.45l.83-3.06-.19,0a1.54,1.54,0,0,1-.46-.08h0a1,1,0,0,1-.6-.51,1.63,1.63,0,0,1,0-1.15c.05-.19.92-3.17,1.34-4.5a2.45,2.45,0,0,1,2.12-1.59,2.42,2.42,0,0,0-2.1-1H9.9a2.2,2.2,0,0,0-2.4,2.27c0,2.42,0,4.95,0,4.95s0,1.1.73,1.1c0,0,.76.09.76-.9s0-4.13,0-4.13S9,12,9.2,12s.19.21.19.51S9.39,25,9.39,25s-.12,1.44,1,1.44a1,1,0,0,0,1-1.08c0-.66,0-7.32,0-7.32s0-.51.22-.51.22.51.22.51,0,6.66,0,7.32a1,1,0,0,0,1,1.08c1.13,0,1-1.44,1-1.44S13.87,23.27,13.87,21.14Z"/><circle class="cls-6" cx="20.34" cy="15.86" r="0.96"/><path class="cls-6" d="M23.22,20.92a8.86,8.86,0,0,0-1.62-3.72.43.43,0,0,0-.23-.14l-.15,0v0l-.05,0a8.08,8.08,0,0,0-1.87,0h0a.43.43,0,0,0-.23.14,8.86,8.86,0,0,0-1.62,3.72.43.43,0,0,0,.32.51h.09a.43.43,0,0,0,.42-.34,9.67,9.67,0,0,1,1-2.73,1.14,1.14,0,0,1,0,.21L18.11,23h1.19v2.52s0,.92.45.92c.3,0,.52-.18.52-.76s0-2.69,0-2.69h.16s0,2.11,0,2.69.22.76.52.76c.48,0,.45-.92.45-.92V23h1.19l-1.19-4.38a1.14,1.14,0,0,1,0-.21,9.67,9.67,0,0,1,1,2.73.43.43,0,0,0,.42.34h.09A.43.43,0,0,0,23.22,20.92Z"/><path class="cls-6" d="M18.56,23.44H17.48l.41-1.53h0l-.19,0A.9.9,0,0,1,17,20.81a9.22,9.22,0,0,1,1.72-3.93.89.89,0,0,1,.4-.27,1.43,1.43,0,0,1-.07-1.41l-.5-1.84c-.11-.39-.06-.38,0-.4s.3.48.3.48l.42,1.46a1.44,1.44,0,0,1,1.08-.49l.22,0c-.26-.87-.55-1.83-.74-2.44-.43-1.37-2.29-1.3-2.29-1.3H16.08s-1.86-.08-2.29,1.3-1.34,4.5-1.34,4.5-.3.87.33,1.07c.44.14.79,0,1-.58l1-3.54s.16-.5.3-.48.09,0,0,.4-2,7.3-2,7.3h2v4.2s-.05,1.54.75,1.54c.51,0,.87-.29.87-1.26s0-4.48,0-4.48h.26s0,3.51,0,4.48.36,1.26.87,1.26c.81,0,.75-1.54.75-1.54Z"/></g></g></svg>