<svg xmlns="http://www.w3.org/2000/svg" viewBox="0 0 152.86 124.74"><defs><style>.cls-1{isolation:isolate;}.cls-2{mix-blend-mode:multiply;}.cls-3{fill:#ededed; fill-opacity: 0.4;}.cls-4{fill:#dd9c00;}.cls-5{fill:#f9b600;}.cls-6{fill:#162d44;}.cls-7{fill:#fcfdfe;}.cls-8{fill:#1a3d65;}.cls-9{fill:#6aaede;}.cls-10{fill:#193e65;}</style></defs><title>icn_laptop_pad</title><g class="cls-1"><g id="Слой_2" data-name="Слой 2"><g id="Layer_1" data-name="Layer 1"><g class="cls-2"><path class="cls-3" d="M127.67,51.41C94.09,32,59.43,32,25.85,51.41h0C9.06,61.11.66,71,.66,80.81s8.4,19.7,25.19,29.39c33.58,19.39,68.24,19.39,101.82,0,16.79-9.69,25.19-19.54,25.19-29.39S144.46,61.11,127.67,51.41Z"/></g><path class="cls-4" d="M117.18,86.77c-31,17.89-63,17.89-93.94,0C7.75,77.82,0,68.73,0,59.65V73.18c0,9.09,7.75,18.17,23.24,27.12,31,17.89,63,17.89,93.94,0,15.49-8.94,23.24-18,23.24-27.12V59.65C140.42,68.73,132.67,77.82,117.18,86.77Z"/><path class="cls-5" d="M117.18,32.53c-31-17.89-63-17.89-93.94,0h0C7.74,41.47,0,50.56,0,59.65S7.75,77.82,23.24,86.76c31,17.89,63,17.89,93.94,0,15.49-8.94,23.24-18,23.24-27.12S132.67,41.47,117.18,32.53Z"/><path class="cls-4" d="M118.25,62,88.53,44.77a5.61,5.61,0,0,0-5.09,0L31.77,74.6c-1.4.81-1.41,2.13,0,2.95L61.47,94.82a5.62,5.62,0,0,0,5.09,0L118.23,65C119.63,64.18,119.64,62.85,118.25,62Z"/><path class="cls-6" d="M33.49,71.18,61.9,87.69a5.37,5.37,0,0,0,4.86,0L82,78.9l-4.11-2.39V75.39L75.06,77l-.4-.23v.47l-6.15,3.53-.39-.23V81L60,85.66l-3.76-2.19v-1l-.86.49-1.26-.74-2.5-1.46-4.35-2.55V77l-1.09.63-3.76-2.2v-1l-.84.48-3.76-2.2h0V69.88l3.93-2.26.75.44v-.87l3.94-2.26.75.44V64.5l3.93-2.26.76.44v-.87l3.93-2.26.75.44v-.87l3.93-2.26.75.44v-.87l3.94-2.26.75.44v-.87l3.94-2.26.75.44V51l3.94-2.26.75.44v-.87l3.94-2.26L83,48.29v1l.94-.54-2.16-1.26h0V44.64l3.93-2.26,3.76,2.2v1l.84-.48L94,47.27v1l.84-.48L98.65,50v1l.84-.48,3.75,2.2v1l.87-.5,3.75,2.19v2.82h0l-8.34,4.79-.49-.29v.57l-5.59,3.21,4.06,2.36v1.12l18.63-10.75a1.72,1.72,0,0,0,1-1.42q0,1.41,0,2.82a1.72,1.72,0,0,1-1,1.42L66.77,90.5a5.37,5.37,0,0,1-4.86,0L33.5,74a1.7,1.7,0,0,1-1-1.4q0-1.41,0-2.82A1.71,1.71,0,0,0,33.49,71.18Z"/><polygon class="cls-7" points="75.29 48.35 79.05 50.55 82.98 48.29 79.23 46.09 75.29 48.35"/><polygon class="cls-7" points="80.6 50.63 84.36 52.83 94.05 47.27 90.29 45.07 80.6 50.63"/><polygon class="cls-7" points="70.61 51.05 74.36 53.24 78.3 50.98 74.54 48.78 70.61 51.05"/><polygon class="cls-7" points="87.68 51.9 91.44 54.1 98.65 49.95 94.89 47.76 87.68 51.9"/><polygon class="cls-7" points="65.92 53.73 69.68 55.93 73.61 53.67 69.86 51.48 65.92 53.73"/><polygon class="cls-7" points="83.23 54.45 87 56.65 90.93 54.39 87.17 52.2 83.23 54.45"/><polygon class="cls-7" points="71.45 55.89 75.2 58.09 79.14 55.83 75.38 53.63 71.45 55.89"/><polygon class="cls-7" points="89.81 56.01 93.56 58.21 103.25 52.64 99.5 50.45 89.81 56.01"/><polygon class="cls-7" points="61.24 56.42 65 58.62 68.93 56.36 65.17 54.17 61.24 56.42"/><polygon class="cls-7" points="78.81 56.99 82.57 59.19 86.5 56.93 82.74 54.74 78.81 56.99"/><polygon class="cls-7" points="95.78 57.94 99.54 60.13 107.87 55.34 104.12 53.15 95.78 57.94"/><polygon class="cls-7" points="66.97 58.46 70.73 60.66 74.66 58.4 70.9 56.2 66.97 58.46"/><polygon class="cls-7" points="85.33 58.58 89.09 60.78 93.02 58.52 89.26 56.32 85.33 58.58"/><polygon class="cls-7" points="74.38 59.54 78.14 61.73 82.08 59.47 78.32 57.28 74.38 59.54"/><polygon class="cls-7" points="80.95 61.1 84.71 63.29 88.64 61.03 84.89 58.84 80.95 61.1"/><polygon class="cls-7" points="51.87 61.81 55.63 64 59.57 61.74 55.8 59.55 51.87 61.81"/><polygon class="cls-7" points="89.14 61.75 92.9 63.95 99.05 60.41 95.29 58.22 89.14 61.75"/><polygon class="cls-7" points="69.96 62.08 73.72 64.28 77.65 62.02 73.89 59.82 69.96 62.08"/><polygon class="cls-7" points="76.53 63.64 80.28 65.83 84.22 63.58 80.46 61.38 76.53 63.64"/><polygon class="cls-7" points="47.19 64.5 50.95 66.69 54.88 64.43 51.12 62.24 47.19 64.5"/><polygon class="cls-7" points="65.53 64.62 69.29 66.82 73.22 64.56 69.46 62.36 65.53 64.62"/><polygon class="cls-7" points="53.54 66.18 57.29 68.38 61.23 66.12 57.47 63.92 53.54 66.18"/><polygon class="cls-7" points="72.15 66.15 75.91 68.35 79.84 66.09 76.08 63.89 72.15 66.15"/><polygon class="cls-7" points="42.5 67.19 46.26 69.38 50.2 67.12 46.44 64.93 42.5 67.19"/><polygon class="cls-7" points="37.82 69.87 41.58 72.07 45.51 69.81 41.75 67.61 37.82 69.87"/><polygon class="cls-7" points="61.11 67.17 64.86 69.36 68.8 67.1 65.04 64.91 61.11 67.17"/><polygon class="cls-7" points="49.06 68.75 52.82 70.95 56.75 68.69 52.99 66.49 49.06 68.75"/><polygon class="cls-7" points="67.57 68.78 71.33 70.98 75.27 68.72 71.51 66.52 67.57 68.78"/><polygon class="cls-7" points="56.68 69.71 60.43 71.9 64.37 69.64 60.61 67.45 56.68 69.71"/><polygon class="cls-7" points="63.2 71.29 66.95 73.49 70.89 71.23 67.13 69.03 63.2 71.29"/><polygon class="cls-7" points="52.25 72.25 56.01 74.44 59.95 72.19 56.19 69.99 52.25 72.25"/><polygon class="cls-7" points="42.42 72.56 46.17 74.76 52.27 71.26 48.51 69.07 42.42 72.56"/><polygon class="cls-7" points="58.77 73.84 62.53 76.03 66.46 73.77 62.7 71.58 58.77 73.84"/><polygon class="cls-7" points="77.88 73.69 83.45 76.93 97.53 68.8 91.96 65.56 77.88 73.69"/><polygon class="cls-7" points="64.75 75.76 68.5 77.95 74.65 74.43 70.89 72.23 64.75 75.76"/><polygon class="cls-7" points="47.27 75.4 51.62 77.94 54.12 79.4 55.38 80.14 62.02 76.33 58.26 74.13 56.22 75.3 51.86 72.76 47.27 75.4"/><path class="cls-8" d="M82.9,39.84a5.36,5.36,0,0,1,4.86,0l28.41,16.51c1.33.78,1.33,2,0,2.82L66.77,87.69a5.37,5.37,0,0,1-4.86,0L33.49,71.18c-1.33-.78-1.33-2,0-2.82Zm.55,37.09L97.53,68.8,92,65.56,77.88,73.69l5.57,3.24Zm8.89-12.66-3.75-2.2L71.29,72l3.76,2.2,17.28-9.93ZM54.12,79.4l1.26.74L62,76.32l-3.76-2.2-2,1.17-4.36-2.54-4.6,2.64,4.36,2.54,2.5,1.46ZM80.6,50.63l3.76,2.2L94,47.27l-3.76-2.2L80.6,50.63ZM89.81,56l3.76,2.19,9.69-5.56-3.75-2.2L89.81,56Zm18.07-.67-3.75-2.19-8.34,4.79,3.76,2.19,8.34-4.79ZM68.11,78.18,64.36,76l-8.11,4.66L60,82.84l8.11-4.66ZM87.68,51.9l3.76,2.2L98.65,50l-3.76-2.2L87.68,51.9ZM99,60.41l-3.76-2.2-6.15,3.53,3.76,2.2L99,60.41Zm-24.39,14-3.76-2.2-6.15,3.53L68.5,78l6.15-3.53ZM52.27,71.26l-3.76-2.19-6.1,3.5,3.76,2.2,6.1-3.5Zm7.67.93L56.19,70l-3.94,2.26L56,74.44l3.94-2.26Zm16.58-8.55,3.76,2.2,3.94-2.26-3.76-2.2-3.94,2.26ZM61.24,56.42,65,58.62l3.94-2.26-3.76-2.19-3.94,2.26Zm6.34,12.36L71.33,71l3.94-2.26-3.76-2.2-3.94,2.26ZM53,66.49l-3.94,2.26,3.76,2.2,3.93-2.26L53,66.49Zm22.3-18.14,3.76,2.2L83,48.29l-3.75-2.2-3.94,2.26Zm.09,5.28-3.93,2.26,3.75,2.2,3.94-2.26-3.76-2.2Zm9.95,4.95,3.76,2.2L93,58.52l-3.76-2.2-3.94,2.26ZM57.47,63.92l-3.93,2.26,3.75,2.2,3.94-2.26-3.76-2.2Zm4.48-2.57L58,63.61l3.76,2.2,3.94-2.26-3.76-2.2Zm4.48-2.57L62.49,61l3.76,2.2L70.19,61l-3.76-2.19ZM37.82,69.88l3.76,2.2,3.94-2.26-3.76-2.2-3.93,2.26Zm4.68-2.69,3.76,2.2,3.94-2.26-3.76-2.19L42.5,67.19Zm48.43-12.8-3.76-2.2-3.94,2.26L87,56.65l3.94-2.26ZM73.22,64.56l-3.76-2.2-3.94,2.26,3.76,2.2,3.94-2.26ZM86.5,56.93l-3.76-2.2L78.81,57l3.76,2.2,3.94-2.26ZM68.8,67.1,65,64.91l-3.93,2.26,3.76,2.2L68.8,67.1ZM51.87,61.81,55.63,64l3.94-2.26-3.76-2.2-3.93,2.26Zm12.5,7.83-3.76-2.19-3.93,2.26,3.76,2.2,3.94-2.26ZM70.6,51l3.76,2.19L78.3,51l-3.76-2.2L70.6,51Zm11.47,8.43-3.76-2.2-3.93,2.26,3.76,2.2,3.93-2.26ZM77.65,62l-3.76-2.2L70,62.08l3.76,2.2L77.65,62Zm-1.72-8.7,3.76,2.2,3.93-2.26-3.76-2.2-3.94,2.26ZM47.19,64.5l3.76,2.2,3.93-2.26-3.76-2.2L47.19,64.5Zm16,6.8L67,73.49l3.93-2.26L67.13,69,63.2,71.29ZM70.9,56.21,67,58.46l3.76,2.2,3.93-2.26-3.76-2.2Zm1.25,9.95,3.76,2.2,3.93-2.26-3.76-2.2-3.93,2.26ZM58.77,73.84,62.53,76l3.94-2.26-3.76-2.2-3.93,2.26Zm7.15-20.1,3.76,2.2,3.93-2.26-3.76-2.2-3.94,2.26ZM85.69,42.38l-3.93,2.26,3.76,2.19,3.94-2.26-3.76-2.2ZM56.55,59.12l3.76,2.19,3.94-2.26-3.76-2.2-3.93,2.26Zm24.4,2,3.76,2.2L88.64,61l-3.76-2.19L81,61.1Z"/><polygon class="cls-7" points="81.76 44.64 85.51 46.84 89.45 44.58 85.69 42.38 81.76 44.64"/><polygon class="cls-7" points="75.92 53.32 79.69 55.52 83.62 53.26 79.86 51.06 75.92 53.32"/><polygon class="cls-7" points="56.55 59.12 60.31 61.31 64.25 59.05 60.49 56.86 56.55 59.12"/><polygon class="cls-7" points="62.49 61.03 66.25 63.23 70.19 60.97 66.43 58.78 62.49 61.03"/><polygon class="cls-7" points="58.01 63.61 61.77 65.8 65.71 63.55 61.95 61.35 58.01 63.61"/><polygon class="cls-7" points="71.29 72 75.06 74.19 92.34 64.27 88.58 62.07 71.29 72"/><polygon class="cls-7" points="56.25 80.64 60 82.84 68.11 78.18 64.36 75.98 56.25 80.64"/><path class="cls-6" d="M30.71,28.85,80.1.33A1.72,1.72,0,0,1,81.84.17l2.44,1.42a1.72,1.72,0,0,0-1.74.17L80,3.23a.63.63,0,0,1,.2.08h0l1.45.84,1,.57a1,1,0,0,1,.43.94l.09,30.09a3.21,3.21,0,0,1-1.46,2.52L80.5,37.6h0l1.15.67L34.23,65.66a1,1,0,0,1-1,.1L30.8,64.37v3a1.71,1.71,0,0,0,.71,1.56l-1.22-.71-1.22-.71a1.71,1.71,0,0,1-.72-1.56l-.09-32.86A5.38,5.38,0,0,1,30.71,28.85Z"/><path class="cls-9" d="M34.13,32.2,81.56,4.82c.81-.46,1.46-.08,1.47.84l.09,30.09a3.21,3.21,0,0,1-1.46,2.52L34.23,65.66c-.8.46-1.47.09-1.47-.83l-.09-30.09A3.23,3.23,0,0,1,34.13,32.2Z"/><path class="cls-10" d="M30.71,34.48l.09,32.86c0,1.54,1.11,2.17,2.45,1.4L82.65,40.22A5.39,5.39,0,0,0,85.08,36L85,3.14C85,1.6,83.88,1,82.54,1.75L33.14,30.27A5.37,5.37,0,0,0,30.71,34.48Zm2,.26a3.23,3.23,0,0,1,1.46-2.53L81.56,4.82l.22-.11.07,0,.21-.05a1,1,0,0,1,.26,0,.73.73,0,0,1,.33.12l0,0,.06.06a.87.87,0,0,1,.16.23,1.26,1.26,0,0,1,.09.27,1.49,1.49,0,0,1,0,.15c0,.05,0,.11,0,.17l.09,30.09a3,3,0,0,1-.43,1.43,3.47,3.47,0,0,1-.22.33,3.16,3.16,0,0,1-.38.43l-.22.18-.16.11-.05,0L67.57,46.41,34.23,65.66a.94.94,0,0,1-1.22,0,1.17,1.17,0,0,1-.25-.79Z"/></g></g></g></svg>