<svg xmlns="http://www.w3.org/2000/svg" xmlns:xlink="http://www.w3.org/1999/xlink" viewBox="0 0 152.86 123.86"><defs><style>.cls-1{isolation:isolate;}.cls-2{mix-blend-mode:multiply;}.cls-3{fill:#e6e7e8; fill-opacity: 0.4;}.cls-4{fill:#f99b1c;}.cls-5,.cls-8{fill:#1760aa;}.cls-6{fill:#0079bd;}.cls-7{fill:#eae3dc;}.cls-10,.cls-11,.cls-12,.cls-13,.cls-14,.cls-15,.cls-16,.cls-17,.cls-19,.cls-20,.cls-21,.cls-22,.cls-23,.cls-24,.cls-25,.cls-26,.cls-27,.cls-28,.cls-29,.cls-30,.cls-31,.cls-32,.cls-33,.cls-34,.cls-35,.cls-36,.cls-37,.cls-38,.cls-39,.cls-40,.cls-41,.cls-42,.cls-43,.cls-44,.cls-45,.cls-46,.cls-47,.cls-48,.cls-49,.cls-50,.cls-51,.cls-52,.cls-53,.cls-54,.cls-55,.cls-56,.cls-57,.cls-58,.cls-59,.cls-60,.cls-61,.cls-62,.cls-63,.cls-64,.cls-65,.cls-67,.cls-68,.cls-7,.cls-8,.cls-9{fill-rule:evenodd;}.cls-9{fill:#05572e;}.cls-10,.cls-18{fill:#da9b28;}.cls-11{fill:#aa7f38;}.cls-12{fill:#fff;}.cls-13{fill:#f9b418;}.cls-14{fill:#bc7f2b;}.cls-15{fill:url(#GradientFill_8);}.cls-16{fill:#056737;}.cls-17{fill:#040404;}.cls-19{fill:#04834a;}.cls-20{fill:#efeae7;}.cls-21{fill:#705f61;}.cls-22{fill:#ec5a3a;}.cls-23{fill:#afada8;}.cls-24{fill:url(#GradientFill_57);}.cls-25{fill:url(#linear-gradient);}.cls-26{fill:url(#linear-gradient-2);}.cls-27{fill:url(#linear-gradient-3);}.cls-28{fill:url(#linear-gradient-4);}.cls-29{fill:url(#linear-gradient-5);}.cls-30{fill:url(#linear-gradient-6);}.cls-31{fill:url(#linear-gradient-7);}.cls-32{fill:url(#linear-gradient-8);}.cls-33{fill:url(#linear-gradient-9);}.cls-34{fill:url(#linear-gradient-10);}.cls-35{fill:url(#linear-gradient-11);}.cls-36{fill:url(#linear-gradient-12);}.cls-37{fill:url(#linear-gradient-13);}.cls-38{fill:url(#linear-gradient-14);}.cls-39{fill:url(#linear-gradient-15);}.cls-40{fill:url(#linear-gradient-16);}.cls-41{fill:url(#linear-gradient-17);}.cls-42{fill:url(#linear-gradient-18);}.cls-43{fill:url(#linear-gradient-19);}.cls-44{fill:url(#linear-gradient-20);}.cls-45{fill:url(#GradientFill_78);}.cls-46{fill:url(#linear-gradient-21);}.cls-47{fill:url(#linear-gradient-22);}.cls-48{fill:url(#linear-gradient-23);}.cls-49{fill:url(#linear-gradient-24);}.cls-50{fill:url(#linear-gradient-25);}.cls-51{fill:url(#linear-gradient-26);}.cls-52{fill:url(#linear-gradient-27);}.cls-53{fill:url(#linear-gradient-28);}.cls-54{fill:url(#linear-gradient-29);}.cls-55{fill:url(#linear-gradient-30);}.cls-56{fill:url(#linear-gradient-31);}.cls-57{fill:url(#linear-gradient-32);}.cls-58{fill:url(#linear-gradient-33);}.cls-59{fill:url(#linear-gradient-34);}.cls-60{fill:url(#linear-gradient-35);}.cls-61{fill:url(#linear-gradient-36);}.cls-62{fill:url(#linear-gradient-37);}.cls-63{fill:url(#linear-gradient-38);}.cls-64{fill:url(#linear-gradient-39);}.cls-65{fill:url(#linear-gradient-40);}.cls-66,.cls-67{fill:#473a3d;}.cls-68{fill:url(#GradientFill_14);}</style><linearGradient id="GradientFill_8" x1="54.68" y1="65.42" x2="90.96" y2="66.06" gradientUnits="userSpaceOnUse"><stop offset="0" stop-color="#eae3dc"/><stop offset="1" stop-color="#beb9b1"/></linearGradient><linearGradient id="GradientFill_57" x1="41.1" y1="31.78" x2="43.6" y2="36.28" gradientUnits="userSpaceOnUse"><stop offset="0" stop-color="#afada8"/><stop offset="1" stop-color="#eae3dc"/></linearGradient><linearGradient id="linear-gradient" x1="41.11" y1="31.79" x2="43.6" y2="36.28" gradientUnits="userSpaceOnUse"><stop offset="0" stop-color="#b1aea9"/><stop offset="1" stop-color="#eae3dc"/></linearGradient><linearGradient id="linear-gradient-2" x1="41.11" y1="31.8" x2="43.6" y2="36.28" gradientUnits="userSpaceOnUse"><stop offset="0" stop-color="#b2b0ab"/><stop offset="1" stop-color="#eae3dc"/></linearGradient><linearGradient id="linear-gradient-3" x1="41.11" y1="31.81" x2="43.6" y2="36.28" gradientUnits="userSpaceOnUse"><stop offset="0" stop-color="#b4b2ac"/><stop offset="1" stop-color="#eae3dc"/></linearGradient><linearGradient id="linear-gradient-4" x1="41.12" y1="31.82" x2="43.61" y2="36.28" gradientUnits="userSpaceOnUse"><stop offset="0" stop-color="#b6b3ae"/><stop offset="1" stop-color="#eae3dc"/></linearGradient><linearGradient id="linear-gradient-5" x1="41.12" y1="31.83" x2="43.61" y2="36.28" gradientUnits="userSpaceOnUse"><stop offset="0" stop-color="#b8b5b0"/><stop offset="1" stop-color="#eae3dc"/></linearGradient><linearGradient id="linear-gradient-6" x1="41.12" y1="31.84" x2="43.61" y2="36.28" gradientUnits="userSpaceOnUse"><stop offset="0" stop-color="#bab7b1"/><stop offset="1" stop-color="#eae3dc"/></linearGradient><linearGradient id="linear-gradient-7" x1="41.13" y1="31.85" x2="43.61" y2="36.28" gradientUnits="userSpaceOnUse"><stop offset="0" stop-color="#bcb8b3"/><stop offset="1" stop-color="#eae3dc"/></linearGradient><linearGradient id="linear-gradient-8" x1="41.13" y1="31.86" x2="43.62" y2="36.27" gradientUnits="userSpaceOnUse"><stop offset="0" stop-color="#bebab4"/><stop offset="1" stop-color="#eae3dc"/></linearGradient><linearGradient id="linear-gradient-9" x1="41.14" y1="31.87" x2="43.62" y2="36.27" gradientUnits="userSpaceOnUse"><stop offset="0" stop-color="#bfbbb6"/><stop offset="1" stop-color="#eae3dc"/></linearGradient><linearGradient id="linear-gradient-10" x1="41.14" y1="31.88" x2="43.62" y2="36.27" gradientUnits="userSpaceOnUse"><stop offset="0" stop-color="#c1bdb7"/><stop offset="1" stop-color="#eae3dc"/></linearGradient><linearGradient id="linear-gradient-11" x1="41.14" y1="31.89" x2="43.62" y2="36.27" gradientUnits="userSpaceOnUse"><stop offset="0" stop-color="#c3bfb9"/><stop offset="1" stop-color="#eae3dc"/></linearGradient><linearGradient id="linear-gradient-12" x1="41.15" y1="31.9" x2="43.63" y2="36.27" gradientUnits="userSpaceOnUse"><stop offset="0" stop-color="#c5c0bb"/><stop offset="1" stop-color="#eae3dc"/></linearGradient><linearGradient id="linear-gradient-13" x1="41.15" y1="31.91" x2="43.63" y2="36.27" gradientUnits="userSpaceOnUse"><stop offset="0" stop-color="#c7c2bc"/><stop offset="1" stop-color="#eae3dc"/></linearGradient><linearGradient id="linear-gradient-14" x1="41.15" y1="31.92" x2="43.63" y2="36.27" gradientUnits="userSpaceOnUse"><stop offset="0" stop-color="#c9c4be"/><stop offset="1" stop-color="#eae3dc"/></linearGradient><linearGradient id="linear-gradient-15" x1="41.16" y1="31.93" x2="43.63" y2="36.27" gradientUnits="userSpaceOnUse"><stop offset="0" stop-color="#cbc6c0"/><stop offset="1" stop-color="#eae3dc"/></linearGradient><linearGradient id="linear-gradient-16" x1="41.16" y1="31.94" x2="43.63" y2="36.26" gradientUnits="userSpaceOnUse"><stop offset="0" stop-color="#cdc7c1"/><stop offset="1" stop-color="#eae3dc"/></linearGradient><linearGradient id="linear-gradient-17" x1="41.17" y1="31.95" x2="43.64" y2="36.26" gradientUnits="userSpaceOnUse"><stop offset="0" stop-color="#cfc9c3"/><stop offset="1" stop-color="#eae3dc"/></linearGradient><linearGradient id="linear-gradient-18" x1="41.17" y1="31.96" x2="43.64" y2="36.26" gradientUnits="userSpaceOnUse"><stop offset="0" stop-color="#d1cbc5"/><stop offset="1" stop-color="#eae3dc"/></linearGradient><linearGradient id="linear-gradient-19" x1="41.17" y1="31.97" x2="43.64" y2="36.26" gradientUnits="userSpaceOnUse"><stop offset="0" stop-color="#d3cdc6"/><stop offset="1" stop-color="#eae3dc"/></linearGradient><linearGradient id="linear-gradient-20" x1="41.18" y1="31.98" x2="43.64" y2="36.26" gradientUnits="userSpaceOnUse"><stop offset="0" stop-color="#d5cec8"/><stop offset="1" stop-color="#eae3dc"/></linearGradient><linearGradient id="GradientFill_78" x1="41.18" y1="31.99" x2="43.65" y2="36.26" gradientUnits="userSpaceOnUse"><stop offset="0" stop-color="#d6d0ca"/><stop offset="1" stop-color="#eae3dc"/></linearGradient><linearGradient id="linear-gradient-21" x1="41.19" y1="32.01" x2="43.65" y2="36.26" gradientUnits="userSpaceOnUse"><stop offset="0" stop-color="#d7d1cb"/><stop offset="1" stop-color="#eae3dc"/></linearGradient><linearGradient id="linear-gradient-22" x1="41.2" y1="32.02" x2="43.65" y2="36.26" gradientUnits="userSpaceOnUse"><stop offset="0" stop-color="#d8d2cb"/><stop offset="1" stop-color="#eae3dc"/></linearGradient><linearGradient id="linear-gradient-23" x1="41.21" y1="32.04" x2="43.65" y2="36.26" gradientUnits="userSpaceOnUse"><stop offset="0" stop-color="#d9d3cc"/><stop offset="1" stop-color="#eae3dc"/></linearGradient><linearGradient id="linear-gradient-24" x1="41.22" y1="32.06" x2="43.65" y2="36.26" gradientUnits="userSpaceOnUse"><stop offset="0" stop-color="#dad4cd"/><stop offset="1" stop-color="#eae3dc"/></linearGradient><linearGradient id="linear-gradient-25" x1="41.24" y1="32.07" x2="43.65" y2="36.25" gradientUnits="userSpaceOnUse"><stop offset="0" stop-color="#dbd4ce"/><stop offset="1" stop-color="#eae3dc"/></linearGradient><linearGradient id="linear-gradient-26" x1="41.25" y1="32.09" x2="43.65" y2="36.25" gradientUnits="userSpaceOnUse"><stop offset="0" stop-color="#dcd5cf"/><stop offset="1" stop-color="#eae3dc"/></linearGradient><linearGradient id="linear-gradient-27" x1="41.26" y1="32.11" x2="43.65" y2="36.25" gradientUnits="userSpaceOnUse"><stop offset="0" stop-color="#ddd6d0"/><stop offset="1" stop-color="#eae3dc"/></linearGradient><linearGradient id="linear-gradient-28" x1="41.27" y1="32.12" x2="43.65" y2="36.25" gradientUnits="userSpaceOnUse"><stop offset="0" stop-color="#ded7d1"/><stop offset="1" stop-color="#eae3dc"/></linearGradient><linearGradient id="linear-gradient-29" x1="41.28" y1="32.14" x2="43.65" y2="36.25" gradientUnits="userSpaceOnUse"><stop offset="0" stop-color="#dfd8d2"/><stop offset="1" stop-color="#eae3dc"/></linearGradient><linearGradient id="linear-gradient-30" x1="41.29" y1="32.16" x2="43.65" y2="36.25" gradientUnits="userSpaceOnUse"><stop offset="0" stop-color="#e0d9d2"/><stop offset="1" stop-color="#eae3dc"/></linearGradient><linearGradient id="linear-gradient-31" x1="41.3" y1="32.18" x2="43.65" y2="36.25" gradientUnits="userSpaceOnUse"><stop offset="0" stop-color="#e0dad3"/><stop offset="1" stop-color="#eae3dc"/></linearGradient><linearGradient id="linear-gradient-32" x1="41.31" y1="32.19" x2="43.65" y2="36.25" gradientUnits="userSpaceOnUse"><stop offset="0" stop-color="#e1dbd4"/><stop offset="1" stop-color="#eae3dc"/></linearGradient><linearGradient id="linear-gradient-33" x1="41.32" y1="32.21" x2="43.66" y2="36.25" gradientUnits="userSpaceOnUse"><stop offset="0" stop-color="#e2dcd5"/><stop offset="1" stop-color="#eae3dc"/></linearGradient><linearGradient id="linear-gradient-34" x1="41.33" y1="32.23" x2="43.66" y2="36.25" gradientUnits="userSpaceOnUse"><stop offset="0" stop-color="#e3dcd6"/><stop offset="1" stop-color="#eae3dc"/></linearGradient><linearGradient id="linear-gradient-35" x1="41.34" y1="32.24" x2="43.66" y2="36.25" gradientUnits="userSpaceOnUse"><stop offset="0" stop-color="#e4ddd7"/><stop offset="1" stop-color="#eae3dc"/></linearGradient><linearGradient id="linear-gradient-36" x1="41.36" y1="32.26" x2="43.66" y2="36.25" gradientUnits="userSpaceOnUse"><stop offset="0" stop-color="#e5ded8"/><stop offset="1" stop-color="#eae3dc"/></linearGradient><linearGradient id="linear-gradient-37" x1="41.37" y1="32.28" x2="43.66" y2="36.25" gradientUnits="userSpaceOnUse"><stop offset="0" stop-color="#e6dfd9"/><stop offset="1" stop-color="#eae3dc"/></linearGradient><linearGradient id="linear-gradient-38" x1="41.38" y1="32.29" x2="43.66" y2="36.25" gradientUnits="userSpaceOnUse"><stop offset="0" stop-color="#e7e0da"/><stop offset="1" stop-color="#eae3dc"/></linearGradient><linearGradient id="linear-gradient-39" x1="41.39" y1="32.31" x2="43.66" y2="36.25" gradientUnits="userSpaceOnUse"><stop offset="0" stop-color="#e8e1db"/><stop offset="1" stop-color="#eae3dc"/></linearGradient><linearGradient id="linear-gradient-40" x1="41.4" y1="32.33" x2="43.66" y2="36.24" gradientUnits="userSpaceOnUse"><stop offset="0" stop-color="#e9e2db"/><stop offset="1" stop-color="#eae3dc"/></linearGradient><linearGradient id="GradientFill_14" x1="82.51" y1="65.86" x2="80.69" y2="62.12" gradientUnits="userSpaceOnUse"><stop offset="0" stop-color="#fff"/><stop offset="0.35" stop-color="#ddd8d2"/><stop offset="0.61" stop-color="#d0cac3"/><stop offset="1" stop-color="#beb9b1"/></linearGradient></defs><title>icn_boat_pad</title><g class="cls-1"><g id="Слой_2" data-name="Слой 2"><g id="Layer_1" data-name="Layer 1"><g class="cls-2"><path class="cls-3" d="M127.67,50.53c-33.58-19.39-68.24-19.39-101.82,0h0C9.06,60.22.66,70.07.66,79.92s8.4,19.7,25.19,29.39c33.58,19.39,68.24,19.39,101.82,0,16.79-9.69,25.19-19.54,25.19-29.39S144.46,60.23,127.67,50.53Z"/></g><path class="cls-4" d="M117.18,45.18c-31-17.89-63-17.89-93.94,0h0C7.74,54.12,0,63.21,0,72.3S7.75,90.47,23.24,99.42c31,17.89,63,17.89,93.94,0,15.49-8.94,23.24-18,23.24-27.12S132.67,54.12,117.18,45.18Z"/><path class="cls-5" d="M117.18,85.88c-31,17.89-63,17.89-93.94,0C7.75,76.94,0,67.85,0,58.76V72.3c0,9.09,7.75,18.17,23.24,27.12,31,17.89,63,17.89,93.94,0,15.49-8.94,23.24-18,23.24-27.12V58.77C140.42,67.85,132.67,76.94,117.18,85.88Z"/><path class="cls-6" d="M117.18,31.65c-31-17.89-63-17.89-93.94,0h0C7.74,40.59,0,49.68,0,58.76S7.75,76.94,23.24,85.88c31,17.89,63,17.89,93.94,0,15.49-8.94,23.24-18,23.24-27.12S132.67,40.59,117.18,31.65Z"/><path class="cls-7" d="M44,4.45l2.95,1.7a6.91,6.91,0,0,0,6.2-.26h0c1.83-1.05,2-2.66.45-3.58L50.63.62a6.92,6.92,0,0,0-6.2.26h0C42.6,1.93,42.4,3.54,44,4.45Z"/><path class="cls-8" d="M113.32,83.15a24.74,24.74,0,0,1-5.1,2.54c-18.91,7.06-40.31.63-56.53-10l0,0A87.68,87.68,0,0,1,36.53,63.46a43.68,43.68,0,0,1-11-18.35c-1.61-5.83-.17-10.17,3.44-14.69l2.13-8.05A130.66,130.66,0,0,1,46,25l4.78-2.61c11.33,1.3,17.74,5.57,28.45,9.48,9.91,3.61,19.51,9,27.2,16.25a43.72,43.72,0,0,1,11.9,18.34,16.77,16.77,0,0,1,.18,10.46A12.72,12.72,0,0,1,113.32,83.15Z"/><path class="cls-9" d="M39.59,15.37l-6.73,4L26,23.24c2.43,5.84,7.89,11.51,14.24,16.49A116.85,116.85,0,0,0,58.38,51.3l.06,0,.06,0a78.61,78.61,0,0,0,20.59,7.92A100,100,0,0,0,97.72,62a11.84,11.84,0,0,0,6.51-1.45c1.7-1,2.72-2.25,2.52-3.76a17.33,17.33,0,0,0-.42-2.12l1-.44a16.59,16.59,0,0,1-.08-6c.51-3.83-7.67-11.91-7.67-11.91l-3.4-1.59-3.69,2.09q-2-1.4-4.21-2.69l-.06,0-.06,0a135.17,135.17,0,0,0-20-10.49A114.32,114.32,0,0,0,39.59,15.37Z"/><path class="cls-10" d="M96.67,66.56C86.41,66.1,70.16,63.3,57.24,55.85,48,51.1,29.54,39.77,24.9,27.31l7.44-4.19,7.25-4.29C61.18,21.5,80.8,32.18,89,37.5c12.9,7.46,17.75,16.84,18.54,22.77.23,1.72-.81,3.3-3,4.56A14.49,14.49,0,0,1,96.67,66.56Z"/><path class="cls-11" d="M96.67,66.56C86.41,66.1,70.16,63.3,57.24,55.85,48,51.1,29.54,39.77,24.9,27.31l7.44-4.19,7.25-4.29q1.86.23,3.69.54l-6.35,3.76L29.5,27.31C34.14,39.77,52.63,51.1,61.84,55.85c12.2,7,27.36,9.92,37.65,10.61A17.22,17.22,0,0,1,96.67,66.56Z"/><path class="cls-12" d="M62,55l5.42-2.72c1.82.68,3.66,1.3,5.49,1.86s3.67,1.05,5.47,1.49,3.6.82,5.35,1.15,3.45.61,5.1.84,3.24.41,4.75.55,2.94.24,4.28.3q.58,0,1.15,0t1.12-.05q.55,0,1.09-.12t1.06-.19q.52-.11,1-.26t1-.33c1.28-.48,4-3.05,4.49-3.35,0,6-3.35,18.41-8.36,22.49-3.06,2.49-8.9,1.7-12.51,1.33-21.2-2.15-55.08-15.5-63-36.9-.82-2.68-1-15.26-1.64-18.46,4.82,13,24,24.74,33.62,29.68C58.55,53.27,60.27,54.16,62,55Z"/><path class="cls-12" d="M96.67,62.4c-1.28-.06-2.66-.15-4.11-.29s-3-.31-4.56-.53-3.23-.49-4.91-.81-3.4-.68-5.14-1.11-3.5-.9-5.26-1.43-3.53-1.13-5.28-1.79l-1.65-.64L96.15,38.26q.57.47,1.11,1a40.71,40.71,0,0,1,3.1,3,35.65,35.65,0,0,1,2.48,3,31,31,0,0,1,1.92,3,26.78,26.78,0,0,1,1.4,2.83,22.28,22.28,0,0,1,.92,2.63,17.51,17.51,0,0,1,.5,2.37,3.45,3.45,0,0,1,0,.64,3.38,3.38,0,0,1-.09.62,3.58,3.58,0,0,1-.21.61,4.09,4.09,0,0,1-.32.59,4.93,4.93,0,0,1-.43.56,6.21,6.21,0,0,1-.55.54,7.85,7.85,0,0,1-.66.52q-.36.25-.77.49t-.85.44c-.29.14-.59.26-.89.38s-.62.22-.94.32-.65.18-1,.25-.67.13-1,.19-.69.09-1,.12-.72,0-1.08.05S97,62.42,96.67,62.4Z"/><path class="cls-13" d="M62,55l5.42-2.72c1.82.68,3.66,1.3,5.49,1.86s3.67,1.05,5.47,1.49,3.6.82,5.35,1.15,3.45.61,5.1.84,3.24.41,4.75.55,2.94.24,4.28.3q.58,0,1.15,0t1.12-.05q.55,0,1.09-.12t1.06-.19q.52-.11,1-.26t1-.33c1.28-.48,4-3.05,4.49-3.35,0,6-3.35,18.41-8.36,22.49-3.06,2.49-8.9,1.7-12.51,1.33-21.2-2.15-55.08-15.5-63-36.9-.82-2.68-1-15.26-1.64-18.46,4.82,13,24,24.74,33.62,29.68C58.55,53.27,60.27,54.16,62,55Z"/><path class="cls-10" d="M105.27,69.33S93.71,78.57,32.72,53.2c0,0,15.48,17.17,46.36,23.38,0,0,16.21,4.14,21.35.07C100.43,76.65,104.56,73.11,105.27,69.33Z"/><path class="cls-14" d="M83.59,77.41l-.27,0-.07-.87H83l.07.83-.27,0-.07-.87a.38.38,0,0,1,0,0l0,0a.66.66,0,0,1-.21-.43l-.06-.73a.56.56,0,0,1,.14-.43l0,0v0l-.1-1.16a.39.39,0,0,1,0,0l0,0a.66.66,0,0,1-.21-.43l-.06-.73a.55.55,0,0,1,.14-.43l0,0v0l-.1-1.16a.39.39,0,0,1,0,0l0,0a.66.66,0,0,1-.21-.43l-.06-.73a.56.56,0,0,1,.14-.43l0,0v0L82,67.72a.41.41,0,0,1,0,0l0,0a.66.66,0,0,1-.21-.43l-.06-.73a.56.56,0,0,1,.14-.43l0,0v0l-.1-1.16a.38.38,0,0,1,0,0l0,0a.66.66,0,0,1-.21-.43l-.06-.73A.55.55,0,0,1,82,63a.67.67,0,0,1,.65.6l.06.73a.56.56,0,0,1-.14.43l0,0v0l.1,1.16s0,0,0,0l0,0a.66.66,0,0,1,.21.43l.06.73a.56.56,0,0,1-.14.43l0,0v0l.1,1.16a.34.34,0,0,1,0,0l0,0a.66.66,0,0,1,.21.43l.06.73a.56.56,0,0,1-.14.43l0,0v0l.1,1.16s0,0,0,0l0,0a.66.66,0,0,1,.21.43l.06.73a.56.56,0,0,1-.14.43l0,0v0l.1,1.16s0,0,0,0l0,0a.66.66,0,0,1,.21.43l.06.73a.56.56,0,0,1-.14.43l0,0v0l.08,1ZM82.26,63.34a.37.37,0,0,0-.25-.1.31.31,0,0,0-.31.34l.06.73a.37.37,0,0,0,.1.22.35.35,0,0,1,.25-.1.42.42,0,0,1,.26.1.31.31,0,0,0,.06-.22l-.06-.73a.37.37,0,0,0-.12-.24Zm0,1.56H82l.08,1h.24l-.08-1Zm.35,1.58a.36.36,0,0,0-.1-.21.35.35,0,0,1-.25.1.42.42,0,0,1-.27-.1.31.31,0,0,0-.06.21l.06.73a.36.36,0,0,0,.1.22.35.35,0,0,1,.25-.1.42.42,0,0,1,.26.1.31.31,0,0,0,.06-.22l-.06-.73Zm-.11,1.32h-.24l.08,1h.24l-.08-1Zm.35,1.58a.36.36,0,0,0-.1-.21.35.35,0,0,1-.25.1.42.42,0,0,1-.27-.1.31.31,0,0,0-.06.21l.06.73a.37.37,0,0,0,.1.22.35.35,0,0,1,.25-.1.42.42,0,0,1,.26.1.31.31,0,0,0,.06-.22l-.06-.73Zm-.11,1.32h-.24l.08,1h.24l-.08-1Zm.35,1.58a.36.36,0,0,0-.1-.21.35.35,0,0,1-.25.1.42.42,0,0,1-.27-.1.31.31,0,0,0-.06.21l.06.73a.36.36,0,0,0,.1.22.35.35,0,0,1,.25-.1.42.42,0,0,1,.26.1.31.31,0,0,0,.06-.22l-.06-.73ZM83,73.6h-.24l.08,1h.24l-.08-1Zm.35,1.58a.36.36,0,0,0-.1-.21.35.35,0,0,1-.25.1.42.42,0,0,1-.27-.1.31.31,0,0,0-.06.21l.06.73a.36.36,0,0,0,.1.22.35.35,0,0,1,.25-.1.42.42,0,0,1,.26.1.31.31,0,0,0,.06-.22Z"/><path class="cls-12" d="M62,55l5.42-2.72c1.82.68,3.66,1.3,5.49,1.86s3.67,1.05,5.47,1.49,3.6.82,5.35,1.15,3.45.61,5.1.84,3.24.41,4.75.55,2.94.24,4.28.3q.58,0,1.15,0t1.12-.05q.55,0,1.09-.12t1.06-.19q.52-.11,1-.26t1-.33c1.28-.48,4-3.05,4.49-3.35a44.05,44.05,0,0,1-3.33,14.72C102.2,71.54,96,70.69,92.13,70.3,69.53,68,32.41,53.47,23.93,30.66c-.2-3.4-.39-6.63-.68-8,4.82,13,24,24.74,33.62,29.68C58.55,53.27,60.27,54.16,62,55Z"/><path class="cls-15" d="M82.87,68.84l-.27-.06-.08-1h-.24l.08.93-.27-.06L82,67.72a.41.41,0,0,1,0,0l0,0a.66.66,0,0,1-.21-.43l-.06-.73a.56.56,0,0,1,.14-.43l0,0v0l-.1-1.16a.38.38,0,0,1,0,0l0,0a.66.66,0,0,1-.21-.43l-.06-.73A.55.55,0,0,1,82,63a.67.67,0,0,1,.65.6l.06.73a.56.56,0,0,1-.14.43l0,0v0l.1,1.16s0,0,0,0l0,0a.66.66,0,0,1,.21.43l.06.73a.56.56,0,0,1-.14.43l0,0v0l.09,1.12Zm-.61-5.49a.37.37,0,0,0-.25-.1.31.31,0,0,0-.31.34l.06.73a.37.37,0,0,0,.1.22.35.35,0,0,1,.25-.1.42.42,0,0,1,.26.1.31.31,0,0,0,.06-.22l-.06-.73a.37.37,0,0,0-.12-.24Zm0,1.56H82l.08,1h.24l-.08-1Zm.35,1.58a.36.36,0,0,0-.1-.21.35.35,0,0,1-.25.1.42.42,0,0,1-.27-.1.31.31,0,0,0-.06.21l.06.73a.36.36,0,0,0,.1.22.35.35,0,0,1,.25-.1.42.42,0,0,1,.26.1.31.31,0,0,0,.06-.22Z"/><path class="cls-16" d="M97.89,58.45c-1.33-.06-2.77-.16-4.28-.3s-3.1-.32-4.75-.55-3.35-.51-5.1-.84-3.54-.71-5.35-1.15-3.64-.93-5.47-1.49-3.67-1.18-5.49-1.86L62.06,55c-1.77-.82-3.43-1.46-5.11-2.43-1.2-.62-2.62-1.59-4.07-2.41s-3-1.74-4.62-2.74-3.28-2.09-5-3.25-3.37-2.39-5-3.69-3.27-2.65-4.8-4.06A57.43,57.43,0,0,1,29.19,32a38.86,38.86,0,0,1-3.5-4.62,25.34,25.34,0,0,1-2.44-4.79l1-.54,1-.54,1-.54,1-.54,1-.54,1-.54,1-.54,1-.54.94-.56.94-.56.94-.56.94-.56.94-.56.94-.56.94-.56.94-.56c2.81.35,5.58.83,8.3,1.41s5.39,1.26,8,2S60,18.83,62.4,19.71s4.8,1.82,7,2.77,4.38,1.93,6.39,2.9,3.89,1.93,5.62,2.86,3.32,1.83,4.74,2.67,2.68,1.62,3.75,2.31c1.57.91,2.88,1.76,4.23,2.71l2-1.17,2.28-.43a42.36,42.36,0,0,1,3.22,3.17,37.06,37.06,0,0,1,2.58,3.16,32.38,32.38,0,0,1,2,3.09,27.83,27.83,0,0,1,1.45,2.95,23.2,23.2,0,0,1,1,2.74,18.22,18.22,0,0,1,.51,2.47,3.65,3.65,0,0,1,0,.66,3.49,3.49,0,0,1-.09.65,3.68,3.68,0,0,1-.21.63,4.23,4.23,0,0,1-.33.61,5.12,5.12,0,0,1-.45.59,6.4,6.4,0,0,1-.57.56,8.21,8.21,0,0,1-.68.54q-.37.26-.8.51t-.88.46q-.45.21-.93.39t-1,.33q-.5.15-1,.26t-1.06.19q-.54.08-1.09.12T99,58.47q-.57,0-1.15,0ZM39.59,15.37l-.84.5-.84.5-.84.5-.84.5-.84.5-.84.5-.84.5-.84.5-.86.49-.86.49-.86.49-.86.49-.86.49-.86.49-.86.49-.86.49a23.15,23.15,0,0,0,1,2.18q.59,1.09,1.31,2.16t1.54,2.13q.83,1.06,1.75,2.1t1.94,2.06q1,1,2.09,2t2.23,2q1.14,1,2.34,1.9,1,.77,2,1.54t2.1,1.52q1.07.76,2.19,1.5t2.26,1.48q1.15.73,2.33,1.45t2.38,1.41q1.2.69,2.43,1.36t2.46,1.31h.12q1.12.64,2.28,1.25t2.38,1.18l5-2.86q1.3.5,2.63,1t2.7.88q1.36.42,2.76.8t2.81.73l2.25.52,2.3.47,2.33.43,2.35.38,2.36.32,2.36.26q1.18.12,2.35.2t2.33.14q.49,0,1,0t.92-.05q.45,0,.88-.11t.84-.17q.41-.1.79-.22t.75-.26q.36-.14.71-.31t.66-.35q.32-.18.6-.38t.53-.41a5.43,5.43,0,0,0,.46-.43,4.25,4.25,0,0,0,.38-.46,3.44,3.44,0,0,0,.29-.48,2.92,2.92,0,0,0,.19-.51,2.73,2.73,0,0,0,.09-.53,2.81,2.81,0,0,0,0-.56q-.09-.67-.24-1.34t-.35-1.36q-.2-.68-.46-1.36t-.56-1.37q-.3-.68-.65-1.36t-.74-1.35q-.39-.67-.82-1.33t-.9-1.3q-.6-.82-1.26-1.62t-1.39-1.59q-.73-.79-1.52-1.56l-1.65-1.52-3.69,2.09q-1-.7-2-1.37t-2.17-1.32H88.2q-1.11-.72-2.27-1.42t-2.36-1.4q-1.2-.69-2.44-1.38t-2.51-1.34q-1.27-.66-2.56-1.31T73.46,26q-1.31-.62-2.64-1.22t-2.66-1.16q-1.62-.69-3.29-1.35T61.48,21q-1.72-.63-3.48-1.21t-3.56-1.12q-1.8-.53-3.63-1t-3.69-.89q-1.86-.41-3.74-.75T39.59,15.37Z"/><path class="cls-12" d="M75.16,22.86V39.34l0,.19,0,.19,0,.19-.06.19-.08.18-.1.18-.11.18-.13.17-.15.17-.16.16-.18.16-.2.15-.21.15-.23.14-8.91,5.14-.24.13-.25.12-.26.11-.27.1-.28.09-.29.08-.3.07-.3.07-.31.06-.32,0-.32,0-.32,0-.33,0h-1l-.34,0-.34,0-.34,0-.34,0-.34-.06-.33-.06-.33-.07-.33-.08-.32-.09-.32-.1-.31-.11L55.81,47l-.3-.13-.29-.14-.29-.14-.28-.15L34.54,34.85,33.67,34V17.87L54.65,30l.28.15.29.14.29.14.3.13.31.12.31.11.32.1.32.09.33.08.33.07.33.06.34.06.34,0,.34,0,.34,0,.34,0h1l.33,0,.32,0,.32,0,.32,0,.31-.06.3-.07.3-.07.29-.08.28-.09.27-.1.26-.11.25-.12.24-.13,8.91-5.14.23-.14L73.9,25l.2-.15.18-.16.16-.16.15-.17.13-.17.11-.18.1-.18.08-.18.06-.18,0-.19,0-.19Z"/><path class="cls-12" d="M73.46,25.25l-8.91,5.14c-2.53,1.46-7,1.27-9.9-.41l-21-12.11L51.77,7.42l21,12.11C75.67,21.22,76,23.79,73.46,25.25Z"/><path class="cls-17" d="M75.16,25.22v6.66l0,.19,0,.19,0,.19-.06.19-.08.18-.1.18-.11.18-.13.17-.15.17-.16.16-.18.16-.2.15-.21.15-.23.14L71,35.67,70,36.29a.38.38,0,0,1-.57-.33V29.79a1,1,0,0,1,.5-.87l3-1.74.56-.32.23-.14.21-.15.2-.15.18-.16.16-.16.15-.17.13-.17.11-.18.1-.18.08-.18h.16Z"/><path class="cls-17" d="M67.8,37.54l-3.25,1.88-.24.13-.25.12-.26.11-.27.1-.28.09-.29.08-.3.07-.3.06-.31.06-.32,0-.32,0-.32,0-.33,0h-.33c-.43,0-.84,0-1.26,0a.63.63,0,0,1-.57-.63V33.57a.63.63,0,0,1,.68-.63l.82,0h.67l.33,0,.32,0,.32,0,.32,0,.31-.06.3-.07.3-.07.29-.08.28-.09.27-.1.26-.11.25-.12.24-.13,2.81-1.62a.63.63,0,0,1,.94.54v5.74A1,1,0,0,1,67.8,37.54Z"/><path class="cls-7" d="M73.46,25.25l-8.91,5.14c-2.53,1.46-7,1.27-9.9-.41l-21-12.11L51.77,7.42l21,12.11C75.67,21.22,76,23.79,73.46,25.25Z"/><polygon class="cls-18" points="76.39 19.6 76.47 19.5 76.58 19.33 76.68 19.15 76.76 18.97 76.82 18.78 76.87 18.59 76.9 18.4 76.92 18.21 76.39 19.6"/><polygon class="cls-18" points="76.19 19.84 76.03 20 75.85 20.16 75.66 20.31 75.44 20.46 75.22 20.6 66.31 25.74 66.07 25.87 65.81 26 65.55 26.11 65.28 26.21 65 26.31 64.71 26.39 64.41 26.46 64.11 26.53 63.8 26.59 63.48 26.63 63.16 26.67 62.84 26.7 62.51 26.72 62.17 26.73 61.84 26.73 61.51 26.72 61.17 26.7 60.83 26.67 60.49 26.63 60.16 26.59 59.82 26.53 59.49 26.47 59.16 26.39 58.83 26.31 58.51 26.22 58.19 26.12 57.88 26.01 57.57 25.89 57.27 25.77 56.97 25.63 56.69 25.48 56.41 25.33 44.16 18.26 44.16 23.93 54.65 29.98 54.93 30.14 55.21 30.28 55.51 30.42 55.81 30.54 56.12 30.66 56.43 30.77 56.75 30.87 57.07 30.96 57.4 31.05 57.73 31.12 58.06 31.18 58.4 31.24 58.73 31.28 59.07 31.32 59.41 31.35 59.75 31.37 60.08 31.38 60.42 31.38 60.75 31.37 61.08 31.35 61.4 31.32 61.72 31.28 62.04 31.24 62.35 31.18 62.65 31.12 62.95 31.04 63.24 30.96 63.52 30.86 63.79 30.76 64.06 30.65 64.31 30.52 64.55 30.39 73.46 25.25 73.69 25.11 73.9 24.96 74.09 24.81 74.27 24.66 74.44 24.49 74.58 24.33 74.71 24.15 74.82 23.98 74.92 23.8 75 23.62 75.06 23.43 75.11 23.25 75.14 23.05 75.16 22.86 76.39 19.6 76.34 19.68 76.19 19.84"/><polygon class="cls-16" points="53.73 45.16 54.33 44.81 54.45 44.73 54.54 44.62 54.6 44.47 54.62 44.29 54.62 30.44 54.61 30.34 54.6 30.23 54.58 30.13 54.54 30.02 54.5 29.91 54.45 29.8 54.4 29.7 54.33 29.59 54.27 29.49 54.19 29.39 54.11 29.29 54.02 29.2 53.94 29.12 53.84 29.04 53.75 28.97 53.65 28.91 49.69 26.62 49.49 26.53 49.31 26.48 49.15 26.48 49 26.51 48.4 26.86 48.54 26.83 48.71 26.83 48.89 26.88 49.08 26.97 53.04 29.26 53.14 29.32 53.24 29.39 53.33 29.47 53.42 29.55 53.51 29.64 53.59 29.74 53.66 29.84 53.73 29.94 53.79 30.05 53.85 30.15 53.9 30.26 53.94 30.37 53.97 30.48 53.99 30.58 54.01 30.69 54.01 30.79 54.01 44.64 53.99 44.82 53.94 44.97 53.85 45.08 53.73 45.16"/><path class="cls-19" d="M48.11,27.38V41.23a2,2,0,0,0,1,1.53L53,45c.53.31,1,.12,1-.41V30.79a2,2,0,0,0-1-1.53l-4-2.29C48.55,26.67,48.11,26.85,48.11,27.38Z"/><path class="cls-16" d="M52.08,31.2a5.68,5.68,0,0,1,1.33,5,1.57,1.57,0,0,1-2.87.77,5.68,5.68,0,0,1-1.33-5,1.57,1.57,0,0,1,2.87-.77Z"/><path class="cls-16" d="M52.06,31.2a5.64,5.64,0,0,1,1.32,4.93,1.56,1.56,0,0,1-2.85.76A5.64,5.64,0,0,1,49.22,32a1.56,1.56,0,0,1,2.85-.76Z"/><path class="cls-16" d="M52.05,31.2a5.6,5.6,0,0,1,1.31,4.9,1.55,1.55,0,0,1-2.83.76A5.6,5.6,0,0,1,49.22,32a1.55,1.55,0,0,1,2.83-.76Z"/><path class="cls-16" d="M52,31.2a5.56,5.56,0,0,1,1.3,4.86,1.53,1.53,0,0,1-2.81.75,5.56,5.56,0,0,1-1.3-4.86A1.53,1.53,0,0,1,52,31.2Z"/><path class="cls-16" d="M52,31.2A5.52,5.52,0,0,1,53.32,36a1.52,1.52,0,0,1-2.79.75,5.52,5.52,0,0,1-1.29-4.83A1.52,1.52,0,0,1,52,31.2Z"/><path class="cls-16" d="M52,31.2A5.48,5.48,0,0,1,53.3,36a1.51,1.51,0,0,1-2.77.74,5.48,5.48,0,0,1-1.28-4.79A1.51,1.51,0,0,1,52,31.2Z"/><path class="cls-16" d="M52,31.2A5.44,5.44,0,0,1,53.27,36a1.5,1.5,0,0,1-2.75.74,5.44,5.44,0,0,1-1.28-4.76A1.5,1.5,0,0,1,52,31.2Z"/><path class="cls-16" d="M52,31.2a5.4,5.4,0,0,1,1.27,4.72,1.49,1.49,0,0,1-2.73.73,5.4,5.4,0,0,1-1.27-4.72A1.49,1.49,0,0,1,52,31.2Z"/><path class="cls-16" d="M52,31.2a5.36,5.36,0,0,1,1.26,4.69,1.48,1.48,0,0,1-2.71.73,5.36,5.36,0,0,1-1.26-4.69A1.48,1.48,0,0,1,52,31.2Z"/><path class="cls-16" d="M52,31.2a5.32,5.32,0,0,1,1.25,4.65,1.47,1.47,0,0,1-2.69.72,5.32,5.32,0,0,1-1.25-4.65A1.47,1.47,0,0,1,52,31.2Z"/><path class="cls-16" d="M51.95,31.2a5.28,5.28,0,0,1,1.24,4.62,1.46,1.46,0,0,1-2.67.71,5.28,5.28,0,0,1-1.24-4.62,1.46,1.46,0,0,1,2.67-.71Z"/><path class="cls-16" d="M51.93,31.2a5.24,5.24,0,0,1,1.23,4.58,1.45,1.45,0,0,1-2.65.71,5.24,5.24,0,0,1-1.23-4.58,1.45,1.45,0,0,1,2.65-.71Z"/><path class="cls-16" d="M51.92,31.2a5.2,5.2,0,0,1,1.22,4.55,1.44,1.44,0,0,1-2.63.7,5.2,5.2,0,0,1-1.22-4.55,1.44,1.44,0,0,1,2.63-.7Z"/><path class="cls-16" d="M51.91,31.2a5.16,5.16,0,0,1,1.21,4.51,1.42,1.42,0,0,1-2.61.7A5.16,5.16,0,0,1,49.3,31.9a1.42,1.42,0,0,1,2.61-.7Z"/><path class="cls-16" d="M51.89,31.2a5.12,5.12,0,0,1,1.2,4.48,1.41,1.41,0,0,1-2.59.69,5.13,5.13,0,0,1-1.2-4.48,1.41,1.41,0,0,1,2.59-.69Z"/><path class="cls-16" d="M51.88,31.2a5.09,5.09,0,0,1,1.19,4.44,1.4,1.4,0,0,1-2.57.69,5.09,5.09,0,0,1-1.19-4.44,1.4,1.4,0,0,1,2.57-.69Z"/><path class="cls-16" d="M51.87,31.2A5,5,0,0,1,53,35.61a1.39,1.39,0,0,1-2.55.68,5,5,0,0,1-1.18-4.41,1.39,1.39,0,0,1,2.55-.68Z"/><path class="cls-16" d="M51.85,31.2A5,5,0,0,1,53,35.57a1.38,1.38,0,0,1-2.53.68,5,5,0,0,1-1.17-4.37,1.38,1.38,0,0,1,2.53-.68Z"/><path class="cls-16" d="M51.84,31.2A5,5,0,0,1,53,35.54a1.37,1.37,0,0,1-2.51.67,5,5,0,0,1-1.16-4.34,1.37,1.37,0,0,1,2.51-.67Z"/><path class="cls-16" d="M51.83,31.2A4.93,4.93,0,0,1,53,35.5a1.36,1.36,0,0,1-2.49.67,4.93,4.93,0,0,1-1.15-4.3,1.36,1.36,0,0,1,2.49-.67Z"/><path class="cls-16" d="M51.81,31.2A4.89,4.89,0,0,1,53,35.47a1.35,1.35,0,0,1-2.47.66,4.89,4.89,0,0,1-1.14-4.27,1.35,1.35,0,0,1,2.47-.66Z"/><path class="cls-16" d="M51.8,31.2a4.85,4.85,0,0,1,1.13,4.23,1.34,1.34,0,0,1-2.44.66,4.85,4.85,0,0,1-1.13-4.23,1.34,1.34,0,0,1,2.44-.66Z"/><path class="cls-16" d="M51.79,31.2a4.83,4.83,0,0,1,1.13,4.22,1.33,1.33,0,0,1-2.43.65,4.83,4.83,0,0,1-1.13-4.22,1.33,1.33,0,0,1,2.43-.65Z"/><path class="cls-16" d="M51.79,31.2a4.81,4.81,0,0,1,1.13,4.2,1.32,1.32,0,0,1-2.42.65,4.81,4.81,0,0,1-1.13-4.2,1.33,1.33,0,0,1,2.42-.65Z"/><path class="cls-16" d="M51.78,31.2a4.79,4.79,0,0,1,1.12,4.18,1.32,1.32,0,0,1-2.41.65,4.79,4.79,0,0,1-1.12-4.18,1.32,1.32,0,0,1,2.41-.65Z"/><path class="cls-16" d="M51.77,31.2a4.77,4.77,0,0,1,1.12,4.17,1.31,1.31,0,0,1-2.4.64,4.77,4.77,0,0,1-1.12-4.16,1.31,1.31,0,0,1,2.4-.64Z"/><path class="cls-16" d="M51.77,31.2a4.75,4.75,0,0,1,1.11,4.15,1.31,1.31,0,0,1-2.39.64,4.75,4.75,0,0,1-1.11-4.15,1.31,1.31,0,0,1,2.39-.64Z"/><path class="cls-16" d="M51.76,31.2a4.73,4.73,0,0,1,1.11,4.13,1.3,1.3,0,0,1-2.38.64,4.73,4.73,0,0,1-1.11-4.13,1.3,1.3,0,0,1,2.38-.64Z"/><path class="cls-16" d="M51.75,31.2a4.71,4.71,0,0,1,1.1,4.11,1.3,1.3,0,0,1-2.37.64,4.71,4.71,0,0,1-1.1-4.11,1.3,1.3,0,0,1,2.37-.64Z"/><path class="cls-16" d="M51.75,31.2a4.69,4.69,0,0,1,1.1,4.1,1.29,1.29,0,0,1-2.36.63,4.69,4.69,0,0,1-1.1-4.1,1.29,1.29,0,0,1,2.36-.63Z"/><path class="cls-16" d="M51.74,31.2a4.67,4.67,0,0,1,1.09,4.08,1.29,1.29,0,0,1-2.35.63,4.67,4.67,0,0,1-1.09-4.08,1.29,1.29,0,0,1,2.35-.63Z"/><path class="cls-16" d="M51.73,31.2a4.65,4.65,0,0,1,1.09,4.06,1.28,1.28,0,0,1-2.34.63,4.65,4.65,0,0,1-1.09-4.06,1.28,1.28,0,0,1,2.34-.63Z"/><path class="cls-16" d="M51.73,31.2a4.63,4.63,0,0,1,1.08,4,1.28,1.28,0,0,1-2.33.63,4.63,4.63,0,0,1-1.08-4,1.28,1.28,0,0,1,2.33-.63Z"/><path class="cls-16" d="M51.72,31.2a4.61,4.61,0,0,1,1.08,4,1.27,1.27,0,0,1-2.32.62,4.61,4.61,0,0,1-1.08-4,1.27,1.27,0,0,1,2.32-.62Z"/><path class="cls-16" d="M51.71,31.2a4.59,4.59,0,0,1,1.07,4,1.26,1.26,0,0,1-2.31.62,4.59,4.59,0,0,1-1.07-4,1.26,1.26,0,0,1,2.31-.62Z"/><path class="cls-16" d="M51.71,31.2a4.57,4.57,0,0,1,1.07,4,1.26,1.26,0,0,1-2.3.62,4.57,4.57,0,0,1-1.07-4,1.26,1.26,0,0,1,2.3-.62Z"/><path class="cls-16" d="M51.7,31.2a4.55,4.55,0,0,1,1.06,4,1.25,1.25,0,0,1-2.29.61,4.55,4.55,0,0,1-1.06-4,1.25,1.25,0,0,1,2.29-.61Z"/><path class="cls-16" d="M51.69,31.2a4.53,4.53,0,0,1,1.06,4,1.25,1.25,0,0,1-2.28.61,4.53,4.53,0,0,1-1.06-4,1.25,1.25,0,0,1,2.28-.61Z"/><path class="cls-16" d="M51.69,31.2a4.51,4.51,0,0,1,1.06,3.94,1.24,1.24,0,0,1-2.27.61,4.51,4.51,0,0,1-1.06-3.94,1.24,1.24,0,0,1,2.27-.61Z"/><path class="cls-16" d="M51.68,31.2a4.49,4.49,0,0,1,1.05,3.92,1.24,1.24,0,0,1-2.26.61,4.49,4.49,0,0,1-1.05-3.92,1.24,1.24,0,0,1,2.26-.61Z"/><path class="cls-16" d="M51.67,31.2a4.47,4.47,0,0,1,1,3.9,1.23,1.23,0,0,1-2.25.6,4.47,4.47,0,0,1-1-3.9,1.23,1.23,0,0,1,2.25-.6Z"/><path class="cls-16" d="M51.67,31.2a4.45,4.45,0,0,1,1,3.89,1.23,1.23,0,0,1-2.24.6,4.45,4.45,0,0,1-1-3.89,1.23,1.23,0,0,1,2.24-.6Z"/><path class="cls-16" d="M51.66,31.2a4.43,4.43,0,0,1,1,3.87,1.22,1.22,0,0,1-2.23.6,4.43,4.43,0,0,1-1-3.87,1.22,1.22,0,0,1,2.23-.6Z"/><polygon class="cls-20" points="49.81 30.63 50.28 30.5 50.36 30.48 50.44 30.47 50.53 30.47 50.62 30.47 50.7 30.48 50.79 30.5 50.88 30.52 50.97 30.55 51.06 30.58 51.16 30.63 51.25 30.68 51.34 30.74 51.43 30.8 51.52 30.87 51.61 30.95 51.7 31.04 51.79 31.13 51.88 31.23 51.96 31.34 52.05 31.44 52.12 31.55 52.2 31.67 52.27 31.79 52.34 31.91 52.4 32.04 52.46 32.16 52.52 32.3 52.58 32.43 52.63 32.56 52.67 32.7 52.72 32.84 52.76 32.98 52.79 33.12 52.82 33.26 52.85 33.41 52.88 33.55 52.89 33.69 52.91 33.83 52.92 33.98 52.93 34.12 52.93 34.26 52.93 34.4 52.92 34.53 52.91 34.67 52.89 34.8 52.87 34.93 52.85 35.06 52.81 35.19 52.74 35.42 52.65 35.63 52.55 35.82 52.43 35.98 52.3 36.12 52.16 36.23 52.01 36.31 51.85 36.37 51.38 36.49 51.54 36.43 51.69 36.35 51.83 36.24 51.96 36.11 52.08 35.95 52.18 35.76 52.27 35.55 52.35 35.31 52.38 35.19 52.4 35.06 52.42 34.93 52.44 34.79 52.45 34.66 52.46 34.52 52.46 34.38 52.46 34.24 52.45 34.1 52.44 33.96 52.42 33.82 52.41 33.67 52.38 33.53 52.35 33.39 52.32 33.25 52.29 33.11 52.25 32.97 52.2 32.83 52.16 32.69 52.1 32.55 52.05 32.42 51.99 32.29 51.93 32.16 51.87 32.04 51.8 31.91 51.73 31.8 51.65 31.68 51.58 31.57 51.49 31.46 51.41 31.36 51.32 31.26 51.23 31.17 51.14 31.08 51.05 31 50.96 30.93 50.87 30.86 50.78 30.8 50.69 30.75 50.59 30.71 50.5 30.67 50.41 30.64 50.32 30.62 50.23 30.61 50.15 30.6 50.06 30.59 49.97 30.6 49.89 30.61 49.81 30.63"/><path class="cls-12" d="M51.24,31.17a4.74,4.74,0,0,1,1.11,4.15A1.31,1.31,0,0,1,50,36a4.74,4.74,0,0,1-1.11-4.15,1.31,1.31,0,0,1,2.39-.64Z"/><path class="cls-21" d="M51,31.91a3.26,3.26,0,0,1,.76,2.85.9.9,0,0,1-1.65.44,3.26,3.26,0,0,1-.76-2.85A.9.9,0,0,1,51,31.91Z"/><path class="cls-17" d="M51,31.91a3.26,3.26,0,0,1,.76,2.85,1.37,1.37,0,0,1-.3.58,1.07,1.07,0,0,1-.93-.38,3.26,3.26,0,0,1-.76-2.85,1.37,1.37,0,0,1,.3-.58A1.07,1.07,0,0,1,51,31.91Z"/><path class="cls-17" d="M51,31.91a3.26,3.26,0,0,1,.76,2.85,1.63,1.63,0,0,1-.14.36,1.45,1.45,0,0,1-.47-.33,3.26,3.26,0,0,1-.76-2.85,1.63,1.63,0,0,1,.14-.36A1.45,1.45,0,0,1,51,31.91Z"/><path class="cls-7" d="M38.2,25a5.68,5.68,0,0,1,1.33,5,1.57,1.57,0,0,1-2.87.77,5.68,5.68,0,0,1-1.33-5A1.57,1.57,0,0,1,38.2,25Z"/><path class="cls-7" d="M38.18,25a5.64,5.64,0,0,1,1.32,4.93,1.56,1.56,0,0,1-2.85.76,5.64,5.64,0,0,1-1.32-4.93A1.56,1.56,0,0,1,38.18,25Z"/><path class="cls-7" d="M38.17,25a5.6,5.6,0,0,1,1.31,4.9,1.55,1.55,0,0,1-2.83.76,5.6,5.6,0,0,1-1.31-4.9A1.55,1.55,0,0,1,38.17,25Z"/><path class="cls-7" d="M38.16,25a5.56,5.56,0,0,1,1.3,4.86,1.53,1.53,0,0,1-2.81.75,5.56,5.56,0,0,1-1.3-4.86A1.53,1.53,0,0,1,38.16,25Z"/><path class="cls-7" d="M38.14,25a5.52,5.52,0,0,1,1.29,4.83,1.52,1.52,0,0,1-2.79.75,5.52,5.52,0,0,1-1.29-4.83A1.52,1.52,0,0,1,38.14,25Z"/><path class="cls-7" d="M38.13,25a5.48,5.48,0,0,1,1.28,4.79,1.51,1.51,0,0,1-2.77.74,5.48,5.48,0,0,1-1.28-4.79A1.51,1.51,0,0,1,38.13,25Z"/><path class="cls-7" d="M38.12,25a5.44,5.44,0,0,1,1.27,4.76,1.5,1.5,0,0,1-2.75.74,5.44,5.44,0,0,1-1.27-4.76A1.5,1.5,0,0,1,38.12,25Z"/><path class="cls-7" d="M38.1,25a5.4,5.4,0,0,1,1.27,4.72,1.49,1.49,0,0,1-2.73.73,5.4,5.4,0,0,1-1.27-4.72A1.49,1.49,0,0,1,38.1,25Z"/><path class="cls-7" d="M38.09,25a5.36,5.36,0,0,1,1.26,4.69,1.48,1.48,0,0,1-2.71.73,5.36,5.36,0,0,1-1.26-4.69A1.48,1.48,0,0,1,38.09,25Z"/><path class="cls-7" d="M38.08,25a5.32,5.32,0,0,1,1.25,4.65,1.47,1.47,0,0,1-2.69.72,5.32,5.32,0,0,1-1.25-4.65A1.47,1.47,0,0,1,38.08,25Z"/><path class="cls-7" d="M38.06,25a5.28,5.28,0,0,1,1.24,4.62,1.46,1.46,0,0,1-2.67.71,5.28,5.28,0,0,1-1.24-4.62A1.46,1.46,0,0,1,38.06,25Z"/><path class="cls-7" d="M38.05,25a5.24,5.24,0,0,1,1.23,4.58,1.45,1.45,0,0,1-2.65.71,5.24,5.24,0,0,1-1.23-4.58A1.45,1.45,0,0,1,38.05,25Z"/><path class="cls-7" d="M38,25a5.2,5.2,0,0,1,1.22,4.55,1.44,1.44,0,0,1-2.63.7,5.2,5.2,0,0,1-1.22-4.55A1.44,1.44,0,0,1,38,25Z"/><path class="cls-7" d="M38,25a5.16,5.16,0,0,1,1.21,4.51,1.42,1.42,0,0,1-2.61.7,5.17,5.17,0,0,1-1.21-4.51A1.42,1.42,0,0,1,38,25Z"/><path class="cls-7" d="M38,25a5.12,5.12,0,0,1,1.2,4.48,1.41,1.41,0,0,1-2.59.69,5.13,5.13,0,0,1-1.2-4.48A1.41,1.41,0,0,1,38,25Z"/><path class="cls-7" d="M38,25a5.08,5.08,0,0,1,1.19,4.44,1.4,1.4,0,0,1-2.57.69,5.09,5.09,0,0,1-1.19-4.44A1.4,1.4,0,0,1,38,25Z"/><path class="cls-7" d="M38,25a5,5,0,0,1,1.18,4.41,1.39,1.39,0,0,1-2.55.68,5,5,0,0,1-1.18-4.41A1.39,1.39,0,0,1,38,25Z"/><path class="cls-7" d="M38,25a5,5,0,0,1,1.17,4.37,1.38,1.38,0,0,1-2.53.68,5,5,0,0,1-1.17-4.37A1.38,1.38,0,0,1,38,25Z"/><path class="cls-7" d="M38,25a5,5,0,0,1,1.16,4.34,1.37,1.37,0,0,1-2.51.67,5,5,0,0,1-1.16-4.34A1.37,1.37,0,0,1,38,25Z"/><path class="cls-7" d="M37.95,25a4.93,4.93,0,0,1,1.15,4.3,1.36,1.36,0,0,1-2.49.67,4.93,4.93,0,0,1-1.15-4.3A1.36,1.36,0,0,1,37.95,25Z"/><path class="cls-7" d="M37.93,25a4.89,4.89,0,0,1,1.14,4.27,1.35,1.35,0,0,1-2.47.66,4.89,4.89,0,0,1-1.14-4.27A1.35,1.35,0,0,1,37.93,25Z"/><path class="cls-7" d="M37.92,25a4.85,4.85,0,0,1,1.13,4.23,1.34,1.34,0,0,1-2.45.66,4.85,4.85,0,0,1-1.13-4.23A1.34,1.34,0,0,1,37.92,25Z"/><path class="cls-7" d="M37.91,25A4.83,4.83,0,0,1,39,29.18a1.33,1.33,0,0,1-2.43.65,4.83,4.83,0,0,1-1.13-4.22A1.33,1.33,0,0,1,37.91,25Z"/><path class="cls-7" d="M37.91,25A4.81,4.81,0,0,1,39,29.17a1.33,1.33,0,0,1-2.42.65,4.81,4.81,0,0,1-1.13-4.2A1.32,1.32,0,0,1,37.91,25Z"/><path class="cls-7" d="M37.9,25A4.79,4.79,0,0,1,39,29.15a1.32,1.32,0,0,1-2.41.65,4.79,4.79,0,0,1-1.12-4.18A1.32,1.32,0,0,1,37.9,25Z"/><path class="cls-7" d="M37.89,25A4.77,4.77,0,0,1,39,29.13a1.31,1.31,0,0,1-2.4.64,4.77,4.77,0,0,1-1.12-4.16,1.31,1.31,0,0,1,2.4-.64Z"/><path class="cls-7" d="M37.89,25A4.75,4.75,0,0,1,39,29.11a1.31,1.31,0,0,1-2.39.64,4.75,4.75,0,0,1-1.11-4.15A1.31,1.31,0,0,1,37.89,25Z"/><path class="cls-7" d="M37.88,25A4.73,4.73,0,0,1,39,29.1a1.3,1.3,0,0,1-2.38.64,4.73,4.73,0,0,1-1.11-4.13A1.3,1.3,0,0,1,37.88,25Z"/><path class="cls-7" d="M37.87,25A4.71,4.71,0,0,1,39,29.08a1.3,1.3,0,0,1-2.37.64,4.71,4.71,0,0,1-1.1-4.11A1.3,1.3,0,0,1,37.87,25Z"/><path class="cls-7" d="M37.87,25a4.69,4.69,0,0,1,1.1,4.1,1.29,1.29,0,0,1-2.36.63,4.69,4.69,0,0,1-1.1-4.1A1.29,1.29,0,0,1,37.87,25Z"/><path class="cls-7" d="M37.86,25A4.67,4.67,0,0,1,39,29a1.29,1.29,0,0,1-2.35.63,4.67,4.67,0,0,1-1.09-4.08A1.29,1.29,0,0,1,37.86,25Z"/><path class="cls-7" d="M37.85,25A4.65,4.65,0,0,1,38.94,29a1.28,1.28,0,0,1-2.34.63,4.65,4.65,0,0,1-1.09-4.06A1.28,1.28,0,0,1,37.85,25Z"/><path class="cls-7" d="M37.85,25a4.63,4.63,0,0,1,1.08,4,1.28,1.28,0,0,1-2.33.63,4.63,4.63,0,0,1-1.08-4A1.28,1.28,0,0,1,37.85,25Z"/><path class="cls-7" d="M37.84,25a4.61,4.61,0,0,1,1.08,4,1.27,1.27,0,0,1-2.32.62,4.61,4.61,0,0,1-1.08-4A1.27,1.27,0,0,1,37.84,25Z"/><path class="cls-7" d="M37.83,25a4.59,4.59,0,0,1,1.07,4,1.26,1.26,0,0,1-2.31.62,4.59,4.59,0,0,1-1.07-4A1.26,1.26,0,0,1,37.83,25Z"/><path class="cls-7" d="M37.83,25a4.57,4.57,0,0,1,1.07,4,1.26,1.26,0,0,1-2.3.62,4.57,4.57,0,0,1-1.07-4,1.26,1.26,0,0,1,2.3-.62Z"/><path class="cls-7" d="M37.82,25a4.55,4.55,0,0,1,1.06,4,1.25,1.25,0,0,1-2.29.61,4.55,4.55,0,0,1-1.06-4A1.25,1.25,0,0,1,37.82,25Z"/><path class="cls-7" d="M37.81,25a4.53,4.53,0,0,1,1.06,4,1.25,1.25,0,0,1-2.28.61,4.53,4.53,0,0,1-1.06-4A1.25,1.25,0,0,1,37.81,25Z"/><path class="cls-7" d="M37.81,25a4.51,4.51,0,0,1,1.06,3.94,1.24,1.24,0,0,1-2.27.61,4.51,4.51,0,0,1-1.06-3.94A1.24,1.24,0,0,1,37.81,25Z"/><path class="cls-7" d="M37.8,25a4.49,4.49,0,0,1,1.05,3.92,1.24,1.24,0,0,1-2.26.61,4.49,4.49,0,0,1-1.05-3.92A1.24,1.24,0,0,1,37.8,25Z"/><path class="cls-7" d="M37.79,25a4.47,4.47,0,0,1,1,3.9,1.23,1.23,0,0,1-2.25.6,4.47,4.47,0,0,1-1-3.9,1.23,1.23,0,0,1,2.25-.6Z"/><path class="cls-7" d="M37.79,25a4.45,4.45,0,0,1,1,3.89,1.23,1.23,0,0,1-2.24.6,4.45,4.45,0,0,1-1-3.89,1.23,1.23,0,0,1,2.24-.6Z"/><path class="cls-7" d="M37.78,25a4.43,4.43,0,0,1,1,3.87,1.22,1.22,0,0,1-2.23.6,4.43,4.43,0,0,1-1-3.87,1.22,1.22,0,0,1,2.23-.6Z"/><polygon class="cls-20" points="35.93 24.39 36.4 24.27 36.48 24.25 36.56 24.24 36.65 24.23 36.73 24.24 36.82 24.25 36.91 24.26 37 24.28 37.09 24.31 37.18 24.35 37.27 24.39 37.37 24.45 37.46 24.5 37.55 24.57 37.64 24.64 37.73 24.72 37.82 24.81 37.91 24.9 38 25 38.08 25.1 38.16 25.21 38.24 25.32 38.32 25.44 38.39 25.55 38.45 25.68 38.52 25.8 38.58 25.93 38.64 26.06 38.69 26.2 38.74 26.33 38.79 26.47 38.84 26.61 38.88 26.75 38.91 26.89 38.94 27.03 38.97 27.17 38.99 27.32 39.01 27.46 39.03 27.6 39.04 27.74 39.05 27.88 39.05 28.02 39.05 28.16 39.04 28.3 39.03 28.43 39.01 28.57 38.99 28.7 38.97 28.83 38.94 28.95 38.86 29.19 38.77 29.4 38.66 29.59 38.55 29.75 38.42 29.88 38.28 29.99 38.13 30.07 37.97 30.13 37.5 30.26 37.66 30.2 37.81 30.12 37.95 30.01 38.08 29.87 38.2 29.71 38.3 29.52 38.39 29.31 38.47 29.08 38.5 28.95 38.52 28.82 38.54 28.69 38.56 28.56 38.57 28.43 38.58 28.29 38.58 28.15 38.58 28.01 38.57 27.87 38.56 27.73 38.54 27.58 38.52 27.44 38.5 27.3 38.47 27.16 38.44 27.01 38.41 26.87 38.37 26.73 38.32 26.59 38.27 26.46 38.23 26.32 38.17 26.19 38.11 26.06 38.05 25.93 37.99 25.8 37.92 25.68 37.85 25.56 37.77 25.45 37.69 25.34 37.61 25.23 37.53 25.13 37.44 25.03 37.35 24.93 37.26 24.85 37.17 24.77 37.08 24.69 36.99 24.63 36.9 24.57 36.8 24.52 36.71 24.48 36.62 24.44 36.53 24.41 36.44 24.39 36.35 24.37 36.27 24.36 36.18 24.36 36.09 24.36 36.01 24.38 35.93 24.39"/><path class="cls-12" d="M37.35,24.93a4.74,4.74,0,0,1,1.11,4.15,1.31,1.31,0,0,1-2.39.64A4.74,4.74,0,0,1,35,25.57a1.31,1.31,0,0,1,2.39-.64Z"/><path class="cls-21" d="M37.15,25.68a3.26,3.26,0,0,1,.76,2.85.9.9,0,0,1-1.65.44,3.26,3.26,0,0,1-.76-2.85.9.9,0,0,1,1.65-.44Z"/><path class="cls-17" d="M37.15,25.68a3.26,3.26,0,0,1,.76,2.85,1.37,1.37,0,0,1-.3.58,1.07,1.07,0,0,1-.93-.38,3.26,3.26,0,0,1-.76-2.85,1.37,1.37,0,0,1,.3-.58A1.07,1.07,0,0,1,37.15,25.68Z"/><path class="cls-17" d="M37.15,25.68a3.26,3.26,0,0,1,.76,2.85,1.63,1.63,0,0,1-.14.36,1.45,1.45,0,0,1-.47-.33,3.26,3.26,0,0,1-.76-2.85,1.63,1.63,0,0,1,.14-.36A1.45,1.45,0,0,1,37.15,25.68Z"/><path class="cls-7" d="M43,30.31a8.05,8.05,0,0,1,3.64,6.31c0,2.32-1.63,3.26-3.64,2.1a8.05,8.05,0,0,1-3.64-6.31C39.35,30.09,41,29.15,43,30.31Z"/><path class="cls-7" d="M43,30.31a8,8,0,0,1,3.62,6.27c0,2.31-1.62,3.24-3.62,2.09a8,8,0,0,1-3.62-6.27C39.37,30.09,41,29.16,43,30.31Z"/><path class="cls-7" d="M43,30.32a8,8,0,0,1,3.59,6.23c0,2.29-1.61,3.22-3.59,2.08a8,8,0,0,1-3.59-6.23C39.38,30.1,41,29.17,43,30.32Z"/><path class="cls-7" d="M43,30.32a7.89,7.89,0,0,1,3.57,6.19c0,2.28-1.6,3.2-3.57,2.06a7.89,7.89,0,0,1-3.57-6.18C39.4,30.11,41,29.18,43,30.32Z"/><path class="cls-7" d="M43,30.33a7.84,7.84,0,0,1,3.55,6.14c0,2.26-1.59,3.18-3.55,2a7.84,7.84,0,0,1-3.55-6.14C39.41,30.11,41,29.19,43,30.33Z"/><path class="cls-7" d="M43,30.33a7.79,7.79,0,0,1,3.52,6.1c0,2.25-1.58,3.16-3.52,2a7.79,7.79,0,0,1-3.52-6.1C39.43,30.12,41,29.21,43,30.33Z"/><path class="cls-7" d="M42.94,30.34a7.73,7.73,0,0,1,3.5,6.06c0,2.23-1.57,3.14-3.5,2a7.73,7.73,0,0,1-3.5-6.06C39.45,30.12,41,29.22,42.94,30.34Z"/><path class="cls-7" d="M42.94,30.34a7.68,7.68,0,0,1,3.48,6c0,2.22-1.56,3.11-3.48,2a7.68,7.68,0,0,1-3.48-6C39.46,30.13,41,29.23,42.94,30.34Z"/><path class="cls-7" d="M42.93,30.35a7.63,7.63,0,0,1,3.45,6c0,2.2-1.55,3.09-3.45,2a7.63,7.63,0,0,1-3.45-6C39.48,30.14,41,29.24,42.93,30.35Z"/><path class="cls-7" d="M42.92,30.35a7.58,7.58,0,0,1,3.43,5.94c0,2.19-1.53,3.07-3.43,2a7.58,7.58,0,0,1-3.43-5.94C39.49,30.14,41,29.26,42.92,30.35Z"/><path class="cls-7" d="M42.91,30.35a7.52,7.52,0,0,1,3.4,5.9c0,2.17-1.52,3.05-3.4,2a7.52,7.52,0,0,1-3.4-5.9C39.51,30.15,41,29.27,42.91,30.35Z"/><path class="cls-7" d="M42.9,30.36a7.47,7.47,0,0,1,3.38,5.85c0,2.16-1.51,3-3.38,2a7.47,7.47,0,0,1-3.38-5.85C39.52,30.16,41,29.28,42.9,30.36Z"/><path class="cls-7" d="M42.9,30.36a7.42,7.42,0,0,1,3.36,5.81c0,2.14-1.5,3-3.36,1.94a7.42,7.42,0,0,1-3.36-5.81C39.54,30.16,41,29.29,42.9,30.36Z"/><path class="cls-7" d="M42.89,30.37a7.37,7.37,0,0,1,3.33,5.77c0,2.13-1.49,3-3.33,1.92a7.36,7.36,0,0,1-3.33-5.77C39.56,30.17,41,29.31,42.89,30.37Z"/><path class="cls-7" d="M42.88,30.37a7.31,7.31,0,0,1,3.31,5.73c0,2.11-1.48,3-3.31,1.91a7.31,7.31,0,0,1-3.31-5.73C39.57,30.17,41.05,29.32,42.88,30.37Z"/><path class="cls-7" d="M42.87,30.38a7.26,7.26,0,0,1,3.28,5.69c0,2.09-1.47,2.94-3.28,1.9a7.26,7.26,0,0,1-3.28-5.69C39.59,30.18,41.06,29.33,42.87,30.38Z"/><path class="cls-7" d="M42.86,30.38A7.21,7.21,0,0,1,46.12,36c0,2.08-1.46,2.92-3.26,1.88a7.21,7.21,0,0,1-3.26-5.65C39.6,30.19,41.06,29.34,42.86,30.38Z"/><path class="cls-7" d="M42.86,30.39A7.15,7.15,0,0,1,46.09,36c0,2.06-1.45,2.9-3.24,1.87a7.15,7.15,0,0,1-3.24-5.61C39.62,30.19,41.07,29.36,42.86,30.39Z"/><path class="cls-7" d="M42.85,30.39A7.1,7.1,0,0,1,46.06,36c0,2-1.44,2.88-3.21,1.85a7.1,7.1,0,0,1-3.21-5.56C39.63,30.2,41.07,29.37,42.85,30.39Z"/><path class="cls-7" d="M42.84,30.4A7,7,0,0,1,46,35.92c0,2-1.43,2.86-3.19,1.84a7,7,0,0,1-3.19-5.52C39.65,30.2,41.08,29.38,42.84,30.4Z"/><path class="cls-7" d="M42.83,30.4A7,7,0,0,1,46,35.88c0,2-1.42,2.84-3.17,1.83a7,7,0,0,1-3.17-5.48C39.67,30.21,41.08,29.39,42.83,30.4Z"/><path class="cls-7" d="M42.82,30.41A6.94,6.94,0,0,1,46,35.85c0,2-1.41,2.82-3.14,1.81a6.94,6.94,0,0,1-3.14-5.44C39.68,30.22,41.09,29.41,42.82,30.41Z"/><path class="cls-7" d="M42.82,30.41a6.92,6.92,0,0,1,3.13,5.42c0,2-1.4,2.8-3.13,1.81a6.92,6.92,0,0,1-3.13-5.42C39.69,30.22,41.09,29.41,42.82,30.41Z"/><path class="cls-7" d="M42.82,30.41a6.89,6.89,0,0,1,3.12,5.4c0,2-1.4,2.79-3.12,1.8a6.89,6.89,0,0,1-3.12-5.4C39.7,30.22,41.09,29.42,42.82,30.41Z"/><path class="cls-7" d="M42.81,30.41a6.86,6.86,0,0,1,3.11,5.38c0,2-1.39,2.78-3.11,1.79a6.86,6.86,0,0,1-3.11-5.38C39.71,30.23,41.1,29.42,42.81,30.41Z"/><path class="cls-7" d="M42.81,30.42a6.84,6.84,0,0,1,3.09,5.36c0,2-1.38,2.77-3.09,1.79a6.84,6.84,0,0,1-3.09-5.36C39.71,30.23,41.1,29.43,42.81,30.42Z"/><path class="cls-7" d="M42.8,30.42a6.81,6.81,0,0,1,3.08,5.34c0,2-1.38,2.76-3.08,1.78a6.81,6.81,0,0,1-3.08-5.34C39.72,30.23,41.1,29.44,42.8,30.42Z"/><path class="cls-7" d="M42.8,30.42a6.79,6.79,0,0,1,3.07,5.32c0,2-1.37,2.75-3.07,1.77a6.78,6.78,0,0,1-3.07-5.32C39.73,30.24,41.1,29.44,42.8,30.42Z"/><path class="cls-7" d="M42.79,30.42a6.76,6.76,0,0,1,3.06,5.3c0,2-1.37,2.74-3.06,1.77a6.76,6.76,0,0,1-3.06-5.3C39.74,30.24,41.11,29.45,42.79,30.42Z"/><path class="cls-7" d="M42.79,30.43a6.73,6.73,0,0,1,3,5.28c0,1.94-1.36,2.73-3,1.76a6.73,6.73,0,0,1-3-5.28C39.74,30.24,41.11,29.46,42.79,30.43Z"/><path class="cls-7" d="M42.79,30.43a6.71,6.71,0,0,1,3,5.25c0,1.93-1.36,2.72-3,1.75a6.71,6.71,0,0,1-3-5.25C39.75,30.25,41.11,29.46,42.79,30.43Z"/><path class="cls-7" d="M42.78,30.43a6.68,6.68,0,0,1,3,5.23c0,1.93-1.35,2.71-3,1.74a6.68,6.68,0,0,1-3-5.23C39.76,30.25,41.11,29.47,42.78,30.43Z"/><path class="cls-7" d="M42.78,30.43a6.65,6.65,0,0,1,3,5.21c0,1.92-1.35,2.7-3,1.74a6.65,6.65,0,0,1-3-5.21C39.77,30.25,41.12,29.47,42.78,30.43Z"/><path class="cls-7" d="M42.77,30.44a6.63,6.63,0,0,1,3,5.19c0,1.91-1.34,2.69-3,1.73a6.63,6.63,0,0,1-3-5.19C39.78,30.25,41.12,29.48,42.77,30.44Z"/><path class="cls-7" d="M42.77,30.44a6.6,6.6,0,0,1,3,5.17c0,1.9-1.34,2.68-3,1.72a6.6,6.6,0,0,1-3-5.17C39.78,30.26,41.12,29.49,42.77,30.44Z"/><path class="cls-7" d="M42.77,30.44a6.57,6.57,0,0,1,3,5.15c0,1.9-1.33,2.67-3,1.72a6.57,6.57,0,0,1-3-5.15C39.79,30.26,41.12,29.49,42.77,30.44Z"/><path class="cls-7" d="M42.76,30.44a6.55,6.55,0,0,1,3,5.13c0,1.89-1.33,2.65-3,1.71a6.55,6.55,0,0,1-3-5.13C39.8,30.26,41.13,29.5,42.76,30.44Z"/><path class="cls-7" d="M42.76,30.45a6.52,6.52,0,0,1,3,5.11c0,1.88-1.32,2.64-3,1.7a6.52,6.52,0,0,1-3-5.11C39.81,30.27,41.13,29.5,42.76,30.45Z"/><path class="cls-7" d="M42.75,30.45a6.5,6.5,0,0,1,2.94,5.09c0,1.87-1.32,2.63-2.94,1.7a6.5,6.5,0,0,1-2.94-5.09C39.82,30.27,41.13,29.51,42.75,30.45Z"/><path class="cls-7" d="M42.75,30.45a6.47,6.47,0,0,1,2.93,5.07c0,1.87-1.31,2.62-2.93,1.69a6.47,6.47,0,0,1-2.93-5.07C39.82,30.27,41.13,29.52,42.75,30.45Z"/><path class="cls-7" d="M42.75,30.45a6.44,6.44,0,0,1,2.91,5c0,1.86-1.3,2.61-2.91,1.68a6.44,6.44,0,0,1-2.91-5C39.83,30.28,41.14,29.52,42.75,30.45Z"/><path class="cls-7" d="M42.74,30.45a6.42,6.42,0,0,1,2.9,5c0,1.85-1.3,2.6-2.9,1.68a6.42,6.42,0,0,1-2.9-5C39.84,30.28,41.14,29.53,42.74,30.45Z"/><path class="cls-7" d="M42.74,30.46a6.39,6.39,0,0,1,2.89,5c0,1.84-1.29,2.59-2.89,1.67a6.39,6.39,0,0,1-2.89-5C39.85,30.28,41.14,29.54,42.74,30.46Z"/><path class="cls-10" d="M40.06,30.59a2.35,2.35,0,0,1,2.1-.44l.29.12.3.15.15.09.15.1.14.1.14.11.14.12.14.12.13.13.13.14.13.14.12.15.12.15.12.15.11.16.11.16.1.17.1.17.1.17.09.17.09.18.08.18.08.18.07.18.06.18.06.18.05.18,0,.18,0,.18,0,.18,0,.18,0,.18v.18a2.3,2.3,0,0,1-1.48,2.42Z"/><path class="cls-22" d="M42.1,31.38a5.26,5.26,0,0,1,2.38,4.12c0,1.52-1.07,2.13-2.38,1.37a5.26,5.26,0,0,1-2.38-4.12C39.72,31.24,40.79,30.62,42.1,31.38Z"/><path class="cls-13" d="M42.1,30.79a6.39,6.39,0,0,1,2.89,5c0,1.84-1.29,2.59-2.89,1.67a6.39,6.39,0,0,1-2.89-5C39.21,30.62,40.5,29.87,42.1,30.79Z"/><path class="cls-13" d="M42.1,30.82a6.34,6.34,0,0,1,2.87,5c0,1.83-1.28,2.57-2.87,1.66a6.34,6.34,0,0,1-2.87-5C39.23,30.64,40.51,29.9,42.1,30.82Z"/><path class="cls-13" d="M42.1,30.84a6.29,6.29,0,0,1,2.85,4.93c0,1.82-1.27,2.55-2.85,1.64a6.29,6.29,0,0,1-2.85-4.93C39.25,30.67,40.53,29.94,42.1,30.84Z"/><path class="cls-13" d="M42.1,30.87a6.24,6.24,0,0,1,2.83,4.89c0,1.8-1.27,2.53-2.83,1.63a6.24,6.24,0,0,1-2.83-4.89C39.27,30.7,40.54,30,42.1,30.87Z"/><path class="cls-13" d="M42.1,30.89a6.2,6.2,0,0,1,2.8,4.86c0,1.79-1.26,2.51-2.8,1.62a6.2,6.2,0,0,1-2.8-4.86C39.3,30.72,40.55,30,42.1,30.89Z"/><path class="cls-13" d="M42.1,30.92a6.15,6.15,0,0,1,2.78,4.82c0,1.77-1.25,2.49-2.78,1.61a6.15,6.15,0,0,1-2.78-4.82C39.32,30.75,40.56,30,42.1,30.92Z"/><path class="cls-13" d="M42.1,30.94a6.1,6.1,0,0,1,2.76,4.78c0,1.76-1.24,2.47-2.76,1.59a6.1,6.1,0,0,1-2.76-4.78C39.34,30.78,40.58,30.06,42.1,30.94Z"/><path class="cls-13" d="M42.1,31a6.05,6.05,0,0,1,2.74,4.74c0,1.75-1.23,2.45-2.74,1.58a6.05,6.05,0,0,1-2.74-4.74C39.36,30.8,40.59,30.1,42.1,31Z"/><path class="cls-13" d="M42.1,31a6,6,0,0,1,2.72,4.7c0,1.73-1.22,2.43-2.72,1.57a6,6,0,0,1-2.72-4.7C39.38,30.83,40.6,30.13,42.1,31Z"/><path class="cls-13" d="M42.1,31a6,6,0,0,1,2.69,4.67c0,1.72-1.21,2.41-2.69,1.56a6,6,0,0,1-2.69-4.67C39.4,30.86,40.61,30.16,42.1,31Z"/><path class="cls-13" d="M42.1,31a5.91,5.91,0,0,1,2.67,4.63c0,1.7-1.2,2.4-2.67,1.54a5.91,5.91,0,0,1-2.67-4.63C39.43,30.88,40.62,30.19,42.1,31Z"/><path class="cls-13" d="M42.1,31.07a5.86,5.86,0,0,1,2.65,4.59c0,1.69-1.19,2.38-2.65,1.53a5.86,5.86,0,0,1-2.65-4.59C39.45,30.91,40.64,30.22,42.1,31.07Z"/><path class="cls-13" d="M42.1,31.09a5.81,5.81,0,0,1,2.63,4.55c0,1.68-1.18,2.36-2.63,1.52a5.81,5.81,0,0,1-2.63-4.55C39.47,30.94,40.65,30.26,42.1,31.09Z"/><path class="cls-13" d="M42.1,31.12a5.76,5.76,0,0,1,2.61,4.52c0,1.66-1.17,2.34-2.61,1.51a5.76,5.76,0,0,1-2.61-4.52C39.49,31,40.66,30.29,42.1,31.12Z"/><path class="cls-13" d="M42.1,31.15a5.71,5.71,0,0,1,2.59,4.48c0,1.65-1.16,2.32-2.59,1.49a5.71,5.71,0,0,1-2.59-4.48C39.51,31,40.67,30.32,42.1,31.15Z"/><path class="cls-13" d="M42.1,31.17a5.67,5.67,0,0,1,2.56,4.44c0,1.63-1.15,2.3-2.56,1.48a5.67,5.67,0,0,1-2.56-4.44C39.54,31,40.68,30.35,42.1,31.17Z"/><path class="cls-13" d="M42.1,31.2a5.62,5.62,0,0,1,2.54,4.4c0,1.62-1.14,2.28-2.54,1.47a5.62,5.62,0,0,1-2.54-4.4C39.56,31,40.7,30.39,42.1,31.2Z"/><path class="cls-13" d="M42.1,31.22a5.57,5.57,0,0,1,2.52,4.36c0,1.61-1.13,2.26-2.52,1.45a5.57,5.57,0,0,1-2.52-4.36C39.58,31.07,40.71,30.42,42.1,31.22Z"/><path class="cls-13" d="M42.1,31.25a5.52,5.52,0,0,1,2.5,4.33c0,1.59-1.12,2.24-2.5,1.44a5.52,5.52,0,0,1-2.5-4.33C39.6,31.1,40.72,30.45,42.1,31.25Z"/><path class="cls-13" d="M42.1,31.27a5.47,5.47,0,0,1,2.48,4.29c0,1.58-1.11,2.22-2.48,1.43a5.47,5.47,0,0,1-2.48-4.29C39.62,31.12,40.73,30.48,42.1,31.27Z"/><path class="cls-13" d="M42.1,31.3a5.42,5.42,0,0,1,2.45,4.25c0,1.57-1.1,2.2-2.45,1.42a5.42,5.42,0,0,1-2.45-4.25C39.64,31.15,40.74,30.51,42.1,31.3Z"/><path class="cls-13" d="M42.1,31.32a5.38,5.38,0,0,1,2.43,4.21c0,1.55-1.09,2.18-2.43,1.4a5.38,5.38,0,0,1-2.43-4.21C39.67,31.17,40.76,30.55,42.1,31.32Z"/><path class="cls-13" d="M42.1,31.34a5.34,5.34,0,0,1,2.42,4.19c0,1.54-1.08,2.17-2.42,1.4a5.34,5.34,0,0,1-2.42-4.19C39.68,31.19,40.76,30.57,42.1,31.34Z"/><path class="cls-13" d="M42.1,31.35a5.31,5.31,0,0,1,2.4,4.16c0,1.53-1.08,2.15-2.4,1.39a5.31,5.31,0,0,1-2.4-4.16C39.7,31.21,40.77,30.59,42.1,31.35Z"/><path class="cls-13" d="M42.1,31.37a5.28,5.28,0,0,1,2.39,4.14c0,1.52-1.07,2.14-2.39,1.38a5.28,5.28,0,0,1-2.39-4.14C39.71,31.23,40.78,30.61,42.1,31.37Z"/><path class="cls-13" d="M42.1,31.39a5.24,5.24,0,0,1,2.37,4.11c0,1.51-1.06,2.13-2.37,1.37a5.24,5.24,0,0,1-2.37-4.11C39.73,31.24,40.79,30.63,42.1,31.39Z"/><path class="cls-13" d="M42.1,31.4a5.21,5.21,0,0,1,2.36,4.08c0,1.5-1.06,2.11-2.36,1.36a5.21,5.21,0,0,1-2.36-4.08C39.74,31.26,40.8,30.65,42.1,31.4Z"/><path class="cls-13" d="M42.1,31.42a5.18,5.18,0,0,1,2.34,4.06c0,1.49-1,2.1-2.34,1.35a5.18,5.18,0,0,1-2.34-4.06C39.75,31.28,40.8,30.67,42.1,31.42Z"/><path class="cls-13" d="M42.1,31.43a5.15,5.15,0,0,1,2.33,4c0,1.48-1,2.09-2.33,1.34a5.15,5.15,0,0,1-2.33-4C39.77,31.29,40.81,30.69,42.1,31.43Z"/><path class="cls-13" d="M42.1,31.45a5.11,5.11,0,0,1,2.31,4c0,1.48-1,2.07-2.31,1.34a5.11,5.11,0,0,1-2.31-4C39.78,31.31,40.82,30.71,42.1,31.45Z"/><path class="cls-13" d="M42.1,31.46a5.08,5.08,0,0,1,2.3,4c0,1.47-1,2.06-2.3,1.33a5.08,5.08,0,0,1-2.3-4C39.8,31.33,40.83,30.73,42.1,31.46Z"/><path class="cls-13" d="M42.1,31.48a5,5,0,0,1,2.28,4c0,1.46-1,2-2.28,1.32a5,5,0,0,1-2.28-4C39.81,31.34,40.83,30.75,42.1,31.48Z"/><path class="cls-13" d="M42.1,31.5a5,5,0,0,1,2.27,3.93c0,1.45-1,2-2.27,1.31a5,5,0,0,1-2.27-3.93C39.83,31.36,40.84,30.77,42.1,31.5Z"/><path class="cls-13" d="M42.1,31.51a5,5,0,0,1,2.25,3.9c0,1.44-1,2-2.25,1.3a5,5,0,0,1-2.25-3.9C39.84,31.38,40.85,30.79,42.1,31.51Z"/><path class="cls-13" d="M42.1,31.53a5,5,0,0,1,2.24,3.88c0,1.43-1,2-2.24,1.29a5,5,0,0,1-2.24-3.88C39.86,31.39,40.86,30.81,42.1,31.53Z"/><path class="cls-13" d="M42.1,31.54a4.92,4.92,0,0,1,2.22,3.85c0,1.42-1,2-2.22,1.28a4.92,4.92,0,0,1-2.22-3.85C39.87,31.41,40.87,30.83,42.1,31.54Z"/><path class="cls-13" d="M42.09,31.56a4.88,4.88,0,0,1,2.21,3.83c0,1.41-1,2-2.21,1.28a4.88,4.88,0,0,1-2.21-3.83C39.89,31.43,40.87,30.86,42.09,31.56Z"/><path class="cls-13" d="M42.09,31.58a4.85,4.85,0,0,1,2.19,3.8c0,1.4-1,2-2.19,1.27a4.85,4.85,0,0,1-2.19-3.8C39.9,31.44,40.88,30.88,42.09,31.58Z"/><path class="cls-13" d="M42.09,31.59a4.82,4.82,0,0,1,2.18,3.77c0,1.39-1,2-2.18,1.26a4.82,4.82,0,0,1-2.18-3.77C39.91,31.46,40.89,30.9,42.09,31.59Z"/><path class="cls-13" d="M42.09,31.61a4.78,4.78,0,0,1,2.16,3.75c0,1.38-1,1.94-2.16,1.25a4.78,4.78,0,0,1-2.16-3.75C39.93,31.48,40.9,30.92,42.09,31.61Z"/><path class="cls-13" d="M42.09,31.62a4.75,4.75,0,0,1,2.15,3.72c0,1.37-1,1.93-2.15,1.24a4.75,4.75,0,0,1-2.15-3.72C39.94,31.49,40.91,30.94,42.09,31.62Z"/><path class="cls-13" d="M42.09,31.64a4.72,4.72,0,0,1,2.13,3.7c0,1.36-1,1.91-2.13,1.23A4.72,4.72,0,0,1,40,32.87C40,31.51,40.91,31,42.09,31.64Z"/><path class="cls-13" d="M42.09,31.65C40.92,31,40,31.53,40,32.88a4.69,4.69,0,0,0,2.12,3.67c1.17.68,2.12.13,2.12-1.22A4.69,4.69,0,0,0,42.09,31.65Z"/><path class="cls-13" d="M42.09,31.68C40.93,31,40,31.55,40,32.89a4.65,4.65,0,0,0,2.1,3.64c1.16.67,2.1.13,2.1-1.21A4.65,4.65,0,0,0,42.09,31.68Z"/><path class="cls-13" d="M42.09,31.7C40.94,31,40,31.57,40,32.9a4.61,4.61,0,0,0,2.08,3.61c1.15.66,2.08.13,2.08-1.2A4.61,4.61,0,0,0,42.09,31.7Z"/><path class="cls-13" d="M42.09,31.72C41,31.06,40,31.59,40,32.91a4.57,4.57,0,0,0,2.07,3.58c1.14.66,2.07.12,2.07-1.19A4.57,4.57,0,0,0,42.09,31.72Z"/><path class="cls-13" d="M42.09,31.74c-1.13-.65-2-.12-2,1.18a4.53,4.53,0,0,0,2,3.55c1.13.65,2,.12,2-1.18A4.53,4.53,0,0,0,42.09,31.74Z"/><path class="cls-13" d="M42.09,31.76c-1.12-.65-2-.12-2,1.17a4.49,4.49,0,0,0,2,3.52c1.12.65,2,.12,2-1.17A4.49,4.49,0,0,0,42.09,31.76Z"/><path class="cls-13" d="M42.09,31.78c-1.11-.64-2-.12-2,1.16a4.45,4.45,0,0,0,2,3.49c1.11.64,2,.12,2-1.16A4.45,4.45,0,0,0,42.09,31.78Z"/><path class="cls-13" d="M42.09,31.8c-1.1-.64-2-.12-2,1.15a4.41,4.41,0,0,0,2,3.46c1.1.64,2,.12,2-1.15A4.41,4.41,0,0,0,42.09,31.8Z"/><path class="cls-13" d="M42.09,31.82c-1.09-.63-2-.12-2,1.14a4.37,4.37,0,0,0,2,3.43c1.09.63,2,.12,2-1.14A4.37,4.37,0,0,0,42.09,31.82Z"/><path class="cls-13" d="M42.09,31.84c-1.08-.63-2-.12-2,1.13a4.33,4.33,0,0,0,2,3.4c1.08.63,2,.12,2-1.13A4.33,4.33,0,0,0,42.09,31.84Z"/><path class="cls-13" d="M42.09,31.86c-1.07-.62-1.94-.12-1.94,1.12a4.29,4.29,0,0,0,1.94,3.36c1.07.62,1.94.12,1.94-1.12A4.29,4.29,0,0,0,42.09,31.86Z"/><path class="cls-13" d="M42.09,31.88c-1.06-.61-1.92-.12-1.92,1.11a4.25,4.25,0,0,0,1.92,3.33c1.06.61,1.92.12,1.92-1.11A4.25,4.25,0,0,0,42.09,31.88Z"/><path class="cls-13" d="M42.09,31.9c-1.05-.61-1.91-.12-1.91,1.1a4.21,4.21,0,0,0,1.91,3.3c1.05.61,1.91.12,1.91-1.1A4.21,4.21,0,0,0,42.09,31.9Z"/><path class="cls-13" d="M42.09,31.92c-1-.6-1.89-.11-1.89,1.09a4.18,4.18,0,0,0,1.89,3.27c1,.6,1.89.11,1.89-1.09A4.18,4.18,0,0,0,42.09,31.92Z"/><path class="cls-13" d="M42.09,31.94c-1-.6-1.87-.11-1.87,1.08a4.14,4.14,0,0,0,1.87,3.24c1,.6,1.87.11,1.87-1.08A4.14,4.14,0,0,0,42.09,31.94Z"/><path class="cls-13" d="M42.09,32c-1-.59-1.85-.11-1.85,1.07a4.1,4.1,0,0,0,1.85,3.21c1,.59,1.85.11,1.85-1.07A4.1,4.1,0,0,0,42.09,32Z"/><path class="cls-13" d="M42.09,32c-1-.59-1.84-.11-1.84,1.06a4.06,4.06,0,0,0,1.84,3.18c1,.59,1.84.11,1.84-1.06A4.06,4.06,0,0,0,42.09,32Z"/><path class="cls-13" d="M42.09,32c-1-.58-1.82-.11-1.82,1a4,4,0,0,0,1.82,3.15c1,.58,1.82.11,1.82-1A4,4,0,0,0,42.09,32Z"/><path class="cls-13" d="M42.09,32c-1-.57-1.8-.11-1.8,1a4,4,0,0,0,1.8,3.12c1,.57,1.8.11,1.8-1A4,4,0,0,0,42.09,32Z"/><path class="cls-13" d="M42.09,32c-1-.57-1.78-.11-1.78,1a3.94,3.94,0,0,0,1.78,3.09c1,.57,1.78.11,1.78-1A3.94,3.94,0,0,0,42.09,32Z"/><path class="cls-13" d="M42.09,32.06c-1-.56-1.77-.11-1.77,1a3.9,3.9,0,0,0,1.77,3.06c1,.56,1.77.11,1.77-1A3.9,3.9,0,0,0,42.09,32.06Z"/><path class="cls-13" d="M42.09,32.08c-1-.56-1.75-.11-1.75,1a3.86,3.86,0,0,0,1.75,3c1,.56,1.75.11,1.75-1A3.86,3.86,0,0,0,42.09,32.08Z"/><path class="cls-13" d="M42.09,32.08c-1-.55-1.74-.1-1.74,1a3.84,3.84,0,0,0,1.74,3c1,.55,1.74.1,1.74-1A3.84,3.84,0,0,0,42.09,32.08Z"/><path class="cls-13" d="M42.08,32.08c-1-.55-1.73-.1-1.73,1a3.81,3.81,0,0,0,1.73,3c1,.55,1.73.1,1.73-1A3.81,3.81,0,0,0,42.08,32.08Z"/><path class="cls-13" d="M42.08,32.08c-.95-.55-1.71-.1-1.71,1a3.79,3.79,0,0,0,1.71,3c.95.55,1.71.1,1.71-1A3.79,3.79,0,0,0,42.08,32.08Z"/><path class="cls-13" d="M42.07,32.08c-.94-.54-1.7-.1-1.7,1a3.77,3.77,0,0,0,1.7,3c.94.54,1.7.1,1.7-1A3.77,3.77,0,0,0,42.07,32.08Z"/><path class="cls-13" d="M42.07,32.08c-.94-.54-1.69-.1-1.69,1A3.74,3.74,0,0,0,42.07,36c.94.54,1.69.1,1.69-1A3.74,3.74,0,0,0,42.07,32.08Z"/><path class="cls-13" d="M42.06,32.08c-.93-.54-1.68-.1-1.68,1A3.72,3.72,0,0,0,42.06,36c.93.54,1.68.1,1.68-1A3.72,3.72,0,0,0,42.06,32.08Z"/><path class="cls-13" d="M42.05,32.07c-.92-.53-1.67-.1-1.67,1a3.69,3.69,0,0,0,1.67,2.9c.92.53,1.67.1,1.67-1A3.69,3.69,0,0,0,42.05,32.07Z"/><path class="cls-13" d="M42,32.07c-.92-.53-1.66-.1-1.66,1A3.67,3.67,0,0,0,42,35.91c.92.53,1.66.1,1.66-1A3.67,3.67,0,0,0,42,32.07Z"/><path class="cls-13" d="M42,32.07c-.91-.53-1.65-.1-1.65,1A3.65,3.65,0,0,0,42,35.88c.91.53,1.65.1,1.65-1A3.65,3.65,0,0,0,42,32.07Z"/><path class="cls-13" d="M42,32.07c-.91-.52-1.64-.1-1.64.95A3.62,3.62,0,0,0,42,35.85c.91.52,1.64.1,1.64-.95A3.62,3.62,0,0,0,42,32.07Z"/><path class="cls-13" d="M42,32.07c-.9-.52-1.63-.1-1.63.94A3.6,3.6,0,0,0,42,35.83c.9.52,1.63.1,1.63-.94A3.6,3.6,0,0,0,42,32.07Z"/><path class="cls-13" d="M42,32.07c-.89-.52-1.62-.1-1.62.93A3.58,3.58,0,0,0,42,35.8c.89.52,1.62.1,1.62-.93A3.57,3.57,0,0,0,42,32.07Z"/><path class="cls-13" d="M42,32.06c-.89-.51-1.61-.1-1.61.93A3.55,3.55,0,0,0,42,35.77c.89.51,1.61.1,1.61-.93A3.55,3.55,0,0,0,42,32.06Z"/><path class="cls-13" d="M42,32.06c-.88-.51-1.6-.1-1.6.92A3.53,3.53,0,0,0,42,35.75c.88.51,1.6.1,1.6-.92A3.53,3.53,0,0,0,42,32.06Z"/><path class="cls-13" d="M42,32.06c-.88-.51-1.58-.1-1.58.92A3.5,3.5,0,0,0,42,35.72c.88.51,1.59.1,1.59-.92A3.5,3.5,0,0,0,42,32.06Z"/><path class="cls-13" d="M42,32.06c-.87-.5-1.57-.1-1.57.91A3.48,3.48,0,0,0,42,35.7c.87.5,1.57.1,1.57-.91A3.48,3.48,0,0,0,42,32.06Z"/><path class="cls-13" d="M42,32.06c-.86-.5-1.56-.09-1.56.9A3.46,3.46,0,0,0,42,35.67c.86.5,1.56.09,1.56-.9A3.45,3.45,0,0,0,42,32.06Z"/><path class="cls-13" d="M42,32.06c-.86-.5-1.55-.09-1.55.9A3.43,3.43,0,0,0,42,35.64c.86.5,1.55.09,1.55-.9A3.43,3.43,0,0,0,42,32.06Z"/><path class="cls-13" d="M42,32.06c-.85-.49-1.54-.09-1.54.89A3.41,3.41,0,0,0,42,35.62c.85.49,1.54.09,1.54-.89A3.41,3.41,0,0,0,42,32.06Z"/><path class="cls-13" d="M42,32.05c-.85-.49-1.53-.09-1.53.88A3.38,3.38,0,0,0,42,35.59c.85.49,1.53.09,1.53-.88A3.38,3.38,0,0,0,42,32.05Z"/><path class="cls-13" d="M42,32.05c-.84-.48-1.52-.09-1.52.88A3.36,3.36,0,0,0,42,35.56c.84.48,1.52.09,1.52-.88A3.36,3.36,0,0,0,42,32.05Z"/><path class="cls-19" d="M40.88,32.34a1.9,1.9,0,0,0-.06.48,2.82,2.82,0,0,0,.07.59l-.27.15a.4.4,0,0,1-.41,0l-1-.55a4.35,4.35,0,0,1,0-.56,3.42,3.42,0,0,1,0-.52l1,.55a.4.4,0,0,0,.41,0Z"/><path class="cls-19" d="M44.75,36.2l-1-.56a1.86,1.86,0,0,0,.07-.52,2.8,2.8,0,0,0-.06-.55l1,.56a.4.4,0,0,0,.41,0l.43-.25v0l0,.18v.18a3.62,3.62,0,0,1,0,.7l-.42.24A.4.4,0,0,1,44.75,36.2Z"/><path class="cls-19" d="M41.84,35.67l.27-.15a2.8,2.8,0,0,0,.46.34A1.88,1.88,0,0,0,43,36l-.27.15a.4.4,0,0,0-.21.36v1.14a3.41,3.41,0,0,1-.47-.23,4.36,4.36,0,0,1-.47-.31V36A.4.4,0,0,1,41.84,35.67Z"/><path class="cls-19" d="M42.56,31.34v1.09a2.82,2.82,0,0,0-.47-.35,1.89,1.89,0,0,0-.46-.19V30.81a.4.4,0,0,1,.21-.36l.43-.25.17.07.3.15.15.09.15.1.14.1,0,0-.43.25A.4.4,0,0,0,42.56,31.34Z"/><path class="cls-23" d="M42.09,32.08a1.42,1.42,0,0,0-1-.22,1.42,1.42,0,0,0-.3,1,3.86,3.86,0,0,0,1.75,3,1.42,1.42,0,0,0,1,.22,1.42,1.42,0,0,0,.3-1A3.86,3.86,0,0,0,42.09,32.08Z"/><path class="cls-24" d="M42.09,32.08c-.82-.47-1.27-.24-1.27.74a3.86,3.86,0,0,0,1.75,3,1.42,1.42,0,0,0,1,.22,1.42,1.42,0,0,0,.3-1A4.14,4.14,0,0,0,42.09,32.08Z"/><path class="cls-25" d="M42.1,32.09c-.82-.47-1.27-.24-1.27.73a3.86,3.86,0,0,0,1.74,3,1.41,1.41,0,0,0,1,.22,1.41,1.41,0,0,0,.3-1A4.13,4.13,0,0,0,42.1,32.09Z"/><path class="cls-26" d="M42.1,32.1c-.81-.47-1.27-.24-1.27.73a3.86,3.86,0,0,0,1.74,3,1.41,1.41,0,0,0,1,.22,1.39,1.39,0,0,0,.3-1A4.13,4.13,0,0,0,42.1,32.1Z"/><path class="cls-27" d="M42.1,32.11c-.81-.46-1.27-.24-1.27.73a3.85,3.85,0,0,0,1.73,3,1.4,1.4,0,0,0,1,.22,1.38,1.38,0,0,0,.3-.95A4.13,4.13,0,0,0,42.1,32.11Z"/><path class="cls-28" d="M42.11,32.12c-.81-.46-1.26-.24-1.26.73a3.85,3.85,0,0,0,1.73,3,1.4,1.4,0,0,0,1,.22,1.37,1.37,0,0,0,.3-.95A4.12,4.12,0,0,0,42.11,32.12Z"/><path class="cls-29" d="M42.11,32.13c-.81-.46-1.26-.24-1.26.73a3.84,3.84,0,0,0,1.72,3,1.39,1.39,0,0,0,1,.22,1.36,1.36,0,0,0,.3-.95A4.12,4.12,0,0,0,42.11,32.13Z"/><path class="cls-30" d="M42.11,32.13c-.81-.46-1.26-.24-1.26.73a3.84,3.84,0,0,0,1.72,3,1.38,1.38,0,0,0,1,.22,1.35,1.35,0,0,0,.29-.94A4.12,4.12,0,0,0,42.11,32.13Z"/><path class="cls-31" d="M42.12,32.14c-.81-.46-1.26-.24-1.26.73a3.84,3.84,0,0,0,1.71,3,1.38,1.38,0,0,0,1,.22,1.34,1.34,0,0,0,.29-.94A4.11,4.11,0,0,0,42.12,32.14Z"/><path class="cls-32" d="M42.12,32.15c-.81-.46-1.25-.24-1.25.72a3.83,3.83,0,0,0,1.7,3,1.37,1.37,0,0,0,1,.22,1.33,1.33,0,0,0,.29-.94A4.11,4.11,0,0,0,42.12,32.15Z"/><path class="cls-33" d="M42.12,32.16c-.81-.46-1.25-.24-1.25.72a3.83,3.83,0,0,0,1.7,3,1.37,1.37,0,0,0,1,.22,1.32,1.32,0,0,0,.29-.94A4.11,4.11,0,0,0,42.12,32.16Z"/><path class="cls-34" d="M42.13,32.17c-.8-.46-1.25-.24-1.25.72a3.83,3.83,0,0,0,1.69,3,1.36,1.36,0,0,0,1,.22,1.31,1.31,0,0,0,.29-.94A4.1,4.1,0,0,0,42.13,32.17Z"/><path class="cls-35" d="M42.13,32.17c-.8-.46-1.25-.24-1.25.72a3.82,3.82,0,0,0,1.69,3,1.36,1.36,0,0,0,1,.22,1.29,1.29,0,0,0,.29-.93A4.1,4.1,0,0,0,42.13,32.17Z"/><path class="cls-36" d="M42.14,32.18c-.8-.46-1.24-.24-1.24.72a3.82,3.82,0,0,0,1.68,2.94,1.35,1.35,0,0,0,1,.22,1.28,1.28,0,0,0,.29-.93A4.1,4.1,0,0,0,42.14,32.18Z"/><path class="cls-37" d="M42.14,32.19c-.8-.46-1.24-.24-1.24.72a3.82,3.82,0,0,0,1.68,2.94,1.34,1.34,0,0,0,1,.23,1.27,1.27,0,0,0,.29-.93A4.09,4.09,0,0,0,42.14,32.19Z"/><path class="cls-38" d="M42.14,32.2c-.8-.46-1.24-.24-1.24.72a3.81,3.81,0,0,0,1.67,2.93,1.34,1.34,0,0,0,1,.23,1.26,1.26,0,0,0,.29-.93A4.09,4.09,0,0,0,42.14,32.2Z"/><path class="cls-39" d="M42.15,32.21c-.8-.46-1.24-.24-1.24.71a3.81,3.81,0,0,0,1.67,2.92,1.33,1.33,0,0,0,1,.23,1.25,1.25,0,0,0,.29-.93A4.09,4.09,0,0,0,42.15,32.21Z"/><path class="cls-40" d="M42.15,32.21c-.8-.46-1.23-.24-1.23.71a3.81,3.81,0,0,0,1.66,2.92,1.33,1.33,0,0,0,1,.23,1.24,1.24,0,0,0,.29-.92A4.08,4.08,0,0,0,42.15,32.21Z"/><path class="cls-41" d="M42.15,32.22c-.8-.46-1.23-.23-1.23.71a3.8,3.8,0,0,0,1.66,2.91,1.32,1.32,0,0,0,1,.23,1.23,1.23,0,0,0,.29-.92A4.08,4.08,0,0,0,42.15,32.22Z"/><path class="cls-42" d="M42.16,32.23c-.8-.46-1.23-.23-1.23.71a3.8,3.8,0,0,0,1.65,2.9,1.32,1.32,0,0,0,1,.23,1.22,1.22,0,0,0,.29-.92A4.08,4.08,0,0,0,42.16,32.23Z"/><path class="cls-43" d="M42.16,32.24c-.79-.45-1.23-.23-1.23.71a3.8,3.8,0,0,0,1.65,2.89,1.31,1.31,0,0,0,1,.23,1.21,1.21,0,0,0,.29-.92A4.07,4.07,0,0,0,42.16,32.24Z"/><path class="cls-44" d="M42.16,32.25c-.79-.45-1.22-.23-1.22.71a3.79,3.79,0,0,0,1.64,2.89,1.31,1.31,0,0,0,1,.23,1.2,1.2,0,0,0,.29-.92A4.07,4.07,0,0,0,42.16,32.25Z"/><path class="cls-45" d="M42.17,32.25c-.79-.45-1.22-.23-1.22.7a3.79,3.79,0,0,0,1.64,2.88,1.3,1.3,0,0,0,1,.23,1.19,1.19,0,0,0,.29-.92A4.07,4.07,0,0,0,42.17,32.25Z"/><path class="cls-46" d="M42.17,32.27C41.39,31.82,41,32,41,33a3.78,3.78,0,0,0,1.62,2.87,1.29,1.29,0,0,0,1,.23,1.17,1.17,0,0,0,.28-.91A4.06,4.06,0,0,0,42.17,32.27Z"/><path class="cls-47" d="M42.18,32.29c-.79-.45-1.21-.23-1.21.7a3.78,3.78,0,0,0,1.61,2.85,1.28,1.28,0,0,0,1,.23,1.15,1.15,0,0,0,.28-.91A4.05,4.05,0,0,0,42.18,32.29Z"/><path class="cls-48" d="M42.19,32.3c-.78-.45-1.21-.23-1.21.7a3.77,3.77,0,0,0,1.6,2.84,1.27,1.27,0,0,0,1,.23,1.13,1.13,0,0,0,.28-.9A4,4,0,0,0,42.19,32.3Z"/><path class="cls-49" d="M42.2,32.32c-.78-.45-1.2-.23-1.2.69a3.76,3.76,0,0,0,1.59,2.82,1.26,1.26,0,0,0,1,.23,1.11,1.11,0,0,0,.28-.9A4,4,0,0,0,42.2,32.32Z"/><path class="cls-50" d="M42.2,32.34c-.78-.45-1.2-.23-1.2.69a3.76,3.76,0,0,0,1.58,2.81,1.25,1.25,0,0,0,1,.23,1.09,1.09,0,0,0,.28-.9A4,4,0,0,0,42.2,32.34Z"/><path class="cls-51" d="M42.21,32.35c-.78-.45-1.19-.23-1.19.69a3.75,3.75,0,0,0,1.57,2.8,1.24,1.24,0,0,0,1,.23,1.07,1.07,0,0,0,.28-.89A4,4,0,0,0,42.21,32.35Z"/><path class="cls-52" d="M42.22,32.37c-.77-.44-1.18-.23-1.18.68a3.75,3.75,0,0,0,1.56,2.78,1.23,1.23,0,0,0,1,.23,1.05,1.05,0,0,0,.28-.89A4,4,0,0,0,42.22,32.37Z"/><path class="cls-53" d="M42.22,32.38c-.77-.44-1.18-.23-1.18.68a3.74,3.74,0,0,0,1.55,2.77,1.22,1.22,0,0,0,1,.24c.17-.2.28-.32.28-.88A4,4,0,0,0,42.22,32.38Z"/><path class="cls-54" d="M42.23,32.4c-.77-.44-1.17-.22-1.17.68a3.74,3.74,0,0,0,1.54,2.76,1.21,1.21,0,0,0,1,.24c.17-.2.27-.31.27-.88A4,4,0,0,0,42.23,32.4Z"/><path class="cls-55" d="M42.24,32.42c-.77-.44-1.17-.22-1.17.68a3.73,3.73,0,0,0,1.53,2.74,1.2,1.2,0,0,0,1,.24c.17-.2.27-.3.27-.88A4,4,0,0,0,42.24,32.42Z"/><path class="cls-56" d="M42.24,32.43c-.76-.44-1.16-.22-1.16.67a3.73,3.73,0,0,0,1.52,2.73,1.19,1.19,0,0,0,1,.24c.17-.19.27-.28.27-.87A4,4,0,0,0,42.24,32.43Z"/><path class="cls-57" d="M42.25,32.45c-.76-.44-1.16-.22-1.16.67a3.72,3.72,0,0,0,1.51,2.71,1.18,1.18,0,0,0,1,.24c.17-.19.27-.27.27-.87A4,4,0,0,0,42.25,32.45Z"/><path class="cls-58" d="M42.26,32.46c-.76-.44-1.15-.22-1.15.67a3.72,3.72,0,0,0,1.5,2.7c.52.3.72.29,1,.24s.27-.26.27-.86A4,4,0,0,0,42.26,32.46Z"/><path class="cls-59" d="M42.27,32.48c-.76-.44-1.15-.22-1.15.66a3.72,3.72,0,0,0,1.49,2.69c.53.31.72.29,1,.24s.27-.25.27-.86A4,4,0,0,0,42.27,32.48Z"/><path class="cls-60" d="M42.27,32.5c-.75-.43-1.14-.22-1.14.66a3.71,3.71,0,0,0,1.48,2.67c.54.31.72.29,1,.24s.27-.24.27-.86A4,4,0,0,0,42.27,32.5Z"/><path class="cls-61" d="M42.28,32.51c-.75-.43-1.14-.22-1.14.66a3.71,3.71,0,0,0,1.47,2.66c.54.31.72.29,1,.24s.27-.22.27-.85A4,4,0,0,0,42.28,32.51Z"/><path class="cls-62" d="M42.29,32.53c-.75-.43-1.13-.22-1.13.65a3.71,3.71,0,0,0,1.45,2.64c.55.32.72.29,1,.24s.27-.21.27-.85A4,4,0,0,0,42.29,32.53Z"/><path class="cls-63" d="M42.29,32.55c-.75-.43-1.13-.22-1.13.65a3.7,3.7,0,0,0,1.44,2.63c.56.32.72.29,1,.24s.26-.2.26-.85A3.94,3.94,0,0,0,42.29,32.55Z"/><path class="cls-64" d="M42.3,32.56c-.75-.43-1.12-.21-1.12.65a3.7,3.7,0,0,0,1.43,2.62c.57.33.72.29,1,.24s.26-.19.26-.84A3.93,3.93,0,0,0,42.3,32.56Z"/><path class="cls-65" d="M42.31,32.58c-.74-.43-1.12-.21-1.12.65a3.7,3.7,0,0,0,1.42,2.6c.57.33.72.29,1,.24s.26-.18.26-.84A3.93,3.93,0,0,0,42.31,32.58Z"/><path class="cls-7" d="M42.32,32.59c-.74-.43-1.11-.21-1.11.64a3.69,3.69,0,0,0,1.41,2.59c.58.33.72.29,1,.25s.26-.17.26-.83A3.92,3.92,0,0,0,42.32,32.59Z"/><path class="cls-66" d="M44.43,32.38a.12.12,0,0,1-.1-.07l-1.7-3.49L41,30.31a.12.12,0,1,1-.15-.17l1.76-1.59a.12.12,0,0,1,.18,0l1.76,3.62a.12.12,0,0,1-.05.15Z"/><path class="cls-67" d="M42.76,28.38a.6.6,0,0,1,.14.53.17.17,0,0,1-.3.08.6.6,0,0,1-.14-.53.17.17,0,0,1,.3-.08Z"/><polygon class="cls-12" points="43.98 17.18 46.93 18.88 47.08 18.96 47.24 19.04 47.4 19.11 47.58 19.18 47.75 19.23 47.93 19.29 48.12 19.33 48.31 19.38 48.5 19.41 48.7 19.44 48.9 19.46 49.1 19.48 49.31 19.49 49.52 19.5 49.73 19.5 49.94 19.49 50.15 19.48 50.36 19.46 50.57 19.44 50.78 19.41 50.99 19.38 51.2 19.34 51.41 19.29 51.61 19.24 51.81 19.18 52.01 19.12 52.21 19.05 52.4 18.98 52.59 18.9 52.77 18.81 52.95 18.72 53.13 18.62 53.45 18.42 53.74 18.2 53.98 17.98 54.19 17.75 54.36 17.51 54.49 17.27 54.58 17.03 54.63 16.78 54.64 16.54 54.64 3.81 54.63 4.05 54.58 4.3 54.49 4.54 54.36 4.78 54.19 5.02 53.98 5.25 53.74 5.48 53.45 5.69 53.13 5.9 52.95 5.99 52.77 6.08 52.59 6.17 52.4 6.25 52.21 6.32 52.01 6.39 51.81 6.45 51.61 6.51 51.41 6.56 51.2 6.61 50.99 6.65 50.78 6.68 50.57 6.71 50.36 6.73 50.15 6.75 49.94 6.76 49.73 6.77 49.52 6.77 49.31 6.76 49.1 6.75 48.9 6.73 48.7 6.71 48.5 6.68 48.31 6.65 48.12 6.61 47.93 6.56 47.75 6.51 47.58 6.45 47.4 6.38 47.24 6.31 47.08 6.24 46.93 6.15 43.98 4.45 43.71 4.27 43.47 4.08 43.28 3.87 43.13 3.66 43.02 3.43 42.95 3.2 42.92 2.96 42.92 15.69 42.95 15.92 43.02 16.16 43.13 16.38 43.28 16.6 43.47 16.81 43.71 17 43.98 17.18"/><polygon class="cls-13" points="43.98 7.71 46.93 9.41 47.08 9.5 47.24 9.57 47.4 9.64 47.58 9.71 47.75 9.77 47.93 9.82 48.12 9.87 48.31 9.91 48.5 9.94 48.7 9.97 48.9 10 49.1 10.01 49.31 10.03 49.52 10.03 49.73 10.03 49.94 10.02 50.15 10.01 50.36 9.99 50.57 9.97 50.78 9.94 50.99 9.91 51.2 9.87 51.41 9.82 51.61 9.77 51.81 9.71 52.01 9.65 52.21 9.58 52.4 9.51 52.59 9.43 52.77 9.34 52.95 9.25 53.13 9.16 53.45 8.95 53.74 8.74 53.98 8.51 54.19 8.28 54.36 8.04 54.49 7.8 54.58 7.56 54.63 7.32 54.64 7.07 54.64 4.94 54.63 5.18 54.58 5.43 54.49 5.67 54.36 5.91 54.19 6.15 53.98 6.38 53.74 6.61 53.45 6.82 53.13 7.03 52.95 7.12 52.77 7.21 52.59 7.3 52.4 7.38 52.21 7.45 52.01 7.52 51.81 7.58 51.61 7.64 51.41 7.69 51.2 7.74 50.99 7.78 50.78 7.81 50.57 7.84 50.36 7.87 50.15 7.88 49.94 7.89 49.73 7.9 49.52 7.9 49.31 7.89 49.1 7.88 48.9 7.87 48.7 7.84 48.5 7.81 48.31 7.78 48.12 7.74 47.93 7.69 47.75 7.64 47.58 7.58 47.4 7.51 47.24 7.44 47.08 7.37 46.93 7.28 43.98 5.58 43.71 5.4 43.47 5.21 43.28 5 43.13 4.79 43.02 4.56 42.95 4.33 42.92 4.09 42.92 6.22 42.95 6.46 43.02 6.69 43.13 6.92 43.28 7.13 43.47 7.34 43.71 7.53 43.98 7.71"/><path class="cls-13" d="M75.22,20.6l-8.91,5.14c-2.53,1.46-7,1.27-9.9-.41L44.16,18.26,62.26,7.81,74.5,14.88C77.42,16.57,77.74,19.14,75.22,20.6Z"/><path class="cls-10" d="M51.54,14l8.25-4.76.61.35a1.77,1.77,0,0,1,1.06,1.74,2.7,2.7,0,0,1-1.5,1.84h0a7.12,7.12,0,0,1-3.19.87C55.23,14.1,53.52,14,51.54,14Z"/><path class="cls-17" d="M46.23,4l1.57.9a3.68,3.68,0,0,0,3.3-.14h0c1-.56,1.08-1.42.24-1.9l-1.57-.9a3.68,3.68,0,0,0-3.3.14h0C45.49,2.61,45.39,3.47,46.23,4Z"/><path class="cls-19" d="M23.69,26.82a5.41,5.41,0,0,0,.81,1.55c.79,1.42,1.67,2.79,2.59,4.13a65.3,65.3,0,0,0,20.62,19c9,5.26,18.91,7.89,28.94,10.22A118.68,118.68,0,0,0,89.16,64.1a54.61,54.61,0,0,0,9,.4,23.08,23.08,0,0,0,8.19-1.42,2.8,2.8,0,0,0,1.7-2.52,44.36,44.36,0,0,0,.71-6.39S106.44,59.82,92.27,58a105.92,105.92,0,0,1-24.82-5.76L62.06,55S30,40.07,23.25,22.62Z"/><path class="cls-68" d="M81.92,61.56a2.58,2.58,0,0,1,1,1.28A2.31,2.31,0,0,1,83,64.41a1.48,1.48,0,0,1-1,1,1.71,1.71,0,0,1-1.4-.22,2.58,2.58,0,0,1-1-1.28,2.31,2.31,0,0,1-.06-1.58,1.48,1.48,0,0,1,1-1A1.71,1.71,0,0,1,81.92,61.56Z"/><path class="cls-67" d="M81.92,61.56a2.58,2.58,0,0,1,1,1.28A2.31,2.31,0,0,1,83,64.41a1.69,1.69,0,0,1-.19.38,1.39,1.39,0,0,1-.35.17,1.7,1.7,0,0,1-1.4-.22,2.58,2.58,0,0,1-1-1.28A2.31,2.31,0,0,1,80,61.88a1.7,1.7,0,0,1,.19-.38,1.4,1.4,0,0,1,.35-.17A1.71,1.71,0,0,1,81.92,61.56Z"/><path class="cls-67" d="M81.49,62.56a.6.6,0,0,1,.6.6v.73a.6.6,0,0,1-.18.43l0,0a.38.38,0,0,1,0,0v1.2l0,0a.6.6,0,0,1,.18.43v.73a.6.6,0,0,1-.18.43l0,0a.39.39,0,0,1,0,0v1.2l0,0a.6.6,0,0,1,.18.43v.73a.6.6,0,0,1-.18.43l0,0a.39.39,0,0,1,0,0v1.2l0,0a.6.6,0,0,1,.18.43v.73a.6.6,0,0,1-.18.43l0,0a.39.39,0,0,1,0,0v1.2l0,0a.6.6,0,0,1,.18.43v.73a.6.6,0,0,1-.18.43l0,0a.39.39,0,0,1,0,0v1.2l0,0a.6.6,0,0,1,.18.43v.73a.6.6,0,0,1-.18.43l0,0a.39.39,0,0,1,0,0v1.2l0,0a.6.6,0,0,1,.18.43V81h-.27v-.43a.33.33,0,0,0-.08-.21.38.38,0,0,1-.52,0,.33.33,0,0,0-.08.21V81h-.27v-.43a.6.6,0,0,1,.18-.43l0,0a.34.34,0,0,1,0,0V78.9a.41.41,0,0,1,0,0l0,0a.6.6,0,0,1-.18-.43v-.73a.6.6,0,0,1,.18-.43l0,0a.34.34,0,0,1,0,0V76a.41.41,0,0,1,0,0l0,0a.6.6,0,0,1-.18-.43v-.73a.6.6,0,0,1,.18-.43l0,0a.34.34,0,0,1,0,0V73.1a.4.4,0,0,1,0,0l0,0a.6.6,0,0,1-.18-.43v-.73a.6.6,0,0,1,.18-.43l0,0a.34.34,0,0,1,0,0V70.2a.4.4,0,0,1,0,0l0,0a.6.6,0,0,1-.18-.43V69a.6.6,0,0,1,.18-.43l0,0a.34.34,0,0,1,0,0V67.3a.4.4,0,0,1,0,0l0,0a.6.6,0,0,1-.18-.43v-.73a.6.6,0,0,1,.18-.43l0,0a.34.34,0,0,1,0,0V64.4a.4.4,0,0,1,0,0l0,0a.6.6,0,0,1-.18-.43v-.73a.6.6,0,0,1,.6-.6Zm.24.37a.34.34,0,0,0-.57.24v.73a.34.34,0,0,0,.08.22.38.38,0,0,1,.51,0,.34.34,0,0,0,.08-.22v-.73a.33.33,0,0,0-.1-.24Zm-.12,1.56h-.24v1h.24v-1Zm.22,1.58a.33.33,0,0,0-.08-.21.38.38,0,0,1-.52,0,.33.33,0,0,0-.08.21v.73a.33.33,0,0,0,.08.22.38.38,0,0,1,.51,0,.34.34,0,0,0,.08-.22v-.73Zm-.22,1.32h-.24v1h.24v-1ZM81.83,69a.33.33,0,0,0-.08-.21.38.38,0,0,1-.52,0,.33.33,0,0,0-.08.21v.73a.33.33,0,0,0,.08.22.38.38,0,0,1,.51,0,.33.33,0,0,0,.08-.22V69Zm-.22,1.32h-.24v1h.24v-1Zm.22,1.58a.33.33,0,0,0-.08-.21.38.38,0,0,1-.52,0,.33.33,0,0,0-.08.21v.73a.33.33,0,0,0,.08.22.38.38,0,0,1,.51,0,.33.33,0,0,0,.08-.22v-.73Zm-.22,1.32h-.24v1h.24v-1Zm.22,1.58a.33.33,0,0,0-.08-.21.38.38,0,0,1-.52,0,.33.33,0,0,0-.08.21v.73a.33.33,0,0,0,.08.22.38.38,0,0,1,.51,0,.33.33,0,0,0,.08-.22v-.73Zm-.22,1.32h-.24v1h.24v-1Zm.22,1.58a.33.33,0,0,0-.08-.21.38.38,0,0,1-.52,0,.33.33,0,0,0-.08.21v.73a.34.34,0,0,0,.08.22.38.38,0,0,1,.51,0,.34.34,0,0,0,.08-.22v-.73ZM81.61,79h-.24v1h.24Z"/><polygon class="cls-19" points="45.97 17.22 63.16 26.67 63.79 30.76 65.14 30.07 65.55 26.11 47.77 16.18 45.97 17.22"/><polygon class="cls-19" points="50.35 14.65 68.38 24.56 68.6 28.07 69.94 27.27 70.2 23.51 52.15 13.61 50.35 14.65"/><polygon class="cls-19" points="54.64 12.27 72.58 22.13 72.66 25.72 74.09 24.81 74.42 21.07 56.44 11.23 54.64 12.27"/><polygon class="cls-19" points="58.42 10.02 76.34 19.68 76.27 19.4 76.28 19.28 76.92 18.12 60.22 8.98 58.42 10.02"/><path class="cls-19" d="M76.92,18.12a2.1,2.1,0,0,1-.58,1.55l-.51-.27Z"/></g></g></g></svg>