<svg xmlns="http://www.w3.org/2000/svg" viewBox="0 0 152.86 124.61">
    <defs>
        <style>
            .cls-1{isolation:isolate;}.cls-2,.cls-22,.cls-8{mix-blend-mode:multiply;}.cls-3{fill:#e6e7e8; fill-opacity: 0.4;}.cls-4{fill:#0a6d38;}.cls-5{fill:#04834a;}.cls-6{fill:#dc8c4a;}.cls-7{fill:#964e22;}.cls-8{fill:#825333;opacity:0.4;}.cls-9{fill:#bb6b2d;}.cls-10{fill:#f7fcfe;}.cls-10,.cls-11,.cls-12,.cls-13,.cls-14,.cls-15,.cls-16,.cls-17,.cls-20,.cls-21{fill-rule:evenodd;}.cls-11{fill:#7ec5ed;}.cls-12{fill:#f99d3c;}.cls-13{fill:#f05555;}.cls-14{fill:#81421d;}.cls-15{fill:#d78148;}.cls-16{fill:#874a20;}.cls-17{fill:#fbb272;}.cls-18,.cls-19,.cls-20,.cls-21{fill:#c7cedf;}.cls-19,.cls-21{opacity:0.6;mix-blend-mode:screen;}.cls-22{fill:#825f46;opacity:0.7;}.cls-23{fill:#2b2c2b;}.cls-24{fill:#b6b7b7;}.cls-25{fill:#454545;}
        </style>
    </defs>
    <title>icn_case_pad</title>
    <g class="cls-1">
        <g id="Слой_2" data-name="Слой 2">
            <g id="Layer_1" data-name="Layer 1">
                <g class="cls-2">
                    <path class="cls-3"
                          d="M127.67,51.29C94.09,31.9,59.43,31.9,25.85,51.29h0C9.06,61,.66,70.83.66,80.68s8.4,19.7,25.19,29.39c33.58,19.39,68.24,19.39,101.82,0,16.79-9.69,25.19-19.54,25.19-29.39S144.46,61,127.67,51.29Z"/>
                </g>
                <path class="cls-4"
                      d="M117.18,86.64c-31,17.89-63,17.89-93.94,0C7.75,77.7,0,68.61,0,59.52V73.05c0,9.09,7.75,18.17,23.24,27.12,31,17.89,63,17.89,93.94,0,15.49-8.94,23.24-18,23.24-27.12V59.52C140.42,68.61,132.67,77.7,117.18,86.64Z"/>
                <path class="cls-5"
                      d="M117.18,32.4c-31-17.89-63-17.89-93.94,0h0C7.74,41.35,0,50.43,0,59.52S7.75,77.7,23.24,86.64c31,17.89,63,17.89,93.94,0,15.49-8.94,23.24-18,23.24-27.12S132.67,41.35,117.18,32.4Z"/>
                <polygon class="cls-4" points="110.84 50.67 42.67 89.31 21.41 75.82 83.75 39.22 110.84 50.67"/>
                <polygon class="cls-6"
                         points="87.84 0 28.47 34.27 28.47 72.47 44.66 81.88 104.03 47.61 104.03 9.42 87.84 0"/>
                <polygon class="cls-7" points="44.66 43.69 28.47 34.27 28.47 72.47 44.66 81.88 44.66 43.69"/>
                <polygon class="cls-8"
                         points="95.23 4.3 36 38.46 35.84 38.55 35.84 76.75 36.47 77.12 36.47 38.92 95.86 4.66 95.23 4.3"/>
                <polygon class="cls-9" points="104.03 47.61 44.66 81.88 44.66 43.69 104.03 9.42 104.03 47.61"/>
                <path class="cls-10"
                      d="M64,39.7a.5.5,0,0,1-.2.1.43.43,0,0,0-.25.19.84.84,0,0,1-.18.2.5.5,0,0,1-.2.1.43.43,0,0,0-.25.19.84.84,0,0,1-.18.2.5.5,0,0,1-.2.1.43.43,0,0,0-.25.19.84.84,0,0,1-.18.2.5.5,0,0,1-.2.1.43.43,0,0,0-.25.19.84.84,0,0,1-.18.2.5.5,0,0,1-.2.1.43.43,0,0,0-.25.19.83.83,0,0,1-.18.2.5.5,0,0,1-.2.1.43.43,0,0,0-.25.19.84.84,0,0,1-.18.2.5.5,0,0,1-.2.1.43.43,0,0,0-.25.19.84.84,0,0,1-.18.2.5.5,0,0,1-.2.1.43.43,0,0,0-.25.19.84.84,0,0,1-.18.2.5.5,0,0,1-.2.1.43.43,0,0,0-.25.19.83.83,0,0,1-.18.2.5.5,0,0,1-.2.1.43.43,0,0,0-.25.19.83.83,0,0,1-.18.2.5.5,0,0,1-.2.1.43.43,0,0,0-.25.19.83.83,0,0,1-.18.2.5.5,0,0,1-.2.1.43.43,0,0,0-.25.19.84.84,0,0,1-.18.2.5.5,0,0,1-.2.1.43.43,0,0,0-.25.19.84.84,0,0,1-.18.2.5.5,0,0,1-.2.1.43.43,0,0,0-.25.19.83.83,0,0,1-.18.2.5.5,0,0,1-.2.1.43.43,0,0,0-.25.19.83.83,0,0,1-.18.2.5.5,0,0,1-.2.1.43.43,0,0,0-.25.19.84.84,0,0,1-.18.2.5.5,0,0,1-.2.1.43.43,0,0,0-.25.19.84.84,0,0,1-.18.2.5.5,0,0,1-.2.1.43.43,0,0,0-.25.19.83.83,0,0,1-.18.2l0,0a.49.49,0,0,0-.22.44l0,.09,1.19,5.62,0,.09c0,.13.17.15.32,0l0,0a.5.5,0,0,1,.2-.1.43.43,0,0,0,.25-.19.83.83,0,0,1,.18-.2.5.5,0,0,1,.2-.1A.43.43,0,0,0,55,53.9a.84.84,0,0,1,.18-.2.5.5,0,0,1,.2-.1.43.43,0,0,0,.25-.19.84.84,0,0,1,.18-.2.5.5,0,0,1,.2-.1.43.43,0,0,0,.25-.19.83.83,0,0,1,.18-.2.5.5,0,0,1,.2-.1.43.43,0,0,0,.25-.19.83.83,0,0,1,.18-.2.5.5,0,0,1,.2-.1.43.43,0,0,0,.25-.19.84.84,0,0,1,.18-.2.5.5,0,0,1,.2-.1.43.43,0,0,0,.25-.19.83.83,0,0,1,.18-.2.5.5,0,0,1,.2-.1.43.43,0,0,0,.25-.19.84.84,0,0,1,.18-.2.5.5,0,0,1,.2-.1.43.43,0,0,0,.25-.19.84.84,0,0,1,.18-.2.5.5,0,0,1,.2-.1A.43.43,0,0,0,60.1,50a.84.84,0,0,1,.18-.2.5.5,0,0,1,.2-.1.43.43,0,0,0,.25-.19.83.83,0,0,1,.18-.2.5.5,0,0,1,.2-.1.43.43,0,0,0,.25-.19.83.83,0,0,1,.18-.2.5.5,0,0,1,.2-.1.43.43,0,0,0,.25-.19.83.83,0,0,1,.18-.2.5.5,0,0,1,.2-.1.43.43,0,0,0,.25-.19.84.84,0,0,1,.18-.2.5.5,0,0,1,.2-.1.43.43,0,0,0,.25-.19.83.83,0,0,1,.18-.2.5.5,0,0,1,.2-.1.43.43,0,0,0,.25-.19.83.83,0,0,1,.18-.2.5.5,0,0,1,.2-.1.43.43,0,0,0,.25-.19.84.84,0,0,1,.18-.2.5.5,0,0,1,.2-.1.43.43,0,0,0,.25-.19.84.84,0,0,1,.18-.2h0a.51.51,0,0,0,.22-.44l0-.09-1.19-5.62,0-.09c0-.13-.17-.14-.32,0Z"/>
                <path class="cls-11"
                      d="M63.95,46.34l-8.79,6.73c-.44.33-.86.29-.94-.1l-.79-3.73a1.53,1.53,0,0,1,.64-1.31l8.79-6.73c.44-.33.86-.29.94.1L64.59,45A1.53,1.53,0,0,1,63.95,46.34Z"/>
                <path class="cls-10"
                      d="M72.26,60.95a.76.76,0,0,1,.16-.18.47.47,0,0,0,.16-.26.65.65,0,0,1,.09-.21.77.77,0,0,1,.16-.18.47.47,0,0,0,.16-.26.65.65,0,0,1,.09-.21.77.77,0,0,1,.16-.18.47.47,0,0,0,.16-.26A.65.65,0,0,1,73.5,59a.77.77,0,0,1,.16-.18.47.47,0,0,0,.16-.26.65.65,0,0,1,.09-.21.77.77,0,0,1,.16-.18.47.47,0,0,0,.16-.25.65.65,0,0,1,.09-.21.76.76,0,0,1,.16-.18.47.47,0,0,0,.16-.25.65.65,0,0,1,.09-.21.76.76,0,0,1,.16-.18.47.47,0,0,0,.16-.25.65.65,0,0,1,.09-.21.76.76,0,0,1,.16-.18.47.47,0,0,0,.16-.25.65.65,0,0,1,.09-.21.76.76,0,0,1,.16-.18.47.47,0,0,0,.16-.25.65.65,0,0,1,.09-.21.77.77,0,0,1,.16-.18.47.47,0,0,0,.16-.25.65.65,0,0,1,.09-.21.76.76,0,0,1,.16-.18.47.47,0,0,0,.16-.25.65.65,0,0,1,.09-.21.76.76,0,0,1,.16-.18.47.47,0,0,0,.16-.25.65.65,0,0,1,.09-.21.76.76,0,0,1,.16-.18.47.47,0,0,0,.16-.25.65.65,0,0,1,.09-.21.76.76,0,0,1,.16-.18.47.47,0,0,0,.16-.25.65.65,0,0,1,.09-.21.77.77,0,0,1,.16-.18.47.47,0,0,0,.16-.25.65.65,0,0,1,.09-.21.76.76,0,0,1,.16-.18.47.47,0,0,0,.16-.25.65.65,0,0,1,.09-.21.76.76,0,0,1,.16-.18.47.47,0,0,0,.16-.25.65.65,0,0,1,.09-.21.76.76,0,0,1,.16-.18.47.47,0,0,0,.16-.25.65.65,0,0,1,.09-.21l0,0c.1-.15.1-.31,0-.35l-.07,0-4.17-1.75-.07,0c-.1,0-.26.05-.35.21l0,0a.76.76,0,0,1-.16.18.47.47,0,0,0-.16.25.65.65,0,0,1-.09.21.77.77,0,0,1-.16.18.47.47,0,0,0-.16.25.65.65,0,0,1-.09.21.76.76,0,0,1-.16.18.47.47,0,0,0-.16.25.65.65,0,0,1-.09.21.76.76,0,0,1-.16.18.47.47,0,0,0-.16.25.65.65,0,0,1-.09.21.76.76,0,0,1-.16.18.47.47,0,0,0-.16.25.65.65,0,0,1-.09.21.76.76,0,0,1-.16.18.47.47,0,0,0-.16.25.65.65,0,0,1-.09.21.77.77,0,0,1-.16.18.47.47,0,0,0-.16.25.65.65,0,0,1-.09.21A.76.76,0,0,1,72,52a.47.47,0,0,0-.16.25.65.65,0,0,1-.09.21.76.76,0,0,1-.16.18.47.47,0,0,0-.16.25.65.65,0,0,1-.09.21.76.76,0,0,1-.16.18.47.47,0,0,0-.16.25.65.65,0,0,1-.09.21.76.76,0,0,1-.16.18.47.47,0,0,0-.16.25.65.65,0,0,1-.09.21.77.77,0,0,1-.16.18.47.47,0,0,0-.16.25.65.65,0,0,1-.09.21.76.76,0,0,1-.16.18.47.47,0,0,0-.16.25.65.65,0,0,1-.09.21.76.76,0,0,1-.16.18.47.47,0,0,0-.16.25.65.65,0,0,1-.09.21.76.76,0,0,1-.16.18.47.47,0,0,0-.16.25.65.65,0,0,1-.09.21.76.76,0,0,1-.16.18.47.47,0,0,0-.16.25.65.65,0,0,1-.09.21.77.77,0,0,1-.16.18.47.47,0,0,0-.16.25.65.65,0,0,1-.09.21.76.76,0,0,1-.16.18.47.47,0,0,0-.16.25.65.65,0,0,1-.09.21h0c-.1.15-.1.31,0,.35l.06,0,4.17,1.75.06,0c.1,0,.25-.06.35-.21Z"/>
                <path class="cls-12"
                      d="M68.86,57.92l5.84-9.23c.28-.44.73-.7,1-.58l2.81,1.18c.28.12.28.57,0,1l-5.84,9.23c-.28.44-.73.7-1,.58l-2.81-1.18C68.58,58.8,68.58,58.35,68.86,57.92Z"/>
                <path class="cls-10"
                      d="M85.9,35.24a.15.15,0,0,1,.13.05s.11,0,.19,0a.36.36,0,0,1,.18-.06.15.15,0,0,1,.13.05s.11,0,.19,0a.36.36,0,0,1,.18-.06.15.15,0,0,1,.13.05s.11,0,.19,0a.36.36,0,0,1,.18-.06.15.15,0,0,1,.13.05s.11,0,.19,0a.36.36,0,0,1,.18-.06.15.15,0,0,1,.13.05s.11,0,.19,0a.36.36,0,0,1,.18-.06.15.15,0,0,1,.13.05s.11,0,.19,0a.36.36,0,0,1,.18-.06.15.15,0,0,1,.13.05s.11,0,.19,0a.36.36,0,0,1,.18-.06.15.15,0,0,1,.13.05s.11,0,.19,0a.36.36,0,0,1,.17-.06.15.15,0,0,1,.13.05s.11,0,.19,0a.36.36,0,0,1,.18-.06.15.15,0,0,1,.13.05s.11,0,.19,0a.36.36,0,0,1,.18-.06.15.15,0,0,1,.13.05s.11,0,.19,0a.36.36,0,0,1,.18-.06.15.15,0,0,1,.13.05s.11,0,.19,0a.36.36,0,0,1,.18-.06.15.15,0,0,1,.13.05s.11,0,.19,0a.36.36,0,0,1,.18-.06.15.15,0,0,1,.13.05s.11,0,.19,0a.36.36,0,0,1,.18-.06A.15.15,0,0,1,93,35s.11,0,.19,0a.36.36,0,0,1,.17-.06.15.15,0,0,1,.13.05s.11,0,.19,0a.36.36,0,0,1,.18-.06A.15.15,0,0,1,94,35s.11,0,.19,0a.36.36,0,0,1,.18-.06.15.15,0,0,1,.13.05s.11,0,.19,0a.36.36,0,0,1,.18-.06h0c.11,0,.26-.12.32-.28l0-.1L98,28l0-.1c.06-.16,0-.28-.1-.26h0a.15.15,0,0,1-.13-.05s-.11,0-.19,0a.36.36,0,0,1-.18.06.15.15,0,0,1-.13-.05s-.11,0-.19,0a.36.36,0,0,1-.17.06.15.15,0,0,1-.13-.05s-.11,0-.19,0a.36.36,0,0,1-.18.06.15.15,0,0,1-.13-.05s-.11,0-.19,0a.36.36,0,0,1-.18.06.15.15,0,0,1-.13-.05s-.11,0-.19,0a.36.36,0,0,1-.17.06.15.15,0,0,1-.13-.05s-.11,0-.19,0a.36.36,0,0,1-.18.06.15.15,0,0,1-.13-.05s-.11,0-.19,0a.36.36,0,0,1-.18.06.15.15,0,0,1-.13-.05s-.11,0-.19,0a.36.36,0,0,1-.18.06.15.15,0,0,1-.13-.05s-.11,0-.19,0a.36.36,0,0,1-.18.06.15.15,0,0,1-.13-.05s-.11,0-.19,0a.36.36,0,0,1-.18.06.15.15,0,0,1-.13-.05s-.11,0-.19,0a.36.36,0,0,1-.18.06.15.15,0,0,1-.13-.05s-.11,0-.19,0a.36.36,0,0,1-.17.06.15.15,0,0,1-.13-.05s-.11,0-.19,0a.36.36,0,0,1-.18.06.15.15,0,0,1-.13-.05s-.11,0-.19,0a.36.36,0,0,1-.18.06.15.15,0,0,1-.13-.05s-.11,0-.19,0a.36.36,0,0,1-.17.06.15.15,0,0,1-.13-.05s-.11,0-.19,0a.36.36,0,0,1-.18.06.15.15,0,0,1-.13-.05s-.11,0-.19,0a.36.36,0,0,1-.18.06.15.15,0,0,1-.13-.05s-.11,0-.19,0a.36.36,0,0,1-.18.06h0a.43.43,0,0,0-.32.28l0,.1-2.72,6.59,0,.1c-.06.16,0,.27.1.26Z"/>
                <path class="cls-13"
                      d="M89.59,28.57l7-.25c.34,0,.47.34.28.79l-1.82,4.4a1.31,1.31,0,0,1-1,.84l-7,.25c-.34,0-.47-.34-.28-.79l1.82-4.4A1.31,1.31,0,0,1,89.59,28.57Z"/>
                <polygon class="cls-14"
                         points="38.16 27.44 38.16 28.69 38.66 28.4 54.78 37.85 54.78 76.05 55.16 76.27 55.92 74.52 57.24 65.76 56.37 37.63 55.43 35.7 42.77 27.47 38.16 27.44"/>
                <polygon class="cls-14"
                         points="70.46 8.8 70.46 10.05 70.96 9.76 87.08 19.21 87.08 57.41 87.47 57.63 88.22 55.88 89.54 47.12 88.67 18.99 87.73 17.06 75.07 8.83 70.46 8.8"/>
                <path class="cls-15" d="M93.53,54.11l-6.07,3.5v-39l6.07-3.5Z"/>
                <path class="cls-16"
                      d="M91.11,24.79a1.29,1.29,0,0,1-.62,1c-.34.2-.62.08-.62-.26a1.29,1.29,0,0,1,.62-1C90.83,24.33,91.11,24.45,91.11,24.79Z"/>
                <path class="cls-16"
                      d="M91.11,29.72a1.29,1.29,0,0,1-.62,1c-.34.2-.62.08-.62-.26a1.29,1.29,0,0,1,.62-1C90.83,29.26,91.11,29.38,91.11,29.72Z"/>
                <path class="cls-16"
                      d="M91.11,34.65a1.29,1.29,0,0,1-.62,1c-.34.2-.62.08-.62-.26a1.29,1.29,0,0,1,.62-1C90.83,34.19,91.11,34.3,91.11,34.65Z"/>
                <path class="cls-16"
                      d="M91.11,39.58a1.29,1.29,0,0,1-.62,1c-.34.2-.62.08-.62-.26a1.29,1.29,0,0,1,.62-1C90.83,39.12,91.11,39.23,91.11,39.58Z"/>
                <path class="cls-16"
                      d="M91.11,44.51a1.29,1.29,0,0,1-.62,1c-.34.2-.62.08-.62-.26a1.29,1.29,0,0,1,.62-1C90.83,44,91.11,44.16,91.11,44.51Z"/>
                <path class="cls-15" d="M61.23,72.76l-6.07,3.5v-39l6.07-3.5Z"/>
                <path class="cls-16"
                      d="M58.81,43.44a1.29,1.29,0,0,1-.62,1c-.34.2-.62.08-.62-.26a1.29,1.29,0,0,1,.62-1C58.53,43,58.81,43.1,58.81,43.44Z"/>
                <path class="cls-16"
                      d="M58.81,48.37a1.29,1.29,0,0,1-.62,1c-.34.2-.62.08-.62-.26a1.29,1.29,0,0,1,.62-1C58.53,47.91,58.81,48,58.81,48.37Z"/>
                <path class="cls-16"
                      d="M58.81,53.3a1.29,1.29,0,0,1-.62,1c-.34.2-.62.08-.62-.26a1.29,1.29,0,0,1,.62-1C58.53,52.84,58.81,53,58.81,53.3Z"/>
                <path class="cls-16"
                      d="M58.81,58.23a1.29,1.29,0,0,1-.62,1c-.34.2-.62.08-.62-.26a1.29,1.29,0,0,1,.62-1C58.53,57.76,58.81,57.88,58.81,58.23Z"/>
                <path class="cls-16"
                      d="M58.81,63.16a1.29,1.29,0,0,1-.62,1c-.34.2-.62.08-.62-.26a1.29,1.29,0,0,1,.62-1C58.53,62.69,58.81,62.81,58.81,63.16Z"/>
                <path class="cls-17" d="M61.23,33.75l-6.07,3.5-17-9.81,6.07-3.5Z"/>
                <path class="cls-17" d="M93.53,15.11l-6.07,3.5-17-9.81,6.07-3.5Z"/>
                <path class="cls-18"
                      d="M93.41,19l-5.83,3.36a1.9,1.9,0,0,0-.91,1.44v4.42c0,.5.41.68.91.39l5.83-3.36a1.9,1.9,0,0,0,.91-1.44V19.39C94.32,18.88,93.91,18.71,93.41,19Zm.07,5.3a.15.15,0,0,1-.07.11l-5.83,3.36s-.07,0-.07,0V23.32a.15.15,0,0,1,.07-.11l5.83-3.36s.07,0,.07,0Z"/>
                <path class="cls-19"
                      d="M87.2,25.84V23.5a.79.79,0,0,1,.38-.6l5.83-3.36c.21-.12.38,0,.38.16V22l.22-.13V19.57c0-.33-.27-.45-.6-.25l-5.83,3.36a1.25,1.25,0,0,0-.6.95V26Z"/>
                <path class="cls-20"
                      d="M90.5,25.47h0c-.27.16-.49.06-.49-.21V22.08a1,1,0,0,1,.49-.78h0c.27-.16.49-.06.49.21v3.18A1,1,0,0,1,90.5,25.47Z"/>
                <path class="cls-21" d="M91,23.25V21.51c0-.27-.22-.36-.49-.21a1,1,0,0,0-.49.78v1.74Z"/>
                <path class="cls-18"
                      d="M61.11,37.65,55.28,41a1.9,1.9,0,0,0-.91,1.44v4.42c0,.5.41.68.91.39l5.83-3.36A1.9,1.9,0,0,0,62,42.46V38C62,37.53,61.61,37.36,61.11,37.65Zm.07,5.3a.15.15,0,0,1-.07.11l-5.83,3.36s-.07,0-.07,0V42a.15.15,0,0,1,.07-.11l5.83-3.36s.07,0,.07,0Z"/>
                <path class="cls-19"
                      d="M54.9,44.49V42.15a.79.79,0,0,1,.38-.6l5.83-3.36c.21-.12.38,0,.38.16v2.34l.22-.13V38.22c0-.33-.27-.45-.6-.25l-5.83,3.36a1.25,1.25,0,0,0-.6.95v2.34Z"/>
                <path class="cls-20"
                      d="M58.2,44.12h0c-.27.16-.49.06-.49-.21V40.73A1,1,0,0,1,58.2,40h0c.27-.16.49-.06.49.21v3.18A1,1,0,0,1,58.2,44.12Z"/>
                <path class="cls-21" d="M58.69,41.9V40.16c0-.27-.22-.36-.49-.21a1,1,0,0,0-.49.78v1.74Z"/>
                <polygon class="cls-22" points="78.82 16.35 56.92 29.02 52.9 26.7 74.8 14.03 78.82 16.35"/>
                <polygon class="cls-23" points="58.38 21.43 56.87 28.86 53.13 26.73 56.31 20.24 58.38 21.43"/>
                <polygon class="cls-23" points="77.61 16.91 74.11 14.85 72.07 11.14 75.03 13.42 77.61 16.91"/>
                <polygon class="cls-24" points="74.14 12.34 58.38 21.43 56.31 20.24 72.07 11.14 74.14 12.34"/>
                <polygon class="cls-25"
                         points="74.14 12.34 58.38 21.43 56.87 28.86 58.22 28.1 59.43 22.19 74 13.78 77.61 16.91 78.69 16.28 74.14 12.34"/>
            </g>
        </g>
    </g>
</svg>