<svg xmlns="http://www.w3.org/2000/svg" xmlns:xlink="http://www.w3.org/1999/xlink" viewBox="0 0 152.86 124.35"><defs><style>.cls-1{isolation:isolate;}.cls-13,.cls-14,.cls-2{mix-blend-mode:multiply;}.cls-3{fill:#e6e7e8; fill-opacity: 0.4;}.cls-4{fill:#d74527;}.cls-5{fill:#de5f25;}.cls-6,.cls-7,.cls-9{fill:#f1f2f2;}.cls-25,.cls-7{stroke:#fff;}.cls-25,.cls-7,.cls-9{stroke-miterlimit:10;stroke-width:0.08px;}.cls-8{fill:#ceeae4;}.cls-9{stroke:#d2d3d4;}.cls-10{fill:#e6e7e7;}.cls-11{fill:#0079bd;}.cls-12{fill:#3f4da1;}.cls-13{fill:#d2d3d4;}.cls-14,.cls-15{fill:#bcbec0;}.cls-16{fill:#313a5c;}.cls-17{fill:url(#linear-gradient);}.cls-18{fill:url(#linear-gradient-2);}.cls-19{fill:url(#linear-gradient-3);}.cls-20{fill:url(#linear-gradient-4);}.cls-21{fill:url(#linear-gradient-5);}.cls-22{fill:url(#linear-gradient-6);}.cls-23{fill:url(#linear-gradient-7);}.cls-24{fill:url(#linear-gradient-8);}.cls-25{fill:#fff;}.cls-26{fill:url(#linear-gradient-9);}.cls-27{fill:url(#linear-gradient-10);}.cls-28{fill:url(#linear-gradient-11);}.cls-29{fill:url(#linear-gradient-12);}.cls-30{fill:url(#linear-gradient-13);}.cls-31{fill:url(#linear-gradient-14);}.cls-32{fill:url(#linear-gradient-15);}.cls-33{fill:url(#linear-gradient-16);}</style><linearGradient id="linear-gradient" x1="49.11" y1="17.63" x2="49.11" y2="20.29" gradientUnits="userSpaceOnUse"><stop offset="0" stop-color="#d4d7d9"/><stop offset="0.22" stop-color="#ced1d3"/><stop offset="0.51" stop-color="#bec1c3"/><stop offset="0.84" stop-color="#a3a5a8"/><stop offset="1" stop-color="#939598"/></linearGradient><linearGradient id="linear-gradient-2" x1="49.11" y1="23.39" x2="49.11" y2="26.05" xlink:href="#linear-gradient"/><linearGradient id="linear-gradient-3" x1="49.11" y1="29.15" x2="49.11" y2="31.81" xlink:href="#linear-gradient"/><linearGradient id="linear-gradient-4" x1="49.11" y1="34.91" x2="49.11" y2="37.56" xlink:href="#linear-gradient"/><linearGradient id="linear-gradient-5" x1="49.11" y1="40.66" x2="49.11" y2="43.32" xlink:href="#linear-gradient"/><linearGradient id="linear-gradient-6" x1="49.11" y1="46.42" x2="49.11" y2="49.08" xlink:href="#linear-gradient"/><linearGradient id="linear-gradient-7" x1="49.11" y1="52.18" x2="49.11" y2="54.84" xlink:href="#linear-gradient"/><linearGradient id="linear-gradient-8" x1="49.11" y1="57.94" x2="49.11" y2="60.6" xlink:href="#linear-gradient"/><linearGradient id="linear-gradient-9" x1="86.89" y1="17.63" x2="86.89" y2="20.29" gradientUnits="userSpaceOnUse"><stop offset="0" stop-color="#f2f2f2"/><stop offset="0.35" stop-color="#eee"/><stop offset="0.71" stop-color="#e2e2e3"/><stop offset="1" stop-color="#d2d3d4"/></linearGradient><linearGradient id="linear-gradient-10" x1="86.89" y1="23.39" x2="86.89" y2="26.05" xlink:href="#linear-gradient-9"/><linearGradient id="linear-gradient-11" x1="86.89" y1="29.15" x2="86.89" y2="31.81" xlink:href="#linear-gradient-9"/><linearGradient id="linear-gradient-12" x1="86.89" y1="34.91" x2="86.89" y2="37.56" xlink:href="#linear-gradient-9"/><linearGradient id="linear-gradient-13" x1="86.89" y1="40.66" x2="86.89" y2="43.32" xlink:href="#linear-gradient-9"/><linearGradient id="linear-gradient-14" x1="86.89" y1="46.42" x2="86.89" y2="49.08" xlink:href="#linear-gradient-9"/><linearGradient id="linear-gradient-15" x1="86.89" y1="52.18" x2="86.89" y2="54.84" xlink:href="#linear-gradient-9"/><linearGradient id="linear-gradient-16" x1="86.89" y1="57.94" x2="86.89" y2="60.6" xlink:href="#linear-gradient-9"/></defs><title>icn_tower_pad</title><g class="cls-1"><g id="Слой_2" data-name="Слой 2"><g id="Layer_1" data-name="Layer 1"><g class="cls-2"><path class="cls-3" d="M127.67,51C94.09,31.63,59.43,31.63,25.85,51h0C9.06,60.72.66,70.57.66,80.42s8.4,19.7,25.19,29.39c33.58,19.39,68.24,19.39,101.82,0,16.79-9.69,25.19-19.54,25.19-29.39S144.46,60.72,127.67,51Z"/></g><path class="cls-4" d="M117.18,86.38c-31,17.89-63,17.89-93.94,0C7.75,77.43,0,68.34,0,59.26V72.79C0,81.88,7.75,91,23.24,99.91c31,17.89,63,17.89,93.94,0,15.49-8.94,23.24-18,23.24-27.12V59.26C140.42,68.34,132.67,77.43,117.18,86.38Z"/><path class="cls-5" d="M117.18,32.14c-31-17.89-63-17.89-93.94,0h0C7.74,41.08,0,50.17,0,59.26S7.75,77.43,23.24,86.38c31,17.89,63,17.89,93.94,0,15.49-8.94,23.24-18,23.24-27.12S132.67,41.08,117.18,32.14Z"/><polygon class="cls-4" points="46.67 65.49 40.06 69.5 68.75 85.65 95.2 69.5 89.33 65.49 46.67 65.49"/><polygon class="cls-6" points="46.67 13.57 46.67 65.49 68 77.8 68 25.89 46.67 13.57"/><polygon class="cls-7" points="46.67 13.58 68 1.26 89.33 13.58 68 25.89 46.67 13.58"/><polygon class="cls-8" points="85.24 13.17 67.99 23.13 50.76 13.17 68 3.22 85.24 13.17"/><polygon class="cls-9" points="80.41 7.21 68 14.38 55.59 7.21 68 0.05 80.41 7.21"/><polygon class="cls-6" points="68 16.01 68 14.38 55.59 7.21 55.59 13.12 68 20.29 68 16.01 68 16.01"/><polygon class="cls-10" points="80.41 7.23 80.41 7.23 80.41 7.21 68 14.38 68 20.29 80.41 13.12 80.41 8.85 80.41 8.85 80.41 7.23"/><polygon class="cls-11" points="56.65 9.46 56.65 13.74 59.02 15.11 59.02 10.83 56.65 9.46"/><polygon class="cls-11" points="59.41 11.06 59.41 15.33 61.78 16.7 61.78 12.43 59.41 11.06"/><polygon class="cls-11" points="62.18 12.66 62.18 16.93 64.55 18.3 64.55 14.03 62.18 12.66"/><polygon class="cls-11" points="64.94 14.26 64.94 18.53 67.31 19.9 67.31 15.62 64.94 14.26"/><polygon class="cls-12" points="79.42 9.42 79.42 13.7 77.05 15.06 77.05 10.79 79.42 9.42"/><polygon class="cls-12" points="76.65 11.02 76.65 15.29 74.28 16.66 74.28 12.39 76.65 11.02"/><polygon class="cls-12" points="73.89 12.62 73.89 16.89 71.52 18.26 71.52 13.98 73.89 12.62"/><polygon class="cls-12" points="71.12 14.21 71.12 18.49 68.75 19.86 68.75 15.58 71.12 14.21"/><polygon class="cls-13" points="68 20.29 74.6 20.29 87.13 13.18 80.41 9.27 80.41 10.38 80.41 13.12 68 20.29"/><polygon class="cls-14" points="80.41 7.21 68 14.38 68 20.29 80.41 13.12 80.41 7.21"/><polygon class="cls-15" points="89.33 13.57 68 25.89 68 77.8 89.33 65.49 89.33 16.47 89.33 13.57"/><polygon class="cls-16" points="66.54 28.03 48.53 17.63 48.53 20.29 66.54 30.68 66.54 28.03"/><polygon class="cls-16" points="66.54 33.78 48.53 23.39 48.53 26.05 66.54 36.44 66.54 33.78"/><polygon class="cls-16" points="66.54 39.54 48.53 29.15 48.53 31.81 66.54 42.2 66.54 39.54"/><polygon class="cls-16" points="66.54 45.3 48.53 34.91 48.53 37.56 66.54 47.96 66.54 45.3"/><polygon class="cls-16" points="66.54 51.06 48.53 40.66 48.53 43.32 66.54 53.72 66.54 51.06"/><polygon class="cls-16" points="66.54 56.82 48.53 46.42 48.53 49.08 66.54 59.47 66.54 56.82"/><polygon class="cls-16" points="66.54 62.57 48.53 52.18 48.53 54.84 66.54 65.23 66.54 62.57"/><polygon class="cls-16" points="66.54 68.33 48.53 57.94 48.53 60.6 66.54 70.99 66.54 68.33"/><polygon class="cls-17" points="48.53 20.29 49.69 19.63 49.69 18.3 48.53 17.63 48.53 20.29"/><polygon class="cls-18" points="48.53 26.05 49.69 25.38 49.69 24.05 48.53 23.39 48.53 26.05"/><polygon class="cls-19" points="48.53 31.81 49.69 31.14 49.69 29.81 48.53 29.15 48.53 31.81"/><polygon class="cls-20" points="48.53 37.56 49.69 36.9 49.69 35.57 48.53 34.91 48.53 37.56"/><polygon class="cls-21" points="48.53 43.32 49.69 42.66 49.69 41.33 48.53 40.66 48.53 43.32"/><polygon class="cls-22" points="48.53 49.08 49.69 48.42 49.69 47.09 48.53 46.42 48.53 49.08"/><polygon class="cls-23" points="48.53 54.84 49.69 54.17 49.69 52.84 48.53 52.18 48.53 54.84"/><polygon class="cls-24" points="48.53 60.6 49.69 59.93 49.69 58.6 48.53 57.94 48.53 60.6"/><polygon class="cls-25" points="49.69 19.63 66.54 29.4 66.54 30.68 48.53 20.29 49.69 19.63"/><polygon class="cls-25" points="49.69 25.38 66.54 35.16 66.54 36.44 48.53 26.05 49.69 25.38"/><polygon class="cls-25" points="49.69 31.14 66.54 40.92 66.54 42.2 48.53 31.81 49.69 31.14"/><polygon class="cls-25" points="49.69 36.9 66.54 46.68 66.54 47.96 48.53 37.56 49.69 36.9"/><polygon class="cls-25" points="49.69 42.66 66.54 52.44 66.54 53.72 48.53 43.32 49.69 42.66"/><polygon class="cls-25" points="49.69 48.42 66.54 58.19 66.54 59.47 48.53 49.08 49.69 48.42"/><polygon class="cls-25" points="49.69 54.17 66.54 63.95 66.54 65.23 48.53 54.84 49.69 54.17"/><polygon class="cls-25" points="49.69 59.93 66.54 69.71 66.54 70.99 48.53 60.6 49.69 59.93"/><polygon class="cls-16" points="69.46 28.03 87.47 17.63 87.47 20.29 69.46 30.68 69.46 28.03"/><polygon class="cls-25" points="86.31 19.63 69.46 29.4 69.46 30.68 87.47 20.29 86.31 19.63"/><polygon class="cls-16" points="69.46 33.78 87.47 23.39 87.47 26.05 69.46 36.44 69.46 33.78"/><polygon class="cls-16" points="69.46 39.54 87.47 29.15 87.47 31.81 69.46 42.2 69.46 39.54"/><polygon class="cls-16" points="69.46 45.3 87.47 34.91 87.47 37.56 69.46 47.96 69.46 45.3"/><polygon class="cls-16" points="69.46 51.06 87.47 40.66 87.47 43.32 69.46 53.72 69.46 51.06"/><polygon class="cls-16" points="69.46 56.82 87.47 46.42 87.47 49.08 69.46 59.47 69.46 56.82"/><polygon class="cls-16" points="69.46 62.57 87.47 52.18 87.47 54.84 69.46 65.23 69.46 62.57"/><polygon class="cls-16" points="69.46 68.33 87.47 57.94 87.47 60.6 69.46 70.99 69.46 68.33"/><polygon class="cls-26" points="87.47 20.29 86.31 19.63 86.31 18.3 87.47 17.63 87.47 20.29"/><polygon class="cls-27" points="87.47 26.05 86.31 25.38 86.31 24.05 87.47 23.39 87.47 26.05"/><polygon class="cls-28" points="87.47 31.81 86.31 31.14 86.31 29.81 87.47 29.15 87.47 31.81"/><polygon class="cls-29" points="87.47 37.56 86.31 36.9 86.31 35.57 87.47 34.91 87.47 37.56"/><polygon class="cls-30" points="87.47 43.32 86.31 42.66 86.31 41.33 87.47 40.66 87.47 43.32"/><polygon class="cls-31" points="87.47 49.08 86.31 48.42 86.31 47.09 87.47 46.42 87.47 49.08"/><polygon class="cls-32" points="87.47 54.84 86.31 54.17 86.31 52.84 87.47 52.18 87.47 54.84"/><polygon class="cls-33" points="87.47 60.6 86.31 59.93 86.31 58.6 87.47 57.94 87.47 60.6"/><polygon class="cls-25" points="86.31 25.38 69.46 35.16 69.46 36.44 87.47 26.05 86.31 25.38"/><polygon class="cls-25" points="86.31 31.14 69.46 40.92 69.46 42.2 87.47 31.81 86.31 31.14"/><polygon class="cls-25" points="86.31 36.9 69.46 46.68 69.46 47.96 87.47 37.56 86.31 36.9"/><polygon class="cls-25" points="86.31 42.66 69.46 52.44 69.46 53.72 87.47 43.32 86.31 42.66"/><polygon class="cls-25" points="86.31 48.42 69.46 58.19 69.46 59.47 87.47 49.08 86.31 48.42"/><polygon class="cls-25" points="86.31 54.17 69.46 63.95 69.46 65.23 87.47 54.84 86.31 54.17"/><polygon class="cls-25" points="86.31 59.93 69.46 69.71 69.46 70.99 87.47 60.6 86.31 59.93"/><polygon class="cls-13" points="48.54 20.29 50.83 20.29 50.83 18.95 48.54 17.63 48.54 20.29"/><polygon class="cls-13" points="48.54 26.05 50.84 26.05 50.84 24.71 48.54 23.39 48.54 26.05"/><polygon class="cls-13" points="48.54 31.8 50.83 31.8 50.83 30.47 48.54 29.14 48.54 31.8"/><polygon class="cls-13" points="48.54 37.56 50.83 37.56 50.83 36.23 48.54 34.9 48.54 37.56"/><polygon class="cls-13" points="48.54 43.32 50.84 43.32 50.84 41.99 48.54 40.66 48.54 43.32"/><polygon class="cls-13" points="48.54 49.08 50.84 49.08 50.84 47.75 48.54 46.42 48.54 49.08"/><polygon class="cls-13" points="48.54 54.84 50.84 54.84 50.84 53.5 48.54 52.18 48.54 54.84"/><polygon class="cls-13" points="48.54 60.6 50.84 60.6 50.84 59.26 48.54 57.94 48.54 60.6"/></g></g></g></svg>